<svg width="37" height="36" viewBox="0 0 37 36" fill="none" xmlns="http://www.w3.org/2000/svg">
<path d="M36.5545 13.2132C36.2572 12.3009 35.4683 11.6377 34.5177 11.4993L24.8889 10.1002L20.5863 1.4064C19.7344 -0.31255 16.9187 -0.31255 16.0667 1.4064L11.7641 10.1002L2.15814 11.4993C1.2103 11.6377 0.421397 12.3033 0.124013 13.2159C-0.173371 14.1259 0.07374 15.1267 0.761707 15.7969L7.72877 22.5876L6.08523 32.1685C5.92397 33.1136 6.31223 34.0715 7.08837 34.6361C7.86722 35.198 8.8982 35.2715 9.74511 34.8252L18.3256 30.3006L26.9311 34.8252C27.2993 35.0193 27.7026 35.1152 28.1033 35.1152C28.6249 35.1152 29.1466 34.9513 29.5879 34.6365C30.3644 34.0692 30.7523 33.114 30.591 32.1688L28.9502 22.588L35.9172 15.7972C36.6052 15.129 36.8519 14.1259 36.5545 13.2132Z" fill="#FFDC0A"/>
</svg>
