<svg width="60" height="36" viewBox="0 0 60 36" fill="none" xmlns="http://www.w3.org/2000/svg">
<path fill-rule="evenodd" clip-rule="evenodd" d="M14.22 31L16.0014 22.1129H18.9001L17.1287 31H14.22ZM22.9662 28.0913H24.8081L24.335 24.8303L22.9662 28.0913ZM18.9001 31L23.2883 22.1129H26.1467L27.9482 31H25.261L25.0999 29.9432H22.2416L21.7886 31H18.9001ZM30.6154 31L31.6118 24.317H29.0755L29.5083 22.0726H37.2983L36.8656 24.317H34.45L33.4738 31H30.6154ZM40.358 28.0913H42.1999L41.7268 24.8303L40.358 28.0913ZM36.3019 31L40.6801 22.1129H43.5385L45.34 31H42.6326L42.5018 29.9432H39.6434L39.1905 31H36.3019ZM51.6707 12.0683H38.0331C37.5298 14.5643 35.7987 16.6477 32.3465 18.087C32.739 19.2746 34.0776 20.3717 35.4666 20.3717H42.8641C43.9914 20.3717 44.8871 19.4256 45.2495 18.6607H37.7311C37.2682 18.5802 37.248 18.2078 37.711 18.1675H45.0985C46.0546 18.1675 46.9202 17.3523 47.4234 16.4666H38.8181C38.3853 16.3961 38.3853 16.0338 38.8181 15.9633H47.4939C48.3695 15.9633 49.1646 14.9468 49.4968 14.2624H39.9756C39.5025 14.202 39.5025 13.7592 39.9756 13.7491H49.6679C50.4227 13.7491 51.1574 12.9238 51.6707 12.0683ZM8 12.0683H21.6377C22.1308 14.5643 23.872 16.6477 27.3142 18.087C26.9216 19.2746 25.583 20.3717 24.1941 20.3717H16.8066C15.6794 20.3717 14.7836 19.4256 14.4213 18.6607H21.9396C22.3925 18.5802 22.4227 18.2078 21.9597 18.1675H14.5622C13.606 18.1675 12.7405 17.3523 12.2473 16.4666H20.8627C21.2955 16.3961 21.2955 16.0338 20.8627 15.9633H12.1869C11.3113 15.9633 10.5162 14.9468 10.184 14.2624H19.7052C20.1783 14.202 20.1783 13.7592 19.7052 13.7491H10.0129C9.24802 13.7491 8.5133 12.9238 8 12.0683ZM25.4119 4.58016C25.9152 5.01294 26.4788 5.3954 27.0827 5.63695C27.596 4.63048 28.3106 3.76492 29.1359 3C27.7771 3.18116 26.4989 3.69446 25.4119 4.58016ZM22.9964 9.54206H26.0359C26.1064 8.29403 26.3681 7.19698 26.8613 6.06973C26.1869 5.76779 25.6032 5.40546 25.0395 4.92236C23.7815 6.18045 23.087 7.80086 22.9964 9.54206ZM29.5988 6.69375V9.54206H26.5593C26.5794 8.42487 26.8411 7.2775 27.3142 6.24083C28.0388 6.50252 28.8239 6.67362 29.5988 6.69375ZM34.2588 4.58016C33.7656 5.01294 33.1819 5.3954 32.5881 5.63695C32.0446 4.61035 31.3702 3.78505 30.5248 3.01006C31.8936 3.18116 33.1718 3.69446 34.2588 4.58016ZM36.6643 9.54206H33.6348C33.5945 8.31416 33.3127 7.16679 32.8296 6.06973C33.4738 5.76779 34.0877 5.38533 34.6211 4.92236C35.9295 6.23077 36.6039 7.84112 36.6643 9.54206ZM30.092 6.69375V9.54206H33.1114C33.1114 8.39468 32.8296 7.29763 32.3566 6.24083C31.6319 6.50252 30.8569 6.67362 30.092 6.69375ZM25.4119 15.0072C25.9152 14.6147 26.4989 14.1819 27.0827 13.9705C27.6262 14.9871 28.3005 15.8224 29.1359 16.5773C27.7771 16.3961 26.4788 15.8828 25.4119 15.0072ZM22.9964 10.0352H26.0359C26.1064 11.2933 26.3681 12.4004 26.8613 13.5377C26.1869 13.8397 25.6032 14.202 25.0395 14.6751C23.8016 13.427 23.087 11.8066 22.9964 10.0352ZM29.5988 12.8936V10.0352H26.5593C26.5794 11.1826 26.8411 12.3199 27.3142 13.3364C28.0388 13.0748 28.8239 12.9137 29.5988 12.8936ZM34.2588 15.0072C33.7858 14.5945 33.1819 14.2121 32.5881 13.9705C32.0446 14.9871 31.3702 15.8224 30.5248 16.5773C31.8936 16.3961 33.1718 15.8828 34.2588 15.0072ZM36.6643 10.0352H33.6348C33.5945 11.2933 33.3228 12.4105 32.8296 13.5377C33.4738 13.8397 34.0575 14.202 34.6211 14.6751C35.8692 13.427 36.6039 11.7664 36.6643 10.0352ZM30.092 12.8936V10.0352H33.1114C33.1114 11.1826 32.8296 12.2998 32.3566 13.3364C31.652 13.0748 30.8368 12.9137 30.092 12.8936ZM29.5989 3.29188C28.7735 3.95615 28.0388 4.86197 27.5557 5.80805C28.2099 6.02948 28.9044 6.21064 29.5989 6.21064V3.29188ZM30.092 3.29188C30.8972 3.95615 31.6319 4.83178 32.115 5.80805C31.4608 6.0496 30.7664 6.21064 30.092 6.21064V3.29188ZM29.5989 16.2955C28.7735 15.6413 28.0388 14.7354 27.5557 13.7692C28.2099 13.5377 28.9044 13.4069 29.5989 13.4069V16.2955ZM30.092 16.3156C30.8972 15.6413 31.6319 14.7354 32.115 13.7692C31.4608 13.5579 30.7664 13.4069 30.092 13.4069V16.3156Z" fill="#212121"/>
</svg>
