<svg width="36" height="36" viewBox="0 0 36 36" fill="none" xmlns="http://www.w3.org/2000/svg">
<circle cx="18" cy="18" r="17" fill="#486EF4"/>
<path fill-rule="evenodd" clip-rule="evenodd" d="M23.9938 12.5869C24.8316 12.6806 25.5276 13.3086 25.7235 14.1599C26 15.3622 26 16.6738 26 17.9129V17.9435C26 19.1914 25.999 20.5145 25.7201 21.7268C25.5242 22.578 24.828 23.206 23.9906 23.2997C22.0069 23.5214 19.999 23.5226 17.9994 23.5214C16.0001 23.5226 13.9918 23.5214 12.0079 23.2997C11.17 23.2059 10.4743 22.5778 10.2788 21.7268C10 20.5147 10 19.1916 10 17.9435C10 16.6954 10.0031 15.3721 10.2819 14.1599C10.4778 13.3086 11.1733 12.6806 12.0107 12.5869C13.9948 12.3654 16.0033 12.3642 18.0026 12.3654C20.0015 12.3642 22.0097 12.3654 23.9938 12.5869ZM15.9352 15.1345V20.4278C16.6488 20.0576 17.3598 19.6888 18.0705 19.3203C19.0529 18.8107 20.0347 18.3015 21.0219 17.7893L15.9352 15.1345Z" fill="white"/>
</svg>
