<svg width="149" height="64" viewBox="0 0 149 64" fill="none" xmlns="http://www.w3.org/2000/svg">
<g clip-path="url(#clip0_235_270)">
<path fill-rule="evenodd" clip-rule="evenodd" d="M59.8861 16.2067C59.8592 14.1346 59.882 12.0476 59.882 9.9739C59.882 4.69848 59.1094 4.63207 66.8604 4.63201C68.4144 4.63201 71.141 4.42217 72.3303 5.18274C73.1093 5.68093 72.9685 6.60925 72.968 7.75445C72.9641 16.9407 74.1463 16.2518 65.9202 16.2518C64.4224 16.2518 61.179 16.4296 59.8861 16.2067L59.8861 16.2067ZM69.6787 20.8757C73.9433 20.847 76.6539 19.2681 77.1504 15.2477C77.1061 12.2391 77.2318 9.18033 77.1707 6.16491C77.1118 3.26345 75.6205 1.57473 73.473 0.741449C71.0674 -0.192038 67.8715 0.0213804 65.0844 0.0202443C62.3485 0.019165 59.2466 0.077902 57.5623 1.62495C55.4993 3.5197 55.7079 5.62321 55.7079 8.91703V22.6567C55.7079 24.6898 55.2798 27.1377 58.5773 26.5288C59.2675 26.4014 59.5603 26.0443 59.7577 25.3999C60.0326 24.5024 59.8262 22.028 59.8938 20.8861L69.6786 20.8757L69.6787 20.8757Z" fill="#FE0000"/>
<path fill-rule="evenodd" clip-rule="evenodd" d="M87.0705 19.865C87.2837 20.7878 87.1238 24.8943 87.1238 26.1452C87.1238 28.8537 87.5958 30.3003 85.7586 30.9908C84.1849 31.5823 81.7276 31.4396 79.9185 31.4396C72.9996 31.4399 73.7778 31.4905 73.7778 25.0883C73.7778 22.9403 73.2619 20.9292 75.1149 20.235C76.6042 19.6771 79.2089 19.8479 80.9631 19.8483C82.8788 19.8487 85.2058 19.7284 87.0704 19.865H87.0705ZM77.15 15.2484C76.6536 19.2688 73.943 20.8477 69.6784 20.8765C69.5411 21.889 69.5549 28.487 69.5626 29.9512C69.599 36.8249 77.1825 36.0415 81.6945 36.0419C84.7455 36.0421 86.9595 35.8145 88.9057 34.1805C91.0799 32.3549 91.287 31.187 91.2864 27.4134V13.6738C91.2864 11.578 91.7459 9.15574 88.5082 9.68772C86.3125 10.0485 87.4434 13.2661 87.0897 15.2119L77.15 15.2484H77.15Z" fill="#0091FE"/>
<path fill-rule="evenodd" clip-rule="evenodd" d="M139.621 58.7482C140.18 58.5932 145.714 58.4472 146.357 58.9211C146.785 59.2364 146.828 60.37 146.459 60.8073C145.952 61.4079 139.877 61.1896 139.675 61.009C139.365 60.731 139.55 59.2124 139.621 58.7482V58.7482ZM139.728 55.6704C139.474 55.357 139.579 54.2041 139.605 53.7187C139.628 53.2791 139.652 53.2633 140.082 53.2454C140.409 53.2318 140.796 53.2518 141.137 53.2467C141.989 53.2339 144.558 53.1546 145.233 53.3053C145.85 53.4429 146.436 53.5124 146.59 54.0037C146.767 54.5696 146.686 55.3993 146.224 55.6048C145.558 55.9016 143.301 55.7967 142.391 55.7967C141.944 55.7967 140.003 55.9228 139.728 55.6704H139.728ZM137.916 50.7422C137.318 50.8791 137.236 50.9177 136.947 51.3949C136.671 51.8495 136.729 52.1187 136.735 52.7782L136.743 62.4968C136.865 63.4228 137.649 63.7895 138.626 63.7818L145.003 63.7775C146.176 63.7807 146.808 63.6456 147.561 63.0784C148.043 62.7155 148.718 62.0816 148.855 61.2227C148.988 60.3895 148.98 58.7952 148.714 58.0999C148.147 56.6139 148.892 56.7134 148.968 55.5265C149.096 53.5198 148.923 51.8635 146.973 51.1003C145.373 50.4736 145.838 50.8572 144.151 50.671C143.138 50.5592 138.751 50.5512 137.916 50.7422H137.916Z" fill="#007ECA"/>
<path fill-rule="evenodd" clip-rule="evenodd" d="M45.776 61.0323C45.7947 60.9534 49.206 54.8173 49.206 54.8173C49.7072 55.6027 52.2204 60.9989 52.2204 60.9989C51.6698 61.1439 46.7835 61.1066 45.776 61.0323ZM44.7134 63.6577C47.1509 63.6535 49.5886 63.6572 52.0262 63.6572C53.1465 63.6572 54.5817 63.586 55.5536 63.6138C57.6692 63.6744 57.6378 61.4038 55.8847 61.0979C55.2123 60.9806 55.2506 60.8015 54.977 60.2606C53.7222 57.8564 52.5075 55.4531 51.2338 53.0556C50.5125 51.627 49.2639 49.0167 47.5884 51.784L45.098 56.5487C44.6706 57.3928 42.95 60.9603 42.3946 61.0691C41.6897 61.2073 41.3786 61.1082 40.9921 61.5835C40.7202 61.9177 40.4825 62.3147 40.6696 62.7857C41.1567 64.0123 42.4742 63.4176 44.7134 63.6576V63.6577Z" fill="#007ECA"/>
<path fill-rule="evenodd" clip-rule="evenodd" d="M67.4476 60.5979C67.141 61.2175 65.142 61.2789 64.4578 61.2838C60.0053 61.3158 60.8406 60.8357 60.7868 57.533C60.7751 56.8131 60.6669 54.3973 60.9512 53.9814C61.5309 53.1333 66.2153 52.947 67.2081 53.6926C67.81 54.1446 67.5724 56.1177 67.5727 57.0045C67.573 57.8221 67.716 60.0554 67.4475 60.5979H67.4476ZM63.4378 50.6368C62.2527 50.8419 62.3393 50.5076 60.6584 51.0464C57.4008 52.0905 58.2989 54.2213 58.0576 57.8458C58.0297 58.2661 58.1443 60.379 58.2272 60.8567C58.6597 63.3495 61.3508 63.6002 63.1643 63.9269C64.6466 64.194 68.5339 63.6544 69.5435 62.4694C70.3817 61.4858 70.142 58.3234 70.1419 56.5817C70.1419 55.0913 70.3731 52.4749 68.7742 51.4785C68.2802 51.1706 68.3896 51.1078 67.7052 50.968C66.5832 50.7387 64.636 50.4293 63.4378 50.6368Z" fill="#007ECA"/>
<path fill-rule="evenodd" clip-rule="evenodd" d="M132.201 60.3886C131.879 61.7236 126.938 61.3509 126.01 61.022C125.141 60.7143 125.383 59.4516 125.394 57.9578C125.399 57.2593 125.308 54.7055 125.449 54.2311C125.843 52.8977 130.586 53.0844 131.656 53.6001C132.525 54.0187 132.247 55.5433 132.25 56.6895C132.252 57.464 132.337 59.8268 132.201 60.3887V60.3886ZM122.78 54.3643L122.778 59.226C122.783 61.2053 122.818 62.1445 124.931 63.2507C125.865 63.7397 128.133 64.0013 129.228 64.0007C130.047 64.0002 132.729 63.4833 133.383 63.0949C134.986 62.1439 134.759 60.1785 134.764 58.1691C134.772 54.8746 135.358 51.583 131.814 50.7886C131.182 50.647 130.095 50.6967 129.385 50.595C127.713 50.3555 124.495 50.7878 123.351 52.3242C123.034 52.7493 122.78 53.6407 122.78 54.3642V54.3643Z" fill="#007ECA"/>
<path fill-rule="evenodd" clip-rule="evenodd" d="M97.8834 60.388C97.7355 59.6734 97.8466 57.547 97.8468 56.6889C97.8475 53.8413 97.2464 53.2116 101.86 53.2527C102.796 53.2611 104.375 53.3342 104.656 54.1876C104.725 54.3968 104.842 60.0684 104.573 60.6009C104.152 61.4354 101.575 61.2978 100.708 61.2961C99.7825 61.2944 98.0768 61.3227 97.8834 60.388V60.388ZM95.1759 57.5344C95.1872 61.0571 94.9479 62.2174 97.8221 63.4061C99.0131 63.8986 105.372 64.4074 106.709 62.2405C107.402 61.1188 107.163 57.437 107.163 56.0547C107.164 54.2448 107.37 54.6988 106.945 52.997C106.869 52.6892 106.892 52.7541 106.776 52.5384C105.958 51.026 104.706 50.8839 103.24 50.7252C101.981 50.5888 102.699 50.5395 101.23 50.5371C99.6125 50.5345 97.2179 50.8684 96.1145 51.9366C94.9561 53.0583 95.1813 55.4466 95.1759 57.5344H95.1759Z" fill="#007ECA"/>
<path fill-rule="evenodd" clip-rule="evenodd" d="M37.1009 60.5993C36.7858 61.2566 34.8715 61.3006 34.1624 61.3056C29.579 61.3372 30.3679 61.1234 30.3193 57.64C30.3085 56.8592 30.1603 54.4875 30.468 54.0059C31.1551 52.9304 35.3862 53.065 36.6664 53.6188C37.472 53.9674 37.2186 55.4226 37.2163 56.9002C37.2151 57.6431 37.3354 60.1104 37.101 60.5993H37.1009ZM27.6767 57.64C27.6756 59.9399 27.4543 61.7917 29.3294 62.9428C30.2699 63.52 32.4403 64.0182 33.574 63.934C35.6929 63.869 36.3875 63.822 38.1445 63.1348C38.8527 62.8961 39.1015 62.4874 39.3968 61.7891C39.7161 61.0336 39.5874 59.1125 39.587 58.0628C39.5867 56.0654 39.9504 53.6518 39.0678 52.2471C37.9519 50.4714 34.9496 50.6365 33.0132 50.6371C31.6249 50.6377 29.2602 51.0413 28.4229 52.1358C27.9499 52.7541 27.8103 53.5199 27.7894 54.5784L27.6767 57.6401V57.64Z" fill="#F32326"/>
<path fill-rule="evenodd" clip-rule="evenodd" d="M111.727 56.6461C111.622 55.9744 111.54 53.8972 111.725 53.3074C112.072 53.2132 117.498 53.1072 118.263 53.4165C118.981 53.7069 119.053 54.1039 119.016 55.0005C118.937 56.9071 117.945 56.7855 116.17 56.761C115.087 56.7461 112.563 56.923 111.727 56.6462L111.727 56.6461ZM113.037 50.6649C108.336 50.651 109.007 49.9071 109.018 57.9577C109.019 58.9933 108.88 62.2556 109.145 62.934C109.513 63.8769 110.76 63.9944 111.317 63.189C111.707 62.6248 111.602 61.3589 111.602 60.4942C111.602 59.3114 111.294 59.5122 113.767 59.513C114.745 59.5133 115.945 59.5767 116.896 59.5112C117.542 59.4666 118.804 59.2519 119.433 58.9432C121.137 58.1056 121.467 56.4497 121.462 54.5741C121.459 53.3029 120.972 51.8281 119.958 51.2757L118.834 50.822C118.723 50.7902 115.956 50.5309 115.856 50.5362L113.037 50.6648V50.6649Z" fill="#007ECA"/>
<path fill-rule="evenodd" clip-rule="evenodd" d="M16.4086 56.6882C16.3297 56.4641 16.1269 53.4194 16.5438 53.2628C16.7383 53.1897 19.6994 53.2319 20.1631 53.2326C21.1938 53.2326 23.0064 53.0708 23.4904 53.7429C23.7428 54.0935 23.7644 55.2722 23.639 55.7589C23.2904 57.1114 21.4285 56.7922 20.0586 56.7926C18.8403 56.7925 17.6177 56.8427 16.4086 56.6882V56.6882ZM16.5066 50.7338C13.607 50.7327 13.7187 50.6748 13.7161 53.8346L13.7156 61.2328C13.7159 62.018 13.5671 62.7313 14.0025 63.2398C14.4044 63.7092 14.9833 63.84 15.5626 63.5554C16.5948 63.0482 16.2816 61.4276 16.2813 59.5183L17.553 59.5069C19.1333 59.6146 23.1157 59.5754 24.4016 58.7663C26.4429 57.4818 26.6301 53.7502 25.4198 52.0007C24.1845 50.2151 18.9502 50.5577 16.5065 50.7338H16.5066Z" fill="#F32326"/>
<path fill-rule="evenodd" clip-rule="evenodd" d="M74.5737 55.0209C74.3486 53.8996 74.7997 51.964 74.1122 51.1453C73.5665 50.4955 71.9125 50.266 71.9094 52.5666L71.9069 62.29C71.907 63.6222 73.5489 64.2731 74.3127 62.9678C74.7412 62.2356 74.2587 60.2919 74.5454 59.398C74.9599 59.2035 75.932 60.0665 76.4715 60.4983C77.1187 61.0163 80.5774 63.5275 81.2042 63.6459C81.6881 63.7373 82.1707 63.5759 82.4156 63.3338C82.7155 63.0373 82.8221 62.5644 82.7061 62.1461C82.5778 61.6838 82.362 61.5243 81.9679 61.2733C81.634 61.0608 81.3418 60.8256 81.0601 60.6109L78.2768 58.6694C77.8347 58.3845 76.633 57.6484 76.4577 57.2168C76.876 56.4309 80.8314 54.0266 81.9044 53.205C82.1904 52.9861 82.5806 52.729 82.6952 52.3897C82.9344 51.6813 82.5045 50.6162 81.3926 50.6626C80.7678 50.6887 78.9748 52.0806 78.4638 52.4642L75.7164 54.4406C75.3503 54.7083 75.0932 54.9902 74.5737 55.0207L74.5737 55.0209Z" fill="#007ECA"/>
<path fill-rule="evenodd" clip-rule="evenodd" d="M2.53319 55.4215C2.53426 54.3513 2.40236 53.8143 3.3633 53.5356C4.31845 53.2585 7.13939 53.2298 8.25513 53.4429C9.11651 53.6074 9.48883 53.7892 9.49074 54.7875L9.49181 61.763C9.49181 62.6333 9.57143 63.6804 10.9673 63.6785C11.7833 63.4132 11.9965 62.9358 12.004 62.1477C12.0251 59.915 12.3489 54.914 11.7002 52.9016C10.9526 50.5822 7.81885 50.7438 5.95571 50.7393C4.51503 50.7359 3.08295 50.8026 2.00129 51.3243C1.14934 51.7351 0.00108638 52.557 0.00103023 53.6249L0.000244141 62.8199C0.000917931 63.457 1.16354 63.8382 1.68522 63.5801C2.35789 63.2473 2.55453 62.862 2.54571 61.8707L2.53313 55.4216L2.53319 55.4215Z" fill="#F32326"/>
<path fill-rule="evenodd" clip-rule="evenodd" d="M85.8738 53.2314L87.8254 53.2395C87.8254 53.2395 87.969 59.2249 87.9685 61.7615C87.9695 62.3054 87.8768 62.7526 88.184 63.1271C88.7568 63.8252 89.2228 63.8485 89.7535 63.5748C90.8471 63.0108 90.5453 62.0304 90.5453 60.0704C90.5452 58.2305 90.3604 54.6002 90.6966 53.238L93.291 53.2335C94.9954 53.2335 95.977 50.6496 92.5597 50.6464L86.5005 50.6455C86.2055 50.6453 85.0896 50.6595 84.8668 50.687C83.6686 50.8344 83.2471 52.2612 84.1249 52.9667C84.5446 53.3038 85.2215 53.2297 85.8737 53.2315L85.8738 53.2314Z" fill="#007ECA"/>
<path fill-rule="evenodd" clip-rule="evenodd" d="M63.2524 10.8198C63.6532 12.2918 65.2919 13.2669 67.1555 12.9261C71.3576 12.1579 69.9925 6.54384 65.7961 7.30635C64.2808 7.58168 62.7275 8.89281 63.2523 10.8198H63.2524Z" fill="#FE0000"/>
<path fill-rule="evenodd" clip-rule="evenodd" d="M79.6742 23.1222C78.1846 23.4061 76.7934 24.6695 77.1772 26.4854C77.9493 30.1391 84.3001 29.1536 83.4443 25.3323C83.1167 23.8693 81.5083 22.7724 79.6741 23.1221L79.6742 23.1222Z" fill="#0091FE"/>
</g>
<defs>
<clipPath id="clip0_235_270">
<rect width="149" height="64" fill="white"/>
</clipPath>
</defs>
</svg>
