<svg width="262" height="303" viewBox="0 0 262 303" fill="none" xmlns="http://www.w3.org/2000/svg">
<path d="M75.2601 53.7279L75.2607 53.7276L132 21.0594L188.739 53.7276L188.74 53.7279L245.475 86.4177L245.475 151.747L245.475 217.101L188.74 249.791L188.739 249.791L132 282.46L75.2607 249.791L75.2601 249.791L18.5248 217.101L18.5248 151.747L18.5248 86.4177L75.2601 53.7279Z" fill="#F8F8F8" stroke="#4D4D4D" stroke-width="4.40566"/>
<path d="M68.1909 190.597L72.3709 179.498C72.6056 178.882 72.8733 178.456 73.1739 178.222C73.5333 177.936 73.9879 177.793 74.5379 177.793C75.0879 177.793 75.5426 177.936 75.9019 178.222C76.2026 178.456 76.4703 178.882 76.7049 179.498L80.8849 190.597C81.0316 190.993 81.1306 191.304 81.1819 191.532C81.2406 191.752 81.2406 192.005 81.1819 192.291C81.1306 192.569 80.9876 192.826 80.7529 193.061C80.3716 193.442 79.9096 193.633 79.3669 193.633C78.9269 193.633 78.5639 193.501 78.2779 193.237C78.1166 193.09 77.9846 192.925 77.8819 192.742C77.7866 192.558 77.6656 192.261 77.5189 191.851L77.2879 191.213H71.7879L71.5569 191.851C71.4103 192.261 71.2856 192.558 71.1829 192.742C71.0876 192.925 70.9593 193.09 70.7979 193.237C70.5119 193.501 70.1489 193.633 69.7089 193.633C69.1663 193.633 68.7043 193.442 68.3229 193.061C68.0883 192.826 67.9416 192.569 67.8829 192.291C67.8316 192.005 67.8316 191.752 67.8829 191.532C67.9416 191.304 68.0443 190.993 68.1909 190.597ZM76.1219 188.001L74.5379 183.645L72.9539 188.001H76.1219ZM97.0541 192.555L97.0541 194.359C97.0541 194.813 97.0394 195.14 97.0101 195.338C96.9881 195.536 96.9294 195.73 96.8341 195.921C96.7021 196.185 96.4931 196.397 96.2071 196.559C95.9284 196.72 95.6094 196.801 95.2501 196.801C94.8907 196.801 94.5681 196.72 94.2821 196.559C94.0034 196.397 93.7981 196.185 93.6661 195.921C93.5707 195.73 93.5084 195.536 93.4791 195.338C93.4571 195.14 93.4461 194.813 93.4461 194.359L93.4461 193.545H85.6691L85.6691 194.359C85.6691 194.813 85.6544 195.14 85.6251 195.338C85.6031 195.536 85.5444 195.73 85.4491 195.921C85.3171 196.185 85.1081 196.397 84.8221 196.559C84.5434 196.72 84.2244 196.801 83.8651 196.801C83.5057 196.801 83.1831 196.72 82.8971 196.559C82.6184 196.397 82.4131 196.185 82.2811 195.921C82.1857 195.73 82.1234 195.536 82.0941 195.338C82.0721 195.14 82.0611 194.813 82.0611 194.359L82.0611 192.555C82.0611 192.1 82.0721 191.774 82.0941 191.576C82.1234 191.378 82.1857 191.183 82.2811 190.993C82.3911 190.765 82.5634 190.575 82.7981 190.421C83.0327 190.267 83.3004 190.171 83.6011 190.135C84.1071 188.807 84.4921 187.275 84.7561 185.537C85.0274 183.791 85.1631 182.024 85.1631 180.235L85.1631 180.081C85.1631 179.289 85.3391 178.717 85.6911 178.365C85.8377 178.218 86.0174 178.108 86.2301 178.035C86.4427 177.954 86.6187 177.91 86.7581 177.903C86.9047 177.888 87.1064 177.881 87.3631 177.881H92.8961C93.1601 177.881 93.3691 177.888 93.5231 177.903C93.6771 177.91 93.8714 177.958 94.1061 178.046C94.3481 178.126 94.5534 178.251 94.7221 178.42C94.8907 178.588 95.0154 178.794 95.0961 179.036C95.1841 179.27 95.2317 179.465 95.2391 179.619C95.2537 179.773 95.2611 179.982 95.2611 180.246L95.2611 190.113C95.6131 190.12 95.9321 190.204 96.2181 190.366C96.5041 190.52 96.7094 190.729 96.8341 190.993C96.9294 191.183 96.9881 191.378 97.0101 191.576C97.0394 191.774 97.0541 192.1 97.0541 192.555ZM91.3891 190.113L91.3891 181.313H88.9251L88.9251 181.731C88.9251 183.461 88.8041 184.968 88.5621 186.252C88.3274 187.528 87.9791 188.815 87.5171 190.113H91.3891ZM98.355 190.597L102.535 179.498C102.77 178.882 103.037 178.456 103.338 178.222C103.697 177.936 104.152 177.793 104.702 177.793C105.252 177.793 105.707 177.936 106.066 178.222C106.367 178.456 106.634 178.882 106.869 179.498L111.049 190.597C111.196 190.993 111.295 191.304 111.346 191.532C111.405 191.752 111.405 192.005 111.346 192.291C111.295 192.569 111.152 192.826 110.917 193.061C110.536 193.442 110.074 193.633 109.531 193.633C109.091 193.633 108.728 193.501 108.442 193.237C108.281 193.09 108.149 192.925 108.046 192.742C107.951 192.558 107.83 192.261 107.683 191.851L107.452 191.213H101.952L101.721 191.851C101.574 192.261 101.45 192.558 101.347 192.742C101.252 192.925 101.123 193.09 100.962 193.237C100.676 193.501 100.313 193.633 99.873 193.633C99.3303 193.633 98.8683 193.442 98.487 193.061C98.2523 192.826 98.1057 192.569 98.047 192.291C97.9957 192.005 97.9957 191.752 98.047 191.532C98.1057 191.304 98.2083 190.993 98.355 190.597ZM106.286 188.001L104.702 183.645L103.118 188.001H106.286ZM121.355 191.037L121.355 181.313H117.263L117.263 191.037C117.263 191.513 117.248 191.854 117.219 192.06C117.197 192.258 117.131 192.467 117.021 192.687C116.882 192.965 116.658 193.193 116.35 193.369C116.049 193.545 115.708 193.633 115.327 193.633C114.946 193.633 114.601 193.545 114.293 193.369C113.992 193.193 113.772 192.965 113.633 192.687C113.523 192.467 113.453 192.258 113.424 192.06C113.402 191.854 113.391 191.513 113.391 191.037L113.391 180.246C113.391 179.982 113.395 179.773 113.402 179.619C113.417 179.465 113.464 179.27 113.545 179.036C113.633 178.794 113.761 178.588 113.93 178.42C114.099 178.251 114.3 178.126 114.535 178.046C114.777 177.958 114.975 177.91 115.129 177.903C115.283 177.888 115.492 177.881 115.756 177.881H122.862C123.126 177.881 123.335 177.888 123.489 177.903C123.643 177.91 123.837 177.958 124.072 178.046C124.314 178.126 124.519 178.251 124.688 178.42C124.857 178.588 124.981 178.794 125.062 179.036C125.15 179.27 125.198 179.465 125.205 179.619C125.22 179.773 125.227 179.982 125.227 180.246L125.227 191.037C125.227 191.513 125.212 191.854 125.183 192.06C125.161 192.258 125.095 192.467 124.985 192.687C124.846 192.965 124.622 193.193 124.314 193.369C124.013 193.545 123.672 193.633 123.291 193.633C122.91 193.633 122.565 193.545 122.257 193.369C121.956 193.193 121.736 192.965 121.597 192.687C121.487 192.467 121.417 192.258 121.388 192.06C121.366 191.854 121.355 191.513 121.355 191.037ZM131.237 191.037L131.237 181.313H129.62C129.202 181.313 128.898 181.302 128.707 181.28C128.517 181.25 128.33 181.192 128.146 181.104C127.897 180.986 127.695 180.792 127.541 180.521C127.387 180.242 127.31 179.934 127.31 179.597C127.31 179.259 127.387 178.955 127.541 178.684C127.695 178.405 127.897 178.207 128.146 178.09C128.33 178.002 128.517 177.947 128.707 177.925C128.898 177.895 129.202 177.881 129.62 177.881H136.726C137.144 177.881 137.449 177.895 137.639 177.925C137.83 177.947 138.017 178.002 138.2 178.09C138.45 178.207 138.651 178.405 138.805 178.684C138.959 178.955 139.036 179.259 139.036 179.597C139.036 179.934 138.959 180.242 138.805 180.521C138.651 180.792 138.45 180.986 138.2 181.104C138.017 181.192 137.83 181.25 137.639 181.28C137.449 181.302 137.144 181.313 136.726 181.313H135.109L135.109 191.037C135.109 191.513 135.095 191.854 135.065 192.06C135.043 192.258 134.977 192.467 134.867 192.687C134.728 192.965 134.504 193.193 134.196 193.369C133.896 193.545 133.555 193.633 133.173 193.633C132.792 193.633 132.447 193.545 132.139 193.369C131.839 193.193 131.619 192.965 131.479 192.687C131.369 192.467 131.3 192.258 131.27 192.06C131.248 191.854 131.237 191.513 131.237 191.037ZM138.789 190.597L142.969 179.498C143.203 178.882 143.471 178.456 143.772 178.222C144.131 177.936 144.586 177.793 145.136 177.793C145.686 177.793 146.14 177.936 146.5 178.222C146.8 178.456 147.068 178.882 147.303 179.498L151.483 190.597C151.629 190.993 151.728 191.304 151.78 191.532C151.838 191.752 151.838 192.005 151.78 192.291C151.728 192.569 151.585 192.826 151.351 193.061C150.969 193.442 150.507 193.633 149.965 193.633C149.525 193.633 149.162 193.501 148.876 193.237C148.714 193.09 148.582 192.925 148.48 192.742C148.384 192.558 148.263 192.261 148.117 191.851L147.886 191.213H142.386L142.155 191.851C142.008 192.261 141.883 192.558 141.781 192.742C141.685 192.925 141.557 193.09 141.396 193.237C141.11 193.501 140.747 193.633 140.307 193.633C139.764 193.633 139.302 193.442 138.921 193.061C138.686 192.826 138.539 192.569 138.481 192.291C138.429 192.005 138.429 191.752 138.481 191.532C138.539 191.304 138.642 190.993 138.789 190.597ZM146.72 188.001L145.136 183.645L143.552 188.001H146.72ZM153.825 191.18L153.825 180.389C153.825 179.912 153.836 179.575 153.858 179.377C153.887 179.171 153.957 178.959 154.067 178.739C154.206 178.46 154.426 178.233 154.727 178.057C155.035 177.881 155.379 177.793 155.761 177.793C156.142 177.793 156.483 177.881 156.784 178.057C157.092 178.233 157.315 178.46 157.455 178.739C157.565 178.959 157.631 179.171 157.653 179.377C157.682 179.575 157.697 179.912 157.697 180.389L157.697 190.113H161.789L161.789 180.389C161.789 179.912 161.8 179.575 161.822 179.377C161.851 179.171 161.921 178.959 162.031 178.739C162.17 178.46 162.39 178.233 162.691 178.057C162.999 177.881 163.343 177.793 163.725 177.793C164.106 177.793 164.447 177.881 164.748 178.057C165.056 178.233 165.279 178.46 165.419 178.739C165.529 178.959 165.595 179.171 165.617 179.377C165.646 179.575 165.661 179.912 165.661 180.389L165.661 190.113C166.02 190.113 166.339 190.193 166.618 190.355C166.904 190.516 167.113 190.729 167.245 190.993C167.34 191.183 167.399 191.378 167.421 191.576C167.45 191.774 167.465 192.1 167.465 192.555L167.465 194.359C167.465 194.813 167.45 195.14 167.421 195.338C167.399 195.536 167.34 195.73 167.245 195.921C167.113 196.185 166.904 196.397 166.618 196.559C166.339 196.72 166.02 196.801 165.661 196.801C165.301 196.801 164.979 196.72 164.693 196.559C164.414 196.397 164.209 196.185 164.077 195.921C163.981 195.73 163.919 195.536 163.89 195.338C163.868 195.14 163.857 194.813 163.857 194.359L163.857 193.545H156.19C155.926 193.545 155.717 193.541 155.563 193.534C155.409 193.519 155.211 193.471 154.969 193.391C154.734 193.303 154.532 193.174 154.364 193.006C154.195 192.837 154.067 192.635 153.979 192.401C153.898 192.159 153.85 191.961 153.836 191.807C153.828 191.653 153.825 191.444 153.825 191.18ZM181.827 191.037C181.827 191.513 181.813 191.854 181.783 192.06C181.761 192.258 181.695 192.467 181.585 192.687C181.446 192.965 181.222 193.193 180.914 193.369C180.614 193.545 180.273 193.633 179.891 193.633C179.51 193.633 179.165 193.545 178.857 193.369C178.557 193.193 178.337 192.965 178.197 192.687C178.087 192.467 178.018 192.258 177.988 192.06C177.966 191.854 177.955 191.513 177.955 191.037L177.955 185.229L173.742 191.862C173.324 192.514 172.947 192.973 172.609 193.237C172.279 193.501 171.887 193.633 171.432 193.633C170.89 193.633 170.435 193.449 170.068 193.083C169.863 192.877 169.724 192.628 169.65 192.335C169.584 192.041 169.551 191.678 169.551 191.246L169.551 180.389C169.551 179.912 169.562 179.575 169.584 179.377C169.614 179.171 169.683 178.959 169.793 178.739C169.933 178.46 170.153 178.233 170.453 178.057C170.761 177.881 171.106 177.793 171.487 177.793C171.869 177.793 172.21 177.881 172.51 178.057C172.818 178.233 173.042 178.46 173.181 178.739C173.291 178.959 173.357 179.171 173.379 179.377C173.409 179.575 173.423 179.912 173.423 180.389L173.423 186.197L177.636 179.564C178.054 178.911 178.428 178.453 178.758 178.189C179.096 177.925 179.492 177.793 179.946 177.793C180.489 177.793 180.944 177.976 181.31 178.343C181.516 178.548 181.651 178.797 181.717 179.091C181.791 179.384 181.827 179.747 181.827 180.18L181.827 191.037ZM192.238 191.037L192.238 187.957H190.665L188.311 192.093C188.171 192.335 188.054 192.529 187.959 192.676C187.863 192.815 187.735 192.969 187.574 193.138C187.42 193.306 187.244 193.431 187.046 193.512C186.855 193.592 186.642 193.633 186.408 193.633C186.085 193.633 185.762 193.541 185.44 193.358C184.809 192.998 184.494 192.489 184.494 191.829C184.494 191.594 184.534 191.367 184.615 191.147C184.695 190.927 184.846 190.622 185.066 190.234L186.826 187.154C186.092 186.699 185.528 186.094 185.132 185.339C184.736 184.583 184.538 183.777 184.538 182.919C184.538 182.266 184.655 181.643 184.89 181.049C185.124 180.447 185.458 179.912 185.891 179.443C186.331 178.966 186.895 178.588 187.585 178.31C188.274 178.024 189.04 177.881 189.884 177.881H193.745C194.009 177.881 194.218 177.888 194.372 177.903C194.526 177.91 194.72 177.958 194.955 178.046C195.197 178.126 195.402 178.251 195.571 178.42C195.739 178.588 195.864 178.794 195.945 179.036C196.033 179.27 196.08 179.465 196.088 179.619C196.102 179.773 196.11 179.982 196.11 180.246L196.11 191.037C196.11 191.513 196.095 191.854 196.066 192.06C196.044 192.258 195.978 192.467 195.868 192.687C195.728 192.965 195.505 193.193 195.197 193.369C194.896 193.545 194.555 193.633 194.174 193.633C193.792 193.633 193.448 193.545 193.14 193.369C192.839 193.193 192.619 192.965 192.48 192.687C192.37 192.467 192.3 192.258 192.271 192.06C192.249 191.854 192.238 191.513 192.238 191.037ZM192.238 184.525L192.238 181.313H190.06C189.554 181.313 189.147 181.474 188.839 181.797C188.538 182.112 188.388 182.486 188.388 182.919C188.388 183.351 188.538 183.729 188.839 184.052C189.147 184.367 189.554 184.525 190.06 184.525H192.238ZM70.648 219.037L70.648 208.389C70.648 207.912 70.659 207.575 70.681 207.377C70.7103 207.171 70.78 206.959 70.89 206.739C71.0293 206.46 71.2493 206.233 71.55 206.057C71.858 205.881 72.2026 205.793 72.584 205.793C72.9653 205.793 73.3063 205.881 73.607 206.057C73.915 206.233 74.1386 206.46 74.278 206.739C74.388 206.959 74.454 207.171 74.476 207.377C74.5053 207.575 74.52 207.912 74.52 208.389L74.52 211.7H74.861L78.81 206.97C79.1693 206.53 79.47 206.225 79.712 206.057C79.9613 205.881 80.2583 205.793 80.603 205.793C81.021 205.793 81.4096 205.943 81.769 206.244C82.2163 206.618 82.44 207.054 82.44 207.553C82.44 207.846 82.3813 208.114 82.264 208.356C82.1466 208.59 81.9193 208.898 81.582 209.28L77.941 213.383L81.923 218.146C82.2603 218.542 82.4876 218.857 82.605 219.092C82.7223 219.326 82.781 219.587 82.781 219.873C82.781 220.371 82.5573 220.808 82.11 221.182C81.7506 221.482 81.362 221.633 80.944 221.633C80.5993 221.633 80.3023 221.548 80.053 221.38C79.811 221.204 79.5103 220.896 79.151 220.456L74.861 215.33H74.52L74.52 219.037C74.52 219.513 74.5053 219.854 74.476 220.06C74.454 220.258 74.388 220.467 74.278 220.687C74.1386 220.965 73.915 221.193 73.607 221.369C73.3063 221.545 72.9653 221.633 72.584 221.633C72.2026 221.633 71.858 221.545 71.55 221.369C71.2493 221.193 71.0293 220.965 70.89 220.687C70.78 220.467 70.7103 220.258 70.681 220.06C70.659 219.854 70.648 219.513 70.648 219.037ZM98.9651 219.037L98.9651 209.313H96.2371L96.2371 213.405C96.2371 214.71 96.1674 215.832 96.0281 216.771C95.8961 217.709 95.7017 218.487 95.4451 219.103C95.1957 219.719 94.8584 220.206 94.4331 220.566C94.0151 220.925 93.5494 221.178 93.0361 221.325C92.5227 221.471 91.9104 221.545 91.1991 221.545C90.7077 221.545 90.3594 221.534 90.1541 221.512C89.9487 221.482 89.7544 221.424 89.5711 221.336C89.3291 221.218 89.1274 221.02 88.9661 220.742C88.8121 220.463 88.7351 220.155 88.7351 219.818C88.7351 219.304 88.8964 218.886 89.2191 218.564C89.5051 218.278 89.9267 218.124 90.4841 218.102C90.7627 218.087 91.0084 218.025 91.2211 217.915C91.4337 217.797 91.6097 217.658 91.7491 217.497C91.8957 217.328 92.0167 217.104 92.1121 216.826C92.2147 216.547 92.2917 216.287 92.3431 216.045C92.3944 215.803 92.4347 215.491 92.4641 215.11C92.4934 214.728 92.5081 214.406 92.5081 214.142C92.5154 213.878 92.5191 213.537 92.5191 213.119L92.5191 208.246C92.5191 207.982 92.5227 207.773 92.5301 207.619C92.5447 207.465 92.5924 207.27 92.6731 207.036C92.7611 206.794 92.8894 206.588 93.0581 206.42C93.2267 206.251 93.4284 206.126 93.6631 206.046C93.9051 205.958 94.1031 205.91 94.2571 205.903C94.4111 205.888 94.6201 205.881 94.8841 205.881H100.472C100.736 205.881 100.945 205.888 101.099 205.903C101.253 205.91 101.447 205.958 101.682 206.046C101.924 206.126 102.129 206.251 102.298 206.42C102.467 206.588 102.591 206.794 102.672 207.036C102.76 207.27 102.808 207.465 102.815 207.619C102.83 207.773 102.837 207.982 102.837 208.246L102.837 219.037C102.837 219.513 102.822 219.854 102.793 220.06C102.771 220.258 102.705 220.467 102.595 220.687C102.456 220.965 102.232 221.193 101.924 221.369C101.623 221.545 101.282 221.633 100.901 221.633C100.52 221.633 100.175 221.545 99.8671 221.369C99.5664 221.193 99.3464 220.965 99.2071 220.687C99.0971 220.467 99.0274 220.258 98.9981 220.06C98.9761 219.854 98.9651 219.513 98.9651 219.037ZM114.438 221.545H108.333C108.069 221.545 107.86 221.541 107.706 221.534C107.552 221.519 107.354 221.471 107.112 221.391C106.878 221.303 106.676 221.174 106.507 221.006C106.339 220.837 106.21 220.635 106.122 220.401C106.042 220.159 105.994 219.961 105.979 219.807C105.972 219.653 105.968 219.444 105.968 219.18L105.968 208.246C105.968 207.982 105.972 207.773 105.979 207.619C105.994 207.465 106.042 207.27 106.122 207.036C106.21 206.794 106.339 206.588 106.507 206.42C106.676 206.251 106.878 206.126 107.112 206.046C107.354 205.958 107.552 205.91 107.706 205.903C107.86 205.888 108.069 205.881 108.333 205.881H114.438C114.856 205.881 115.161 205.895 115.351 205.925C115.542 205.947 115.729 206.002 115.912 206.09C116.162 206.207 116.363 206.405 116.517 206.684C116.671 206.955 116.748 207.259 116.748 207.597C116.748 207.934 116.671 208.242 116.517 208.521C116.363 208.792 116.162 208.986 115.912 209.104C115.729 209.192 115.542 209.25 115.351 209.28C115.161 209.302 114.856 209.313 114.438 209.313H109.84L109.84 211.931H113.448C113.866 211.931 114.171 211.945 114.361 211.975C114.552 211.997 114.739 212.052 114.922 212.14C115.172 212.257 115.373 212.455 115.527 212.734C115.681 213.005 115.758 213.309 115.758 213.647C115.758 213.984 115.681 214.292 115.527 214.571C115.373 214.842 115.172 215.036 114.922 215.154C114.739 215.242 114.552 215.3 114.361 215.33C114.171 215.352 113.866 215.363 113.448 215.363H109.84L109.84 218.113H114.438C114.856 218.113 115.161 218.127 115.351 218.157C115.542 218.179 115.729 218.234 115.912 218.322C116.162 218.439 116.363 218.637 116.517 218.916C116.671 219.187 116.748 219.491 116.748 219.829C116.748 220.166 116.671 220.474 116.517 220.753C116.363 221.024 116.162 221.218 115.912 221.336C115.729 221.424 115.542 221.482 115.351 221.512C115.161 221.534 114.856 221.545 114.438 221.545ZM126.636 219.037L126.636 215.979C125.382 216.199 124.198 216.309 123.083 216.309C122.35 216.309 121.675 216.166 121.059 215.88C120.45 215.594 119.952 215.161 119.563 214.582C119.174 213.995 118.98 213.317 118.98 212.547L118.98 208.389C118.98 207.912 118.991 207.575 119.013 207.377C119.042 207.171 119.112 206.959 119.222 206.739C119.361 206.46 119.581 206.233 119.882 206.057C120.19 205.881 120.535 205.793 120.916 205.793C121.297 205.793 121.638 205.881 121.939 206.057C122.247 206.233 122.471 206.46 122.61 206.739C122.72 206.959 122.786 207.171 122.808 207.377C122.837 207.575 122.852 207.912 122.852 208.389L122.852 211.469C122.852 211.909 122.977 212.25 123.226 212.492C123.483 212.734 123.846 212.855 124.315 212.855C125.129 212.855 125.903 212.789 126.636 212.657L126.636 208.389C126.636 207.912 126.647 207.575 126.669 207.377C126.698 207.171 126.768 206.959 126.878 206.739C127.017 206.46 127.237 206.233 127.538 206.057C127.846 205.881 128.191 205.793 128.572 205.793C128.953 205.793 129.294 205.881 129.595 206.057C129.903 206.233 130.127 206.46 130.266 206.739C130.376 206.959 130.442 207.171 130.464 207.377C130.493 207.575 130.508 207.912 130.508 208.389L130.508 219.037C130.508 219.513 130.493 219.854 130.464 220.06C130.442 220.258 130.376 220.467 130.266 220.687C130.127 220.965 129.903 221.193 129.595 221.369C129.294 221.545 128.953 221.633 128.572 221.633C128.191 221.633 127.846 221.545 127.538 221.369C127.237 221.193 127.017 220.965 126.878 220.687C126.768 220.467 126.698 220.258 126.669 220.06C126.647 219.854 126.636 219.513 126.636 219.037ZM142.11 221.545H136.005C135.741 221.545 135.532 221.541 135.378 221.534C135.224 221.519 135.026 221.471 134.784 221.391C134.549 221.303 134.348 221.174 134.179 221.006C134.01 220.837 133.882 220.635 133.794 220.401C133.713 220.159 133.666 219.961 133.651 219.807C133.644 219.653 133.64 219.444 133.64 219.18L133.64 208.246C133.64 207.982 133.644 207.773 133.651 207.619C133.666 207.465 133.713 207.27 133.794 207.036C133.882 206.794 134.01 206.588 134.179 206.42C134.348 206.251 134.549 206.126 134.784 206.046C135.026 205.958 135.224 205.91 135.378 205.903C135.532 205.888 135.741 205.881 136.005 205.881H142.11C142.528 205.881 142.832 205.895 143.023 205.925C143.214 205.947 143.401 206.002 143.584 206.09C143.833 206.207 144.035 206.405 144.189 206.684C144.343 206.955 144.42 207.259 144.42 207.597C144.42 207.934 144.343 208.242 144.189 208.521C144.035 208.792 143.833 208.986 143.584 209.104C143.401 209.192 143.214 209.25 143.023 209.28C142.832 209.302 142.528 209.313 142.11 209.313H137.512L137.512 211.931H141.12C141.538 211.931 141.842 211.945 142.033 211.975C142.224 211.997 142.411 212.052 142.594 212.14C142.843 212.257 143.045 212.455 143.199 212.734C143.353 213.005 143.43 213.309 143.43 213.647C143.43 213.984 143.353 214.292 143.199 214.571C143.045 214.842 142.843 215.036 142.594 215.154C142.411 215.242 142.224 215.3 142.033 215.33C141.842 215.352 141.538 215.363 141.12 215.363H137.512L137.512 218.113H142.11C142.528 218.113 142.832 218.127 143.023 218.157C143.214 218.179 143.401 218.234 143.584 218.322C143.833 218.439 144.035 218.637 144.189 218.916C144.343 219.187 144.42 219.491 144.42 219.829C144.42 220.166 144.343 220.474 144.189 220.753C144.035 221.024 143.833 221.218 143.584 221.336C143.401 221.424 143.214 221.482 143.023 221.512C142.832 221.534 142.528 221.545 142.11 221.545ZM158.818 219.037C158.818 219.513 158.803 219.854 158.774 220.06C158.752 220.258 158.686 220.467 158.576 220.687C158.437 220.965 158.213 221.193 157.905 221.369C157.604 221.545 157.263 221.633 156.882 221.633C156.501 221.633 156.156 221.545 155.848 221.369C155.547 221.193 155.327 220.965 155.188 220.687C155.078 220.467 155.008 220.258 154.979 220.06C154.957 219.854 154.946 219.513 154.946 219.037L154.946 215.341H150.854L150.854 219.037C150.854 219.513 150.839 219.854 150.81 220.06C150.788 220.258 150.722 220.467 150.612 220.687C150.473 220.965 150.249 221.193 149.941 221.369C149.64 221.545 149.299 221.633 148.918 221.633C148.537 221.633 148.192 221.545 147.884 221.369C147.583 221.193 147.363 220.965 147.224 220.687C147.114 220.467 147.044 220.258 147.015 220.06C146.993 219.854 146.982 219.513 146.982 219.037L146.982 208.389C146.982 207.912 146.993 207.575 147.015 207.377C147.044 207.171 147.114 206.959 147.224 206.739C147.363 206.46 147.583 206.233 147.884 206.057C148.192 205.881 148.537 205.793 148.918 205.793C149.299 205.793 149.64 205.881 149.941 206.057C150.249 206.233 150.473 206.46 150.612 206.739C150.722 206.959 150.788 207.171 150.81 207.377C150.839 207.575 150.854 207.912 150.854 208.389L150.854 211.909H154.946L154.946 208.389C154.946 207.912 154.957 207.575 154.979 207.377C155.008 207.171 155.078 206.959 155.188 206.739C155.327 206.46 155.547 206.233 155.848 206.057C156.156 205.881 156.501 205.793 156.882 205.793C157.263 205.793 157.604 205.881 157.905 206.057C158.213 206.233 158.437 206.46 158.576 206.739C158.686 206.959 158.752 207.171 158.774 207.377C158.803 207.575 158.818 207.912 158.818 208.389L158.818 219.037ZM174.211 219.037C174.211 219.513 174.196 219.854 174.167 220.06C174.145 220.258 174.079 220.467 173.969 220.687C173.83 220.965 173.606 221.193 173.298 221.369C172.997 221.545 172.656 221.633 172.275 221.633C171.894 221.633 171.549 221.545 171.241 221.369C170.94 221.193 170.72 220.965 170.581 220.687C170.471 220.467 170.401 220.258 170.372 220.06C170.35 219.854 170.339 219.513 170.339 219.037L170.339 213.229L166.126 219.862C165.708 220.514 165.33 220.973 164.993 221.237C164.663 221.501 164.271 221.633 163.816 221.633C163.273 221.633 162.819 221.449 162.452 221.083C162.247 220.877 162.107 220.628 162.034 220.335C161.968 220.041 161.935 219.678 161.935 219.246L161.935 208.389C161.935 207.912 161.946 207.575 161.968 207.377C161.997 207.171 162.067 206.959 162.177 206.739C162.316 206.46 162.536 206.233 162.837 206.057C163.145 205.881 163.49 205.793 163.871 205.793C164.252 205.793 164.593 205.881 164.894 206.057C165.202 206.233 165.426 206.46 165.565 206.739C165.675 206.959 165.741 207.171 165.763 207.377C165.792 207.575 165.807 207.912 165.807 208.389L165.807 214.197L170.02 207.564C170.438 206.911 170.812 206.453 171.142 206.189C171.479 205.925 171.875 205.793 172.33 205.793C172.873 205.793 173.327 205.976 173.694 206.343C173.899 206.548 174.035 206.797 174.101 207.091C174.174 207.384 174.211 207.747 174.211 208.18L174.211 219.037ZM177.339 219.037L177.339 208.389C177.339 207.912 177.35 207.575 177.372 207.377C177.402 207.171 177.471 206.959 177.581 206.739C177.721 206.46 177.941 206.233 178.241 206.057C178.549 205.881 178.894 205.793 179.275 205.793C179.657 205.793 179.998 205.881 180.298 206.057C180.606 206.233 180.83 206.46 180.969 206.739C181.079 206.959 181.145 207.171 181.167 207.377C181.197 207.575 181.211 207.912 181.211 208.389L181.211 211.909H183.015C183.059 210.919 183.195 210.072 183.422 209.368C183.65 208.664 184.046 208.029 184.61 207.465C185.19 206.885 185.828 206.456 186.524 206.178C187.228 205.892 188.046 205.749 188.977 205.749C189.909 205.749 190.723 205.892 191.419 206.178C192.123 206.456 192.765 206.885 193.344 207.465C193.652 207.773 193.913 208.117 194.125 208.499C194.338 208.88 194.496 209.239 194.598 209.577C194.708 209.907 194.789 210.336 194.84 210.864C194.899 211.384 194.932 211.824 194.939 212.184C194.954 212.536 194.961 213.045 194.961 213.713C194.961 214.38 194.954 214.893 194.939 215.253C194.932 215.605 194.899 216.045 194.84 216.573C194.789 217.093 194.708 217.522 194.598 217.86C194.496 218.19 194.338 218.545 194.125 218.927C193.913 219.308 193.652 219.653 193.344 219.961C192.765 220.54 192.123 220.973 191.419 221.259C190.723 221.537 189.909 221.677 188.977 221.677C188.046 221.677 187.228 221.537 186.524 221.259C185.828 220.973 185.19 220.54 184.61 219.961C184.031 219.381 183.628 218.729 183.4 218.003C183.18 217.277 183.052 216.389 183.015 215.341H181.211L181.211 219.037C181.211 219.513 181.197 219.854 181.167 220.06C181.145 220.258 181.079 220.467 180.969 220.687C180.83 220.965 180.606 221.193 180.298 221.369C179.998 221.545 179.657 221.633 179.275 221.633C178.894 221.633 178.549 221.545 178.241 221.369C177.941 221.193 177.721 220.965 177.581 220.687C177.471 220.467 177.402 220.258 177.372 220.06C177.35 219.854 177.339 219.513 177.339 219.037ZM190.517 217.541C190.723 217.269 190.869 216.892 190.957 216.408C191.045 215.924 191.089 215.025 191.089 213.713C191.089 212.4 191.045 211.498 190.957 211.007C190.869 210.508 190.723 210.127 190.517 209.863C190.363 209.665 190.151 209.503 189.879 209.379C189.615 209.247 189.315 209.181 188.977 209.181C188.64 209.181 188.336 209.247 188.064 209.379C187.8 209.503 187.591 209.665 187.437 209.863C187.232 210.127 187.085 210.508 186.997 211.007C186.909 211.498 186.865 212.4 186.865 213.713C186.865 215.025 186.909 215.924 186.997 216.408C187.085 216.892 187.232 217.269 187.437 217.541C187.797 218.01 188.31 218.245 188.977 218.245C189.645 218.245 190.158 218.01 190.517 217.541Z" fill="#4D4D4D"/>
<path fill-rule="evenodd" clip-rule="evenodd" d="M132.11 90.1973C134.013 89.2324 134.736 92.1462 136.357 94.9189C137.2 96.3619 141.441 97.4661 142.026 98.6328C142.824 100.227 141.153 100.77 140.221 101.295C139.229 101.853 138.216 102.358 137.182 102.948C135.617 103.839 134.769 107.933 133.478 108.588C131.601 109.54 130.678 106.375 129.191 103.81C128.33 102.324 124.16 101.216 123.545 100.112C122.668 98.5412 124.39 97.9214 125.272 97.4342C129.282 95.2185 128.4 96.2434 130.205 93.0231C130.914 91.757 131.28 90.6182 132.11 90.1974V90.1973ZM116.416 80.2054C121.233 78.9699 120.736 81.7839 119.957 82.4194C119.013 83.1897 117.281 82.3785 114.352 83.9104C112.928 84.6558 111.463 86.0176 110.624 87.3027C109.352 89.2497 109.27 90.1613 108.961 92.7983C108.739 94.6939 105.705 95.3629 106.171 91.3C106.393 89.3653 107.095 87.5234 108.004 86.0609C109.014 84.4361 109.974 83.4904 111.411 82.3733C112.963 81.1669 114.35 80.7352 116.416 80.2053L116.416 80.2054ZM158.819 93.916C158.63 92.7015 158.044 91.4804 157.521 90.405C157.288 89.927 157.223 89.6432 156.786 89.3366L153.3 95.6675C152.895 96.4409 152.372 97.1639 151.044 96.7081C150.267 96.4418 148.992 93.6508 148.421 92.5837C145.649 87.4044 146.953 88.5227 141.695 85.7844C140.768 85.3017 137.774 83.7357 137.461 83.2595C136.199 81.3453 139.089 80.3876 140.306 79.7409C141.147 79.294 144.19 77.8707 144.646 77.1619C138.876 76.9733 136.228 80.7333 130.983 81.3363C125.416 81.9764 121.914 77.9718 117.345 77.2233C111.723 76.3024 107.801 80.6152 105.906 83.6141C100.509 92.1563 101.596 104.488 102.943 114.133C104.01 121.777 109.011 154.716 116.319 154.289C120.973 147.737 120.896 119.201 129.82 119.123C139.504 119.037 139.066 146.752 143.328 154.296C150.883 154.821 156.141 119.048 157.07 110.902C157.496 107.173 157.95 101.127 157.697 97.3304C157.604 95.9301 157.06 93.8638 158.819 93.9161L158.819 93.916Z" fill="white"/>
<path fill-rule="evenodd" clip-rule="evenodd" d="M141.944 82.4612C142.701 81.4972 147.141 79.7834 148.109 78.8719C149.107 77.9319 150.492 74.1965 151.655 72.7181L153.465 75.7494C155.585 79.7596 154.999 78.8387 159.885 81.4573L161.118 82.1442C161.376 82.3379 161.269 82.2527 161.405 82.4124C160.112 83.4687 156.06 85.0443 155.208 85.9636C154.276 86.9701 152.504 91.4329 151.655 92.0619C150.655 90.7606 149.104 86.8549 148.152 85.9122C147.724 85.4876 142.913 82.9419 141.944 82.461L141.944 82.4612ZM130.032 78.492C123.383 78.1845 120.35 72.1662 111.989 74.8168C106.794 76.4638 103.058 81.3965 101.049 86.884C98.5793 93.6296 98.7342 99.9078 99.2902 107.523C99.7876 114.332 100.873 121.533 102.141 127.901C103.423 134.345 104.769 140.241 106.918 146.175C107.976 149.097 109.18 151.514 110.72 153.809C111.829 155.461 115.258 158.931 118.198 156.532C123.329 152.345 124.233 122.572 129.983 122.037C133.22 122.807 134.598 129.543 135.378 132.982C136.419 137.572 137.045 142.17 137.98 146.824C138.72 150.514 139.651 157.565 143.862 157.294C147.607 157.053 150.297 151.91 151.741 148.643C156.368 138.179 159.171 120.174 160.274 108C160.62 104.186 160.89 100.062 160.565 96.172C160.439 94.6587 160.37 93.9307 158.82 93.9151C157.061 93.8629 157.604 95.9292 157.698 97.3294C157.951 101.126 157.496 107.172 157.071 110.901C156.142 119.047 150.884 154.82 143.328 154.295C139.066 146.751 139.505 119.036 129.821 119.122C120.897 119.2 120.974 147.736 116.319 154.287C109.012 154.715 104.01 121.776 102.943 114.131C101.597 104.487 100.509 92.1553 105.906 83.6131C107.801 80.6142 111.724 76.3013 117.346 77.2223C121.915 77.9708 125.417 81.9754 130.984 81.3353C136.228 80.7322 138.877 76.9723 144.646 77.1609C144.19 77.8697 141.148 79.2928 140.307 79.7399C139.089 80.3865 136.199 81.3443 137.461 83.2584C137.775 83.7347 140.769 85.3006 141.696 85.7834C146.953 88.5216 145.65 87.4033 148.421 92.5827C148.992 93.6497 150.268 96.4408 151.044 96.7071C152.372 97.1628 152.896 96.44 153.301 95.6664L156.786 89.3356C157.244 87.6187 159.255 87.0331 160.681 86.2425C163.487 84.6866 167.332 83.4607 165.806 81.4316C165.022 80.3888 157.931 77.6415 157.057 76.1414C156.61 75.3732 156.228 74.6602 155.826 73.899C154.949 72.2383 154.159 70.8649 153.325 69.3065C152.869 68.4541 152.497 67.8596 151.209 68.14C150.429 68.31 150.044 69.357 149.676 70.046C148.933 71.4401 147.833 73.1908 147.209 74.6288C137.678 73.0064 137.667 77.3285 130.032 78.4918L130.032 78.492Z" fill="#4D4D4D"/>
<path fill-rule="evenodd" clip-rule="evenodd" d="M141.943 82.4619C142.913 82.9429 147.723 85.4884 148.152 85.9131C149.104 86.8557 150.655 90.7614 151.654 92.0627C152.504 91.4339 154.275 86.9709 155.208 85.9644C156.06 85.0451 160.112 83.4696 161.405 82.4132C161.269 82.2534 161.376 82.3388 161.117 82.1451L159.885 81.4582C154.998 78.8396 155.584 79.7605 153.465 75.7502L151.654 72.719C150.491 74.1974 149.107 77.9327 148.109 78.8727C147.14 79.7843 142.701 81.4981 141.943 82.462L141.943 82.4619Z" fill="#E32E16"/>
<path fill-rule="evenodd" clip-rule="evenodd" d="M127.966 99.3855C128.645 98.5499 130.17 98.314 130.949 97.5666C131.508 97.0306 132.158 95.2362 132.767 94.5597C133.483 95.2738 133.879 96.8547 134.588 97.5646C135.276 98.2532 136.936 98.5568 137.57 99.3855C135.686 100.888 135.142 99.8587 133.715 102.589C133.416 103.159 133.214 103.677 132.767 104.097C131.954 103.313 131.736 101.983 130.969 101.183C130.404 100.595 128.779 100.009 127.966 99.3855H127.966ZM132.11 90.1963C131.279 90.6171 130.914 91.7559 130.204 93.022C128.399 96.2422 129.281 95.2174 125.272 97.433C124.39 97.9203 122.668 98.5401 123.544 100.111C124.16 101.215 128.33 102.323 129.191 103.809C130.677 106.374 131.601 109.539 133.477 108.587C134.769 107.932 135.617 103.838 137.182 102.946C138.216 102.357 139.229 101.852 140.221 101.294C141.152 100.769 142.824 100.226 142.025 98.6317C141.441 97.4651 137.2 96.3609 136.357 94.9178C134.736 92.1451 134.013 89.2313 132.11 90.1962V90.1963Z" fill="#4D4D4D"/>
<path fill-rule="evenodd" clip-rule="evenodd" d="M116.416 80.2047C114.351 80.7345 112.964 81.1663 111.412 82.3727C109.975 83.4898 109.015 84.4355 108.005 86.0603C107.096 87.5228 106.394 89.3647 106.172 91.2995C105.705 95.3623 108.74 94.6931 108.962 92.7978C109.271 90.1607 109.353 89.2492 110.624 87.3021C111.464 86.017 112.928 84.6552 114.353 83.9098C117.282 82.3779 119.014 83.1892 119.958 82.4188C120.737 81.7833 121.234 78.9692 116.416 80.2048L116.416 80.2047Z" fill="#4D4D4D"/>
<path fill-rule="evenodd" clip-rule="evenodd" d="M127.967 99.3861C128.779 100.01 130.405 100.596 130.969 101.183C131.737 101.983 131.955 103.314 132.767 104.098C133.215 103.678 133.417 103.16 133.715 102.59C135.143 99.8593 135.686 100.889 137.571 99.3861C136.937 98.5574 135.276 98.2538 134.589 97.5653C133.88 96.8552 133.484 95.2743 132.767 94.5603C132.159 95.2367 131.508 97.0312 130.949 97.5672C130.171 98.3146 128.645 98.5505 127.966 99.3861H127.967Z" fill="#E32E16"/>
<path d="M131.725 1.5234L131.449 1.36398L131.173 1.5234L66.4489 38.953L66.7246 39.4297L66.4487 38.9531L1.72415 76.4102L1.44928 76.5692L1.44928 76.8868L1.44929 151.746L1.44929 226.633L1.44929 226.95L1.72416 227.109L66.4487 264.566L66.4489 264.566L131.173 301.996L131.449 302.155L131.725 301.996L196.449 264.566L196.45 264.566L261.174 227.109L261.449 226.95L261.449 226.633L261.449 151.746L261.449 76.8868L261.449 76.5692L261.174 76.4102L196.45 38.9531L196.174 39.4297L196.449 38.953L131.725 1.5234Z" stroke="#024FA2" stroke-width="1.10141"/>
</svg>
