<svg width="220" height="75" viewBox="0 0 220 75" fill="none" xmlns="http://www.w3.org/2000/svg">
<rect width="220" height="75" rx="25" fill="white"/>
<path d="M26.1272 25V17.524H31.8672V19.008H27.4712L27.8772 18.616V25H26.1272ZM32.9619 25.098C32.6446 25.098 32.3739 24.9907 32.1499 24.776C31.9259 24.552 31.8139 24.272 31.8139 23.936C31.8139 23.5813 31.9259 23.3013 32.1499 23.096C32.3739 22.8813 32.6446 22.774 32.9619 22.774C33.2792 22.774 33.5499 22.8813 33.7739 23.096C33.9979 23.3013 34.1099 23.5813 34.1099 23.936C34.1099 24.272 33.9979 24.552 33.7739 24.776C33.5499 24.9907 33.2792 25.098 32.9619 25.098ZM39.927 25V15.2H41.411L45.709 22.354H44.911L49.139 15.2H50.623L50.651 25H48.915L48.901 17.902H49.265L45.681 23.88H44.869L41.229 17.902H41.649V25H39.927ZM56.5295 25.098C55.7642 25.098 55.0828 24.9347 54.4855 24.608C53.8882 24.272 53.4168 23.8147 53.0715 23.236C52.7262 22.6573 52.5535 21.9993 52.5535 21.262C52.5535 20.5153 52.7262 19.8573 53.0715 19.288C53.4168 18.7093 53.8882 18.2567 54.4855 17.93C55.0828 17.6033 55.7642 17.44 56.5295 17.44C57.3042 17.44 57.9902 17.6033 58.5875 17.93C59.1942 18.2567 59.6655 18.7047 60.0015 19.274C60.3468 19.8433 60.5195 20.506 60.5195 21.262C60.5195 21.9993 60.3468 22.6573 60.0015 23.236C59.6655 23.8147 59.1942 24.272 58.5875 24.608C57.9902 24.9347 57.3042 25.098 56.5295 25.098ZM56.5295 23.6C56.9588 23.6 57.3415 23.5067 57.6775 23.32C58.0135 23.1333 58.2748 22.8627 58.4615 22.508C58.6575 22.1533 58.7555 21.738 58.7555 21.262C58.7555 20.7767 58.6575 20.3613 58.4615 20.016C58.2748 19.6613 58.0135 19.3907 57.6775 19.204C57.3415 19.0173 56.9635 18.924 56.5435 18.924C56.1142 18.924 55.7315 19.0173 55.3955 19.204C55.0688 19.3907 54.8075 19.6613 54.6115 20.016C54.4155 20.3613 54.3175 20.7767 54.3175 21.262C54.3175 21.738 54.4155 22.1533 54.6115 22.508C54.8075 22.8627 55.0688 23.1333 55.3955 23.32C55.7315 23.5067 56.1095 23.6 56.5295 23.6ZM65.6503 25.098C64.8663 25.098 64.1663 24.9347 63.5503 24.608C62.9436 24.272 62.4676 23.8147 62.1223 23.236C61.7769 22.6573 61.6043 21.9993 61.6043 21.262C61.6043 20.5153 61.7769 19.8573 62.1223 19.288C62.4676 18.7093 62.9436 18.2567 63.5503 17.93C64.1663 17.6033 64.8663 17.44 65.6503 17.44C66.3783 17.44 67.0176 17.5893 67.5683 17.888C68.1283 18.1773 68.5529 18.6067 68.8423 19.176L67.4983 19.96C67.2743 19.6053 66.9989 19.344 66.6723 19.176C66.3549 19.008 66.0096 18.924 65.6363 18.924C65.2069 18.924 64.8196 19.0173 64.4743 19.204C64.1289 19.3907 63.8583 19.6613 63.6623 20.016C63.4663 20.3613 63.3683 20.7767 63.3683 21.262C63.3683 21.7473 63.4663 22.1673 63.6623 22.522C63.8583 22.8673 64.1289 23.1333 64.4743 23.32C64.8196 23.5067 65.2069 23.6 65.6363 23.6C66.0096 23.6 66.3549 23.516 66.6723 23.348C66.9989 23.18 67.2743 22.9187 67.4983 22.564L68.8423 23.348C68.5529 23.908 68.1283 24.342 67.5683 24.65C67.0176 24.9487 66.3783 25.098 65.6503 25.098ZM75.745 25L73.043 21.416L74.471 20.534L77.803 25H75.745ZM70.383 25V17.524H72.133V25H70.383ZM71.615 22.004V20.548H74.149V22.004H71.615ZM74.639 21.472L73.001 21.276L75.745 17.524H77.621L74.639 21.472ZM79.0373 25V17.524H82.6913C83.5967 17.524 84.306 17.692 84.8193 18.028C85.342 18.364 85.6033 18.84 85.6033 19.456C85.6033 20.0627 85.3607 20.5387 84.8753 20.884C84.39 21.22 83.746 21.388 82.9433 21.388L83.1533 20.954C84.0587 20.954 84.7307 21.122 85.1693 21.458C85.6173 21.7847 85.8413 22.2653 85.8413 22.9C85.8413 23.5627 85.594 24.0807 85.0993 24.454C84.6047 24.818 83.8533 25 82.8453 25H79.0373ZM80.7033 23.726H82.7053C83.1813 23.726 83.5407 23.6513 83.7833 23.502C84.026 23.3433 84.1473 23.1053 84.1473 22.788C84.1473 22.452 84.0353 22.2047 83.8113 22.046C83.5873 21.8873 83.2373 21.808 82.7613 21.808H80.7033V23.726ZM80.7033 20.646H82.5373C82.9853 20.646 83.3213 20.5667 83.5453 20.408C83.7787 20.24 83.8953 20.0067 83.8953 19.708C83.8953 19.4 83.7787 19.1713 83.5453 19.022C83.3213 18.8727 82.9853 18.798 82.5373 18.798H80.7033V20.646ZM92.2413 25V23.488L92.1433 23.166V20.52C92.1433 20.0067 91.9893 19.61 91.6813 19.33C91.3733 19.0407 90.9066 18.896 90.2813 18.896C89.8613 18.896 89.446 18.9613 89.0353 19.092C88.634 19.2227 88.2933 19.4047 88.0133 19.638L87.3273 18.364C87.7286 18.056 88.2046 17.8273 88.7553 17.678C89.3153 17.5193 89.894 17.44 90.4913 17.44C91.574 17.44 92.4093 17.7013 92.9973 18.224C93.5946 18.7373 93.8933 19.5353 93.8933 20.618V25H92.2413ZM89.8893 25.098C89.3293 25.098 88.8393 25.0047 88.4193 24.818C87.9993 24.622 87.6726 24.356 87.4393 24.02C87.2153 23.6747 87.1033 23.2873 87.1033 22.858C87.1033 22.438 87.2013 22.06 87.3973 21.724C87.6026 21.388 87.934 21.122 88.3913 20.926C88.8486 20.73 89.4553 20.632 90.2113 20.632H92.3813V21.794H90.3373C89.74 21.794 89.3386 21.892 89.1333 22.088C88.928 22.2747 88.8253 22.508 88.8253 22.788C88.8253 23.1053 88.9513 23.3573 89.2033 23.544C89.4553 23.7307 89.8053 23.824 90.2533 23.824C90.6826 23.824 91.0653 23.726 91.4013 23.53C91.7466 23.334 91.994 23.0447 92.1433 22.662L92.4373 23.712C92.2693 24.1507 91.966 24.4913 91.5273 24.734C91.098 24.9767 90.552 25.098 89.8893 25.098ZM95.5688 27.114L96.3808 24.02L96.6188 25.056C96.2921 25.056 96.0168 24.958 95.7928 24.762C95.5781 24.5567 95.4708 24.2813 95.4708 23.936C95.4708 23.5813 95.5781 23.3013 95.7928 23.096C96.0168 22.8813 96.2875 22.774 96.6048 22.774C96.9315 22.774 97.2021 22.8813 97.4168 23.096C97.6315 23.3107 97.7388 23.5907 97.7388 23.936C97.7388 24.0293 97.7295 24.132 97.7108 24.244C97.6921 24.3467 97.6595 24.468 97.6128 24.608C97.5755 24.748 97.5101 24.9253 97.4168 25.14L96.7028 27.114H95.5688ZM103.346 25V17.524H109.086V19.008H104.69L105.096 18.616V25H103.346ZM110.181 25.098C109.863 25.098 109.593 24.9907 109.369 24.776C109.145 24.552 109.033 24.272 109.033 23.936C109.033 23.5813 109.145 23.3013 109.369 23.096C109.593 22.8813 109.863 22.774 110.181 22.774C110.498 22.774 110.769 22.8813 110.993 23.096C111.217 23.3013 111.329 23.5813 111.329 23.936C111.329 24.272 111.217 24.552 110.993 24.776C110.769 24.9907 110.498 25.098 110.181 25.098ZM122.956 23.46L122.55 23.908V15.2H124.342V23.908L123.908 23.46H128.374L127.94 23.908V15.2H129.732V25H117.146V15.2H118.938V23.908L118.518 23.46H122.956ZM129.466 27.086V24.552L129.9 25H127.898V23.46H131.146V27.086H129.466ZM136.049 25.098C135.218 25.098 134.49 24.9347 133.865 24.608C133.249 24.272 132.768 23.8147 132.423 23.236C132.087 22.6573 131.919 21.9993 131.919 21.262C131.919 20.5153 132.082 19.8573 132.409 19.288C132.745 18.7093 133.202 18.2567 133.781 17.93C134.369 17.6033 135.036 17.44 135.783 17.44C136.511 17.44 137.159 17.5987 137.729 17.916C138.298 18.2333 138.746 18.6813 139.073 19.26C139.399 19.8387 139.563 20.52 139.563 21.304C139.563 21.3787 139.558 21.4627 139.549 21.556C139.549 21.6493 139.544 21.738 139.535 21.822H133.305V20.66H138.611L137.925 21.024C137.934 20.5947 137.845 20.2167 137.659 19.89C137.472 19.5633 137.215 19.3067 136.889 19.12C136.571 18.9333 136.203 18.84 135.783 18.84C135.353 18.84 134.975 18.9333 134.649 19.12C134.331 19.3067 134.079 19.568 133.893 19.904C133.715 20.2307 133.627 20.618 133.627 21.066V21.346C133.627 21.794 133.729 22.1907 133.935 22.536C134.14 22.8813 134.429 23.1473 134.803 23.334C135.176 23.5207 135.605 23.614 136.091 23.614C136.511 23.614 136.889 23.5487 137.225 23.418C137.561 23.2873 137.859 23.082 138.121 22.802L139.059 23.88C138.723 24.272 138.298 24.5753 137.785 24.79C137.281 24.9953 136.702 25.098 136.049 25.098ZM145.621 25.098C145.014 25.098 144.459 24.958 143.955 24.678C143.46 24.398 143.063 23.978 142.765 23.418C142.475 22.8487 142.331 22.13 142.331 21.262C142.331 20.3847 142.471 19.666 142.751 19.106C143.04 18.546 143.432 18.1307 143.927 17.86C144.421 17.58 144.986 17.44 145.621 17.44C146.358 17.44 147.007 17.5987 147.567 17.916C148.136 18.2333 148.584 18.6767 148.911 19.246C149.247 19.8153 149.415 20.4873 149.415 21.262C149.415 22.0367 149.247 22.7133 148.911 23.292C148.584 23.8613 148.136 24.3047 147.567 24.622C147.007 24.9393 146.358 25.098 145.621 25.098ZM141.477 27.716V17.524H143.143V19.288L143.087 21.276L143.227 23.264V27.716H141.477ZM145.425 23.6C145.845 23.6 146.218 23.5067 146.545 23.32C146.881 23.1333 147.147 22.8627 147.343 22.508C147.539 22.1533 147.637 21.738 147.637 21.262C147.637 20.7767 147.539 20.3613 147.343 20.016C147.147 19.6613 146.881 19.3907 146.545 19.204C146.218 19.0173 145.845 18.924 145.425 18.924C145.005 18.924 144.627 19.0173 144.291 19.204C143.955 19.3907 143.689 19.6613 143.493 20.016C143.297 20.3613 143.199 20.7767 143.199 21.262C143.199 21.738 143.297 22.1533 143.493 22.508C143.689 22.8627 143.955 23.1333 144.291 23.32C144.627 23.5067 145.005 23.6 145.425 23.6ZM154.726 25.14C154.11 25.14 153.56 25.0467 153.074 24.86C152.589 24.6733 152.169 24.3887 151.814 24.006C151.469 23.614 151.203 23.1193 151.016 22.522C150.83 21.9247 150.736 21.2153 150.736 20.394C150.736 19.7967 150.788 19.2507 150.89 18.756C150.993 18.2613 151.147 17.818 151.352 17.426C151.558 17.0247 151.814 16.67 152.122 16.362C152.44 16.054 152.808 15.7973 153.228 15.592C153.648 15.3867 154.124 15.228 154.656 15.116L158.128 14.374L158.38 15.942L155.23 16.586C155.053 16.6233 154.838 16.6793 154.586 16.754C154.344 16.8193 154.092 16.922 153.83 17.062C153.578 17.1927 153.34 17.384 153.116 17.636C152.902 17.8787 152.724 18.196 152.584 18.588C152.454 18.9707 152.388 19.4513 152.388 20.03C152.388 20.2073 152.393 20.3427 152.402 20.436C152.421 20.52 152.435 20.6133 152.444 20.716C152.463 20.8093 152.472 20.9493 152.472 21.136L151.814 20.45C152.001 19.974 152.258 19.568 152.584 19.232C152.92 18.8867 153.308 18.6253 153.746 18.448C154.194 18.2613 154.68 18.168 155.202 18.168C155.902 18.168 156.523 18.3127 157.064 18.602C157.606 18.8913 158.03 19.2973 158.338 19.82C158.646 20.3427 158.8 20.9353 158.8 21.598C158.8 22.2887 158.632 22.9 158.296 23.432C157.96 23.964 157.484 24.384 156.868 24.692C156.262 24.9907 155.548 25.14 154.726 25.14ZM154.866 23.726C155.286 23.726 155.655 23.6373 155.972 23.46C156.299 23.2733 156.551 23.0213 156.728 22.704C156.915 22.3867 157.008 22.032 157.008 21.64C157.008 21.248 156.915 20.9073 156.728 20.618C156.551 20.3193 156.299 20.0813 155.972 19.904C155.655 19.7267 155.277 19.638 154.838 19.638C154.418 19.638 154.04 19.722 153.704 19.89C153.378 20.058 153.121 20.2913 152.934 20.59C152.757 20.8793 152.668 21.2153 152.668 21.598C152.668 21.99 152.762 22.3493 152.948 22.676C153.135 23.0027 153.392 23.2593 153.718 23.446C154.054 23.6327 154.437 23.726 154.866 23.726ZM160.494 25V17.524H162.244V22.452L166.374 17.524H167.97V25H166.22V20.072L162.104 25H160.494ZM170.324 25V17.524H172.074V20.562H175.84V17.524H177.59V25H175.84V22.046H172.074V25H170.324ZM185.298 25L182.596 21.416L184.024 20.534L187.356 25H185.298ZM179.936 25V17.524H181.686V25H179.936ZM181.168 22.004V20.548H183.702V22.004H181.168ZM184.192 21.472L182.554 21.276L185.298 17.524H187.174L184.192 21.472ZM192.989 25V23.488L192.891 23.166V20.52C192.891 20.0067 192.737 19.61 192.429 19.33C192.121 19.0407 191.655 18.896 191.029 18.896C190.609 18.896 190.194 18.9613 189.783 19.092C189.382 19.2227 189.041 19.4047 188.761 19.638L188.075 18.364C188.477 18.056 188.953 17.8273 189.503 17.678C190.063 17.5193 190.642 17.44 191.239 17.44C192.322 17.44 193.157 17.7013 193.745 18.224C194.343 18.7373 194.641 19.5353 194.641 20.618V25H192.989ZM190.637 25.098C190.077 25.098 189.587 25.0047 189.167 24.818C188.747 24.622 188.421 24.356 188.187 24.02C187.963 23.6747 187.851 23.2873 187.851 22.858C187.851 22.438 187.949 22.06 188.145 21.724C188.351 21.388 188.682 21.122 189.139 20.926C189.597 20.73 190.203 20.632 190.959 20.632H193.129V21.794H191.085C190.488 21.794 190.087 21.892 189.881 22.088C189.676 22.2747 189.573 22.508 189.573 22.788C189.573 23.1053 189.699 23.3573 189.951 23.544C190.203 23.7307 190.553 23.824 191.001 23.824C191.431 23.824 191.813 23.726 192.149 23.53C192.495 23.334 192.742 23.0447 192.891 22.662L193.185 23.712C193.017 24.1507 192.714 24.4913 192.275 24.734C191.846 24.9767 191.3 25.098 190.637 25.098ZM196.317 27.114L197.129 24.02L197.367 25.056C197.04 25.056 196.765 24.958 196.541 24.762C196.326 24.5567 196.219 24.2813 196.219 23.936C196.219 23.5813 196.326 23.3013 196.541 23.096C196.765 22.8813 197.036 22.774 197.353 22.774C197.68 22.774 197.95 22.8813 198.165 23.096C198.38 23.3107 198.487 23.5907 198.487 23.936C198.487 24.0293 198.478 24.132 198.459 24.244C198.44 24.3467 198.408 24.468 198.361 24.608C198.324 24.748 198.258 24.9253 198.165 25.14L197.451 27.114H196.317ZM20.6537 44.814C20.2897 44.814 19.9257 44.7533 19.5617 44.632C19.1977 44.5107 18.8943 44.3427 18.6517 44.128L19.3517 42.84C19.529 42.9987 19.7297 43.1247 19.9537 43.218C20.1777 43.3113 20.4063 43.358 20.6397 43.358C20.957 43.358 21.2137 43.2787 21.4097 43.12C21.6057 42.9613 21.7877 42.6953 21.9557 42.322L22.3897 41.342L22.5297 41.132L25.3577 34.524H27.0377L23.5377 42.602C23.3043 43.162 23.043 43.6053 22.7537 43.932C22.4737 44.2587 22.1563 44.4873 21.8017 44.618C21.4563 44.7487 21.0737 44.814 20.6537 44.814ZM22.1937 42.266L18.8197 34.524H20.6397L23.3837 40.978L22.1937 42.266ZM26.71 41.986L26.794 40.516C26.8593 40.5253 26.92 40.5347 26.976 40.544C27.032 40.5533 27.0833 40.558 27.13 40.558C27.4193 40.558 27.6433 40.4693 27.802 40.292C27.9606 40.1147 28.0773 39.8767 28.152 39.578C28.236 39.27 28.292 38.9293 28.32 38.556C28.3573 38.1733 28.3853 37.7907 28.404 37.408L28.53 34.524H34.578V42H32.828V35.532L33.234 36.008H29.678L30.056 35.518L29.958 37.492C29.93 38.1547 29.874 38.7707 29.79 39.34C29.7153 39.9 29.594 40.39 29.426 40.81C29.2673 41.23 29.0433 41.5567 28.754 41.79C28.474 42.0233 28.1146 42.14 27.676 42.14C27.536 42.14 27.382 42.126 27.214 42.098C27.0553 42.07 26.8873 42.0327 26.71 41.986ZM37.4668 42.098C37.1495 42.098 36.8788 41.9907 36.6548 41.776C36.4308 41.552 36.3188 41.272 36.3188 40.936C36.3188 40.5813 36.4308 40.3013 36.6548 40.096C36.8788 39.8813 37.1495 39.774 37.4668 39.774C37.7841 39.774 38.0548 39.8813 38.2788 40.096C38.5028 40.3013 38.6148 40.5813 38.6148 40.936C38.6148 41.272 38.5028 41.552 38.2788 41.776C38.0548 41.9907 37.7841 42.098 37.4668 42.098ZM44.4319 42V32.2H52.0619V33.698H46.2239V36.106H49.1219C50.2979 36.106 51.1892 36.3533 51.7959 36.848C52.4119 37.3333 52.7199 38.0427 52.7199 38.976C52.7199 39.9373 52.3792 40.684 51.6979 41.216C51.0259 41.7387 50.0739 42 48.8419 42H44.4319ZM46.2239 40.6H48.7439C49.4439 40.6 49.9759 40.4647 50.3399 40.194C50.7039 39.9233 50.8859 39.5313 50.8859 39.018C50.8859 38.01 50.1719 37.506 48.7439 37.506H46.2239V40.6ZM59.0528 42V40.488L58.9548 40.166V37.52C58.9548 37.0067 58.8008 36.61 58.4928 36.33C58.1848 36.0407 57.7182 35.896 57.0928 35.896C56.6728 35.896 56.2575 35.9613 55.8468 36.092C55.4455 36.2227 55.1048 36.4047 54.8248 36.638L54.1388 35.364C54.5402 35.056 55.0162 34.8273 55.5668 34.678C56.1268 34.5193 56.7055 34.44 57.3028 34.44C58.3855 34.44 59.2208 34.7013 59.8088 35.224C60.4062 35.7373 60.7048 36.5353 60.7048 37.618V42H59.0528ZM56.7008 42.098C56.1408 42.098 55.6508 42.0047 55.2308 41.818C54.8108 41.622 54.4842 41.356 54.2508 41.02C54.0268 40.6747 53.9148 40.2873 53.9148 39.858C53.9148 39.438 54.0128 39.06 54.2088 38.724C54.4142 38.388 54.7455 38.122 55.2028 37.926C55.6602 37.73 56.2668 37.632 57.0228 37.632H59.1928V38.794H57.1488C56.5515 38.794 56.1502 38.892 55.9448 39.088C55.7395 39.2747 55.6368 39.508 55.6368 39.788C55.6368 40.1053 55.7628 40.3573 56.0148 40.544C56.2668 40.7307 56.6168 40.824 57.0648 40.824C57.4942 40.824 57.8768 40.726 58.2128 40.53C58.5582 40.334 58.8055 40.0447 58.9548 39.662L59.2488 40.712C59.0808 41.1507 58.7775 41.4913 58.3388 41.734C57.9095 41.9767 57.3635 42.098 56.7008 42.098ZM67.0143 42.098C66.4077 42.098 65.8523 41.958 65.3483 41.678C64.8537 41.398 64.457 40.978 64.1583 40.418C63.869 39.8487 63.7243 39.13 63.7243 38.262C63.7243 37.3847 63.8643 36.666 64.1443 36.106C64.4337 35.546 64.8257 35.1307 65.3203 34.86C65.815 34.58 66.3797 34.44 67.0143 34.44C67.7517 34.44 68.4003 34.5987 68.9603 34.916C69.5297 35.2333 69.9777 35.6767 70.3043 36.246C70.6403 36.8153 70.8083 37.4873 70.8083 38.262C70.8083 39.0367 70.6403 39.7133 70.3043 40.292C69.9777 40.8613 69.5297 41.3047 68.9603 41.622C68.4003 41.9393 67.7517 42.098 67.0143 42.098ZM62.8703 44.716V34.524H64.5363V36.288L64.4803 38.276L64.6203 40.264V44.716H62.8703ZM66.8183 40.6C67.2383 40.6 67.6117 40.5067 67.9383 40.32C68.2743 40.1333 68.5403 39.8627 68.7363 39.508C68.9323 39.1533 69.0303 38.738 69.0303 38.262C69.0303 37.7767 68.9323 37.3613 68.7363 37.016C68.5403 36.6613 68.2743 36.3907 67.9383 36.204C67.6117 36.0173 67.2383 35.924 66.8183 35.924C66.3983 35.924 66.0203 36.0173 65.6843 36.204C65.3483 36.3907 65.0823 36.6613 64.8863 37.016C64.6903 37.3613 64.5923 37.7767 64.5923 38.262C64.5923 38.738 64.6903 39.1533 64.8863 39.508C65.0823 39.8627 65.3483 40.1333 65.6843 40.32C66.0203 40.5067 66.3983 40.6 66.8183 40.6ZM80.096 42V34.524H81.846V42H80.096ZM76.19 36.988C77.1514 36.988 77.8794 37.2027 78.374 37.632C78.878 38.0613 79.13 38.668 79.13 39.452C79.13 40.264 78.85 40.8987 78.29 41.356C77.7394 41.804 76.9554 42.0233 75.938 42.014L72.55 42V34.524H74.3V36.974L76.19 36.988ZM75.784 40.726C76.2974 40.7353 76.6894 40.628 76.96 40.404C77.2307 40.18 77.366 39.8533 77.366 39.424C77.366 38.9947 77.2307 38.6867 76.96 38.5C76.6987 38.304 76.3067 38.2013 75.784 38.192L74.3 38.178V40.712L75.784 40.726ZM89.2245 40.516L88.8465 40.936V34.524H90.5965V40.936L90.1765 40.516H93.8725L93.4665 40.936V34.524H95.2165V42H84.1985V34.524H85.9485V40.936L85.5425 40.516H89.2245ZM101.056 42.098C100.225 42.098 99.4969 41.9347 98.8716 41.608C98.2556 41.272 97.7749 40.8147 97.4296 40.236C97.0936 39.6573 96.9256 38.9993 96.9256 38.262C96.9256 37.5153 97.0889 36.8573 97.4156 36.288C97.7516 35.7093 98.2089 35.2567 98.7876 34.93C99.3756 34.6033 100.043 34.44 100.79 34.44C101.518 34.44 102.166 34.5987 102.736 34.916C103.305 35.2333 103.753 35.6813 104.08 36.26C104.406 36.8387 104.57 37.52 104.57 38.304C104.57 38.3787 104.565 38.4627 104.556 38.556C104.556 38.6493 104.551 38.738 104.542 38.822H98.3116V37.66H103.618L102.932 38.024C102.941 37.5947 102.852 37.2167 102.666 36.89C102.479 36.5633 102.222 36.3067 101.896 36.12C101.578 35.9333 101.21 35.84 100.79 35.84C100.36 35.84 99.9822 35.9333 99.6556 36.12C99.3382 36.3067 99.0862 36.568 98.8996 36.904C98.7222 37.2307 98.6336 37.618 98.6336 38.066V38.346C98.6336 38.794 98.7362 39.1907 98.9416 39.536C99.1469 39.8813 99.4362 40.1473 99.8096 40.334C100.183 40.5207 100.612 40.614 101.098 40.614C101.518 40.614 101.896 40.5487 102.232 40.418C102.568 40.2873 102.866 40.082 103.128 39.802L104.066 40.88C103.73 41.272 103.305 41.5753 102.792 41.79C102.288 41.9953 101.709 42.098 101.056 42.098ZM106.484 42V34.524H110.138C111.043 34.524 111.752 34.692 112.266 35.028C112.788 35.364 113.05 35.84 113.05 36.456C113.05 37.0627 112.807 37.5387 112.322 37.884C111.836 38.22 111.192 38.388 110.39 38.388L110.6 37.954C111.505 37.954 112.177 38.122 112.616 38.458C113.064 38.7847 113.288 39.2653 113.288 39.9C113.288 40.5627 113.04 41.0807 112.546 41.454C112.051 41.818 111.3 42 110.292 42H106.484ZM108.15 40.726H110.152C110.628 40.726 110.987 40.6513 111.23 40.502C111.472 40.3433 111.594 40.1053 111.594 39.788C111.594 39.452 111.482 39.2047 111.258 39.046C111.034 38.8873 110.684 38.808 110.208 38.808H108.15V40.726ZM108.15 37.646H109.984C110.432 37.646 110.768 37.5667 110.992 37.408C111.225 37.24 111.342 37.0067 111.342 36.708C111.342 36.4 111.225 36.1713 110.992 36.022C110.768 35.8727 110.432 35.798 109.984 35.798H108.15V37.646ZM118.554 42.098C117.77 42.098 117.07 41.9347 116.454 41.608C115.847 41.272 115.371 40.8147 115.026 40.236C114.68 39.6573 114.508 38.9993 114.508 38.262C114.508 37.5153 114.68 36.8573 115.026 36.288C115.371 35.7093 115.847 35.2567 116.454 34.93C117.07 34.6033 117.77 34.44 118.554 34.44C119.282 34.44 119.921 34.5893 120.472 34.888C121.032 35.1773 121.456 35.6067 121.746 36.176L120.402 36.96C120.178 36.6053 119.902 36.344 119.576 36.176C119.258 36.008 118.913 35.924 118.54 35.924C118.11 35.924 117.723 36.0173 117.378 36.204C117.032 36.3907 116.762 36.6613 116.566 37.016C116.37 37.3613 116.272 37.7767 116.272 38.262C116.272 38.7473 116.37 39.1673 116.566 39.522C116.762 39.8673 117.032 40.1333 117.378 40.32C117.723 40.5067 118.11 40.6 118.54 40.6C118.913 40.6 119.258 40.516 119.576 40.348C119.902 40.18 120.178 39.9187 120.402 39.564L121.746 40.348C121.456 40.908 121.032 41.342 120.472 41.65C119.921 41.9487 119.282 42.098 118.554 42.098ZM127.822 42V40.488L127.724 40.166V37.52C127.724 37.0067 127.57 36.61 127.262 36.33C126.954 36.0407 126.488 35.896 125.862 35.896C125.442 35.896 125.027 35.9613 124.616 36.092C124.215 36.2227 123.874 36.4047 123.594 36.638L122.908 35.364C123.31 35.056 123.786 34.8273 124.336 34.678C124.896 34.5193 125.475 34.44 126.072 34.44C127.155 34.44 127.99 34.7013 128.578 35.224C129.176 35.7373 129.474 36.5353 129.474 37.618V42H127.822ZM125.47 42.098C124.91 42.098 124.42 42.0047 124 41.818C123.58 41.622 123.254 41.356 123.02 41.02C122.796 40.6747 122.684 40.2873 122.684 39.858C122.684 39.438 122.782 39.06 122.978 38.724C123.184 38.388 123.515 38.122 123.972 37.926C124.43 37.73 125.036 37.632 125.792 37.632H127.962V38.794H125.918C125.321 38.794 124.92 38.892 124.714 39.088C124.509 39.2747 124.406 39.508 124.406 39.788C124.406 40.1053 124.532 40.3573 124.784 40.544C125.036 40.7307 125.386 40.824 125.834 40.824C126.264 40.824 126.646 40.726 126.982 40.53C127.328 40.334 127.575 40.0447 127.724 39.662L128.018 40.712C127.85 41.1507 127.547 41.4913 127.108 41.734C126.679 41.9767 126.133 42.098 125.47 42.098ZM136.386 42V39.452L136.638 39.746H134.398C133.371 39.746 132.564 39.5313 131.976 39.102C131.397 38.6633 131.108 38.0333 131.108 37.212C131.108 36.3347 131.416 35.6673 132.032 35.21C132.657 34.7527 133.488 34.524 134.524 34.524H137.954V42H136.386ZM131.01 42L133.026 39.144H134.818L132.886 42H131.01ZM136.386 38.892V35.532L136.638 35.994H134.58C134.039 35.994 133.619 36.0967 133.32 36.302C133.031 36.498 132.886 36.82 132.886 37.268C132.886 38.108 133.432 38.528 134.524 38.528H136.638L136.386 38.892ZM148.321 42.098C147.714 42.098 147.159 41.958 146.655 41.678C146.16 41.398 145.764 40.978 145.465 40.418C145.176 39.8487 145.031 39.13 145.031 38.262C145.031 37.3847 145.171 36.666 145.451 36.106C145.74 35.546 146.132 35.1307 146.627 34.86C147.122 34.58 147.686 34.44 148.321 34.44C149.058 34.44 149.707 34.5987 150.267 34.916C150.836 35.2333 151.284 35.6767 151.611 36.246C151.947 36.8153 152.115 37.4873 152.115 38.262C152.115 39.0367 151.947 39.7133 151.611 40.292C151.284 40.8613 150.836 41.3047 150.267 41.622C149.707 41.9393 149.058 42.098 148.321 42.098ZM144.177 44.716V34.524H145.843V36.288L145.787 38.276L145.927 40.264V44.716H144.177ZM148.125 40.6C148.545 40.6 148.918 40.5067 149.245 40.32C149.581 40.1333 149.847 39.8627 150.043 39.508C150.239 39.1533 150.337 38.738 150.337 38.262C150.337 37.7767 150.239 37.3613 150.043 37.016C149.847 36.6613 149.581 36.3907 149.245 36.204C148.918 36.0173 148.545 35.924 148.125 35.924C147.705 35.924 147.327 36.0173 146.991 36.204C146.655 36.3907 146.389 36.6613 146.193 37.016C145.997 37.3613 145.899 37.7767 145.899 38.262C145.899 38.738 145.997 39.1533 146.193 39.508C146.389 39.8627 146.655 40.1333 146.991 40.32C147.327 40.5067 147.705 40.6 148.125 40.6ZM157.189 42.098C156.423 42.098 155.742 41.9347 155.145 41.608C154.547 41.272 154.076 40.8147 153.731 40.236C153.385 39.6573 153.213 38.9993 153.213 38.262C153.213 37.5153 153.385 36.8573 153.731 36.288C154.076 35.7093 154.547 35.2567 155.145 34.93C155.742 34.6033 156.423 34.44 157.189 34.44C157.963 34.44 158.649 34.6033 159.247 34.93C159.853 35.2567 160.325 35.7047 160.661 36.274C161.006 36.8433 161.179 37.506 161.179 38.262C161.179 38.9993 161.006 39.6573 160.661 40.236C160.325 40.8147 159.853 41.272 159.247 41.608C158.649 41.9347 157.963 42.098 157.189 42.098ZM157.189 40.6C157.618 40.6 158.001 40.5067 158.337 40.32C158.673 40.1333 158.934 39.8627 159.121 39.508C159.317 39.1533 159.415 38.738 159.415 38.262C159.415 37.7767 159.317 37.3613 159.121 37.016C158.934 36.6613 158.673 36.3907 158.337 36.204C158.001 36.0173 157.623 35.924 157.203 35.924C156.773 35.924 156.391 36.0173 156.055 36.204C155.728 36.3907 155.467 36.6613 155.271 37.016C155.075 37.3613 154.977 37.7767 154.977 38.262C154.977 38.738 155.075 39.1533 155.271 39.508C155.467 39.8627 155.728 40.1333 156.055 40.32C156.391 40.5067 156.769 40.6 157.189 40.6ZM167.933 40.516L167.555 40.936V34.524H169.305V40.936L168.885 40.516H172.581L172.175 40.936V34.524H173.925V42H162.907V34.524H164.657V40.936L164.251 40.516H167.933ZM173.365 43.54V41.566L173.771 42H172.119V40.516H175.003V43.54H173.365ZM180.815 42V40.488L180.717 40.166V37.52C180.717 37.0067 180.563 36.61 180.255 36.33C179.947 36.0407 179.48 35.896 178.855 35.896C178.435 35.896 178.019 35.9613 177.609 36.092C177.207 36.2227 176.867 36.4047 176.587 36.638L175.901 35.364C176.302 35.056 176.778 34.8273 177.329 34.678C177.889 34.5193 178.467 34.44 179.065 34.44C180.147 34.44 180.983 34.7013 181.571 35.224C182.168 35.7373 182.467 36.5353 182.467 37.618V42H180.815ZM178.463 42.098C177.903 42.098 177.413 42.0047 176.993 41.818C176.573 41.622 176.246 41.356 176.013 41.02C175.789 40.6747 175.677 40.2873 175.677 39.858C175.677 39.438 175.775 39.06 175.971 38.724C176.176 38.388 176.507 38.122 176.965 37.926C177.422 37.73 178.029 37.632 178.785 37.632H180.955V38.794H178.911C178.313 38.794 177.912 38.892 177.707 39.088C177.501 39.2747 177.399 39.508 177.399 39.788C177.399 40.1053 177.525 40.3573 177.777 40.544C178.029 40.7307 178.379 40.824 178.827 40.824C179.256 40.824 179.639 40.726 179.975 40.53C180.32 40.334 180.567 40.0447 180.717 39.662L181.011 40.712C180.843 41.1507 180.539 41.4913 180.101 41.734C179.671 41.9767 179.125 42.098 178.463 42.098ZM184.142 44.114L184.954 41.02L185.192 42.056C184.865 42.056 184.59 41.958 184.366 41.762C184.151 41.5567 184.044 41.2813 184.044 40.936C184.044 40.5813 184.151 40.3013 184.366 40.096C184.59 39.8813 184.861 39.774 185.178 39.774C185.505 39.774 185.775 39.8813 185.99 40.096C186.205 40.3107 186.312 40.5907 186.312 40.936C186.312 41.0293 186.303 41.132 186.284 41.244C186.265 41.3467 186.233 41.468 186.186 41.608C186.149 41.748 186.083 41.9253 185.99 42.14L185.276 44.114H184.142ZM188.853 42V32.9L189.651 33.726H186.781V32.2H190.673V42H188.853ZM192.477 39.774V38.514L197.307 32.2H199.253L194.493 38.514L193.583 38.234H201.353V39.774H192.477ZM197.853 42V39.774L197.909 38.234V36.26H199.617V42H197.853ZM203.484 42.098C203.167 42.098 202.896 41.9907 202.672 41.776C202.448 41.552 202.336 41.272 202.336 40.936C202.336 40.5813 202.448 40.3013 202.672 40.096C202.896 39.8813 203.167 39.774 203.484 39.774C203.802 39.774 204.072 39.8813 204.296 40.096C204.52 40.3013 204.632 40.5813 204.632 40.936C204.632 41.272 204.52 41.552 204.296 41.776C204.072 41.9907 203.802 42.098 203.484 42.098ZM57.2962 57.25V50.95H58.7942V57.25H57.2962ZM54.8182 54.8V53.4H61.2722V54.8H54.8182ZM64.2833 59L68.3293 49.928L68.8053 50.74H63.2473L64.1153 49.858V52.406H62.4213V49.2H70.0373V50.418L66.2293 59H64.2833ZM74.892 56.774V55.514L79.722 49.2H81.668L76.908 55.514L75.998 55.234H83.768V56.774H74.892ZM80.268 59V56.774L80.324 55.234V53.26H82.032V59H80.268ZM87.7696 49.06C88.6656 49.06 89.4263 49.2513 90.0516 49.634C90.6863 50.0073 91.1716 50.5533 91.5076 51.272C91.8436 51.9907 92.0116 52.8773 92.0116 53.932C92.0116 55.052 91.8063 55.9993 91.3956 56.774C90.9943 57.5487 90.4343 58.1367 89.7156 58.538C88.9969 58.9393 88.1616 59.14 87.2096 59.14C86.7149 59.14 86.2436 59.0887 85.7956 58.986C85.3476 58.8833 84.9603 58.7247 84.6336 58.51L85.3056 57.138C85.5763 57.3153 85.8703 57.4413 86.1876 57.516C86.5049 57.5813 86.8316 57.614 87.1676 57.614C88.0916 57.614 88.8243 57.3293 89.3656 56.76C89.9069 56.1907 90.1776 55.3507 90.1776 54.24C90.1776 54.0627 90.1729 53.8573 90.1636 53.624C90.1543 53.3813 90.1216 53.1387 90.0656 52.896L90.6256 53.512C90.4669 53.8947 90.2383 54.2167 89.9396 54.478C89.6409 54.73 89.2909 54.9213 88.8896 55.052C88.4883 55.1827 88.0449 55.248 87.5596 55.248C86.9249 55.248 86.3509 55.1267 85.8376 54.884C85.3336 54.632 84.9323 54.282 84.6336 53.834C84.3349 53.3767 84.1856 52.8447 84.1856 52.238C84.1856 51.5847 84.3443 51.0247 84.6616 50.558C84.9789 50.082 85.4083 49.7133 85.9496 49.452C86.5003 49.1907 87.1069 49.06 87.7696 49.06ZM87.8676 50.488C87.4943 50.488 87.1629 50.558 86.8736 50.698C86.5843 50.8287 86.3556 51.02 86.1876 51.272C86.0289 51.5147 85.9496 51.8087 85.9496 52.154C85.9496 52.6673 86.1269 53.0733 86.4816 53.372C86.8363 53.6707 87.3123 53.82 87.9096 53.82C88.3016 53.82 88.6469 53.75 88.9456 53.61C89.2443 53.4607 89.4776 53.26 89.6456 53.008C89.8136 52.7467 89.8976 52.4573 89.8976 52.14C89.8976 51.832 89.8183 51.5567 89.6596 51.314C89.5009 51.062 89.2723 50.8613 88.9736 50.712C88.6749 50.5627 88.3063 50.488 87.8676 50.488ZM96.491 59.14C95.8003 59.14 95.1236 59.042 94.461 58.846C93.8076 58.6407 93.257 58.3607 92.809 58.006L93.579 56.592C93.9336 56.8813 94.363 57.1147 94.867 57.292C95.3803 57.4693 95.9123 57.558 96.463 57.558C97.107 57.558 97.611 57.4227 97.975 57.152C98.3483 56.8813 98.535 56.5173 98.535 56.06C98.535 55.752 98.4556 55.4813 98.297 55.248C98.1476 55.0147 97.877 54.8373 97.485 54.716C97.1023 54.5947 96.575 54.534 95.903 54.534H93.537L94.041 49.2H99.795V50.726H94.713L95.665 49.858L95.287 53.848L94.335 52.994H96.309C97.2796 52.994 98.059 53.1247 98.647 53.386C99.2443 53.638 99.6783 53.9927 99.949 54.45C100.229 54.898 100.369 55.4113 100.369 55.99C100.369 56.5593 100.229 57.082 99.949 57.558C99.669 58.034 99.2396 58.4167 98.661 58.706C98.0916 58.9953 97.3683 59.14 96.491 59.14ZM106.926 59L110.972 49.928L111.448 50.74H105.89L106.758 49.858V52.406H105.064V49.2H112.68V50.418L108.872 59H106.926ZM117.109 49.06C118.005 49.06 118.766 49.2513 119.391 49.634C120.026 50.0073 120.511 50.5533 120.847 51.272C121.183 51.9907 121.351 52.8773 121.351 53.932C121.351 55.052 121.146 55.9993 120.735 56.774C120.334 57.5487 119.774 58.1367 119.055 58.538C118.337 58.9393 117.501 59.14 116.549 59.14C116.055 59.14 115.583 59.0887 115.135 58.986C114.687 58.8833 114.3 58.7247 113.973 58.51L114.645 57.138C114.916 57.3153 115.21 57.4413 115.527 57.516C115.845 57.5813 116.171 57.614 116.507 57.614C117.431 57.614 118.164 57.3293 118.705 56.76C119.247 56.1907 119.517 55.3507 119.517 54.24C119.517 54.0627 119.513 53.8573 119.503 53.624C119.494 53.3813 119.461 53.1387 119.405 52.896L119.965 53.512C119.807 53.8947 119.578 54.2167 119.279 54.478C118.981 54.73 118.631 54.9213 118.229 55.052C117.828 55.1827 117.385 55.248 116.899 55.248C116.265 55.248 115.691 55.1267 115.177 54.884C114.673 54.632 114.272 54.282 113.973 53.834C113.675 53.3767 113.525 52.8447 113.525 52.238C113.525 51.5847 113.684 51.0247 114.001 50.558C114.319 50.082 114.748 49.7133 115.289 49.452C115.84 49.1907 116.447 49.06 117.109 49.06ZM117.207 50.488C116.834 50.488 116.503 50.558 116.213 50.698C115.924 50.8287 115.695 51.02 115.527 51.272C115.369 51.5147 115.289 51.8087 115.289 52.154C115.289 52.6673 115.467 53.0733 115.821 53.372C116.176 53.6707 116.652 53.82 117.249 53.82C117.641 53.82 117.987 53.75 118.285 53.61C118.584 53.4607 118.817 53.26 118.985 53.008C119.153 52.7467 119.237 52.4573 119.237 52.14C119.237 51.832 119.158 51.5567 118.999 51.314C118.841 51.062 118.612 50.8613 118.313 50.712C118.015 50.5627 117.646 50.488 117.207 50.488ZM126.671 59.14C125.896 59.14 125.196 58.944 124.571 58.552C123.955 58.16 123.469 57.5907 123.115 56.844C122.76 56.088 122.583 55.1733 122.583 54.1C122.583 53.0267 122.76 52.1167 123.115 51.37C123.469 50.614 123.955 50.04 124.571 49.648C125.196 49.256 125.896 49.06 126.671 49.06C127.455 49.06 128.155 49.256 128.771 49.648C129.387 50.04 129.872 50.614 130.227 51.37C130.591 52.1167 130.773 53.0267 130.773 54.1C130.773 55.1733 130.591 56.088 130.227 56.844C129.872 57.5907 129.387 58.16 128.771 58.552C128.155 58.944 127.455 59.14 126.671 59.14ZM126.671 57.558C127.128 57.558 127.525 57.4367 127.861 57.194C128.197 56.942 128.458 56.5593 128.645 56.046C128.841 55.5327 128.939 54.884 128.939 54.1C128.939 53.3067 128.841 52.658 128.645 52.154C128.458 51.6407 128.197 51.2627 127.861 51.02C127.525 50.768 127.128 50.642 126.671 50.642C126.232 50.642 125.84 50.768 125.495 51.02C125.159 51.2627 124.893 51.6407 124.697 52.154C124.51 52.658 124.417 53.3067 124.417 54.1C124.417 54.884 124.51 55.5327 124.697 56.046C124.893 56.5593 125.159 56.942 125.495 57.194C125.84 57.4367 126.232 57.558 126.671 57.558ZM138.952 59.14C138.261 59.14 137.585 59.042 136.922 58.846C136.269 58.6407 135.718 58.3607 135.27 58.006L136.054 56.592C136.409 56.8813 136.838 57.1147 137.342 57.292C137.846 57.4693 138.373 57.558 138.924 57.558C139.577 57.558 140.086 57.4273 140.45 57.166C140.814 56.8953 140.996 56.5313 140.996 56.074C140.996 55.626 140.828 55.2713 140.492 55.01C140.156 54.7487 139.615 54.618 138.868 54.618H137.972V53.372L140.772 50.04L141.01 50.726H135.746V49.2H142.424V50.418L139.624 53.75L138.672 53.19H139.218C140.422 53.19 141.323 53.4607 141.92 54.002C142.527 54.534 142.83 55.22 142.83 56.06C142.83 56.6107 142.69 57.1193 142.41 57.586C142.13 58.0527 141.701 58.4307 141.122 58.72C140.553 59 139.829 59.14 138.952 59.14ZM147.954 59.14C147.142 59.14 146.438 59.0187 145.84 58.776C145.243 58.5333 144.781 58.1927 144.454 57.754C144.128 57.306 143.964 56.7833 143.964 56.186C143.964 55.5887 144.123 55.0847 144.44 54.674C144.758 54.2633 145.215 53.9507 145.812 53.736C146.41 53.5213 147.124 53.414 147.954 53.414C148.785 53.414 149.499 53.5213 150.096 53.736C150.703 53.9507 151.165 54.268 151.482 54.688C151.809 55.0987 151.972 55.598 151.972 56.186C151.972 56.7833 151.804 57.306 151.468 57.754C151.142 58.1927 150.675 58.5333 150.068 58.776C149.471 59.0187 148.766 59.14 147.954 59.14ZM147.954 57.712C148.626 57.712 149.158 57.572 149.55 57.292C149.942 57.012 150.138 56.6247 150.138 56.13C150.138 55.6447 149.942 55.262 149.55 54.982C149.158 54.702 148.626 54.562 147.954 54.562C147.282 54.562 146.755 54.702 146.372 54.982C145.99 55.262 145.798 55.6447 145.798 56.13C145.798 56.6247 145.99 57.012 146.372 57.292C146.755 57.572 147.282 57.712 147.954 57.712ZM147.954 54.366C147.198 54.366 146.55 54.268 146.008 54.072C145.467 53.8667 145.047 53.5727 144.748 53.19C144.459 52.798 144.314 52.3313 144.314 51.79C144.314 51.23 144.464 50.7493 144.762 50.348C145.07 49.9373 145.5 49.62 146.05 49.396C146.601 49.172 147.236 49.06 147.954 49.06C148.682 49.06 149.322 49.172 149.872 49.396C150.423 49.62 150.852 49.9373 151.16 50.348C151.468 50.7493 151.622 51.23 151.622 51.79C151.622 52.3313 151.473 52.798 151.174 53.19C150.885 53.5727 150.465 53.8667 149.914 54.072C149.364 54.268 148.71 54.366 147.954 54.366ZM147.954 53.246C148.533 53.246 148.99 53.1247 149.326 52.882C149.662 52.63 149.83 52.294 149.83 51.874C149.83 51.4353 149.658 51.0947 149.312 50.852C148.967 50.6093 148.514 50.488 147.954 50.488C147.394 50.488 146.946 50.6093 146.61 50.852C146.274 51.0947 146.106 51.4353 146.106 51.874C146.106 52.294 146.27 52.63 146.596 52.882C146.932 53.1247 147.385 53.246 147.954 53.246ZM156.457 49.06C157.353 49.06 158.114 49.2513 158.739 49.634C159.374 50.0073 159.859 50.5533 160.195 51.272C160.531 51.9907 160.699 52.8773 160.699 53.932C160.699 55.052 160.494 55.9993 160.083 56.774C159.682 57.5487 159.122 58.1367 158.403 58.538C157.684 58.9393 156.849 59.14 155.897 59.14C155.402 59.14 154.931 59.0887 154.483 58.986C154.035 58.8833 153.648 58.7247 153.321 58.51L153.993 57.138C154.264 57.3153 154.558 57.4413 154.875 57.516C155.192 57.5813 155.519 57.614 155.855 57.614C156.779 57.614 157.512 57.3293 158.053 56.76C158.594 56.1907 158.865 55.3507 158.865 54.24C158.865 54.0627 158.86 53.8573 158.851 53.624C158.842 53.3813 158.809 53.1387 158.753 52.896L159.313 53.512C159.154 53.8947 158.926 54.2167 158.627 54.478C158.328 54.73 157.978 54.9213 157.577 55.052C157.176 55.1827 156.732 55.248 156.247 55.248C155.612 55.248 155.038 55.1267 154.525 54.884C154.021 54.632 153.62 54.282 153.321 53.834C153.022 53.3767 152.873 52.8447 152.873 52.238C152.873 51.5847 153.032 51.0247 153.349 50.558C153.666 50.082 154.096 49.7133 154.637 49.452C155.188 49.1907 155.794 49.06 156.457 49.06ZM156.555 50.488C156.182 50.488 155.85 50.558 155.561 50.698C155.272 50.8287 155.043 51.02 154.875 51.272C154.716 51.5147 154.637 51.8087 154.637 52.154C154.637 52.6673 154.814 53.0733 155.169 53.372C155.524 53.6707 156 53.82 156.597 53.82C156.989 53.82 157.334 53.75 157.633 53.61C157.932 53.4607 158.165 53.26 158.333 53.008C158.501 52.7467 158.585 52.4573 158.585 52.14C158.585 51.832 158.506 51.5567 158.347 51.314C158.188 51.062 157.96 50.8613 157.661 50.712C157.362 50.5627 156.994 50.488 156.555 50.488ZM165.234 49.06C166.13 49.06 166.891 49.2513 167.516 49.634C168.151 50.0073 168.636 50.5533 168.972 51.272C169.308 51.9907 169.476 52.8773 169.476 53.932C169.476 55.052 169.271 55.9993 168.86 56.774C168.459 57.5487 167.899 58.1367 167.18 58.538C166.462 58.9393 165.626 59.14 164.674 59.14C164.18 59.14 163.708 59.0887 163.26 58.986C162.812 58.8833 162.425 58.7247 162.098 58.51L162.77 57.138C163.041 57.3153 163.335 57.4413 163.652 57.516C163.97 57.5813 164.296 57.614 164.632 57.614C165.556 57.614 166.289 57.3293 166.83 56.76C167.372 56.1907 167.642 55.3507 167.642 54.24C167.642 54.0627 167.638 53.8573 167.628 53.624C167.619 53.3813 167.586 53.1387 167.53 52.896L168.09 53.512C167.932 53.8947 167.703 54.2167 167.404 54.478C167.106 54.73 166.756 54.9213 166.354 55.052C165.953 55.1827 165.51 55.248 165.024 55.248C164.39 55.248 163.816 55.1267 163.302 54.884C162.798 54.632 162.397 54.282 162.098 53.834C161.8 53.3767 161.65 52.8447 161.65 52.238C161.65 51.5847 161.809 51.0247 162.126 50.558C162.444 50.082 162.873 49.7133 163.414 49.452C163.965 49.1907 164.572 49.06 165.234 49.06ZM165.332 50.488C164.959 50.488 164.628 50.558 164.338 50.698C164.049 50.8287 163.82 51.02 163.652 51.272C163.494 51.5147 163.414 51.8087 163.414 52.154C163.414 52.6673 163.592 53.0733 163.946 53.372C164.301 53.6707 164.777 53.82 165.374 53.82C165.766 53.82 166.112 53.75 166.41 53.61C166.709 53.4607 166.942 53.26 167.11 53.008C167.278 52.7467 167.362 52.4573 167.362 52.14C167.362 51.832 167.283 51.5567 167.124 51.314C166.966 51.062 166.737 50.8613 166.438 50.712C166.14 50.5627 165.771 50.488 165.332 50.488Z" fill="black"/>
</svg>
