<svg width="147" height="174" viewBox="0 0 147 174" fill="none" xmlns="http://www.w3.org/2000/svg">
<path d="M101.023 151.053C119.949 144.701 130.143 124.209 123.791 105.283C117.439 86.3564 96.9467 76.1628 78.0203 82.5147C59.0939 88.8666 48.9002 109.359 55.2522 128.285C61.6041 147.212 82.0962 157.405 101.023 151.053Z" fill="#000066"/>
<path fill-rule="evenodd" clip-rule="evenodd" d="M78.02 82.515C96.9462 76.1632 117.439 86.357 123.79 105.283C126.212 112.497 126.227 119.939 124.272 126.738C123.852 126.895 123.43 127.05 123.001 127.194C104.075 133.546 83.5825 123.352 77.2307 104.426C74.8096 97.2121 74.7952 89.7697 76.7493 82.971C77.1696 82.8137 77.5908 82.659 78.02 82.515Z" fill="#2222AB"/>
<path fill-rule="evenodd" clip-rule="evenodd" d="M45.0242 17.9246L89.9647 76.6363C85.5162 76.3887 80.9456 76.9632 76.4631 78.4676C70.6082 80.4325 65.5908 83.7509 61.6378 87.9574L61.6374 87.9561L45.0228 17.9251L45.0242 17.9246Z" fill="#2222AB"/>
<path fill-rule="evenodd" clip-rule="evenodd" d="M74.5122 79.1852C69.489 81.1953 65.1448 84.2273 61.6393 87.9579L61.6389 87.9566L45.0243 17.9256L74.5122 79.1852Z" fill="#000066"/>
<path d="M89.2057 131.163L75.1264 106.96L84.6346 101.429C87.7464 99.6188 90.6035 98.8823 93.2059 99.2194C95.795 99.5334 97.8538 101.004 99.3824 103.632C100.911 106.26 101.179 108.788 100.185 111.217C99.1919 113.646 97.1393 115.765 94.0275 117.576L86.4555 121.981L87.0661 119.45L92.6978 129.131L89.2057 131.163ZM87.2672 119.796L84.7861 119.111L92.3581 114.706C94.4787 113.472 95.8423 112.078 96.4488 110.522C97.0553 108.966 96.8759 107.358 95.9104 105.698C94.9584 104.062 93.6629 103.134 92.0239 102.915C90.3849 102.696 88.5051 103.203 86.3844 104.437L78.8124 108.842L79.3627 106.208L87.2672 119.796ZM83.3258 129.169L82.1793 127.198L96.8738 118.65L98.0203 120.621L83.3258 129.169Z" fill="white"/>
</svg>
