<svg width="540" height="120" viewBox="0 0 540 120" fill="none" xmlns="http://www.w3.org/2000/svg">
<g clip-path="url(#clip0_55_384)">
<path fill-rule="evenodd" clip-rule="evenodd" d="M270.988 30.8061C270.265 30.8014 269.541 30.8006 268.83 30.8061C261.688 30.8631 255.643 38.1447 255.643 43.3533C255.643 47.6107 255.417 49.1155 257.84 53.0308C261.517 58.97 267.106 59.5519 271.072 59.5326C271.462 59.5309 271.85 59.5082 272.23 59.4744H276.105V60.485V60.5034V69.8234V75.6748C278.78 75.6152 283.923 73.2638 285.744 72.1149C294.337 66.6922 301.188 57.5046 301.188 46.9812C301.188 34.5347 296.996 24.8238 286.026 18.2684C284.15 17.1473 278.965 14.6602 276.105 14.6602V18.769V29.8315V30.8066H270.988V30.8061Z" fill="white"/>
<path fill-rule="evenodd" clip-rule="evenodd" d="M268.184 76.3338H271.485C271.485 58.9438 273.158 66.1616 263.767 63.2685C259.472 61.9453 255.491 58.2539 253.343 54.5562C247.803 45.0165 252.287 32.1683 262.139 27.6818C267.65 25.1719 271.485 27.2056 271.485 25.2139V14.0002C228.022 14.0002 228.702 76.3338 268.184 76.3338V76.3338Z" fill="white"/>
<path fill-rule="evenodd" clip-rule="evenodd" d="M292.937 101.069H287.656V98.4312H293.267C294.945 98.4312 295.733 101.069 292.937 101.069ZM292.277 95.133H287.657V92.4946C293.045 92.4946 293.597 91.9718 293.597 93.814C293.597 94.5861 293.05 95.1334 292.277 95.1334V95.133ZM282.706 88.5369V105.687H294.587C299.368 105.687 301.94 99.1647 297.887 96.4528C299.657 94.8812 299.582 89.6516 296.634 88.2988C294.238 87.1996 287.461 87.5477 283.696 87.5477C282.935 87.5477 282.706 87.7772 282.706 88.5369Z" fill="white"/>
<path fill-rule="evenodd" clip-rule="evenodd" d="M254.323 104.698L253.993 105.027L254.323 104.698ZM249.372 92.4947C255.275 92.4947 254.795 101.07 249.702 101.07C243.878 101.07 243.801 92.4947 249.372 92.4947ZM253.993 105.027V105.687C259.537 105.687 258.961 106.789 258.943 101.4C258.932 97.9508 259.069 95.1532 257.965 92.8125C252.831 81.9329 235.279 89.9069 241.221 100.969C245.336 108.627 253.203 105.093 253.993 105.027V105.027Z" fill="white"/>
<path fill-rule="evenodd" clip-rule="evenodd" d="M306.138 96.7821C306.138 92.1517 314.719 89.8371 314.719 97.4416C314.719 99.9712 310.771 102.637 307.685 99.8538C307.027 99.2607 306.138 97.8125 306.138 96.7821V96.7821ZM315.379 104.698C315.379 104.698 315.058 105.654 315.049 105.687C317.952 105.678 319.877 105.63 319.877 105.63C319.914 105.521 320.004 103.955 320 101.4C319.981 95.4863 319.901 90.6413 314.064 88.2017C309.394 86.2494 303.809 88.5785 301.842 93.4775C299.156 100.164 305.463 106.871 311.616 105.907C313.669 105.585 314.946 104.814 315.379 104.698H315.379Z" fill="white"/>
<path fill-rule="evenodd" clip-rule="evenodd" d="M220 88.5369C220 93.9155 221.918 94.7201 223.3 96.7821C222.056 98.6393 220 99.6636 220 104.697C220 106.191 221.693 105.687 225.281 105.687C225.281 103.704 224.79 99.0907 229.241 99.0907C233.203 99.0907 233.861 102.406 233.861 105.687H238.812C238.812 102.663 238.671 100.83 237.036 98.5567C236.525 97.8454 236.324 97.4056 235.512 97.1118C235.916 96.6082 236.344 96.6861 237.947 93.2791C238.744 91.5859 238.812 90.2139 238.812 87.877C237.076 87.4728 236.001 87.5473 233.861 87.5473C233.669 89.8602 233.653 94.4731 229.571 94.4731C226.437 94.4731 225.345 92.1902 225.055 89.751C224.761 87.2694 225.658 87.5469 220.99 87.5469C220.23 87.5469 220 87.7764 220 88.5361V88.5369Z" fill="white"/>
<path fill-rule="evenodd" clip-rule="evenodd" d="M261.254 105.687H266.534C266.534 100.961 266.395 94.837 270.825 92.4942C272.85 93.5652 273.631 95.3179 274.2 97.6959L275.115 105.686H280.065C280.065 82.8102 264.401 82.4745 261.709 99.2153C261.472 100.69 261.253 104.287 261.253 105.686L261.254 105.687Z" fill="white"/>
</g>
<g clip-path="url(#clip1_55_384)">
<path fill-rule="evenodd" clip-rule="evenodd" d="M461.409 43.1664H467.465V31.473C467.809 31.7257 469.82 35.0193 470.13 35.4825C473.258 40.1674 471.725 39.3699 475.641 39.3699C476.12 39.3699 476.916 37.9298 477.148 37.5404L481.092 31.473L481.079 42.1165C481.067 43.6198 480.945 43.1664 486.845 43.1664C487.194 43.1664 487.3 43.0607 487.3 42.7108V19.476C487.3 19.1261 487.194 19.0204 486.845 19.0204C482.186 19.0204 483.018 18.6256 481.849 20.3871L476.55 28.4359C476.159 29.0221 474.563 31.2778 474.43 31.7768C473.818 31.3658 468.984 23.7353 467.889 22.0879C465.35 18.2673 466.746 19.0204 461.409 19.0204V43.1664V43.1664Z" fill="white"/>
<path fill-rule="evenodd" clip-rule="evenodd" d="M423.102 33.9029C423.102 38.2081 423.843 39.6914 425.676 43.1664H434.003C433.238 42.0193 429.915 39.9032 429.915 34.9659C429.915 29.2664 434.426 24.4874 439.606 24.4874C443.063 24.4874 445.266 25.2152 447.441 27.4104C448.277 28.254 448.946 29.0871 449.49 30.2155C450.981 33.3097 450.832 36.9133 449.194 39.8752C448.06 41.9255 446.841 42.5342 446.419 43.1664H454.746C456.915 39.0551 457.32 38.3121 457.32 33.4472C457.32 31.2754 456.356 28.4612 455.552 27.0202C454.165 24.5345 454.018 24.8531 452.995 23.5108C451.959 22.1524 448.824 19.9973 446.894 19.3029C445.925 18.9539 444.903 18.5967 443.734 18.3722C439.931 17.6421 436.882 17.9853 433.331 19.4093C431.538 20.1286 429.596 21.3745 428.363 22.6264C426.837 24.175 425.855 25.1886 424.817 27.271C423.931 29.0491 423.102 31.3173 423.102 33.9029V33.9029Z" fill="white"/>
<path fill-rule="evenodd" clip-rule="evenodd" d="M409.627 97.9885H403.571V93.4327H409.778C413.857 93.4327 413.492 97.9885 409.627 97.9885ZM408.718 88.725H403.571V84.0173H409.021C412.906 84.0173 412.567 88.725 408.718 88.725ZM397.363 79.4614V103H410.99C420.001 103 420.946 92.2119 414.472 90.6992C415.209 90.0568 416.261 89.933 417.137 87.753C418.898 83.3675 415.669 79.0059 410.081 79.0059H397.817C397.468 79.0059 397.363 79.1115 397.363 79.4614H397.363Z" fill="white"/>
<path fill-rule="evenodd" clip-rule="evenodd" d="M447.63 103H453.687V90.0917C453.92 90.263 454.857 91.3672 455.113 91.698L456.526 93.318C456.886 93.6808 456.906 93.7799 457.214 94.1471C457.481 94.4661 457.693 94.6089 457.949 94.9288L460.766 98.1776C461.125 98.5404 461.145 98.6394 461.453 99.0066L464.307 102.219C464.533 102.51 464.733 103 465.194 103H469.736V79.0058H463.68V92.3696L452.897 79.7978C451.862 78.5739 452.328 79.0058 447.63 79.0058V103V103Z" fill="white"/>
<path fill-rule="evenodd" clip-rule="evenodd" d="M480.032 67.1607H476.55V54.1006C478.826 54.1006 481.433 53.8218 483.217 54.7026C489.696 57.9016 487.401 67.1607 480.032 67.1607ZM470.493 72.1721C470.493 72.522 470.599 72.6277 470.947 72.6277H480.638C485.556 72.6277 489.882 70.0874 491.996 65.7966C492.872 64.0192 492.931 62.8177 493.118 60.846C493.265 59.2954 492.725 57.0638 492.235 55.8325C491.636 54.3282 490.8 53.2879 489.76 52.2401C487.67 50.1347 484.426 48.6335 481.243 48.6335H470.493V72.1721V72.1721Z" fill="white"/>
<path fill-rule="evenodd" clip-rule="evenodd" d="M434.76 60.175H429.764V53.9487C433.316 53.9487 438.091 53.2011 438.091 57.2897C438.091 58.8895 436.316 60.175 434.76 60.175V60.175ZM423.708 72.1721C423.708 72.522 423.813 72.6277 424.162 72.6277H429.764V65.642H434.306C434.451 66.1875 435.02 66.8457 435.337 67.3417L438.697 72.6277H445.813C445.417 72.0344 440.333 64.5825 440.211 64.1235C441.009 63.9098 442.405 62.3483 442.878 61.6353C444.968 58.4861 444.626 53.5469 441.38 50.8021C440.089 49.7102 437.552 48.6335 435.215 48.6335H423.708V72.1721H423.708Z" fill="white"/>
<path fill-rule="evenodd" clip-rule="evenodd" d="M397.363 19.4761V42.7109C397.363 43.0608 397.468 43.1665 397.817 43.1665H403.116C403.465 43.1665 403.571 43.0608 403.571 42.7109V34.2066H413.109V43.1665H418.711C419.06 43.1665 419.166 43.0608 419.166 42.7109V19.4761C419.166 19.1261 419.06 19.0205 418.711 19.0205H413.109V28.7396H403.571V19.4761C403.571 19.1261 403.465 19.0205 403.116 19.0205H397.817C397.468 19.0205 397.363 19.1261 397.363 19.4761V19.4761Z" fill="white"/>
<path fill-rule="evenodd" clip-rule="evenodd" d="M473.824 103H479.88C479.88 96.9142 479.427 98.8185 481.416 96.3403C481.993 95.6219 482.558 95.0948 483.06 94.3439C483.715 94.7838 489.291 102.355 489.722 103H497.141C495.468 100.495 491.646 95.4666 489.763 92.9354L487.299 89.4843C487.432 89.3867 488.284 88.4407 488.466 88.2245L491.819 84.2987C492.033 84.032 492.176 83.9358 492.402 83.6681L493.529 82.3694C493.773 82.0638 493.768 82.0137 494.073 81.6997C494.544 81.2139 494.757 80.8878 495.21 80.4107L496.384 79.0059H489.116C488.971 79.5515 487.509 80.9262 486.932 81.6753L482.872 86.2587C482.343 86.8561 480.351 89.3201 479.88 89.6361V79.0059H473.824V103V103Z" fill="white"/>
<path fill-rule="evenodd" clip-rule="evenodd" d="M448.539 72.6277H466.708V67.3125H454.595V63.3641H464.739C465.088 63.3641 465.193 63.2585 465.193 62.9085V58.5046C465.193 58.1546 465.088 58.049 464.739 58.049H454.595V53.9487H466.253C466.602 53.9487 466.708 53.8431 466.708 53.4931V48.6335H448.539V72.6277V72.6277Z" fill="white"/>
<path fill-rule="evenodd" clip-rule="evenodd" d="M491.993 19.4761V43.1665H510.162V37.8513H498.049V33.7511H508.648V28.5878H498.049V24.3357H510.162V19.4761C510.162 19.1261 510.057 19.0205 509.708 19.0205H492.447C492.099 19.0205 491.993 19.1261 491.993 19.4761H491.993Z" fill="white"/>
<path fill-rule="evenodd" clip-rule="evenodd" d="M396 60.6304C396 64.5445 397.613 67.4775 399.595 69.4772C403.956 73.8768 411.785 74.4382 416.79 70.2451C418.098 69.1496 417.257 69.7953 418.068 68.9449C418.703 68.279 421.386 63.8195 420.074 63.8195C410.824 63.8195 415.743 63.5564 412.53 66.1239C409.196 68.788 402.208 67.1463 402.208 61.086C402.208 58.7561 402.38 57.3316 404.135 55.578C407.334 52.3815 413.212 53.8199 414.018 57.2895H420.528C419.939 54.7544 418.567 52.4122 416.85 50.9554C409.673 44.8631 396 48.8317 396 60.6304H396Z" fill="white"/>
<path fill-rule="evenodd" clip-rule="evenodd" d="M432.187 86.1434C432.323 86.7303 432.656 87.3705 432.887 88.0225L434.328 91.7407C434.568 92.3404 434.902 93.043 435.063 93.7364H429.158L431.883 86.5979C432.011 86.3446 432.023 86.3318 432.187 86.1434V86.1434ZM419.166 103H425.525C425.769 102.489 426.999 99.3821 427.039 98.8997H437.183C437.502 100.274 438.469 102.019 438.697 103H445.056C445.011 102.45 444.104 100.527 443.868 99.9395L438.845 87.9696C438.413 86.9886 438.046 86.0135 437.586 84.9802L435.063 78.854H429.158C429.077 79.8368 419.239 102.119 419.166 103H419.166Z" fill="white"/>
<path fill-rule="evenodd" clip-rule="evenodd" d="M505.317 53.645C505.317 53.9949 505.422 54.1006 505.771 54.1006H512.13V72.6277H518.187V54.1006H524.546C524.895 54.1006 525 53.9949 525 53.645V48.6335H505.317V53.645V53.645Z" fill="white"/>
<path fill-rule="evenodd" clip-rule="evenodd" d="M496.232 72.6277H502.289V48.6335H496.232V72.6277Z" fill="white"/>
<path fill-rule="evenodd" clip-rule="evenodd" d="M439.757 41.1923H440.969C442.938 41.1923 445.772 38.8291 445.814 36.9402H434.609C434.757 38.7241 437.245 41.1923 439.757 41.1923Z" fill="white"/>
</g>
<path d="M109.42 43.5513L110.472 40.2136L106.992 40.3217C106.698 40.3217 104.561 40.2615 102.488 38.7715C102.643 38.7865 102.797 38.8076 102.955 38.8076C105.089 38.8076 107.153 37.5336 107.98 35.7133L109.477 32.4236C107.601 32.4475 105.886 32.2132 105.886 32.2132C105.871 32.2103 104.519 32.0389 102.955 30.4558C101.834 29.3203 100.446 28.7195 98.9422 28.7195C98.2845 28.7195 97.6966 28.8365 97.1904 28.9957C97.2691 28.7284 97.3449 28.458 97.3874 28.1787C97.8662 25.0994 95.866 22.7501 95.866 22.753L93.2502 19.5415L91.6289 23.3148C91.6228 23.3268 91.2135 24.21 90.4801 24.6426C90.2588 23.5341 89.7162 22.2873 88.5555 21.0947C86.3672 18.8475 83.703 18.514 82.3089 18.514C81.6634 18.514 81.2027 18.5831 81.0904 18.6012L77.9323 19.217C78.1143 18.517 78.5022 17.3003 79.2114 16.2038L80.9542 13.5121L76.5683 14.0077L75.1712 11.0665L72.4676 12.4485L69.9672 10L67.4729 12.4485L64.7602 11.0665L63.366 14.0077L58.9834 13.5121L60.7292 16.2038C61.4384 17.3003 61.8263 18.514 62.0051 19.2141L58.9926 18.6253L58.8894 18.6072C58.7378 18.5831 58.2803 18.514 57.6316 18.514C56.2376 18.514 53.5734 18.8505 51.391 21.0947C50.2272 22.2844 49.6847 23.5341 49.4605 24.6426C48.7331 24.216 48.3268 23.3449 48.3268 23.3449L46.7024 19.5505L44.0442 22.783C43.72 23.2006 42.1168 25.4087 42.5531 28.1846C42.5986 28.461 42.6714 28.7315 42.7502 28.9988C42.2471 28.8396 41.659 28.7223 41.0013 28.7223C39.4981 28.7223 38.1099 29.3232 36.9855 30.4587C35.4275 32.0361 34.0818 32.2132 34.0941 32.2132C34.0941 32.2132 32.6725 32.4657 30.4721 32.4266L31.9603 35.7162C32.7877 37.5397 34.8548 38.8105 36.9855 38.8105C37.146 38.8105 37.3006 38.7896 37.4583 38.7745C35.3912 40.2647 33.2545 40.3248 32.9969 40.3276L29.4507 40.2136L30.5236 43.5483C31.0631 45.2667 32.8665 48.1147 36.3217 48.4211C35.9458 49.9834 35.1124 51.7319 33.2818 52.4858L30.6419 53.5643L32.0816 56.0487C32.8937 57.3886 34.8003 58.9569 37.5159 58.9569C38.1038 58.954 38.6705 58.8968 39.2162 58.7827C39.3556 59.3955 39.5313 60.0084 39.7374 60.6153C40.5467 63.0006 39.8495 64.6649 39.8406 64.683L38.5372 67.3897L41.4468 68.1497C41.4832 68.1619 42.3622 68.3992 43.4623 68.3992C43.9624 68.3992 44.4383 68.3481 44.887 68.2428C45.2263 68.1649 45.5507 68.0597 45.8628 67.9336C46.2386 68.6035 46.6963 69.2133 47.2299 69.7602C49.0937 71.6557 51.7336 72.6172 55.0797 72.6172H55.0918L57.4802 72.587L52.5459 74.6179L56.2921 76.4114C57.6528 77.0695 59.2684 77.8475 60.911 78.4422L60.4443 79.71L61.7355 80.293C61.8506 80.344 64.3328 81.4465 68.4609 81.6809C68.4609 81.6809 69.458 81.7259 70.0067 81.7259C70.5552 81.7259 71.5403 81.6778 71.5403 81.6778C75.641 81.4374 78.105 80.3469 78.2203 80.293L79.5144 79.7071L79.0416 78.4363C80.7329 77.8234 82.4059 77.0154 83.7091 76.3843L87.3855 74.6149L82.4665 72.5811L84.864 72.6111C88.213 72.6111 90.8559 71.6498 92.7168 69.751C93.2473 69.2074 93.7049 68.5974 94.0837 67.9275C94.396 68.0538 94.7233 68.1589 95.0628 68.2369C95.5082 68.3421 95.9841 68.3931 96.4842 68.3931C97.5662 68.3931 98.4543 68.1558 98.4785 68.1497L101.4 67.3837L100.127 64.728C100.097 64.6588 99.4 62.9975 100.209 60.6093C100.415 59.9993 100.588 59.3865 100.727 58.7766C101.276 58.8908 101.849 58.9508 102.44 58.9508C105.898 58.9508 107.556 56.5386 107.877 56.0157L109.302 53.5583L106.662 52.4828C104.828 51.7287 103.998 49.9773 103.625 48.418C107.032 48.1297 108.862 45.2817 109.42 43.5513ZM62.2356 20.3646L62.1991 20.3737L62.2294 20.3346L62.2356 20.3646Z" fill="white"/>
<path d="M69.9706 20.2173C67.176 20.2202 65.0816 21.1275 64.624 22.194L69.9706 24.2849L75.3171 22.194C74.8624 21.1275 72.7681 20.2202 69.9706 20.2173Z" fill="white"/>
<path d="M70.0252 75.5703H70.0192H69.9737H69.9223H69.9192C68.2249 75.5824 65.8941 75.2369 64.7696 74.9124L63.418 78.5384C64.309 78.8539 67.3278 79.4548 69.9737 79.4548C72.6135 79.4548 75.6353 78.8509 76.5234 78.5384L75.1748 74.9124C74.0471 75.2397 71.7194 75.5824 70.0252 75.5703Z" fill="white"/>
<path d="M80.2547 71.9653C79.2484 72.5302 77.0026 73.3774 75.6963 73.771L76.7934 76.7661C78.8151 76.2194 80.4821 75.5795 81.861 74.8945L79.5848 74.1434L80.2547 71.9653Z" fill="white"/>
<path d="M59.6902 71.9653L60.3631 74.1434L58.084 74.8945C59.4599 75.5795 61.1359 76.2194 63.1484 76.7661L64.2457 73.771C62.9454 73.3774 60.6965 72.5272 59.6902 71.9653Z" fill="white"/>
<path d="M69.9706 16.7505C72.077 16.7505 74.1441 17.2493 75.7323 18.1266C75.8778 17.6429 76.0808 17.057 76.3569 16.4443L75.7566 16.5162L75.1262 16.5824L74.8595 16.0146L74.0564 14.3322L72.5924 15.0893L72.0225 15.3777L71.5679 14.9331L69.9767 13.3708L68.3886 14.9331L67.9339 15.3777L67.364 15.0893L65.8912 14.3322L65.0971 16.0146L64.8243 16.5824L64.1938 16.5162L63.5938 16.4443C63.8697 17.0601 64.0696 17.6429 64.2181 18.1266C65.8093 17.2493 67.8703 16.7505 69.9706 16.7505Z" fill="white"/>
<path d="M102.131 36.1943C102.404 36.2874 102.683 36.3294 102.959 36.3294C104.15 36.3294 105.302 35.5663 105.699 34.6921C105.699 34.6921 103.513 34.5599 101.165 32.1956C100.416 31.4295 99.6249 31.2012 98.9459 31.2012C97.8912 31.2012 97.1001 31.7538 97.1001 31.7538C99.937 33.2501 100.516 35.6535 102.131 36.1943Z" fill="white"/>
<path d="M36.9835 36.3294C37.2592 36.3294 37.5381 36.2874 37.8048 36.1943C39.4264 35.6535 40.0083 33.2501 42.8451 31.7538C42.8451 31.7538 42.051 31.2012 41.0023 31.2012C40.3204 31.2012 39.5293 31.4295 38.7778 32.1956C36.4318 34.5599 34.2466 34.6921 34.2466 34.6921C34.6375 35.5663 35.7922 36.3294 36.9835 36.3294Z" fill="white"/>
<path d="M102.902 45.9606C102.95 45.9634 102.993 45.9634 103.044 45.9634C106.017 45.9634 107.027 42.8061 107.027 42.8061H106.969C106.423 42.8061 102.001 42.6799 98.8767 38.7413C96.8186 36.1517 95.1336 33.8745 91.8026 32.9793L91.4753 32.9221L91.4025 32.5918C91.3117 32.0869 91.6601 31.6153 92.4513 31.1047C97.046 28.1215 93.9274 24.3181 93.9274 24.3181C93.9274 24.3181 92.6151 27.3613 89.6779 27.3613C89.6084 27.3613 89.5326 27.3583 89.4598 27.3583C89.1264 27.3404 88.805 27.3283 88.4808 27.2593L87.9382 27.1541C87.9382 27.1541 88.7749 24.898 86.7562 22.8249C85.2347 21.2598 83.3829 20.9954 82.3131 20.9954C81.7736 20.9954 81.4311 21.0646 81.4311 21.0646C82.4463 22.3804 83.1798 24.5615 82.0069 25.9072C80.9946 27.064 78.5215 27.121 78.5215 28.8454C78.5215 29.5754 79.2094 30.4287 80.4461 31.1947C84.1648 33.517 87.8565 36.5964 89.3901 40.7241C91.3087 45.8734 89.1476 49.2892 86.0622 51.248C86.0622 51.248 87.0292 52.1311 88.4323 52.2424C88.7173 52.2694 88.9961 52.2814 89.2568 52.2814C92.2179 52.2814 93.7485 50.9055 93.7485 50.9055C93.7485 50.9055 93.4969 52.8071 91.9542 54.5737C90.5328 56.2048 88.6658 57.1633 85.8198 57.2053C85.8198 57.2053 85.7288 58.5152 86.9896 59.6477C87.7959 60.3628 89.6599 60.5971 89.6599 60.5971C89.6599 60.5971 86.1713 61.297 85.7864 66.4044C85.5772 69.1712 84.865 70.1324 84.865 70.1324H84.9286C93.0241 70.1324 92.8149 63.2499 92.8149 63.2499C92.8149 63.2499 93.3786 65.2867 95.6368 65.8184C95.9094 65.8906 96.2004 65.9176 96.4793 65.9176C97.2067 65.9176 97.8372 65.7493 97.8372 65.7493C97.8372 65.7493 96.655 63.2769 97.8279 59.819C98.8009 56.95 98.6432 54.8229 98.6432 54.8229C98.6432 54.8229 99.7345 56.4572 102.438 56.4723H102.465C104.717 56.4723 105.699 54.7809 105.699 54.7809C100.301 52.5608 100.835 45.3928 100.835 45.3928C100.835 45.3928 101.535 45.9095 102.902 45.9606ZM101.277 53.4469C99.0827 52.3746 97.6947 49.5265 97.3581 48.4991C96.9946 54.147 94.2122 58.0675 90.9601 61.8409C89.272 63.7966 88.6838 65.6982 88.6838 65.6982C88.6838 65.6982 89.0083 63.5443 90.469 61.7897C93.5031 58.1757 96.3852 53.6784 96.6005 48.478C96.749 44.8489 95.8064 41.9049 94.3364 39.4804C95.1578 42.0069 95.0427 45.1014 92.2513 47.9883C92.2513 47.9883 97.8068 41.3881 90.0388 34.6226C86.9291 32.0479 83.5284 30.4588 81.7767 29.332C88.105 31.378 91.1935 29.1248 91.1935 29.1248C89.1719 30.8613 86.5563 30.8313 84.9348 30.5819C85.3742 30.7953 85.8318 31.0175 86.3259 31.2789C91.6601 34.1509 96.455 38.8765 97.2732 45.4228V45.3717C98.516 51.7977 101.277 53.4469 101.277 53.4469Z" fill="white"/>
<path d="M50.2825 60.5971C50.2825 60.5971 52.1463 60.3657 52.9526 59.6477C54.2103 58.5152 54.1226 57.2053 54.1226 57.2053C51.2734 57.1664 49.4096 56.2048 47.9789 54.5767C46.4485 52.8102 46.1938 50.9084 46.1938 50.9084C46.1938 50.9084 47.7243 52.2844 50.6824 52.2844C50.9493 52.2844 51.225 52.2724 51.5099 52.2453C52.9132 52.1342 53.883 51.2509 53.883 51.2509C50.7977 49.2923 48.6336 45.8734 50.5492 40.7241C52.0859 36.5994 55.7744 33.517 59.4931 31.1947C60.7298 30.4287 61.4177 29.5784 61.4177 28.8454C61.4177 27.121 58.9477 27.064 57.9354 25.9072C56.7624 24.5615 57.4989 22.3773 58.5111 21.0646C58.5111 21.0646 58.1747 20.9954 57.6321 20.9954C56.5654 20.9954 54.7134 21.2598 53.1921 22.8249C51.1674 24.898 52.0069 27.1541 52.0069 27.1541L51.4645 27.2593C51.1402 27.3283 50.8158 27.3404 50.4854 27.3583C50.4098 27.3583 50.3429 27.3613 50.2703 27.3613C47.3273 27.3613 46.0209 24.3211 46.0209 24.3211C46.0209 24.3211 42.9021 28.1243 47.4941 31.1075C48.285 31.6183 48.6305 32.09 48.5397 32.5948L48.4669 32.9252L48.1335 32.9823C44.8087 33.8775 43.1206 36.1549 41.0626 38.7445C37.9437 42.6769 33.5278 42.8061 32.9762 42.8061H32.9155C32.9155 42.8061 33.9248 45.9634 36.8981 45.9634C36.9465 45.9634 36.989 45.9634 37.0405 45.9606C38.4076 45.9123 39.1107 45.3928 39.1107 45.3928C39.1107 45.3928 39.638 52.5578 34.2461 54.7809C34.2461 54.7809 35.2282 56.4723 37.48 56.4723H37.5073C40.2138 56.4572 41.302 54.8229 41.302 54.8229C41.302 54.8229 41.1443 56.95 42.1141 59.819C43.2872 63.2769 42.1113 65.7493 42.1113 65.7493C42.1113 65.7493 42.7416 65.9176 43.466 65.9176C43.7478 65.9176 44.0359 65.8906 44.3056 65.8184C46.5604 65.2867 47.1273 63.2499 47.1273 63.2499C47.1273 63.2499 46.9211 70.1324 55.0166 70.1324H55.0742C55.0742 70.1324 54.365 69.1712 54.1589 66.4044C53.7709 61.297 50.2825 60.5971 50.2825 60.5971ZM48.9822 61.8409C45.73 58.0675 42.9508 54.147 42.5839 48.4991C42.2477 49.5234 40.8654 52.3746 38.6713 53.4469C38.6713 53.4469 41.4293 51.7977 42.6688 45.3717V45.4228C43.4903 38.8796 48.2821 34.1509 53.6194 31.2789C54.1074 31.0144 54.5709 30.7922 55.0075 30.5819C53.3859 30.8313 50.7704 30.8613 48.7489 29.1248C48.7489 29.1248 51.8373 31.378 58.1625 29.332C56.4108 30.4588 53.0132 32.0479 49.9035 34.6226C42.1324 41.3881 47.6911 47.9883 47.6911 47.9883C44.8966 45.0983 44.7844 42.0069 45.6058 39.4804C44.1328 41.9077 43.1931 44.8489 43.3448 48.478C43.5569 53.6784 46.4392 58.1757 49.4672 61.7897C50.9309 63.5413 51.2614 65.6982 51.2614 65.6982C51.2614 65.6982 50.6672 63.7966 48.9822 61.8409Z" fill="white"/>
<path d="M63.9854 35.4337C64.1187 35.5748 64.249 35.7281 64.3733 35.8814C64.4037 35.9175 64.4309 35.9505 64.461 35.9925C64.5763 36.1458 64.6946 36.308 64.8066 36.4733C64.8309 36.5062 64.8552 36.5453 64.8824 36.5844C65.0188 36.7886 65.1461 36.9989 65.2734 37.2152C66.4404 39.2132 68.3104 40.4057 69.9683 40.4089C71.6291 40.4057 73.4931 39.2132 74.6661 37.2152C74.7964 36.993 74.9267 36.7767 75.063 36.5753C75.0843 36.5453 75.1055 36.5183 75.1237 36.4881C75.2389 36.317 75.3601 36.1487 75.4874 35.9865C75.5147 35.9505 75.5389 35.9204 75.5631 35.8904C75.6935 35.7312 75.8268 35.5748 75.9632 35.4307C75.9876 35.4067 76.0056 35.3857 76.0269 35.3676C76.6209 34.7639 77.3303 34.3042 78.2577 34.0488L77.8455 33.8115H77.8211L76.1785 32.865L74.4904 31.9067L69.9803 34.3401L69.9683 34.3312L69.9592 34.3401L65.4462 31.9067L63.761 32.8621L62.1153 33.8085H62.0971L61.6787 34.0457C62.6092 34.3012 63.3155 34.7548 63.9126 35.3587C63.9398 35.3828 63.958 35.4098 63.9854 35.4337ZM68.1437 35.2384H70.0531H71.9594V36.5363C71.5109 35.9925 70.638 36.1037 70.638 36.1037V37.9754C70.638 37.9754 70.6714 38.8946 70.9957 39.2943H70.0531H69.1074C69.4377 38.8976 69.4681 37.9754 69.4681 37.9754V36.1037C69.4681 36.1037 68.5983 35.9925 68.1437 36.5363V35.2384Z" fill="white"/>
<path d="M69.58 32.7209V25.1233L64.7002 23.4829L65.9884 30.8465L69.58 32.7209ZM68.5312 26.989V28.2086L68.2949 28.1005C68.2827 28.0915 67.9371 28.0133 67.3311 27.5387C66.3307 26.7696 66.3127 26.0607 66.3127 26.0607L68.5312 26.989Z" fill="white"/>
<path d="M73.9567 30.8465L75.2389 23.4829L70.3623 25.1233V32.7209L73.9567 30.8465ZM71.4109 26.989L73.6294 26.0637C73.6294 26.0637 73.6113 26.7726 72.6081 27.5417C72.0049 28.0164 71.6563 28.0944 71.6442 28.1036L71.4078 28.2117V26.989H71.4109Z" fill="white"/>
<path d="M62.6788 50.3347C63.1546 50.506 63.7305 50.5422 64.0246 50.5422C64.0367 50.506 64.0519 50.461 64.0671 50.4069C64.0943 50.3197 64.1184 50.2357 64.1368 50.1396C64.2185 49.7189 64.2489 49.2413 64.2548 48.9348C64.0549 48.8116 63.773 48.5923 63.6153 48.2648C63.4335 47.8864 63.1759 47.7122 62.7969 47.7122C62.3061 47.7122 61.7787 48.0036 61.5545 48.1417C61.3756 49.1902 62.1545 50.1425 62.6788 50.3347Z" fill="white"/>
<path d="M73.4723 46.3027C72.566 47.279 70.793 48.9795 70.705 49.0666L70.599 49.1747L64.995 49.0875C64.9918 49.6375 64.901 50.1061 64.813 50.4485C64.798 50.5057 64.7828 50.5658 64.7676 50.6258L71.4354 51.8126C72.1296 51.3316 74.039 49.9497 74.7785 49.4091C74.239 48.628 74.1876 47.7028 74.3088 47.0507C73.9571 46.8254 73.6874 46.5732 73.4723 46.3027Z" fill="white"/>
<path d="M74.2319 39.6219C72.9407 40.8929 71.7011 41.3615 70.5949 41.4697C70.3949 41.4906 70.1918 41.5026 69.9857 41.5026H69.9705H69.9583C69.7522 41.5026 69.5461 41.4906 69.3461 41.4697C69.1521 41.4517 68.9492 41.4215 68.7459 41.3765C68.6732 41.662 68.5823 42.2598 68.8431 42.8245C69.0765 43.3383 69.5522 43.7197 70.2463 43.9722L70.4796 44.0624L70.4827 44.3116C70.4827 44.3868 70.5372 46.0029 72.3164 46.4506C72.6073 46.1532 72.871 45.8859 73.0651 45.6637C72.7013 44.8165 72.8922 43.9511 73.4196 43.5277C73.3953 43.6177 73.1651 45.7387 74.8805 46.5257L75.1622 46.6581L75.0775 46.9553C75.0503 47.0456 74.4774 49.0974 76.5534 49.8604L76.9204 49.9987L76.7566 50.3532C76.7202 50.4313 75.905 52.2939 77.8233 53.3513H81.9848V50.0768C80.5058 49.8966 79.8784 48.7188 79.7178 47.8836C79.0296 47.7666 78.4964 47.4722 78.1326 46.9914C77.2597 45.8529 78.0114 44.8104 78.0205 44.7532C78.0173 44.7624 78.0205 45.8739 78.7114 46.5589C79.054 46.8892 79.4601 47.1445 80.0754 47.2017L80.3784 47.2287L80.4058 47.5352C80.4119 47.6012 80.5785 49.1035 81.9879 49.3407L81.9848 42.6534C81.9848 41.6168 82.2909 40.5743 82.6577 39.613H74.2319V39.6219Z" fill="white"/>
<path d="M63.0335 42.6854L62.9214 46.9454L63.4093 47.0176L64.6034 42.9318L63.9972 41.676L63.0335 42.6854Z" fill="white"/>
<path d="M76.199 62.2225C76.2355 62.2225 76.2779 62.2285 76.3174 62.2375C77.0598 62.4478 77.2479 65.1034 78.5511 65.3409C78.6783 65.3679 78.7965 65.3739 78.8995 65.3739C79.2754 65.3739 79.4996 65.2147 79.7422 64.9323C79.7422 64.9323 79.0875 63.9109 78.5965 63.2229C77.9448 62.3216 77.4388 61.2311 76.2263 61.2311C76.199 61.2311 76.1627 61.2311 76.1324 61.2341C75.7323 61.2552 75.4869 61.4475 75.4869 61.4475C74.9959 61.1409 74.5381 61.0358 74.123 61.0358C73.3622 61.0358 72.7712 61.3813 72.4773 61.3813H72.4651L69.7554 61.1169C69.3312 61.0778 68.9978 60.6544 68.8766 60.489C68.8462 60.4439 68.831 60.4169 68.831 60.4169C68.831 60.3448 68.831 60.2697 68.8251 60.2036C68.7341 58.0076 67.0187 57.0672 66.4094 57.0522C66.4094 57.0522 66.4822 56.6347 66.3156 56.4755L65.7185 57.1933L63.7574 56.217L65.1546 57.8363L63.9696 59.1551C63.8211 59.3054 63.8393 59.5096 63.8999 59.5937L64.4121 60.0414L65.0606 59.6507C65.0941 59.6268 65.1517 59.6207 65.2243 59.6207C65.4031 59.6207 65.6729 59.6659 65.9153 59.6659C66.179 59.6659 66.4094 59.6087 66.4368 59.3624C66.3549 60.1765 65.5941 61.5916 66.0943 62.7032L66.464 63.5413L64.0696 63.1988L62.9482 65.0764C62.6028 65.7014 62.548 66.3773 62.8814 66.7438L63.2998 67.2636C63.2998 67.2636 63.8878 66.6447 64.0211 66.2392L63.8302 66.0319C63.6695 65.8575 63.6786 65.7014 63.7757 65.5122L64.4787 64.3554L67.3065 65.0164L67.455 64.7642C67.646 64.4485 67.9218 64.3524 68.225 64.3524C68.3492 64.3524 68.4765 64.3674 68.6098 64.3885C69.1342 64.4907 69.998 64.6289 70.8618 64.6289C71.8105 64.6289 72.7499 64.4606 73.2501 63.9049C74.2744 65.41 76.3506 65.6503 76.1869 66.4134L75.6415 68.991C76.0022 68.976 76.3506 68.952 76.681 68.9068L77.1992 66.2241C77.2568 65.9328 77.3115 65.5392 77.3115 65.5392C77.1115 65.3379 76.6265 64.9114 76.3536 64.3945C75.987 63.6976 76.1869 63.334 75.8445 62.4268C75.8567 62.4327 75.9597 62.2225 76.199 62.2225ZM65.6214 58.4551C65.482 58.4521 65.3819 58.3349 65.388 58.1968C65.4003 58.0646 65.5124 57.9594 65.6488 57.9715C65.7882 57.9776 65.8881 58.0977 65.8821 58.2299C65.8699 58.362 65.7548 58.4643 65.6214 58.4551Z" fill="white"/>
<path d="M61.761 64.6617C61.761 64.6617 62.6976 64.2802 62.7825 64.0067L62.6583 63.6973C62.5703 63.4961 62.5825 63.2768 62.7522 63.1565L63.7645 62.4626L65.4558 62.784C65.4558 62.784 65.1496 62.4056 65.18 61.8977L63.5675 61.5583L62.046 62.4776C61.3944 62.9614 61.3458 63.7514 61.561 64.22L61.761 64.6617Z" fill="white"/>
<path d="M73.7144 69.0298C74.0174 69.0179 74.3508 69.0118 74.7177 69.0118C74.7177 69.0118 75.5874 66.4913 75.636 66.4102C75.148 66.1969 74.1358 65.6652 73.7447 65.4219C74.0025 65.8033 74.6297 66.2421 74.5055 66.5785L73.7144 69.0298Z" fill="white"/>
<path d="M81.9945 54.0811H57.9507V63.0457C57.9507 66.7108 60.627 69.006 64.5762 69.006C67.8768 69.006 68.7466 69.1323 69.9742 70.34C70.8197 69.5048 71.52 69.1924 72.9564 69.0751L72.9899 68.9371L73.7476 66.6147C73.7051 66.5636 72.4657 65.1667 72.4657 65.1667C71.9746 65.3289 71.5624 65.3559 70.8684 65.3559C70.156 65.3559 69.3528 65.2748 68.483 65.1126C68.395 65.0917 68.3133 65.0856 68.2314 65.0856C68.1254 65.0856 68.1161 65.0947 68.0889 65.1458L67.9373 65.392L67.6615 65.8427L67.1433 65.7255L64.8368 65.1878L64.5217 65.7044L64.5701 65.7584L64.852 66.0649L64.7278 66.4645C64.558 66.9874 64.0064 67.5971 63.8397 67.7654L63.2639 68.3782L62.7395 67.7202L62.3455 67.2307C61.9303 66.771 61.8332 66.0649 62.0667 65.3259C62.0605 65.332 62.0515 65.335 62.0424 65.335L61.3908 65.6023L61.0968 64.9715L60.8907 64.5237C60.536 63.7368 60.6664 62.586 61.621 61.8921L63.4791 60.8525L65.2461 61.1981C65.2886 61.0299 65.3522 60.4291 65.4035 60.2758C65.3703 60.2729 65.337 60.2637 65.3036 60.2637L64.2853 60.6392L63.3032 59.9664C63.3032 59.9664 62.9185 59.6 63.2667 59.2334L64.2185 57.8063L61.8091 54.8081L65.5127 56.3163L65.7582 56.0128L66.2584 55.4211L66.8251 55.9558C66.9858 56.1089 67.0766 56.2982 67.122 56.4874C68.1434 56.881 69.9712 58.0437 70.1317 59.9334L69.5589 60.1617V60.1767C69.6893 60.3298 69.7983 60.3931 69.8318 60.3989L72.4746 60.6573C72.5413 60.6453 72.6262 60.6153 72.7201 60.5883C73.0476 60.477 73.5415 60.3178 74.1265 60.3178C74.6023 60.3178 75.063 60.4261 75.5054 60.6303C75.669 60.5702 75.8692 60.5252 76.0995 60.5102L76.2268 60.5072C77.6422 60.5072 78.3453 61.5556 78.9092 62.3908C79.0032 62.5349 79.097 62.6732 79.1941 62.8083C79.688 63.4993 80.3337 64.5118 80.3609 64.5539L80.6519 65.0044L80.2943 65.4161C80.0186 65.7314 79.6063 66.1011 78.897 66.1011C78.7515 66.1011 78.591 66.0859 78.4181 66.053C78.2666 66.0258 78.1303 65.9809 77.9967 65.9269C77.9756 66.0649 77.9483 66.2302 77.9211 66.3714L77.4573 68.7687C80.2306 68.0927 81.9916 66.0169 81.9916 63.0487L81.9945 54.0811Z" fill="#5C5C5C"/>
<path d="M57.951 53.3601H76.6484C75.7148 52.4049 75.727 51.1943 75.9664 50.4071C75.6936 50.2779 75.4694 50.1217 75.2694 49.9535C74.5389 50.4882 72.3081 52.0984 71.7262 52.501L71.602 52.5851L64.2643 51.2693H64.1156C63.9399 51.2693 63.6823 51.2633 63.4005 51.2302C63.3217 51.5577 63.0367 51.7831 62.7094 51.7831C62.6731 51.7831 62.6306 51.7801 62.5912 51.771C62.4003 51.7379 62.2335 51.6418 62.1214 51.4826C62.0063 51.3265 61.9608 51.1402 61.9942 50.9479L62.0214 50.7916C61.2637 50.2629 60.5666 49.0822 60.8758 47.8384L60.906 47.7062L61.012 47.6312C61.0272 47.6192 61.1545 47.5351 61.3426 47.4268L60.8091 47.3457C60.6091 47.3098 60.4757 47.1264 60.506 46.9312C60.5394 46.7329 60.7273 46.5917 60.9243 46.6307L62.1942 46.8291L62.3094 42.3948L64.2005 40.4119L65.3796 42.8725L64.134 47.1385L65.2554 47.3128C65.4524 47.3428 65.5888 47.526 65.5584 47.7273C65.5282 47.9047 65.3766 48.0276 65.1977 48.0276C65.1796 48.0276 65.1583 48.0276 65.1403 48.0248L64.2278 47.8776C64.24 47.9047 64.2581 47.9195 64.2702 47.9497C64.3673 48.1478 64.5825 48.2922 64.7099 48.3522L70.3047 48.4394C70.5412 48.2111 71.1291 47.6401 71.7323 47.0363C70.3563 46.5196 69.8562 45.3419 69.7712 44.5608C69.0015 44.2364 68.4711 43.7497 68.177 43.1158C67.8194 42.3317 67.9468 41.5476 68.0406 41.166C67.2951 40.8957 66.5102 40.403 65.71 39.616H57.2842C57.6448 40.5772 57.951 41.6196 57.951 42.6562V53.3601Z" fill="#5C5C5C"/>
<path d="M65.6518 57.9717C65.5154 57.9595 65.4001 58.0648 65.3912 58.1968C65.382 58.3351 65.485 58.4522 65.6245 58.4553C65.7578 58.4672 65.876 58.365 65.8881 58.2298C65.8881 58.0976 65.7912 57.9745 65.6518 57.9717Z" fill="black"/>
<path d="M81.9609 74.227L80.5758 73.7013L80.9575 72.2833L81.3789 70.7361C81.3789 70.7361 78.9239 72.055 75.4658 73.0463C74.4836 73.3258 73.7412 73.4519 73.7412 73.4519V74.5034C73.7412 74.5034 71.8922 74.8218 70.0223 74.8218H70.0011H69.9739H69.9374H69.9162C68.0461 74.8218 66.1973 74.5034 66.1973 74.5034V73.4519C66.1973 73.4519 65.4518 73.3258 64.4729 73.0463C61.0145 72.055 58.5625 70.7361 58.5625 70.7361L58.9778 72.2833L59.3688 73.7013L57.9806 74.227L56.4409 74.7979C58.208 75.642 60.6539 76.8738 62.8937 77.4805L62.3664 78.9107C62.3664 78.9107 65.2062 80.1934 69.9374 80.2054V80.2084H69.9526H69.9739H69.992H70.0042V80.2054C74.7414 80.1934 77.5781 78.9107 77.5781 78.9107L77.0477 77.4805C79.2877 76.8738 81.7396 75.642 83.4976 74.7979L81.9609 74.227ZM58.0838 74.894L60.3629 74.1429L59.6902 71.9649C60.6933 72.5297 62.9452 73.3769 64.2485 73.7704L63.1482 76.7655C61.1359 76.2158 59.4598 75.5759 58.0838 74.894ZM69.9739 79.4543C67.328 79.4543 64.3061 78.8505 63.418 78.5382L64.7698 74.912C65.8912 75.2364 68.225 75.582 69.9192 75.57H69.9223H69.9739H70.0193H70.0254C71.7196 75.582 74.0473 75.2364 75.1748 74.912L76.5235 78.5382C75.6354 78.8535 72.6166 79.4543 69.9739 79.4543ZM76.7933 76.7655L75.6961 73.7704C77.0025 73.3769 79.2483 72.5297 80.2544 71.9649L79.5846 74.1429L81.8608 74.894C80.4818 75.5759 78.8148 76.2158 76.7933 76.7655Z" fill="black"/>
<path d="M69.9707 17.628C72.7895 17.628 75.0445 18.5533 76.2901 19.5417C76.2901 19.5417 76.6598 17.3336 77.9237 15.3839L75.6537 15.6392L74.4655 13.1367L72.1833 14.3024L69.9707 12.1333L67.7642 14.3024L65.479 13.1367L64.294 15.6392L62.0239 15.3839C63.2877 17.3336 63.6576 19.5417 63.6576 19.5417C64.9063 18.5533 67.155 17.628 69.9707 17.628ZM64.1909 16.5165L64.8214 16.5826L65.0941 16.0147L65.8883 14.3323L67.3611 15.0864L67.931 15.3749L68.3857 14.9302L69.9738 13.368L71.565 14.9302L72.0196 15.3749L72.5893 15.0864L74.0532 14.3323L74.8566 16.0147L75.1233 16.5826L75.7537 16.5165L76.3537 16.4444C76.0779 17.0602 75.8749 17.643 75.7295 18.1267C74.1412 17.2494 72.0741 16.7508 69.9677 16.7508C67.8704 16.7508 65.8064 17.2494 64.2122 18.1267C64.0636 17.643 63.8637 17.0573 63.5879 16.4444L64.1909 16.5165Z" fill="black"/>
<path d="M103.041 46.9277C106.687 46.9277 107.905 43.2506 107.957 43.0943L108.363 41.7996L106.996 41.8416H106.99C106.508 41.8416 102.486 41.7364 99.6341 38.1434L99.3644 37.8099C97.5004 35.4606 95.7335 33.2285 92.5754 32.2101C92.6662 32.129 92.7967 32.0268 92.9755 31.9126C94.6514 30.8191 95.6275 29.4912 95.8729 27.9501C96.2306 25.6307 94.7394 23.7831 94.6727 23.708L93.6573 22.4643L93.024 23.9394C92.9816 24.0325 91.9147 26.3939 89.6717 26.3939H89.5051C89.3506 26.3847 89.2051 26.3788 89.0596 26.3669C89.1384 25.3124 88.9443 23.681 87.4534 22.1519C85.662 20.3103 83.4617 20.0339 82.3099 20.0339C81.6946 20.0339 81.2854 20.109 81.243 20.115L79.7092 20.4154L80.6549 21.6502C81.3977 22.6026 82.0704 24.36 81.2733 25.2794C81.0187 25.5707 80.4944 25.808 79.9913 26.0454C78.9577 26.5169 77.5483 27.1719 77.5483 28.8422C77.5483 29.9238 78.394 31.0535 79.9277 32.0147C84.4678 34.8448 87.2684 37.7979 88.4777 41.0575C90.3478 46.0716 87.9078 48.9315 85.5377 50.4367L84.4739 51.1155L85.4043 51.9627C85.5286 52.071 86.6682 53.0654 88.3504 53.2096C88.6686 53.2305 88.9747 53.2487 89.2596 53.2487C90.3385 53.2487 91.257 53.0804 92.0026 52.8551C91.7965 53.2126 91.5448 53.576 91.2266 53.9426C89.8719 55.4987 88.2049 56.2077 85.8074 56.2439L84.9165 56.2589L84.8468 57.1452C84.8375 57.3222 84.7708 58.9657 86.3409 60.3626C86.5803 60.5789 86.8713 60.7562 87.1745 60.9034C86.1105 61.8527 85.0286 63.5051 84.8195 66.338C84.6435 68.7022 84.074 69.5765 84.0677 69.5857L83.0827 71.0757L84.862 71.0997C87.8016 71.0997 90.0537 70.2946 91.6145 68.7023C92.5359 67.7591 93.0634 66.6956 93.3755 65.7522C93.8877 66.1848 94.5485 66.5634 95.4092 66.7647C95.7366 66.8397 96.0942 66.8819 96.4791 66.8819C97.3095 66.8819 98.0036 66.7075 98.0824 66.6895L99.2189 66.389L98.7159 65.3376C98.6795 65.2535 97.7309 63.1446 98.7523 60.1343C99.1917 58.8335 99.416 57.6679 99.5251 56.7605C100.24 57.1302 101.198 57.4364 102.438 57.4396C105.25 57.4396 106.49 55.3576 106.548 55.2704L107.102 54.3151L106.075 53.8946C102.723 52.5155 101.98 48.8113 101.832 46.8046C102.135 46.8616 102.48 46.9157 102.871 46.9277H103.041ZM105.699 54.7809C105.699 54.7809 104.717 56.4722 102.465 56.4722H102.438C99.7342 56.4572 98.6431 54.8228 98.6431 54.8228C98.6431 54.8228 98.8008 56.9499 97.8248 59.8189C96.652 63.2766 97.8338 65.7492 97.8338 65.7492C97.8338 65.7492 97.2035 65.9175 96.476 65.9175C96.1974 65.9175 95.9064 65.8904 95.6335 65.8183C93.3755 65.2867 92.8119 63.2496 92.8119 63.2496C92.8119 63.2496 93.0209 70.1324 84.9255 70.1324H84.862C84.862 70.1324 85.574 69.171 85.7862 66.4041C86.1711 61.297 89.6597 60.597 89.6597 60.597C89.6597 60.597 87.7988 60.3656 86.9925 59.6476C85.7317 58.5151 85.8196 57.2052 85.8196 57.2052C88.6686 57.1661 90.5326 56.2048 91.954 54.5734C93.4938 52.8069 93.7483 50.9053 93.7483 50.9053C93.7483 50.9053 92.2177 52.2813 89.2564 52.2813C88.9959 52.2813 88.717 52.2693 88.4323 52.2422C87.032 52.1311 86.0621 51.2478 86.0621 51.2478C89.1445 49.289 91.3084 45.8703 89.39 40.7209C87.8533 36.5961 84.1617 33.5139 80.4459 31.1914C79.2094 30.4256 78.5213 29.5753 78.5213 28.8422C78.5213 27.1179 80.9945 27.0638 82.0097 25.9041C83.1798 24.5583 82.4463 22.3741 81.4309 21.0614C81.4309 21.0614 81.7734 20.9922 82.313 20.9922C83.3827 20.9922 85.2347 21.2596 86.7562 22.8217C88.7777 24.8947 87.9382 27.1509 87.9382 27.1509L88.4807 27.256C88.805 27.3251 89.1263 27.3371 89.4597 27.3521C89.5325 27.3521 89.605 27.3552 89.6778 27.3552C92.6147 27.3552 93.927 24.312 93.927 24.312C93.927 24.312 97.049 28.1182 92.4542 31.0983C91.6631 31.6091 91.3146 32.0808 91.4054 32.5855L91.4781 32.916L91.8054 32.9731C95.1364 33.8682 96.8217 36.1456 98.8796 38.7353C102.004 42.6738 106.426 42.7999 106.972 42.7999H107.03C107.03 42.7999 106.02 45.9574 103.047 45.9574C102.998 45.9574 102.956 45.9574 102.904 45.9544C101.538 45.9063 100.838 45.3866 100.838 45.3866C100.838 45.3866 100.301 52.5576 105.699 54.7809Z" fill="black"/>
<path d="M96.6365 32.607C97.9973 33.3251 98.7885 34.2864 99.4825 35.1396C100.164 35.9718 100.813 36.7738 101.825 37.1073C102.186 37.2306 102.568 37.2876 102.956 37.2876C104.478 37.2876 106.005 36.3652 106.584 35.0885L107.166 33.8087L105.756 33.7245C105.69 33.7216 103.877 33.5594 101.859 31.5135C101.028 30.6754 100.025 30.2336 98.943 30.2336C97.6215 30.2336 96.6426 30.8887 96.5336 30.9546L95.2363 31.859L96.6365 32.607ZM98.9461 31.201C99.625 31.201 100.416 31.4295 101.165 32.1954C103.514 34.5599 105.699 34.6919 105.699 34.6919C105.302 35.5632 104.15 36.3293 102.959 36.3293C102.683 36.3293 102.407 36.2871 102.132 36.194C100.516 35.6532 99.9371 33.2498 97.0972 31.7538C97.0972 31.7538 97.8913 31.201 98.9461 31.201Z" fill="black"/>
<path d="M97.2731 45.3719V45.4199C96.4548 38.8767 91.6599 34.1511 86.3257 31.276C85.8315 31.0146 85.3769 30.7924 84.9345 30.5791C86.559 30.8284 89.1746 30.8585 91.1931 29.1221C91.1931 29.1221 88.1047 31.3753 81.7764 29.3294C83.5281 30.4559 86.9318 32.0453 90.0385 34.6197C97.8064 41.3854 92.2478 47.9856 92.2478 47.9856C95.0393 45.0985 95.1544 42.0042 94.3331 39.4777C95.8031 41.902 96.7427 44.8461 96.597 48.4753C96.382 53.6756 93.4997 58.1729 90.4657 61.787C89.0079 63.5414 88.6807 65.6955 88.6807 65.6955C88.6807 65.6955 89.2685 63.7937 90.9567 61.838C94.2089 58.0648 96.9881 54.1442 97.3518 48.4962C97.6884 49.5208 99.0735 52.3718 101.271 53.4444C101.277 53.4473 98.5157 51.7979 97.2731 45.3719Z" fill="black"/>
<path d="M55.8743 69.5826C55.8711 69.5736 55.3075 68.6993 55.1257 66.335C54.9134 63.502 53.8344 61.8497 52.7677 60.9005C53.0768 60.7563 53.3616 60.5791 53.6011 60.3597C55.1682 58.9626 55.1014 57.3193 55.0924 57.1422L55.0318 56.256L54.1346 56.241C51.7432 56.2019 50.0732 55.4928 48.7183 53.9396C48.4032 53.5731 48.1486 53.2095 47.9424 52.8521C48.6881 53.0774 49.6004 53.2457 50.6824 53.2457C50.9734 53.2457 51.2734 53.2276 51.5916 53.2067C53.2738 53.0623 54.4135 52.071 54.5407 51.9598L55.4712 51.1125L54.4074 50.4338C52.0282 48.9256 49.5973 46.0655 51.4643 41.0544C52.6737 37.7949 55.4712 34.8419 60.0174 32.0118C61.551 31.0505 62.3906 29.9208 62.3906 28.8392C62.3906 27.169 60.9842 26.5112 59.9508 26.0424C59.4477 25.8051 58.9234 25.5677 58.6686 25.2764C57.8685 24.36 58.5444 22.5996 59.284 21.6472L60.2357 20.4125L58.696 20.1121C58.6506 20.1061 58.2475 20.031 57.6291 20.031C56.4775 20.031 54.2831 20.3073 52.4888 22.1489C50.9946 23.6812 50.7975 25.3124 50.8734 26.364C50.7278 26.3759 50.5825 26.3818 50.4309 26.391H50.2672C48.0183 26.391 46.9546 24.0296 46.9121 23.9365L46.2787 22.4614L45.2541 23.7051C45.1966 23.7802 43.6993 25.6308 44.063 27.9471C44.3055 29.4883 45.2815 30.8161 46.9575 31.9096C47.1393 32.0237 47.2667 32.126 47.3576 32.2071C44.2023 33.2256 42.4386 35.4607 40.5744 37.8099L40.3047 38.1434C37.4557 41.7365 33.4248 41.8416 32.9429 41.8416L31.5698 41.7996L31.9881 43.0943C32.0365 43.2506 33.2519 46.9277 36.9011 46.9277L37.0769 46.9216C37.4619 46.9097 37.8073 46.8587 38.1166 46.7987C37.965 48.8023 37.2224 52.5066 33.8672 53.8886L32.8428 54.3092L33.3975 55.2644C33.452 55.3516 34.6947 57.4335 37.5134 57.4335C38.7438 57.4305 39.7015 57.1241 40.4198 56.7547C40.529 57.6619 40.7532 58.8275 41.1928 60.1283C42.2142 63.1385 41.2627 65.2475 41.2262 65.3317L40.7232 66.3831L41.8626 66.6835C41.9384 66.7016 42.6385 66.8758 43.466 66.8758C43.8539 66.8758 44.2116 66.8338 44.5329 66.7586C45.3966 66.5574 46.0634 66.1789 46.5696 65.7463C46.8786 66.6896 47.4092 67.753 48.3275 68.6965C49.8914 70.2886 52.1403 71.0938 55.0802 71.0938L56.8624 71.0697L55.8743 69.5826ZM55.0134 70.1325C46.9181 70.1325 47.1243 63.2498 47.1243 63.2498C47.1243 63.2498 46.5604 65.2865 44.3024 65.8184C44.0327 65.8903 43.7448 65.9174 43.463 65.9174C42.7355 65.9174 42.1081 65.7492 42.1081 65.7492C42.1081 65.7492 43.2842 63.2768 42.1111 59.8189C41.1413 56.9499 41.2988 54.8228 41.2988 54.8228C41.2988 54.8228 40.2108 56.4572 37.5043 56.4721H37.477C35.225 56.4721 34.243 54.7808 34.243 54.7808C39.6379 52.5607 39.1075 45.3925 39.1075 45.3925C39.1075 45.3925 38.4075 45.9094 37.0375 45.9603C36.9891 45.9635 36.9435 45.9635 36.8951 45.9635C33.9188 45.9635 32.9125 42.806 32.9125 42.806H32.9731C33.5217 42.806 37.9377 42.6798 41.0625 38.7412C43.1204 36.1516 44.8087 33.8773 48.1336 32.9792L48.467 32.9221L48.5395 32.5917C48.6306 32.087 48.285 31.6152 47.494 31.1046C42.8991 28.1214 46.0209 24.318 46.0209 24.318C46.0209 24.318 47.3273 27.3582 50.2704 27.3582C50.3429 27.3582 50.4096 27.3553 50.4854 27.3553C50.8158 27.3371 51.1433 27.3253 51.4643 27.256L52.0069 27.1509C52.0069 27.1509 51.1674 24.8947 53.192 22.8219C54.7135 21.2566 56.5653 20.9923 57.6321 20.9923C58.1747 20.9923 58.5112 21.0614 58.5112 21.0614C57.4988 22.3772 56.7655 24.5583 57.9353 25.9043C58.9475 27.0609 61.4177 27.1179 61.4177 28.8423C61.4177 29.5724 60.7298 30.4255 59.4931 31.1916C55.7742 33.514 52.0827 36.5963 50.549 40.721C48.6336 45.8703 50.7947 49.2861 53.8831 51.2478C53.8831 51.2478 52.9131 52.1312 51.5099 52.2423C51.225 52.2693 50.9492 52.2812 50.6824 52.2812C47.7242 52.2812 46.1938 50.9053 46.1938 50.9053C46.1938 50.9053 46.4483 52.807 47.9789 54.5736C49.4095 56.2047 51.2734 57.1661 54.1225 57.2052C54.1225 57.2052 54.2134 58.5149 52.9526 59.6476C52.1433 60.3626 50.2824 60.5969 50.2824 60.5969C50.2824 60.5969 53.774 61.2969 54.1557 66.4041C54.365 69.171 55.0711 70.1325 55.0711 70.1325H55.0134Z" fill="black"/>
<path d="M36.983 37.2907C37.3739 37.2907 37.7558 37.2337 38.1166 37.1104C39.1348 36.777 39.7805 35.9748 40.4625 35.1427C41.1595 34.2895 41.9445 33.3281 43.3054 32.6101L44.7055 31.865L43.4054 30.9609C43.2963 30.8918 42.3204 30.2397 41.002 30.2397C39.9169 30.2397 38.9107 30.6785 38.0831 31.5196C36.0647 33.5625 34.2554 33.7278 34.1885 33.7308L32.7793 33.8117L33.3581 35.0946C33.94 36.3654 35.4645 37.2907 36.983 37.2907ZM38.7773 32.1986C39.529 31.4326 40.32 31.2041 41.002 31.2041C42.0506 31.2041 42.8448 31.7568 42.8448 31.7568C40.0077 33.2561 39.4258 35.6563 37.8044 36.1973C37.5377 36.2902 37.2588 36.3324 36.983 36.3324C35.7919 36.3324 34.6401 35.5693 34.2461 34.695C34.2461 34.6921 36.4283 34.5599 38.7773 32.1986Z" fill="black"/>
<path d="M43.3441 48.4782C43.1924 44.8491 44.1321 41.9049 45.605 39.4806C44.7838 42.0071 44.8959 45.1014 47.6904 47.9885C47.6904 47.9885 42.1318 41.3883 49.9028 34.6227C53.0126 32.0482 56.4131 30.4588 58.1618 29.3323C51.8366 31.3782 48.7482 29.125 48.7482 29.125C50.7666 30.8615 53.3823 30.8313 55.0068 30.579C54.5674 30.7922 54.1067 31.0147 53.6186 31.276C48.2783 34.1511 43.4865 38.8768 42.6653 45.4199V45.3688C41.4255 51.7949 38.6675 53.4442 38.6675 53.4442C40.8619 52.3716 42.2439 49.5237 42.5804 48.4962C42.947 54.1442 45.7263 58.0646 48.9784 61.838C50.6666 63.7938 51.2607 65.6953 51.2607 65.6953C51.2607 65.6953 50.9303 63.5415 49.4664 61.7869C46.4385 58.1788 43.5562 53.6785 43.3441 48.4782Z" fill="black"/>
<path d="M68.1436 35.2388V36.5366C68.5953 35.9927 69.4682 36.104 69.4682 36.104V37.9756C69.4682 37.9756 69.4378 38.8948 69.1076 39.2945H70.053H70.9957C70.6714 38.8978 70.638 37.9756 70.638 37.9756V36.104C70.638 36.104 71.5109 35.9927 71.9595 36.5366V35.2388H70.053H68.1436Z" fill="black"/>
<path d="M67.3305 27.5419C67.9336 28.0166 68.2822 28.0947 68.2942 28.1036L68.5307 28.2118V26.9891L66.312 26.0637C66.312 26.0668 66.3333 26.7728 67.3305 27.5419Z" fill="black"/>
<path d="M72.6088 27.5419C73.6121 26.7728 73.6302 26.0637 73.6302 26.0637L71.4116 26.9891V28.2118L71.6451 28.1036C71.6603 28.0947 72.0058 28.0166 72.6088 27.5419Z" fill="black"/>
<path d="M76.605 22.5638C76.605 20.7103 73.4558 19.043 69.9794 19.043H69.9765H69.9674H69.9582C66.4818 19.043 63.3329 20.7103 63.3329 22.5638L63.4026 23.0206L64.7906 30.9187L63.3965 31.7207L59.7897 33.8087H59.8018C59.8018 33.8087 58.9897 34.2203 58.6138 34.4756C57.2408 35.4221 56.9498 36.8009 57.747 37.3718C57.944 36.248 58.841 35.0705 60.5203 35.0705C61.7295 35.0705 62.6509 35.6894 63.3965 36.6177C63.5874 36.852 63.7692 37.1013 63.939 37.3718C64.1482 37.7112 64.3572 38.0086 64.5665 38.297H55.2769C55.9588 39.6578 56.6073 41.0999 56.6073 42.6652V63.0457C56.6073 67.9787 60.4354 70.3341 64.5755 70.3341C67.7761 70.3341 68.2064 70.19 69.9733 71.9324C71.7312 70.1869 72.1617 70.3341 75.3652 70.3341C79.5085 70.3341 83.3303 67.9787 83.3303 63.0457V42.6652C83.3303 41.0999 83.9791 39.6578 84.6639 38.297H75.3715C75.5775 38.0117 75.7866 37.7112 75.9958 37.3718C76.1684 37.1013 76.3472 36.852 76.5353 36.6177C77.287 35.6863 78.2051 35.0705 79.4145 35.0705C81.0936 35.0705 81.9876 36.2451 82.1877 37.3718C82.9848 36.8009 82.697 35.4221 81.3148 34.4756C80.9451 34.2203 80.1328 33.8087 80.1328 33.8087H80.1449L76.5383 31.7207L75.1502 30.9187L76.5383 23.0206L76.605 22.5638ZM64.6997 23.4832L69.5795 25.1235V32.7212L65.9879 30.8436L64.6997 23.4832ZM65.709 39.6219C66.5091 40.4119 67.2942 40.9018 68.0398 41.1721C67.9427 41.5535 67.8154 42.3407 68.1761 43.1248C68.4701 43.7556 69.0035 44.2423 69.7704 44.5669C69.8553 45.348 70.3523 46.5226 71.7312 47.0424C71.1281 47.6462 70.5401 48.2139 70.3008 48.4453L64.7088 48.3582C64.5816 48.295 64.3663 48.1539 64.2694 47.9526C64.2572 47.9256 64.239 47.9106 64.2299 47.8804L65.1423 48.0276C65.1636 48.0307 65.1816 48.0307 65.1999 48.0307C65.3756 48.0307 65.5302 47.9106 65.5605 47.7304C65.5909 47.529 65.4545 47.3457 65.2575 47.3157L64.1361 47.1415L65.3817 42.8785L64.2027 40.418L62.3114 42.4007L62.1963 46.8351L60.9263 46.6368C60.7292 46.5977 60.5414 46.7419 60.5082 46.9373C60.4778 47.1324 60.6111 47.3157 60.8112 47.3518L61.3446 47.4329C61.1537 47.541 61.0294 47.6251 61.0142 47.6371L60.9052 47.7123L60.8748 47.8445C60.5657 49.0881 61.2658 50.2689 62.0205 50.7975L61.9931 50.9539C61.963 51.146 62.0053 51.3322 62.1204 51.4886C62.2295 51.6479 62.3993 51.744 62.5872 51.7769C62.6267 51.783 62.6691 51.786 62.7054 51.786C63.0327 51.786 63.3177 51.5607 63.3995 51.2333C63.6814 51.2661 63.939 51.2722 64.1147 51.2722H64.2633L71.601 52.5851L71.7252 52.504C72.3103 52.0984 74.5379 50.4881 75.2683 49.9564C75.4684 50.1277 75.6926 50.2838 75.9654 50.4131C75.729 51.2002 75.7138 52.4109 76.6502 53.3662H57.95V42.6681C57.95 41.6316 57.6439 40.5893 57.2832 39.628H65.709V39.6219ZM74.7773 49.4095C74.0347 49.9503 72.1253 51.3322 71.4342 51.813L64.7664 50.6264C64.7816 50.5663 64.7967 50.5092 64.8118 50.4491C64.8998 50.1067 64.9877 49.638 64.9938 49.0881L70.5977 49.1784L70.7039 49.0701C70.7887 48.9861 72.5647 47.2857 73.471 46.3061C73.6861 46.5737 73.956 46.8291 74.3077 47.0543C74.1863 47.7034 74.2378 48.6286 74.7773 49.4095ZM63.6147 48.2651C63.7723 48.5925 64.0572 48.8118 64.2542 48.935C64.2482 49.2414 64.2179 49.7191 64.1361 50.1397C64.1178 50.2328 64.0935 50.32 64.0663 50.407C64.0511 50.4611 64.036 50.5063 64.0238 50.5422C63.7299 50.5422 63.151 50.5063 62.6782 50.335C62.1539 50.1427 61.3718 49.1903 61.5537 48.1418C61.781 48.0037 62.3053 47.7123 62.7963 47.7123C63.1752 47.7093 63.4328 47.8865 63.6147 48.2651ZM62.9206 46.9462L63.0327 42.6892L63.9966 41.6768L64.6028 42.9326L63.4086 47.0182L62.9206 46.9462ZM74.7167 69.0153C74.3529 69.0153 74.0167 69.0213 73.7134 69.0332L74.5075 66.5849C74.6318 66.2453 74.0044 65.8097 73.7469 65.4281C74.1378 65.6716 75.1502 66.2032 75.6381 66.4166C75.5865 66.4947 74.7167 69.0153 74.7167 69.0153ZM77.208 66.2333L76.6899 68.9131C76.3593 68.9581 76.0079 68.9823 75.6472 68.9971L76.1928 66.4196C76.3565 65.6534 74.2803 65.4161 73.2558 63.911C72.7558 64.4698 71.8132 64.635 70.8675 64.635C70.0037 64.635 69.1401 64.4968 68.6155 64.3947C68.4822 64.3737 68.3549 64.3587 68.2307 64.3587C67.9275 64.3587 67.6518 64.4518 67.4609 64.7703L67.3093 65.0225L64.4816 64.3615L63.7783 65.5153C63.6784 65.7016 63.6723 65.8608 63.8329 66.035L64.0238 66.2422C63.8935 66.6508 63.3057 67.2668 63.3057 67.2668L62.8843 66.7471C62.5509 66.3774 62.6054 65.7047 62.954 65.0797L64.0754 63.2021L66.4698 63.5445L66.0969 62.7034C65.5969 61.5918 66.3576 60.1767 66.4394 59.3626C66.4121 59.6089 66.1849 59.6631 65.9181 59.6631C65.6758 59.6631 65.406 59.6181 65.2271 59.6181C65.1575 59.6181 65.0967 59.624 65.0635 59.648L64.4149 60.0386L63.9025 59.5911C63.842 59.5039 63.8207 59.3025 63.9723 59.1523L65.1575 57.8365L63.7572 56.2172L65.7181 57.1937L66.3152 56.4755C66.4788 56.6349 66.4092 57.0524 66.4092 57.0524C67.0213 57.0674 68.7368 58.0077 68.8278 60.2008C68.8339 60.2669 68.8339 60.342 68.8339 60.4141C68.8339 60.4141 68.8491 60.4411 68.8792 60.4863C69.0005 60.6516 69.3339 61.075 69.7582 61.1141L72.4678 61.3786H72.4799C72.7769 61.3786 73.3679 61.033 74.1257 61.033C74.5379 61.033 74.9986 61.1382 75.4895 61.4446C75.4895 61.4446 75.7351 61.2524 76.1352 61.2311C76.1656 61.2283 76.1988 61.2283 76.2291 61.2283C77.4445 61.2283 77.9477 62.3158 78.5993 63.2199C79.0902 63.9079 79.7448 64.9295 79.7448 64.9295C79.5025 65.2148 79.2781 65.3711 78.9023 65.3711C78.7992 65.3711 78.681 65.362 78.5537 65.3381C77.2505 65.1006 77.0626 62.4449 76.32 62.2347C76.2807 62.2227 76.2382 62.2197 76.2019 62.2197C75.9623 62.2197 75.8563 62.4299 75.8563 62.4299C76.1956 63.3343 75.9988 63.7007 76.3624 64.3978C76.6354 64.9144 77.1202 65.3411 77.3202 65.5423C77.3202 65.5483 77.2657 65.9389 77.208 66.2333ZM62.6569 63.6978L62.7811 64.0071C62.6993 64.2776 61.7597 64.662 61.7597 64.662L61.5568 64.2236C61.3415 63.7549 61.387 62.9646 62.0418 62.481L63.5631 61.5618L65.1756 61.9013C65.1452 62.409 65.4514 62.7876 65.4514 62.7876L63.7601 62.466L62.7479 63.1599C62.5781 63.2771 62.5661 63.4965 62.6569 63.6978ZM77.4627 68.7659L77.9264 66.3685C77.9506 66.2274 77.9809 66.062 78.0022 65.9239C78.1326 65.978 78.2718 66.023 78.4236 66.05C78.5961 66.083 78.7568 66.0981 78.9023 66.0981C79.6115 66.0981 80.0237 65.7286 80.2995 65.4131L80.6571 65.0015L80.3662 64.5509C80.3389 64.5059 79.6964 63.4965 79.1994 62.8054C79.1024 62.6702 79.0083 62.5351 78.9143 62.3879C78.3507 61.5528 77.6445 60.5044 76.2291 60.5044L76.1018 60.5072C75.8685 60.5222 75.6684 60.5673 75.5077 60.6274C75.0622 60.4202 74.6046 60.315 74.1288 60.315C73.5438 60.315 73.0497 60.4742 72.7224 60.5855C72.6285 60.6125 72.5436 60.6424 72.4769 60.6544L69.831 60.3961C69.7976 60.39 69.6885 60.327 69.5582 60.1708V60.1587L70.131 59.9305C69.9705 58.0407 68.1397 56.8782 67.1182 56.4846C67.073 56.2953 66.982 56.1061 66.8213 55.9528L66.2515 55.4181L65.7514 56.013L65.506 56.3163L61.8022 54.8083L64.2118 57.8063L63.2601 59.2334C62.9115 59.6 63.2964 59.9665 63.2964 59.9665L64.2783 60.6364L65.2968 60.2609C65.3332 60.2609 65.3635 60.2698 65.3969 60.273C65.3484 60.4261 65.2848 61.027 65.2423 61.1952L63.4753 60.8497L61.6172 61.8893C60.6626 62.5832 60.5323 63.7337 60.8869 64.5209L61.0929 64.9684L61.387 65.5994L62.0355 65.332C62.0447 65.3289 62.0538 65.3261 62.0598 65.32C61.8264 66.0591 61.9206 66.7621 62.3387 67.2246L62.7327 67.7174L63.257 68.3754L63.8329 67.7624C64.0025 67.5943 64.5513 66.9843 64.7209 66.4616L64.8453 66.062L64.5633 65.7556L64.5179 65.7016L64.833 65.1848L67.1395 65.7225L67.6577 65.8397L67.9336 65.3891L68.0852 65.1426C68.1125 65.0917 68.1216 65.0826 68.2276 65.0826C68.3095 65.0826 68.3914 65.0917 68.4792 65.1098C69.349 65.272 70.1522 65.3531 70.8645 65.3531C71.5555 65.3531 71.9676 65.3261 72.4618 65.1639C72.4618 65.1639 73.7013 66.5577 73.7438 66.6119L72.9861 68.931L72.9526 69.0723C71.5162 69.1864 70.816 69.4989 69.9705 70.3372C68.7428 69.1295 67.873 69.0032 64.5724 69.0032C60.6231 69.0032 57.9469 66.708 57.9469 63.0429V54.0812H81.9876L81.9939 63.0429C81.9968 66.0169 80.2359 68.0899 77.4627 68.7659ZM82.6607 39.6219C82.2937 40.5833 81.9876 41.6257 81.9876 42.6621L81.9907 49.3495C80.5815 49.1151 80.4147 47.6101 80.4086 47.544L80.3814 47.2376L80.0783 47.2105C79.466 47.1534 79.06 46.8952 78.7173 46.5646C78.0264 45.8796 78.0233 44.7681 78.0264 44.7592C78.0173 44.8161 77.2657 45.8586 78.1386 46.9973C78.5053 47.4779 79.0356 47.7723 79.7236 47.8896C79.8843 48.7247 80.5117 49.9023 81.9907 50.0825V53.3573H77.8324C75.9139 52.2996 76.7262 50.4371 76.7655 50.3591L76.9291 50.0044L76.5625 49.8664C74.4864 49.1031 75.0562 47.0484 75.0864 46.9613L75.1713 46.6608L74.8896 46.5286C73.1739 45.7416 73.4074 43.6176 73.4285 43.5303C72.9013 43.954 72.7104 44.8192 73.074 45.6664C72.877 45.8888 72.6133 46.159 72.3254 46.4535C70.5493 46.0058 70.4948 44.3866 70.4948 44.3115L70.4917 44.0622L70.2583 43.972C69.5643 43.7165 69.0884 43.3351 68.8551 42.8214C68.5914 42.2535 68.6853 41.6587 68.758 41.3733C68.9611 41.4183 69.1642 41.4515 69.3582 41.4665C69.5582 41.4874 69.7643 41.4994 69.9705 41.4994H69.9826H69.9978C70.2038 41.4994 70.4068 41.4874 70.6069 41.4665C71.7131 41.3583 72.9526 40.8866 74.2438 39.6188H82.6607V39.6219ZM76.1806 32.8623L77.8233 33.8087H77.8476L78.2598 34.0461C77.3322 34.3014 76.623 34.7611 76.029 35.3649C76.0079 35.383 75.9866 35.4069 75.9654 35.428C75.829 35.5722 75.6926 35.7285 75.5653 35.8876C75.5412 35.9177 75.5168 35.9507 75.4895 35.9838C75.3622 36.146 75.2441 36.3113 75.1289 36.4855C75.1107 36.5155 75.0894 36.5455 75.0683 36.5726C74.932 36.7738 74.8016 36.9902 74.6711 37.2124C73.5014 39.2103 71.6342 40.403 69.9733 40.406C68.3156 40.403 66.4486 39.2103 65.2787 37.2124C65.1512 36.9963 65.024 36.7859 64.8876 36.5815C64.8602 36.5426 64.8361 36.5035 64.8118 36.4705C64.6967 36.3052 64.5816 36.143 64.4633 35.9897C64.433 35.9477 64.4058 35.9147 64.3754 35.8786C64.2482 35.7254 64.1178 35.5722 63.9874 35.431C63.9601 35.41 63.9421 35.383 63.9148 35.3588C63.3177 34.755 62.6115 34.2983 61.681 34.0461L62.0992 33.8087H62.1174L63.7601 32.8623L65.4484 31.9041L69.9582 34.3374L69.9674 34.3284L69.9794 34.3374L74.4893 31.9041L76.1806 32.8623ZM73.956 30.8465L70.3612 32.724V25.1235L75.2379 23.4832L73.956 30.8465ZM69.9705 24.2884L64.6239 22.1944C65.0787 21.1278 67.1759 20.2206 69.9705 20.2176C72.7678 20.2206 74.8652 21.1278 75.3168 22.1944L69.9705 24.2884Z" fill="black"/>
<path d="M28.6172 105.417V96.012H34.1824V92.5899H19V96.012H24.565V105.417H28.6172ZM39.8562 92.5899H35.8041V105.417H39.8562V92.5899ZM42.8217 92.5899V105.417H46.5497V98.3295L53.4924 105.417H56.9504V92.5899H53.2223V99.6229L46.4416 92.5899H42.8217ZM64.9147 100.566L69.5881 105.417H74.802L68.2915 98.7338L74.559 92.5899H69.6422L64.9147 97.4132H63.834V92.5899H59.9169V105.417H63.834V100.566H64.9147ZM82.8621 92.2395C77.5943 92.2395 74.4335 95.2036 74.4335 99.0301C74.4335 102.857 77.5943 105.821 82.8621 105.821C88.103 105.821 91.2638 102.857 91.2638 99.0301C91.2638 95.2036 88.103 92.2395 82.8621 92.2395ZM82.8621 102.695C80.2418 102.695 78.5668 101.132 78.5668 99.0301C78.5668 96.9283 80.2418 95.3923 82.8621 95.3923C85.4556 95.3923 87.1574 96.9283 87.1574 99.0301C87.1574 101.132 85.4556 102.695 82.8621 102.695ZM106.119 92.5899H93.1251V105.417H97.0422V100.943H105.552V98.1138H97.0422V95.8503H106.119V92.5899ZM120.867 92.5899H107.872V105.417H111.79V100.943H120.299V98.1138H111.79V95.8503H120.867V92.5899Z" fill="white"/>
<defs>
<clipPath id="clip0_55_384">
<rect width="100" height="92" fill="white" transform="translate(220 14)"/>
</clipPath>
<clipPath id="clip1_55_384">
<rect width="129" height="85" fill="white" transform="translate(396 18)"/>
</clipPath>
</defs>
</svg>
