<svg width="83" height="84" viewBox="0 0 83 84" fill="none" xmlns="http://www.w3.org/2000/svg">
<path fill-rule="evenodd" clip-rule="evenodd" d="M55.2189 81.0409C61.7583 81.7856 67.2231 52.6865 68.1253 46.1348C68.4477 43.7916 68.788 41.4684 69.0678 39.1585C69.2245 37.8646 69.8491 32.8158 69.679 31.8154L59.6001 31.7798C59.2084 33.2738 59.7501 36.3195 59.4882 37.9046C59.3136 38.9562 58.4785 38.9406 57.4576 38.934L25.9808 38.9317C24.9084 38.9384 23.9099 39.0874 23.648 38.0402C23.2898 36.6019 23.8943 33.3871 23.5092 31.8154L13.4326 31.7842C13.1572 33.2893 14.0684 38.9606 14.2385 40.797C15.1363 50.43 19.5063 73.631 25.6629 79.9715C28.374 82.7638 29.0098 79.7292 30.0128 76.3789C32.2493 68.9068 34.2664 48.4202 40.0849 45.9258C47.5288 42.7334 50.3518 60.5121 51.0839 64.9251C51.3145 66.3168 51.6235 67.773 51.8585 69.1847C52.3152 71.9437 53.5756 79.5047 55.2189 81.0431V81.0409Z" fill="white"/>
<path fill-rule="evenodd" clip-rule="evenodd" d="M26.0147 28.86L30.8996 28.8933C31.0116 34.9115 30.0892 34.5424 34.2891 34.5447C38.5338 34.5469 37.5599 34.8092 37.6786 28.86L43.9941 28.9045C44.0209 30.2206 43.8732 32.1014 44.0053 33.3286C44.1754 34.9226 45.8769 34.5002 47.388 34.5002C49.0268 34.5002 50.5671 34.8225 50.773 33.333C50.9208 32.2703 50.7641 30.0939 50.782 28.86L57.0997 28.8978L57.0975 36.5233L26.0035 36.4855L26.0102 28.8622L26.0147 28.86ZM69.0704 39.1577C68.7905 41.4654 68.4502 43.7908 68.1278 46.1341C67.2256 52.688 61.7608 81.7871 55.2214 81.0401C53.5782 79.5017 52.32 71.9429 51.8611 69.1817C51.626 67.77 51.317 66.3138 51.0864 64.9221C50.3544 60.5091 47.5313 42.7304 40.0875 45.9229C34.2689 48.4173 32.2541 68.9038 30.0153 76.3759C29.0123 79.7262 28.3765 82.7609 25.6654 79.9686C19.5088 73.6281 15.1388 50.427 14.2411 40.794C14.0687 38.9554 13.1575 33.2863 13.4351 31.7812L23.5117 31.8124C23.8968 33.3864 23.2923 36.5989 23.6505 38.0373C23.9125 39.0844 24.9109 38.9354 25.9833 38.9288L57.4602 38.931C58.4811 38.9376 59.3161 38.9532 59.4907 37.9016C59.7549 36.3165 59.2131 33.273 59.6027 31.7768L69.6815 31.8124C69.8517 32.8128 69.2271 37.8616 69.0704 39.1555V39.1577ZM33.2369 22.9174L35.46 22.9152L35.4734 32.3126L33.2481 32.2926L33.2391 22.9152L33.2369 22.9174ZM46.4701 23.202C47.0947 23.0709 47.6567 23.0375 48.2634 23.2532L48.2544 31.968C47.6634 32.1636 47.0925 32.1414 46.4433 32.0102L46.4701 23.202ZM2.75625 25.9699C3.44803 25.7187 21.9625 25.6964 23.7087 25.8765L23.7065 29.3469C21.8774 29.5025 3.45026 29.4914 2.71371 29.249L2.75625 25.9721V25.9699ZM59.3967 25.8365L80.3156 25.8876L80.3761 28.7444C80.2775 29.5558 80.2037 29.3758 79.344 29.3758C74.3784 29.3758 63.7108 29.5714 59.4012 29.3424L59.4057 26.6591L59.3989 25.8365H59.3967ZM25.999 18.689L57.1065 18.729L57.0997 26.3589L50.7842 26.33C50.67 21.1611 51.7827 20.512 47.3903 20.5142C42.9508 20.5164 44.1418 20.8477 43.9986 26.3567L37.6808 26.3167C37.5174 20.8966 38.6815 20.512 34.2891 20.512C29.919 20.512 31.0362 20.9588 30.8996 26.3567L26.0035 26.3211L25.999 18.6868V18.689ZM13.3254 23.351C13.0456 17.4751 16.388 8.67357 21.4588 5.01867C29.384 -0.690437 34.4033 7.21962 41.6389 7.21962C45.1582 7.21962 48.7067 5.012 51.5767 3.82705C58.8751 0.816875 64.7585 6.22141 67.454 12.5797C68.6002 15.2831 69.9233 20.0518 69.7823 23.3754L59.5288 23.331C59.1952 17.2706 60.7041 16.2235 57.1378 16.2457L28.8579 16.2479C27.2415 16.2479 24.002 15.7033 23.6438 17.1817C23.3908 18.2243 23.6617 21.9081 23.5744 23.3732L13.3254 23.351ZM41.1419 48.3772C46.1612 47.757 48.4402 65.698 49.2731 69.962C49.9984 73.677 50.6678 78.6991 52.3536 81.6915C54.9841 86.358 59.3318 82.4385 61.0892 79.7751C66.1756 72.0652 69.7039 55.2179 70.9263 45.058C71.0584 43.962 72.5091 31.9769 72.5225 31.9524C73.6352 31.53 78.2201 31.8168 79.8208 31.819C81.1148 31.8213 82.1491 31.988 82.6461 31.0676C82.9461 30.5118 82.9148 24.6404 82.6573 24.138C81.7663 22.395 75.1642 24.1669 72.677 23.262C72.1643 21.6658 72.5539 17.5618 69.8942 11.4703C68.4099 8.07109 66.2047 4.98533 63.6279 3.07117C60.8765 1.02585 56.596 -0.557046 52.1722 0.765742C49.0268 1.70837 44.7329 4.68965 41.1844 4.50957C37.2733 4.16498 34.166 1.55497 30.4743 0.607897C22.5849 -1.41741 16.2626 4.44954 13.1911 11.4103C10.6143 17.2461 10.7934 22.1082 10.4061 23.2309L10.1352 23.3132C9.92026 23.3532 9.94041 23.3599 9.68967 23.3776C9.4255 23.3954 9.00461 23.3754 8.72477 23.3732L3.29355 23.371C-0.133979 23.3688 0.248848 23.5222 0.248848 27.6106C0.248848 33.5576 0.123478 31.4255 9.69415 31.8302L10.5561 31.9991C10.8628 32.8706 11.0643 37.2547 11.2434 38.6531C12.703 50.078 16.1261 71.1537 21.77 79.5439C23.9729 82.8187 27.8639 85.9667 30.5414 82.1161C32.1085 79.8618 33.501 74.1727 34.1122 70.9536C34.8622 67.0008 35.7219 62.6478 36.6913 58.7328C37.5599 55.2268 38.7241 49.9201 41.1419 48.375V48.3772Z" fill="#4D4D4D"/>
<path fill-rule="evenodd" clip-rule="evenodd" d="M13.3253 23.3536L23.5743 23.3759C23.6616 21.9108 23.3907 18.227 23.6437 17.1843C24.0019 15.7059 27.2414 16.2506 28.8577 16.2506L57.1377 16.2484C60.704 16.2284 59.1951 17.2755 59.5287 23.3336L69.7822 23.3781C69.9232 20.0545 68.6001 15.2857 67.4538 12.5824C64.7584 6.22631 58.8772 0.81955 51.5766 3.82973C48.7088 5.01246 45.1581 7.22229 41.6388 7.22229C34.4031 7.22229 29.3839 -0.687762 21.4587 5.02135C16.3879 8.67625 13.0454 17.4778 13.3253 23.3536Z" fill="white"/>
<path fill-rule="evenodd" clip-rule="evenodd" d="M26.0076 36.4812L57.1016 36.519L57.1038 28.8935L50.7861 28.8557C50.7659 30.0896 50.9226 32.2661 50.7771 33.3287C50.5712 34.8183 49.0309 34.4959 47.3921 34.4959C45.8787 34.4959 44.1795 34.9183 44.0094 33.3243C43.8773 32.0971 44.0251 30.2185 43.9982 28.9002L37.6827 28.8557C37.564 34.8049 38.5356 34.5426 34.2932 34.5404C30.0933 34.5381 31.0157 34.9094 30.9037 28.8891L26.0188 28.8557L26.012 36.479L26.0076 36.4812Z" fill="#B2B2B2"/>
<path fill-rule="evenodd" clip-rule="evenodd" d="M26.0033 26.3236L30.8994 26.3591C31.0382 20.9613 29.9188 20.5144 34.2889 20.5144C38.6813 20.5144 37.5172 20.899 37.6806 26.3191L43.9984 26.3591C44.1416 20.8501 42.9506 20.5189 47.3901 20.5166C51.7825 20.5144 50.6698 21.1614 50.784 26.3325L57.0995 26.3614L57.1063 18.7314L25.9988 18.6914L26.0033 26.3258V26.3236Z" fill="#B2B2B2"/>
<path fill-rule="evenodd" clip-rule="evenodd" d="M2.71582 29.2477C3.45461 29.4923 21.8795 29.5012 23.7086 29.3455L23.7108 25.8744C21.9646 25.6965 3.45013 25.7165 2.75836 25.9678L2.71582 29.2455V29.2477Z" fill="#E32E16"/>
<path fill-rule="evenodd" clip-rule="evenodd" d="M59.4052 26.6587L59.4007 29.3427C63.7103 29.5739 74.378 29.3782 79.3435 29.376C80.2054 29.376 80.2771 29.5583 80.3756 28.7445L80.3151 25.8871L59.3962 25.8359L59.403 26.6587H59.4052Z" fill="#E32E16"/>
<path fill-rule="evenodd" clip-rule="evenodd" d="M33.2475 32.2926L35.47 32.3126L35.4588 22.9153L33.2363 22.9175L33.2475 32.2926Z" fill="white"/>
<path fill-rule="evenodd" clip-rule="evenodd" d="M46.4426 32.0105C47.0917 32.1417 47.6624 32.1639 48.2533 31.9683L48.2623 23.2534C47.6557 23.04 47.0939 23.0733 46.4695 23.2023L46.4426 32.0105Z" fill="white"/>
</svg>
