<svg width="262" height="303" viewBox="0 0 262 303" fill="none" xmlns="http://www.w3.org/2000/svg">
<path d="M74.3617 53.4684L74.3623 53.468L131.102 20.7999L187.841 53.468L187.841 53.4684L244.577 86.1582L244.577 151.488L244.577 216.842L187.841 249.532L187.841 249.532L131.102 282.2L74.3623 249.532L74.3617 249.532L17.6264 216.842L17.6264 151.488L17.6264 86.1582L74.3617 53.4684Z" fill="#024FA2" stroke="#4D4D4D" stroke-width="4.40566"/>
<path d="M65.4981 178.307C65.4981 178.784 65.4835 179.125 65.4541 179.33C65.4321 179.528 65.3661 179.737 65.2561 179.957C65.1168 180.236 64.8931 180.463 64.5851 180.639C64.2845 180.815 63.9435 180.903 63.5621 180.903C63.1808 180.903 62.8361 180.815 62.5281 180.639C62.2275 180.463 62.0075 180.236 61.8681 179.957C61.7581 179.737 61.6885 179.528 61.6591 179.33C61.6371 179.125 61.6261 178.784 61.6261 178.307L61.6261 172.499L57.4131 179.132C56.9951 179.785 56.6175 180.243 56.2801 180.507C55.9501 180.771 55.5578 180.903 55.1031 180.903C54.5605 180.903 54.1058 180.72 53.7391 180.353C53.5338 180.148 53.3945 179.899 53.3211 179.605C53.2551 179.312 53.2221 178.949 53.2221 178.516L53.2221 167.659C53.2221 167.183 53.2331 166.845 53.2551 166.647C53.2845 166.442 53.3541 166.229 53.4641 166.009C53.6035 165.731 53.8235 165.503 54.1241 165.327C54.4321 165.151 54.7768 165.063 55.1581 165.063C55.5395 165.063 55.8805 165.151 56.1811 165.327C56.4891 165.503 56.7128 165.731 56.8521 166.009C56.9621 166.229 57.0281 166.442 57.0501 166.647C57.0795 166.845 57.0941 167.183 57.0941 167.659L57.0941 173.467L61.3071 166.834C61.7251 166.182 62.0991 165.723 62.4291 165.459C62.7665 165.195 63.1625 165.063 63.6171 165.063C64.1598 165.063 64.6145 165.247 64.9811 165.613C65.1865 165.819 65.3221 166.068 65.3881 166.361C65.4615 166.655 65.4981 167.018 65.4981 167.45L65.4981 178.307ZM68.1314 174.523C68.1241 174.164 68.1204 173.651 68.1204 172.983C68.1204 172.316 68.1241 171.806 68.1314 171.454C68.1461 171.095 68.1791 170.655 68.2304 170.134C68.2891 169.606 68.3698 169.177 68.4724 168.847C68.5824 168.51 68.7438 168.151 68.9564 167.769C69.1691 167.388 69.4294 167.043 69.7374 166.735C70.8814 165.591 72.3224 165.019 74.0604 165.019C75.0211 165.019 75.7984 165.111 76.3924 165.294C76.9864 165.47 77.5254 165.775 78.0094 166.207C78.5448 166.691 78.9261 167.194 79.1534 167.714C79.3808 168.228 79.4944 168.693 79.4944 169.111C79.4944 169.727 79.3148 170.215 78.9554 170.574C78.5961 170.934 78.1524 171.113 77.6244 171.113C77.2138 171.113 76.8691 171.014 76.5904 170.816C76.2678 170.596 75.9268 170.167 75.5674 169.529C75.3474 169.141 75.1128 168.866 74.8634 168.704C74.6214 168.536 74.3244 168.451 73.9724 168.451C73.3931 168.451 72.9311 168.679 72.5864 169.133C72.3518 169.441 72.1941 169.848 72.1134 170.354C72.0328 170.853 71.9924 171.729 71.9924 172.983C71.9924 174.237 72.0328 175.117 72.1134 175.623C72.1941 176.122 72.3518 176.525 72.5864 176.833C72.9311 177.288 73.3931 177.515 73.9724 177.515C74.3244 177.515 74.6214 177.435 74.8634 177.273C75.1128 177.105 75.3474 176.826 75.5674 176.437C75.9268 175.799 76.2678 175.37 76.5904 175.15C76.8691 174.952 77.2138 174.853 77.6244 174.853C78.1524 174.853 78.5961 175.033 78.9554 175.392C79.3148 175.752 79.4944 176.239 79.4944 176.855C79.4944 177.273 79.3808 177.743 79.1534 178.263C78.9261 178.777 78.5448 179.275 78.0094 179.759C77.5254 180.192 76.9864 180.5 76.3924 180.683C75.7984 180.859 75.0211 180.947 74.0604 180.947C72.3224 180.947 70.8814 180.375 69.7374 179.231C69.4294 178.923 69.1691 178.579 68.9564 178.197C68.7438 177.816 68.5824 177.46 68.4724 177.13C68.3698 176.793 68.2891 176.364 68.2304 175.843C68.1791 175.315 68.1461 174.875 68.1314 174.523ZM89.8893 178.307L89.8893 168.583H85.7973L85.7973 178.307C85.7973 178.784 85.7826 179.125 85.7533 179.33C85.7313 179.528 85.6653 179.737 85.5553 179.957C85.4159 180.236 85.1923 180.463 84.8843 180.639C84.5836 180.815 84.2426 180.903 83.8613 180.903C83.4799 180.903 83.1353 180.815 82.8273 180.639C82.5266 180.463 82.3066 180.236 82.1673 179.957C82.0573 179.737 81.9876 179.528 81.9583 179.33C81.9363 179.125 81.9253 178.784 81.9253 178.307L81.9253 167.516C81.9253 167.252 81.9289 167.043 81.9363 166.889C81.9509 166.735 81.9986 166.541 82.0793 166.306C82.1673 166.064 82.2956 165.859 82.4643 165.69C82.6329 165.522 82.8346 165.397 83.0693 165.316C83.3113 165.228 83.5093 165.181 83.6633 165.173C83.8173 165.159 84.0263 165.151 84.2903 165.151H91.3963C91.6603 165.151 91.8693 165.159 92.0233 165.173C92.1773 165.181 92.3716 165.228 92.6063 165.316C92.8483 165.397 93.0536 165.522 93.2223 165.69C93.3909 165.859 93.5156 166.064 93.5963 166.306C93.6843 166.541 93.7319 166.735 93.7393 166.889C93.7539 167.043 93.7613 167.252 93.7613 167.516L93.7613 178.307C93.7613 178.784 93.7466 179.125 93.7173 179.33C93.6953 179.528 93.6293 179.737 93.5193 179.957C93.3799 180.236 93.1563 180.463 92.8483 180.639C92.5476 180.815 92.2066 180.903 91.8253 180.903C91.4439 180.903 91.0993 180.815 90.7913 180.639C90.4906 180.463 90.2706 180.236 90.1313 179.957C90.0213 179.737 89.9516 179.528 89.9223 179.33C89.9003 179.125 89.8893 178.784 89.8893 178.307ZM96.8784 178.307L96.8784 167.516C96.8784 167.252 96.882 167.043 96.8894 166.889C96.904 166.735 96.9517 166.541 97.0324 166.306C97.1204 166.064 97.2487 165.859 97.4174 165.69C97.586 165.522 97.7877 165.397 98.0224 165.316C98.2644 165.228 98.4624 165.181 98.6164 165.173C98.7704 165.159 98.9794 165.151 99.2434 165.151H103.104C103.948 165.151 104.714 165.294 105.403 165.58C106.093 165.859 106.654 166.237 107.086 166.713C107.526 167.183 107.864 167.718 108.098 168.319C108.333 168.913 108.45 169.537 108.45 170.189C108.45 170.842 108.333 171.469 108.098 172.07C107.864 172.664 107.526 173.2 107.086 173.676C106.654 174.146 106.093 174.523 105.403 174.809C104.714 175.088 103.948 175.227 103.104 175.227H100.75L100.75 178.307C100.75 178.784 100.736 179.125 100.706 179.33C100.684 179.528 100.618 179.737 100.508 179.957C100.369 180.236 100.145 180.463 99.8374 180.639C99.5367 180.815 99.1957 180.903 98.8144 180.903C98.433 180.903 98.0884 180.815 97.7804 180.639C97.4797 180.463 97.2597 180.236 97.1204 179.957C97.0104 179.737 96.9407 179.528 96.9114 179.33C96.8894 179.125 96.8784 178.784 96.8784 178.307ZM100.75 171.795H102.928C103.434 171.795 103.838 171.638 104.138 171.322C104.446 171 104.6 170.622 104.6 170.189C104.6 169.757 104.446 169.383 104.138 169.067C103.838 168.745 103.434 168.583 102.928 168.583H100.75L100.75 171.795ZM108.784 177.867L112.964 166.768C113.198 166.152 113.466 165.727 113.767 165.492C114.126 165.206 114.581 165.063 115.131 165.063C115.681 165.063 116.135 165.206 116.495 165.492C116.795 165.727 117.063 166.152 117.298 166.768L121.478 177.867C121.624 178.263 121.723 178.575 121.775 178.802C121.833 179.022 121.833 179.275 121.775 179.561C121.723 179.84 121.58 180.097 121.346 180.331C120.964 180.713 120.502 180.903 119.96 180.903C119.52 180.903 119.157 180.771 118.871 180.507C118.709 180.361 118.577 180.196 118.475 180.012C118.379 179.829 118.258 179.532 118.112 179.121L117.881 178.483H112.381L112.15 179.121C112.003 179.532 111.878 179.829 111.776 180.012C111.68 180.196 111.552 180.361 111.391 180.507C111.105 180.771 110.742 180.903 110.302 180.903C109.759 180.903 109.297 180.713 108.916 180.331C108.681 180.097 108.534 179.84 108.476 179.561C108.424 179.275 108.424 179.022 108.476 178.802C108.534 178.575 108.637 178.263 108.784 177.867ZM116.715 175.271L115.131 170.915L113.547 175.271H116.715ZM130.662 180.815H126.185C125.921 180.815 125.712 180.812 125.558 180.804C125.404 180.79 125.206 180.742 124.964 180.661C124.729 180.573 124.527 180.445 124.359 180.276C124.19 180.108 124.062 179.906 123.974 179.671C123.893 179.429 123.845 179.231 123.831 179.077C123.823 178.923 123.82 178.714 123.82 178.45L123.82 167.516C123.82 167.252 123.823 167.043 123.831 166.889C123.845 166.735 123.893 166.541 123.974 166.306C124.062 166.064 124.19 165.859 124.359 165.69C124.527 165.522 124.729 165.397 124.964 165.316C125.206 165.228 125.404 165.181 125.558 165.173C125.712 165.159 125.921 165.151 126.185 165.151H130.332C131.93 165.151 133.162 165.562 134.028 166.383C134.893 167.197 135.326 168.297 135.326 169.683C135.326 170.101 135.263 170.494 135.139 170.86C135.014 171.227 134.845 171.539 134.633 171.795C134.427 172.052 134.248 172.254 134.094 172.4C133.94 172.547 133.778 172.675 133.61 172.785C133.793 172.903 133.943 173.005 134.061 173.093C134.185 173.174 134.35 173.317 134.556 173.522C134.768 173.728 134.937 173.94 135.062 174.16C135.186 174.38 135.296 174.67 135.392 175.029C135.494 175.389 135.546 175.777 135.546 176.195C135.546 177.647 135.091 178.78 134.182 179.594C133.28 180.408 132.106 180.815 130.662 180.815ZM127.692 171.157H130.09C130.574 171.157 130.926 171.036 131.146 170.794C131.366 170.545 131.476 170.241 131.476 169.881C131.476 169.522 131.366 169.218 131.146 168.968C130.926 168.712 130.574 168.583 130.09 168.583H127.692L127.692 171.157ZM127.692 177.383H130.288C130.772 177.383 131.127 177.248 131.355 176.976C131.582 176.698 131.696 176.364 131.696 175.975C131.696 175.594 131.582 175.271 131.355 175.007C131.127 174.743 130.772 174.611 130.288 174.611H127.692L127.692 177.383ZM146.959 178.307L146.959 168.583H144.231L144.231 172.675C144.231 173.981 144.161 175.103 144.022 176.041C143.89 176.98 143.696 177.757 143.439 178.373C143.19 178.989 142.852 179.477 142.427 179.836C142.009 180.196 141.543 180.449 141.03 180.595C140.517 180.742 139.904 180.815 139.193 180.815C138.702 180.815 138.353 180.804 138.148 180.782C137.943 180.753 137.748 180.694 137.565 180.606C137.323 180.489 137.121 180.291 136.96 180.012C136.806 179.734 136.729 179.426 136.729 179.088C136.729 178.575 136.89 178.157 137.213 177.834C137.499 177.548 137.921 177.394 138.478 177.372C138.757 177.358 139.002 177.295 139.215 177.185C139.428 177.068 139.604 176.929 139.743 176.767C139.89 176.599 140.011 176.375 140.106 176.096C140.209 175.818 140.286 175.557 140.337 175.315C140.388 175.073 140.429 174.762 140.458 174.38C140.487 173.999 140.502 173.676 140.502 173.412C140.509 173.148 140.513 172.807 140.513 172.389L140.513 167.516C140.513 167.252 140.517 167.043 140.524 166.889C140.539 166.735 140.586 166.541 140.667 166.306C140.755 166.064 140.883 165.859 141.052 165.69C141.221 165.522 141.422 165.397 141.657 165.316C141.899 165.228 142.097 165.181 142.251 165.173C142.405 165.159 142.614 165.151 142.878 165.151H148.466C148.73 165.151 148.939 165.159 149.093 165.173C149.247 165.181 149.441 165.228 149.676 165.316C149.918 165.397 150.123 165.522 150.292 165.69C150.461 165.859 150.585 166.064 150.666 166.306C150.754 166.541 150.802 166.735 150.809 166.889C150.824 167.043 150.831 167.252 150.831 167.516L150.831 178.307C150.831 178.784 150.816 179.125 150.787 179.33C150.765 179.528 150.699 179.737 150.589 179.957C150.45 180.236 150.226 180.463 149.918 180.639C149.617 180.815 149.276 180.903 148.895 180.903C148.514 180.903 148.169 180.815 147.861 180.639C147.56 180.463 147.34 180.236 147.201 179.957C147.091 179.737 147.021 179.528 146.992 179.33C146.97 179.125 146.959 178.784 146.959 178.307ZM162.432 180.815H156.327C156.063 180.815 155.854 180.812 155.7 180.804C155.546 180.79 155.348 180.742 155.106 180.661C154.872 180.573 154.67 180.445 154.501 180.276C154.333 180.108 154.204 179.906 154.116 179.671C154.036 179.429 153.988 179.231 153.973 179.077C153.966 178.923 153.962 178.714 153.962 178.45L153.962 167.516C153.962 167.252 153.966 167.043 153.973 166.889C153.988 166.735 154.036 166.541 154.116 166.306C154.204 166.064 154.333 165.859 154.501 165.69C154.67 165.522 154.872 165.397 155.106 165.316C155.348 165.228 155.546 165.181 155.7 165.173C155.854 165.159 156.063 165.151 156.327 165.151H162.432C162.85 165.151 163.155 165.166 163.345 165.195C163.536 165.217 163.723 165.272 163.906 165.36C164.156 165.478 164.357 165.676 164.511 165.954C164.665 166.226 164.742 166.53 164.742 166.867C164.742 167.205 164.665 167.513 164.511 167.791C164.357 168.063 164.156 168.257 163.906 168.374C163.723 168.462 163.536 168.521 163.345 168.55C163.155 168.572 162.85 168.583 162.432 168.583H157.834L157.834 171.201H161.442C161.86 171.201 162.165 171.216 162.355 171.245C162.546 171.267 162.733 171.322 162.916 171.41C163.166 171.528 163.367 171.726 163.521 172.004C163.675 172.276 163.752 172.58 163.752 172.917C163.752 173.255 163.675 173.563 163.521 173.841C163.367 174.113 163.166 174.307 162.916 174.424C162.733 174.512 162.546 174.571 162.355 174.6C162.165 174.622 161.86 174.633 161.442 174.633H157.834L157.834 177.383H162.432C162.85 177.383 163.155 177.398 163.345 177.427C163.536 177.449 163.723 177.504 163.906 177.592C164.156 177.71 164.357 177.908 164.511 178.186C164.665 178.458 164.742 178.762 164.742 179.099C164.742 179.437 164.665 179.745 164.511 180.023C164.357 180.295 164.156 180.489 163.906 180.606C163.723 180.694 163.536 180.753 163.345 180.782C163.155 180.804 162.85 180.815 162.432 180.815ZM179.14 178.307C179.14 178.784 179.125 179.125 179.096 179.33C179.074 179.528 179.008 179.737 178.898 179.957C178.759 180.236 178.535 180.463 178.227 180.639C177.926 180.815 177.585 180.903 177.204 180.903C176.823 180.903 176.478 180.815 176.17 180.639C175.869 180.463 175.649 180.236 175.51 179.957C175.4 179.737 175.33 179.528 175.301 179.33C175.279 179.125 175.268 178.784 175.268 178.307L175.268 174.611H171.176L171.176 178.307C171.176 178.784 171.161 179.125 171.132 179.33C171.11 179.528 171.044 179.737 170.934 179.957C170.795 180.236 170.571 180.463 170.263 180.639C169.962 180.815 169.621 180.903 169.24 180.903C168.859 180.903 168.514 180.815 168.206 180.639C167.905 180.463 167.685 180.236 167.546 179.957C167.436 179.737 167.366 179.528 167.337 179.33C167.315 179.125 167.304 178.784 167.304 178.307L167.304 167.659C167.304 167.183 167.315 166.845 167.337 166.647C167.366 166.442 167.436 166.229 167.546 166.009C167.685 165.731 167.905 165.503 168.206 165.327C168.514 165.151 168.859 165.063 169.24 165.063C169.621 165.063 169.962 165.151 170.263 165.327C170.571 165.503 170.795 165.731 170.934 166.009C171.044 166.229 171.11 166.442 171.132 166.647C171.161 166.845 171.176 167.183 171.176 167.659L171.176 171.179H175.268L175.268 167.659C175.268 167.183 175.279 166.845 175.301 166.647C175.33 166.442 175.4 166.229 175.51 166.009C175.649 165.731 175.869 165.503 176.17 165.327C176.478 165.151 176.823 165.063 177.204 165.063C177.585 165.063 177.926 165.151 178.227 165.327C178.535 165.503 178.759 165.731 178.898 166.009C179.008 166.229 179.074 166.442 179.096 166.647C179.125 166.845 179.14 167.183 179.14 167.659L179.14 178.307ZM194.533 178.307C194.533 178.784 194.519 179.125 194.489 179.33C194.467 179.528 194.401 179.737 194.291 179.957C194.152 180.236 193.928 180.463 193.62 180.639C193.32 180.815 192.979 180.903 192.597 180.903C192.216 180.903 191.871 180.815 191.563 180.639C191.263 180.463 191.043 180.236 190.903 179.957C190.793 179.737 190.724 179.528 190.694 179.33C190.672 179.125 190.661 178.784 190.661 178.307L190.661 172.499L186.448 179.132C186.03 179.785 185.653 180.243 185.315 180.507C184.985 180.771 184.593 180.903 184.138 180.903C183.596 180.903 183.141 180.72 182.774 180.353C182.569 180.148 182.43 179.899 182.356 179.605C182.29 179.312 182.257 178.949 182.257 178.516L182.257 167.659C182.257 167.183 182.268 166.845 182.29 166.647C182.32 166.442 182.389 166.229 182.499 166.009C182.639 165.731 182.859 165.503 183.159 165.327C183.467 165.151 183.812 165.063 184.193 165.063C184.575 165.063 184.916 165.151 185.216 165.327C185.524 165.503 185.748 165.731 185.887 166.009C185.997 166.229 186.063 166.442 186.085 166.647C186.115 166.845 186.129 167.183 186.129 167.659L186.129 173.467L190.342 166.834C190.76 166.182 191.134 165.723 191.464 165.459C191.802 165.195 192.198 165.063 192.652 165.063C193.195 165.063 193.65 165.247 194.016 165.613C194.222 165.819 194.357 166.068 194.423 166.361C194.497 166.655 194.533 167.018 194.533 167.45L194.533 178.307ZM206.132 180.815H200.027C199.763 180.815 199.554 180.812 199.4 180.804C199.246 180.79 199.048 180.742 198.806 180.661C198.571 180.573 198.369 180.445 198.201 180.276C198.032 180.108 197.904 179.906 197.816 179.671C197.735 179.429 197.687 179.231 197.673 179.077C197.665 178.923 197.662 178.714 197.662 178.45L197.662 167.516C197.662 167.252 197.665 167.043 197.673 166.889C197.687 166.735 197.735 166.541 197.816 166.306C197.904 166.064 198.032 165.859 198.201 165.69C198.369 165.522 198.571 165.397 198.806 165.316C199.048 165.228 199.246 165.181 199.4 165.173C199.554 165.159 199.763 165.151 200.027 165.151H206.132C206.55 165.151 206.854 165.166 207.045 165.195C207.235 165.217 207.422 165.272 207.606 165.36C207.855 165.478 208.057 165.676 208.211 165.954C208.365 166.226 208.442 166.53 208.442 166.867C208.442 167.205 208.365 167.513 208.211 167.791C208.057 168.063 207.855 168.257 207.606 168.374C207.422 168.462 207.235 168.521 207.045 168.55C206.854 168.572 206.55 168.583 206.132 168.583H201.534L201.534 171.201H205.142C205.56 171.201 205.864 171.216 206.055 171.245C206.245 171.267 206.432 171.322 206.616 171.41C206.865 171.528 207.067 171.726 207.221 172.004C207.375 172.276 207.452 172.58 207.452 172.917C207.452 173.255 207.375 173.563 207.221 173.841C207.067 174.113 206.865 174.307 206.616 174.424C206.432 174.512 206.245 174.571 206.055 174.6C205.864 174.622 205.56 174.633 205.142 174.633H201.534L201.534 177.383H206.132C206.55 177.383 206.854 177.398 207.045 177.427C207.235 177.449 207.422 177.504 207.606 177.592C207.855 177.71 208.057 177.908 208.211 178.186C208.365 178.458 208.442 178.762 208.442 179.099C208.442 179.437 208.365 179.745 208.211 180.023C208.057 180.295 207.855 180.489 207.606 180.606C207.422 180.694 207.235 180.753 207.045 180.782C206.854 180.804 206.55 180.815 206.132 180.815ZM91.3824 206.307L91.3824 196.583H87.2904L87.2904 206.307C87.2904 206.784 87.2757 207.125 87.2464 207.33C87.2244 207.528 87.1584 207.737 87.0484 207.957C86.9091 208.236 86.6854 208.463 86.3774 208.639C86.0767 208.815 85.7357 208.903 85.3544 208.903C84.9731 208.903 84.6284 208.815 84.3204 208.639C84.0197 208.463 83.7997 208.236 83.6604 207.957C83.5504 207.737 83.4807 207.528 83.4514 207.33C83.4294 207.125 83.4184 206.784 83.4184 206.307L83.4184 195.516C83.4184 195.252 83.4221 195.043 83.4294 194.889C83.4441 194.735 83.4917 194.541 83.5724 194.306C83.6604 194.064 83.7887 193.859 83.9574 193.69C84.1261 193.522 84.3277 193.397 84.5624 193.316C84.8044 193.228 85.0024 193.181 85.1564 193.173C85.3104 193.159 85.5194 193.151 85.7834 193.151H92.8894C93.1534 193.151 93.3624 193.159 93.5164 193.173C93.6704 193.181 93.8647 193.228 94.0994 193.316C94.3414 193.397 94.5467 193.522 94.7154 193.69C94.8841 193.859 95.0087 194.064 95.0894 194.306C95.1774 194.541 95.2251 194.735 95.2324 194.889C95.2471 195.043 95.2544 195.252 95.2544 195.516L95.2544 206.307C95.2544 206.784 95.2397 207.125 95.2104 207.33C95.1884 207.528 95.1224 207.737 95.0124 207.957C94.8731 208.236 94.6494 208.463 94.3414 208.639C94.0407 208.815 93.6997 208.903 93.3184 208.903C92.9371 208.903 92.5924 208.815 92.2844 208.639C91.9837 208.463 91.7637 208.236 91.6244 207.957C91.5144 207.737 91.4447 207.528 91.4154 207.33C91.3934 207.125 91.3824 206.784 91.3824 206.307ZM98.3715 206.307L98.3715 195.516C98.3715 195.252 98.3752 195.043 98.3825 194.889C98.3972 194.735 98.4449 194.541 98.5255 194.306C98.6135 194.064 98.7419 193.859 98.9105 193.69C99.0792 193.522 99.2809 193.397 99.5155 193.316C99.7575 193.228 99.9555 193.181 100.11 193.173C100.264 193.159 100.473 193.151 100.737 193.151H104.598C105.441 193.151 106.207 193.294 106.897 193.58C107.586 193.859 108.147 194.237 108.58 194.713C109.02 195.183 109.357 195.718 109.592 196.319C109.826 196.913 109.944 197.537 109.944 198.189C109.944 198.842 109.826 199.469 109.592 200.07C109.357 200.664 109.02 201.2 108.58 201.676C108.147 202.146 107.586 202.523 106.897 202.809C106.207 203.088 105.441 203.227 104.598 203.227H102.244L102.244 206.307C102.244 206.784 102.229 207.125 102.2 207.33C102.178 207.528 102.112 207.737 102.002 207.957C101.862 208.236 101.639 208.463 101.331 208.639C101.03 208.815 100.689 208.903 100.308 208.903C99.9262 208.903 99.5815 208.815 99.2735 208.639C98.9729 208.463 98.7529 208.236 98.6135 207.957C98.5035 207.737 98.4339 207.528 98.4045 207.33C98.3825 207.125 98.3715 206.784 98.3715 206.307ZM102.244 199.795H104.422C104.928 199.795 105.331 199.638 105.632 199.322C105.94 199 106.094 198.622 106.094 198.189C106.094 197.757 105.94 197.383 105.632 197.067C105.331 196.745 104.928 196.583 104.422 196.583H102.244L102.244 199.795ZM124.441 206.307C124.441 206.784 124.426 207.125 124.397 207.33C124.375 207.528 124.309 207.737 124.199 207.957C124.059 208.236 123.836 208.463 123.528 208.639C123.227 208.815 122.886 208.903 122.505 208.903C122.123 208.903 121.779 208.815 121.471 208.639C121.17 208.463 120.95 208.236 120.811 207.957C120.701 207.737 120.631 207.528 120.602 207.33C120.58 207.125 120.569 206.784 120.569 206.307L120.569 200.499L116.356 207.132C115.938 207.785 115.56 208.243 115.223 208.507C114.893 208.771 114.5 208.903 114.046 208.903C113.503 208.903 113.048 208.72 112.682 208.353C112.476 208.148 112.337 207.899 112.264 207.605C112.198 207.312 112.165 206.949 112.165 206.516L112.165 195.659C112.165 195.183 112.176 194.845 112.198 194.647C112.227 194.442 112.297 194.229 112.407 194.009C112.546 193.731 112.766 193.503 113.067 193.327C113.375 193.151 113.719 193.063 114.101 193.063C114.482 193.063 114.823 193.151 115.124 193.327C115.432 193.503 115.655 193.731 115.795 194.009C115.905 194.229 115.971 194.442 115.993 194.647C116.022 194.845 116.037 195.183 116.037 195.659L116.037 201.467L120.25 194.834C120.668 194.182 121.042 193.723 121.372 193.459C121.709 193.195 122.105 193.063 122.56 193.063C123.102 193.063 123.557 193.247 123.924 193.613C124.129 193.819 124.265 194.068 124.331 194.361C124.404 194.655 124.441 195.018 124.441 195.45L124.441 206.307ZM127.569 206.307L127.569 195.659C127.569 195.183 127.58 194.845 127.602 194.647C127.631 194.442 127.701 194.229 127.811 194.009C127.95 193.731 128.17 193.503 128.471 193.327C128.779 193.151 129.123 193.063 129.505 193.063C129.886 193.063 130.227 193.151 130.528 193.327C130.836 193.503 131.059 193.731 131.199 194.009C131.309 194.229 131.375 194.442 131.397 194.647C131.426 194.845 131.441 195.183 131.441 195.659L131.441 198.97H131.782L135.731 194.24C136.09 193.8 136.391 193.496 136.633 193.327C136.882 193.151 137.179 193.063 137.524 193.063C137.942 193.063 138.33 193.214 138.69 193.514C139.137 193.888 139.361 194.325 139.361 194.823C139.361 195.117 139.302 195.384 139.185 195.626C139.067 195.861 138.84 196.169 138.503 196.55L134.862 200.653L138.844 205.416C139.181 205.812 139.408 206.128 139.526 206.362C139.643 206.597 139.702 206.857 139.702 207.143C139.702 207.642 139.478 208.078 139.031 208.452C138.671 208.753 138.283 208.903 137.865 208.903C137.52 208.903 137.223 208.819 136.974 208.65C136.732 208.474 136.431 208.166 136.072 207.726L131.782 202.6H131.441L131.441 206.307C131.441 206.784 131.426 207.125 131.397 207.33C131.375 207.528 131.309 207.737 131.199 207.957C131.059 208.236 130.836 208.463 130.528 208.639C130.227 208.815 129.886 208.903 129.505 208.903C129.123 208.903 128.779 208.815 128.471 208.639C128.17 208.463 127.95 208.236 127.811 207.957C127.701 207.737 127.631 207.528 127.602 207.33C127.58 207.125 127.569 206.784 127.569 206.307ZM143.826 208.815H143.518C143.1 208.815 142.796 208.804 142.605 208.782C142.414 208.753 142.227 208.694 142.044 208.606C141.795 208.489 141.593 208.295 141.439 208.023C141.285 207.745 141.208 207.437 141.208 207.099C141.208 206.762 141.285 206.458 141.439 206.186C141.593 205.908 141.795 205.71 142.044 205.592C142.33 205.453 142.781 205.383 143.397 205.383C143.837 205.383 144.152 205.207 144.343 204.855L141.021 196.099C140.874 195.703 140.772 195.395 140.713 195.175C140.662 194.948 140.662 194.695 140.713 194.416C140.772 194.13 140.918 193.87 141.153 193.635C141.534 193.254 141.996 193.063 142.539 193.063C142.979 193.063 143.342 193.195 143.628 193.459C143.782 193.599 143.907 193.76 144.002 193.943C144.097 194.119 144.226 194.42 144.387 194.845L146.246 199.894L148.105 194.845C148.266 194.42 148.395 194.119 148.49 193.943C148.585 193.76 148.71 193.599 148.864 193.459C149.15 193.195 149.513 193.063 149.953 193.063C150.496 193.063 150.958 193.254 151.339 193.635C151.574 193.87 151.717 194.13 151.768 194.416C151.827 194.695 151.827 194.948 151.768 195.175C151.717 195.395 151.618 195.703 151.471 196.099L147.918 205.603C147.544 206.601 147.016 207.385 146.334 207.957C145.652 208.529 144.816 208.815 143.826 208.815ZM152.984 202.523C152.977 202.164 152.973 201.651 152.973 200.983C152.973 200.316 152.977 199.806 152.984 199.454C152.999 199.095 153.032 198.655 153.083 198.134C153.142 197.606 153.222 197.177 153.325 196.847C153.435 196.51 153.596 196.151 153.809 195.769C154.022 195.388 154.282 195.043 154.59 194.735C155.734 193.591 157.175 193.019 158.913 193.019C159.874 193.019 160.651 193.111 161.245 193.294C161.839 193.47 162.378 193.775 162.862 194.207C163.397 194.691 163.779 195.194 164.006 195.714C164.233 196.228 164.347 196.693 164.347 197.111C164.347 197.727 164.167 198.215 163.808 198.574C163.449 198.934 163.005 199.113 162.477 199.113C162.066 199.113 161.722 199.014 161.443 198.816C161.12 198.596 160.779 198.167 160.42 197.529C160.2 197.141 159.965 196.866 159.716 196.704C159.474 196.536 159.177 196.451 158.825 196.451C158.246 196.451 157.784 196.679 157.439 197.133C157.204 197.441 157.047 197.848 156.966 198.354C156.885 198.853 156.845 199.729 156.845 200.983C156.845 202.237 156.885 203.117 156.966 203.623C157.047 204.122 157.204 204.525 157.439 204.833C157.784 205.288 158.246 205.515 158.825 205.515C159.177 205.515 159.474 205.435 159.716 205.273C159.965 205.105 160.2 204.826 160.42 204.437C160.779 203.799 161.12 203.37 161.443 203.15C161.722 202.952 162.066 202.853 162.477 202.853C163.005 202.853 163.449 203.033 163.808 203.392C164.167 203.752 164.347 204.239 164.347 204.855C164.347 205.273 164.233 205.743 164.006 206.263C163.779 206.777 163.397 207.275 162.862 207.759C162.378 208.192 161.839 208.5 161.245 208.683C160.651 208.859 159.874 208.947 158.913 208.947C157.175 208.947 155.734 208.375 154.59 207.231C154.282 206.923 154.022 206.579 153.809 206.197C153.596 205.816 153.435 205.46 153.325 205.13C153.222 204.793 153.142 204.364 153.083 203.843C153.032 203.315 152.999 202.875 152.984 202.523ZM165.771 205.867L169.951 194.768C170.186 194.152 170.453 193.727 170.754 193.492C171.113 193.206 171.568 193.063 172.118 193.063C172.668 193.063 173.123 193.206 173.482 193.492C173.783 193.727 174.05 194.152 174.285 194.768L178.465 205.867C178.612 206.263 178.711 206.575 178.762 206.802C178.821 207.022 178.821 207.275 178.762 207.561C178.711 207.84 178.568 208.097 178.333 208.331C177.952 208.713 177.49 208.903 176.947 208.903C176.507 208.903 176.144 208.771 175.858 208.507C175.697 208.361 175.565 208.196 175.462 208.012C175.367 207.829 175.246 207.532 175.099 207.121L174.868 206.483H169.368L169.137 207.121C168.99 207.532 168.866 207.829 168.763 208.012C168.668 208.196 168.539 208.361 168.378 208.507C168.092 208.771 167.729 208.903 167.289 208.903C166.746 208.903 166.284 208.713 165.903 208.331C165.668 208.097 165.522 207.84 165.463 207.561C165.412 207.275 165.412 207.022 165.463 206.802C165.522 206.575 165.624 206.263 165.771 205.867ZM173.702 203.271L172.118 198.915L170.534 203.271H173.702Z" fill="white"/>
<g clip-path="url(#clip0_244_45)">
<path fill-rule="evenodd" clip-rule="evenodd" d="M144.219 142.041C150.758 142.786 156.223 113.687 157.125 107.135C157.448 104.792 157.788 102.468 158.068 100.159C158.225 98.8646 158.849 93.8158 158.679 92.8154L148.6 92.7798C148.208 94.2738 148.75 97.3195 148.488 98.9046C148.314 99.9562 147.479 99.9406 146.458 99.934L114.981 99.9317C113.908 99.9384 112.91 100.087 112.648 99.0402C112.29 97.6019 112.894 94.3871 112.509 92.8154L102.433 92.7842C102.157 94.2893 103.068 99.9606 103.239 101.797C104.136 111.43 108.506 134.631 114.663 140.972C117.374 143.764 118.01 140.729 119.013 137.379C121.249 129.907 123.266 109.42 129.085 106.926C136.529 103.733 139.352 121.512 140.084 125.925C140.315 127.317 140.623 128.773 140.859 130.185C141.315 132.944 142.576 140.505 144.219 142.043V142.041Z" fill="white"/>
<path fill-rule="evenodd" clip-rule="evenodd" d="M115.015 89.86L119.9 89.8933C120.012 95.9115 119.089 95.5424 123.289 95.5447C127.534 95.5469 126.56 95.8092 126.679 89.86L132.994 89.9045C133.021 91.2206 132.873 93.1014 133.005 94.3286C133.175 95.9226 134.877 95.5002 136.388 95.5002C138.027 95.5002 139.567 95.8225 139.773 94.333C139.921 93.2703 139.764 91.0939 139.782 89.86L146.1 89.8978L146.097 97.5233L115.003 97.4855L115.01 89.8622L115.015 89.86ZM158.07 100.158C157.791 102.465 157.45 104.791 157.128 107.134C156.226 113.688 150.761 142.787 144.221 142.04C142.578 140.502 141.32 132.943 140.861 130.182C140.626 128.77 140.317 127.314 140.086 125.922C139.354 121.509 136.531 103.73 129.087 106.923C123.269 109.417 121.254 129.904 119.015 137.376C118.012 140.726 117.377 143.761 114.665 140.969C108.509 134.628 104.139 111.427 103.241 101.794C103.069 99.9554 102.157 94.2863 102.435 92.7812L112.512 92.8124C112.897 94.3864 112.292 97.5989 112.651 99.0373C112.912 100.084 113.911 99.9354 114.983 99.9288L146.46 99.931C147.481 99.9376 148.316 99.9532 148.491 98.9016C148.755 97.3165 148.213 94.273 148.603 92.7768L158.682 92.8124C158.852 93.8128 158.227 98.8616 158.07 100.156V100.158ZM122.237 83.9174L124.46 83.9152L124.473 93.3126L122.248 93.2926L122.239 83.9152L122.237 83.9174ZM135.47 84.202C136.095 84.0709 136.657 84.0375 137.263 84.2532L137.254 92.968C136.663 93.1636 136.093 93.1414 135.443 93.0102L135.47 84.202ZM91.7563 86.9699C92.448 86.7187 110.963 86.6964 112.709 86.8765L112.707 90.3469C110.877 90.5025 92.4503 90.4914 91.7137 90.249L91.7563 86.9721V86.9699ZM148.397 86.8365L169.316 86.8876L169.376 89.7444C169.278 90.5558 169.204 90.3758 168.344 90.3758C163.378 90.3758 152.711 90.5714 148.401 90.3424L148.406 87.6591L148.399 86.8365H148.397ZM114.999 79.689L146.106 79.729L146.1 87.3589L139.784 87.33C139.67 82.1611 140.783 81.512 136.39 81.5142C131.951 81.5164 133.142 81.8477 132.999 87.3567L126.681 87.3167C126.517 81.8966 127.682 81.512 123.289 81.512C118.919 81.512 120.036 81.9588 119.9 87.3567L115.003 87.3211L114.999 79.6868V79.689ZM102.325 84.351C102.046 78.4751 105.388 69.6736 110.459 66.0187C118.384 60.3096 123.403 68.2196 130.639 68.2196C134.158 68.2196 137.707 66.012 140.577 64.8271C147.875 61.8169 153.759 67.2214 156.454 73.5797C157.6 76.2831 158.923 81.0518 158.782 84.3754L148.529 84.331C148.195 78.2706 149.704 77.2235 146.138 77.2457L117.858 77.2479C116.241 77.2479 113.002 76.7033 112.644 78.1817C112.391 79.2243 112.662 82.9081 112.574 84.3732L102.325 84.351ZM130.142 109.377C135.161 108.757 137.44 126.698 138.273 130.962C138.998 134.677 139.668 139.699 141.354 142.692C143.984 147.358 148.332 143.438 150.089 140.775C155.176 133.065 158.704 116.218 159.926 106.058C160.058 104.962 161.509 92.9769 161.523 92.9524C162.635 92.53 167.22 92.8168 168.821 92.819C170.115 92.8213 171.149 92.988 171.646 92.0676C171.946 91.5118 171.915 85.6404 171.657 85.138C170.766 83.395 164.164 85.1669 161.677 84.262C161.164 82.6658 161.554 78.5618 158.894 72.4703C157.41 69.0711 155.205 65.9853 152.628 64.0712C149.877 62.0259 145.596 60.443 141.172 61.7657C138.027 62.7084 133.733 65.6896 130.184 65.5096C126.273 65.165 123.166 62.555 119.474 61.6079C111.585 59.5826 105.263 65.4495 102.191 72.4103C99.6143 78.2461 99.7934 83.1082 99.4061 84.2309L99.1352 84.3132C98.9203 84.3532 98.9404 84.3599 98.6897 84.3776C98.4255 84.3954 98.0046 84.3754 97.7248 84.3732L92.2936 84.371C88.866 84.3688 89.2488 84.5222 89.2488 88.6106C89.2488 94.5576 89.1235 92.4255 98.6941 92.8302L99.5561 92.9991C99.8628 93.8706 100.064 98.2547 100.243 99.6531C101.703 111.078 105.126 132.154 110.77 140.544C112.973 143.819 116.864 146.967 119.541 143.116C121.109 140.862 122.501 135.173 123.112 131.954C123.862 128.001 124.722 123.648 125.691 119.733C126.56 116.227 127.724 110.92 130.142 109.375V109.377Z" fill="#4D4D4D"/>
<path fill-rule="evenodd" clip-rule="evenodd" d="M102.325 84.3536L112.574 84.3759C112.662 82.9108 112.391 79.227 112.644 78.1843C113.002 76.7059 116.241 77.2506 117.858 77.2506L146.138 77.2484C149.704 77.2284 148.195 78.2755 148.529 84.3336L158.782 84.3781C158.923 81.0545 157.6 76.2857 156.454 73.5824C153.758 67.2263 147.877 61.8196 140.577 64.8297C137.709 66.0125 134.158 68.2223 130.639 68.2223C123.403 68.2223 118.384 60.3122 110.459 66.0213C105.388 69.6762 102.045 78.4778 102.325 84.3536Z" fill="white"/>
<path fill-rule="evenodd" clip-rule="evenodd" d="M115.008 97.4812L146.102 97.519L146.104 89.8935L139.786 89.8557C139.766 91.0896 139.923 93.2661 139.777 94.3287C139.571 95.8183 138.031 95.4959 136.392 95.4959C134.879 95.4959 133.18 95.9183 133.009 94.3243C132.877 93.0971 133.025 91.2185 132.998 89.9002L126.683 89.8557C126.564 95.8049 127.536 95.5426 123.293 95.5404C119.093 95.5381 120.016 95.9094 119.904 89.8891L115.019 89.8557L115.012 97.479L115.008 97.4812Z" fill="#B2B2B2"/>
<path fill-rule="evenodd" clip-rule="evenodd" d="M115.003 87.3236L119.899 87.3591C120.038 81.9613 118.919 81.5144 123.289 81.5144C127.681 81.5144 126.517 81.899 126.681 87.3191L132.998 87.3591C133.142 81.8501 131.951 81.5189 136.39 81.5166C140.782 81.5144 139.67 82.1614 139.784 87.3325L146.1 87.3614L146.106 79.7314L114.999 79.6914L115.003 87.3258V87.3236Z" fill="#B2B2B2"/>
<path fill-rule="evenodd" clip-rule="evenodd" d="M91.7158 90.2477C92.4546 90.4923 110.88 90.5012 112.709 90.3455L112.711 86.8744C110.965 86.6965 92.4501 86.7165 91.7584 86.9678L91.7158 90.2455V90.2477Z" fill="#E32E16"/>
<path fill-rule="evenodd" clip-rule="evenodd" d="M148.405 87.6587L148.401 90.3427C152.71 90.5739 163.378 90.3782 168.344 90.376C169.205 90.376 169.277 90.5583 169.376 89.7445L169.315 86.8871L148.396 86.8359L148.403 87.6587H148.405Z" fill="#E32E16"/>
<path fill-rule="evenodd" clip-rule="evenodd" d="M122.248 93.2926L124.47 93.3126L124.459 83.9153L122.236 83.9175L122.248 93.2926Z" fill="white"/>
<path fill-rule="evenodd" clip-rule="evenodd" d="M135.443 93.0105C136.092 93.1417 136.662 93.1639 137.253 92.9683L137.262 84.2534C136.656 84.04 136.094 84.0733 135.469 84.2023L135.443 93.0105Z" fill="white"/>
</g>
<path d="M130.827 1.26339L130.551 1.10397L130.275 1.26339L65.5506 38.693L65.8262 39.1697L65.5504 38.6931L0.825834 76.1502L0.550968 76.3092L0.550968 76.6268L0.550971 151.486L0.550974 226.373L0.550974 226.69L0.82584 226.849L65.5504 264.306L65.5506 264.306L130.275 301.736L130.551 301.895L130.827 301.736L195.551 264.306L195.551 264.306L260.276 226.849L260.551 226.69L260.551 226.373L260.551 151.486L260.551 76.6268L260.551 76.3092L260.276 76.1502L195.551 38.6931L195.275 39.1697L195.551 38.693L130.827 1.26339Z" stroke="#024FA2" stroke-width="1.10141"/>
<defs>
<clipPath id="clip0_244_45">
<rect width="82.6271" height="83.6892" fill="white" transform="translate(89.2372 61.2036)"/>
</clipPath>
</defs>
</svg>
