<?xml version="1.0" encoding="UTF-8"?> <svg xmlns="http://www.w3.org/2000/svg" width="237" height="276" viewBox="0 0 237 276" fill="none"> <path d="M67.4983 48.9747L67.4988 48.9744L119 19.3081L170.501 48.9744L170.502 48.9747L222 78.6612L222 137.989L222 197.339L170.502 227.025L170.501 227.026L119 256.692L67.4988 227.026L67.4983 227.025L16 197.339L16 137.989L16 78.6611L67.4983 48.9747Z" fill="#024FA2" stroke="#4D4D4D" stroke-width="4"></path> <path d="M118.75 1.56719L118.5 1.42233L118.25 1.56719L59.4996 35.5579L59.4995 35.558L0.74946 69.5735L0.499991 69.718L0.499991 70.0062L0.499994 137.988L0.499997 205.994L0.499997 206.282L0.749466 206.426L59.4995 240.442L59.4996 240.442L118.25 274.433L118.5 274.578L118.75 274.433L177.5 240.442L177.501 240.442L236.251 206.426L236.5 206.282L236.5 205.994L236.5 137.988L236.5 70.0062L236.5 69.718L236.251 69.5735L177.501 35.5579L177.5 35.5579L118.75 1.56719Z" stroke="#024FA2"></path> </svg> 