<svg width="262" height="303" viewBox="0 0 262 303" fill="none" xmlns="http://www.w3.org/2000/svg">
<path d="M73.2601 53.7279L73.2607 53.7276L130 21.0594L186.739 53.7276L186.74 53.7279L243.475 86.4177L243.475 151.747L243.475 217.101L186.74 249.791L186.739 249.791L130 282.46L73.2607 249.791L73.2601 249.791L16.5248 217.101L16.5248 151.747L16.5248 86.4177L73.2601 53.7279Z" fill="#F8F8F8" stroke="#4D4D4D" stroke-width="4.40566"/>
<path d="M49.8043 189.948L49.8043 180.224H45.7123L45.7123 189.948C45.7123 190.424 45.6976 190.765 45.6683 190.971C45.6463 191.169 45.5803 191.378 45.4703 191.598C45.331 191.876 45.1073 192.104 44.7993 192.28C44.4986 192.456 44.1576 192.544 43.7763 192.544C43.395 192.544 43.0503 192.456 42.7423 192.28C42.4416 192.104 42.2216 191.876 42.0823 191.598C41.9723 191.378 41.9026 191.169 41.8733 190.971C41.8513 190.765 41.8403 190.424 41.8403 189.948L41.8403 179.157C41.8403 178.893 41.844 178.684 41.8513 178.53C41.866 178.376 41.9136 178.181 41.9943 177.947C42.0823 177.705 42.2106 177.499 42.3793 177.331C42.548 177.162 42.7496 177.037 42.9843 176.957C43.2263 176.869 43.4243 176.821 43.5783 176.814C43.7323 176.799 43.9413 176.792 44.2053 176.792H51.3113C51.5753 176.792 51.7843 176.799 51.9383 176.814C52.0923 176.821 52.2866 176.869 52.5213 176.957C52.7633 177.037 52.9686 177.162 53.1373 177.331C53.306 177.499 53.4306 177.705 53.5113 177.947C53.5993 178.181 53.647 178.376 53.6543 178.53C53.669 178.684 53.6763 178.893 53.6763 179.157L53.6763 189.948C53.6763 190.424 53.6616 190.765 53.6323 190.971C53.6103 191.169 53.5443 191.378 53.4343 191.598C53.295 191.876 53.0713 192.104 52.7633 192.28C52.4626 192.456 52.1216 192.544 51.7403 192.544C51.359 192.544 51.0143 192.456 50.7063 192.28C50.4056 192.104 50.1856 191.876 50.0463 191.598C49.9363 191.378 49.8666 191.169 49.8373 190.971C49.8153 190.765 49.8043 190.424 49.8043 189.948ZM56.7934 189.948L56.7934 179.157C56.7934 178.893 56.7971 178.684 56.8044 178.53C56.8191 178.376 56.8668 178.181 56.9474 177.947C57.0354 177.705 57.1638 177.499 57.3324 177.331C57.5011 177.162 57.7028 177.037 57.9374 176.957C58.1794 176.869 58.3774 176.821 58.5314 176.814C58.6854 176.799 58.8944 176.792 59.1584 176.792H63.0194C63.8628 176.792 64.6291 176.935 65.3184 177.221C66.0078 177.499 66.5688 177.877 67.0014 178.354C67.4414 178.823 67.7788 179.358 68.0134 179.96C68.2481 180.554 68.3654 181.177 68.3654 181.83C68.3654 182.482 68.2481 183.109 68.0134 183.711C67.7788 184.305 67.4414 184.84 67.0014 185.317C66.5688 185.786 66.0078 186.164 65.3184 186.45C64.6291 186.728 63.8628 186.868 63.0194 186.868H60.6654L60.6654 189.948C60.6654 190.424 60.6508 190.765 60.6214 190.971C60.5994 191.169 60.5334 191.378 60.4234 191.598C60.2841 191.876 60.0604 192.104 59.7524 192.28C59.4518 192.456 59.1108 192.544 58.7294 192.544C58.3481 192.544 58.0034 192.456 57.6954 192.28C57.3948 192.104 57.1748 191.876 57.0354 191.598C56.9254 191.378 56.8558 191.169 56.8264 190.971C56.8044 190.765 56.7934 190.424 56.7934 189.948ZM60.6654 183.436H62.8434C63.3494 183.436 63.7528 183.278 64.0534 182.963C64.3614 182.64 64.5154 182.262 64.5154 181.83C64.5154 181.397 64.3614 181.023 64.0534 180.708C63.7528 180.385 63.3494 180.224 62.8434 180.224H60.6654L60.6654 183.436ZM80.4314 190.872C79.8521 191.451 79.2104 191.884 78.5064 192.17C77.8097 192.448 76.9957 192.588 76.0644 192.588C75.1331 192.588 74.3154 192.448 73.6114 192.17C72.9147 191.884 72.2767 191.451 71.6974 190.872C71.3894 190.564 71.1291 190.219 70.9164 189.838C70.7037 189.456 70.5424 189.101 70.4324 188.771C70.3297 188.433 70.2491 188.004 70.1904 187.484C70.1391 186.956 70.1061 186.516 70.0914 186.164C70.0841 185.804 70.0804 185.291 70.0804 184.624C70.0804 183.956 70.0841 183.447 70.0914 183.095C70.1061 182.735 70.1391 182.295 70.1904 181.775C70.2491 181.247 70.3297 180.818 70.4324 180.488C70.5424 180.15 70.7037 179.791 70.9164 179.41C71.1291 179.028 71.3894 178.684 71.6974 178.376C72.2767 177.796 72.9147 177.367 73.6114 177.089C74.3154 176.803 75.1331 176.66 76.0644 176.66C76.9957 176.66 77.8097 176.803 78.5064 177.089C79.2104 177.367 79.8521 177.796 80.4314 178.376C80.7394 178.684 80.9997 179.028 81.2124 179.41C81.4251 179.791 81.5827 180.15 81.6854 180.488C81.7954 180.818 81.8761 181.247 81.9274 181.775C81.9861 182.295 82.0191 182.735 82.0264 183.095C82.0411 183.447 82.0484 183.956 82.0484 184.624C82.0484 185.291 82.0411 185.804 82.0264 186.164C82.0191 186.516 81.9861 186.956 81.9274 187.484C81.8761 188.004 81.7954 188.433 81.6854 188.771C81.5827 189.101 81.4251 189.456 81.2124 189.838C80.9997 190.219 80.7394 190.564 80.4314 190.872ZM77.6044 188.452C77.8097 188.18 77.9564 187.803 78.0444 187.319C78.1324 186.835 78.1764 185.936 78.1764 184.624C78.1764 183.311 78.1324 182.409 78.0444 181.918C77.9564 181.419 77.8097 181.038 77.6044 180.774C77.4504 180.576 77.2377 180.414 76.9664 180.29C76.7024 180.158 76.4017 180.092 76.0644 180.092C75.7271 180.092 75.4227 180.158 75.1514 180.29C74.8874 180.414 74.6784 180.576 74.5244 180.774C74.3191 181.038 74.1724 181.419 74.0844 181.918C73.9964 182.409 73.9524 183.311 73.9524 184.624C73.9524 185.936 73.9964 186.835 74.0844 187.319C74.1724 187.803 74.3191 188.18 74.5244 188.452C74.8837 188.921 75.3971 189.156 76.0644 189.156C76.7317 189.156 77.2451 188.921 77.6044 188.452ZM90.6097 190.74L90.6097 190.718C86.1877 190.527 83.9767 188.342 83.9767 184.162C83.9767 179.982 86.195 177.796 90.6317 177.606L90.6317 177.584C90.6463 177.356 90.7197 177.114 90.8517 176.858C90.991 176.579 91.211 176.352 91.5117 176.176C91.8197 176 92.1643 175.912 92.5457 175.912C92.927 175.912 93.268 176 93.5687 176.176C93.8767 176.352 94.1003 176.579 94.2397 176.858C94.357 177.107 94.4303 177.349 94.4597 177.584L94.4597 177.606C98.8963 177.796 101.115 179.982 101.115 184.162C101.115 188.342 98.9 190.527 94.4707 190.718L94.4707 190.74C94.4633 191.114 94.3863 191.444 94.2397 191.73C94.1003 192.008 93.8767 192.236 93.5687 192.412C93.268 192.588 92.927 192.676 92.5457 192.676C92.1643 192.676 91.8197 192.588 91.5117 192.412C91.211 192.236 90.991 192.008 90.8517 191.73C90.7123 191.444 90.6317 191.114 90.6097 190.74ZM94.4047 180.862L94.4047 187.462C95.4167 187.396 96.1463 187.11 96.5937 186.604C97.041 186.098 97.2647 185.284 97.2647 184.162C97.2647 183.04 97.041 182.226 96.5937 181.72C96.1463 181.214 95.4167 180.928 94.4047 180.862ZM90.6867 187.462L90.6867 180.862C89.6747 180.928 88.945 181.214 88.4977 181.72C88.0503 182.226 87.8267 183.04 87.8267 184.162C87.8267 185.284 88.0503 186.098 88.4977 186.604C88.945 187.11 89.6747 187.396 90.6867 187.462ZM115.841 189.948C115.841 190.424 115.826 190.765 115.797 190.971C115.775 191.169 115.709 191.378 115.599 191.598C115.46 191.876 115.236 192.104 114.928 192.28C114.627 192.456 114.286 192.544 113.905 192.544C113.524 192.544 113.179 192.456 112.871 192.28C112.57 192.104 112.35 191.876 112.211 191.598C112.101 191.378 112.031 191.169 112.002 190.971C111.98 190.765 111.969 190.424 111.969 189.948L111.969 184.14L107.756 190.773C107.338 191.425 106.96 191.884 106.623 192.148C106.293 192.412 105.901 192.544 105.446 192.544C104.903 192.544 104.449 192.36 104.082 191.994C103.877 191.788 103.737 191.539 103.664 191.246C103.598 190.952 103.565 190.589 103.565 190.157L103.565 179.3C103.565 178.823 103.576 178.486 103.598 178.288C103.627 178.082 103.697 177.87 103.807 177.65C103.946 177.371 104.166 177.144 104.467 176.968C104.775 176.792 105.12 176.704 105.501 176.704C105.882 176.704 106.223 176.792 106.524 176.968C106.832 177.144 107.056 177.371 107.195 177.65C107.305 177.87 107.371 178.082 107.393 178.288C107.422 178.486 107.437 178.823 107.437 179.3L107.437 185.108L111.65 178.475C112.068 177.822 112.442 177.364 112.772 177.1C113.109 176.836 113.505 176.704 113.96 176.704C114.503 176.704 114.957 176.887 115.324 177.254C115.529 177.459 115.665 177.708 115.731 178.002C115.804 178.295 115.841 178.658 115.841 179.091L115.841 189.948ZM128.165 189.948L128.165 180.224H125.437L125.437 184.316C125.437 185.621 125.368 186.743 125.228 187.682C125.096 188.62 124.902 189.398 124.645 190.014C124.396 190.63 124.059 191.117 123.633 191.477C123.215 191.836 122.75 192.089 122.236 192.236C121.723 192.382 121.111 192.456 120.399 192.456C119.908 192.456 119.56 192.445 119.354 192.423C119.149 192.393 118.955 192.335 118.771 192.247C118.529 192.129 118.328 191.931 118.166 191.653C118.012 191.374 117.935 191.066 117.935 190.729C117.935 190.215 118.097 189.797 118.419 189.475C118.705 189.189 119.127 189.035 119.684 189.013C119.963 188.998 120.209 188.936 120.421 188.826C120.634 188.708 120.81 188.569 120.949 188.408C121.096 188.239 121.217 188.015 121.312 187.737C121.415 187.458 121.492 187.198 121.543 186.956C121.595 186.714 121.635 186.402 121.664 186.021C121.694 185.639 121.708 185.317 121.708 185.053C121.716 184.789 121.719 184.448 121.719 184.03L121.719 179.157C121.719 178.893 121.723 178.684 121.73 178.53C121.745 178.376 121.793 178.181 121.873 177.947C121.961 177.705 122.09 177.499 122.258 177.331C122.427 177.162 122.629 177.037 122.863 176.957C123.105 176.869 123.303 176.821 123.457 176.814C123.611 176.799 123.82 176.792 124.084 176.792H129.672C129.936 176.792 130.145 176.799 130.299 176.814C130.453 176.821 130.648 176.869 130.882 176.957C131.124 177.037 131.33 177.162 131.498 177.331C131.667 177.499 131.792 177.705 131.872 177.947C131.96 178.181 132.008 178.376 132.015 178.53C132.03 178.684 132.037 178.893 132.037 179.157L132.037 189.948C132.037 190.424 132.023 190.765 131.993 190.971C131.971 191.169 131.905 191.378 131.795 191.598C131.656 191.876 131.432 192.104 131.124 192.28C130.824 192.456 130.483 192.544 130.101 192.544C129.72 192.544 129.375 192.456 129.067 192.28C128.767 192.104 128.547 191.876 128.407 191.598C128.297 191.378 128.228 191.169 128.198 190.971C128.176 190.765 128.165 190.424 128.165 189.948ZM134.376 189.508L138.556 178.409C138.791 177.793 139.059 177.367 139.359 177.133C139.719 176.847 140.173 176.704 140.723 176.704C141.273 176.704 141.728 176.847 142.087 177.133C142.388 177.367 142.656 177.793 142.89 178.409L147.07 189.508C147.217 189.904 147.316 190.215 147.367 190.443C147.426 190.663 147.426 190.916 147.367 191.202C147.316 191.48 147.173 191.737 146.938 191.972C146.557 192.353 146.095 192.544 145.552 192.544C145.112 192.544 144.749 192.412 144.463 192.148C144.302 192.001 144.17 191.836 144.067 191.653C143.972 191.469 143.851 191.172 143.704 190.762L143.473 190.124H137.973L137.742 190.762C137.596 191.172 137.471 191.469 137.368 191.653C137.273 191.836 137.145 192.001 136.983 192.148C136.697 192.412 136.334 192.544 135.894 192.544C135.352 192.544 134.89 192.353 134.508 191.972C134.274 191.737 134.127 191.48 134.068 191.202C134.017 190.916 134.017 190.663 134.068 190.443C134.127 190.215 134.23 189.904 134.376 189.508ZM142.307 186.912L140.723 182.556L139.139 186.912H142.307ZM149.413 189.948L149.413 179.3C149.413 178.823 149.424 178.486 149.446 178.288C149.475 178.082 149.545 177.87 149.655 177.65C149.794 177.371 150.014 177.144 150.315 176.968C150.623 176.792 150.967 176.704 151.349 176.704C151.73 176.704 152.071 176.792 152.372 176.968C152.68 177.144 152.903 177.371 153.043 177.65C153.153 177.87 153.219 178.082 153.241 178.288C153.27 178.486 153.285 178.823 153.285 179.3L153.285 182.611H153.626L157.575 177.881C157.934 177.441 158.235 177.136 158.477 176.968C158.726 176.792 159.023 176.704 159.368 176.704C159.786 176.704 160.174 176.854 160.534 177.155C160.981 177.529 161.205 177.965 161.205 178.464C161.205 178.757 161.146 179.025 161.029 179.267C160.911 179.501 160.684 179.809 160.347 180.191L156.706 184.294L160.688 189.057C161.025 189.453 161.252 189.768 161.37 190.003C161.487 190.237 161.546 190.498 161.546 190.784C161.546 191.282 161.322 191.719 160.875 192.093C160.515 192.393 160.127 192.544 159.709 192.544C159.364 192.544 159.067 192.459 158.818 192.291C158.576 192.115 158.275 191.807 157.916 191.367L153.626 186.241H153.285L153.285 189.948C153.285 190.424 153.27 190.765 153.241 190.971C153.219 191.169 153.153 191.378 153.043 191.598C152.903 191.876 152.68 192.104 152.372 192.28C152.071 192.456 151.73 192.544 151.349 192.544C150.967 192.544 150.623 192.456 150.315 192.28C150.014 192.104 149.794 191.876 149.655 191.598C149.545 191.378 149.475 191.169 149.446 190.971C149.424 190.765 149.413 190.424 149.413 189.948ZM166.55 189.948L166.55 180.224H164.933C164.515 180.224 164.21 180.213 164.02 180.191C163.829 180.161 163.642 180.103 163.459 180.015C163.209 179.897 163.008 179.703 162.854 179.432C162.7 179.153 162.623 178.845 162.623 178.508C162.623 178.17 162.7 177.866 162.854 177.595C163.008 177.316 163.209 177.118 163.459 177.001C163.642 176.913 163.829 176.858 164.02 176.836C164.21 176.806 164.515 176.792 164.933 176.792H172.039C172.457 176.792 172.761 176.806 172.952 176.836C173.142 176.858 173.329 176.913 173.513 177.001C173.762 177.118 173.964 177.316 174.118 177.595C174.272 177.866 174.349 178.17 174.349 178.508C174.349 178.845 174.272 179.153 174.118 179.432C173.964 179.703 173.762 179.897 173.513 180.015C173.329 180.103 173.142 180.161 172.952 180.191C172.761 180.213 172.457 180.224 172.039 180.224H170.422L170.422 189.948C170.422 190.424 170.407 190.765 170.378 190.971C170.356 191.169 170.29 191.378 170.18 191.598C170.04 191.876 169.817 192.104 169.509 192.28C169.208 192.456 168.867 192.544 168.486 192.544C168.104 192.544 167.76 192.456 167.452 192.28C167.151 192.104 166.931 191.876 166.792 191.598C166.682 191.378 166.612 191.169 166.583 190.971C166.561 190.765 166.55 190.424 166.55 189.948ZM188.716 189.948C188.716 190.424 188.701 190.765 188.672 190.971C188.65 191.169 188.584 191.378 188.474 191.598C188.335 191.876 188.111 192.104 187.803 192.28C187.502 192.456 187.161 192.544 186.78 192.544C186.399 192.544 186.054 192.456 185.746 192.28C185.445 192.104 185.225 191.876 185.086 191.598C184.976 191.378 184.906 191.169 184.877 190.971C184.855 190.765 184.844 190.424 184.844 189.948L184.844 184.14L180.631 190.773C180.213 191.425 179.835 191.884 179.498 192.148C179.168 192.412 178.776 192.544 178.321 192.544C177.778 192.544 177.324 192.36 176.957 191.994C176.752 191.788 176.612 191.539 176.539 191.246C176.473 190.952 176.44 190.589 176.44 190.157L176.44 179.3C176.44 178.823 176.451 178.486 176.473 178.288C176.502 178.082 176.572 177.87 176.682 177.65C176.821 177.371 177.041 177.144 177.342 176.968C177.65 176.792 177.995 176.704 178.376 176.704C178.757 176.704 179.098 176.792 179.399 176.968C179.707 177.144 179.931 177.371 180.07 177.65C180.18 177.87 180.246 178.082 180.268 178.288C180.297 178.486 180.312 178.823 180.312 179.3L180.312 185.108L184.525 178.475C184.943 177.822 185.317 177.364 185.647 177.1C185.984 176.836 186.38 176.704 186.835 176.704C187.378 176.704 187.832 176.887 188.199 177.254C188.404 177.459 188.54 177.708 188.606 178.002C188.679 178.295 188.716 178.658 188.716 179.091L188.716 189.948ZM191.844 189.948L191.844 179.3C191.844 178.823 191.855 178.486 191.877 178.288C191.907 178.082 191.976 177.87 192.086 177.65C192.226 177.371 192.446 177.144 192.746 176.968C193.054 176.792 193.399 176.704 193.78 176.704C194.162 176.704 194.503 176.792 194.803 176.968C195.111 177.144 195.335 177.371 195.474 177.65C195.584 177.87 195.65 178.082 195.672 178.288C195.702 178.486 195.716 178.823 195.716 179.3L195.716 182.611H196.057L200.006 177.881C200.366 177.441 200.666 177.136 200.908 176.968C201.158 176.792 201.455 176.704 201.799 176.704C202.217 176.704 202.606 176.854 202.965 177.155C203.413 177.529 203.636 177.965 203.636 178.464C203.636 178.757 203.578 179.025 203.46 179.267C203.343 179.501 203.116 179.809 202.778 180.191L199.137 184.294L203.119 189.057C203.457 189.453 203.684 189.768 203.801 190.003C203.919 190.237 203.977 190.498 203.977 190.784C203.977 191.282 203.754 191.719 203.306 192.093C202.947 192.393 202.558 192.544 202.14 192.544C201.796 192.544 201.499 192.459 201.249 192.291C201.007 192.115 200.707 191.807 200.347 191.367L196.057 186.241H195.716L195.716 189.948C195.716 190.424 195.702 190.765 195.672 190.971C195.65 191.169 195.584 191.378 195.474 191.598C195.335 191.876 195.111 192.104 194.803 192.28C194.503 192.456 194.162 192.544 193.78 192.544C193.399 192.544 193.054 192.456 192.746 192.28C192.446 192.104 192.226 191.876 192.086 191.598C191.976 191.378 191.907 191.169 191.877 190.971C191.855 190.765 191.844 190.424 191.844 189.948ZM205.296 189.508L209.476 178.409C209.711 177.793 209.979 177.367 210.279 177.133C210.639 176.847 211.093 176.704 211.643 176.704C212.193 176.704 212.648 176.847 213.007 177.133C213.308 177.367 213.576 177.793 213.81 178.409L217.99 189.508C218.137 189.904 218.236 190.215 218.287 190.443C218.346 190.663 218.346 190.916 218.287 191.202C218.236 191.48 218.093 191.737 217.858 191.972C217.477 192.353 217.015 192.544 216.472 192.544C216.032 192.544 215.669 192.412 215.383 192.148C215.222 192.001 215.09 191.836 214.987 191.653C214.892 191.469 214.771 191.172 214.624 190.762L214.393 190.124H208.893L208.662 190.762C208.516 191.172 208.391 191.469 208.288 191.653C208.193 191.836 208.065 192.001 207.903 192.148C207.617 192.412 207.254 192.544 206.814 192.544C206.272 192.544 205.81 192.353 205.428 191.972C205.194 191.737 205.047 191.48 204.988 191.202C204.937 190.916 204.937 190.663 204.988 190.443C205.047 190.215 205.15 189.904 205.296 189.508ZM213.227 186.912L211.643 182.556L210.059 186.912H213.227ZM81.9087 217.948L81.9087 207.3C81.9087 206.823 81.9197 206.486 81.9417 206.288C81.971 206.082 82.0407 205.87 82.1507 205.65C82.29 205.371 82.51 205.144 82.8107 204.968C83.1187 204.792 83.4633 204.704 83.8447 204.704C84.226 204.704 84.567 204.792 84.8677 204.968C85.1757 205.144 85.3993 205.371 85.5387 205.65C85.6487 205.87 85.7147 206.082 85.7367 206.288C85.766 206.486 85.7807 206.823 85.7807 207.3L85.7807 210.611H86.1217L90.0707 205.881C90.43 205.441 90.7307 205.136 90.9727 204.968C91.222 204.792 91.519 204.704 91.8637 204.704C92.2817 204.704 92.6703 204.854 93.0297 205.155C93.477 205.529 93.7007 205.965 93.7007 206.464C93.7007 206.757 93.642 207.025 93.5247 207.267C93.4073 207.501 93.18 207.809 92.8427 208.191L89.2017 212.294L93.1837 217.057C93.521 217.453 93.7483 217.768 93.8657 218.003C93.983 218.237 94.0417 218.498 94.0417 218.784C94.0417 219.282 93.818 219.719 93.3707 220.093C93.0113 220.393 92.6227 220.544 92.2047 220.544C91.86 220.544 91.563 220.459 91.3137 220.291C91.0717 220.115 90.771 219.807 90.4117 219.367L86.1217 214.241H85.7807L85.7807 217.948C85.7807 218.424 85.766 218.765 85.7367 218.971C85.7147 219.169 85.6487 219.378 85.5387 219.598C85.3993 219.876 85.1757 220.104 84.8677 220.28C84.567 220.456 84.226 220.544 83.8447 220.544C83.4633 220.544 83.1187 220.456 82.8107 220.28C82.51 220.104 82.29 219.876 82.1507 219.598C82.0407 219.378 81.971 219.169 81.9417 218.971C81.9197 218.765 81.9087 218.424 81.9087 217.948ZM95.3608 217.508L99.5408 206.409C99.7755 205.793 100.043 205.367 100.344 205.133C100.703 204.847 101.158 204.704 101.708 204.704C102.258 204.704 102.712 204.847 103.072 205.133C103.372 205.367 103.64 205.793 103.875 206.409L108.055 217.508C108.201 217.904 108.3 218.215 108.352 218.443C108.41 218.663 108.41 218.916 108.352 219.202C108.3 219.48 108.157 219.737 107.923 219.972C107.541 220.353 107.079 220.544 106.537 220.544C106.097 220.544 105.734 220.412 105.448 220.148C105.286 220.001 105.154 219.836 105.052 219.653C104.956 219.469 104.835 219.172 104.689 218.762L104.458 218.124H98.9578L98.7268 218.762C98.5801 219.172 98.4555 219.469 98.3528 219.653C98.2575 219.836 98.1291 220.001 97.9678 220.148C97.6818 220.412 97.3188 220.544 96.8788 220.544C96.3361 220.544 95.8741 220.353 95.4928 219.972C95.2581 219.737 95.1115 219.48 95.0528 219.202C95.0015 218.916 95.0015 218.663 95.0528 218.443C95.1115 218.215 95.2141 217.904 95.3608 217.508ZM103.292 214.912L101.708 210.556L100.124 214.912H103.292ZM110.397 217.948L110.397 207.157C110.397 206.893 110.401 206.684 110.408 206.53C110.423 206.376 110.47 206.181 110.551 205.947C110.639 205.705 110.767 205.499 110.936 205.331C111.105 205.162 111.306 205.037 111.541 204.957C111.783 204.869 111.981 204.821 112.135 204.814C112.289 204.799 112.498 204.792 112.762 204.792H116.623C117.466 204.792 118.233 204.935 118.922 205.221C119.611 205.499 120.172 205.877 120.605 206.354C121.045 206.823 121.382 207.358 121.617 207.96C121.852 208.554 121.969 209.177 121.969 209.83C121.969 210.482 121.852 211.109 121.617 211.711C121.382 212.305 121.045 212.84 120.605 213.317C120.172 213.786 119.611 214.164 118.922 214.45C118.233 214.728 117.466 214.868 116.623 214.868H114.269L114.269 217.948C114.269 218.424 114.254 218.765 114.225 218.971C114.203 219.169 114.137 219.378 114.027 219.598C113.888 219.876 113.664 220.104 113.356 220.28C113.055 220.456 112.714 220.544 112.333 220.544C111.952 220.544 111.607 220.456 111.299 220.28C110.998 220.104 110.778 219.876 110.639 219.598C110.529 219.378 110.459 219.169 110.43 218.971C110.408 218.765 110.397 218.424 110.397 217.948ZM114.269 211.436H116.447C116.953 211.436 117.356 211.278 117.657 210.963C117.965 210.64 118.119 210.262 118.119 209.83C118.119 209.397 117.965 209.023 117.657 208.708C117.356 208.385 116.953 208.224 116.447 208.224H114.269L114.269 211.436ZM136.466 217.948C136.466 218.424 136.451 218.765 136.422 218.971C136.4 219.169 136.334 219.378 136.224 219.598C136.085 219.876 135.861 220.104 135.553 220.28C135.252 220.456 134.911 220.544 134.53 220.544C134.149 220.544 133.804 220.456 133.496 220.28C133.195 220.104 132.975 219.876 132.836 219.598C132.726 219.378 132.656 219.169 132.627 218.971C132.605 218.765 132.594 218.424 132.594 217.948L132.594 212.14L128.381 218.773C127.963 219.425 127.585 219.884 127.248 220.148C126.918 220.412 126.526 220.544 126.071 220.544C125.528 220.544 125.074 220.36 124.707 219.994C124.502 219.788 124.362 219.539 124.289 219.246C124.223 218.952 124.19 218.589 124.19 218.157L124.19 207.3C124.19 206.823 124.201 206.486 124.223 206.288C124.252 206.082 124.322 205.87 124.432 205.65C124.571 205.371 124.791 205.144 125.092 204.968C125.4 204.792 125.745 204.704 126.126 204.704C126.507 204.704 126.848 204.792 127.149 204.968C127.457 205.144 127.681 205.371 127.82 205.65C127.93 205.87 127.996 206.082 128.018 206.288C128.047 206.486 128.062 206.823 128.062 207.3L128.062 213.108L132.275 206.475C132.693 205.822 133.067 205.364 133.397 205.1C133.734 204.836 134.13 204.704 134.585 204.704C135.128 204.704 135.582 204.887 135.949 205.254C136.154 205.459 136.29 205.708 136.356 206.002C136.429 206.295 136.466 206.658 136.466 207.091L136.466 217.948ZM148.064 220.456H141.959C141.695 220.456 141.486 220.452 141.332 220.445C141.178 220.43 140.98 220.382 140.738 220.302C140.504 220.214 140.302 220.085 140.133 219.917C139.965 219.748 139.836 219.546 139.748 219.312C139.668 219.07 139.62 218.872 139.605 218.718C139.598 218.564 139.594 218.355 139.594 218.091L139.594 207.157C139.594 206.893 139.598 206.684 139.605 206.53C139.62 206.376 139.668 206.181 139.748 205.947C139.836 205.705 139.965 205.499 140.133 205.331C140.302 205.162 140.504 205.037 140.738 204.957C140.98 204.869 141.178 204.821 141.332 204.814C141.486 204.799 141.695 204.792 141.959 204.792H148.064C148.482 204.792 148.787 204.806 148.977 204.836C149.168 204.858 149.355 204.913 149.538 205.001C149.788 205.118 149.989 205.316 150.143 205.595C150.297 205.866 150.374 206.17 150.374 206.508C150.374 206.845 150.297 207.153 150.143 207.432C149.989 207.703 149.788 207.897 149.538 208.015C149.355 208.103 149.168 208.161 148.977 208.191C148.787 208.213 148.482 208.224 148.064 208.224H143.466L143.466 210.842H147.074C147.492 210.842 147.797 210.856 147.987 210.886C148.178 210.908 148.365 210.963 148.548 211.051C148.798 211.168 148.999 211.366 149.153 211.645C149.307 211.916 149.384 212.22 149.384 212.558C149.384 212.895 149.307 213.203 149.153 213.482C148.999 213.753 148.798 213.947 148.548 214.065C148.365 214.153 148.178 214.211 147.987 214.241C147.797 214.263 147.492 214.274 147.074 214.274H143.466L143.466 217.024H148.064C148.482 217.024 148.787 217.038 148.977 217.068C149.168 217.09 149.355 217.145 149.538 217.233C149.788 217.35 149.989 217.548 150.143 217.827C150.297 218.098 150.374 218.402 150.374 218.74C150.374 219.077 150.297 219.385 150.143 219.664C149.989 219.935 149.788 220.129 149.538 220.247C149.355 220.335 149.168 220.393 148.977 220.423C148.787 220.445 148.482 220.456 148.064 220.456ZM152.441 214.164C152.434 213.804 152.43 213.291 152.43 212.624C152.43 211.956 152.434 211.447 152.441 211.095C152.456 210.735 152.489 210.295 152.54 209.775C152.599 209.247 152.679 208.818 152.782 208.488C152.892 208.15 153.053 207.791 153.266 207.41C153.479 207.028 153.739 206.684 154.047 206.376C155.191 205.232 156.632 204.66 158.37 204.66C159.331 204.66 160.108 204.751 160.702 204.935C161.296 205.111 161.835 205.415 162.319 205.848C162.854 206.332 163.236 206.834 163.463 207.355C163.69 207.868 163.804 208.334 163.804 208.752C163.804 209.368 163.624 209.855 163.265 210.215C162.906 210.574 162.462 210.754 161.934 210.754C161.523 210.754 161.179 210.655 160.9 210.457C160.577 210.237 160.236 209.808 159.877 209.17C159.657 208.781 159.422 208.506 159.173 208.345C158.931 208.176 158.634 208.092 158.282 208.092C157.703 208.092 157.241 208.319 156.896 208.774C156.661 209.082 156.504 209.489 156.423 209.995C156.342 210.493 156.302 211.37 156.302 212.624C156.302 213.878 156.342 214.758 156.423 215.264C156.504 215.762 156.661 216.166 156.896 216.474C157.241 216.928 157.703 217.156 158.282 217.156C158.634 217.156 158.931 217.075 159.173 216.914C159.422 216.745 159.657 216.466 159.877 216.078C160.236 215.44 160.577 215.011 160.9 214.791C161.179 214.593 161.523 214.494 161.934 214.494C162.462 214.494 162.906 214.673 163.265 215.033C163.624 215.392 163.804 215.88 163.804 216.496C163.804 216.914 163.69 217.383 163.463 217.904C163.236 218.417 162.854 218.916 162.319 219.4C161.835 219.832 161.296 220.14 160.702 220.324C160.108 220.5 159.331 220.588 158.37 220.588C156.632 220.588 155.191 220.016 154.047 218.872C153.739 218.564 153.479 218.219 153.266 217.838C153.053 217.456 152.892 217.101 152.782 216.771C152.679 216.433 152.599 216.004 152.54 215.484C152.489 214.956 152.456 214.516 152.441 214.164ZM165.228 217.508L169.408 206.409C169.643 205.793 169.91 205.367 170.211 205.133C170.57 204.847 171.025 204.704 171.575 204.704C172.125 204.704 172.58 204.847 172.939 205.133C173.24 205.367 173.507 205.793 173.742 206.409L177.922 217.508C178.069 217.904 178.168 218.215 178.219 218.443C178.278 218.663 178.278 218.916 178.219 219.202C178.168 219.48 178.025 219.737 177.79 219.972C177.409 220.353 176.947 220.544 176.404 220.544C175.964 220.544 175.601 220.412 175.315 220.148C175.154 220.001 175.022 219.836 174.919 219.653C174.824 219.469 174.703 219.172 174.556 218.762L174.325 218.124H168.825L168.594 218.762C168.447 219.172 168.323 219.469 168.22 219.653C168.125 219.836 167.996 220.001 167.835 220.148C167.549 220.412 167.186 220.544 166.746 220.544C166.203 220.544 165.741 220.353 165.36 219.972C165.125 219.737 164.979 219.48 164.92 219.202C164.869 218.916 164.869 218.663 164.92 218.443C164.979 218.215 165.081 217.904 165.228 217.508ZM173.159 214.912L171.575 210.556L169.991 214.912H173.159Z" fill="#4D4D4D"/>
<g clip-path="url(#clip0_244_56)">
<path fill-rule="evenodd" clip-rule="evenodd" d="M135.769 107.473C140.245 106.45 143.911 109.75 144.647 113.308C145.621 118.012 142.411 121.588 138.815 122.348C134.287 123.308 130.625 120.059 129.894 116.473C128.92 111.7 132.121 108.307 135.769 107.473ZM124.8 150.512L149.114 150.553C149.189 148.287 148.596 138.342 148.455 135.29L146.719 96.908C146.658 95.6328 146.604 94.3576 146.569 93.0824C146.519 91.356 146.726 90.7576 145.553 90.0428L145.95 90.8169L128.048 90.8241L128.485 89.8884C127.297 90.3681 127.389 91.185 127.323 92.7737L125.411 135.172C125.298 137.708 125.181 140.261 125.068 142.797C125.002 144.264 124.586 149.463 124.8 150.512Z" fill="white"/>
<path fill-rule="evenodd" clip-rule="evenodd" d="M126.184 152.127L147.671 152.165L147.739 154.019L126.118 154.022L126.184 152.127ZM124.797 150.512C124.583 149.46 124.999 144.262 125.065 142.796C125.178 140.26 125.298 137.71 125.408 135.171L127.32 92.7733C127.384 91.187 127.294 90.3701 128.482 89.8881L128.045 90.8237L145.947 90.8166L145.55 90.0424C146.726 90.7572 146.519 91.3556 146.566 93.0821C146.601 94.3573 146.658 95.6349 146.716 96.9077L148.452 135.29C148.593 138.341 149.186 148.287 149.111 150.552L124.797 150.512ZM131.323 89.2137C131.58 88.7221 132.008 88.4704 132.426 88.0976C132.944 87.6345 132.948 87.3187 133.807 87.3187H139.616C140.79 87.3187 140.747 87.283 141.371 87.9931C141.712 88.3825 142.241 88.829 142.462 89.2089L131.323 89.2137ZM129.646 86.2738L127.087 88.8432C125.824 89.9332 125.813 90.6005 125.723 92.7686L123.442 143.347C123.289 146.765 123.136 150.163 122.983 153.575C122.788 157.93 123.007 157.237 129.653 157.213C135.404 157.216 141.156 157.213 146.907 157.213C151.352 157.213 151.032 157.154 150.837 152.761L148.958 111.042C148.708 105.445 148.41 99.8571 148.2 94.267C148.017 89.4226 148.294 90.6361 145.834 87.9931C145.079 87.1809 144.508 86.687 143.682 85.806C142.652 84.7065 142.904 85.7751 142.615 82.5313C141.815 73.5501 142.76 73.581 138.536 73.5834C137.095 73.5834 135.651 73.5739 134.211 73.581C132.584 73.5905 132.003 73.8612 131.864 75.4998C131.747 76.8629 131.638 78.1903 131.518 79.5439C131.436 80.4748 131.283 84.7326 130.745 85.3073C130.625 85.4331 129.79 86.1954 129.651 86.2738H129.646Z" fill="#4D4D4D"/>
<path fill-rule="evenodd" clip-rule="evenodd" d="M111.561 75.2886C113.628 74.5857 113.071 78.2617 113.064 79.5441V91.268C113.059 93.7068 112.748 94.3717 113.922 96.2192C118.261 103.054 119.273 104.576 117.64 114.469C115.618 126.722 115.552 135.29 116.474 147.536C116.58 148.952 116.94 151.68 116.756 152.986C116.544 154.499 115.249 155.691 113.565 155.589C109.762 155.359 110.716 150.274 110.874 146.748C111.33 136.544 112.831 125.238 114.729 115.34C116.511 106.041 116.615 104.6 111.629 97.1691C110.422 95.3714 110.723 94.5664 110.705 92.0849C110.691 90.1305 110.693 88.1761 110.698 86.2217L110.735 77.3593C110.742 76.2171 110.665 75.5926 111.561 75.2862V75.2886ZM117.878 93.6142C116.551 93.6427 115.519 93.9324 115.35 93.1748C115.717 92.783 120.329 92.992 121.533 92.992L121.53 93.6047L117.878 93.6118V93.6142ZM121.53 90.8571C120.404 90.8524 119.275 90.85 118.148 90.8619C116.737 90.8785 115.578 91.2086 115.345 90.4273C115.914 89.9904 120.343 90.2373 121.469 90.2373L121.53 90.8571ZM121.519 87.9956C120.841 88.3661 119.183 88.1072 118.282 88.112C117.462 88.1167 115.909 88.4492 115.357 87.8579C115.517 87.1122 117.615 87.4874 118.282 87.4922C119.117 87.4969 120.86 87.3022 121.514 87.5848L121.519 87.9932V87.9956ZM121.538 84.861C121.53 85.4974 121.662 85.2956 121.133 85.3787L118.419 85.3621C117.664 85.3645 115.637 85.7539 115.357 84.9964C115.829 84.4716 117.647 84.7423 118.419 84.7447C119.317 84.7494 120.825 84.5286 121.538 84.8586V84.861ZM120.176 82.6098C118.936 82.5908 115.9 82.8306 115.368 82.4056C115.343 81.6433 118.685 82.009 120.039 82.0019C121.098 81.9971 121.331 81.8309 121.486 82.2037C121.74 82.814 120.644 82.6169 120.176 82.6098ZM118.823 79.8528C117.401 79.8599 115.495 80.2066 115.352 79.4135C115.672 79.0549 119.503 79.2496 120.307 79.252C121.441 79.2567 121.352 79.1522 121.481 79.4633C121.695 79.9763 121.246 79.8456 120.872 79.8623C120.256 79.8908 119.465 79.848 118.821 79.8528H118.823ZM117.339 77.1266C116.048 77.1789 115.514 77.3332 115.35 76.6707C115.702 76.3121 120.213 76.4878 121.533 76.4854L121.53 77.1005L117.337 77.1266H117.339ZM115.216 95.1458C116.114 95.3619 121.886 95.2836 123.123 95.2076L123.125 74.8754C121.422 74.8303 115.571 74.5596 114.529 75.2933C113.868 74.7163 114.162 74.4242 113.193 73.9113C112.447 73.5147 111.528 73.4862 110.738 73.8353C109.209 74.5121 109.145 75.9749 109.143 77.9008C109.138 81.6742 109.098 85.4452 109.103 89.2186C109.105 91.0685 109.098 92.9302 109.152 94.7778C109.265 98.6556 113.795 100.762 114.207 106.67C114.423 109.767 113.414 113.619 112.871 116.601C111.079 126.421 109.724 136.907 109.272 146.924C109.101 150.742 108.468 154.245 110.935 156.218C113.612 158.358 117.203 156.741 118.101 154.195C118.729 152.414 117.972 146.067 117.822 143.754C117.591 140.146 117.462 136.482 117.495 132.844C117.577 123.856 118.409 120.695 119.59 112.343C120.42 106.464 120.124 103.448 117.342 98.6224C116.831 97.7366 115.484 95.8844 115.218 95.1435L115.216 95.1458Z" fill="#4D4D4D"/>
<path fill-rule="evenodd" clip-rule="evenodd" d="M111.561 75.2885C110.662 75.5949 110.742 76.2194 110.735 77.3616L110.698 86.224C110.693 88.1784 110.688 90.1328 110.705 92.0871C110.723 94.5711 110.422 95.3737 111.629 97.1714C116.615 104.602 116.511 106.041 114.729 115.343C112.831 125.24 111.333 136.546 110.874 146.75C110.716 150.279 109.761 155.361 113.564 155.591C115.248 155.693 116.544 154.501 116.756 152.989C116.939 151.68 116.58 148.954 116.474 147.539C115.552 135.292 115.62 126.725 117.64 114.471C119.273 104.578 118.261 103.056 113.922 96.2215C112.748 94.3716 113.059 93.7091 113.064 91.2702V79.5464C113.071 78.264 113.628 74.588 111.561 75.2909V75.2885Z" fill="#E32E16"/>
<path fill-rule="evenodd" clip-rule="evenodd" d="M136.465 108.981C133.391 109.487 130.776 112.141 131.418 115.92C131.921 118.893 134.692 121.462 138.361 120.802C141.225 120.287 143.709 117.435 143.133 113.894C142.667 111.03 139.868 108.42 136.465 108.981Z" fill="#E32E16"/>
<path fill-rule="evenodd" clip-rule="evenodd" d="M136.465 108.98C139.868 108.42 142.667 111.03 143.133 113.894C143.709 117.434 141.225 120.286 138.361 120.802C134.689 121.462 131.921 118.892 131.418 115.919C130.776 112.141 133.391 109.486 136.465 108.98ZM135.769 107.475C132.121 108.308 128.92 111.702 129.894 116.475C130.625 120.063 134.287 123.309 138.815 122.35C142.411 121.588 145.623 118.014 144.647 113.309C143.911 109.75 140.245 106.451 135.769 107.475Z" fill="#4D4D4D"/>
<path fill-rule="evenodd" clip-rule="evenodd" d="M126.119 154.024L147.74 154.022L147.672 152.167L126.185 152.126L126.119 154.024Z" fill="white"/>
<path fill-rule="evenodd" clip-rule="evenodd" d="M131.323 89.2138L142.462 89.2091C142.241 88.8314 141.712 88.3825 141.371 87.993C140.747 87.2828 140.79 87.3184 139.616 87.3184H133.807C132.949 87.3184 132.944 87.6343 132.426 88.0975C132.01 88.4704 131.58 88.7222 131.323 89.2138Z" fill="white"/>
<path fill-rule="evenodd" clip-rule="evenodd" d="M115.356 87.8599C115.907 88.4514 117.461 88.1188 118.282 88.1141C119.183 88.1093 120.841 88.3659 121.518 87.9977L121.514 87.5892C120.86 87.3065 119.119 87.5013 118.282 87.4965C117.616 87.4918 115.516 87.1165 115.356 87.8623V87.8599Z" fill="white"/>
<path fill-rule="evenodd" clip-rule="evenodd" d="M115.356 84.9963C115.634 85.754 117.661 85.3644 118.418 85.362L121.133 85.3787C121.662 85.2955 121.53 85.4974 121.537 84.8609C120.824 84.5307 119.317 84.7516 118.418 84.7469C117.647 84.7421 115.829 84.4737 115.356 84.9986V84.9963Z" fill="white"/>
<path fill-rule="evenodd" clip-rule="evenodd" d="M115.344 90.4297C115.575 91.2112 116.737 90.8786 118.148 90.8644C119.275 90.8525 120.403 90.8549 121.53 90.8596L121.469 90.2397C120.342 90.2397 115.914 89.9927 115.344 90.4297Z" fill="white"/>
<path fill-rule="evenodd" clip-rule="evenodd" d="M115.35 93.1764C115.519 93.9318 116.552 93.6444 117.878 93.6159L121.531 93.6087L121.533 92.9959C120.331 92.9959 115.717 92.7893 115.35 93.1788V93.1764Z" fill="white"/>
<path fill-rule="evenodd" clip-rule="evenodd" d="M115.348 76.6726C115.512 77.3352 116.046 77.1808 117.337 77.1286L121.531 77.1025L121.533 76.4873C120.211 76.4897 115.703 76.3139 115.35 76.6726H115.348Z" fill="white"/>
<path fill-rule="evenodd" clip-rule="evenodd" d="M115.368 82.4072C115.897 82.8324 118.934 82.5925 120.176 82.6115C120.644 82.6186 121.74 82.8181 121.486 82.2053C121.33 81.8324 121.098 81.9987 120.039 82.0034C118.684 82.0105 115.342 81.6448 115.368 82.4072Z" fill="white"/>
<path fill-rule="evenodd" clip-rule="evenodd" d="M115.352 79.4159C115.493 80.2092 117.4 79.8601 118.823 79.8553C119.465 79.8529 120.256 79.8957 120.874 79.8648C121.248 79.8482 121.697 79.9788 121.483 79.4658C121.354 79.1546 121.443 79.2591 120.31 79.2544C119.505 79.252 115.674 79.0572 115.354 79.4159H115.352Z" fill="white"/>
</g>
<path d="M130.826 1.5234L130.551 1.36398L130.275 1.5234L65.5504 38.953L65.8261 39.4297L65.5503 38.9531L0.825712 76.4102L0.550846 76.5692L0.550846 76.8868L0.550849 151.746L0.550852 226.633L0.550852 226.95L0.825718 227.109L65.5503 264.566L65.5504 264.566L130.275 301.996L130.551 302.155L130.826 301.996L195.551 264.566L195.551 264.566L260.276 227.109L260.551 226.95L260.551 226.633L260.551 151.746L260.551 76.8868L260.551 76.5692L260.276 76.4102L195.551 38.9531L195.275 39.4297L195.551 38.953L130.826 1.5234Z" stroke="#024FA2" stroke-width="1.10141"/>
<defs>
<clipPath id="clip0_244_56">
<rect width="41.8644" height="83.6892" fill="white" transform="translate(109.068 73.5759)"/>
</clipPath>
</defs>
</svg>
