<svg width="418" height="163" viewBox="0 0 418 163" fill="none" xmlns="http://www.w3.org/2000/svg">
<circle cx="344.5" cy="57.5" r="5.5" fill="#9D9E9E"/>
<line x1="345" y1="57.5" x2="5" y2="57.5" stroke="#9D9E9E" stroke-width="3"/>
<path d="M5 149L5 57" stroke="#9D9E9E" stroke-width="3"/>
<circle cx="5.5" cy="150.5" r="5.5" fill="#9D9E9E"/>
<circle cx="5.5" cy="57.5" r="5.5" fill="#9D9E9E"/>
<path d="M45.5088 35.4V12H31.1088L30.6288 24.52C30.4688 28.6 29.6688 32.96 27.3888 35.4H25.6688V44.72H30.5088V40H43.1888V44.72H48.0288V35.4H45.5088ZM40.6288 35.4H33.1488C34.5488 32.88 35.2288 29.6 35.3488 25.92L35.7088 16.64H40.6288V35.4ZM56.1928 35.36V28.04H64.5928V23.56H56.1928V16.64H65.3528V12H51.2728V40H65.7528V35.36H56.1928ZM84.1866 12H67.8666V16.68H73.5066V40H78.5466V16.68H84.1866V12ZM87.1712 40H92.0513L97.6913 27.08C98.5313 25.16 99.2913 22.92 100.011 21L100.131 21.12C99.8113 24.08 99.6113 28.64 99.6113 31.28V40H104.411V12H99.4913L93.5313 25.68C92.7713 27.36 92.0913 29.28 91.4913 30.84L91.3713 30.76C91.7313 27.72 91.9713 23.48 91.9713 21.16V12H87.1712V40ZM117.992 40H122.872L128.512 27.08C129.352 25.16 130.112 22.92 130.832 21L130.952 21.12C130.632 24.08 130.432 28.64 130.432 31.28V40H135.232V12H130.312L124.352 25.68C123.592 27.36 122.912 29.28 122.312 30.84L122.192 30.76C122.552 27.72 122.792 23.48 122.792 21.16V12H117.992V40ZM165.412 12H148.812V40H153.732V16.68H160.492V40H165.412V12ZM178.688 40.48C184.208 40.48 187.488 36.92 187.488 31V21C187.488 15.08 184.208 11.52 178.688 11.52C173.128 11.52 169.848 15.08 169.848 21V31C169.848 36.92 173.128 40.48 178.688 40.48ZM178.688 35.72C176.208 35.72 174.928 34.04 174.928 31V21C174.928 17.96 176.208 16.28 178.688 16.28C181.168 16.28 182.408 17.96 182.408 21V31C182.408 34.04 181.168 35.72 178.688 35.72ZM209.376 35.4V12H194.976L194.496 24.52C194.336 28.6 193.536 32.96 191.256 35.4H189.536V44.72H194.376V40H207.056V44.72H211.896V35.4H209.376ZM204.496 35.4H197.016C198.416 32.88 199.096 29.6 199.216 25.92L199.576 16.64H204.496V35.4ZM222.9 12H215.14V40H220.06V30.6H222.9C228.54 30.6 231.86 27.2 231.86 21.32C231.86 15.44 228.54 12 222.9 12ZM222.86 25.96H220.06V16.68H222.86C225.5 16.68 226.82 18.24 226.82 21.32C226.82 24.4 225.5 25.96 222.86 25.96ZM243.727 40.48C249.247 40.48 252.527 36.92 252.527 31V21C252.527 15.08 249.247 11.52 243.727 11.52C238.167 11.52 234.887 15.08 234.887 21V31C234.887 36.92 238.167 40.48 243.727 40.48ZM243.727 35.72C241.247 35.72 239.967 34.04 239.967 31V21C239.967 17.96 241.247 16.28 243.727 16.28C246.207 16.28 247.447 17.96 247.447 21V31C247.447 34.04 246.207 35.72 243.727 35.72ZM264.615 40.48C270.015 40.48 273.175 37.36 273.375 31.68H268.455C268.255 34.48 267.055 35.72 264.615 35.72C262.535 35.72 261.295 34.4 261.295 31.6V20.4C261.295 17.52 262.535 16.2 264.575 16.2C266.975 16.2 268.175 17.44 268.335 20.32H273.255C273.015 14.6 269.975 11.44 264.615 11.44C259.375 11.44 256.215 14.6 256.215 20.4V31.6C256.215 37.36 259.415 40.48 264.615 40.48ZM291.257 12H274.937V16.68H280.577V40H285.617V16.68H291.257V12ZM306.682 40H312.282L303.562 24.2L311.082 12H305.402L300.722 20.2L299.082 23.48V12H294.242V40H299.082V31.28L300.802 28.6L306.682 40ZM314.632 40H319.512L325.152 27.08C325.992 25.16 326.752 22.92 327.472 21L327.592 21.12C327.272 24.08 327.072 28.64 327.072 31.28V40H331.872V12H326.952L320.992 25.68C320.232 27.36 319.552 29.28 318.952 30.84L318.832 30.76C319.192 27.72 319.432 23.48 319.432 21.16V12H314.632V40Z" fill="#FDC80B"/>
<path d="M36.8594 75.6133C36.8594 74.457 36.4492 73.4727 35.6289 72.6602C34.8164 71.8477 33.832 71.4414 32.6758 71.4414C31.5273 71.4414 30.543 71.8477 29.7227 72.6602C28.9102 73.4727 28.5039 74.457 28.5039 75.6133C28.5039 76.7695 28.9102 77.7539 29.7227 78.5664C30.543 79.3789 31.5273 79.7852 32.6758 79.7852C33.832 79.7852 34.8164 79.3789 35.6289 78.5664C36.4492 77.7539 36.8594 76.7695 36.8594 75.6133ZM35.4531 80.8164C34.7578 81.5664 33.6055 81.9414 31.9961 81.9414C30.3789 81.9414 29.0352 81.4062 27.9648 80.3359C26.668 79.0312 26.0195 77.457 26.0195 75.6133C26.0195 73.7773 26.668 72.2109 27.9648 70.9141C29.2617 69.6094 30.832 68.957 32.6758 68.957C34.5117 68.957 36.082 69.6055 37.3867 70.9023C38.6367 72.1602 39.2656 73.9062 39.2734 76.1406V76.1758C39.2734 78.3867 38.6758 80.332 37.4805 82.0117C36.2773 83.6992 34.6523 85.6953 32.6055 88H29.418C32.2539 85.0625 34.2656 82.668 35.4531 80.8164ZM51.8711 75.9062C51.8711 74.7578 51.4609 73.7773 50.6406 72.9648C49.8281 72.1523 48.8438 71.7461 47.6875 71.7461C46.5391 71.7461 45.5547 72.1523 44.7344 72.9648C43.9219 73.7773 43.5156 74.7578 43.5156 75.9062V81.6367C43.5156 82.793 43.9219 83.7773 44.7344 84.5898C45.5547 85.4023 46.5391 85.8086 47.6875 85.8086C48.8438 85.8086 49.8281 85.4023 50.6406 84.5898C51.4609 83.7773 51.8711 82.793 51.8711 81.6367V75.9062ZM54.3555 81.6367C54.3555 83.4727 53.7031 85.043 52.3984 86.3477C51.1016 87.6445 49.5312 88.293 47.6875 88.293C45.8516 88.293 44.2812 87.6445 42.9766 86.3477C41.6797 85.043 41.0312 83.4727 41.0312 81.6367V75.9062C41.0312 74.0703 41.6797 72.5039 42.9766 71.207C44.2812 69.9023 45.8516 69.25 47.6875 69.25C49.5312 69.25 51.1016 69.9023 52.3984 71.207C53.7031 72.5039 54.3555 74.0703 54.3555 75.9062V81.6367ZM69.0391 72.8828L58.2812 88.2461L56.2891 86.8633L67.0352 71.5117L69.0391 72.8828ZM59.418 73.4102C60.3086 73.4102 61.0664 73.7266 61.6914 74.3594C62.3242 74.9844 62.6406 75.7422 62.6406 76.6328C62.6406 77.5234 62.3242 78.2852 61.6914 78.918C61.0664 79.543 60.3086 79.8555 59.418 79.8555C58.5273 79.8555 57.7656 79.543 57.1328 78.918C56.5078 78.2852 56.1953 77.5234 56.1953 76.6328C56.1953 75.7422 56.5078 74.9844 57.1328 74.3594C57.7656 73.7266 58.5273 73.4102 59.418 73.4102ZM59.418 75.8125C59.1914 75.8125 58.9961 75.8945 58.832 76.0586C58.6758 76.2148 58.5977 76.4062 58.5977 76.6328C58.5977 76.8672 58.6758 77.0664 58.832 77.2305C58.9961 77.3867 59.1914 77.4648 59.418 77.4648C59.6445 77.4648 59.8398 77.3867 60.0039 77.2305C60.168 77.0664 60.25 76.8672 60.25 76.6328C60.25 76.4062 60.168 76.2148 60.0039 76.0586C59.8398 75.8945 59.6445 75.8125 59.418 75.8125ZM65.8984 79.8906C66.7969 79.8906 67.5586 80.207 68.1836 80.8398C68.8164 81.4648 69.1328 82.2227 69.1328 83.1133C69.1328 84.0117 68.8164 84.7773 68.1836 85.4102C67.5586 86.0352 66.7969 86.3477 65.8984 86.3477C65.0078 86.3477 64.2461 86.0352 63.6133 85.4102C62.9883 84.7773 62.6758 84.0117 62.6758 83.1133C62.6758 82.2227 62.9883 81.4648 63.6133 80.8398C64.2461 80.207 65.0078 79.8906 65.8984 79.8906ZM65.8984 82.293C65.6719 82.293 65.4766 82.375 65.3125 82.5391C65.1562 82.6953 65.0781 82.8867 65.0781 83.1133C65.0781 83.3477 65.1562 83.5469 65.3125 83.7109C65.4766 83.8672 65.6719 83.9453 65.8984 83.9453C66.125 83.9453 66.3203 83.8672 66.4844 83.7109C66.6484 83.5469 66.7305 83.3477 66.7305 83.1133C66.7305 82.8867 66.6484 82.6953 66.4844 82.5391C66.3203 82.375 66.125 82.293 65.8984 82.293ZM89.207 88H88.1641V82.3047H80.4766V88H79.4336V76.4922H80.4766V81.2383H88.1641V76.4922H89.207V88ZM97.7617 75.4492C99.543 75.4492 101.059 76.0781 102.309 77.3359C103.566 78.5938 104.195 80.1133 104.195 81.8945C104.195 83.668 103.566 85.1836 102.309 86.4414C101.059 87.6992 99.543 88.3281 97.7617 88.3281C95.9883 88.3281 94.4727 87.6992 93.2148 86.4414C91.957 85.1836 91.3281 83.668 91.3281 81.8945C91.3281 80.1133 91.957 78.5938 93.2148 77.3359C94.4727 76.0781 95.9883 75.4492 97.7617 75.4492ZM97.7617 76.5742C96.293 76.5742 95.0391 77.0938 94 78.1328C92.9609 79.1719 92.4414 80.4258 92.4414 81.8945C92.4414 83.3633 92.9609 84.6172 94 85.6562C95.0391 86.6875 96.293 87.2031 97.7617 87.2031C99.2305 87.2031 100.484 86.6875 101.523 85.6562C102.562 84.6172 103.082 83.3633 103.082 81.8945C103.082 80.4258 102.562 79.1719 101.523 78.1328C100.484 77.0938 99.2305 76.5742 97.7617 76.5742ZM107.617 81.6484H110.898V81.6367C111.656 81.6055 112.238 81.3828 112.645 80.9688C113.059 80.5547 113.266 80.0938 113.266 79.5859C113.266 79.0781 113.059 78.6211 112.645 78.2148C112.238 77.8008 111.656 77.5742 110.898 77.5352V77.5234H107.617V81.6484ZM107.617 82.8203V86.9453H110.898V86.9336C111.656 86.8945 112.238 86.6719 112.645 86.2656C113.059 85.8516 113.266 85.3906 113.266 84.8828C113.266 84.375 113.059 83.9141 112.645 83.5C112.238 83.0859 111.656 82.8633 110.898 82.832V82.8203H107.617ZM106.574 76.4688H110.934V76.4805C111.949 76.5273 112.77 76.8633 113.395 77.4883C114.02 78.1055 114.332 78.8047 114.332 79.5859V79.5977C114.332 80.3711 114.023 81.0703 113.406 81.6953C113.18 81.9141 112.941 82.0938 112.691 82.2344C112.941 82.375 113.18 82.5508 113.406 82.7617C114.023 83.3945 114.332 84.0977 114.332 84.8711V84.8828C114.332 85.6641 114.02 86.3672 113.395 86.9922C112.77 87.6094 111.949 87.9414 110.934 87.9883V88H106.574V76.4688ZM117.625 86.9453H123.848V86.9336C124.605 86.8945 125.238 86.668 125.746 86.2539C126.238 85.8477 126.484 85.3047 126.484 84.625C126.484 83.9297 126.238 83.375 125.746 82.9609C125.238 82.5547 124.605 82.3359 123.848 82.3047V82.2812H117.625V86.9453ZM130.891 88H129.848V76.4922H130.891V88ZM116.582 88V76.4922H117.625V81.2266H123.883V81.2383C124.906 81.2852 125.77 81.6172 126.473 82.2344C127.191 82.8594 127.551 83.6523 127.551 84.6133V84.625C127.551 85.5781 127.191 86.3672 126.473 86.9922C125.77 87.6094 124.906 87.9414 123.883 87.9883V88H116.582ZM136 81.918L132.625 76.4922H133.855L136.621 80.9336L139.375 76.4922H140.605L137.23 81.918L141.004 88H139.785L136.621 82.9141L133.445 88H132.227L136 81.918ZM151.223 77.5586V88H150.18V76.4922H159.953V88H158.91V77.5586H151.223ZM175.328 88H174.273V85.6562C174.07 85.9297 173.848 86.1914 173.605 86.4414C172.348 87.6992 170.828 88.3281 169.047 88.3281C167.273 88.3281 165.758 87.6992 164.5 86.4414C163.242 85.1836 162.613 83.668 162.613 81.8945C162.613 80.1133 163.242 78.5938 164.5 77.3359C165.758 76.0781 167.273 75.4492 169.047 75.4492C170.828 75.4492 172.348 76.0781 173.605 77.3359C173.848 77.5859 174.07 77.8477 174.273 78.1211V76.4922H175.328V88ZM174.273 82.9375V80.8516C174.078 79.8203 173.59 78.9141 172.809 78.1328C171.77 77.0938 170.516 76.5742 169.047 76.5742C167.578 76.5742 166.324 77.0938 165.285 78.1328C164.246 79.1719 163.727 80.4258 163.727 81.8945C163.727 83.3633 164.246 84.6172 165.285 85.6562C166.324 86.6875 167.578 87.2031 169.047 87.2031C170.516 87.2031 171.77 86.6836 172.809 85.6445C173.59 84.8633 174.078 83.9609 174.273 82.9375ZM188.066 88H178.41V76.4922H179.453V86.9453H187.141V76.4922H188.184V86.8516H189.109V92.3945H188.066V88ZM190.867 76.4922H191.91V86.2422L199.27 76.4922H200.406V88H199.352V78.168L191.91 87.9883V88H190.867V76.4922ZM205.551 85.8438C206.543 86.75 207.723 87.2031 209.09 87.2031C210.559 87.2031 211.812 86.6836 212.852 85.6445C212.984 85.5117 213.109 85.375 213.227 85.2344L214.34 85.6328C214.137 85.9141 213.906 86.1836 213.648 86.4414C212.391 87.6992 210.871 88.3281 209.09 88.3281C207.316 88.3281 205.801 87.6992 204.543 86.4414C203.285 85.1836 202.656 83.6641 202.656 81.8828C202.656 80.1094 203.285 78.5938 204.543 77.3359C205.801 76.0781 207.316 75.4492 209.09 75.4492C210.613 75.4492 211.945 75.9062 213.086 76.8203C213.273 76.9766 213.461 77.1484 213.648 77.3359C213.719 77.4062 213.785 77.4766 213.848 77.5469L213.051 78.3438L205.551 85.8438ZM212.277 77.6289C211.363 76.9258 210.301 76.5742 209.09 76.5742C207.629 76.5742 206.379 77.0938 205.34 78.1328C204.301 79.1641 203.781 80.4141 203.781 81.8828C203.781 83.0938 204.133 84.1562 204.836 85.0703L212.277 77.6289ZM226.246 88H225.203V82.3047H217.516V88H216.473V76.4922H217.516V81.2383H225.203V76.4922H226.246V88ZM234.168 77.5586V88H233.125V77.5586H228.379V76.4922H238.926V77.5586H234.168ZM247.48 75.4492C249.262 75.4492 250.777 76.0781 252.027 77.3359C253.285 78.5938 253.914 80.1133 253.914 81.8945C253.914 83.668 253.285 85.1836 252.027 86.4414C250.777 87.6992 249.262 88.3281 247.48 88.3281C245.707 88.3281 244.191 87.6992 242.934 86.4414C241.676 85.1836 241.047 83.668 241.047 81.8945C241.047 80.1133 241.676 78.5938 242.934 77.3359C244.191 76.0781 245.707 75.4492 247.48 75.4492ZM247.48 76.5742C246.012 76.5742 244.758 77.0938 243.719 78.1328C242.68 79.1719 242.16 80.4258 242.16 81.8945C242.16 83.3633 242.68 84.6172 243.719 85.6562C244.758 86.6875 246.012 87.2031 247.48 87.2031C248.949 87.2031 250.203 86.6875 251.242 85.6562C252.281 84.6172 252.801 83.3633 252.801 81.8945C252.801 80.4258 252.281 79.1719 251.242 78.1328C250.203 77.0938 248.949 76.5742 247.48 76.5742ZM257.336 81.6484H260.617V81.6367C261.375 81.6055 261.957 81.3828 262.363 80.9688C262.777 80.5547 262.984 80.0938 262.984 79.5859C262.984 79.0781 262.777 78.6211 262.363 78.2148C261.957 77.8008 261.375 77.5742 260.617 77.5352V77.5234H257.336V81.6484ZM257.336 82.8203V86.9453H260.617V86.9336C261.375 86.8945 261.957 86.6719 262.363 86.2656C262.777 85.8516 262.984 85.3906 262.984 84.8828C262.984 84.375 262.777 83.9141 262.363 83.5C261.957 83.0859 261.375 82.8633 260.617 82.832V82.8203H257.336ZM256.293 76.4688H260.652V76.4805C261.668 76.5273 262.488 76.8633 263.113 77.4883C263.738 78.1055 264.051 78.8047 264.051 79.5859V79.5977C264.051 80.3711 263.742 81.0703 263.125 81.6953C262.898 81.9141 262.66 82.0938 262.41 82.2344C262.66 82.375 262.898 82.5508 263.125 82.7617C263.742 83.3945 264.051 84.0977 264.051 84.8711V84.8828C264.051 85.6641 263.738 86.3672 263.113 86.9922C262.488 87.6094 261.668 87.9414 260.652 87.9883V88H256.293V76.4688ZM275.512 77.5586V88H274.469V76.4922H284.242V88H283.199V77.5586H275.512ZM287.195 76.4922H288.25V78.1094C288.445 77.8438 288.668 77.5859 288.918 77.3359C290.176 76.0859 291.691 75.4609 293.465 75.4609C295.246 75.4609 296.762 76.0898 298.012 77.3477C299.27 78.5977 299.898 80.1133 299.898 81.8945C299.898 83.668 299.27 85.1836 298.012 86.4414C296.762 87.6992 295.246 88.3281 293.465 88.3281C291.691 88.3281 290.176 87.6992 288.918 86.4414C288.668 86.1914 288.445 85.9336 288.25 85.668V92.3945H287.195V76.4922ZM288.25 80.793V82.9961C288.453 84.0039 288.938 84.8906 289.703 85.6562C290.742 86.6953 291.996 87.2148 293.465 87.2148C294.934 87.2148 296.188 86.6953 297.227 85.6562C298.266 84.6172 298.785 83.3633 298.785 81.8945C298.785 80.4258 298.266 79.1719 297.227 78.1328C296.188 77.0938 294.934 76.5742 293.465 76.5742C291.996 76.5742 290.742 77.0938 289.703 78.1328C288.938 78.8984 288.453 79.7852 288.25 80.793ZM302.266 76.4922H303.309V86.2422L310.668 76.4922H311.805V88H310.75V78.168L303.309 87.9883V88H302.266V76.4922ZM316.773 81.918L313.398 76.4922H314.629L317.395 80.9336L320.148 76.4922H321.379L318.004 81.918L321.777 88H320.559L317.395 82.9141L314.219 88H313L316.773 81.918ZM328.949 75.4492C330.73 75.4492 332.246 76.0781 333.496 77.3359C334.754 78.5938 335.383 80.1133 335.383 81.8945C335.383 83.668 334.754 85.1836 333.496 86.4414C332.246 87.6992 330.73 88.3281 328.949 88.3281C327.176 88.3281 325.66 87.6992 324.402 86.4414C323.145 85.1836 322.516 83.668 322.516 81.8945C322.516 80.1133 323.145 78.5938 324.402 77.3359C325.66 76.0781 327.176 75.4492 328.949 75.4492ZM328.949 76.5742C327.48 76.5742 326.227 77.0938 325.188 78.1328C324.148 79.1719 323.629 80.4258 323.629 81.8945C323.629 83.3633 324.148 84.6172 325.188 85.6562C326.227 86.6875 327.48 87.2031 328.949 87.2031C330.418 87.2031 331.672 86.6875 332.711 85.6562C333.75 84.6172 334.27 83.3633 334.27 81.8945C334.27 80.4258 333.75 79.1719 332.711 78.1328C331.672 77.0938 330.418 76.5742 328.949 76.5742ZM347.43 86.8516H348.367V92.3945H347.312V88H338.148V92.3945H337.105V86.8516H338.043C338.066 86.8281 338.086 86.8125 338.102 86.8047C339.766 85.1484 340.598 82.6953 340.598 79.4453C340.598 78.7812 340.562 78.1523 340.492 77.5586C340.445 77.1914 340.387 76.8359 340.316 76.4922H347.43V86.8516ZM339.426 86.9453H346.387V77.5586H341.57C341.633 78.1523 341.664 78.7812 341.664 79.4453C341.664 82.6094 340.918 85.1094 339.426 86.9453ZM357.215 77.5586H353.652V77.5703C352.887 77.6016 352.258 77.8203 351.766 78.2266C351.266 78.6406 351.016 79.1914 351.016 79.8789C351.016 80.5664 351.266 81.1133 351.766 81.5195C352.258 81.9336 352.887 82.1602 353.652 82.1992V82.2109H357.215V77.5586ZM358.258 76.4922V88H357.215V83.2656H354.391L354.145 83.8164L353.465 85.2578L352.188 88H351.027L353.254 83.2305C352.387 83.1289 351.645 82.8047 351.027 82.2578C350.309 81.6328 349.949 80.8438 349.949 79.8906V79.8789C349.949 78.918 350.309 78.125 351.027 77.5C351.73 76.8828 352.59 76.5508 353.605 76.5039V76.4922H358.258ZM366.449 77.5586V88H365.406V77.5586H360.66V76.4922H371.207V77.5586H366.449ZM33.2617 104.492L30.4258 108.008L34.9375 116H33.6484L29.7344 108.852L27.3906 111.453V116H26.3242V104.492H27.3906V109.766L31.9023 104.492H33.2617ZM53.9336 116H52.8906V110.305H45.2031V116H44.1602V104.492H45.2031V109.238H52.8906V104.492H53.9336V116ZM69.1797 116H68.125V113.656C67.9219 113.93 67.6992 114.191 67.457 114.441C66.1992 115.699 64.6797 116.328 62.8984 116.328C61.125 116.328 59.6094 115.699 58.3516 114.441C57.0938 113.184 56.4648 111.668 56.4648 109.895C56.4648 108.113 57.0938 106.594 58.3516 105.336C59.6094 104.078 61.125 103.449 62.8984 103.449C64.6797 103.449 66.1992 104.078 67.457 105.336C67.6992 105.586 67.9219 105.848 68.125 106.121V104.492H69.1797V116ZM68.125 110.938V108.852C67.9297 107.82 67.4414 106.914 66.6602 106.133C65.6211 105.094 64.3672 104.574 62.8984 104.574C61.4297 104.574 60.1758 105.094 59.1367 106.133C58.0977 107.172 57.5781 108.426 57.5781 109.895C57.5781 111.363 58.0977 112.617 59.1367 113.656C60.1758 114.688 61.4297 115.203 62.8984 115.203C64.3672 115.203 65.6211 114.684 66.6602 113.645C67.4414 112.863 67.9297 111.961 68.125 110.938ZM77.4414 114.43L81.7422 104.492H82.8672V116H81.8125V107.094L77.957 116H76.9141L73.0469 107.094V116H72.0039V104.492H73.1289L77.4414 114.43ZM94.457 105.559V116H93.4141V104.492H103.188V116H102.145V105.559H94.457ZM111.871 103.449C113.652 103.449 115.168 104.078 116.418 105.336C117.676 106.594 118.305 108.113 118.305 109.895C118.305 111.668 117.676 113.184 116.418 114.441C115.168 115.699 113.652 116.328 111.871 116.328C110.098 116.328 108.582 115.699 107.324 114.441C106.066 113.184 105.438 111.668 105.438 109.895C105.438 108.113 106.066 106.594 107.324 105.336C108.582 104.078 110.098 103.449 111.871 103.449ZM111.871 104.574C110.402 104.574 109.148 105.094 108.109 106.133C107.07 107.172 106.551 108.426 106.551 109.895C106.551 111.363 107.07 112.617 108.109 113.656C109.148 114.688 110.402 115.203 111.871 115.203C113.34 115.203 114.594 114.688 115.633 113.656C116.672 112.617 117.191 111.363 117.191 109.895C117.191 108.426 116.672 107.172 115.633 106.133C114.594 105.094 113.34 104.574 111.871 104.574ZM129.414 104.492H130.469V106.109C130.664 105.844 130.887 105.586 131.137 105.336C132.395 104.086 133.91 103.461 135.684 103.461C137.465 103.461 138.98 104.09 140.23 105.348C141.488 106.598 142.117 108.113 142.117 109.895C142.117 111.668 141.488 113.184 140.23 114.441C138.98 115.699 137.465 116.328 135.684 116.328C133.91 116.328 132.395 115.699 131.137 114.441C130.887 114.191 130.664 113.934 130.469 113.668V120.395H129.414V104.492ZM130.469 108.793V110.996C130.672 112.004 131.156 112.891 131.922 113.656C132.961 114.695 134.215 115.215 135.684 115.215C137.152 115.215 138.406 114.695 139.445 113.656C140.484 112.617 141.004 111.363 141.004 109.895C141.004 108.426 140.484 107.172 139.445 106.133C138.406 105.094 137.152 104.574 135.684 104.574C134.215 104.574 132.961 105.094 131.922 106.133C131.156 106.898 130.672 107.785 130.469 108.793ZM147.238 113.844C148.23 114.75 149.41 115.203 150.777 115.203C152.246 115.203 153.5 114.684 154.539 113.645C154.672 113.512 154.797 113.375 154.914 113.234L156.027 113.633C155.824 113.914 155.594 114.184 155.336 114.441C154.078 115.699 152.559 116.328 150.777 116.328C149.004 116.328 147.488 115.699 146.23 114.441C144.973 113.184 144.344 111.664 144.344 109.883C144.344 108.109 144.973 106.594 146.23 105.336C147.488 104.078 149.004 103.449 150.777 103.449C152.301 103.449 153.633 103.906 154.773 104.82C154.961 104.977 155.148 105.148 155.336 105.336C155.406 105.406 155.473 105.477 155.535 105.547L154.738 106.344L147.238 113.844ZM153.965 105.629C153.051 104.926 151.988 104.574 150.777 104.574C149.316 104.574 148.066 105.094 147.027 106.133C145.988 107.164 145.469 108.414 145.469 109.883C145.469 111.094 145.82 112.156 146.523 113.07L153.965 105.629ZM165.355 104.492L162.52 108.008L167.031 116H165.742L161.828 108.852L159.484 111.453V116H158.418V104.492H159.484V109.766L163.996 104.492H165.355ZM174.379 103.449C176.16 103.449 177.676 104.078 178.926 105.336C180.184 106.594 180.812 108.113 180.812 109.895C180.812 111.668 180.184 113.184 178.926 114.441C177.676 115.699 176.16 116.328 174.379 116.328C172.605 116.328 171.09 115.699 169.832 114.441C168.574 113.184 167.945 111.668 167.945 109.895C167.945 108.113 168.574 106.594 169.832 105.336C171.09 104.078 172.605 103.449 174.379 103.449ZM174.379 104.574C172.91 104.574 171.656 105.094 170.617 106.133C169.578 107.172 169.059 108.426 169.059 109.895C169.059 111.363 169.578 112.617 170.617 113.656C171.656 114.688 172.91 115.203 174.379 115.203C175.848 115.203 177.102 114.688 178.141 113.656C179.18 112.617 179.699 111.363 179.699 109.895C179.699 108.426 179.18 107.172 178.141 106.133C177.102 105.094 175.848 104.574 174.379 104.574ZM188.371 114.43L192.672 104.492H193.797V116H192.742V107.094L188.887 116H187.844L183.977 107.094V116H182.934V104.492H184.059L188.371 114.43ZM198.801 113.844C199.793 114.75 200.973 115.203 202.34 115.203C203.809 115.203 205.062 114.684 206.102 113.645C206.234 113.512 206.359 113.375 206.477 113.234L207.59 113.633C207.387 113.914 207.156 114.184 206.898 114.441C205.641 115.699 204.121 116.328 202.34 116.328C200.566 116.328 199.051 115.699 197.793 114.441C196.535 113.184 195.906 111.664 195.906 109.883C195.906 108.109 196.535 106.594 197.793 105.336C199.051 104.078 200.566 103.449 202.34 103.449C203.863 103.449 205.195 103.906 206.336 104.82C206.523 104.977 206.711 105.148 206.898 105.336C206.969 105.406 207.035 105.477 207.098 105.547L206.301 106.344L198.801 113.844ZM205.527 105.629C204.613 104.926 203.551 104.574 202.34 104.574C200.879 104.574 199.629 105.094 198.59 106.133C197.551 107.164 197.031 108.414 197.031 109.883C197.031 111.094 197.383 112.156 198.086 113.07L205.527 105.629ZM219.496 116H218.453V110.305H210.766V116H209.723V104.492H210.766V109.238H218.453V104.492H219.496V116ZM231.555 114.852H232.492V120.395H231.438V116H222.273V120.395H221.23V114.852H222.168C222.191 114.828 222.211 114.812 222.227 114.805C223.891 113.148 224.723 110.695 224.723 107.445C224.723 106.781 224.688 106.152 224.617 105.559C224.57 105.191 224.512 104.836 224.441 104.492H231.555V114.852ZM223.551 114.945H230.512V105.559H225.695C225.758 106.152 225.789 106.781 225.789 107.445C225.789 110.609 225.043 113.109 223.551 114.945ZM247.328 116H246.273V113.656C246.07 113.93 245.848 114.191 245.605 114.441C244.348 115.699 242.828 116.328 241.047 116.328C239.273 116.328 237.758 115.699 236.5 114.441C235.242 113.184 234.613 111.668 234.613 109.895C234.613 108.113 235.242 106.594 236.5 105.336C237.758 104.078 239.273 103.449 241.047 103.449C242.828 103.449 244.348 104.078 245.605 105.336C245.848 105.586 246.07 105.848 246.273 106.121V104.492H247.328V116ZM246.273 110.938V108.852C246.078 107.82 245.59 106.914 244.809 106.133C243.77 105.094 242.516 104.574 241.047 104.574C239.578 104.574 238.324 105.094 237.285 106.133C236.246 107.172 235.727 108.426 235.727 109.895C235.727 111.363 236.246 112.617 237.285 113.656C238.324 114.688 239.578 115.203 241.047 115.203C242.516 115.203 243.77 114.684 244.809 113.645C245.59 112.863 246.078 111.961 246.273 110.938ZM260.066 116H250.41V104.492H251.453V114.945H259.141V104.492H260.184V114.852H261.109V120.395H260.066V116ZM262.867 104.492H263.91V114.242L271.27 104.492H272.406V116H271.352V106.168L263.91 115.988V116H262.867V104.492ZM274.797 104.492H275.84V114.242L283.199 104.492H284.336V116H283.281V106.168L275.84 115.988V116H274.797V104.492ZM287.758 114.066C288.047 114.066 288.293 114.168 288.496 114.371C288.707 114.574 288.812 114.82 288.812 115.109C288.812 115.406 288.707 115.656 288.496 115.859C288.293 116.062 288.047 116.164 287.758 116.164C287.469 116.164 287.219 116.062 287.008 115.859C286.805 115.656 286.703 115.406 286.703 115.109C286.703 114.82 286.805 114.574 287.008 114.371C287.219 114.168 287.469 114.066 287.758 114.066Z" fill="black"/>
<path d="M34.26 155.24C33.14 155.24 32.0667 155.093 31.04 154.8C30.0133 154.493 29.1867 154.1 28.56 153.62L29.66 151.18C30.26 151.607 30.9667 151.96 31.78 152.24C32.6067 152.507 33.44 152.64 34.28 152.64C34.92 152.64 35.4333 152.58 35.82 152.46C36.22 152.327 36.5133 152.147 36.7 151.92C36.8867 151.693 36.98 151.433 36.98 151.14C36.98 150.767 36.8333 150.473 36.54 150.26C36.2467 150.033 35.86 149.853 35.38 149.72C34.9 149.573 34.3667 149.44 33.78 149.32C33.2067 149.187 32.6267 149.027 32.04 148.84C31.4667 148.653 30.94 148.413 30.46 148.12C29.98 147.827 29.5867 147.44 29.28 146.96C28.9867 146.48 28.84 145.867 28.84 145.12C28.84 144.32 29.0533 143.593 29.48 142.94C29.92 142.273 30.5733 141.747 31.44 141.36C32.32 140.96 33.42 140.76 34.74 140.76C35.62 140.76 36.4867 140.867 37.34 141.08C38.1933 141.28 38.9467 141.587 39.6 142L38.6 144.46C37.9467 144.087 37.2933 143.813 36.64 143.64C35.9867 143.453 35.3467 143.36 34.72 143.36C34.0933 143.36 33.58 143.433 33.18 143.58C32.78 143.727 32.4933 143.92 32.32 144.16C32.1467 144.387 32.06 144.653 32.06 144.96C32.06 145.32 32.2067 145.613 32.5 145.84C32.7933 146.053 33.18 146.227 33.66 146.36C34.14 146.493 34.6667 146.627 35.24 146.76C35.8267 146.893 36.4067 147.047 36.98 147.22C37.5667 147.393 38.1 147.627 38.58 147.92C39.06 148.213 39.4467 148.6 39.74 149.08C40.0467 149.56 40.2 150.167 40.2 150.9C40.2 151.687 39.98 152.407 39.54 153.06C39.1 153.713 38.44 154.24 37.56 154.64C36.6933 155.04 35.5933 155.24 34.26 155.24ZM47.1186 155V143.64H42.6386V141H54.8386V143.64H50.3586V155H47.1186ZM65.1866 155.24C64.0799 155.24 63.0532 155.06 62.1066 154.7C61.1732 154.34 60.3599 153.833 59.6666 153.18C58.9866 152.527 58.4532 151.76 58.0666 150.88C57.6932 150 57.5066 149.04 57.5066 148C57.5066 146.96 57.6932 146 58.0666 145.12C58.4532 144.24 58.9932 143.473 59.6866 142.82C60.3799 142.167 61.1932 141.66 62.1266 141.3C63.0599 140.94 64.0732 140.76 65.1666 140.76C66.2732 140.76 67.2866 140.94 68.2066 141.3C69.1399 141.66 69.9466 142.167 70.6266 142.82C71.3199 143.473 71.8599 144.24 72.2466 145.12C72.6332 145.987 72.8266 146.947 72.8266 148C72.8266 149.04 72.6332 150.007 72.2466 150.9C71.8599 151.78 71.3199 152.547 70.6266 153.2C69.9466 153.84 69.1399 154.34 68.2066 154.7C67.2866 155.06 66.2799 155.24 65.1866 155.24ZM65.1666 152.48C65.7932 152.48 66.3666 152.373 66.8866 152.16C67.4199 151.947 67.8866 151.64 68.2866 151.24C68.6866 150.84 68.9932 150.367 69.2066 149.82C69.4332 149.273 69.5466 148.667 69.5466 148C69.5466 147.333 69.4332 146.727 69.2066 146.18C68.9932 145.633 68.6866 145.16 68.2866 144.76C67.8999 144.36 67.4399 144.053 66.9066 143.84C66.3732 143.627 65.7932 143.52 65.1666 143.52C64.5399 143.52 63.9599 143.627 63.4266 143.84C62.9066 144.053 62.4466 144.36 62.0466 144.76C61.6466 145.16 61.3332 145.633 61.1066 146.18C60.8932 146.727 60.7866 147.333 60.7866 148C60.7866 148.653 60.8932 149.26 61.1066 149.82C61.3332 150.367 61.6399 150.84 62.0266 151.24C62.4266 151.64 62.8932 151.947 63.4266 152.16C63.9599 152.373 64.5399 152.48 65.1666 152.48ZM77.2616 155V141H79.9416L85.9016 150.88H84.4816L90.3416 141H93.0016L93.0416 155H90.0016L89.9816 145.66H90.5416L85.8616 153.52H84.4016L79.6216 145.66H80.3016V155H77.2616ZM102.963 155.24C101.843 155.24 100.77 155.093 99.7431 154.8C98.7165 154.493 97.8898 154.1 97.2631 153.62L98.3631 151.18C98.9631 151.607 99.6698 151.96 100.483 152.24C101.31 152.507 102.143 152.64 102.983 152.64C103.623 152.64 104.136 152.58 104.523 152.46C104.923 152.327 105.216 152.147 105.403 151.92C105.59 151.693 105.683 151.433 105.683 151.14C105.683 150.767 105.536 150.473 105.243 150.26C104.95 150.033 104.563 149.853 104.083 149.72C103.603 149.573 103.07 149.44 102.483 149.32C101.91 149.187 101.33 149.027 100.743 148.84C100.17 148.653 99.6431 148.413 99.1631 148.12C98.6831 147.827 98.2898 147.44 97.9831 146.96C97.6898 146.48 97.5431 145.867 97.5431 145.12C97.5431 144.32 97.7565 143.593 98.1831 142.94C98.6231 142.273 99.2765 141.747 100.143 141.36C101.023 140.96 102.123 140.76 103.443 140.76C104.323 140.76 105.19 140.867 106.043 141.08C106.896 141.28 107.65 141.587 108.303 142L107.303 144.46C106.65 144.087 105.996 143.813 105.343 143.64C104.69 143.453 104.05 143.36 103.423 143.36C102.796 143.36 102.283 143.433 101.883 143.58C101.483 143.727 101.196 143.92 101.023 144.16C100.85 144.387 100.763 144.653 100.763 144.96C100.763 145.32 100.91 145.613 101.203 145.84C101.496 146.053 101.883 146.227 102.363 146.36C102.843 146.493 103.37 146.627 103.943 146.76C104.53 146.893 105.11 147.047 105.683 147.22C106.27 147.393 106.803 147.627 107.283 147.92C107.763 148.213 108.15 148.6 108.443 149.08C108.75 149.56 108.903 150.167 108.903 150.9C108.903 151.687 108.683 152.407 108.243 153.06C107.803 153.713 107.143 154.24 106.263 154.64C105.396 155.04 104.296 155.24 102.963 155.24ZM119.337 155.24C117.35 155.24 115.797 154.687 114.677 153.58C113.557 152.473 112.997 150.893 112.997 148.84V141H116.237V148.72C116.237 150.053 116.51 151.013 117.057 151.6C117.604 152.187 118.37 152.48 119.357 152.48C120.344 152.48 121.11 152.187 121.657 151.6C122.204 151.013 122.477 150.053 122.477 148.72V141H125.677V148.84C125.677 150.893 125.117 152.473 123.997 153.58C122.877 154.687 121.324 155.24 119.337 155.24ZM130.879 155V141H136.939C138.192 141 139.272 141.207 140.179 141.62C141.085 142.02 141.785 142.6 142.279 143.36C142.772 144.12 143.019 145.027 143.019 146.08C143.019 147.12 142.772 148.02 142.279 148.78C141.785 149.54 141.085 150.127 140.179 150.54C139.272 150.94 138.192 151.14 136.939 151.14H132.679L134.119 149.68V155H130.879ZM134.119 150.04L132.679 148.5H136.759C137.759 148.5 138.505 148.287 138.999 147.86C139.492 147.433 139.739 146.84 139.739 146.08C139.739 145.307 139.492 144.707 138.999 144.28C138.505 143.853 137.759 143.64 136.759 143.64H132.679L134.119 142.1V150.04ZM150.312 146.64H157.052V149.16H150.312V146.64ZM150.552 152.4H158.172V155H147.332V141H157.912V143.6H150.552V152.4ZM162.75 155V141H168.81C170.063 141 171.143 141.207 172.05 141.62C172.957 142.02 173.657 142.6 174.15 143.36C174.643 144.12 174.89 145.027 174.89 146.08C174.89 147.12 174.643 148.02 174.15 148.78C173.657 149.527 172.957 150.1 172.05 150.5C171.143 150.9 170.063 151.1 168.81 151.1H164.55L165.99 149.68V155H162.75ZM171.65 155L168.15 149.92H171.61L175.15 155H171.65ZM165.99 150.04L164.55 148.52H168.63C169.63 148.52 170.377 148.307 170.87 147.88C171.363 147.44 171.61 146.84 171.61 146.08C171.61 145.307 171.363 144.707 170.87 144.28C170.377 143.853 169.63 143.64 168.63 143.64H164.55L165.99 142.1V150.04ZM180.417 155.16C179.884 155.16 179.424 154.98 179.037 154.62C178.664 154.247 178.477 153.773 178.477 153.2C178.477 152.627 178.664 152.167 179.037 151.82C179.424 151.46 179.884 151.28 180.417 151.28C180.964 151.28 181.424 151.46 181.797 151.82C182.17 152.167 182.357 152.627 182.357 153.2C182.357 153.773 182.17 154.247 181.797 154.62C181.424 154.98 180.964 155.16 180.417 155.16ZM186.691 155V141H192.751C194.005 141 195.085 141.207 195.991 141.62C196.898 142.02 197.598 142.6 198.091 143.36C198.585 144.12 198.831 145.027 198.831 146.08C198.831 147.12 198.585 148.02 198.091 148.78C197.598 149.527 196.898 150.1 195.991 150.5C195.085 150.9 194.005 151.1 192.751 151.1H188.491L189.931 149.68V155H186.691ZM195.591 155L192.091 149.92H195.551L199.091 155H195.591ZM189.931 150.04L188.491 148.52H192.571C193.571 148.52 194.318 148.307 194.811 147.88C195.305 147.44 195.551 146.84 195.551 146.08C195.551 145.307 195.305 144.707 194.811 144.28C194.318 143.853 193.571 143.64 192.571 143.64H188.491L189.931 142.1V150.04ZM209.618 155.24C207.632 155.24 206.078 154.687 204.958 153.58C203.838 152.473 203.278 150.893 203.278 148.84V141H206.518V148.72C206.518 150.053 206.792 151.013 207.338 151.6C207.885 152.187 208.652 152.48 209.638 152.48C210.625 152.48 211.392 152.187 211.938 151.6C212.485 151.013 212.758 150.053 212.758 148.72V141H215.958V148.84C215.958 150.893 215.398 152.473 214.278 153.58C213.158 154.687 211.605 155.24 209.618 155.24ZM218.645 157L225.245 138.16H228.025L221.425 157H218.645ZM237.106 155.24C236.026 155.24 235.019 155.067 234.086 154.72C233.166 154.36 232.366 153.853 231.686 153.2C231.006 152.547 230.473 151.78 230.086 150.9C229.713 150.02 229.526 149.053 229.526 148C229.526 146.947 229.713 145.98 230.086 145.1C230.473 144.22 231.006 143.453 231.686 142.8C232.379 142.147 233.186 141.647 234.106 141.3C235.026 140.94 236.033 140.76 237.126 140.76C238.339 140.76 239.433 140.973 240.406 141.4C241.393 141.813 242.219 142.427 242.886 143.24L240.806 145.16C240.326 144.613 239.793 144.207 239.206 143.94C238.619 143.66 237.979 143.52 237.286 143.52C236.633 143.52 236.033 143.627 235.486 143.84C234.939 144.053 234.466 144.36 234.066 144.76C233.666 145.16 233.353 145.633 233.126 146.18C232.913 146.727 232.806 147.333 232.806 148C232.806 148.667 232.913 149.273 233.126 149.82C233.353 150.367 233.666 150.84 234.066 151.24C234.466 151.64 234.939 151.947 235.486 152.16C236.033 152.373 236.633 152.48 237.286 152.48C237.979 152.48 238.619 152.347 239.206 152.08C239.793 151.8 240.326 151.38 240.806 150.82L242.886 152.74C242.219 153.553 241.393 154.173 240.406 154.6C239.433 155.027 238.333 155.24 237.106 155.24ZM256.674 141H259.914V155H256.674V141ZM250.314 155H247.074V141H250.314V155ZM256.914 149.26H250.074V146.52H256.914V149.26ZM265.226 155V141H268.466V155H265.226ZM273.789 155V141H277.029V152.36H284.049V155H273.789ZM287.859 155V141H294.219C295.739 141 297.079 141.293 298.239 141.88C299.399 142.453 300.306 143.26 300.959 144.3C301.613 145.34 301.939 146.573 301.939 148C301.939 149.413 301.613 150.647 300.959 151.7C300.306 152.74 299.399 153.553 298.239 154.14C297.079 154.713 295.739 155 294.219 155H287.859ZM291.099 152.34H294.059C294.993 152.34 295.799 152.167 296.479 151.82C297.173 151.46 297.706 150.953 298.079 150.3C298.466 149.647 298.659 148.88 298.659 148C298.659 147.107 298.466 146.34 298.079 145.7C297.706 145.047 297.173 144.547 296.479 144.2C295.799 143.84 294.993 143.66 294.059 143.66H291.099V152.34ZM306.383 155V141H312.443C313.696 141 314.776 141.207 315.683 141.62C316.589 142.02 317.289 142.6 317.783 143.36C318.276 144.12 318.523 145.027 318.523 146.08C318.523 147.12 318.276 148.02 317.783 148.78C317.289 149.527 316.589 150.1 315.683 150.5C314.776 150.9 313.696 151.1 312.443 151.1H308.183L309.623 149.68V155H306.383ZM315.283 155L311.783 149.92H315.243L318.783 155H315.283ZM309.623 150.04L308.183 148.52H312.263C313.263 148.52 314.009 148.307 314.503 147.88C314.996 147.44 315.243 146.84 315.243 146.08C315.243 145.307 314.996 144.707 314.503 144.28C314.009 143.853 313.263 143.64 312.263 143.64H308.183L309.623 142.1V150.04ZM326.07 146.64H332.81V149.16H326.07V146.64ZM326.31 152.4H333.93V155H323.09V141H333.67V143.6H326.31V152.4ZM338.508 155V141H341.188L349.448 151.08H348.148V141H351.348V155H348.688L340.408 144.92H341.708V155H338.508Z" fill="black"/>
<path d="M28 157.5H353.008V158.5H28V157.5Z" fill="black"/>
</svg>
