<svg width="262" height="303" viewBox="0 0 262 303" fill="none" xmlns="http://www.w3.org/2000/svg">
<path d="M75.2601 52.7279L75.2607 52.7276L132 20.0594L188.739 52.7276L188.74 52.7279L245.475 85.4177L245.475 150.747L245.475 216.101L188.74 248.791L188.739 248.791L132 281.46L75.2607 248.791L75.2601 248.791L18.5248 216.101L18.5248 150.747L18.5248 85.4177L75.2601 52.7279Z" fill="#FFDC0A" stroke="#4D4D4D" stroke-width="4.40566"/>
<g clip-path="url(#clip0_244_62)">
<path fill-rule="evenodd" clip-rule="evenodd" d="M131.502 146.302C141.265 146.862 150.346 142.927 156.401 138.635C158.178 137.376 159.313 136.147 160.676 134.785C163.138 132.325 164.36 131.191 166.315 128.153C167.221 126.744 166.833 126.962 168.709 126.572C176.783 124.893 181.515 113.897 175.666 106.333C172.948 102.818 173.155 105.316 172.809 101.079C172.421 96.3475 170.177 89.0831 167.849 85.6029C165.724 82.4266 164.853 79.0476 161.292 81.7425C160.916 82.8248 160.613 83.5506 161.296 84.7065C163.598 88.5975 162.956 86.6617 165.564 92.3871C167.283 96.1602 167.896 101.299 168.067 105.849C174.181 107.217 176.73 116.674 170.409 120.964C168.356 122.358 166.72 122.57 163.957 122.292C162.903 124.962 159.28 129.39 157.031 131.454C153.87 134.353 155.114 133.259 151.788 135.661C151.156 136.118 150.38 136.53 149.68 136.87C148.95 137.224 148.459 137.625 147.647 137.973C146.214 138.589 144.506 139.141 143.066 139.691C136.794 142.087 127.401 141.535 120.999 139.333C117.873 138.257 113.88 136.147 111.609 134.311C111.316 134.075 110.985 133.892 110.631 133.63L105.798 129.011C104.412 127.319 101.635 123.516 100.814 121.389C97.6768 121.335 96.5031 121.78 94.1075 120.151C89.3866 116.94 89.8602 109.787 94.4444 107.12C95.1983 106.681 96.3581 106.315 97.0181 105.893C98.0358 104.737 95.4261 96.1546 104.924 83.4076C109.114 77.7849 116.129 73.368 122.909 71.4044C133.999 68.1934 138.147 72.4813 139.338 68.1379C139.394 66.1133 138.504 65.518 136.71 65.2197C135.042 64.9421 133.141 64.9796 131.449 65.0337C123.221 65.3321 113.578 68.4071 107.791 73.6552C106.38 74.936 103.272 77.4643 102.21 78.8534C101.815 79.3696 101.398 79.7928 101.013 80.3118C100.608 80.8558 100.297 81.2831 99.8846 81.834L97.6933 85.1186C94.5824 90.1392 93.1741 95.5177 92.4271 101.421C92.1095 103.93 90.4125 102.359 87.4369 107.386C83.2822 114.405 86.7742 125 97.2335 126.485C98.1421 126.614 97.7306 126.405 98.1255 126.915C98.5439 127.453 99.4014 129.032 100.919 130.928C101.289 131.39 101.801 132.125 102.167 132.503L106.142 136.477C108.773 138.59 110.981 140.256 114.296 141.922C118.721 144.147 125.709 146.439 131.503 146.302H131.502Z" fill="#4D4D4D"/>
<path fill-rule="evenodd" clip-rule="evenodd" d="M109.414 114.924C105.804 115.886 108.041 119.442 109.234 121.235C113.614 127.815 119.963 131.959 127.867 133.269C139.194 135.146 149.358 129.582 155.318 120.429C158.34 115.787 155.09 114.524 153.59 114.867C152.134 115.202 151.809 116.464 151.16 117.58C150.405 118.876 149.813 119.534 149.009 120.568C140.879 131.017 123.267 131.505 114.419 119.854C113.752 118.976 113.016 117.812 112.384 116.749C112.001 116.108 111.319 114.419 109.415 114.925L109.414 114.924Z" fill="#E22E15"/>
<path fill-rule="evenodd" clip-rule="evenodd" d="M152.93 73.7136C154.543 80.416 148.148 86.097 141.746 83.2523C140.148 82.5419 140.112 82.052 138.99 81.361C136.314 79.7124 133.837 83.0303 135.814 85.22C138.845 88.5768 145.232 90.0546 149.577 88.2271C150.675 87.765 151.783 87.3251 152.626 86.6382C153.506 85.9208 154.325 85.3741 155.062 84.4332C156.625 82.4406 157.442 81.0321 158.046 78.1291C158.812 72.1567 156.537 67.5316 152.02 64.6106C150.733 63.778 149.131 63.1328 147.367 62.8122C145.414 62.4584 143.229 62.654 142.821 64.4871C142.326 66.7157 144.078 67.5635 145.913 67.7384C148.306 67.9673 149.971 69.0123 151.281 70.5026C152.037 71.3629 152.64 72.5508 152.931 73.7122L152.93 73.7136Z" fill="#4D4D4D"/>
<path fill-rule="evenodd" clip-rule="evenodd" d="M121.498 98.6389C114.675 100.272 117.04 109.958 123.448 108.681C125.931 108.186 128.103 105.716 127.451 102.603C126.946 100.192 124.527 97.9145 121.498 98.6403V98.6389Z" fill="#4D4D4D"/>
<path fill-rule="evenodd" clip-rule="evenodd" d="M140.859 98.4743C133.846 99.6497 135.838 109.761 142.402 108.589C144.869 108.148 147.072 105.771 146.547 102.687C146.128 100.227 143.796 97.9831 140.859 98.4757V98.4743Z" fill="#4D4D4D"/>
</g>
<path d="M98.058 190.489L98.058 192.293C98.058 192.748 98.0433 193.074 98.014 193.272C97.992 193.47 97.9333 193.665 97.838 193.855C97.706 194.119 97.497 194.332 97.211 194.493C96.9323 194.655 96.6133 194.735 96.254 194.735C95.8946 194.735 95.572 194.655 95.286 194.493C95.0073 194.332 94.802 194.119 94.67 193.855C94.5746 193.665 94.5123 193.47 94.483 193.272C94.461 193.074 94.45 192.748 94.45 192.293L94.45 191.479H86.673L86.673 192.293C86.673 192.748 86.6583 193.074 86.629 193.272C86.607 193.47 86.5483 193.665 86.453 193.855C86.321 194.119 86.112 194.332 85.826 194.493C85.5473 194.655 85.2283 194.735 84.869 194.735C84.5096 194.735 84.187 194.655 83.901 194.493C83.6223 194.332 83.417 194.119 83.285 193.855C83.1896 193.665 83.1273 193.47 83.098 193.272C83.076 193.074 83.065 192.748 83.065 192.293L83.065 190.489C83.065 190.035 83.076 189.708 83.098 189.51C83.1273 189.312 83.1896 189.118 83.285 188.927C83.395 188.7 83.5673 188.509 83.802 188.355C84.0366 188.201 84.3043 188.106 84.605 188.069C85.111 186.742 85.496 185.209 85.76 183.471C86.0313 181.726 86.167 179.959 86.167 178.169L86.167 178.015C86.167 177.223 86.343 176.651 86.695 176.299C86.8416 176.153 87.0213 176.043 87.234 175.969C87.4466 175.889 87.6226 175.845 87.762 175.837C87.9086 175.823 88.1103 175.815 88.367 175.815H93.9C94.164 175.815 94.373 175.823 94.527 175.837C94.681 175.845 94.8753 175.892 95.11 175.98C95.352 176.061 95.5573 176.186 95.726 176.354C95.8946 176.523 96.0193 176.728 96.1 176.97C96.188 177.205 96.2356 177.399 96.243 177.553C96.2576 177.707 96.265 177.916 96.265 178.18L96.265 188.047C96.617 188.055 96.936 188.139 97.222 188.3C97.508 188.454 97.7133 188.663 97.838 188.927C97.9333 189.118 97.992 189.312 98.014 189.51C98.0433 189.708 98.058 190.035 98.058 190.489ZM92.393 188.047L92.393 179.247H89.929L89.929 179.665C89.929 181.396 89.808 182.903 89.566 184.186C89.3313 185.462 88.983 186.749 88.521 188.047H92.393ZM108.621 191.479H102.516C102.252 191.479 102.043 191.476 101.889 191.468C101.735 191.454 101.537 191.406 101.295 191.325C101.06 191.237 100.859 191.109 100.69 190.94C100.521 190.772 100.393 190.57 100.305 190.335C100.224 190.093 100.177 189.895 100.162 189.741C100.155 189.587 100.151 189.378 100.151 189.114L100.151 178.18C100.151 177.916 100.155 177.707 100.162 177.553C100.177 177.399 100.224 177.205 100.305 176.97C100.393 176.728 100.521 176.523 100.69 176.354C100.859 176.186 101.06 176.061 101.295 175.98C101.537 175.892 101.735 175.845 101.889 175.837C102.043 175.823 102.252 175.815 102.516 175.815H108.621C109.039 175.815 109.343 175.83 109.534 175.859C109.725 175.881 109.912 175.936 110.095 176.024C110.344 176.142 110.546 176.34 110.7 176.618C110.854 176.89 110.931 177.194 110.931 177.531C110.931 177.869 110.854 178.177 110.7 178.455C110.546 178.727 110.344 178.921 110.095 179.038C109.912 179.126 109.725 179.185 109.534 179.214C109.343 179.236 109.039 179.247 108.621 179.247H104.023L104.023 181.865H107.631C108.049 181.865 108.353 181.88 108.544 181.909C108.735 181.931 108.922 181.986 109.105 182.074C109.354 182.192 109.556 182.39 109.71 182.668C109.864 182.94 109.941 183.244 109.941 183.581C109.941 183.919 109.864 184.227 109.71 184.505C109.556 184.777 109.354 184.971 109.105 185.088C108.922 185.176 108.735 185.235 108.544 185.264C108.353 185.286 108.049 185.297 107.631 185.297H104.023L104.023 188.047H108.621C109.039 188.047 109.343 188.062 109.534 188.091C109.725 188.113 109.912 188.168 110.095 188.256C110.344 188.374 110.546 188.572 110.7 188.85C110.854 189.122 110.931 189.426 110.931 189.763C110.931 190.101 110.854 190.409 110.7 190.687C110.546 190.959 110.344 191.153 110.095 191.27C109.912 191.358 109.725 191.417 109.534 191.446C109.343 191.468 109.039 191.479 108.621 191.479ZM116.386 188.971L116.386 179.247H114.769C114.351 179.247 114.046 179.236 113.856 179.214C113.665 179.185 113.478 179.126 113.295 179.038C113.045 178.921 112.844 178.727 112.69 178.455C112.536 178.177 112.459 177.869 112.459 177.531C112.459 177.194 112.536 176.89 112.69 176.618C112.844 176.34 113.045 176.142 113.295 176.024C113.478 175.936 113.665 175.881 113.856 175.859C114.046 175.83 114.351 175.815 114.769 175.815H121.875C122.293 175.815 122.597 175.83 122.788 175.859C122.978 175.881 123.165 175.936 123.349 176.024C123.598 176.142 123.8 176.34 123.954 176.618C124.108 176.89 124.185 177.194 124.185 177.531C124.185 177.869 124.108 178.177 123.954 178.455C123.8 178.727 123.598 178.921 123.349 179.038C123.165 179.126 122.978 179.185 122.788 179.214C122.597 179.236 122.293 179.247 121.875 179.247H120.258L120.258 188.971C120.258 189.448 120.243 189.789 120.214 189.994C120.192 190.192 120.126 190.401 120.016 190.621C119.876 190.9 119.653 191.127 119.345 191.303C119.044 191.479 118.703 191.567 118.322 191.567C117.94 191.567 117.596 191.479 117.288 191.303C116.987 191.127 116.767 190.9 116.628 190.621C116.518 190.401 116.448 190.192 116.419 189.994C116.397 189.789 116.386 189.448 116.386 188.971ZM125.222 185.187C125.215 184.828 125.211 184.315 125.211 183.647C125.211 182.98 125.215 182.47 125.222 182.118C125.237 181.759 125.27 181.319 125.321 180.798C125.38 180.27 125.461 179.841 125.563 179.511C125.673 179.174 125.835 178.815 126.047 178.433C126.26 178.052 126.52 177.707 126.828 177.399C127.972 176.255 129.413 175.683 131.151 175.683C132.112 175.683 132.889 175.775 133.483 175.958C134.077 176.134 134.616 176.439 135.1 176.871C135.636 177.355 136.017 177.858 136.244 178.378C136.472 178.892 136.585 179.357 136.585 179.775C136.585 180.391 136.406 180.879 136.046 181.238C135.687 181.598 135.243 181.777 134.715 181.777C134.305 181.777 133.96 181.678 133.681 181.48C133.359 181.26 133.018 180.831 132.658 180.193C132.438 179.805 132.204 179.53 131.954 179.368C131.712 179.2 131.415 179.115 131.063 179.115C130.484 179.115 130.022 179.343 129.677 179.797C129.443 180.105 129.285 180.512 129.204 181.018C129.124 181.517 129.083 182.393 129.083 183.647C129.083 184.901 129.124 185.781 129.204 186.287C129.285 186.786 129.443 187.189 129.677 187.497C130.022 187.952 130.484 188.179 131.063 188.179C131.415 188.179 131.712 188.099 131.954 187.937C132.204 187.769 132.438 187.49 132.658 187.101C133.018 186.463 133.359 186.034 133.681 185.814C133.96 185.616 134.305 185.517 134.715 185.517C135.243 185.517 135.687 185.697 136.046 186.056C136.406 186.416 136.585 186.903 136.585 187.519C136.585 187.937 136.472 188.407 136.244 188.927C136.017 189.441 135.636 189.939 135.1 190.423C134.616 190.856 134.077 191.164 133.483 191.347C132.889 191.523 132.112 191.611 131.151 191.611C129.413 191.611 127.972 191.039 126.828 189.895C126.52 189.587 126.26 189.243 126.047 188.861C125.835 188.48 125.673 188.124 125.563 187.794C125.461 187.457 125.38 187.028 125.321 186.507C125.27 185.979 125.237 185.539 125.222 185.187ZM139.016 188.971L139.016 178.323C139.016 177.847 139.027 177.509 139.049 177.311C139.078 177.106 139.148 176.893 139.258 176.673C139.397 176.395 139.617 176.167 139.918 175.991C140.226 175.815 140.571 175.727 140.952 175.727C141.333 175.727 141.674 175.815 141.975 175.991C142.283 176.167 142.507 176.395 142.646 176.673C142.756 176.893 142.822 177.106 142.844 177.311C142.873 177.509 142.888 177.847 142.888 178.323L142.888 181.634H143.229L147.178 176.904C147.537 176.464 147.838 176.16 148.08 175.991C148.329 175.815 148.626 175.727 148.971 175.727C149.389 175.727 149.778 175.878 150.137 176.178C150.584 176.552 150.808 176.989 150.808 177.487C150.808 177.781 150.749 178.048 150.632 178.29C150.515 178.525 150.287 178.833 149.95 179.214L146.309 183.317L150.291 188.08C150.628 188.476 150.856 188.792 150.973 189.026C151.09 189.261 151.149 189.521 151.149 189.807C151.149 190.306 150.925 190.742 150.478 191.116C150.119 191.417 149.73 191.567 149.312 191.567C148.967 191.567 148.67 191.483 148.421 191.314C148.179 191.138 147.878 190.83 147.519 190.39L143.229 185.264H142.888L142.888 188.971C142.888 189.448 142.873 189.789 142.844 189.994C142.822 190.192 142.756 190.401 142.646 190.621C142.507 190.9 142.283 191.127 141.975 191.303C141.674 191.479 141.333 191.567 140.952 191.567C140.571 191.567 140.226 191.479 139.918 191.303C139.617 191.127 139.397 190.9 139.258 190.621C139.148 190.401 139.078 190.192 139.049 189.994C139.027 189.789 139.016 189.448 139.016 188.971ZM152.468 188.531L156.648 177.432C156.883 176.816 157.151 176.391 157.451 176.156C157.811 175.87 158.265 175.727 158.815 175.727C159.365 175.727 159.82 175.87 160.179 176.156C160.48 176.391 160.748 176.816 160.982 177.432L165.162 188.531C165.309 188.927 165.408 189.239 165.459 189.466C165.518 189.686 165.518 189.939 165.459 190.225C165.408 190.504 165.265 190.761 165.03 190.995C164.649 191.377 164.187 191.567 163.644 191.567C163.204 191.567 162.841 191.435 162.555 191.171C162.394 191.025 162.262 190.86 162.159 190.676C162.064 190.493 161.943 190.196 161.796 189.785L161.565 189.147H156.065L155.834 189.785C155.688 190.196 155.563 190.493 155.46 190.676C155.365 190.86 155.237 191.025 155.075 191.171C154.789 191.435 154.426 191.567 153.986 191.567C153.444 191.567 152.982 191.377 152.6 190.995C152.366 190.761 152.219 190.504 152.16 190.225C152.109 189.939 152.109 189.686 152.16 189.466C152.219 189.239 152.322 188.927 152.468 188.531ZM160.399 185.935L158.815 181.579L157.231 185.935H160.399ZM174.786 188.971L174.786 185.891H173.213L170.859 190.027C170.72 190.269 170.603 190.464 170.507 190.61C170.412 190.75 170.284 190.904 170.122 191.072C169.968 191.241 169.792 191.366 169.594 191.446C169.404 191.527 169.191 191.567 168.956 191.567C168.634 191.567 168.311 191.476 167.988 191.292C167.358 190.933 167.042 190.423 167.042 189.763C167.042 189.529 167.083 189.301 167.163 189.081C167.244 188.861 167.394 188.557 167.614 188.168L169.374 185.088C168.641 184.634 168.076 184.029 167.68 183.273C167.284 182.518 167.086 181.711 167.086 180.853C167.086 180.201 167.204 179.577 167.438 178.983C167.673 178.382 168.007 177.847 168.439 177.377C168.879 176.901 169.444 176.523 170.133 176.244C170.823 175.958 171.589 175.815 172.432 175.815H176.293C176.557 175.815 176.766 175.823 176.92 175.837C177.074 175.845 177.269 175.892 177.503 175.98C177.745 176.061 177.951 176.186 178.119 176.354C178.288 176.523 178.413 176.728 178.493 176.97C178.581 177.205 178.629 177.399 178.636 177.553C178.651 177.707 178.658 177.916 178.658 178.18L178.658 188.971C178.658 189.448 178.644 189.789 178.614 189.994C178.592 190.192 178.526 190.401 178.416 190.621C178.277 190.9 178.053 191.127 177.745 191.303C177.445 191.479 177.104 191.567 176.722 191.567C176.341 191.567 175.996 191.479 175.688 191.303C175.388 191.127 175.168 190.9 175.028 190.621C174.918 190.401 174.849 190.192 174.819 189.994C174.797 189.789 174.786 189.448 174.786 188.971ZM174.786 182.459L174.786 179.247H172.608C172.102 179.247 171.695 179.409 171.387 179.731C171.087 180.047 170.936 180.421 170.936 180.853C170.936 181.286 171.087 181.664 171.387 181.986C171.695 182.302 172.102 182.459 172.608 182.459H174.786ZM48.5983 213.187C48.5909 212.828 48.5873 212.315 48.5873 211.647C48.5873 210.98 48.5909 210.47 48.5983 210.118C48.6129 209.759 48.6459 209.319 48.6973 208.798C48.7559 208.27 48.8366 207.841 48.9393 207.511C49.0493 207.174 49.2106 206.815 49.4233 206.433C49.6359 206.052 49.8963 205.707 50.2043 205.399C51.3483 204.255 52.7893 203.683 54.5273 203.683C55.4879 203.683 56.2653 203.775 56.8593 203.958C57.4533 204.134 57.9923 204.439 58.4763 204.871C59.0116 205.355 59.3929 205.858 59.6203 206.378C59.8476 206.892 59.9613 207.357 59.9613 207.775C59.9613 208.391 59.7816 208.879 59.4223 209.238C59.0629 209.598 58.6193 209.777 58.0913 209.777C57.6806 209.777 57.3359 209.678 57.0573 209.48C56.7346 209.26 56.3936 208.831 56.0343 208.193C55.8143 207.805 55.5796 207.53 55.3303 207.368C55.0883 207.2 54.7913 207.115 54.4393 207.115C53.8599 207.115 53.3979 207.343 53.0533 207.797C52.8186 208.105 52.6609 208.512 52.5803 209.018C52.4996 209.517 52.4593 210.393 52.4593 211.647C52.4593 212.901 52.4996 213.781 52.5803 214.287C52.6609 214.786 52.8186 215.189 53.0533 215.497C53.3979 215.952 53.8599 216.179 54.4393 216.179C54.7913 216.179 55.0883 216.099 55.3303 215.937C55.5796 215.769 55.8143 215.49 56.0343 215.101C56.3936 214.463 56.7346 214.034 57.0573 213.814C57.3359 213.616 57.6806 213.517 58.0913 213.517C58.6193 213.517 59.0629 213.697 59.4223 214.056C59.7816 214.416 59.9613 214.903 59.9613 215.519C59.9613 215.937 59.8476 216.407 59.6203 216.927C59.3929 217.441 59.0116 217.939 58.4763 218.423C57.9923 218.856 57.4533 219.164 56.8593 219.347C56.2653 219.523 55.4879 219.611 54.5273 219.611C52.7893 219.611 51.3483 219.039 50.2043 217.895C49.8963 217.587 49.6359 217.243 49.4233 216.861C49.2106 216.48 49.0493 216.124 48.9393 215.794C48.8366 215.457 48.7559 215.028 48.6973 214.507C48.6459 213.979 48.6129 213.539 48.5983 213.187ZM65.1777 216.971L65.1777 207.247H63.5607C63.1427 207.247 62.8384 207.236 62.6477 207.214C62.457 207.185 62.27 207.126 62.0867 207.038C61.8374 206.921 61.6357 206.727 61.4817 206.455C61.3277 206.177 61.2507 205.869 61.2507 205.531C61.2507 205.194 61.3277 204.89 61.4817 204.618C61.6357 204.34 61.8374 204.142 62.0867 204.024C62.27 203.936 62.457 203.881 62.6477 203.859C62.8384 203.83 63.1427 203.815 63.5607 203.815H70.6667C71.0847 203.815 71.389 203.83 71.5797 203.859C71.7704 203.881 71.9574 203.936 72.1407 204.024C72.39 204.142 72.5917 204.34 72.7457 204.618C72.8997 204.89 72.9767 205.194 72.9767 205.531C72.9767 205.869 72.8997 206.177 72.7457 206.455C72.5917 206.727 72.39 206.921 72.1407 207.038C71.9574 207.126 71.7704 207.185 71.5797 207.214C71.389 207.236 71.0847 207.247 70.6667 207.247H69.0497L69.0497 216.971C69.0497 217.448 69.035 217.789 69.0057 217.994C68.9837 218.192 68.9177 218.401 68.8077 218.621C68.6684 218.9 68.4447 219.127 68.1367 219.303C67.836 219.479 67.495 219.567 67.1137 219.567C66.7324 219.567 66.3877 219.479 66.0797 219.303C65.779 219.127 65.559 218.9 65.4197 218.621C65.3097 218.401 65.24 218.192 65.2107 217.994C65.1887 217.789 65.1777 217.448 65.1777 216.971ZM84.3543 217.895C83.775 218.475 83.1333 218.907 82.4293 219.193C81.7326 219.472 80.9186 219.611 79.9873 219.611C79.056 219.611 78.2383 219.472 77.5343 219.193C76.8376 218.907 76.1996 218.475 75.6203 217.895C75.3123 217.587 75.052 217.243 74.8393 216.861C74.6266 216.48 74.4653 216.124 74.3553 215.794C74.2526 215.457 74.172 215.028 74.1133 214.507C74.062 213.979 74.029 213.539 74.0143 213.187C74.007 212.828 74.0033 212.315 74.0033 211.647C74.0033 210.98 74.007 210.47 74.0143 210.118C74.029 209.759 74.062 209.319 74.1133 208.798C74.172 208.27 74.2526 207.841 74.3553 207.511C74.4653 207.174 74.6266 206.815 74.8393 206.433C75.052 206.052 75.3123 205.707 75.6203 205.399C76.1996 204.82 76.8376 204.391 77.5343 204.112C78.2383 203.826 79.056 203.683 79.9873 203.683C80.9186 203.683 81.7326 203.826 82.4293 204.112C83.1333 204.391 83.775 204.82 84.3543 205.399C84.6623 205.707 84.9226 206.052 85.1353 206.433C85.348 206.815 85.5056 207.174 85.6083 207.511C85.7183 207.841 85.799 208.27 85.8503 208.798C85.909 209.319 85.942 209.759 85.9493 210.118C85.964 210.47 85.9713 210.98 85.9713 211.647C85.9713 212.315 85.964 212.828 85.9493 213.187C85.942 213.539 85.909 213.979 85.8503 214.507C85.799 215.028 85.7183 215.457 85.6083 215.794C85.5056 216.124 85.348 216.48 85.1353 216.861C84.9226 217.243 84.6623 217.587 84.3543 217.895ZM81.5273 215.475C81.7326 215.204 81.8793 214.826 81.9673 214.342C82.0553 213.858 82.0993 212.96 82.0993 211.647C82.0993 210.335 82.0553 209.433 81.9673 208.941C81.8793 208.443 81.7326 208.061 81.5273 207.797C81.3733 207.599 81.1606 207.438 80.8893 207.313C80.6253 207.181 80.3246 207.115 79.9873 207.115C79.65 207.115 79.3456 207.181 79.0743 207.313C78.8103 207.438 78.6013 207.599 78.4473 207.797C78.242 208.061 78.0953 208.443 78.0073 208.941C77.9193 209.433 77.8753 210.335 77.8753 211.647C77.8753 212.96 77.9193 213.858 78.0073 214.342C78.0953 214.826 78.242 215.204 78.4473 215.475C78.8066 215.945 79.32 216.179 79.9873 216.179C80.6546 216.179 81.168 215.945 81.5273 215.475ZM88.5816 216.971L88.5816 206.081C88.5816 205.634 88.6182 205.271 88.6916 204.992C88.7722 204.706 88.9226 204.453 89.1426 204.233C89.4872 203.889 89.9199 203.716 90.4406 203.716C90.8952 203.716 91.2729 203.819 91.5736 204.024C91.8889 204.237 92.2042 204.604 92.5196 205.124L95.9076 210.899L99.2956 205.124C99.6109 204.604 99.9262 204.237 100.242 204.024C100.542 203.819 100.92 203.716 101.375 203.716C101.895 203.716 102.328 203.889 102.673 204.233C102.893 204.453 103.039 204.706 103.113 204.992C103.193 205.271 103.234 205.634 103.234 206.081L103.234 216.971C103.234 217.448 103.219 217.789 103.19 217.994C103.168 218.192 103.102 218.401 102.992 218.621C102.852 218.9 102.629 219.127 102.321 219.303C102.02 219.479 101.679 219.567 101.298 219.567C100.916 219.567 100.572 219.479 100.264 219.303C99.9629 219.127 99.7429 218.9 99.6036 218.621C99.4936 218.401 99.4239 218.192 99.3946 217.994C99.3726 217.789 99.3616 217.448 99.3616 216.971L99.3616 211.977L97.5686 215.079C97.3486 215.461 97.1176 215.736 96.8756 215.904C96.6336 216.073 96.3109 216.157 95.9076 216.157C95.5042 216.157 95.1816 216.073 94.9396 215.904C94.6976 215.736 94.4666 215.461 94.2466 215.079L92.4536 211.977L92.4536 216.971C92.4536 217.448 92.4389 217.789 92.4096 217.994C92.3876 218.192 92.3216 218.401 92.2116 218.621C92.0722 218.9 91.8486 219.127 91.5406 219.303C91.2399 219.479 90.8989 219.567 90.5176 219.567C90.1362 219.567 89.7916 219.479 89.4836 219.303C89.1829 219.127 88.9629 218.9 88.8236 218.621C88.7136 218.401 88.6439 218.192 88.6146 217.994C88.5926 217.789 88.5816 217.448 88.5816 216.971ZM105.557 216.531L109.737 205.432C109.972 204.816 110.239 204.391 110.54 204.156C110.899 203.87 111.354 203.727 111.904 203.727C112.454 203.727 112.909 203.87 113.268 204.156C113.569 204.391 113.836 204.816 114.071 205.432L118.251 216.531C118.398 216.927 118.497 217.239 118.548 217.466C118.607 217.686 118.607 217.939 118.548 218.225C118.497 218.504 118.354 218.761 118.119 218.995C117.738 219.377 117.276 219.567 116.733 219.567C116.293 219.567 115.93 219.435 115.644 219.171C115.483 219.025 115.351 218.86 115.248 218.676C115.153 218.493 115.032 218.196 114.885 217.785L114.654 217.147H109.154L108.923 217.785C108.776 218.196 108.652 218.493 108.549 218.676C108.454 218.86 108.325 219.025 108.164 219.171C107.878 219.435 107.515 219.567 107.075 219.567C106.532 219.567 106.07 219.377 105.689 218.995C105.454 218.761 105.308 218.504 105.249 218.225C105.198 217.939 105.198 217.686 105.249 217.466C105.308 217.239 105.41 216.927 105.557 216.531ZM113.488 213.935L111.904 209.579L110.32 213.935H113.488ZM121.939 216.971L121.939 207.247H120.322C119.904 207.247 119.6 207.236 119.409 207.214C119.219 207.185 119.032 207.126 118.848 207.038C118.599 206.921 118.397 206.727 118.243 206.455C118.089 206.177 118.012 205.869 118.012 205.531C118.012 205.194 118.089 204.89 118.243 204.618C118.397 204.34 118.599 204.142 118.848 204.024C119.032 203.936 119.219 203.881 119.409 203.859C119.6 203.83 119.904 203.815 120.322 203.815H127.428C127.846 203.815 128.151 203.83 128.341 203.859C128.532 203.881 128.719 203.936 128.902 204.024C129.152 204.142 129.353 204.34 129.507 204.618C129.661 204.89 129.738 205.194 129.738 205.531C129.738 205.869 129.661 206.177 129.507 206.455C129.353 206.727 129.152 206.921 128.902 207.038C128.719 207.126 128.532 207.185 128.341 207.214C128.151 207.236 127.846 207.247 127.428 207.247H125.811L125.811 216.971C125.811 217.448 125.797 217.789 125.767 217.994C125.745 218.192 125.679 218.401 125.569 218.621C125.43 218.9 125.206 219.127 124.898 219.303C124.598 219.479 124.257 219.567 123.875 219.567C123.494 219.567 123.149 219.479 122.841 219.303C122.541 219.127 122.321 218.9 122.181 218.621C122.071 218.401 122.002 218.192 121.972 217.994C121.95 217.789 121.939 217.448 121.939 216.971ZM141.116 217.895C140.537 218.475 139.895 218.907 139.191 219.193C138.494 219.472 137.68 219.611 136.749 219.611C135.818 219.611 135 219.472 134.296 219.193C133.599 218.907 132.961 218.475 132.382 217.895C132.074 217.587 131.814 217.243 131.601 216.861C131.388 216.48 131.227 216.124 131.117 215.794C131.014 215.457 130.934 215.028 130.875 214.507C130.824 213.979 130.791 213.539 130.776 213.187C130.769 212.828 130.765 212.315 130.765 211.647C130.765 210.98 130.769 210.47 130.776 210.118C130.791 209.759 130.824 209.319 130.875 208.798C130.934 208.27 131.014 207.841 131.117 207.511C131.227 207.174 131.388 206.815 131.601 206.433C131.814 206.052 132.074 205.707 132.382 205.399C132.961 204.82 133.599 204.391 134.296 204.112C135 203.826 135.818 203.683 136.749 203.683C137.68 203.683 138.494 203.826 139.191 204.112C139.895 204.391 140.537 204.82 141.116 205.399C141.424 205.707 141.684 206.052 141.897 206.433C142.11 206.815 142.267 207.174 142.37 207.511C142.48 207.841 142.561 208.27 142.612 208.798C142.671 209.319 142.704 209.759 142.711 210.118C142.726 210.47 142.733 210.98 142.733 211.647C142.733 212.315 142.726 212.828 142.711 213.187C142.704 213.539 142.671 213.979 142.612 214.507C142.561 215.028 142.48 215.457 142.37 215.794C142.267 216.124 142.11 216.48 141.897 216.861C141.684 217.243 141.424 217.587 141.116 217.895ZM138.289 215.475C138.494 215.204 138.641 214.826 138.729 214.342C138.817 213.858 138.861 212.96 138.861 211.647C138.861 210.335 138.817 209.433 138.729 208.941C138.641 208.443 138.494 208.061 138.289 207.797C138.135 207.599 137.922 207.438 137.651 207.313C137.387 207.181 137.086 207.115 136.749 207.115C136.412 207.115 136.107 207.181 135.836 207.313C135.572 207.438 135.363 207.599 135.209 207.797C135.004 208.061 134.857 208.443 134.769 208.941C134.681 209.433 134.637 210.335 134.637 211.647C134.637 212.96 134.681 213.858 134.769 214.342C134.857 214.826 135.004 215.204 135.209 215.475C135.568 215.945 136.082 216.179 136.749 216.179C137.416 216.179 137.93 215.945 138.289 215.475ZM153.873 216.971L153.873 207.247H151.145L151.145 211.339C151.145 212.645 151.076 213.767 150.936 214.705C150.804 215.644 150.61 216.421 150.353 217.037C150.104 217.653 149.767 218.141 149.341 218.5C148.923 218.86 148.458 219.113 147.944 219.259C147.431 219.406 146.819 219.479 146.107 219.479C145.616 219.479 145.268 219.468 145.062 219.446C144.857 219.417 144.663 219.358 144.479 219.27C144.237 219.153 144.036 218.955 143.874 218.676C143.72 218.398 143.643 218.09 143.643 217.752C143.643 217.239 143.805 216.821 144.127 216.498C144.413 216.212 144.835 216.058 145.392 216.036C145.671 216.022 145.917 215.959 146.129 215.849C146.342 215.732 146.518 215.593 146.657 215.431C146.804 215.263 146.925 215.039 147.02 214.76C147.123 214.482 147.2 214.221 147.251 213.979C147.303 213.737 147.343 213.426 147.372 213.044C147.402 212.663 147.416 212.34 147.416 212.076C147.424 211.812 147.427 211.471 147.427 211.053L147.427 206.18C147.427 205.916 147.431 205.707 147.438 205.553C147.453 205.399 147.501 205.205 147.581 204.97C147.669 204.728 147.798 204.523 147.966 204.354C148.135 204.186 148.337 204.061 148.571 203.98C148.813 203.892 149.011 203.845 149.165 203.837C149.319 203.823 149.528 203.815 149.792 203.815H155.38C155.644 203.815 155.853 203.823 156.007 203.837C156.161 203.845 156.356 203.892 156.59 203.98C156.832 204.061 157.038 204.186 157.206 204.354C157.375 204.523 157.5 204.728 157.58 204.97C157.668 205.205 157.716 205.399 157.723 205.553C157.738 205.707 157.745 205.916 157.745 206.18L157.745 216.971C157.745 217.448 157.731 217.789 157.701 217.994C157.679 218.192 157.613 218.401 157.503 218.621C157.364 218.9 157.14 219.127 156.832 219.303C156.532 219.479 156.191 219.567 155.809 219.567C155.428 219.567 155.083 219.479 154.775 219.303C154.475 219.127 154.255 218.9 154.115 218.621C154.005 218.401 153.936 218.192 153.906 217.994C153.884 217.789 153.873 217.448 153.873 216.971ZM170.721 217.895C170.142 218.475 169.5 218.907 168.796 219.193C168.1 219.472 167.286 219.611 166.354 219.611C165.423 219.611 164.605 219.472 163.901 219.193C163.205 218.907 162.567 218.475 161.987 217.895C161.679 217.587 161.419 217.243 161.206 216.861C160.994 216.48 160.832 216.124 160.722 215.794C160.62 215.457 160.539 215.028 160.48 214.507C160.429 213.979 160.396 213.539 160.381 213.187C160.374 212.828 160.37 212.315 160.37 211.647C160.37 210.98 160.374 210.47 160.381 210.118C160.396 209.759 160.429 209.319 160.48 208.798C160.539 208.27 160.62 207.841 160.722 207.511C160.832 207.174 160.994 206.815 161.206 206.433C161.419 206.052 161.679 205.707 161.987 205.399C162.567 204.82 163.205 204.391 163.901 204.112C164.605 203.826 165.423 203.683 166.354 203.683C167.286 203.683 168.1 203.826 168.796 204.112C169.5 204.391 170.142 204.82 170.721 205.399C171.029 205.707 171.29 206.052 171.502 206.433C171.715 206.815 171.873 207.174 171.975 207.511C172.085 207.841 172.166 208.27 172.217 208.798C172.276 209.319 172.309 209.759 172.316 210.118C172.331 210.47 172.338 210.98 172.338 211.647C172.338 212.315 172.331 212.828 172.316 213.187C172.309 213.539 172.276 213.979 172.217 214.507C172.166 215.028 172.085 215.457 171.975 215.794C171.873 216.124 171.715 216.48 171.502 216.861C171.29 217.243 171.029 217.587 170.721 217.895ZM167.894 215.475C168.1 215.204 168.246 214.826 168.334 214.342C168.422 213.858 168.466 212.96 168.466 211.647C168.466 210.335 168.422 209.433 168.334 208.941C168.246 208.443 168.1 208.061 167.894 207.797C167.74 207.599 167.528 207.438 167.256 207.313C166.992 207.181 166.692 207.115 166.354 207.115C166.017 207.115 165.713 207.181 165.441 207.313C165.177 207.438 164.968 207.599 164.814 207.797C164.609 208.061 164.462 208.443 164.374 208.941C164.286 209.433 164.242 210.335 164.242 211.647C164.242 212.96 164.286 213.858 164.374 214.342C164.462 214.826 164.609 215.204 164.814 215.475C165.174 215.945 165.687 216.179 166.354 216.179C167.022 216.179 167.535 215.945 167.894 215.475ZM174.949 216.971L174.949 206.18C174.949 205.916 174.952 205.707 174.96 205.553C174.974 205.399 175.022 205.205 175.103 204.97C175.191 204.728 175.319 204.523 175.488 204.354C175.656 204.186 175.858 204.061 176.093 203.98C176.335 203.892 176.533 203.845 176.687 203.837C176.841 203.823 177.05 203.815 177.314 203.815H182.847C183.265 203.815 183.569 203.83 183.76 203.859C183.95 203.881 184.137 203.936 184.321 204.024C184.57 204.142 184.772 204.34 184.926 204.618C185.08 204.89 185.157 205.194 185.157 205.531C185.157 205.869 185.08 206.177 184.926 206.455C184.772 206.727 184.57 206.921 184.321 207.038C184.137 207.126 183.95 207.185 183.76 207.214C183.569 207.236 183.265 207.247 182.847 207.247H178.821L178.821 216.971C178.821 217.448 178.806 217.789 178.777 217.994C178.755 218.192 178.689 218.401 178.579 218.621C178.439 218.9 178.216 219.127 177.908 219.303C177.607 219.479 177.266 219.567 176.885 219.567C176.503 219.567 176.159 219.479 175.851 219.303C175.55 219.127 175.33 218.9 175.191 218.621C175.081 218.401 175.011 218.192 174.982 217.994C174.96 217.789 174.949 217.448 174.949 216.971ZM199.514 216.971C199.514 217.448 199.499 217.789 199.47 217.994C199.448 218.192 199.382 218.401 199.272 218.621C199.132 218.9 198.909 219.127 198.601 219.303C198.3 219.479 197.959 219.567 197.578 219.567C197.196 219.567 196.852 219.479 196.544 219.303C196.243 219.127 196.023 218.9 195.884 218.621C195.774 218.401 195.704 218.192 195.675 217.994C195.653 217.789 195.642 217.448 195.642 216.971L195.642 211.163L191.429 217.796C191.011 218.449 190.633 218.907 190.296 219.171C189.966 219.435 189.573 219.567 189.119 219.567C188.576 219.567 188.121 219.384 187.755 219.017C187.549 218.812 187.41 218.563 187.337 218.269C187.271 217.976 187.238 217.613 187.238 217.18L187.238 206.323C187.238 205.847 187.249 205.509 187.271 205.311C187.3 205.106 187.37 204.893 187.48 204.673C187.619 204.395 187.839 204.167 188.14 203.991C188.448 203.815 188.792 203.727 189.174 203.727C189.555 203.727 189.896 203.815 190.197 203.991C190.505 204.167 190.728 204.395 190.868 204.673C190.978 204.893 191.044 205.106 191.066 205.311C191.095 205.509 191.11 205.847 191.11 206.323L191.11 212.131L195.323 205.498C195.741 204.846 196.115 204.387 196.445 204.123C196.782 203.859 197.178 203.727 197.633 203.727C198.175 203.727 198.63 203.911 198.997 204.277C199.202 204.483 199.338 204.732 199.404 205.025C199.477 205.319 199.514 205.682 199.514 206.114L199.514 216.971ZM209.924 216.971L209.924 213.891H208.351L205.997 218.027C205.858 218.269 205.74 218.464 205.645 218.61C205.55 218.75 205.421 218.904 205.26 219.072C205.106 219.241 204.93 219.366 204.732 219.446C204.541 219.527 204.329 219.567 204.094 219.567C203.771 219.567 203.449 219.476 203.126 219.292C202.495 218.933 202.18 218.423 202.18 217.763C202.18 217.529 202.22 217.301 202.301 217.081C202.382 216.861 202.532 216.557 202.752 216.168L204.512 213.088C203.779 212.634 203.214 212.029 202.818 211.273C202.422 210.518 202.224 209.711 202.224 208.853C202.224 208.201 202.341 207.577 202.576 206.983C202.811 206.382 203.144 205.847 203.577 205.377C204.017 204.901 204.582 204.523 205.271 204.244C205.96 203.958 206.727 203.815 207.57 203.815H211.431C211.695 203.815 211.904 203.823 212.058 203.837C212.212 203.845 212.406 203.892 212.641 203.98C212.883 204.061 213.088 204.186 213.257 204.354C213.426 204.523 213.55 204.728 213.631 204.97C213.719 205.205 213.767 205.399 213.774 205.553C213.789 205.707 213.796 205.916 213.796 206.18L213.796 216.971C213.796 217.448 213.781 217.789 213.752 217.994C213.73 218.192 213.664 218.401 213.554 218.621C213.415 218.9 213.191 219.127 212.883 219.303C212.582 219.479 212.241 219.567 211.86 219.567C211.479 219.567 211.134 219.479 210.826 219.303C210.525 219.127 210.305 218.9 210.166 218.621C210.056 218.401 209.986 218.192 209.957 217.994C209.935 217.789 209.924 217.448 209.924 216.971ZM209.924 210.459L209.924 207.247H207.746C207.24 207.247 206.833 207.409 206.525 207.731C206.224 208.047 206.074 208.421 206.074 208.853C206.074 209.286 206.224 209.664 206.525 209.986C206.833 210.302 207.24 210.459 207.746 210.459H209.924Z" fill="#4D4D4D"/>
<path d="M131.725 0.938196L131.449 0.778772L131.173 0.938196L66.4489 38.3678L66.7246 38.8445L66.4487 38.3679L1.72415 75.825L1.44928 75.984L1.44928 76.3016L1.44929 151.161L1.44929 226.047L1.44929 226.365L1.72416 226.524L66.4487 263.981L66.4489 263.981L131.173 301.411L131.449 301.57L131.725 301.411L196.449 263.981L196.45 263.981L261.174 226.524L261.449 226.365L261.449 226.047L261.449 151.161L261.449 76.3016L261.449 75.984L261.174 75.825L196.45 38.3679L196.174 38.8445L196.449 38.3678L131.725 0.938196Z" stroke="#024FA2" stroke-width="1.10141"/>
<defs>
<clipPath id="clip0_244_62">
<rect width="92.5424" height="83.6892" fill="white" transform="translate(85.7288 62.6655)"/>
</clipPath>
</defs>
</svg>
