<svg width="94" height="85" viewBox="0 0 94 85" fill="none" xmlns="http://www.w3.org/2000/svg">
<g clip-path="url(#clip0_235_1043)">
<path fill-rule="evenodd" clip-rule="evenodd" d="M46.5016 84.3016C56.2651 84.8622 65.3465 80.9269 71.4012 76.6348C73.1782 75.3762 74.3132 74.1468 75.676 72.7855C78.138 70.3252 79.36 69.1915 81.3151 66.1525C82.2209 64.7441 81.8329 64.9619 83.7094 64.572C91.7828 62.8929 96.5147 51.8972 90.6657 44.3331C87.9484 40.8181 88.1555 43.3159 87.8089 39.0794C87.4209 34.3475 85.1772 27.0831 82.8492 23.6029C80.7242 20.4266 79.8529 17.0476 76.2919 19.7425C75.9163 20.8248 75.6125 21.5506 76.296 22.7065C78.5978 26.5975 77.9557 24.6617 80.564 30.3871C82.2831 34.1602 82.8961 39.2987 83.0673 43.8488C89.1814 45.217 91.7303 54.6739 85.4091 58.9645C83.3559 60.3577 81.7197 60.57 78.9568 60.2925C77.9032 62.9623 74.2801 67.3903 72.0308 69.4537C68.8702 72.3526 70.1143 71.2591 66.788 73.6611C66.1556 74.1177 65.3796 74.5298 64.6795 74.8698C63.9505 75.2236 63.4589 75.6246 62.647 75.9729C61.2138 76.5891 59.5058 77.1413 58.0656 77.6908C51.7941 80.0873 42.4007 79.535 35.9994 77.3328C32.8734 76.2574 28.8802 74.1468 26.6088 72.3109C26.3161 72.075 25.9847 71.8919 25.6312 71.6296L20.7985 67.0115C19.4122 65.3185 16.6354 61.5164 15.8139 59.3891C12.6768 59.335 11.5031 59.7804 9.10746 58.1513C4.38658 54.9403 4.86019 47.7869 9.44437 45.1199C10.1983 44.6814 11.3581 44.315 12.0181 43.8932C13.0358 42.7373 10.4261 34.1546 19.9245 21.4076C24.1137 15.7849 31.1295 11.368 37.9091 9.40445C48.9995 6.19342 53.1473 10.4813 54.3375 6.13791C54.3941 4.11333 53.5035 3.51802 51.7099 3.21968C50.0419 2.94215 48.1406 2.97961 46.4492 3.03373C38.2211 3.33208 28.5778 6.40712 22.7909 11.6552C21.3798 12.936 18.2717 15.4643 17.2098 16.8534C16.8149 17.3696 16.398 17.7928 16.0127 18.3118C15.6081 18.8558 15.2975 19.2831 14.8846 19.834L12.6933 23.1186C9.58244 28.1392 8.17405 33.5177 7.42705 39.4208C7.10947 41.9296 5.4125 40.3588 2.43693 45.3863C-1.71783 52.405 1.77416 62.9998 12.2335 64.4846C13.1421 64.6136 12.7306 64.4055 13.1255 64.9147C13.5439 65.4531 14.4014 67.0323 15.9188 68.9278C16.2889 69.3899 16.8011 70.1254 17.167 70.5028L21.1423 74.477C23.7727 76.5904 25.9805 78.2556 29.2958 79.9222C33.7212 82.1466 40.7093 84.439 46.503 84.3016H46.5016Z" fill="#4D4D4D"/>
<path fill-rule="evenodd" clip-rule="evenodd" d="M24.4138 52.924C20.8045 53.8856 23.0413 57.4422 24.2343 59.235C28.6141 65.8153 34.9629 69.9588 42.8665 71.2688C54.1944 73.1463 64.3583 67.5818 70.3177 58.4288C73.3402 53.7871 70.0899 52.5244 68.5904 52.8671C67.1336 53.2015 66.8092 54.4643 66.1602 55.58C65.4049 56.876 64.8126 57.5338 64.0089 58.5676C55.8789 69.0166 38.2671 69.5051 29.4191 57.8543C28.7522 56.9759 28.0163 55.8117 27.3839 54.7488C27.0014 54.1077 26.3193 52.4189 24.4152 52.9254L24.4138 52.924Z" fill="#E22E15"/>
<path fill-rule="evenodd" clip-rule="evenodd" d="M67.93 11.7136C69.5428 18.416 63.1484 24.097 56.7457 21.2523C55.1482 20.5419 55.1123 20.052 53.9897 19.361C51.3138 17.7124 48.8366 21.0303 50.8139 23.22C53.8447 26.5768 60.2322 28.0546 64.5775 26.2271C65.6752 25.765 66.7826 25.3251 67.6262 24.6382C68.5058 23.9208 69.3246 23.3741 70.0619 22.4332C71.625 20.4406 72.4424 19.0321 73.0458 16.1291C73.8121 10.1567 71.5366 5.53162 67.0201 2.61062C65.7332 1.77802 64.1315 1.13276 62.3669 0.812217C60.4144 0.458365 58.2287 0.654024 57.8214 2.48711C57.3257 4.71568 59.0779 5.56354 60.9129 5.73839C63.3058 5.96735 64.971 7.01225 66.2814 8.50259C67.0366 9.36294 67.6401 10.5508 67.9314 11.7122L67.93 11.7136Z" fill="#4D4D4D"/>
<path fill-rule="evenodd" clip-rule="evenodd" d="M36.4985 36.6389C29.6747 38.2722 32.04 47.958 38.4482 46.6813C40.9308 46.1859 43.1027 43.7159 42.451 40.6034C41.9457 38.1917 39.5265 35.9145 36.4985 36.6403V36.6389Z" fill="#4D4D4D"/>
<path fill-rule="evenodd" clip-rule="evenodd" d="M55.8594 36.4743C48.8464 37.6497 50.8375 47.7615 57.4017 46.5889C59.8692 46.1476 62.0715 43.7706 61.5468 40.6872C61.1284 38.2269 58.7963 35.9831 55.8594 36.4757V36.4743Z" fill="#4D4D4D"/>
</g>
<defs>
<clipPath id="clip0_235_1043">
<rect width="92.5424" height="83.6892" fill="white" transform="translate(0.72876 0.665527)"/>
</clipPath>
</defs>
</svg>
