<svg width="264" height="303" viewBox="0 0 264 303" fill="none" xmlns="http://www.w3.org/2000/svg">
<path d="M75.2601 53.7279L75.2607 53.7276L132 21.0594L188.739 53.7276L188.74 53.7279L245.475 86.4177L245.475 151.747L245.475 217.101L188.74 249.791L188.739 249.791L132 282.46L75.2607 249.791L75.2601 249.791L18.5248 217.101L18.5248 151.747L18.5248 86.4177L75.2601 53.7279Z" fill="#F8F8F8" stroke="#4D4D4D" stroke-width="4.40566"/>
<path d="M51.5806 194.769L51.5806 184.121C51.5806 183.644 51.5916 183.307 51.6136 183.109C51.6429 182.904 51.7126 182.691 51.8226 182.471C51.9619 182.192 52.1819 181.965 52.4826 181.789C52.7906 181.613 53.1352 181.525 53.5166 181.525C53.8979 181.525 54.2389 181.613 54.5396 181.789C54.8476 181.965 55.0712 182.192 55.2106 182.471C55.3206 182.691 55.3866 182.904 55.4086 183.109C55.4379 183.307 55.4526 183.644 55.4526 184.121L55.4526 187.432H55.7936L59.7426 182.702C60.1019 182.262 60.4026 181.958 60.6446 181.789C60.8939 181.613 61.1909 181.525 61.5356 181.525C61.9536 181.525 62.3422 181.675 62.7016 181.976C63.1489 182.35 63.3726 182.786 63.3726 183.285C63.3726 183.578 63.3139 183.846 63.1966 184.088C63.0792 184.323 62.8519 184.631 62.5146 185.012L58.8736 189.115L62.8556 193.878C63.1929 194.274 63.4202 194.589 63.5376 194.824C63.6549 195.059 63.7136 195.319 63.7136 195.605C63.7136 196.104 63.4899 196.54 63.0426 196.914C62.6832 197.215 62.2946 197.365 61.8766 197.365C61.5319 197.365 61.2349 197.281 60.9856 197.112C60.7436 196.936 60.4429 196.628 60.0836 196.188L55.7936 191.062H55.4526L55.4526 194.769C55.4526 195.246 55.4379 195.587 55.4086 195.792C55.3866 195.99 55.3206 196.199 55.2106 196.419C55.0712 196.698 54.8476 196.925 54.5396 197.101C54.2389 197.277 53.8979 197.365 53.5166 197.365C53.1352 197.365 52.7906 197.277 52.4826 197.101C52.1819 196.925 51.9619 196.698 51.8226 196.419C51.7126 196.199 51.6429 195.99 51.6136 195.792C51.5916 195.587 51.5806 195.246 51.5806 194.769ZM75.24 195.693C74.6607 196.272 74.019 196.705 73.315 196.991C72.6184 197.27 71.8044 197.409 70.873 197.409C69.9417 197.409 69.124 197.27 68.42 196.991C67.7234 196.705 67.0854 196.272 66.506 195.693C66.198 195.385 65.9377 195.04 65.725 194.659C65.5124 194.278 65.351 193.922 65.241 193.592C65.1384 193.255 65.0577 192.826 64.999 192.305C64.9477 191.777 64.9147 191.337 64.9 190.985C64.8927 190.626 64.889 190.112 64.889 189.445C64.889 188.778 64.8927 188.268 64.9 187.916C64.9147 187.557 64.9477 187.117 64.999 186.596C65.0577 186.068 65.1384 185.639 65.241 185.309C65.351 184.972 65.5124 184.612 65.725 184.231C65.9377 183.85 66.198 183.505 66.506 183.197C67.0854 182.618 67.7234 182.189 68.42 181.91C69.124 181.624 69.9417 181.481 70.873 181.481C71.8044 181.481 72.6184 181.624 73.315 181.91C74.019 182.189 74.6607 182.618 75.24 183.197C75.548 183.505 75.8084 183.85 76.021 184.231C76.2337 184.612 76.3914 184.972 76.494 185.309C76.604 185.639 76.6847 186.068 76.736 186.596C76.7947 187.117 76.8277 187.557 76.835 187.916C76.8497 188.268 76.857 188.778 76.857 189.445C76.857 190.112 76.8497 190.626 76.835 190.985C76.8277 191.337 76.7947 191.777 76.736 192.305C76.6847 192.826 76.604 193.255 76.494 193.592C76.3914 193.922 76.2337 194.278 76.021 194.659C75.8084 195.04 75.548 195.385 75.24 195.693ZM72.413 193.273C72.6184 193.002 72.765 192.624 72.853 192.14C72.941 191.656 72.985 190.758 72.985 189.445C72.985 188.132 72.941 187.23 72.853 186.739C72.765 186.24 72.6184 185.859 72.413 185.595C72.259 185.397 72.0464 185.236 71.775 185.111C71.511 184.979 71.2104 184.913 70.873 184.913C70.5357 184.913 70.2314 184.979 69.96 185.111C69.696 185.236 69.487 185.397 69.333 185.595C69.1277 185.859 68.981 186.24 68.893 186.739C68.805 187.23 68.761 188.132 68.761 189.445C68.761 190.758 68.805 191.656 68.893 192.14C68.981 192.624 69.1277 193.002 69.333 193.273C69.6924 193.742 70.2057 193.977 70.873 193.977C71.5404 193.977 72.0537 193.742 72.413 193.273ZM91.3033 194.769C91.3033 195.246 91.2886 195.587 91.2593 195.792C91.2373 195.99 91.1713 196.199 91.0613 196.419C90.922 196.698 90.6983 196.925 90.3903 197.101C90.0896 197.277 89.7486 197.365 89.3673 197.365C88.986 197.365 88.6413 197.277 88.3333 197.101C88.0326 196.925 87.8126 196.698 87.6733 196.419C87.5633 196.199 87.4936 195.99 87.4643 195.792C87.4423 195.587 87.4313 195.246 87.4313 194.769L87.4313 191.073H83.3393L83.3393 194.769C83.3393 195.246 83.3246 195.587 83.2953 195.792C83.2733 195.99 83.2073 196.199 83.0973 196.419C82.958 196.698 82.7343 196.925 82.4263 197.101C82.1256 197.277 81.7846 197.365 81.4033 197.365C81.022 197.365 80.6773 197.277 80.3693 197.101C80.0686 196.925 79.8486 196.698 79.7093 196.419C79.5993 196.199 79.5296 195.99 79.5003 195.792C79.4783 195.587 79.4673 195.246 79.4673 194.769L79.4673 184.121C79.4673 183.644 79.4783 183.307 79.5003 183.109C79.5296 182.904 79.5993 182.691 79.7093 182.471C79.8486 182.192 80.0686 181.965 80.3693 181.789C80.6773 181.613 81.022 181.525 81.4033 181.525C81.7846 181.525 82.1256 181.613 82.4263 181.789C82.7343 181.965 82.958 182.192 83.0973 182.471C83.2073 182.691 83.2733 182.904 83.2953 183.109C83.3246 183.307 83.3393 183.644 83.3393 184.121L83.3393 187.641H87.4313L87.4313 184.121C87.4313 183.644 87.4423 183.307 87.4643 183.109C87.4936 182.904 87.5633 182.691 87.6733 182.471C87.8126 182.192 88.0326 181.965 88.3333 181.789C88.6413 181.613 88.986 181.525 89.3673 181.525C89.7486 181.525 90.0896 181.613 90.3903 181.789C90.6983 181.965 90.922 182.192 91.0613 182.471C91.1713 182.691 91.2373 182.904 91.2593 183.109C91.2886 183.307 91.3033 183.644 91.3033 184.121L91.3033 194.769ZM93.9254 190.985C93.9181 190.626 93.9144 190.112 93.9144 189.445C93.9144 188.778 93.9181 188.268 93.9254 187.916C93.9401 187.557 93.9731 187.117 94.0244 186.596C94.0831 186.068 94.1638 185.639 94.2664 185.309C94.3764 184.972 94.5378 184.612 94.7504 184.231C94.9631 183.85 95.2234 183.505 95.5314 183.197C96.6754 182.053 98.1164 181.481 99.8544 181.481C100.815 181.481 101.592 181.573 102.186 181.756C102.78 181.932 103.319 182.236 103.803 182.669C104.339 183.153 104.72 183.655 104.947 184.176C105.175 184.689 105.288 185.155 105.288 185.573C105.288 186.189 105.109 186.677 104.749 187.036C104.39 187.395 103.946 187.575 103.418 187.575C103.008 187.575 102.663 187.476 102.384 187.278C102.062 187.058 101.721 186.629 101.361 185.991C101.141 185.602 100.907 185.327 100.657 185.166C100.415 184.997 100.118 184.913 99.7664 184.913C99.1871 184.913 98.7251 185.14 98.3804 185.595C98.1458 185.903 97.9881 186.31 97.9074 186.816C97.8268 187.315 97.7864 188.191 97.7864 189.445C97.7864 190.699 97.8268 191.579 97.9074 192.085C97.9881 192.584 98.1458 192.987 98.3804 193.295C98.7251 193.75 99.1871 193.977 99.7664 193.977C100.118 193.977 100.415 193.896 100.657 193.735C100.907 193.566 101.141 193.288 101.361 192.899C101.721 192.261 102.062 191.832 102.384 191.612C102.663 191.414 103.008 191.315 103.418 191.315C103.946 191.315 104.39 191.495 104.749 191.854C105.109 192.213 105.288 192.701 105.288 193.317C105.288 193.735 105.175 194.204 104.947 194.725C104.72 195.238 104.339 195.737 103.803 196.221C103.319 196.654 102.78 196.962 102.186 197.145C101.592 197.321 100.815 197.409 99.8544 197.409C98.1164 197.409 96.6754 196.837 95.5314 195.693C95.2234 195.385 94.9631 195.04 94.7504 194.659C94.5378 194.278 94.3764 193.922 94.2664 193.592C94.1638 193.255 94.0831 192.826 94.0244 192.305C93.9731 191.777 93.9401 191.337 93.9254 190.985ZM109.517 197.277H109.209C108.791 197.277 108.487 197.266 108.296 197.244C108.106 197.215 107.919 197.156 107.735 197.068C107.486 196.951 107.284 196.756 107.13 196.485C106.976 196.206 106.899 195.898 106.899 195.561C106.899 195.224 106.976 194.919 107.13 194.648C107.284 194.369 107.486 194.171 107.735 194.054C108.021 193.915 108.472 193.845 109.088 193.845C109.528 193.845 109.844 193.669 110.034 193.317L106.712 184.561C106.566 184.165 106.463 183.857 106.404 183.637C106.353 183.41 106.353 183.157 106.404 182.878C106.463 182.592 106.61 182.332 106.844 182.097C107.226 181.716 107.688 181.525 108.23 181.525C108.67 181.525 109.033 181.657 109.319 181.921C109.473 182.06 109.598 182.222 109.693 182.405C109.789 182.581 109.917 182.882 110.078 183.307L111.937 188.356L113.796 183.307C113.958 182.882 114.086 182.581 114.181 182.405C114.277 182.222 114.401 182.06 114.555 181.921C114.841 181.657 115.204 181.525 115.644 181.525C116.187 181.525 116.649 181.716 117.03 182.097C117.265 182.332 117.408 182.592 117.459 182.878C117.518 183.157 117.518 183.41 117.459 183.637C117.408 183.857 117.309 184.165 117.162 184.561L113.609 194.065C113.235 195.062 112.707 195.847 112.025 196.419C111.343 196.991 110.507 197.277 109.517 197.277ZM126.927 194.769L126.927 185.045H124.199L124.199 189.137C124.199 190.442 124.129 191.564 123.99 192.503C123.858 193.442 123.664 194.219 123.407 194.835C123.158 195.451 122.82 195.939 122.395 196.298C121.977 196.657 121.511 196.91 120.998 197.057C120.485 197.204 119.872 197.277 119.161 197.277C118.67 197.277 118.321 197.266 118.116 197.244C117.911 197.215 117.716 197.156 117.533 197.068C117.291 196.951 117.089 196.753 116.928 196.474C116.774 196.195 116.697 195.887 116.697 195.55C116.697 195.037 116.858 194.619 117.181 194.296C117.467 194.01 117.889 193.856 118.446 193.834C118.725 193.819 118.97 193.757 119.183 193.647C119.396 193.53 119.572 193.39 119.711 193.229C119.858 193.06 119.979 192.837 120.074 192.558C120.177 192.279 120.254 192.019 120.305 191.777C120.356 191.535 120.397 191.223 120.426 190.842C120.455 190.461 120.47 190.138 120.47 189.874C120.477 189.61 120.481 189.269 120.481 188.851L120.481 183.978C120.481 183.714 120.485 183.505 120.492 183.351C120.507 183.197 120.554 183.003 120.635 182.768C120.723 182.526 120.851 182.321 121.02 182.152C121.189 181.983 121.39 181.859 121.625 181.778C121.867 181.69 122.065 181.642 122.219 181.635C122.373 181.62 122.582 181.613 122.846 181.613H128.434C128.698 181.613 128.907 181.62 129.061 181.635C129.215 181.642 129.409 181.69 129.644 181.778C129.886 181.859 130.091 181.983 130.26 182.152C130.429 182.321 130.553 182.526 130.634 182.768C130.722 183.003 130.77 183.197 130.777 183.351C130.792 183.505 130.799 183.714 130.799 183.978L130.799 194.769C130.799 195.246 130.784 195.587 130.755 195.792C130.733 195.99 130.667 196.199 130.557 196.419C130.418 196.698 130.194 196.925 129.886 197.101C129.585 197.277 129.244 197.365 128.863 197.365C128.482 197.365 128.137 197.277 127.829 197.101C127.528 196.925 127.308 196.698 127.169 196.419C127.059 196.199 126.989 195.99 126.96 195.792C126.938 195.587 126.927 195.246 126.927 194.769ZM140.156 197.277H136.295C136.031 197.277 135.822 197.273 135.668 197.266C135.514 197.251 135.316 197.204 135.074 197.123C134.84 197.035 134.638 196.907 134.469 196.738C134.301 196.569 134.172 196.368 134.084 196.133C134.004 195.891 133.956 195.693 133.941 195.539C133.934 195.385 133.93 195.176 133.93 194.912L133.93 184.121C133.93 183.644 133.941 183.307 133.963 183.109C133.993 182.904 134.062 182.691 134.172 182.471C134.312 182.192 134.532 181.965 134.832 181.789C135.14 181.613 135.485 181.525 135.866 181.525C136.248 181.525 136.589 181.613 136.889 181.789C137.197 181.965 137.421 182.192 137.56 182.471C137.67 182.691 137.736 182.904 137.758 183.109C137.788 183.307 137.802 183.644 137.802 184.121L137.802 187.201H140.156C141 187.201 141.766 187.344 142.455 187.63C143.145 187.909 143.706 188.286 144.138 188.763C144.578 189.232 144.916 189.768 145.15 190.369C145.385 190.963 145.502 191.586 145.502 192.239C145.502 192.892 145.385 193.519 145.15 194.12C144.916 194.714 144.578 195.249 144.138 195.726C143.706 196.195 143.145 196.573 142.455 196.859C141.766 197.138 141 197.277 140.156 197.277ZM137.802 193.845H139.98C140.486 193.845 140.89 193.687 141.19 193.372C141.498 193.049 141.652 192.672 141.652 192.239C141.652 191.806 141.498 191.432 141.19 191.117C140.89 190.794 140.486 190.633 139.98 190.633H137.802L137.802 193.845ZM148.64 194.769L148.64 185.045H147.023C146.605 185.045 146.3 185.034 146.11 185.012C145.919 184.983 145.732 184.924 145.549 184.836C145.299 184.719 145.098 184.524 144.944 184.253C144.79 183.974 144.713 183.666 144.713 183.329C144.713 182.992 144.79 182.687 144.944 182.416C145.098 182.137 145.299 181.939 145.549 181.822C145.732 181.734 145.919 181.679 146.11 181.657C146.3 181.628 146.605 181.613 147.023 181.613H154.129C154.547 181.613 154.851 181.628 155.042 181.657C155.232 181.679 155.419 181.734 155.603 181.822C155.852 181.939 156.054 182.137 156.208 182.416C156.362 182.687 156.439 182.992 156.439 183.329C156.439 183.666 156.362 183.974 156.208 184.253C156.054 184.524 155.852 184.719 155.603 184.836C155.419 184.924 155.232 184.983 155.042 185.012C154.851 185.034 154.547 185.045 154.129 185.045H152.512L152.512 194.769C152.512 195.246 152.497 195.587 152.468 195.792C152.446 195.99 152.38 196.199 152.27 196.419C152.13 196.698 151.907 196.925 151.599 197.101C151.298 197.277 150.957 197.365 150.576 197.365C150.194 197.365 149.85 197.277 149.542 197.101C149.241 196.925 149.021 196.698 148.882 196.419C148.772 196.199 148.702 195.99 148.673 195.792C148.651 195.587 148.64 195.246 148.64 194.769ZM156.191 194.329L160.371 183.23C160.606 182.614 160.873 182.189 161.174 181.954C161.533 181.668 161.988 181.525 162.538 181.525C163.088 181.525 163.543 181.668 163.902 181.954C164.203 182.189 164.47 182.614 164.705 183.23L168.885 194.329C169.032 194.725 169.131 195.037 169.182 195.264C169.241 195.484 169.241 195.737 169.182 196.023C169.131 196.302 168.988 196.558 168.753 196.793C168.372 197.174 167.91 197.365 167.367 197.365C166.927 197.365 166.564 197.233 166.278 196.969C166.117 196.822 165.985 196.657 165.882 196.474C165.787 196.291 165.666 195.994 165.519 195.583L165.288 194.945H159.788L159.557 195.583C159.41 195.994 159.286 196.291 159.183 196.474C159.088 196.657 158.959 196.822 158.798 196.969C158.512 197.233 158.149 197.365 157.709 197.365C157.166 197.365 156.704 197.174 156.323 196.793C156.088 196.558 155.942 196.302 155.883 196.023C155.832 195.737 155.832 195.484 155.883 195.264C155.942 195.037 156.044 194.725 156.191 194.329ZM164.122 191.733L162.538 187.377L160.954 191.733H164.122ZM171.227 194.912L171.227 184.121C171.227 183.644 171.238 183.307 171.26 183.109C171.289 182.904 171.359 182.691 171.469 182.471C171.608 182.192 171.828 181.965 172.129 181.789C172.437 181.613 172.782 181.525 173.163 181.525C173.544 181.525 173.885 181.613 174.186 181.789C174.494 181.965 174.718 182.192 174.857 182.471C174.967 182.691 175.033 182.904 175.055 183.109C175.084 183.307 175.099 183.644 175.099 184.121L175.099 193.845H179.191L179.191 184.121C179.191 183.644 179.202 183.307 179.224 183.109C179.253 182.904 179.323 182.691 179.433 182.471C179.572 182.192 179.792 181.965 180.093 181.789C180.401 181.613 180.746 181.525 181.127 181.525C181.508 181.525 181.849 181.613 182.15 181.789C182.458 181.965 182.682 182.192 182.821 182.471C182.931 182.691 182.997 182.904 183.019 183.109C183.048 183.307 183.063 183.644 183.063 184.121L183.063 193.845C183.422 193.845 183.741 193.926 184.02 194.087C184.306 194.248 184.515 194.461 184.647 194.725C184.742 194.916 184.801 195.11 184.823 195.308C184.852 195.506 184.867 195.832 184.867 196.287L184.867 198.091C184.867 198.546 184.852 198.872 184.823 199.07C184.801 199.268 184.742 199.462 184.647 199.653C184.515 199.917 184.306 200.13 184.02 200.291C183.741 200.452 183.422 200.533 183.063 200.533C182.704 200.533 182.381 200.452 182.095 200.291C181.816 200.13 181.611 199.917 181.479 199.653C181.384 199.462 181.321 199.268 181.292 199.07C181.27 198.872 181.259 198.546 181.259 198.091L181.259 197.277H173.592C173.328 197.277 173.119 197.273 172.965 197.266C172.811 197.251 172.613 197.204 172.371 197.123C172.136 197.035 171.935 196.907 171.766 196.738C171.597 196.569 171.469 196.368 171.381 196.133C171.3 195.891 171.253 195.693 171.238 195.539C171.231 195.385 171.227 195.176 171.227 194.912ZM199.23 194.769C199.23 195.246 199.215 195.587 199.186 195.792C199.164 195.99 199.098 196.199 198.988 196.419C198.848 196.698 198.625 196.925 198.317 197.101C198.016 197.277 197.675 197.365 197.294 197.365C196.912 197.365 196.568 197.277 196.26 197.101C195.959 196.925 195.739 196.698 195.6 196.419C195.49 196.199 195.42 195.99 195.391 195.792C195.369 195.587 195.358 195.246 195.358 194.769L195.358 188.961L191.145 195.594C190.727 196.247 190.349 196.705 190.012 196.969C189.682 197.233 189.289 197.365 188.835 197.365C188.292 197.365 187.837 197.182 187.471 196.815C187.265 196.61 187.126 196.36 187.053 196.067C186.987 195.774 186.954 195.411 186.954 194.978L186.954 184.121C186.954 183.644 186.965 183.307 186.987 183.109C187.016 182.904 187.086 182.691 187.196 182.471C187.335 182.192 187.555 181.965 187.856 181.789C188.164 181.613 188.508 181.525 188.89 181.525C189.271 181.525 189.612 181.613 189.913 181.789C190.221 181.965 190.444 182.192 190.584 182.471C190.694 182.691 190.76 182.904 190.782 183.109C190.811 183.307 190.826 183.644 190.826 184.121L190.826 189.929L195.039 183.296C195.457 182.643 195.831 182.185 196.161 181.921C196.498 181.657 196.894 181.525 197.349 181.525C197.891 181.525 198.346 181.708 198.713 182.075C198.918 182.28 199.054 182.53 199.12 182.823C199.193 183.116 199.23 183.479 199.23 183.912L199.23 194.769ZM209.64 194.769L209.64 191.689H208.067L205.713 195.825C205.574 196.067 205.456 196.261 205.361 196.408C205.266 196.547 205.137 196.701 204.976 196.87C204.822 197.039 204.646 197.163 204.448 197.244C204.257 197.325 204.045 197.365 203.81 197.365C203.487 197.365 203.165 197.273 202.842 197.09C202.211 196.731 201.896 196.221 201.896 195.561C201.896 195.326 201.936 195.099 202.017 194.879C202.098 194.659 202.248 194.355 202.468 193.966L204.228 190.886C203.495 190.431 202.93 189.826 202.534 189.071C202.138 188.316 201.94 187.509 201.94 186.651C201.94 185.998 202.057 185.375 202.292 184.781C202.527 184.18 202.86 183.644 203.293 183.175C203.733 182.698 204.298 182.321 204.987 182.042C205.676 181.756 206.443 181.613 207.286 181.613H211.147C211.411 181.613 211.62 181.62 211.774 181.635C211.928 181.642 212.122 181.69 212.357 181.778C212.599 181.859 212.804 181.983 212.973 182.152C213.142 182.321 213.266 182.526 213.347 182.768C213.435 183.003 213.483 183.197 213.49 183.351C213.505 183.505 213.512 183.714 213.512 183.978L213.512 194.769C213.512 195.246 213.497 195.587 213.468 195.792C213.446 195.99 213.38 196.199 213.27 196.419C213.131 196.698 212.907 196.925 212.599 197.101C212.298 197.277 211.957 197.365 211.576 197.365C211.195 197.365 210.85 197.277 210.542 197.101C210.241 196.925 210.021 196.698 209.882 196.419C209.772 196.199 209.702 195.99 209.673 195.792C209.651 195.587 209.64 195.246 209.64 194.769ZM209.64 188.257L209.64 185.045H207.462C206.956 185.045 206.549 185.206 206.241 185.529C205.94 185.844 205.79 186.218 205.79 186.651C205.79 187.084 205.94 187.461 206.241 187.784C206.549 188.099 206.956 188.257 207.462 188.257H209.64Z" fill="#4D4D4D"/>
<g clip-path="url(#clip0_244_58)">
<path fill-rule="evenodd" clip-rule="evenodd" d="M114.184 126.562L127.892 126.565V140.056L137.137 139.976V126.565L150.979 126.554L150.988 117.203L137.137 117.202L137.125 103.703L127.894 103.719L127.883 117.199L114.113 117.262L114.184 126.562Z" fill="#E31E24"/>
<path fill-rule="evenodd" clip-rule="evenodd" d="M132.043 86.4425L151.805 86.4411L151.806 73.6987H131.991L132.043 86.4425Z" fill="#E31E24"/>
<path fill-rule="evenodd" clip-rule="evenodd" d="M112.067 70.2729H153.033C154.175 70.2729 155.109 71.2012 155.109 72.3352V86.4908H182.463C185.005 86.4908 187.084 88.5557 187.084 91.0802V142.767C187.084 145.291 185.005 147.356 182.463 147.356H82.638C80.0962 147.356 78.017 145.291 78.017 142.767V91.0802C78.017 88.5557 80.0962 86.4908 82.638 86.4908H109.992V72.3352C109.992 71.2012 110.927 70.2729 112.069 70.2729H112.067ZM81.5433 96.9625H183.557V91.0788C183.557 90.4805 183.064 89.9916 182.462 89.9916H82.6367C82.0342 89.9916 81.542 90.4805 81.542 91.0788V96.9625H81.5433ZM183.557 100.247H81.5433V142.766C81.5433 143.364 82.0355 143.853 82.638 143.853H182.463C183.066 143.853 183.558 143.364 183.558 142.766V100.247H183.557ZM151.582 86.4908V73.7764H113.517V86.4908H151.582Z" fill="#4D4D4D"/>
</g>
<path d="M132.275 1.52291L132 1.36465L131.725 1.52291L66.7251 38.9525L66.9999 39.4297L66.7249 38.9526L1.7249 76.4097L1.44916 76.5686L1.44916 76.8868L1.44916 151.746L1.44917 226.633L1.44917 226.951L1.72491 227.11L66.7249 264.567L66.7251 264.567L131.725 301.997L132 302.155L132.275 301.997L197.275 264.567L197.275 264.567L262.275 227.11L262.551 226.951L262.551 226.633L262.551 151.746L262.551 76.8868L262.551 76.5685L262.275 76.4096L197.275 38.9526L197 39.4297L197.275 38.9525L132.275 1.52291Z" stroke="#024FA2" stroke-width="1.10141"/>
<defs>
<clipPath id="clip0_244_58">
<rect width="109.068" height="77.0821" fill="white" transform="translate(78.017 70.2729)"/>
</clipPath>
</defs>
</svg>
