<?xml version="1.0" encoding="UTF-8"?> <svg xmlns="http://www.w3.org/2000/svg" width="237" height="276" viewBox="0 0 237 276" fill="none"> <path d="M118.75 1.56719L118.5 1.42233L118.25 1.56719L59.4996 35.5579L59.4995 35.558L0.74946 69.5735L0.499991 69.718L0.499991 70.0062L0.499994 137.988L0.499997 205.994L0.499997 206.282L0.749466 206.426L59.4995 240.442L59.4996 240.442L118.25 274.433L118.5 274.578L118.75 274.433L177.5 240.442L177.501 240.442L236.251 206.426L236.5 206.282L236.5 205.994L236.5 137.988L236.5 70.0062L236.5 69.718L236.251 69.5735L177.501 35.5579L177.5 35.5579L118.75 1.56719Z" stroke="#024FA2"></path> <path d="M66.4983 46.9747L66.4988 46.9744L118 17.3081L169.501 46.9744L169.502 46.9747L221 76.6612L221 135.989L221 195.339L169.502 225.025L169.501 225.026L118 254.692L66.4988 225.026L66.4983 225.025L15 195.339L15 135.989L15 76.6611L66.4983 46.9747Z" fill="#4D4D4D" stroke="#4D4D4D" stroke-width="4"></path> </svg> 