<svg width="42" height="85" viewBox="0 0 42 85" fill="none" xmlns="http://www.w3.org/2000/svg">
<g clip-path="url(#clip0_235_1169)">
<path fill-rule="evenodd" clip-rule="evenodd" d="M26.7689 34.4731C31.2446 33.4496 34.9112 36.7504 35.6473 40.3077C36.621 45.012 33.4107 48.5883 29.8146 49.3482C25.2872 50.3076 21.6253 47.059 20.8939 43.4732C19.9202 38.7 23.1211 35.3066 26.7689 34.4731ZM15.7996 77.5121L40.1136 77.5525C40.1888 75.2871 39.5962 65.3418 39.4551 62.2903L37.7193 23.908C37.6582 22.6328 37.6041 21.3576 37.5688 20.0824C37.5194 18.356 37.7264 17.7576 36.5528 17.0428L36.9503 17.8169L19.0476 17.8241L19.4851 16.8884C18.2974 17.3681 18.3891 18.185 18.3232 19.7737L16.4111 62.1716C16.2982 64.7078 16.1806 67.2606 16.0678 69.7967C16.0019 71.2643 15.5856 76.4625 15.7996 77.5121Z" fill="white"/>
<path fill-rule="evenodd" clip-rule="evenodd" d="M17.1843 79.1266L38.6712 79.1646L38.7394 81.0192L17.1184 81.0216L17.1843 79.1266ZM15.7967 77.5118C15.5826 76.4598 15.9989 71.2616 16.0648 69.7964C16.1777 67.2602 16.2976 64.7098 16.4082 62.1712L18.3202 19.7733C18.3837 18.187 18.2944 17.3701 19.4821 16.8881L19.0446 17.8237L36.9473 17.8166L36.5498 17.0424C37.7258 17.7572 37.5188 18.3556 37.5658 20.0821C37.6011 21.3573 37.6576 22.6349 37.7164 23.9077L39.4521 62.29C39.5932 65.3415 40.1859 75.2867 40.1106 77.5522L15.7967 77.5118ZM22.3232 16.2137C22.5795 15.7221 23.0076 15.4704 23.4262 15.0976C23.9436 14.6345 23.9483 14.3187 24.8068 14.3187H30.616C31.7896 14.3187 31.7472 14.283 32.3705 14.9931C32.7115 15.3825 33.2407 15.829 33.4618 16.2089L22.3232 16.2137ZM20.6463 13.2738L18.0874 15.8432C16.8244 16.9332 16.8127 17.6005 16.7233 19.7686L14.442 70.3473C14.2891 73.7645 14.1362 77.1627 13.9833 80.5752C13.7881 84.9304 14.0069 84.2369 20.6533 84.2132C26.4037 84.2156 32.1565 84.2132 37.9069 84.2132C42.352 84.2132 42.0321 84.1538 41.8369 79.7606L39.9577 38.0419C39.7084 32.4447 39.4097 26.8571 39.2004 21.267C39.017 16.4226 39.2945 17.6361 36.8344 14.9931C36.0794 14.1809 35.5079 13.687 34.6824 12.806C33.6523 11.7065 33.9039 12.7751 33.6147 9.53126C32.815 0.550147 33.7605 0.581019 29.5365 0.583393C28.0947 0.583393 26.6507 0.573894 25.2113 0.581019C23.5838 0.590517 23.0029 0.861233 22.8641 2.49978C22.7465 3.86285 22.6383 5.19031 22.5184 6.54389C22.4361 7.47477 22.2832 11.7326 21.7446 12.3073C21.6247 12.4331 20.7897 13.1954 20.651 13.2738H20.6463Z" fill="#4D4D4D"/>
<path fill-rule="evenodd" clip-rule="evenodd" d="M2.56075 2.2886C4.62807 1.58569 4.07067 5.26172 4.06361 6.54406V18.268C4.05891 20.7068 3.74846 21.3717 4.92205 23.2192C9.26131 30.0536 10.2726 31.5758 8.64041 41.4688C6.61777 53.7222 6.55192 62.2901 7.47387 74.5365C7.5797 75.9518 7.93954 78.6803 7.75609 79.9864C7.54442 81.4991 6.24853 82.6912 4.56457 82.5891C0.761544 82.3587 1.71642 77.2745 1.87399 73.7481C2.33026 63.544 3.83077 52.238 5.72876 42.3403C7.5115 33.041 7.61498 31.5995 2.62895 24.1691C1.42243 22.3714 1.72347 21.5664 1.70466 19.0849C1.69054 17.1305 1.6929 15.1761 1.6976 13.2217L1.73523 4.35934C1.74229 3.21711 1.66467 2.59256 2.56075 2.28622V2.2886ZM8.87795 20.6142C7.55148 20.6427 6.519 20.9324 6.34966 20.1748C6.71655 19.783 11.3286 19.992 12.5328 19.992L12.5305 20.6047L8.87795 20.6118V20.6142ZM12.5305 17.8571C11.4039 17.8524 10.275 17.85 9.14842 17.8619C7.73728 17.8785 6.57779 18.2086 6.34495 17.4273C6.91411 16.9904 11.3427 17.2373 12.4693 17.2373L12.5305 17.8571ZM12.5187 14.9956C11.8413 15.3661 10.1833 15.1072 9.28248 15.112C8.46167 15.1167 6.90941 15.4492 6.35671 14.8579C6.51664 14.1122 8.61454 14.4874 9.28248 14.4922C10.1174 14.4969 11.8602 14.3022 12.514 14.5848L12.5187 14.9932V14.9956ZM12.5375 11.861C12.5305 12.4974 12.6622 12.2956 12.133 12.3787L9.41889 12.3621C8.66393 12.3645 6.63659 12.7539 6.35671 11.9964C6.82945 11.4716 8.64746 11.7423 9.41889 11.7447C10.3173 11.7494 11.8249 11.5286 12.5375 11.8586V11.861ZM11.1758 9.6098C9.93631 9.5908 6.9 9.83065 6.36847 9.40557C6.3426 8.6433 9.68465 9.009 11.0393 9.00188C12.0977 8.99713 12.3305 8.8309 12.4858 9.20373C12.7398 9.81402 11.6438 9.61692 11.1758 9.6098ZM9.82341 6.85277C8.40052 6.8599 6.49548 7.2066 6.35201 6.41345C6.67187 6.05487 10.5031 6.2496 11.3075 6.25197C12.4411 6.25672 12.3517 6.15224 12.4811 6.46332C12.6951 6.97626 12.2459 6.84565 11.8719 6.86227C11.2557 6.89077 10.4655 6.84802 9.82106 6.85277H9.82341ZM8.33937 4.12662C7.04817 4.17886 6.51429 4.33322 6.34966 3.67067C6.70244 3.31209 11.2134 3.48782 12.5328 3.48545L12.5305 4.1005L8.33701 4.12662H8.33937ZM6.2156 22.1458C7.11403 22.3619 12.8856 22.2836 14.1227 22.2076L14.125 1.8754C12.4223 1.83028 6.57074 1.55957 5.52885 2.29335C4.86796 1.7163 5.16195 1.42421 4.19297 0.911273C3.44741 0.514699 2.52782 0.486202 1.73758 0.835283C0.208847 1.51207 0.145346 2.97489 0.142994 4.90077C0.13829 8.67417 0.098308 12.4452 0.103012 16.2186C0.105364 18.0685 0.098308 19.9302 0.152402 21.7778C0.265293 25.6556 4.79505 27.762 5.20663 33.6703C5.42301 36.7669 4.41404 40.6186 3.87076 43.6012C2.07861 53.4206 0.723913 63.9073 0.272349 73.9238C0.10066 77.7423 -0.532001 81.245 1.93514 83.2184C4.6116 85.358 8.20296 83.7408 9.10138 81.1951C9.72934 79.4141 8.97203 73.0665 8.82151 70.7536C8.59102 67.1464 8.46167 63.4822 8.49459 59.8442C8.57691 50.856 9.40948 47.6952 10.5901 39.3434C11.4204 33.4637 11.124 30.4478 8.34172 25.6224C7.83136 24.7366 6.48372 22.8844 6.21795 22.1435L6.2156 22.1458Z" fill="#4D4D4D"/>
<path fill-rule="evenodd" clip-rule="evenodd" d="M2.56066 2.28852C1.66223 2.59485 1.7422 3.2194 1.73514 4.36163L1.69751 13.224C1.69281 15.1784 1.6881 17.1328 1.70457 19.0871C1.72338 21.5711 1.42234 22.3737 2.62887 24.1714C7.61489 31.6018 7.51141 33.0409 5.72867 42.3426C3.83069 52.2403 2.33253 63.5463 1.87391 73.7504C1.71633 77.2792 0.761456 82.361 4.56448 82.5914C6.24844 82.6935 7.54434 81.5014 7.75601 79.9887C7.93946 78.6802 7.57962 75.9541 7.47378 74.5388C6.55184 62.2924 6.62004 53.7245 8.64032 41.4711C10.2725 31.5781 9.26123 30.0559 4.92197 23.2215C3.74837 21.3716 4.05882 20.7091 4.06352 18.2702V6.54635C4.07058 5.26402 4.62798 1.58798 2.56066 2.29089V2.28852Z" fill="#E32E16"/>
<path fill-rule="evenodd" clip-rule="evenodd" d="M27.4649 35.9807C24.391 36.4866 21.7757 39.1415 22.4177 42.9196C22.921 45.8927 25.6916 48.4622 29.3605 47.802C32.2252 47.2867 34.7088 44.4347 34.1325 40.894C33.6669 38.0301 30.8681 35.4203 27.4649 35.9807Z" fill="#E32E16"/>
<path fill-rule="evenodd" clip-rule="evenodd" d="M27.4651 35.9804C30.8683 35.4199 33.6671 38.0297 34.1328 40.8936C34.709 44.4343 32.2254 47.2863 29.3608 47.8016C25.6894 48.4618 22.9213 45.8924 22.4179 42.9192C21.7759 39.1411 24.3912 36.4862 27.4651 35.9804ZM26.769 34.4748C23.1212 35.3083 19.9202 38.7018 20.8939 43.4749C21.6254 47.0631 25.2873 50.3093 29.8147 49.3499C33.4107 48.5876 36.6234 45.0137 35.6474 40.3094C34.9112 36.7498 31.2446 33.4513 26.769 34.4748Z" fill="#4D4D4D"/>
<path fill-rule="evenodd" clip-rule="evenodd" d="M17.1194 81.024L38.7404 81.0216L38.6722 79.1666L17.1852 79.1262L17.1194 81.024Z" fill="white"/>
<path fill-rule="evenodd" clip-rule="evenodd" d="M22.3234 16.2138L33.462 16.2091C33.2409 15.8314 32.7117 15.3825 32.3707 14.993C31.7474 14.2828 31.7898 14.3184 30.6162 14.3184H24.807C23.9485 14.3184 23.9438 14.6343 23.4264 15.0975C23.0101 15.4704 22.5797 15.7222 22.3234 16.2138Z" fill="white"/>
<path fill-rule="evenodd" clip-rule="evenodd" d="M6.35632 14.8599C6.90667 15.4514 8.46127 15.1188 9.28209 15.1141C10.1829 15.1093 11.841 15.3659 12.5183 14.9977L12.5136 14.5892C11.8598 14.3065 10.1194 14.5013 9.28209 14.4965C8.6165 14.4918 6.51625 14.1165 6.35632 14.8623V14.8599Z" fill="white"/>
<path fill-rule="evenodd" clip-rule="evenodd" d="M6.35632 11.9963C6.63385 12.754 8.66119 12.3644 9.4185 12.362L12.1326 12.3787C12.6618 12.2955 12.5301 12.4974 12.5371 11.8609C11.8245 11.5307 10.3169 11.7516 9.4185 11.7469C8.64707 11.7421 6.82906 11.4737 6.35632 11.9986V11.9963Z" fill="white"/>
<path fill-rule="evenodd" clip-rule="evenodd" d="M6.34448 17.4297C6.57497 18.2112 7.73681 17.8786 9.14795 17.8644C10.2745 17.8525 11.4034 17.8549 12.53 17.8596L12.4688 17.2397C11.3423 17.2397 6.91364 16.9927 6.34448 17.4297Z" fill="white"/>
<path fill-rule="evenodd" clip-rule="evenodd" d="M6.34985 20.1764C6.51919 20.9318 7.55167 20.6444 8.87815 20.6159L12.5306 20.6087L12.533 19.9959C11.3312 19.9959 6.71675 19.7893 6.34985 20.1788V20.1764Z" fill="white"/>
<path fill-rule="evenodd" clip-rule="evenodd" d="M6.34766 3.67255C6.51229 4.33524 7.04617 4.18085 8.33736 4.12859L12.5308 4.10247L12.5332 3.48729C11.2114 3.48966 6.70279 3.31389 6.35001 3.67255H6.34766Z" fill="white"/>
<path fill-rule="evenodd" clip-rule="evenodd" d="M6.36831 9.4072C6.89749 9.83236 9.93379 9.59246 11.1756 9.61146C11.6436 9.61859 12.7396 9.81811 12.4856 9.2053C12.3304 8.83239 12.0975 8.99866 11.0392 9.00341C9.68449 9.01053 6.34244 8.64475 6.36831 9.4072Z" fill="white"/>
<path fill-rule="evenodd" clip-rule="evenodd" d="M6.35181 6.41589C6.49292 7.20921 8.40031 6.86005 9.82321 6.8553C10.4653 6.85293 11.2555 6.89568 11.8741 6.8648C12.248 6.84818 12.6972 6.97881 12.4832 6.46577C12.3539 6.15461 12.4432 6.25912 11.3096 6.25437C10.5053 6.252 6.67402 6.05723 6.35416 6.41589H6.35181Z" fill="white"/>
</g>
<defs>
<clipPath id="clip0_235_1169">
<rect width="41.8644" height="83.6892" fill="white" transform="translate(0.0678711 0.575928)"/>
</clipPath>
</defs>
</svg>
