<svg width="215" height="36" viewBox="0 0 215 36" fill="none" xmlns="http://www.w3.org/2000/svg">
<path d="M42.7422 15.1641C41.3796 15.1641 40.2972 14.7061 39.4951 13.79C38.6976 12.8695 38.2988 11.6276 38.2988 10.0645C38.2988 8.51497 38.7021 7.27995 39.5088 6.35938C40.3154 5.43424 41.3932 4.97168 42.7422 4.97168C43.7904 4.97168 44.6836 5.25879 45.4219 5.83301C46.1647 6.40267 46.6273 7.16146 46.8096 8.10938H45.5518C45.374 7.4987 45.0299 7.01335 44.5195 6.65332C44.0091 6.28874 43.4167 6.10645 42.7422 6.10645C41.7806 6.10645 41.0104 6.46647 40.4316 7.18652C39.8529 7.90658 39.5635 8.86589 39.5635 10.0645C39.5635 11.2767 39.8506 12.2406 40.4248 12.9561C40.999 13.6715 41.7738 14.0293 42.749 14.0293C43.4463 14.0293 44.0387 13.8743 44.5264 13.5645C45.014 13.2546 45.3558 12.8171 45.5518 12.252H46.8096C46.568 13.1908 46.0964 13.9108 45.3945 14.4121C44.6927 14.9134 43.8086 15.1641 42.7422 15.1641ZM52.791 14.0225V8.86816H50.125L49.9062 11.8623C49.8379 12.8376 49.6442 13.5394 49.3252 13.9678V14.0225H52.791ZM48.4775 16.8799H47.3701V14.0225H47.9648C48.4434 13.708 48.7236 12.9788 48.8057 11.835L49.0791 7.89062H53.9736V14.0225H55.1016V16.8799H53.9941V15H48.4775V16.8799ZM59.0254 8.7998C58.474 8.7998 58.016 8.99121 57.6514 9.37402C57.2913 9.75228 57.0931 10.2399 57.0566 10.8369H60.9189C60.9053 10.2354 60.7253 9.74544 60.3789 9.36719C60.0326 8.98893 59.5814 8.7998 59.0254 8.7998ZM60.8916 12.9629H62.0605C61.9557 13.5918 61.6276 14.109 61.0762 14.5146C60.5293 14.9202 59.8708 15.123 59.1006 15.123C58.0843 15.123 57.2845 14.7949 56.7012 14.1387C56.1178 13.4824 55.8262 12.5938 55.8262 11.4727C55.8262 10.3607 56.1178 9.46517 56.7012 8.78613C57.2891 8.1071 58.0706 7.76758 59.0459 7.76758C60.0029 7.76758 60.7594 8.08887 61.3154 8.73145C61.8714 9.37402 62.1494 10.2354 62.1494 11.3154V11.7666H57.0498V11.835C57.0498 12.5186 57.2367 13.0654 57.6104 13.4756C57.984 13.8857 58.4899 14.0908 59.1279 14.0908C59.5745 14.0908 59.9551 13.9883 60.2695 13.7832C60.584 13.5781 60.7913 13.3047 60.8916 12.9629ZM65.0957 11.8623C65.0638 12.2725 65.0182 12.6348 64.959 12.9492C64.9043 13.2637 64.8245 13.5576 64.7197 13.8311C64.6149 14.1045 64.485 14.3301 64.3301 14.5078C64.1797 14.681 63.9906 14.8177 63.7627 14.918C63.5394 15.0137 63.2796 15.0615 62.9834 15.0615C62.8193 15.0615 62.6781 15.0365 62.5596 14.9863V13.9131C62.6689 13.9495 62.7897 13.9678 62.9219 13.9678C63.2546 13.9678 63.5029 13.7878 63.667 13.4277C63.8311 13.0632 63.9359 12.5322 63.9814 11.835L64.2549 7.89062H68.9102V15H67.7344V8.86816H65.3145L65.0957 11.8623ZM72.9434 14.1113C73.5039 14.1113 73.9733 13.9382 74.3516 13.5918C74.7344 13.2409 74.9258 12.8102 74.9258 12.2998V11.7188L73.0254 11.835C72.5469 11.8669 72.1755 11.9831 71.9111 12.1836C71.6514 12.3841 71.5215 12.653 71.5215 12.9902C71.5215 13.3275 71.6514 13.5986 71.9111 13.8037C72.1709 14.0088 72.515 14.1113 72.9434 14.1113ZM72.6768 15.123C71.9704 15.123 71.3984 14.9271 70.9609 14.5352C70.528 14.1432 70.3115 13.6283 70.3115 12.9902C70.3115 12.3796 70.5348 11.8919 70.9814 11.5273C71.4326 11.1628 72.0684 10.9577 72.8887 10.9121L74.9258 10.7959V10.2012C74.9258 9.76823 74.7891 9.42871 74.5156 9.18262C74.2422 8.93652 73.8594 8.81348 73.3672 8.81348C72.916 8.81348 72.5492 8.91374 72.2666 9.11426C71.984 9.31022 71.804 9.58594 71.7266 9.94141H70.5781C70.6191 9.30794 70.8926 8.78841 71.3984 8.38281C71.9089 7.97266 72.5742 7.76758 73.3945 7.76758C74.2285 7.76758 74.8893 7.97721 75.377 8.39648C75.8691 8.81576 76.1152 9.37858 76.1152 10.085V15H74.9873V13.7764H74.96C74.7458 14.182 74.4313 14.5078 74.0166 14.7539C73.6019 15 73.1553 15.123 72.6768 15.123ZM82.4385 15V11.8008H78.9316V15H77.7559V7.89062H78.9316V10.8232H82.4385V7.89062H83.6143V15H82.4385ZM88.2422 15.123C87.2487 15.123 86.4512 14.7926 85.8496 14.1318C85.248 13.4665 84.9473 12.571 84.9473 11.4453C84.9473 10.3197 85.248 9.42643 85.8496 8.76562C86.4512 8.10026 87.2487 7.76758 88.2422 7.76758C89.2311 7.76758 90.0264 8.10026 90.6279 8.76562C91.2295 9.42643 91.5303 10.3197 91.5303 11.4453C91.5303 12.5664 91.2295 13.4596 90.6279 14.125C90.0264 14.7904 89.2311 15.123 88.2422 15.123ZM86.7178 13.3799C87.096 13.8447 87.6042 14.0771 88.2422 14.0771C88.8802 14.0771 89.3861 13.847 89.7598 13.3867C90.1335 12.9219 90.3203 12.2747 90.3203 11.4453C90.3203 10.6159 90.1335 9.97103 89.7598 9.51074C89.3861 9.0459 88.8802 8.81348 88.2422 8.81348C87.6042 8.81348 87.096 9.0459 86.7178 9.51074C86.3441 9.97559 86.1572 10.6204 86.1572 11.4453C86.1572 12.2702 86.3441 12.915 86.7178 13.3799ZM101.606 10.0781H100.431C100.321 9.70898 100.114 9.40592 99.8086 9.16895C99.5033 8.93197 99.1136 8.81348 98.6396 8.81348C98.0199 8.81348 97.5231 9.05501 97.1494 9.53809C96.7757 10.0166 96.5889 10.6523 96.5889 11.4453C96.5889 12.252 96.7757 12.8923 97.1494 13.3662C97.5277 13.8402 98.029 14.0771 98.6533 14.0771C99.1182 14.0771 99.5033 13.9678 99.8086 13.749C100.118 13.5303 100.33 13.2227 100.444 12.8262H101.62C101.502 13.5098 101.174 14.0635 100.636 14.4873C100.098 14.9111 99.4349 15.123 98.6465 15.123C97.653 15.123 96.86 14.7926 96.2676 14.1318C95.6751 13.4665 95.3789 12.571 95.3789 11.4453C95.3789 10.3379 95.6751 9.44922 96.2676 8.7793C96.86 8.10482 97.6484 7.76758 98.6328 7.76758C99.4486 7.76758 100.118 7.99089 100.643 8.4375C101.171 8.88411 101.493 9.43099 101.606 10.0781ZM107.629 11.8623C107.597 12.2725 107.551 12.6348 107.492 12.9492C107.438 13.2637 107.358 13.5576 107.253 13.8311C107.148 14.1045 107.018 14.3301 106.863 14.5078C106.713 14.681 106.524 14.8177 106.296 14.918C106.073 15.0137 105.813 15.0615 105.517 15.0615C105.353 15.0615 105.211 15.0365 105.093 14.9863V13.9131C105.202 13.9495 105.323 13.9678 105.455 13.9678C105.788 13.9678 106.036 13.7878 106.2 13.4277C106.364 13.0632 106.469 12.5322 106.515 11.835L106.788 7.89062H111.443V15H110.268V8.86816H107.848L107.629 11.8623ZM118.799 15.123C117.855 15.123 117.099 14.8291 116.529 14.2412C115.96 13.6533 115.643 12.8398 115.579 11.8008H114.301V15H113.125V7.89062H114.301V10.8232H115.606C115.711 9.86621 116.044 9.11882 116.604 8.58105C117.165 8.03874 117.896 7.76758 118.799 7.76758C119.797 7.76758 120.583 8.0957 121.157 8.75195C121.736 9.40365 122.025 10.3014 122.025 11.4453C122.025 12.5846 121.736 13.4824 121.157 14.1387C120.583 14.7949 119.797 15.123 118.799 15.123ZM117.309 13.3867C117.66 13.8424 118.156 14.0703 118.799 14.0703C119.441 14.0703 119.936 13.8424 120.282 13.3867C120.633 12.9264 120.809 12.2793 120.809 11.4453C120.809 10.6068 120.633 9.95964 120.282 9.50391C119.936 9.04818 119.441 8.82031 118.799 8.82031C118.156 8.82031 117.66 9.04818 117.309 9.50391C116.962 9.95964 116.789 10.6068 116.789 11.4453C116.789 12.2793 116.962 12.9264 117.309 13.3867ZM126.4 15.123C125.307 15.123 124.477 14.7607 123.912 14.0361C123.352 13.3115 123.071 12.2451 123.071 10.8369C123.071 8.86361 123.361 7.43945 123.939 6.56445C124.523 5.68945 125.5 5.22689 126.872 5.17676L127.398 5.15625C128.228 5.11523 128.845 4.98763 129.251 4.77344V5.8125C129.137 5.91732 128.911 6.00846 128.574 6.08594C128.237 6.16341 127.863 6.21126 127.453 6.22949L126.927 6.25C126.43 6.26823 126.015 6.33659 125.683 6.45508C125.354 6.57357 125.081 6.7627 124.862 7.02246C124.648 7.28223 124.482 7.59212 124.363 7.95215C124.245 8.30762 124.149 8.76335 124.076 9.31934H124.131C124.359 8.90462 124.685 8.58789 125.108 8.36914C125.537 8.15039 126.027 8.04102 126.578 8.04102C127.54 8.04102 128.303 8.35547 128.868 8.98438C129.438 9.60872 129.723 10.4518 129.723 11.5137C129.723 12.6302 129.426 13.512 128.834 14.1592C128.242 14.8018 127.43 15.123 126.4 15.123ZM124.842 13.4072C125.211 13.8493 125.73 14.0703 126.4 14.0703C127.07 14.0703 127.588 13.8493 127.952 13.4072C128.321 12.9606 128.506 12.3294 128.506 11.5137C128.506 10.7389 128.321 10.1396 127.952 9.71582C127.588 9.29199 127.07 9.08008 126.4 9.08008C125.73 9.08008 125.211 9.29199 124.842 9.71582C124.473 10.1396 124.288 10.7389 124.288 11.5137C124.288 12.3294 124.473 12.9606 124.842 13.4072ZM134.002 15.123C133.008 15.123 132.211 14.7926 131.609 14.1318C131.008 13.4665 130.707 12.571 130.707 11.4453C130.707 10.3197 131.008 9.42643 131.609 8.76562C132.211 8.10026 133.008 7.76758 134.002 7.76758C134.991 7.76758 135.786 8.10026 136.388 8.76562C136.989 9.42643 137.29 10.3197 137.29 11.4453C137.29 12.5664 136.989 13.4596 136.388 14.125C135.786 14.7904 134.991 15.123 134.002 15.123ZM132.478 13.3799C132.856 13.8447 133.364 14.0771 134.002 14.0771C134.64 14.0771 135.146 13.847 135.52 13.3867C135.893 12.9219 136.08 12.2747 136.08 11.4453C136.08 10.6159 135.893 9.97103 135.52 9.51074C135.146 9.0459 134.64 8.81348 134.002 8.81348C133.364 8.81348 132.856 9.0459 132.478 9.51074C132.104 9.97559 131.917 10.6204 131.917 11.4453C131.917 12.2702 132.104 12.915 132.478 13.3799ZM141.487 8.85449H139.785V10.8438H141.31C142.194 10.8438 142.636 10.5065 142.636 9.83203C142.636 9.51758 142.538 9.27604 142.342 9.10742C142.146 8.9388 141.861 8.85449 141.487 8.85449ZM141.405 11.8008H139.785V14.0361H141.617C142.046 14.0361 142.374 13.9427 142.602 13.7559C142.829 13.5645 142.943 13.2887 142.943 12.9287C142.943 12.1768 142.431 11.8008 141.405 11.8008ZM138.609 15V7.89062H141.651C142.317 7.89062 142.841 8.05241 143.224 8.37598C143.606 8.69954 143.798 9.14388 143.798 9.70898C143.798 10.069 143.684 10.3971 143.456 10.6934C143.233 10.9896 142.957 11.1719 142.629 11.2402V11.2949C143.076 11.3587 143.433 11.541 143.702 11.8418C143.976 12.1426 144.112 12.514 144.112 12.9561C144.112 13.585 143.894 14.084 143.456 14.4531C143.023 14.8177 142.428 15 141.672 15H138.609ZM147.975 11.1377H146.648V14.0225H147.975C148.435 14.0225 148.802 13.8903 149.075 13.626C149.353 13.3617 149.492 13.013 149.492 12.5801C149.492 12.1426 149.353 11.7939 149.075 11.5342C148.802 11.2699 148.435 11.1377 147.975 11.1377ZM145.473 15V7.89062H146.648V10.1602H147.995C148.811 10.1602 149.46 10.3789 149.943 10.8164C150.426 11.2539 150.668 11.8418 150.668 12.5801C150.668 13.3184 150.426 13.9062 149.943 14.3438C149.46 14.7812 148.811 15 147.995 15H145.473ZM157.641 15.123C156.697 15.123 155.941 14.8291 155.371 14.2412C154.801 13.6533 154.485 12.8398 154.421 11.8008H153.143V15H151.967V7.89062H153.143V10.8232H154.448C154.553 9.86621 154.886 9.11882 155.446 8.58105C156.007 8.03874 156.738 7.76758 157.641 7.76758C158.639 7.76758 159.425 8.0957 159.999 8.75195C160.578 9.40365 160.867 10.3014 160.867 11.4453C160.867 12.5846 160.578 13.4824 159.999 14.1387C159.425 14.7949 158.639 15.123 157.641 15.123ZM156.15 13.3867C156.501 13.8424 156.998 14.0703 157.641 14.0703C158.283 14.0703 158.778 13.8424 159.124 13.3867C159.475 12.9264 159.65 12.2793 159.65 11.4453C159.65 10.6068 159.475 9.95964 159.124 9.50391C158.778 9.04818 158.283 8.82031 157.641 8.82031C156.998 8.82031 156.501 9.04818 156.15 9.50391C155.804 9.95964 155.631 10.6068 155.631 11.4453C155.631 12.2793 155.804 12.9264 156.15 13.3867ZM167.942 8.85449H166.24V10.8438H167.765C168.649 10.8438 169.091 10.5065 169.091 9.83203C169.091 9.51758 168.993 9.27604 168.797 9.10742C168.601 8.9388 168.316 8.85449 167.942 8.85449ZM167.86 11.8008H166.24V14.0361H168.072C168.501 14.0361 168.829 13.9427 169.057 13.7559C169.285 13.5645 169.398 13.2887 169.398 12.9287C169.398 12.1768 168.886 11.8008 167.86 11.8008ZM165.064 15V7.89062H168.106C168.772 7.89062 169.296 8.05241 169.679 8.37598C170.062 8.69954 170.253 9.14388 170.253 9.70898C170.253 10.069 170.139 10.3971 169.911 10.6934C169.688 10.9896 169.412 11.1719 169.084 11.2402V11.2949C169.531 11.3587 169.888 11.541 170.157 11.8418C170.431 12.1426 170.567 12.514 170.567 12.9561C170.567 13.585 170.349 14.084 169.911 14.4531C169.478 14.8177 168.883 15 168.127 15H165.064Z" fill="white"/>
<path d="M46.1602 32H45.2373V22.9902H39.584V32H38.6475V22.1357H46.1602V32ZM51.335 24.7744C52.2373 24.7744 52.9665 25.1117 53.5225 25.7861C54.083 26.4561 54.3633 27.3424 54.3633 28.4453C54.3633 29.5482 54.0853 30.4368 53.5293 31.1113C52.9779 31.7812 52.2533 32.1162 51.3555 32.1162C50.7949 32.1162 50.2982 31.9727 49.8652 31.6855C49.4368 31.3939 49.127 31.0111 48.9355 30.5371H48.9082V34.3516H48.0059V24.8906H48.8604V26.3945H48.8877C49.0882 25.9115 49.4049 25.5218 49.8379 25.2256C50.2708 24.9248 50.7699 24.7744 51.335 24.7744ZM51.1777 31.3164C51.8659 31.3164 52.415 31.0566 52.8252 30.5371C53.2354 30.013 53.4404 29.3158 53.4404 28.4453C53.4404 27.5794 53.2331 26.8844 52.8184 26.3604C52.4082 25.8363 51.8613 25.5742 51.1777 25.5742C50.5033 25.5742 49.9564 25.8408 49.5371 26.374C49.1178 26.9027 48.9082 27.5931 48.9082 28.4453C48.9082 29.3021 49.1178 29.9948 49.5371 30.5234C49.9564 31.0521 50.5033 31.3164 51.1777 31.3164ZM60.9395 31.125C60.347 31.7858 59.5632 32.1162 58.5879 32.1162C57.6126 32.1162 56.8288 31.7858 56.2363 31.125C55.6439 30.4596 55.3477 29.5664 55.3477 28.4453C55.3477 27.3242 55.6439 26.4333 56.2363 25.7725C56.8333 25.1071 57.6172 24.7744 58.5879 24.7744C59.5632 24.7744 60.347 25.1071 60.9395 25.7725C61.5319 26.4333 61.8281 27.3242 61.8281 28.4453C61.8281 29.5664 61.5319 30.4596 60.9395 31.125ZM56.8994 30.5508C57.3187 31.0612 57.8815 31.3164 58.5879 31.3164C59.2943 31.3164 59.8571 31.0612 60.2764 30.5508C60.7002 30.0404 60.9121 29.3385 60.9121 28.4453C60.9121 27.5521 60.7002 26.8503 60.2764 26.3398C59.8571 25.8294 59.2943 25.5742 58.5879 25.5742C57.8815 25.5742 57.3187 25.8294 56.8994 26.3398C56.4801 26.8503 56.2705 27.5521 56.2705 28.4453C56.2705 29.3385 56.4801 30.0404 56.8994 30.5508ZM67.8643 31.248V25.6426H64.8018C64.7881 25.8659 64.7493 26.4264 64.6855 27.3242C64.6217 28.2174 64.5807 28.7529 64.5625 28.9307C64.4759 30.029 64.264 30.7855 63.9268 31.2002V31.248H67.8643ZM63.1338 33.8799H62.2861V31.248H62.8604C63.3298 30.9427 63.6169 30.1611 63.7217 28.9033C63.8447 27.404 63.9382 26.0664 64.002 24.8906H68.7666V31.248H69.915V33.8799H69.0605V32H63.1338V33.8799ZM73.7295 25.6357H71.8633V27.9531H73.5996C74.0872 27.9531 74.4587 27.8506 74.7139 27.6455C74.9736 27.4404 75.1035 27.1442 75.1035 26.7568C75.1035 26.4014 74.9827 26.1257 74.7412 25.9297C74.5042 25.7337 74.167 25.6357 73.7295 25.6357ZM73.668 28.6914H71.8633V31.2549H73.832C74.3561 31.2549 74.7549 31.1455 75.0283 30.9268C75.3018 30.708 75.4385 30.3867 75.4385 29.9629C75.4385 29.5436 75.2858 29.2269 74.9805 29.0127C74.6797 28.7985 74.2422 28.6914 73.668 28.6914ZM70.9678 32V24.8906H73.8389C74.5042 24.8906 75.0283 25.0501 75.4111 25.3691C75.7939 25.6836 75.9854 26.1188 75.9854 26.6748C75.9854 27.0667 75.8669 27.4108 75.6299 27.707C75.3975 28.0033 75.1012 28.1855 74.7412 28.2539V28.3018C75.2106 28.3564 75.5911 28.5342 75.8828 28.835C76.179 29.1357 76.3271 29.5186 76.3271 29.9834C76.3271 30.6169 76.1084 31.1113 75.6709 31.4668C75.238 31.8223 74.6387 32 73.873 32H70.9678ZM78.5762 32H77.6807V24.8906H78.5762V30.6055H78.624L82.582 24.8906H83.4775V32H82.582V26.2852H82.541L78.5762 32ZM90.6689 28.2676L94.1143 32H92.9316L89.7734 28.5342H89.7324V32H88.8369V28.5342H88.8027L85.6445 32H84.4824L87.9072 28.2812L84.5918 24.8906H85.7266L88.8027 28.083H88.8369V24.8906H89.7324V28.083H89.7734L92.8496 24.8906H93.9707L90.6689 28.2676ZM97.6963 25.5674C97.0628 25.5674 96.541 25.7884 96.1309 26.2305C95.7253 26.668 95.5042 27.2399 95.4678 27.9463H99.8564C99.8473 27.2399 99.6445 26.668 99.248 26.2305C98.8516 25.7884 98.3343 25.5674 97.6963 25.5674ZM99.8018 29.9834H100.697C100.588 30.6077 100.264 31.1204 99.7266 31.5215C99.1934 31.918 98.5394 32.1162 97.7646 32.1162C96.7666 32.1162 95.9782 31.7904 95.3994 31.1387C94.8206 30.4824 94.5312 29.5915 94.5312 28.4658C94.5312 27.3584 94.8206 26.4674 95.3994 25.793C95.9782 25.1139 96.7484 24.7744 97.71 24.7744C98.6488 24.7744 99.3962 25.0934 99.9521 25.7314C100.508 26.3695 100.786 27.2194 100.786 28.2812V28.6641H95.4609V28.7188C95.4609 29.5208 95.6706 30.1566 96.0898 30.626C96.5091 31.0908 97.0742 31.3232 97.7852 31.3232C98.3092 31.3232 98.7513 31.2002 99.1113 30.9541C99.4714 30.708 99.7015 30.3844 99.8018 29.9834ZM106.932 32V28.6914H103.021V32H102.126V24.8906H103.021V27.9395H106.932V24.8906H107.827V32H106.932ZM110.418 32H109.522V24.8906H110.418V30.6055H110.466L114.424 24.8906H115.319V32H114.424V26.2852H114.383L110.418 32ZM119.817 25.5674C119.184 25.5674 118.662 25.7884 118.252 26.2305C117.846 26.668 117.625 27.2399 117.589 27.9463H121.978C121.968 27.2399 121.766 26.668 121.369 26.2305C120.973 25.7884 120.455 25.5674 119.817 25.5674ZM121.923 29.9834H122.818C122.709 30.6077 122.385 31.1204 121.848 31.5215C121.314 31.918 120.66 32.1162 119.886 32.1162C118.888 32.1162 118.099 31.7904 117.521 31.1387C116.942 30.4824 116.652 29.5915 116.652 28.4658C116.652 27.3584 116.942 26.4674 117.521 25.793C118.099 25.1139 118.869 24.7744 119.831 24.7744C120.77 24.7744 121.517 25.0934 122.073 25.7314C122.629 26.3695 122.907 27.2194 122.907 28.2812V28.6641H117.582V28.7188C117.582 29.5208 117.792 30.1566 118.211 30.626C118.63 31.0908 119.195 31.3232 119.906 31.3232C120.43 31.3232 120.872 31.2002 121.232 30.9541C121.592 30.708 121.823 30.3844 121.923 29.9834ZM132.881 27.0029H131.985C131.862 26.5837 131.625 26.2419 131.274 25.9775C130.928 25.7087 130.495 25.5742 129.976 25.5742C129.283 25.5742 128.729 25.8363 128.314 26.3604C127.9 26.8799 127.692 27.5749 127.692 28.4453C127.692 29.3249 127.9 30.0244 128.314 30.5439C128.734 31.0589 129.292 31.3164 129.989 31.3164C130.495 31.3164 130.921 31.1956 131.268 30.9541C131.618 30.708 131.855 30.3708 131.979 29.9424H132.881C132.753 30.5895 132.427 31.1136 131.903 31.5146C131.379 31.9157 130.739 32.1162 129.982 32.1162C129.007 32.1162 128.228 31.7858 127.645 31.125C127.061 30.4642 126.77 29.571 126.77 28.4453C126.77 27.3333 127.061 26.4447 127.645 25.7793C128.228 25.1094 129.005 24.7744 129.976 24.7744C130.75 24.7744 131.395 24.9863 131.91 25.4102C132.43 25.834 132.753 26.3649 132.881 27.0029ZM139.102 24.8906V25.6426H136.682V32H135.786V25.6426H133.366V24.8906H139.102ZM145.24 31.125C144.648 31.7858 143.864 32.1162 142.889 32.1162C141.913 32.1162 141.13 31.7858 140.537 31.125C139.945 30.4596 139.648 29.5664 139.648 28.4453C139.648 27.3242 139.945 26.4333 140.537 25.7725C141.134 25.1071 141.918 24.7744 142.889 24.7744C143.864 24.7744 144.648 25.1071 145.24 25.7725C145.833 26.4333 146.129 27.3242 146.129 28.4453C146.129 29.5664 145.833 30.4596 145.24 31.125ZM141.2 30.5508C141.619 31.0612 142.182 31.3164 142.889 31.3164C143.595 31.3164 144.158 31.0612 144.577 30.5508C145.001 30.0404 145.213 29.3385 145.213 28.4453C145.213 27.5521 145.001 26.8503 144.577 26.3398C144.158 25.8294 143.595 25.5742 142.889 25.5742C142.182 25.5742 141.619 25.8294 141.2 26.3398C140.781 26.8503 140.571 27.5521 140.571 28.4453C140.571 29.3385 140.781 30.0404 141.2 30.5508ZM148.357 32H147.462V24.8906H148.549L151.324 30.8105H151.372L154.147 24.8906H155.193V32H154.291V26.4902H154.257L151.68 31.8564H150.976L148.398 26.4902H148.357V32ZM159.179 31.3369C159.803 31.3369 160.329 31.1432 160.758 30.7559C161.186 30.3685 161.4 29.8923 161.4 29.3271V28.541L159.295 28.6846C158.734 28.721 158.304 28.8577 158.003 29.0947C157.702 29.3271 157.552 29.6393 157.552 30.0312C157.552 30.4186 157.702 30.7331 158.003 30.9746C158.304 31.2161 158.696 31.3369 159.179 31.3369ZM158.994 32.1162C158.292 32.1162 157.723 31.9248 157.285 31.542C156.852 31.1546 156.636 30.651 156.636 30.0312C156.636 29.4206 156.854 28.9375 157.292 28.582C157.734 28.2266 158.365 28.0215 159.186 27.9668L161.4 27.8301V27.2148C161.4 26.6999 161.245 26.2988 160.936 26.0117C160.626 25.7201 160.195 25.5742 159.644 25.5742C159.124 25.5742 158.7 25.695 158.372 25.9365C158.049 26.1781 157.848 26.5153 157.771 26.9482H156.896C156.946 26.3011 157.219 25.777 157.716 25.376C158.217 24.9749 158.867 24.7744 159.664 24.7744C160.475 24.7744 161.118 24.9863 161.592 25.4102C162.066 25.834 162.303 26.4082 162.303 27.1328V32H161.441V30.6465H161.421C161.225 31.0885 160.904 31.444 160.457 31.7129C160.01 31.9818 159.523 32.1162 158.994 32.1162ZM168.947 24.8906V25.6426H166.527V32H165.632V25.6426H163.212V24.8906H168.947ZM175.086 31.125C174.493 31.7858 173.71 32.1162 172.734 32.1162C171.759 32.1162 170.975 31.7858 170.383 31.125C169.79 30.4596 169.494 29.5664 169.494 28.4453C169.494 27.3242 169.79 26.4333 170.383 25.7725C170.98 25.1071 171.764 24.7744 172.734 24.7744C173.71 24.7744 174.493 25.1071 175.086 25.7725C175.678 26.4333 175.975 27.3242 175.975 28.4453C175.975 29.5664 175.678 30.4596 175.086 31.125ZM171.046 30.5508C171.465 31.0612 172.028 31.3164 172.734 31.3164C173.441 31.3164 174.004 31.0612 174.423 30.5508C174.847 30.0404 175.059 29.3385 175.059 28.4453C175.059 27.5521 174.847 26.8503 174.423 26.3398C174.004 25.8294 173.441 25.5742 172.734 25.5742C172.028 25.5742 171.465 25.8294 171.046 26.3398C170.627 26.8503 170.417 27.5521 170.417 28.4453C170.417 29.3385 170.627 30.0404 171.046 30.5508ZM178.661 28.9307C178.625 29.4274 178.568 29.8535 178.49 30.209C178.417 30.5599 178.31 30.8835 178.169 31.1797C178.028 31.4714 177.839 31.6924 177.602 31.8428C177.365 31.9886 177.08 32.0615 176.747 32.0615C176.601 32.0615 176.467 32.0387 176.344 31.9932V31.1729C176.453 31.2093 176.574 31.2275 176.706 31.2275C177.052 31.2275 177.308 31.0293 177.472 30.6328C177.64 30.2318 177.752 29.6553 177.807 28.9033C177.825 28.7165 177.87 28.0625 177.943 26.9414C178.021 25.8158 178.066 25.1322 178.08 24.8906H182.633V32H181.737V25.6426H178.894C178.83 26.8047 178.752 27.9007 178.661 28.9307ZM189.564 31.125C188.972 31.7858 188.188 32.1162 187.213 32.1162C186.238 32.1162 185.454 31.7858 184.861 31.125C184.269 30.4596 183.973 29.5664 183.973 28.4453C183.973 27.3242 184.269 26.4333 184.861 25.7725C185.458 25.1071 186.242 24.7744 187.213 24.7744C188.188 24.7744 188.972 25.1071 189.564 25.7725C190.157 26.4333 190.453 27.3242 190.453 28.4453C190.453 29.5664 190.157 30.4596 189.564 31.125ZM185.524 30.5508C185.944 31.0612 186.507 31.3164 187.213 31.3164C187.919 31.3164 188.482 31.0612 188.901 30.5508C189.325 30.0404 189.537 29.3385 189.537 28.4453C189.537 27.5521 189.325 26.8503 188.901 26.3398C188.482 25.8294 187.919 25.5742 187.213 25.5742C186.507 25.5742 185.944 25.8294 185.524 26.3398C185.105 26.8503 184.896 27.5521 184.896 28.4453C184.896 29.3385 185.105 30.0404 185.524 30.5508ZM196.312 25.6426H192.682V32H191.786V24.8906H196.312V25.6426ZM198.465 32H197.569V24.8906H198.465V30.6055H198.513L202.471 24.8906H203.366V32H202.471V26.2852H202.43L198.465 32ZM205.943 32H205.048V24.8906H205.943V30.6055H205.991L209.949 24.8906H210.845V32H209.949V26.2852H209.908L205.943 32ZM206.06 21.8281H206.75C206.75 22.2383 206.873 22.5732 207.119 22.833C207.37 23.0882 207.702 23.2158 208.117 23.2158C208.527 23.2158 208.855 23.0882 209.102 22.833C209.352 22.5732 209.478 22.2383 209.478 21.8281H210.168C210.168 22.4115 209.979 22.8831 209.601 23.2432C209.227 23.5986 208.732 23.7764 208.117 23.7764C207.497 23.7764 206.998 23.5986 206.62 23.2432C206.246 22.8831 206.06 22.4115 206.06 21.8281Z" fill="white"/>
<path fill-rule="evenodd" clip-rule="evenodd" d="M6.71875 28.9787L13.9749 3.87597L18.8125 1.31055L11.9141 35.3795L6.71875 28.9787Z" fill="#FFDC0A"/>
<path fill-rule="evenodd" clip-rule="evenodd" d="M16.125 30.1372L19.9183 7.86133L24.1875 13.3328L19.9712 26.4593L16.125 30.1372Z" fill="#FFDC0A"/>
<path fill-rule="evenodd" clip-rule="evenodd" d="M22.8438 27.6622L28.9267 8.143L33.5937 5.24219L29.556 34.0698L22.8438 27.6622Z" fill="#FFDC0A"/>
<path fill-rule="evenodd" clip-rule="evenodd" d="M0 28.8266L3.67075 6.55078L9.40625 10.9313L5.77604 23.5874L0 28.8266Z" fill="#FFDC0A"/>
<path d="M93.0078 34.6953H113.882" stroke="#FFDC0A"/>
<path d="M182.734 13.7344V15H175.75V3.72656H182.734V4.99219H177.156V8.60938H182.445V9.85938H177.156V13.7344H182.734ZM185.984 15H184.594V3.72656H185.961L192.133 12.5781H192.203V3.72656H193.594V15H192.227L186.055 6.17969H185.984V15ZM195.016 12.3516H196.414C196.43 12.8307 196.602 13.2214 196.93 13.5234C197.263 13.8203 197.685 13.9688 198.195 13.9688C198.815 13.9688 199.289 13.7891 199.617 13.4297C199.945 13.0651 200.109 12.5391 200.109 11.8516V3.72656H201.516V11.8594C201.516 12.9271 201.224 13.763 200.641 14.3672C200.057 14.9661 199.245 15.2656 198.203 15.2656C197.266 15.2656 196.5 14.9948 195.906 14.4531C195.312 13.9062 195.016 13.2057 195.016 12.3516Z" fill="#FFDC0A"/>
<path d="M174.656 19H202.656" stroke="#FFDC0A"/>
</svg>
