<svg width="549" height="127" viewBox="0 0 549 127" fill="none" xmlns="http://www.w3.org/2000/svg">
<path d="M47.72 12L43.2 22.96C42.6 24.44 41.6 27 41.24 28.16H41.08C40.72 27 39.76 24.44 39.16 22.96L34.6 12H29.64V40H34.44V31.24C34.32 27.96 34.2 24.76 34.04 21.6L34.24 21.52C35.08 23.84 35.96 26.36 36.84 28.88L38.72 33.84H43.6L45.48 28.88C46.36 26.36 47.28 23.84 48.08 21.52L48.28 21.6C48.12 24.76 48 27.96 47.88 31.24V40H52.72V12H47.72ZM66.0003 40.48C71.5203 40.48 74.8003 36.92 74.8003 31V21C74.8003 15.08 71.5203 11.52 66.0003 11.52C60.4403 11.52 57.1603 15.08 57.1603 21V31C57.1603 36.92 60.4403 40.48 66.0003 40.48ZM66.0003 35.72C63.5203 35.72 62.2403 34.04 62.2403 31V21C62.2403 17.96 63.5203 16.28 66.0003 16.28C68.4803 16.28 69.7203 17.96 69.7203 21V31C69.7203 34.04 68.4803 35.72 66.0003 35.72ZM81.1284 12C80.6084 23.68 80.2884 29.04 79.8084 31.92C79.2484 35.16 78.3684 36 76.6484 36V40.44C80.9284 40.44 83.6084 39.12 84.5284 33.12C85.0484 29.88 85.4484 24.4 85.8484 16.64H91.0484V40H95.9684V12H81.1284ZM109.282 40.48C114.802 40.48 118.082 36.92 118.082 31V21C118.082 15.08 114.802 11.52 109.282 11.52C103.722 11.52 100.442 15.08 100.442 21V31C100.442 36.92 103.722 40.48 109.282 40.48ZM109.282 35.72C106.802 35.72 105.522 34.04 105.522 31V21C105.522 17.96 106.802 16.28 109.282 16.28C111.762 16.28 113.002 17.96 113.002 21V31C113.002 34.04 111.762 35.72 109.282 35.72ZM139.97 35.4V12H125.57L125.09 24.52C124.93 28.6 124.13 32.96 121.85 35.4H120.13V44.72H124.97V40H137.65V44.72H142.49V35.4H139.97ZM135.09 35.4H127.61C129.01 32.88 129.69 29.6 129.81 25.92L130.17 16.64H135.09V35.4ZM145.734 40H152.974C158.814 40 161.574 37.24 161.574 31.52C161.574 26.4 158.814 22.88 152.974 22.88H150.774V12H145.734V40ZM164.534 40H169.454V12H164.534V40ZM150.774 35.48V27.56H152.614C155.174 27.56 156.454 28.84 156.454 31.52C156.454 34.24 155.174 35.48 152.614 35.48H150.774ZM179.599 35.36V28.04H187.999V23.56H179.599V16.64H188.759V12H174.679V40H189.159V35.36H179.599ZM203.394 12C202.874 23.68 202.554 29.04 202.074 31.92C201.514 35.16 200.634 36 198.914 36V40.44C203.194 40.44 205.874 39.12 206.794 33.12C207.314 29.88 207.714 24.4 208.114 16.64H213.314V40H218.234V12H203.394ZM241.307 11.56C235.827 11.56 232.587 15.12 232.587 21.12V23.52H228.387V12H223.507V40H228.387V28.2H232.587V30.88C232.587 36.88 235.827 40.44 241.307 40.44C246.747 40.44 249.987 36.88 249.987 30.88V21.12C249.987 15.12 246.747 11.56 241.307 11.56ZM244.947 30.88C244.947 34 243.707 35.68 241.307 35.68C238.867 35.68 237.667 34 237.667 30.88V21.12C237.667 18 238.867 16.32 241.307 16.32C243.707 16.32 244.947 18 244.947 21.12V30.88ZM271.884 35.4V12H257.484L257.004 24.52C256.844 28.6 256.044 32.96 253.764 35.4H252.044V44.72H256.884V40H269.564V44.72H274.404V35.4H271.884ZM267.004 35.4H259.524C260.924 32.88 261.604 29.6 261.724 25.92L262.084 16.64H267.004V35.4ZM277.648 40H282.528L288.168 27.08C289.008 25.16 289.768 22.92 290.488 21L290.608 21.12C290.288 24.08 290.088 28.64 290.088 31.28V40H294.888V12H289.968L284.008 25.68C283.248 27.36 282.568 29.28 281.968 30.84L281.848 30.76C282.208 27.72 282.448 23.48 282.448 21.16V12H277.648V40ZM299.307 35.6L298.507 45.6H301.307L303.827 35.6H299.307ZM323.295 40.48C328.695 40.48 331.855 37.36 332.055 31.68H327.135C326.935 34.48 325.735 35.72 323.295 35.72C321.215 35.72 319.975 34.4 319.975 31.6V20.4C319.975 17.52 321.215 16.2 323.255 16.2C325.655 16.2 326.855 17.44 327.015 20.32H331.935C331.695 14.6 328.655 11.44 323.295 11.44C318.055 11.44 314.895 14.6 314.895 20.4V31.6C314.895 37.36 318.095 40.48 323.295 40.48ZM340.537 35.36V28.04H348.937V23.56H340.537V16.64H349.697V12H335.617V40H350.097V35.36H340.537ZM372.29 12L367.77 22.96C367.17 24.44 366.17 27 365.81 28.16H365.65C365.29 27 364.33 24.44 363.73 22.96L359.17 12H354.21V40H359.01V31.24C358.89 27.96 358.77 24.76 358.61 21.6L358.81 21.52C359.65 23.84 360.53 26.36 361.41 28.88L363.29 33.84H368.17L370.05 28.88C370.93 26.36 371.85 23.84 372.65 21.52L372.85 21.6C372.69 24.76 372.57 27.96 372.45 31.24V40H377.29V12H372.29ZM382.531 40H390.211C396.091 40 398.891 37.24 398.891 31.52C398.891 26.4 396.091 22.88 390.211 22.88H387.451V12H382.531V40ZM387.451 35.48V27.56H389.851C392.411 27.56 393.771 28.8 393.771 31.52C393.771 34.24 392.411 35.48 389.851 35.48H387.451ZM402.296 40H407.176L412.816 27.08C413.656 25.16 414.416 22.92 415.136 21L415.256 21.12C414.936 24.08 414.736 28.64 414.736 31.28V40H419.536V12H414.616L408.656 25.68C407.896 27.36 407.216 29.28 406.616 30.84L406.496 30.76C406.856 27.72 407.096 23.48 407.096 21.16V12H402.296V40Z" fill="#E31E24"/>
<path d="M28.3945 84.0977V75.25H36.5977V76.3164H29.4492V84.0977H35.5078C36.8125 84.1211 37.8867 84.6016 38.7305 85.5391C39.582 86.4688 40.0078 87.6094 40.0078 88.9609C40.0078 90.4062 39.582 91.5977 38.7305 92.5352C37.8867 93.4727 36.8125 93.9531 35.5078 93.9766H29.4492V94H28.3945V93.9766H28.3242V92.9102H28.3945V85.1523H28.3242V84.0977H28.3945ZM29.4492 85.1523V92.9102H35.4141C36.3906 92.9102 37.2227 92.5156 37.9102 91.7266C38.6055 90.9375 38.9531 90.0195 38.9531 88.9727C38.9531 88.0039 38.6055 87.125 37.9102 86.3359C37.2227 85.5469 36.3906 85.1523 35.4141 85.1523H29.4492ZM48.1523 81.4492C49.9336 81.4492 51.4492 82.0781 52.6992 83.3359C53.957 84.5938 54.5859 86.1133 54.5859 87.8945C54.5859 89.668 53.957 91.1836 52.6992 92.4414C51.4492 93.6992 49.9336 94.3281 48.1523 94.3281C46.3789 94.3281 44.8633 93.6992 43.6055 92.4414C42.3477 91.1836 41.7188 89.668 41.7188 87.8945C41.7188 86.1133 42.3477 84.5938 43.6055 83.3359C44.8633 82.0781 46.3789 81.4492 48.1523 81.4492ZM48.1523 82.5742C46.6836 82.5742 45.4297 83.0938 44.3906 84.1328C43.3516 85.1719 42.832 86.4258 42.832 87.8945C42.832 89.3633 43.3516 90.6172 44.3906 91.6562C45.4297 92.6875 46.6836 93.2031 48.1523 93.2031C49.6211 93.2031 50.875 92.6875 51.9141 91.6562C52.9531 90.6172 53.4727 89.3633 53.4727 87.8945C53.4727 86.4258 52.9531 85.1719 51.9141 84.1328C50.875 83.0938 49.6211 82.5742 48.1523 82.5742ZM66.4805 94H65.4375V88.3047H57.75V94H56.707V82.4922H57.75V87.2383H65.4375V82.4922H66.4805V94ZM70.2656 98.3828H69.082L72.1172 91.8672L67.7461 82.4922H68.9297L72.7031 90.5312L76.5 82.4922H77.6719L70.2656 98.3828ZM89.5078 91.2344L90.6211 91.6328C90.418 91.9141 90.1875 92.1836 89.9297 92.4414C88.6719 93.6992 87.1523 94.3281 85.3711 94.3281C83.5977 94.3281 82.082 93.6992 80.8242 92.4414C79.5664 91.1836 78.9375 89.6641 78.9375 87.8828C78.9375 86.1094 79.5664 84.5938 80.8242 83.3359C82.082 82.0781 83.5977 81.4492 85.3711 81.4492C87.1523 81.4492 88.6719 82.0781 89.9297 83.3359C90.1875 83.5938 90.418 83.8594 90.6211 84.1328L89.5078 84.543C89.3906 84.4023 89.2656 84.2617 89.1328 84.1211C88.0938 83.0898 86.8398 82.5742 85.3711 82.5742C83.9102 82.5742 82.6602 83.0938 81.6211 84.1328C80.582 85.1641 80.0625 86.4141 80.0625 87.8828C80.0625 89.3516 80.582 90.6055 81.6211 91.6445C82.6602 92.6836 83.9102 93.2031 85.3711 93.2031C86.8398 93.2031 88.0938 92.6836 89.1328 91.6445C89.2656 91.5117 89.3906 91.375 89.5078 91.2344ZM102.527 94H101.484V88.3047H93.7969V94H92.7539V82.4922H93.7969V87.2383H101.484V82.4922H102.527V94ZM117.773 94H116.719V91.6562C116.516 91.9297 116.293 92.1914 116.051 92.4414C114.793 93.6992 113.273 94.3281 111.492 94.3281C109.719 94.3281 108.203 93.6992 106.945 92.4414C105.688 91.1836 105.059 89.668 105.059 87.8945C105.059 86.1133 105.688 84.5938 106.945 83.3359C108.203 82.0781 109.719 81.4492 111.492 81.4492C113.273 81.4492 114.793 82.0781 116.051 83.3359C116.293 83.5859 116.516 83.8477 116.719 84.1211V82.4922H117.773V94ZM116.719 88.9375V86.8516C116.523 85.8203 116.035 84.9141 115.254 84.1328C114.215 83.0938 112.961 82.5742 111.492 82.5742C110.023 82.5742 108.77 83.0938 107.73 84.1328C106.691 85.1719 106.172 86.4258 106.172 87.8945C106.172 89.3633 106.691 90.6172 107.73 91.6562C108.77 92.6875 110.023 93.2031 111.492 93.2031C112.961 93.2031 114.215 92.6836 115.254 91.6445C116.035 90.8633 116.523 89.9609 116.719 88.9375ZM127.723 83.5586H124.16V83.5703C123.395 83.6016 122.766 83.8203 122.273 84.2266C121.773 84.6406 121.523 85.1914 121.523 85.8789C121.523 86.5664 121.773 87.1133 122.273 87.5195C122.766 87.9336 123.395 88.1602 124.16 88.1992V88.2109H127.723V83.5586ZM128.766 82.4922V94H127.723V89.2656H124.898L124.652 89.8164L123.973 91.2578L122.695 94H121.535L123.762 89.2305C122.895 89.1289 122.152 88.8047 121.535 88.2578C120.816 87.6328 120.457 86.8438 120.457 85.8906V85.8789C120.457 84.918 120.816 84.125 121.535 83.5C122.238 82.8828 123.098 82.5508 124.113 82.5039V82.4922H128.766ZM140.637 83.5586V94H139.594V82.4922H149.367V94H148.324V83.5586H140.637ZM152.32 82.4922H153.375V84.1094C153.57 83.8438 153.793 83.5859 154.043 83.3359C155.301 82.0859 156.816 81.4609 158.59 81.4609C160.371 81.4609 161.887 82.0898 163.137 83.3477C164.395 84.5977 165.023 86.1133 165.023 87.8945C165.023 89.668 164.395 91.1836 163.137 92.4414C161.887 93.6992 160.371 94.3281 158.59 94.3281C156.816 94.3281 155.301 93.6992 154.043 92.4414C153.793 92.1914 153.57 91.9336 153.375 91.668V98.3945H152.32V82.4922ZM153.375 86.793V88.9961C153.578 90.0039 154.062 90.8906 154.828 91.6562C155.867 92.6953 157.121 93.2148 158.59 93.2148C160.059 93.2148 161.312 92.6953 162.352 91.6562C163.391 90.6172 163.91 89.3633 163.91 87.8945C163.91 86.4258 163.391 85.1719 162.352 84.1328C161.312 83.0938 160.059 82.5742 158.59 82.5742C157.121 82.5742 155.867 83.0938 154.828 84.1328C154.062 84.8984 153.578 85.7852 153.375 86.793ZM173.684 81.4492C175.465 81.4492 176.98 82.0781 178.23 83.3359C179.488 84.5938 180.117 86.1133 180.117 87.8945C180.117 89.668 179.488 91.1836 178.23 92.4414C176.98 93.6992 175.465 94.3281 173.684 94.3281C171.91 94.3281 170.395 93.6992 169.137 92.4414C167.879 91.1836 167.25 89.668 167.25 87.8945C167.25 86.1133 167.879 84.5938 169.137 83.3359C170.395 82.0781 171.91 81.4492 173.684 81.4492ZM173.684 82.5742C172.215 82.5742 170.961 83.0938 169.922 84.1328C168.883 85.1719 168.363 86.4258 168.363 87.8945C168.363 89.3633 168.883 90.6172 169.922 91.6562C170.961 92.6875 172.215 93.2031 173.684 93.2031C175.152 93.2031 176.406 92.6875 177.445 91.6562C178.484 90.6172 179.004 89.3633 179.004 87.8945C179.004 86.4258 178.484 85.1719 177.445 84.1328C176.406 83.0938 175.152 82.5742 173.684 82.5742ZM183.539 83.5586V94H182.496V82.4922H188.285V83.5586H183.539ZM190.992 82.4922H192.047V84.1094C192.242 83.8438 192.465 83.5859 192.715 83.3359C193.973 82.0859 195.488 81.4609 197.262 81.4609C199.043 81.4609 200.559 82.0898 201.809 83.3477C203.066 84.5977 203.695 86.1133 203.695 87.8945C203.695 89.668 203.066 91.1836 201.809 92.4414C200.559 93.6992 199.043 94.3281 197.262 94.3281C195.488 94.3281 193.973 93.6992 192.715 92.4414C192.465 92.1914 192.242 91.9336 192.047 91.668V98.3945H190.992V82.4922ZM192.047 86.793V88.9961C192.25 90.0039 192.734 90.8906 193.5 91.6562C194.539 92.6953 195.793 93.2148 197.262 93.2148C198.73 93.2148 199.984 92.6953 201.023 91.6562C202.062 90.6172 202.582 89.3633 202.582 87.8945C202.582 86.4258 202.062 85.1719 201.023 84.1328C199.984 83.0938 198.73 82.5742 197.262 82.5742C195.793 82.5742 194.539 83.0938 193.5 84.1328C192.734 84.8984 192.25 85.7852 192.047 86.793ZM219.047 94H217.992V91.6562C217.789 91.9297 217.566 92.1914 217.324 92.4414C216.066 93.6992 214.547 94.3281 212.766 94.3281C210.992 94.3281 209.477 93.6992 208.219 92.4414C206.961 91.1836 206.332 89.668 206.332 87.8945C206.332 86.1133 206.961 84.5938 208.219 83.3359C209.477 82.0781 210.992 81.4492 212.766 81.4492C214.547 81.4492 216.066 82.0781 217.324 83.3359C217.566 83.5859 217.789 83.8477 217.992 84.1211V82.4922H219.047V94ZM217.992 88.9375V86.8516C217.797 85.8203 217.309 84.9141 216.527 84.1328C215.488 83.0938 214.234 82.5742 212.766 82.5742C211.297 82.5742 210.043 83.0938 209.004 84.1328C207.965 85.1719 207.445 86.4258 207.445 87.8945C207.445 89.3633 207.965 90.6172 209.004 91.6562C210.043 92.6875 211.297 93.2031 212.766 93.2031C214.234 93.2031 215.488 92.6836 216.527 91.6445C217.309 90.8633 217.797 89.9609 217.992 88.9375ZM227.309 92.4297L231.609 82.4922H232.734V94H231.68V85.0938L227.824 94H226.781L222.914 85.0938V94H221.871V82.4922H222.996L227.309 92.4297ZM240.293 92.4297L244.594 82.4922H245.719V94H244.664V85.0938L240.809 94H239.766L235.898 85.0938V94H234.855V82.4922H235.98L240.293 92.4297ZM260.953 94H259.898V91.6562C259.695 91.9297 259.473 92.1914 259.23 92.4414C257.973 93.6992 256.453 94.3281 254.672 94.3281C252.898 94.3281 251.383 93.6992 250.125 92.4414C248.867 91.1836 248.238 89.668 248.238 87.8945C248.238 86.1133 248.867 84.5938 250.125 83.3359C251.383 82.0781 252.898 81.4492 254.672 81.4492C256.453 81.4492 257.973 82.0781 259.23 83.3359C259.473 83.5859 259.695 83.8477 259.898 84.1211V82.4922H260.953V94ZM259.898 88.9375V86.8516C259.703 85.8203 259.215 84.9141 258.434 84.1328C257.395 83.0938 256.141 82.5742 254.672 82.5742C253.203 82.5742 251.949 83.0938 250.91 84.1328C249.871 85.1719 249.352 86.4258 249.352 87.8945C249.352 89.3633 249.871 90.6172 250.91 91.6562C251.949 92.6875 253.203 93.2031 254.672 93.2031C256.141 93.2031 257.395 92.6836 258.434 91.6445C259.215 90.8633 259.703 89.9609 259.898 88.9375ZM274.512 77.2188C274.84 77.5469 275.004 77.9492 275.004 78.4258C275.004 78.8945 274.836 79.293 274.5 79.6211C274.172 79.9492 273.773 80.1133 273.305 80.1133C272.844 80.1133 272.445 79.9492 272.109 79.6211C271.773 79.293 271.605 78.8945 271.605 78.4258C271.605 78.1758 271.652 77.9336 271.746 77.6992L273.012 75.1328H275.227L274.512 77.2188ZM278.414 77.2188C278.742 77.5469 278.906 77.9492 278.906 78.4258C278.906 78.8945 278.738 79.293 278.402 79.6211C278.074 79.9492 277.676 80.1133 277.207 80.1133C276.746 80.1133 276.348 79.9492 276.012 79.6211C275.676 79.293 275.508 78.8945 275.508 78.4258C275.508 78.1758 275.555 77.9336 275.648 77.6992L276.914 75.1328H279.129L278.414 77.2188ZM295.992 89.5352L297.809 91.1641C295.59 93.1875 293.242 94.1992 290.766 94.1992C288.117 94.1992 285.859 93.2656 283.992 91.3984C282.125 89.5312 281.191 87.2734 281.191 84.625C281.191 81.9844 282.125 79.7266 283.992 77.8516C285.859 75.9766 288.117 75.0391 290.766 75.0391C293.242 75.0391 295.59 76.0508 297.809 78.0742L295.992 79.7266C294.32 78.2422 292.578 77.5 290.766 77.5C288.805 77.5 287.125 78.1953 285.727 79.5859C284.336 80.9766 283.641 82.6562 283.641 84.625C283.641 86.6016 284.336 88.2852 285.727 89.6758C287.125 91.0664 288.805 91.7617 290.766 91.7617C292.578 91.7617 294.32 91.0195 295.992 89.5352ZM300.164 81.9414H302.59V89.4648L308.285 81.9414H310.406V94H307.992V86.3711L302.59 93.4961V94H300.164V81.9414ZM322.91 89.8633L325.336 90.7305C324.742 91.5508 324.312 92.0938 324.047 92.3594C322.742 93.6641 321.168 94.3164 319.324 94.3164C317.488 94.3164 315.918 93.6641 314.613 92.3594C313.309 91.0547 312.656 89.4805 312.656 87.6367C312.656 85.793 313.309 84.2188 314.613 82.9141C315.918 81.6094 317.488 80.957 319.324 80.957C321.168 80.957 322.742 81.6094 324.047 82.9141C324.312 83.1797 324.742 83.7148 325.336 84.5195L322.91 85.4102C322.598 85.0273 322.387 84.7812 322.277 84.6719C321.465 83.8594 320.48 83.4531 319.324 83.4531C318.176 83.4531 317.191 83.8633 316.371 84.6836C315.559 85.4961 315.152 86.4805 315.152 87.6367C315.152 88.7852 315.559 89.7695 316.371 90.5898C317.191 91.4023 318.176 91.8086 319.324 91.8086C320.48 91.8086 321.469 91.4023 322.289 90.5898C322.391 90.4805 322.598 90.2383 322.91 89.8633ZM334.254 84.3789V94H331.84V84.3789H327.457V81.9414H338.637V84.3789H334.254ZM345.211 91.2695C345.617 91.6289 346.355 91.8086 347.426 91.8086C348.582 91.8086 349.57 91.4023 350.391 90.5898C350.492 90.4805 350.699 90.2383 351.012 89.8633L353.438 90.7305C352.844 91.5508 352.414 92.0938 352.148 92.3594C350.844 93.6641 349.27 94.3164 347.426 94.3164C345.59 94.3164 344.02 93.6641 342.715 92.3594C341.41 91.0547 340.758 89.4805 340.758 87.6367C340.758 85.793 341.41 84.2188 342.715 82.9141C344.02 81.6094 345.59 80.957 347.426 80.957C349.004 80.957 350.387 81.4336 351.574 82.3867C351.77 82.5508 351.961 82.7266 352.148 82.9141C352.227 82.9922 352.449 83.2383 352.816 83.6523L351.598 84.8828L345.211 91.2695ZM349.266 83.7695C348.992 83.5586 348.379 83.4531 347.426 83.4531C346.277 83.4531 345.293 83.8633 344.473 84.6836C343.66 85.4961 343.254 86.4805 343.254 87.6367C343.254 88.582 343.359 89.1953 343.57 89.4766L349.266 83.7695ZM361.301 89.9805L364.781 81.9414H367.031V94H364.605V88.5625L362.25 94H360.328L357.984 88.5625V94H355.559V81.9414H357.809L361.301 89.9805ZM380.297 88.5391V86.7578C380.156 86 379.781 85.3125 379.172 84.6953C378.352 83.8828 377.367 83.4766 376.219 83.4766C375.062 83.4766 374.074 83.8828 373.254 84.6953C372.441 85.5078 372.035 86.4922 372.035 87.6484C372.035 88.7969 372.441 89.7812 373.254 90.6016C374.074 91.4141 375.062 91.8203 376.219 91.8203C377.367 91.8203 378.352 91.4141 379.172 90.6016C379.781 89.9844 380.156 89.2969 380.297 88.5391ZM380.297 82.7852V81.9414H382.734V94.0117H380.297V92.5C379.125 93.7109 377.766 94.3164 376.219 94.3164C374.375 94.3164 372.801 93.668 371.496 92.3711C370.199 91.0664 369.551 89.4922 369.551 87.6484C369.551 85.8047 370.199 84.2344 371.496 82.9375C372.801 81.6328 374.375 80.9805 376.219 80.9805C377.766 80.9805 379.125 81.582 380.297 82.7852ZM403.043 94H394.137V81.9297H396.562V91.5625H402.188V81.9297H404.602V91.4805H405.457V98.043H403.043V94ZM411.539 91.2695C411.945 91.6289 412.684 91.8086 413.754 91.8086C414.91 91.8086 415.898 91.4023 416.719 90.5898C416.82 90.4805 417.027 90.2383 417.34 89.8633L419.766 90.7305C419.172 91.5508 418.742 92.0938 418.477 92.3594C417.172 93.6641 415.598 94.3164 413.754 94.3164C411.918 94.3164 410.348 93.6641 409.043 92.3594C407.738 91.0547 407.086 89.4805 407.086 87.6367C407.086 85.793 407.738 84.2188 409.043 82.9141C410.348 81.6094 411.918 80.957 413.754 80.957C415.332 80.957 416.715 81.4336 417.902 82.3867C418.098 82.5508 418.289 82.7266 418.477 82.9141C418.555 82.9922 418.777 83.2383 419.145 83.6523L417.926 84.8828L411.539 91.2695ZM415.594 83.7695C415.32 83.5586 414.707 83.4531 413.754 83.4531C412.605 83.4531 411.621 83.8633 410.801 84.6836C409.988 85.4961 409.582 86.4805 409.582 87.6367C409.582 88.582 409.688 89.1953 409.898 89.4766L415.594 83.7695ZM432.352 94H429.938V88.7383H424.312V94H421.887V81.9414H424.312V86.3008H429.938V81.9414H432.352V94ZM444.938 94H442.523V88.7383H436.898V94H434.473V81.9414H436.898V86.3008H442.523V81.9414H444.938V94ZM453.715 80.957C455.559 80.957 457.129 81.6094 458.426 82.9141C459.73 84.2188 460.383 85.793 460.383 87.6367C460.383 89.4805 459.73 91.0547 458.426 92.3594C457.129 93.6641 455.559 94.3164 453.715 94.3164C451.879 94.3164 450.309 93.6641 449.004 92.3594C447.699 91.0547 447.047 89.4805 447.047 87.6367C447.047 85.793 447.699 84.2188 449.004 82.9141C450.309 81.6094 451.879 80.957 453.715 80.957ZM453.715 83.4531C452.559 83.4531 451.57 83.8633 450.75 84.6836C449.938 85.5039 449.531 86.4883 449.531 87.6367C449.531 88.793 449.938 89.7773 450.75 90.5898C451.57 91.4023 452.559 91.8086 453.715 91.8086C454.871 91.8086 455.855 91.4023 456.668 90.5898C457.488 89.7773 457.898 88.793 457.898 87.6367C457.898 86.4883 457.488 85.5039 456.668 84.6836C455.855 83.8633 454.871 83.4531 453.715 83.4531ZM472.746 89.8633L475.172 90.7305C474.578 91.5508 474.148 92.0938 473.883 92.3594C472.578 93.6641 471.004 94.3164 469.16 94.3164C467.324 94.3164 465.754 93.6641 464.449 92.3594C463.145 91.0547 462.492 89.4805 462.492 87.6367C462.492 85.793 463.145 84.2188 464.449 82.9141C465.754 81.6094 467.324 80.957 469.16 80.957C471.004 80.957 472.578 81.6094 473.883 82.9141C474.148 83.1797 474.578 83.7148 475.172 84.5195L472.746 85.4102C472.434 85.0273 472.223 84.7812 472.113 84.6719C471.301 83.8594 470.316 83.4531 469.16 83.4531C468.012 83.4531 467.027 83.8633 466.207 84.6836C465.395 85.4961 464.988 86.4805 464.988 87.6367C464.988 88.7852 465.395 89.7695 466.207 90.5898C467.027 91.4023 468.012 91.8086 469.16 91.8086C470.316 91.8086 471.305 91.4023 472.125 90.5898C472.227 90.4805 472.434 90.2383 472.746 89.8633ZM484.09 84.3789V94H481.676V84.3789H477.293V81.9414H488.473V84.3789H484.09ZM495.047 91.2695C495.453 91.6289 496.191 91.8086 497.262 91.8086C498.418 91.8086 499.406 91.4023 500.227 90.5898C500.328 90.4805 500.535 90.2383 500.848 89.8633L503.273 90.7305C502.68 91.5508 502.25 92.0938 501.984 92.3594C500.68 93.6641 499.105 94.3164 497.262 94.3164C495.426 94.3164 493.855 93.6641 492.551 92.3594C491.246 91.0547 490.594 89.4805 490.594 87.6367C490.594 85.793 491.246 84.2188 492.551 82.9141C493.855 81.6094 495.426 80.957 497.262 80.957C498.84 80.957 500.223 81.4336 501.41 82.3867C501.605 82.5508 501.797 82.7266 501.984 82.9141C502.062 82.9922 502.285 83.2383 502.652 83.6523L501.434 84.8828L495.047 91.2695ZM499.102 83.7695C498.828 83.5586 498.215 83.4531 497.262 83.4531C496.113 83.4531 495.129 83.8633 494.309 84.6836C493.496 85.4961 493.09 86.4805 493.09 87.6367C493.09 88.582 493.195 89.1953 493.406 89.4766L499.102 83.7695ZM505.523 81.9414H507.949V89.4648L513.645 81.9414H515.766V94H513.352V86.3711L507.949 93.4961V94H505.523V81.9414ZM509.613 77.4414C509.699 77.9258 509.801 78.2266 509.918 78.3438C510.121 78.5469 510.367 78.6484 510.656 78.6484C510.938 78.6484 511.18 78.543 511.383 78.332C511.5 78.2227 511.598 77.9258 511.676 77.4414H513.902C513.73 78.4023 513.418 79.1133 512.965 79.5742C512.332 80.2148 511.562 80.5352 510.656 80.5352C509.742 80.5352 508.969 80.2148 508.336 79.5742C507.844 79.082 507.531 78.3711 507.398 77.4414H509.613ZM522.176 78.0273C521.848 77.6992 521.684 77.2969 521.684 76.8203C521.684 76.3516 521.848 75.9531 522.176 75.625C522.512 75.2969 522.914 75.1328 523.383 75.1328C523.844 75.1328 524.242 75.2969 524.578 75.625C524.914 75.9531 525.082 76.3516 525.082 76.8203C525.082 77.0703 525.035 77.3125 524.941 77.5469L523.676 80.1133H521.461L522.176 78.0273ZM518.273 78.0273C517.945 77.6992 517.781 77.2969 517.781 76.8203C517.781 76.3516 517.945 75.9531 518.273 75.625C518.609 75.2969 519.012 75.1328 519.48 75.1328C519.941 75.1328 520.34 75.2969 520.676 75.625C521.012 75.9531 521.18 76.3516 521.18 76.8203C521.18 77.0703 521.133 77.3125 521.039 77.5469L519.773 80.1133H517.559L518.273 78.0273ZM29.2383 111.559V122H28.1953V110.492H37.9688V122H36.9258V111.559H29.2383ZM46.6523 109.449C48.4336 109.449 49.9492 110.078 51.1992 111.336C52.457 112.594 53.0859 114.113 53.0859 115.895C53.0859 117.668 52.457 119.184 51.1992 120.441C49.9492 121.699 48.4336 122.328 46.6523 122.328C44.8789 122.328 43.3633 121.699 42.1055 120.441C40.8477 119.184 40.2188 117.668 40.2188 115.895C40.2188 114.113 40.8477 112.594 42.1055 111.336C43.3633 110.078 44.8789 109.449 46.6523 109.449ZM46.6523 110.574C45.1836 110.574 43.9297 111.094 42.8906 112.133C41.8516 113.172 41.332 114.426 41.332 115.895C41.332 117.363 41.8516 118.617 42.8906 119.656C43.9297 120.688 45.1836 121.203 46.6523 121.203C48.1211 121.203 49.375 120.688 50.4141 119.656C51.4531 118.617 51.9727 117.363 51.9727 115.895C51.9727 114.426 51.4531 113.172 50.4141 112.133C49.375 111.094 48.1211 110.574 46.6523 110.574ZM60.6445 120.43L64.9453 110.492H66.0703V122H65.0156V113.094L61.1602 122H60.1172L56.25 113.094V122H55.207V110.492H56.332L60.6445 120.43ZM74.6133 109.449C76.3945 109.449 77.9102 110.078 79.1602 111.336C80.418 112.594 81.0469 114.113 81.0469 115.895C81.0469 117.668 80.418 119.184 79.1602 120.441C77.9102 121.699 76.3945 122.328 74.6133 122.328C72.8398 122.328 71.3242 121.699 70.0664 120.441C68.8086 119.184 68.1797 117.668 68.1797 115.895C68.1797 114.113 68.8086 112.594 70.0664 111.336C71.3242 110.078 72.8398 109.449 74.6133 109.449ZM74.6133 110.574C73.1445 110.574 71.8906 111.094 70.8516 112.133C69.8125 113.172 69.293 114.426 69.293 115.895C69.293 117.363 69.8125 118.617 70.8516 119.656C71.8906 120.688 73.1445 121.203 74.6133 121.203C76.082 121.203 77.3359 120.688 78.375 119.656C79.4141 118.617 79.9336 117.363 79.9336 115.895C79.9336 114.426 79.4141 113.172 78.375 112.133C77.3359 111.094 76.082 110.574 74.6133 110.574ZM84.4688 111.559V122H83.4258V110.492H89.2148V111.559H84.4688ZM104.344 122H103.289V119.656C103.086 119.93 102.863 120.191 102.621 120.441C101.363 121.699 99.8438 122.328 98.0625 122.328C96.2891 122.328 94.7734 121.699 93.5156 120.441C92.2578 119.184 91.6289 117.668 91.6289 115.895C91.6289 114.113 92.2578 112.594 93.5156 111.336C94.7734 110.078 96.2891 109.449 98.0625 109.449C99.8438 109.449 101.363 110.078 102.621 111.336C102.863 111.586 103.086 111.848 103.289 112.121V110.492H104.344V122ZM103.289 116.938V114.852C103.094 113.82 102.605 112.914 101.824 112.133C100.785 111.094 99.5312 110.574 98.0625 110.574C96.5938 110.574 95.3398 111.094 94.3008 112.133C93.2617 113.172 92.7422 114.426 92.7422 115.895C92.7422 117.363 93.2617 118.617 94.3008 119.656C95.3398 120.688 96.5938 121.203 98.0625 121.203C99.5312 121.203 100.785 120.684 101.824 119.645C102.605 118.863 103.094 117.961 103.289 116.938ZM110.051 119.844C111.043 120.75 112.223 121.203 113.59 121.203C115.059 121.203 116.312 120.684 117.352 119.645C117.484 119.512 117.609 119.375 117.727 119.234L118.84 119.633C118.637 119.914 118.406 120.184 118.148 120.441C116.891 121.699 115.371 122.328 113.59 122.328C111.816 122.328 110.301 121.699 109.043 120.441C107.785 119.184 107.156 117.664 107.156 115.883C107.156 114.109 107.785 112.594 109.043 111.336C110.301 110.078 111.816 109.449 113.59 109.449C115.113 109.449 116.445 109.906 117.586 110.82C117.773 110.977 117.961 111.148 118.148 111.336C118.219 111.406 118.285 111.477 118.348 111.547L117.551 112.344L110.051 119.844ZM116.777 111.629C115.863 110.926 114.801 110.574 113.59 110.574C112.129 110.574 110.879 111.094 109.84 112.133C108.801 113.164 108.281 114.414 108.281 115.883C108.281 117.094 108.633 118.156 109.336 119.07L116.777 111.629ZM126.762 111.559V122H125.719V111.559H120.973V110.492H131.52V111.559H126.762ZM152.859 114.23C152.609 113.465 152.172 112.766 151.547 112.133C150.508 111.094 149.254 110.574 147.785 110.574C146.316 110.574 145.062 111.094 144.023 112.133C143.594 112.562 143.258 113.043 143.016 113.574H141.832C142.098 112.754 142.562 112.008 143.227 111.336C144.477 110.086 145.996 109.461 147.785 109.461C149.551 109.461 151.062 110.09 152.32 111.348C153.586 112.598 154.219 114.117 154.219 115.906C154.219 117.672 153.586 119.184 152.32 120.441C151.062 121.699 149.551 122.328 147.785 122.328C145.996 122.328 144.477 121.699 143.227 120.441C142.977 120.199 142.777 119.988 142.629 119.809H144.188C145.195 120.738 146.395 121.203 147.785 121.203C149.254 121.203 150.508 120.688 151.547 119.656C152.586 118.625 153.105 117.375 153.105 115.906C153.105 115.695 153.09 115.496 153.059 115.309H145.863V114.23H152.859ZM163.488 110.492L160.652 114.008L165.164 122H163.875L159.961 114.852L157.617 117.453V122H156.551V110.492H157.617V115.766L162.129 110.492H163.488ZM172.512 109.449C174.293 109.449 175.809 110.078 177.059 111.336C178.316 112.594 178.945 114.113 178.945 115.895C178.945 117.668 178.316 119.184 177.059 120.441C175.809 121.699 174.293 122.328 172.512 122.328C170.738 122.328 169.223 121.699 167.965 120.441C166.707 119.184 166.078 117.668 166.078 115.895C166.078 114.113 166.707 112.594 167.965 111.336C169.223 110.078 170.738 109.449 172.512 109.449ZM172.512 110.574C171.043 110.574 169.789 111.094 168.75 112.133C167.711 113.172 167.191 114.426 167.191 115.895C167.191 117.363 167.711 118.617 168.75 119.656C169.789 120.688 171.043 121.203 172.512 121.203C173.98 121.203 175.234 120.688 176.273 119.656C177.312 118.617 177.832 117.363 177.832 115.895C177.832 114.426 177.312 113.172 176.273 112.133C175.234 111.094 173.98 110.574 172.512 110.574ZM190.84 122H189.797V116.305H182.109V122H181.066V110.492H182.109V115.238H189.797V110.492H190.84V122ZM199.395 109.449C201.176 109.449 202.691 110.078 203.941 111.336C205.199 112.594 205.828 114.113 205.828 115.895C205.828 117.668 205.199 119.184 203.941 120.441C202.691 121.699 201.176 122.328 199.395 122.328C197.621 122.328 196.105 121.699 194.848 120.441C193.59 119.184 192.961 117.668 192.961 115.895C192.961 114.113 193.59 112.594 194.848 111.336C196.105 110.078 197.621 109.449 199.395 109.449ZM199.395 110.574C197.926 110.574 196.672 111.094 195.633 112.133C194.594 113.172 194.074 114.426 194.074 115.895C194.074 117.363 194.594 118.617 195.633 119.656C196.672 120.688 197.926 121.203 199.395 121.203C200.863 121.203 202.117 120.688 203.156 119.656C204.195 118.617 204.715 117.363 204.715 115.895C204.715 114.426 204.195 113.172 203.156 112.133C202.117 111.094 200.863 110.574 199.395 110.574ZM213.387 120.43L217.688 110.492H218.812V122H217.758V113.094L213.902 122H212.859L208.992 113.094V122H207.949V110.492H209.074L213.387 120.43ZM221.062 110.492H222.105V120.242L229.465 110.492H230.602V122H229.547V112.168L222.105 121.988V122H221.062V110.492ZM238.652 111.559V122H237.609V111.559H232.863V110.492H243.41V111.559H238.652ZM246.844 120.945H251.742V120.934C252.5 120.895 253.133 120.668 253.641 120.254C254.133 119.848 254.379 119.305 254.379 118.625C254.379 117.93 254.133 117.375 253.641 116.961C253.133 116.555 252.5 116.336 251.742 116.305V116.281H246.844V120.945ZM245.801 122V110.492H246.844V115.227H251.777V115.238C252.793 115.285 253.656 115.617 254.367 116.234C255.086 116.859 255.445 117.652 255.445 118.613V118.625C255.445 119.578 255.086 120.367 254.367 120.992C253.656 121.609 252.793 121.941 251.777 121.988V122H245.801ZM276.305 119.234L277.418 119.633C277.215 119.914 276.984 120.184 276.727 120.441C275.469 121.699 273.949 122.328 272.168 122.328C270.395 122.328 268.879 121.699 267.621 120.441C266.363 119.184 265.734 117.664 265.734 115.883C265.734 114.109 266.363 112.594 267.621 111.336C268.879 110.078 270.395 109.449 272.168 109.449C273.949 109.449 275.469 110.078 276.727 111.336C276.984 111.594 277.215 111.859 277.418 112.133L276.305 112.543C276.188 112.402 276.062 112.262 275.93 112.121C274.891 111.09 273.637 110.574 272.168 110.574C270.707 110.574 269.457 111.094 268.418 112.133C267.379 113.164 266.859 114.414 266.859 115.883C266.859 117.352 267.379 118.605 268.418 119.645C269.457 120.684 270.707 121.203 272.168 121.203C273.637 121.203 274.891 120.684 275.93 119.645C276.062 119.512 276.188 119.375 276.305 119.234ZM282.434 119.844C283.426 120.75 284.605 121.203 285.973 121.203C287.441 121.203 288.695 120.684 289.734 119.645C289.867 119.512 289.992 119.375 290.109 119.234L291.223 119.633C291.02 119.914 290.789 120.184 290.531 120.441C289.273 121.699 287.754 122.328 285.973 122.328C284.199 122.328 282.684 121.699 281.426 120.441C280.168 119.184 279.539 117.664 279.539 115.883C279.539 114.109 280.168 112.594 281.426 111.336C282.684 110.078 284.199 109.449 285.973 109.449C287.496 109.449 288.828 109.906 289.969 110.82C290.156 110.977 290.344 111.148 290.531 111.336C290.602 111.406 290.668 111.477 290.73 111.547L289.934 112.344L282.434 119.844ZM289.16 111.629C288.246 110.926 287.184 110.574 285.973 110.574C284.512 110.574 283.262 111.094 282.223 112.133C281.184 113.164 280.664 114.414 280.664 115.883C280.664 117.094 281.016 118.156 281.719 119.07L289.16 111.629ZM298.793 120.43L303.094 110.492H304.219V122H303.164V113.094L299.309 122H298.266L294.398 113.094V122H293.355V110.492H294.48L298.793 120.43ZM309.223 119.844C310.215 120.75 311.395 121.203 312.762 121.203C314.23 121.203 315.484 120.684 316.523 119.645C316.656 119.512 316.781 119.375 316.898 119.234L318.012 119.633C317.809 119.914 317.578 120.184 317.32 120.441C316.062 121.699 314.543 122.328 312.762 122.328C310.988 122.328 309.473 121.699 308.215 120.441C306.957 119.184 306.328 117.664 306.328 115.883C306.328 114.109 306.957 112.594 308.215 111.336C309.473 110.078 310.988 109.449 312.762 109.449C314.285 109.449 315.617 109.906 316.758 110.82C316.945 110.977 317.133 111.148 317.32 111.336C317.391 111.406 317.457 111.477 317.52 111.547L316.723 112.344L309.223 119.844ZM315.949 111.629C315.035 110.926 313.973 110.574 312.762 110.574C311.301 110.574 310.051 111.094 309.012 112.133C307.973 113.164 307.453 114.414 307.453 115.883C307.453 117.094 307.805 118.156 308.508 119.07L315.949 111.629ZM320.273 110.492H321.316V120.242L328.676 110.492H329.812V122H328.758V112.168L321.316 121.988V122H320.273V110.492ZM323.156 106.32C323.219 106.734 323.398 107.09 323.695 107.387C324.07 107.762 324.523 107.949 325.055 107.949C325.578 107.949 326.027 107.762 326.402 107.387C326.707 107.09 326.887 106.734 326.941 106.32H327.797C327.734 106.969 327.469 107.527 327 107.996C326.469 108.535 325.82 108.805 325.055 108.805C324.281 108.805 323.629 108.535 323.098 107.996C322.59 107.48 322.32 106.922 322.289 106.32H323.156ZM341.848 122H340.805V116.305H333.117V122H332.074V110.492H333.117V115.238H340.805V110.492H341.848V122ZM345.281 120.945H351.504V120.934C352.262 120.895 352.895 120.668 353.402 120.254C353.895 119.848 354.141 119.305 354.141 118.625C354.141 117.93 353.895 117.375 353.402 116.961C352.895 116.555 352.262 116.336 351.504 116.305V116.281H345.281V120.945ZM358.547 122H357.504V110.492H358.547V122ZM344.238 122V110.492H345.281V115.227H351.539V115.238C352.562 115.285 353.426 115.617 354.129 116.234C354.848 116.859 355.207 117.652 355.207 118.613V118.625C355.207 119.578 354.848 120.367 354.129 120.992C353.426 121.609 352.562 121.941 351.539 121.988V122H344.238ZM361.078 110.492H362.121V120.242L369.48 110.492H370.617V122H369.562V112.168L362.121 121.988V122H361.078V110.492ZM363.961 106.32C364.023 106.734 364.203 107.09 364.5 107.387C364.875 107.762 365.328 107.949 365.859 107.949C366.383 107.949 366.832 107.762 367.207 107.387C367.512 107.09 367.691 106.734 367.746 106.32H368.602C368.539 106.969 368.273 107.527 367.805 107.996C367.273 108.535 366.625 108.805 365.859 108.805C365.086 108.805 364.434 108.535 363.902 107.996C363.395 107.48 363.125 106.922 363.094 106.32H363.961ZM384.586 112.145C383.547 113.184 383.027 114.438 383.027 115.906C383.027 117.375 383.547 118.625 384.586 119.656C385.625 120.688 386.879 121.203 388.348 121.203C389.816 121.203 391.07 120.688 392.109 119.656C393.148 118.625 393.668 117.375 393.668 115.906C393.668 114.438 393.148 113.184 392.109 112.145C391.07 111.098 389.816 110.574 388.348 110.574C386.879 110.574 385.625 111.098 384.586 112.145ZM382.512 113.152C382.824 112.504 383.258 111.898 383.812 111.336C385.07 110.086 386.582 109.461 388.348 109.461C390.129 109.461 391.645 110.09 392.895 111.348C394.152 112.598 394.781 114.117 394.781 115.906C394.781 117.672 394.152 119.184 392.895 120.441C391.645 121.699 390.129 122.328 388.348 122.328C386.582 122.328 385.07 121.699 383.812 120.441C382.688 119.324 382.062 118.004 381.938 116.48H381.844C381.547 114.996 381.398 113.633 381.398 112.391C381.398 109.906 381.984 107.871 383.156 106.285C384.609 104.324 386.289 103.344 388.195 103.344C388.594 103.344 388.996 103.383 389.402 103.461C390.496 103.688 391.383 103.801 392.062 103.801C392.883 103.801 393.398 103.637 393.609 103.309V104.352C393.398 104.664 392.91 104.82 392.145 104.82C391.496 104.82 390.645 104.707 389.59 104.48C389.176 104.395 388.777 104.352 388.395 104.352C386.629 104.352 385.133 105.258 383.906 107.07C382.961 108.461 382.488 110.219 382.488 112.344C382.488 112.609 382.496 112.879 382.512 113.152ZM404.766 112.145C403.727 113.184 403.207 114.438 403.207 115.906C403.207 117.375 403.727 118.625 404.766 119.656C405.805 120.688 407.059 121.203 408.527 121.203C409.988 121.203 411.238 120.688 412.277 119.656C413.316 118.625 413.836 117.375 413.836 115.906C413.836 114.438 413.316 113.184 412.277 112.145C411.238 111.098 409.988 110.574 408.527 110.574C407.059 110.574 405.805 111.098 404.766 112.145ZM402.105 116.305H398.109V122H397.066V110.492H398.109V115.238H402.117C402.258 113.738 402.883 112.438 403.992 111.336C405.242 110.086 406.754 109.461 408.527 109.461C410.309 109.461 411.824 110.09 413.074 111.348C414.324 112.598 414.949 114.117 414.949 115.906C414.949 117.672 414.324 119.184 413.074 120.441C411.824 121.699 410.309 122.328 408.527 122.328C406.754 122.328 405.242 121.699 403.992 120.441C402.82 119.277 402.191 117.898 402.105 116.305ZM426.891 120.852H427.828V126.395H426.773V122H417.609V126.395H416.566V120.852H417.504C417.527 120.828 417.547 120.812 417.562 120.805C419.227 119.148 420.059 116.695 420.059 113.445C420.059 112.781 420.023 112.152 419.953 111.559C419.906 111.191 419.848 110.836 419.777 110.492H426.891V120.852ZM418.887 120.945H425.848V111.559H421.031C421.094 112.152 421.125 112.781 421.125 113.445C421.125 116.609 420.379 119.109 418.887 120.945ZM436.934 115.754L441.445 110.492H442.805L439.957 114.008L444.48 122H443.18L439.277 114.852L436.934 117.441V122H435.867V117.441L433.535 114.852L429.621 122H428.32L432.844 114.008L430.008 110.492H431.355L435.867 115.754V110.492H436.934V115.754ZM448.277 119.844C449.27 120.75 450.449 121.203 451.816 121.203C453.285 121.203 454.539 120.684 455.578 119.645C455.711 119.512 455.836 119.375 455.953 119.234L457.066 119.633C456.863 119.914 456.633 120.184 456.375 120.441C455.117 121.699 453.598 122.328 451.816 122.328C450.043 122.328 448.527 121.699 447.27 120.441C446.012 119.184 445.383 117.664 445.383 115.883C445.383 114.109 446.012 112.594 447.27 111.336C448.527 110.078 450.043 109.449 451.816 109.449C453.34 109.449 454.672 109.906 455.812 110.82C456 110.977 456.188 111.148 456.375 111.336C456.445 111.406 456.512 111.477 456.574 111.547L455.777 112.344L448.277 119.844ZM455.004 111.629C454.09 110.926 453.027 110.574 451.816 110.574C450.355 110.574 449.105 111.094 448.066 112.133C447.027 113.164 446.508 114.414 446.508 115.883C446.508 117.094 446.859 118.156 447.562 119.07L455.004 111.629ZM464.988 111.559V122H463.945V111.559H459.199V110.492H469.746V111.559H464.988ZM473.039 120.066C473.328 120.066 473.574 120.168 473.777 120.371C473.988 120.574 474.094 120.82 474.094 121.109C474.094 121.406 473.988 121.656 473.777 121.859C473.574 122.062 473.328 122.164 473.039 122.164C472.75 122.164 472.5 122.062 472.289 121.859C472.086 121.656 471.984 121.406 471.984 121.109C471.984 120.82 472.086 120.574 472.289 120.371C472.5 120.168 472.75 120.066 473.039 120.066Z" fill="black"/>
<line x1="5.5" y1="60" x2="5.5" y2="7" stroke="#9D9E9E" stroke-width="3"/>
<path d="M6 61H290" stroke="#9D9E9E" stroke-width="3"/>
<circle cx="5.5" cy="59.5" r="5.5" fill="#9D9E9E"/>
<circle cx="289.5" cy="60.5" r="5.5" fill="#9D9E9E"/>
<circle cx="5.5" cy="5.5" r="5.5" fill="#9D9E9E"/>
</svg>
