<svg width="384" height="153" viewBox="0 0 384 153" fill="none" xmlns="http://www.w3.org/2000/svg">
<path d="M32.6614 61.848C32.6507 61.3253 32.6454 60.5787 32.6454 59.608C32.6454 58.6373 32.6507 57.896 32.6614 57.384C32.6827 56.8613 32.7307 56.2213 32.8054 55.464C32.8907 54.696 33.008 54.072 33.1574 53.592C33.3174 53.1013 33.552 52.5787 33.8614 52.024C34.1707 51.4693 34.5494 50.968 34.9974 50.52C36.6614 48.856 38.7574 48.024 41.2854 48.024C42.6827 48.024 43.8134 48.1573 44.6774 48.424C45.5414 48.68 46.3254 49.1227 47.0294 49.752C47.808 50.456 48.3627 51.1867 48.6934 51.944C49.024 52.6907 49.1894 53.368 49.1894 53.976C49.1894 54.872 48.928 55.5813 48.4054 56.104C47.8827 56.6267 47.2374 56.888 46.4694 56.888C45.872 56.888 45.3707 56.744 44.9654 56.456C44.496 56.136 44 55.512 43.4774 54.584C43.1574 54.0187 42.816 53.6187 42.4534 53.384C42.1014 53.1387 41.6694 53.016 41.1574 53.016C40.3147 53.016 39.6427 53.3467 39.1414 54.008C38.8 54.456 38.5707 55.048 38.4534 55.784C38.336 56.5093 38.2774 57.784 38.2774 59.608C38.2774 61.432 38.336 62.712 38.4534 63.448C38.5707 64.1733 38.8 64.76 39.1414 65.208C39.6427 65.8693 40.3147 66.2 41.1574 66.2C41.6694 66.2 42.1014 66.0827 42.4534 65.848C42.816 65.6027 43.1574 65.1973 43.4774 64.632C44 63.704 44.496 63.08 44.9654 62.76C45.3707 62.472 45.872 62.328 46.4694 62.328C47.2374 62.328 47.8827 62.5893 48.4054 63.112C48.928 63.6347 49.1894 64.344 49.1894 65.24C49.1894 65.848 49.024 66.5307 48.6934 67.288C48.3627 68.0347 47.808 68.76 47.0294 69.464C46.3254 70.0933 45.5414 70.5413 44.6774 70.808C43.8134 71.064 42.6827 71.192 41.2854 71.192C38.7574 71.192 36.6614 70.36 34.9974 68.696C34.5494 68.248 34.1707 67.7467 33.8614 67.192C33.552 66.6373 33.3174 66.12 33.1574 65.64C33.008 65.1493 32.8907 64.5253 32.8054 63.768C32.7307 63 32.6827 62.36 32.6614 61.848ZM56.7769 67.352V53.208H54.4249C53.8169 53.208 53.3742 53.192 53.0969 53.16C52.8195 53.1173 52.5475 53.032 52.2809 52.904C51.9182 52.7333 51.6249 52.4507 51.4009 52.056C51.1769 51.6507 51.0649 51.2027 51.0649 50.712C51.0649 50.2213 51.1769 49.7787 51.4009 49.384C51.6249 48.9787 51.9182 48.6907 52.2809 48.52C52.5475 48.392 52.8195 48.312 53.0969 48.28C53.3742 48.2373 53.8169 48.216 54.4249 48.216H64.7609C65.3689 48.216 65.8115 48.2373 66.0889 48.28C66.3662 48.312 66.6382 48.392 66.9049 48.52C67.2675 48.6907 67.5609 48.9787 67.7849 49.384C68.0089 49.7787 68.1209 50.2213 68.1209 50.712C68.1209 51.2027 68.0089 51.6507 67.7849 52.056C67.5609 52.4507 67.2675 52.7333 66.9049 52.904C66.6382 53.032 66.3662 53.1173 66.0889 53.16C65.8115 53.192 65.3689 53.208 64.7609 53.208H62.4089V67.352C62.4089 68.0453 62.3875 68.5413 62.3449 68.84C62.3129 69.128 62.2169 69.432 62.0569 69.752C61.8542 70.1573 61.5289 70.488 61.0809 70.744C60.6435 71 60.1475 71.128 59.5929 71.128C59.0382 71.128 58.5369 71 58.0889 70.744C57.6515 70.488 57.3315 70.1573 57.1289 69.752C56.9689 69.432 56.8675 69.128 56.8249 68.84C56.7929 68.5413 56.7769 68.0453 56.7769 67.352ZM67.7606 66.712L73.8406 50.568C74.182 49.672 74.5713 49.0533 75.0086 48.712C75.5313 48.296 76.1926 48.088 76.9926 48.088C77.7926 48.088 78.454 48.296 78.9766 48.712C79.414 49.0533 79.8033 49.672 80.1446 50.568L86.2246 66.712C86.438 67.288 86.582 67.7413 86.6566 68.072C86.742 68.392 86.742 68.76 86.6566 69.176C86.582 69.5813 86.374 69.9547 86.0326 70.296C85.478 70.8507 84.806 71.128 84.0166 71.128C83.3766 71.128 82.8486 70.936 82.4326 70.552C82.198 70.3387 82.006 70.0987 81.8566 69.832C81.718 69.5653 81.542 69.1333 81.3286 68.536L80.9926 67.608H72.9926L72.6566 68.536C72.4433 69.1333 72.262 69.5653 72.1126 69.832C71.974 70.0987 71.7873 70.3387 71.5526 70.552C71.1366 70.936 70.6086 71.128 69.9686 71.128C69.1793 71.128 68.5073 70.8507 67.9526 70.296C67.6113 69.9547 67.398 69.5813 67.3126 69.176C67.238 68.76 67.238 68.392 67.3126 68.072C67.398 67.7413 67.5473 67.288 67.7606 66.712ZM79.2966 62.936L76.9926 56.6L74.6886 62.936H79.2966ZM89.6314 67.352V51.656C89.6314 51.272 89.6367 50.968 89.6474 50.744C89.6687 50.52 89.738 50.2373 89.8554 49.896C89.9834 49.544 90.17 49.2453 90.4154 49C90.6607 48.7547 90.954 48.5733 91.2954 48.456C91.6474 48.328 91.9354 48.2587 92.1594 48.248C92.3834 48.2267 92.6874 48.216 93.0714 48.216H98.6874C99.914 48.216 101.029 48.424 102.031 48.84C103.034 49.2453 103.85 49.7947 104.479 50.488C105.119 51.1707 105.61 51.9493 105.951 52.824C106.293 53.688 106.463 54.5947 106.463 55.544C106.463 56.4933 106.293 57.4053 105.951 58.28C105.61 59.144 105.119 59.9227 104.479 60.616C103.85 61.2987 103.034 61.848 102.031 62.264C101.029 62.6693 99.914 62.872 98.6874 62.872H95.2634V67.352C95.2634 68.0453 95.242 68.5413 95.1994 68.84C95.1674 69.128 95.0714 69.432 94.9114 69.752C94.7087 70.1573 94.3834 70.488 93.9354 70.744C93.498 71 93.002 71.128 92.4474 71.128C91.8927 71.128 91.3914 71 90.9434 70.744C90.506 70.488 90.186 70.1573 89.9834 69.752C89.8234 69.432 89.722 69.128 89.6794 68.84C89.6474 68.5413 89.6314 68.0453 89.6314 67.352ZM95.2634 57.88H98.4314C99.1674 57.88 99.754 57.6507 100.191 57.192C100.639 56.7227 100.863 56.1733 100.863 55.544C100.863 54.9147 100.639 54.3707 100.191 53.912C99.754 53.4427 99.1674 53.208 98.4314 53.208H95.2634V57.88ZM133.166 71H113.134C112.75 71 112.446 70.9947 112.222 70.984C111.998 70.9627 111.71 70.8933 111.358 70.776C111.017 70.648 110.723 70.4613 110.478 70.216C110.233 69.9707 110.046 69.6773 109.918 69.336C109.801 68.984 109.731 68.696 109.71 68.472C109.699 68.248 109.694 67.944 109.694 67.56V51.864C109.694 51.1707 109.71 50.68 109.742 50.392C109.785 50.0933 109.886 49.784 110.046 49.464C110.249 49.0587 110.569 48.728 111.006 48.472C111.454 48.216 111.955 48.088 112.51 48.088C113.065 48.088 113.561 48.216 113.998 48.472C114.446 48.728 114.771 49.0587 114.974 49.464C115.134 49.784 115.23 50.0933 115.262 50.392C115.305 50.68 115.326 51.1707 115.326 51.864V66.008H120.334V51.864C120.334 51.1707 120.35 50.68 120.382 50.392C120.425 50.0933 120.526 49.784 120.686 49.464C120.889 49.0587 121.209 48.728 121.646 48.472C122.094 48.216 122.595 48.088 123.15 48.088C123.705 48.088 124.201 48.216 124.638 48.472C125.086 48.728 125.411 49.0587 125.614 49.464C125.774 49.784 125.87 50.0933 125.902 50.392C125.945 50.68 125.966 51.1707 125.966 51.864V66.008H130.974V51.864C130.974 51.1707 130.99 50.68 131.022 50.392C131.065 50.0933 131.166 49.784 131.326 49.464C131.529 49.0587 131.849 48.728 132.286 48.472C132.734 48.216 133.235 48.088 133.79 48.088C134.345 48.088 134.841 48.216 135.278 48.472C135.726 48.728 136.051 49.0587 136.254 49.464C136.414 49.784 136.51 50.0933 136.542 50.392C136.585 50.68 136.606 51.1707 136.606 51.864V67.56C136.606 67.944 136.595 68.248 136.574 68.472C136.563 68.696 136.494 68.984 136.366 69.336C136.249 69.6773 136.067 69.9707 135.822 70.216C135.577 70.4613 135.278 70.648 134.926 70.776C134.585 70.8933 134.302 70.9627 134.078 70.984C133.854 70.9947 133.55 71 133.166 71ZM159.019 67.352C159.019 68.0453 158.997 68.5413 158.955 68.84C158.923 69.128 158.827 69.432 158.667 69.752C158.464 70.1573 158.139 70.488 157.691 70.744C157.253 71 156.757 71.128 156.203 71.128C155.648 71.128 155.147 71 154.699 70.744C154.261 70.488 153.941 70.1573 153.739 69.752C153.579 69.432 153.477 69.128 153.435 68.84C153.403 68.5413 153.387 68.0453 153.387 67.352V58.904L147.259 68.552C146.651 69.5013 146.101 70.168 145.611 70.552C145.131 70.936 144.56 71.128 143.899 71.128C143.109 71.128 142.448 70.8613 141.915 70.328C141.616 70.0293 141.413 69.6667 141.307 69.24C141.211 68.8133 141.163 68.2853 141.163 67.656V51.864C141.163 51.1707 141.179 50.68 141.211 50.392C141.253 50.0933 141.355 49.784 141.515 49.464C141.717 49.0587 142.037 48.728 142.475 48.472C142.923 48.216 143.424 48.088 143.979 48.088C144.533 48.088 145.029 48.216 145.467 48.472C145.915 48.728 146.24 49.0587 146.443 49.464C146.603 49.784 146.699 50.0933 146.731 50.392C146.773 50.68 146.795 51.1707 146.795 51.864V60.312L152.923 50.664C153.531 49.7147 154.075 49.048 154.555 48.664C155.045 48.28 155.621 48.088 156.283 48.088C157.072 48.088 157.733 48.3547 158.267 48.888C158.565 49.1867 158.763 49.5493 158.859 49.976C158.965 50.4027 159.019 50.9307 159.019 51.56V67.352ZM175.889 71H167.009C166.625 71 166.321 70.9947 166.097 70.984C165.873 70.9627 165.585 70.8933 165.233 70.776C164.892 70.648 164.598 70.4613 164.353 70.216C164.108 69.9707 163.921 69.6773 163.793 69.336C163.676 68.984 163.606 68.696 163.585 68.472C163.574 68.248 163.569 67.944 163.569 67.56V51.656C163.569 51.272 163.574 50.968 163.585 50.744C163.606 50.52 163.676 50.2373 163.793 49.896C163.921 49.544 164.108 49.2453 164.353 49C164.598 48.7547 164.892 48.5733 165.233 48.456C165.585 48.328 165.873 48.2587 166.097 48.248C166.321 48.2267 166.625 48.216 167.009 48.216H175.889C176.497 48.216 176.94 48.2373 177.217 48.28C177.494 48.312 177.766 48.392 178.033 48.52C178.396 48.6907 178.689 48.9787 178.913 49.384C179.137 49.7787 179.249 50.2213 179.249 50.712C179.249 51.2027 179.137 51.6507 178.913 52.056C178.689 52.4507 178.396 52.7333 178.033 52.904C177.766 53.032 177.494 53.1173 177.217 53.16C176.94 53.192 176.497 53.208 175.889 53.208H169.201V57.016H174.449C175.057 57.016 175.5 57.0373 175.777 57.08C176.054 57.112 176.326 57.192 176.593 57.32C176.956 57.4907 177.249 57.7787 177.473 58.184C177.697 58.5787 177.809 59.0213 177.809 59.512C177.809 60.0027 177.697 60.4507 177.473 60.856C177.249 61.2507 176.956 61.5333 176.593 61.704C176.326 61.832 176.054 61.9173 175.777 61.96C175.5 61.992 175.057 62.008 174.449 62.008H169.201V66.008H175.889C176.497 66.008 176.94 66.0293 177.217 66.072C177.494 66.104 177.766 66.184 178.033 66.312C178.396 66.4827 178.689 66.7707 178.913 67.176C179.137 67.5707 179.249 68.0133 179.249 68.504C179.249 68.9947 179.137 69.4427 178.913 69.848C178.689 70.2427 178.396 70.5253 178.033 70.696C177.766 70.824 177.494 70.9093 177.217 70.952C176.94 70.984 176.497 71 175.889 71ZM190.069 67.352V51.656C190.069 51.272 190.074 50.968 190.085 50.744C190.106 50.52 190.176 50.2373 190.293 49.896C190.421 49.544 190.608 49.2453 190.853 49C191.098 48.7547 191.392 48.5733 191.733 48.456C192.085 48.328 192.373 48.2587 192.597 48.248C192.821 48.2267 193.125 48.216 193.509 48.216H199.125C200.352 48.216 201.466 48.424 202.469 48.84C203.472 49.2453 204.288 49.7947 204.917 50.488C205.557 51.1707 206.048 51.9493 206.389 52.824C206.73 53.688 206.901 54.5947 206.901 55.544C206.901 56.4933 206.73 57.4053 206.389 58.28C206.048 59.144 205.557 59.9227 204.917 60.616C204.288 61.2987 203.472 61.848 202.469 62.264C201.466 62.6693 200.352 62.872 199.125 62.872H195.701V67.352C195.701 68.0453 195.68 68.5413 195.637 68.84C195.605 69.128 195.509 69.432 195.349 69.752C195.146 70.1573 194.821 70.488 194.373 70.744C193.936 71 193.44 71.128 192.885 71.128C192.33 71.128 191.829 71 191.381 70.744C190.944 70.488 190.624 70.1573 190.421 69.752C190.261 69.432 190.16 69.128 190.117 68.84C190.085 68.5413 190.069 68.0453 190.069 67.352ZM195.701 57.88H198.869C199.605 57.88 200.192 57.6507 200.629 57.192C201.077 56.7227 201.301 56.1733 201.301 55.544C201.301 54.9147 201.077 54.3707 200.629 53.912C200.192 53.4427 199.605 53.208 198.869 53.208H195.701V57.88ZM224.451 68.696C223.609 69.5387 222.675 70.168 221.651 70.584C220.638 70.9893 219.454 71.192 218.099 71.192C216.745 71.192 215.555 70.9893 214.531 70.584C213.518 70.168 212.59 69.5387 211.747 68.696C211.299 68.248 210.921 67.7467 210.611 67.192C210.302 66.6373 210.067 66.12 209.907 65.64C209.758 65.1493 209.641 64.5253 209.555 63.768C209.481 63 209.433 62.36 209.411 61.848C209.401 61.3253 209.395 60.5787 209.395 59.608C209.395 58.6373 209.401 57.896 209.411 57.384C209.433 56.8613 209.481 56.2213 209.555 55.464C209.641 54.696 209.758 54.072 209.907 53.592C210.067 53.1013 210.302 52.5787 210.611 52.024C210.921 51.4693 211.299 50.968 211.747 50.52C212.59 49.6773 213.518 49.0533 214.531 48.648C215.555 48.232 216.745 48.024 218.099 48.024C219.454 48.024 220.638 48.232 221.651 48.648C222.675 49.0533 223.609 49.6773 224.451 50.52C224.899 50.968 225.278 51.4693 225.587 52.024C225.897 52.5787 226.126 53.1013 226.275 53.592C226.435 54.072 226.553 54.696 226.627 55.464C226.713 56.2213 226.761 56.8613 226.771 57.384C226.793 57.896 226.803 58.6373 226.803 59.608C226.803 60.5787 226.793 61.3253 226.771 61.848C226.761 62.36 226.713 63 226.627 63.768C226.553 64.5253 226.435 65.1493 226.275 65.64C226.126 66.12 225.897 66.6373 225.587 67.192C225.278 67.7467 224.899 68.248 224.451 68.696ZM220.339 65.176C220.638 64.7813 220.851 64.232 220.979 63.528C221.107 62.824 221.171 61.5173 221.171 59.608C221.171 57.6987 221.107 56.3867 220.979 55.672C220.851 54.9467 220.638 54.392 220.339 54.008C220.115 53.72 219.806 53.4853 219.411 53.304C219.027 53.112 218.59 53.016 218.099 53.016C217.609 53.016 217.166 53.112 216.771 53.304C216.387 53.4853 216.083 53.72 215.859 54.008C215.561 54.392 215.347 54.9467 215.219 55.672C215.091 56.3867 215.027 57.6987 215.027 59.608C215.027 61.5173 215.091 62.824 215.219 63.528C215.347 64.232 215.561 64.7813 215.859 65.176C216.382 65.8587 217.129 66.2 218.099 66.2C219.07 66.2 219.817 65.8587 220.339 65.176ZM249.743 69.56V72.184C249.743 72.8453 249.722 73.32 249.679 73.608C249.647 73.896 249.562 74.1787 249.423 74.456C249.231 74.84 248.927 75.1493 248.511 75.384C248.106 75.6187 247.642 75.736 247.119 75.736C246.597 75.736 246.127 75.6187 245.711 75.384C245.306 75.1493 245.007 74.84 244.815 74.456C244.677 74.1787 244.586 73.896 244.543 73.608C244.511 73.32 244.495 72.8453 244.495 72.184V71H233.183V72.184C233.183 72.8453 233.162 73.32 233.119 73.608C233.087 73.896 233.002 74.1787 232.863 74.456C232.671 74.84 232.367 75.1493 231.951 75.384C231.546 75.6187 231.082 75.736 230.559 75.736C230.037 75.736 229.567 75.6187 229.151 75.384C228.746 75.1493 228.447 74.84 228.255 74.456C228.117 74.1787 228.026 73.896 227.983 73.608C227.951 73.32 227.935 72.8453 227.935 72.184V69.56C227.935 68.8987 227.951 68.424 227.983 68.136C228.026 67.848 228.117 67.5653 228.255 67.288C228.415 66.9573 228.666 66.68 229.007 66.456C229.349 66.232 229.738 66.0933 230.175 66.04C230.911 64.1093 231.471 61.88 231.855 59.352C232.25 56.8133 232.447 54.2427 232.447 51.64V51.416C232.447 50.264 232.703 49.432 233.215 48.92C233.429 48.7067 233.69 48.5467 233.999 48.44C234.309 48.3227 234.565 48.2587 234.767 48.248C234.981 48.2267 235.274 48.216 235.647 48.216H243.695C244.079 48.216 244.383 48.2267 244.607 48.248C244.831 48.2587 245.114 48.328 245.455 48.456C245.807 48.5733 246.106 48.7547 246.351 49C246.597 49.2453 246.778 49.544 246.895 49.896C247.023 50.2373 247.093 50.52 247.103 50.744C247.125 50.968 247.135 51.272 247.135 51.656V66.008C247.647 66.0187 248.111 66.1413 248.527 66.376C248.943 66.6 249.242 66.904 249.423 67.288C249.562 67.5653 249.647 67.848 249.679 68.136C249.722 68.424 249.743 68.8987 249.743 69.56ZM241.503 66.008V53.208H237.919V53.816C237.919 56.3333 237.743 58.5253 237.391 60.392C237.05 62.248 236.543 64.12 235.871 66.008H241.503ZM270.644 67.352C270.644 68.0453 270.622 68.5413 270.58 68.84C270.548 69.128 270.452 69.432 270.292 69.752C270.089 70.1573 269.764 70.488 269.316 70.744C268.878 71 268.382 71.128 267.828 71.128C267.273 71.128 266.772 71 266.324 70.744C265.886 70.488 265.566 70.1573 265.364 69.752C265.204 69.432 265.102 69.128 265.06 68.84C265.028 68.5413 265.012 68.0453 265.012 67.352V58.904L258.884 68.552C258.276 69.5013 257.726 70.168 257.236 70.552C256.756 70.936 256.185 71.128 255.524 71.128C254.734 71.128 254.073 70.8613 253.54 70.328C253.241 70.0293 253.038 69.6667 252.932 69.24C252.836 68.8133 252.788 68.2853 252.788 67.656V51.864C252.788 51.1707 252.804 50.68 252.836 50.392C252.878 50.0933 252.98 49.784 253.14 49.464C253.342 49.0587 253.662 48.728 254.1 48.472C254.548 48.216 255.049 48.088 255.604 48.088C256.158 48.088 256.654 48.216 257.092 48.472C257.54 48.728 257.865 49.0587 258.068 49.464C258.228 49.784 258.324 50.0933 258.356 50.392C258.398 50.68 258.42 51.1707 258.42 51.864V60.312L264.548 50.664C265.156 49.7147 265.7 49.048 266.18 48.664C266.67 48.28 267.246 48.088 267.908 48.088C268.697 48.088 269.358 48.3547 269.892 48.888C270.19 49.1867 270.388 49.5493 270.484 49.976C270.59 50.4027 270.644 50.9307 270.644 51.56V67.352ZM279.402 67.352V53.208H277.05C276.442 53.208 275.999 53.192 275.722 53.16C275.445 53.1173 275.173 53.032 274.906 52.904C274.543 52.7333 274.25 52.4507 274.026 52.056C273.802 51.6507 273.69 51.2027 273.69 50.712C273.69 50.2213 273.802 49.7787 274.026 49.384C274.25 48.9787 274.543 48.6907 274.906 48.52C275.173 48.392 275.445 48.312 275.722 48.28C275.999 48.2373 276.442 48.216 277.05 48.216H287.386C287.994 48.216 288.437 48.2373 288.714 48.28C288.991 48.312 289.263 48.392 289.53 48.52C289.893 48.6907 290.186 48.9787 290.41 49.384C290.634 49.7787 290.746 50.2213 290.746 50.712C290.746 51.2027 290.634 51.6507 290.41 52.056C290.186 52.4507 289.893 52.7333 289.53 52.904C289.263 53.032 288.991 53.1173 288.714 53.16C288.437 53.192 287.994 53.208 287.386 53.208H285.034V67.352C285.034 68.0453 285.013 68.5413 284.97 68.84C284.938 69.128 284.842 69.432 284.682 69.752C284.479 70.1573 284.154 70.488 283.706 70.744C283.269 71 282.773 71.128 282.218 71.128C281.663 71.128 281.162 71 280.714 70.744C280.277 70.488 279.957 70.1573 279.754 69.752C279.594 69.432 279.493 69.128 279.45 68.84C279.418 68.5413 279.402 68.0453 279.402 67.352ZM306.108 71H297.228C296.844 71 296.54 70.9947 296.316 70.984C296.092 70.9627 295.804 70.8933 295.452 70.776C295.11 70.648 294.817 70.4613 294.572 70.216C294.326 69.9707 294.14 69.6773 294.012 69.336C293.894 68.984 293.825 68.696 293.804 68.472C293.793 68.248 293.788 67.944 293.788 67.56V51.656C293.788 51.272 293.793 50.968 293.804 50.744C293.825 50.52 293.894 50.2373 294.012 49.896C294.14 49.544 294.326 49.2453 294.572 49C294.817 48.7547 295.11 48.5733 295.452 48.456C295.804 48.328 296.092 48.2587 296.316 48.248C296.54 48.2267 296.844 48.216 297.228 48.216H306.108C306.716 48.216 307.158 48.2373 307.436 48.28C307.713 48.312 307.985 48.392 308.252 48.52C308.614 48.6907 308.908 48.9787 309.132 49.384C309.356 49.7787 309.468 50.2213 309.468 50.712C309.468 51.2027 309.356 51.6507 309.132 52.056C308.908 52.4507 308.614 52.7333 308.252 52.904C307.985 53.032 307.713 53.1173 307.436 53.16C307.158 53.192 306.716 53.208 306.108 53.208H299.42V57.016H304.668C305.276 57.016 305.718 57.0373 305.996 57.08C306.273 57.112 306.545 57.192 306.812 57.32C307.174 57.4907 307.468 57.7787 307.692 58.184C307.916 58.5787 308.028 59.0213 308.028 59.512C308.028 60.0027 307.916 60.4507 307.692 60.856C307.468 61.2507 307.174 61.5333 306.812 61.704C306.545 61.832 306.273 61.9173 305.996 61.96C305.718 61.992 305.276 62.008 304.668 62.008H299.42V66.008H306.108C306.716 66.008 307.158 66.0293 307.436 66.072C307.713 66.104 307.985 66.184 308.252 66.312C308.614 66.4827 308.908 66.7707 309.132 67.176C309.356 67.5707 309.468 68.0133 309.468 68.504C309.468 68.9947 309.356 69.4427 309.132 69.848C308.908 70.2427 308.614 70.5253 308.252 70.696C307.985 70.824 307.713 70.9093 307.436 70.952C307.158 70.984 306.716 71 306.108 71ZM326.57 67.352V53.208H322.602V59.16C322.602 61.0587 322.501 62.6907 322.298 64.056C322.106 65.4213 321.823 66.552 321.45 67.448C321.087 68.344 320.597 69.0533 319.978 69.576C319.37 70.0987 318.693 70.4667 317.946 70.68C317.199 70.8933 316.309 71 315.274 71C314.559 71 314.053 70.984 313.754 70.952C313.455 70.9093 313.173 70.824 312.906 70.696C312.554 70.5253 312.261 70.2373 312.026 69.832C311.802 69.4267 311.69 68.9787 311.69 68.488C311.69 67.7413 311.925 67.1333 312.394 66.664C312.81 66.248 313.423 66.024 314.234 65.992C314.639 65.9707 314.997 65.88 315.306 65.72C315.615 65.5493 315.871 65.3467 316.074 65.112C316.287 64.8667 316.463 64.5413 316.602 64.136C316.751 63.7307 316.863 63.352 316.938 63C317.013 62.648 317.071 62.1947 317.114 61.64C317.157 61.0853 317.178 60.616 317.178 60.232C317.189 59.848 317.194 59.352 317.194 58.744V51.656C317.194 51.272 317.199 50.968 317.21 50.744C317.231 50.52 317.301 50.2373 317.418 49.896C317.546 49.544 317.733 49.2453 317.978 49C318.223 48.7547 318.517 48.5733 318.858 48.456C319.21 48.328 319.498 48.2587 319.722 48.248C319.946 48.2267 320.25 48.216 320.634 48.216H328.762C329.146 48.216 329.45 48.2267 329.674 48.248C329.898 48.2587 330.181 48.328 330.522 48.456C330.874 48.5733 331.173 48.7547 331.418 49C331.663 49.2453 331.845 49.544 331.962 49.896C332.09 50.2373 332.159 50.52 332.17 50.744C332.191 50.968 332.202 51.272 332.202 51.656V67.352C332.202 68.0453 332.181 68.5413 332.138 68.84C332.106 69.128 332.01 69.432 331.85 69.752C331.647 70.1573 331.322 70.488 330.874 70.744C330.437 71 329.941 71.128 329.386 71.128C328.831 71.128 328.33 71 327.882 70.744C327.445 70.488 327.125 70.1573 326.922 69.752C326.762 69.432 326.661 69.128 326.618 68.84C326.586 68.5413 326.57 68.0453 326.57 67.352ZM354.612 67.352C354.612 68.0453 354.591 68.5413 354.548 68.84C354.516 69.128 354.42 69.432 354.26 69.752C354.058 70.1573 353.732 70.488 353.284 70.744C352.847 71 352.351 71.128 351.796 71.128C351.242 71.128 350.74 71 350.292 70.744C349.855 70.488 349.535 70.1573 349.332 69.752C349.172 69.432 349.071 69.128 349.028 68.84C348.996 68.5413 348.98 68.0453 348.98 67.352V58.904L342.852 68.552C342.244 69.5013 341.695 70.168 341.204 70.552C340.724 70.936 340.154 71.128 339.492 71.128C338.703 71.128 338.042 70.8613 337.508 70.328C337.21 70.0293 337.007 69.6667 336.9 69.24C336.804 68.8133 336.756 68.2853 336.756 67.656V51.864C336.756 51.1707 336.772 50.68 336.804 50.392C336.847 50.0933 336.948 49.784 337.108 49.464C337.311 49.0587 337.631 48.728 338.068 48.472C338.516 48.216 339.018 48.088 339.572 48.088C340.127 48.088 340.623 48.216 341.06 48.472C341.508 48.728 341.834 49.0587 342.036 49.464C342.196 49.784 342.292 50.0933 342.324 50.392C342.367 50.68 342.388 51.1707 342.388 51.864V60.312L348.516 50.664C349.124 49.7147 349.668 49.048 350.148 48.664C350.639 48.28 351.215 48.088 351.876 48.088C352.666 48.088 353.327 48.3547 353.86 48.888C354.159 49.1867 354.356 49.5493 354.452 49.976C354.559 50.4027 354.612 50.9307 354.612 51.56V67.352Z" fill="#024FA2"/>
<path d="M36.332 118.482C37.08 118.775 37.784 118.849 38.444 118.702C39.104 118.541 39.7127 118.02 40.27 117.14L41.018 115.952L41.172 115.754L47.068 104.6H48.696L41.7 117.492C41.2307 118.387 40.6733 119.054 40.028 119.494C39.3973 119.934 38.7227 120.169 38.004 120.198C37.3 120.227 36.5887 120.095 35.87 119.802L36.332 118.482ZM41.128 117.228L34.462 104.6H36.2L42.008 115.886L41.128 117.228ZM48.2897 119.978L48.3997 118.636C48.5024 118.651 48.5977 118.673 48.6857 118.702C48.7884 118.717 48.8764 118.724 48.9497 118.724C49.419 118.724 49.793 118.548 50.0717 118.196C50.365 117.844 50.585 117.375 50.7317 116.788C50.8784 116.201 50.981 115.541 51.0397 114.808C51.0984 114.06 51.1497 113.312 51.1937 112.564L51.3917 108.45H59.8617V120H58.2997V109.352L58.6957 109.814H52.4037L52.7777 109.33L52.6017 112.674C52.5577 113.671 52.477 114.625 52.3597 115.534C52.257 116.443 52.0884 117.243 51.8537 117.932C51.6337 118.621 51.3257 119.164 50.9297 119.56C50.5337 119.941 50.0277 120.132 49.4117 120.132C49.2357 120.132 49.0524 120.117 48.8617 120.088C48.6857 120.059 48.495 120.022 48.2897 119.978ZM64.5001 124.378C63.9574 124.378 63.4367 124.29 62.9381 124.114C62.4541 123.938 62.0361 123.674 61.6841 123.322L62.4101 122.156C62.7034 122.435 63.0187 122.647 63.3561 122.794C63.7081 122.955 64.0967 123.036 64.5221 123.036C65.0354 123.036 65.4754 122.889 65.8421 122.596C66.2234 122.317 66.5827 121.819 66.9201 121.1L67.6681 119.406L67.8441 119.164L72.5961 108.45H74.1361L68.3501 121.386C68.0274 122.134 67.6681 122.728 67.2721 123.168C66.8907 123.608 66.4727 123.916 66.0181 124.092C65.5634 124.283 65.0574 124.378 64.5001 124.378ZM67.5801 120.33L62.2561 108.45H63.8841L68.5921 119.054L67.5801 120.33ZM83.8737 115.116C83.199 115.409 82.517 115.644 81.8277 115.82C81.153 115.981 80.4783 116.062 79.8037 116.062C78.4397 116.062 77.3617 115.754 76.5697 115.138C75.7777 114.507 75.3817 113.539 75.3817 112.234V108.45H76.9217V112.146C76.9217 113.026 77.2077 113.686 77.7797 114.126C78.3517 114.566 79.1217 114.786 80.0897 114.786C80.6763 114.786 81.2923 114.713 81.9377 114.566C82.583 114.405 83.2357 114.177 83.8957 113.884L83.8737 115.116ZM83.7417 120V108.45H85.3037V120H83.7417ZM97.3296 118.636L96.9776 119.054V108.45H98.5396V119.054L98.1216 118.636H104.568L104.15 119.054V108.45H105.712V120H89.7396V108.45H91.3016V119.054L90.9056 118.636H97.3296ZM117.322 120V117.448L117.256 117.03V112.762C117.256 111.779 116.977 111.024 116.42 110.496C115.877 109.968 115.063 109.704 113.978 109.704C113.23 109.704 112.518 109.829 111.844 110.078C111.169 110.327 110.597 110.657 110.128 111.068L109.424 109.902C110.01 109.403 110.714 109.022 111.536 108.758C112.357 108.479 113.222 108.34 114.132 108.34C115.628 108.34 116.779 108.714 117.586 109.462C118.407 110.195 118.818 111.317 118.818 112.828V120H117.322ZM113.34 120.11C112.474 120.11 111.719 119.971 111.074 119.692C110.443 119.399 109.959 119.003 109.622 118.504C109.284 117.991 109.116 117.404 109.116 116.744C109.116 116.143 109.255 115.6 109.534 115.116C109.827 114.617 110.296 114.221 110.942 113.928C111.602 113.62 112.482 113.466 113.582 113.466H117.564V114.632H113.626C112.511 114.632 111.734 114.83 111.294 115.226C110.868 115.622 110.656 116.113 110.656 116.7C110.656 117.36 110.912 117.888 111.426 118.284C111.939 118.68 112.658 118.878 113.582 118.878C114.462 118.878 115.217 118.68 115.848 118.284C116.493 117.873 116.962 117.287 117.256 116.524L117.608 117.602C117.314 118.365 116.801 118.973 116.068 119.428C115.349 119.883 114.44 120.11 113.34 120.11ZM127.926 120.11C126.723 120.11 125.667 119.861 124.758 119.362C123.849 118.849 123.137 118.152 122.624 117.272C122.111 116.377 121.854 115.358 121.854 114.214C121.854 113.07 122.096 112.058 122.58 111.178C123.079 110.298 123.753 109.609 124.604 109.11C125.469 108.597 126.437 108.34 127.508 108.34C128.593 108.34 129.554 108.589 130.39 109.088C131.241 109.572 131.908 110.261 132.392 111.156C132.876 112.036 133.118 113.055 133.118 114.214C133.118 114.287 133.111 114.368 133.096 114.456C133.096 114.529 133.096 114.61 133.096 114.698H123.042V113.532H132.26L131.644 113.994C131.644 113.158 131.461 112.417 131.094 111.772C130.742 111.112 130.258 110.599 129.642 110.232C129.026 109.865 128.315 109.682 127.508 109.682C126.716 109.682 126.005 109.865 125.374 110.232C124.743 110.599 124.252 111.112 123.9 111.772C123.548 112.432 123.372 113.187 123.372 114.038V114.28C123.372 115.16 123.563 115.937 123.944 116.612C124.34 117.272 124.883 117.793 125.572 118.174C126.276 118.541 127.075 118.724 127.97 118.724C128.674 118.724 129.327 118.599 129.928 118.35C130.544 118.101 131.072 117.719 131.512 117.206L132.392 118.218C131.879 118.834 131.233 119.303 130.456 119.626C129.693 119.949 128.85 120.11 127.926 120.11ZM136.576 120V108.45H138.16L143.396 117.316H142.736L148.06 108.45H149.512V120H148.082V110.232L148.368 110.364L143.396 118.592H142.692L137.676 110.276L138.006 110.21V120H136.576ZM167.524 120L163.564 114.39L166.358 112.74L171.572 120H167.524ZM159.142 120V108.164H162.574V120H159.142ZM161.562 115.512V112.762H165.698V115.512H161.562ZM166.688 114.478L163.476 114.126L167.634 108.164H171.286L166.688 114.478ZM180.127 120V117.69L179.907 117.184V113.048C179.907 112.315 179.679 111.743 179.225 111.332C178.785 110.921 178.103 110.716 177.179 110.716C176.548 110.716 175.925 110.819 175.309 111.024C174.707 111.215 174.194 111.479 173.769 111.816L172.537 109.418C173.182 108.963 173.959 108.611 174.869 108.362C175.778 108.113 176.702 107.988 177.641 107.988C179.445 107.988 180.845 108.413 181.843 109.264C182.84 110.115 183.339 111.442 183.339 113.246V120H180.127ZM176.519 120.176C175.595 120.176 174.803 120.022 174.143 119.714C173.483 119.391 172.977 118.959 172.625 118.416C172.273 117.873 172.097 117.265 172.097 116.59C172.097 115.886 172.265 115.27 172.603 114.742C172.955 114.214 173.505 113.803 174.253 113.51C175.001 113.202 175.976 113.048 177.179 113.048H180.325V115.05H177.553C176.746 115.05 176.189 115.182 175.881 115.446C175.587 115.71 175.441 116.04 175.441 116.436C175.441 116.876 175.609 117.228 175.947 117.492C176.299 117.741 176.775 117.866 177.377 117.866C177.949 117.866 178.462 117.734 178.917 117.47C179.371 117.191 179.701 116.788 179.907 116.26L180.435 117.844C180.185 118.607 179.731 119.186 179.071 119.582C178.411 119.978 177.56 120.176 176.519 120.176ZM193.778 115.468C193.294 115.732 192.759 115.945 192.172 116.106C191.585 116.267 190.94 116.348 190.236 116.348C188.681 116.348 187.486 115.996 186.65 115.292C185.814 114.573 185.396 113.437 185.396 111.882V108.164H188.828V111.662C188.828 112.395 189.019 112.923 189.4 113.246C189.781 113.554 190.317 113.708 191.006 113.708C191.505 113.708 191.981 113.649 192.436 113.532C192.905 113.415 193.353 113.246 193.778 113.026V115.468ZM193.536 120V108.164H196.968V120H193.536ZM206.049 120.176C204.7 120.176 203.512 119.912 202.485 119.384C201.473 118.856 200.689 118.137 200.131 117.228C199.574 116.304 199.295 115.255 199.295 114.082C199.295 112.894 199.567 111.845 200.109 110.936C200.667 110.012 201.422 109.293 202.375 108.78C203.329 108.252 204.407 107.988 205.609 107.988C206.768 107.988 207.809 108.237 208.733 108.736C209.672 109.22 210.413 109.924 210.955 110.848C211.498 111.757 211.769 112.85 211.769 114.126C211.769 114.258 211.762 114.412 211.747 114.588C211.733 114.749 211.718 114.903 211.703 115.05H202.089V113.048H209.899L208.579 113.642C208.579 113.026 208.455 112.491 208.205 112.036C207.956 111.581 207.611 111.229 207.171 110.98C206.731 110.716 206.218 110.584 205.631 110.584C205.045 110.584 204.524 110.716 204.069 110.98C203.629 111.229 203.285 111.589 203.035 112.058C202.786 112.513 202.661 113.055 202.661 113.686V114.214C202.661 114.859 202.801 115.431 203.079 115.93C203.373 116.414 203.776 116.788 204.289 117.052C204.817 117.301 205.433 117.426 206.137 117.426C206.768 117.426 207.318 117.331 207.787 117.14C208.271 116.949 208.711 116.663 209.107 116.282L210.933 118.262C210.391 118.878 209.709 119.355 208.887 119.692C208.066 120.015 207.12 120.176 206.049 120.176ZM220.032 120.176C218.756 120.176 217.619 119.919 216.622 119.406C215.625 118.878 214.84 118.152 214.268 117.228C213.711 116.304 213.432 115.255 213.432 114.082C213.432 112.894 213.711 111.845 214.268 110.936C214.84 110.012 215.625 109.293 216.622 108.78C217.619 108.252 218.756 107.988 220.032 107.988C221.279 107.988 222.364 108.252 223.288 108.78C224.212 109.293 224.894 110.034 225.334 111.002L222.672 112.432C222.364 111.875 221.975 111.464 221.506 111.2C221.051 110.936 220.553 110.804 220.01 110.804C219.423 110.804 218.895 110.936 218.426 111.2C217.957 111.464 217.583 111.838 217.304 112.322C217.04 112.806 216.908 113.393 216.908 114.082C216.908 114.771 217.04 115.358 217.304 115.842C217.583 116.326 217.957 116.7 218.426 116.964C218.895 117.228 219.423 117.36 220.01 117.36C220.553 117.36 221.051 117.235 221.506 116.986C221.975 116.722 222.364 116.304 222.672 115.732L225.334 117.184C224.894 118.137 224.212 118.878 223.288 119.406C222.364 119.919 221.279 120.176 220.032 120.176ZM229.928 120V110.188L230.698 110.98H225.924V108.164H237.342V110.98H232.568L233.338 110.188V120H229.928ZM239.171 120V108.164H245.221C246.703 108.164 247.861 108.435 248.697 108.978C249.533 109.506 249.951 110.254 249.951 111.222C249.951 112.19 249.555 112.953 248.763 113.51C247.986 114.053 246.952 114.324 245.661 114.324L246.013 113.532C247.451 113.532 248.521 113.796 249.225 114.324C249.944 114.852 250.303 115.622 250.303 116.634C250.303 117.675 249.907 118.497 249.115 119.098C248.323 119.699 247.113 120 245.485 120H239.171ZM242.317 117.668H245.199C245.83 117.668 246.299 117.565 246.607 117.36C246.93 117.14 247.091 116.81 247.091 116.37C247.091 115.915 246.945 115.585 246.651 115.38C246.358 115.16 245.896 115.05 245.265 115.05H242.317V117.668ZM242.317 113.026H244.913C245.515 113.026 245.962 112.916 246.255 112.696C246.563 112.476 246.717 112.161 246.717 111.75C246.717 111.325 246.563 111.009 246.255 110.804C245.962 110.599 245.515 110.496 244.913 110.496H242.317V113.026ZM258.401 120.176C257.14 120.176 256.018 119.912 255.035 119.384C254.067 118.856 253.297 118.137 252.725 117.228C252.168 116.304 251.889 115.255 251.889 114.082C251.889 112.894 252.168 111.845 252.725 110.936C253.297 110.012 254.067 109.293 255.035 108.78C256.018 108.252 257.14 107.988 258.401 107.988C259.648 107.988 260.762 108.252 261.745 108.78C262.728 109.293 263.498 110.005 264.055 110.914C264.612 111.823 264.891 112.879 264.891 114.082C264.891 115.255 264.612 116.304 264.055 117.228C263.498 118.137 262.728 118.856 261.745 119.384C260.762 119.912 259.648 120.176 258.401 120.176ZM258.401 117.36C258.973 117.36 259.486 117.228 259.941 116.964C260.396 116.7 260.755 116.326 261.019 115.842C261.283 115.343 261.415 114.757 261.415 114.082C261.415 113.393 261.283 112.806 261.019 112.322C260.755 111.838 260.396 111.464 259.941 111.2C259.486 110.936 258.973 110.804 258.401 110.804C257.829 110.804 257.316 110.936 256.861 111.2C256.406 111.464 256.04 111.838 255.761 112.322C255.497 112.806 255.365 113.393 255.365 114.082C255.365 114.757 255.497 115.343 255.761 115.842C256.04 116.326 256.406 116.7 256.861 116.964C257.316 117.228 257.829 117.36 258.401 117.36ZM287.716 120L284.57 114.39L287.342 112.74L291.786 120H287.716ZM282.546 115.512V112.762H286.66V115.512H282.546ZM287.694 114.478L284.46 114.126L287.87 108.164H291.5L287.694 114.478ZM276.012 120H271.964L276.386 112.74L279.158 114.39L276.012 120ZM283.558 120H280.17V108.164H283.558V120ZM281.182 115.512H277.09V112.762H281.182V115.512ZM276.034 114.478L272.228 108.164H275.858L279.246 114.126L276.034 114.478ZM293.57 120V108.164H296.98V115.204L302.744 108.164H305.89V120H302.48V112.96L296.738 120H293.57ZM313.086 120.22C314.2 120.22 315.198 120.073 316.078 119.78C316.972 119.472 317.676 119.039 318.19 118.482C318.718 117.91 318.982 117.243 318.982 116.48C318.982 115.585 318.608 114.881 317.86 114.368C317.112 113.84 316.085 113.576 314.78 113.576L314.692 114.258C315.44 114.258 316.114 114.133 316.716 113.884C317.317 113.62 317.786 113.261 318.124 112.806C318.476 112.351 318.652 111.838 318.652 111.266C318.652 110.547 318.395 109.939 317.882 109.44C317.383 108.941 316.694 108.56 315.814 108.296C314.934 108.032 313.944 107.915 312.844 107.944C312.096 107.959 311.34 108.061 310.578 108.252C309.815 108.443 309.045 108.699 308.268 109.022L309.104 111.398C309.764 111.134 310.409 110.936 311.04 110.804C311.67 110.657 312.279 110.584 312.866 110.584C313.379 110.584 313.804 110.635 314.142 110.738C314.479 110.826 314.736 110.958 314.912 111.134C315.088 111.31 315.176 111.523 315.176 111.772C315.176 112.007 315.102 112.212 314.956 112.388C314.824 112.549 314.618 112.674 314.34 112.762C314.061 112.85 313.724 112.894 313.328 112.894H311.194V115.028H313.614C314.23 115.028 314.699 115.131 315.022 115.336C315.344 115.527 315.506 115.813 315.506 116.194C315.506 116.487 315.403 116.737 315.198 116.942C314.992 117.147 314.692 117.309 314.296 117.426C313.914 117.529 313.46 117.58 312.932 117.58C312.198 117.58 311.472 117.507 310.754 117.36C310.05 117.199 309.397 116.971 308.796 116.678L307.872 119.076C308.634 119.457 309.463 119.743 310.358 119.934C311.267 120.125 312.176 120.22 313.086 120.22ZM321.435 120V108.164H324.845V112.784H329.993V108.164H333.425V120H329.993V115.578H324.845V120H321.435ZM336.711 120V108.164H340.121V115.204L345.885 108.164H349.031V120H345.621V112.96L339.879 120H336.711ZM41.062 147.11C39.918 147.11 38.8913 146.861 37.982 146.362C37.0873 145.849 36.3833 145.152 35.87 144.272C35.3567 143.377 35.1 142.358 35.1 141.214C35.1 140.055 35.3567 139.036 35.87 138.156C36.3833 137.276 37.0873 136.587 37.982 136.088C38.8913 135.589 39.918 135.34 41.062 135.34C42.0447 135.34 42.932 135.531 43.724 135.912C44.516 136.293 45.1393 136.865 45.594 137.628L44.428 138.42C44.032 137.833 43.5407 137.401 42.954 137.122C42.3673 136.843 41.7293 136.704 41.04 136.704C40.2187 136.704 39.478 136.895 38.818 137.276C38.158 137.643 37.6373 138.163 37.256 138.838C36.8747 139.513 36.684 140.305 36.684 141.214C36.684 142.123 36.8747 142.915 37.256 143.59C37.6373 144.265 38.158 144.793 38.818 145.174C39.478 145.541 40.2187 145.724 41.04 145.724C41.7293 145.724 42.3673 145.585 42.954 145.306C43.5407 145.027 44.032 144.602 44.428 144.03L45.594 144.822C45.1393 145.57 44.516 146.142 43.724 146.538C42.932 146.919 42.0447 147.11 41.062 147.11ZM54.3763 147V135.45H55.9383V140.554H63.2203V135.45H64.7823V147H63.2203V141.896H55.9383V147H54.3763ZM73.974 147.11C72.8593 147.11 71.8547 146.861 70.96 146.362C70.08 145.849 69.3833 145.152 68.87 144.272C68.3567 143.377 68.1 142.358 68.1 141.214C68.1 140.055 68.3567 139.036 68.87 138.156C69.3833 137.276 70.08 136.587 70.96 136.088C71.84 135.589 72.8447 135.34 73.974 135.34C75.118 135.34 76.13 135.589 77.01 136.088C77.9047 136.587 78.6013 137.276 79.1 138.156C79.6133 139.036 79.87 140.055 79.87 141.214C79.87 142.358 79.6133 143.377 79.1 144.272C78.6013 145.152 77.9047 145.849 77.01 146.362C76.1153 146.861 75.1033 147.11 73.974 147.11ZM73.974 145.724C74.81 145.724 75.5507 145.541 76.196 145.174C76.8413 144.793 77.3473 144.265 77.714 143.59C78.0953 142.901 78.286 142.109 78.286 141.214C78.286 140.305 78.0953 139.513 77.714 138.838C77.3473 138.163 76.8413 137.643 76.196 137.276C75.5507 136.895 74.8173 136.704 73.996 136.704C73.1747 136.704 72.4413 136.895 71.796 137.276C71.1507 137.643 70.6373 138.163 70.256 138.838C69.8747 139.513 69.684 140.305 69.684 141.214C69.684 142.109 69.8747 142.901 70.256 143.59C70.6373 144.265 71.1507 144.793 71.796 145.174C72.4413 145.541 73.1673 145.724 73.974 145.724ZM83.2083 147V135.45H88.3123C89.6177 135.45 90.6443 135.699 91.3923 136.198C92.155 136.697 92.5363 137.43 92.5363 138.398C92.5363 139.337 92.177 140.063 91.4583 140.576C90.7397 141.075 89.7937 141.324 88.6203 141.324L88.9283 140.862C90.307 140.862 91.319 141.119 91.9643 141.632C92.6097 142.145 92.9323 142.886 92.9323 143.854C92.9323 144.851 92.5657 145.629 91.8323 146.186C91.1137 146.729 89.9917 147 88.4663 147H83.2083ZM84.7263 145.768H88.4003C89.383 145.768 90.1237 145.614 90.6223 145.306C91.1357 144.983 91.3923 144.47 91.3923 143.766C91.3923 143.062 91.165 142.549 90.7103 142.226C90.2557 141.903 89.537 141.742 88.5543 141.742H84.7263V145.768ZM84.7263 140.576H88.2023C89.097 140.576 89.779 140.407 90.2483 140.07C90.7323 139.733 90.9743 139.241 90.9743 138.596C90.9743 137.951 90.7323 137.467 90.2483 137.144C89.779 136.821 89.097 136.66 88.2023 136.66H84.7263V140.576ZM107.857 147V135.45H109.419V147H107.857ZM101.455 139.52C102.907 139.535 104.014 139.857 104.777 140.488C105.54 141.119 105.921 142.028 105.921 143.216C105.921 144.448 105.51 145.394 104.689 146.054C103.868 146.714 102.694 147.037 101.169 147.022L96.5931 147V135.45H98.1551V139.476L101.455 139.52ZM101.059 145.834C102.144 145.849 102.958 145.636 103.501 145.196C104.058 144.741 104.337 144.081 104.337 143.216C104.337 142.351 104.066 141.72 103.523 141.324C102.98 140.913 102.159 140.701 101.059 140.686L98.1551 140.642V145.79L101.059 145.834ZM113.867 147V135.45H115.451L120.687 144.316H120.027L125.351 135.45H126.803V147H125.373V137.232L125.659 137.364L120.687 145.592H119.983L114.967 137.276L115.297 137.21V147H113.867ZM131.247 147V135.45H132.809V144.624L140.531 135.45H141.917V147H140.355V137.804L132.655 147H131.247ZM154.352 147V136.396L154.748 136.814H149.974V135.45H160.292V136.814H155.518L155.914 136.396V147H154.352ZM166.963 147.11C165.76 147.11 164.704 146.861 163.795 146.362C162.886 145.849 162.174 145.152 161.661 144.272C161.148 143.377 160.891 142.358 160.891 141.214C160.891 140.07 161.133 139.058 161.617 138.178C162.116 137.298 162.79 136.609 163.641 136.11C164.506 135.597 165.474 135.34 166.545 135.34C167.63 135.34 168.591 135.589 169.427 136.088C170.278 136.572 170.945 137.261 171.429 138.156C171.913 139.036 172.155 140.055 172.155 141.214C172.155 141.287 172.148 141.368 172.133 141.456C172.133 141.529 172.133 141.61 172.133 141.698H162.079V140.532H171.297L170.681 140.994C170.681 140.158 170.498 139.417 170.131 138.772C169.779 138.112 169.295 137.599 168.679 137.232C168.063 136.865 167.352 136.682 166.545 136.682C165.753 136.682 165.042 136.865 164.411 137.232C163.78 137.599 163.289 138.112 162.937 138.772C162.585 139.432 162.409 140.187 162.409 141.038V141.28C162.409 142.16 162.6 142.937 162.981 143.612C163.377 144.272 163.92 144.793 164.609 145.174C165.313 145.541 166.112 145.724 167.007 145.724C167.711 145.724 168.364 145.599 168.965 145.35C169.581 145.101 170.109 144.719 170.549 144.206L171.429 145.218C170.916 145.834 170.27 146.303 169.493 146.626C168.73 146.949 167.887 147.11 166.963 147.11ZM173.398 147L178.282 140.664L178.26 141.434L173.618 135.45H175.378L179.184 140.4L178.524 140.378L182.33 135.45H184.046L179.36 141.5L179.382 140.664L184.31 147H182.528L178.502 141.72L179.118 141.808L175.158 147H173.398ZM186.87 147V135.45H188.432V140.554H195.714V135.45H197.276V147H195.714V141.896H188.432V147H186.87ZM206.468 147.11C205.353 147.11 204.349 146.861 203.454 146.362C202.574 145.849 201.877 145.152 201.364 144.272C200.851 143.377 200.594 142.358 200.594 141.214C200.594 140.055 200.851 139.036 201.364 138.156C201.877 137.276 202.574 136.587 203.454 136.088C204.334 135.589 205.339 135.34 206.468 135.34C207.612 135.34 208.624 135.589 209.504 136.088C210.399 136.587 211.095 137.276 211.594 138.156C212.107 139.036 212.364 140.055 212.364 141.214C212.364 142.358 212.107 143.377 211.594 144.272C211.095 145.152 210.399 145.849 209.504 146.362C208.609 146.861 207.597 147.11 206.468 147.11ZM206.468 145.724C207.304 145.724 208.045 145.541 208.69 145.174C209.335 144.793 209.841 144.265 210.208 143.59C210.589 142.901 210.78 142.109 210.78 141.214C210.78 140.305 210.589 139.513 210.208 138.838C209.841 138.163 209.335 137.643 208.69 137.276C208.045 136.895 207.311 136.704 206.49 136.704C205.669 136.704 204.935 136.895 204.29 137.276C203.645 137.643 203.131 138.163 202.75 138.838C202.369 139.513 202.178 140.305 202.178 141.214C202.178 142.109 202.369 142.901 202.75 143.59C203.131 144.265 203.645 144.793 204.29 145.174C204.935 145.541 205.661 145.724 206.468 145.724ZM213.526 146.978L213.636 145.636C213.739 145.651 213.834 145.673 213.922 145.702C214.025 145.717 214.113 145.724 214.186 145.724C214.655 145.724 215.029 145.548 215.308 145.196C215.601 144.844 215.821 144.375 215.968 143.788C216.115 143.201 216.217 142.541 216.276 141.808C216.335 141.06 216.386 140.312 216.43 139.564L216.628 135.45H225.098V147H223.536V136.352L223.932 136.814H217.64L218.014 136.33L217.838 139.674C217.794 140.671 217.713 141.625 217.596 142.534C217.493 143.443 217.325 144.243 217.09 144.932C216.87 145.621 216.562 146.164 216.166 146.56C215.77 146.941 215.264 147.132 214.648 147.132C214.472 147.132 214.289 147.117 214.098 147.088C213.922 147.059 213.731 147.022 213.526 146.978ZM234.29 147.11C233.176 147.11 232.171 146.861 231.276 146.362C230.396 145.849 229.7 145.152 229.186 144.272C228.673 143.377 228.416 142.358 228.416 141.214C228.416 140.055 228.673 139.036 229.186 138.156C229.7 137.276 230.396 136.587 231.276 136.088C232.156 135.589 233.161 135.34 234.29 135.34C235.434 135.34 236.446 135.589 237.326 136.088C238.221 136.587 238.918 137.276 239.416 138.156C239.93 139.036 240.186 140.055 240.186 141.214C240.186 142.358 239.93 143.377 239.416 144.272C238.918 145.152 238.221 145.849 237.326 146.362C236.432 146.861 235.42 147.11 234.29 147.11ZM234.29 145.724C235.126 145.724 235.867 145.541 236.512 145.174C237.158 144.793 237.664 144.265 238.03 143.59C238.412 142.901 238.602 142.109 238.602 141.214C238.602 140.305 238.412 139.513 238.03 138.838C237.664 138.163 237.158 137.643 236.512 137.276C235.867 136.895 235.134 136.704 234.312 136.704C233.491 136.704 232.758 136.895 232.112 137.276C231.467 137.643 230.954 138.163 230.572 138.838C230.191 139.513 230 140.305 230 141.214C230 142.109 230.191 142.901 230.572 143.59C230.954 144.265 231.467 144.793 232.112 145.174C232.758 145.541 233.484 145.724 234.29 145.724ZM243.525 147V135.45H251.709V136.814H244.691L245.087 136.418V147H243.525ZM253.966 147V135.45H255.528V144.624L263.25 135.45H264.636V147H263.074V137.804L255.374 147H253.966ZM276.571 147V142.842L276.857 143.172H272.941C271.459 143.172 270.301 142.849 269.465 142.204C268.629 141.559 268.211 140.62 268.211 139.388C268.211 138.068 268.658 137.085 269.553 136.44C270.447 135.78 271.643 135.45 273.139 135.45H278.001V147H276.571ZM268.123 147L271.291 142.556H272.919L269.817 147H268.123ZM276.571 142.38V136.352L276.857 136.814H273.183C272.112 136.814 271.276 137.019 270.675 137.43C270.088 137.841 269.795 138.508 269.795 139.432C269.795 141.148 270.887 142.006 273.073 142.006H276.857L276.571 142.38ZM282.454 147V135.45H284.038L289.274 144.316H288.614L293.938 135.45H295.39V147H293.96V137.232L294.246 137.364L289.274 145.592H288.57L283.554 137.276L283.884 137.21V147H282.454ZM299.835 147V135.45H301.397V144.624L309.119 135.45H310.505V147H308.943V137.804L301.243 147H299.835ZM315.092 147.11C314.769 147.11 314.49 146.993 314.256 146.758C314.036 146.523 313.926 146.237 313.926 145.9C313.926 145.548 314.036 145.262 314.256 145.042C314.49 144.822 314.769 144.712 315.092 144.712C315.414 144.712 315.686 144.822 315.906 145.042C316.14 145.262 316.258 145.548 316.258 145.9C316.258 146.237 316.14 146.523 315.906 146.758C315.686 146.993 315.414 147.11 315.092 147.11Z" fill="black"/>
<line y1="-1.5" x2="84" y2="-1.5" transform="matrix(-4.37114e-08 -1 -1 4.37114e-08 377 89)" stroke="#9D9E9E" stroke-width="3"/>
<line y1="-1.5" x2="373" y2="-1.5" transform="matrix(-1 0 0 1 378 89)" stroke="#9D9E9E" stroke-width="3"/>
<circle r="6" transform="matrix(-1 0 0 1 378 88)" fill="#9D9E9E"/>
<circle r="6" transform="matrix(-1 0 0 1 6 88)" fill="#9D9E9E"/>
<circle r="6" transform="matrix(-1 0 0 1 378 6)" fill="#9D9E9E"/>
</svg>
