<svg width="1920" height="636" viewBox="0 0 1920 636" fill="none" xmlns="http://www.w3.org/2000/svg">
<path d="M0 0H1920V636H0V0Z" fill="#5C5C5C"/>
<path d="M5.31016 107.287L83.7849 30.7958L190.983 58.7937L219.687 163.21L141.212 239.701L34.0137 211.703L5.31016 107.287Z" stroke="#4D4D4D" stroke-opacity="0.5" stroke-width="4"/>
<path d="M-43.5614 290.039L34.9133 213.547L142.112 241.545L170.815 345.961L92.3406 422.453L-14.8579 394.455L-43.5614 290.039Z" stroke="#4D4D4D" stroke-opacity="0.5" stroke-width="4"/>
<path d="M-92.433 472.79L-13.9583 396.298L93.2402 424.296L121.944 528.712L43.469 605.204L-63.7294 577.206L-92.433 472.79Z" stroke="#4D4D4D" stroke-opacity="0.5" stroke-width="4"/>
<path d="M95.0563 422.555L173.531 346.063L280.729 374.061L309.433 478.477L230.958 554.969L123.76 526.971L95.0563 422.555Z" stroke="#4D4D4D" stroke-opacity="0.5" stroke-width="4"/>
</svg>
