<svg width="262" height="303" viewBox="0 0 262 303" fill="none" xmlns="http://www.w3.org/2000/svg">
<path d="M131.725 0.938196L131.449 0.778772L131.173 0.938196L66.4489 38.3678L66.7246 38.8445L66.4487 38.3679L1.72415 75.825L1.44928 75.984L1.44928 76.3016L1.44929 151.161L1.44929 226.047L1.44929 226.365L1.72416 226.524L66.4487 263.981L66.4489 263.981L131.173 301.411L131.449 301.57L131.725 301.411L196.449 263.981L196.45 263.981L261.174 226.524L261.449 226.365L261.449 226.047L261.449 151.161L261.449 76.3016L261.449 75.984L261.174 75.825L196.45 38.3679L196.174 38.8445L196.449 38.3678L131.725 0.938196Z" stroke="#024FA2" stroke-width="1.10141"/>
</svg>
