<svg width="160" height="95" viewBox="0 0 160 95" fill="none" xmlns="http://www.w3.org/2000/svg">
<path fill-rule="evenodd" clip-rule="evenodd" d="M30.5 -1.3332e-06L15.25 8.62263L1.5527e-06 17.2516L2.30652e-06 34.4968L3.06061e-06 51.7484L15.25 60.3774L30.5 69L45.75 60.3774L61 51.7484L61 34.4968L61 17.2516L45.75 8.62263L30.5 -1.3332e-06Z" fill="#8B8B8B"/>
<path fill-rule="evenodd" clip-rule="evenodd" d="M129.5 -1.3332e-06L114.25 8.62263L99 17.2516L99 34.4968L99 51.7484L114.25 60.3774L129.5 69L144.75 60.3774L160 51.7484L160 34.4968L160 17.2516L144.75 8.62263L129.5 -1.3332e-06Z" fill="#8B8B8B"/>
<path fill-rule="evenodd" clip-rule="evenodd" d="M84 26L69 34.6226L54 43.2516L54 60.4968L54 77.7484L69 86.3774L84 95L99 86.3774L114 77.7484L114 60.4968L114 43.2516L99 34.6226L84 26Z" fill="#D9D9D9"/>
</svg>
