<svg width="160" height="110" viewBox="0 0 160 110" fill="none" xmlns="http://www.w3.org/2000/svg">
<path fill-rule="evenodd" clip-rule="evenodd" d="M37 -1.61732e-06L55.5 10.6221L74 21.2519L74 42.4961L74 63.7481L55.5 74.3779L37 85L18.5 74.3779L9.28952e-07 63.7481L1.8579e-06 42.4961L2.78652e-06 21.2519L18.5 10.6221L37 -1.61732e-06Z" fill="#8B8B8B"/>
<path fill-rule="evenodd" clip-rule="evenodd" d="M112.5 5.5531e-06L136.25 13.7462L160 27.5025L160 54.995L160 82.4975L136.25 96.2538L112.5 110L88.75 96.2538L65 82.4975L65 54.995L65 27.5025L88.75 13.7462L112.5 5.5531e-06Z" fill="#D9D9D9"/>
</svg>
