<svg width="262" height="303" viewBox="0 0 262 303" fill="none" xmlns="http://www.w3.org/2000/svg">
<path d="M75.26 52.367L75.2606 52.3667L132 19.6986L188.739 52.3667L188.74 52.367L245.475 85.0569L245.475 150.386L245.475 215.74L188.74 248.43L188.739 248.431L132 281.099L75.2606 248.431L75.26 248.43L18.5247 215.74L18.5247 150.386L18.5247 85.0569L75.26 52.367Z" fill="#F8F8F8" stroke="#4D4D4D" stroke-width="4.40566"/>
<path d="M54.9865 186.801L54.9865 177.077H52.2585L52.2585 181.169C52.2585 182.475 52.1889 183.597 52.0495 184.535C51.9175 185.474 51.7232 186.251 51.4665 186.867C51.2172 187.483 50.8799 187.971 50.4545 188.33C50.0365 188.69 49.5709 188.943 49.0575 189.089C48.5442 189.236 47.9319 189.309 47.2205 189.309C46.7292 189.309 46.3809 189.298 46.1755 189.276C45.9702 189.247 45.7759 189.188 45.5925 189.1C45.3505 188.983 45.1489 188.785 44.9875 188.506C44.8335 188.228 44.7565 187.92 44.7565 187.582C44.7565 187.069 44.9179 186.651 45.2405 186.328C45.5265 186.042 45.9482 185.888 46.5055 185.866C46.7842 185.852 47.0299 185.789 47.2425 185.679C47.4552 185.562 47.6312 185.423 47.7705 185.261C47.9172 185.093 48.0382 184.869 48.1335 184.59C48.2362 184.312 48.3132 184.051 48.3645 183.809C48.4159 183.567 48.4562 183.256 48.4855 182.874C48.5149 182.493 48.5295 182.17 48.5295 181.906C48.5369 181.642 48.5405 181.301 48.5405 180.883L48.5405 176.01C48.5405 175.746 48.5442 175.537 48.5515 175.383C48.5662 175.229 48.6139 175.035 48.6945 174.8C48.7825 174.558 48.9109 174.353 49.0795 174.184C49.2482 174.016 49.4499 173.891 49.6845 173.81C49.9265 173.722 50.1245 173.675 50.2785 173.667C50.4325 173.653 50.6415 173.645 50.9055 173.645H56.4935C56.7575 173.645 56.9665 173.653 57.1205 173.667C57.2745 173.675 57.4689 173.722 57.7035 173.81C57.9455 173.891 58.1509 174.016 58.3195 174.184C58.4882 174.353 58.6129 174.558 58.6935 174.8C58.7815 175.035 58.8292 175.229 58.8365 175.383C58.8512 175.537 58.8585 175.746 58.8585 176.01L58.8585 186.801C58.8585 187.278 58.8439 187.619 58.8145 187.824C58.7925 188.022 58.7265 188.231 58.6165 188.451C58.4772 188.73 58.2535 188.957 57.9455 189.133C57.6449 189.309 57.3039 189.397 56.9225 189.397C56.5412 189.397 56.1965 189.309 55.8885 189.133C55.5879 188.957 55.3679 188.73 55.2285 188.451C55.1185 188.231 55.0489 188.022 55.0195 187.824C54.9975 187.619 54.9865 187.278 54.9865 186.801ZM70.4598 189.309H64.3548C64.0908 189.309 63.8818 189.306 63.7278 189.298C63.5738 189.284 63.3758 189.236 63.1338 189.155C62.8991 189.067 62.6974 188.939 62.5288 188.77C62.3601 188.602 62.2318 188.4 62.1438 188.165C62.0631 187.923 62.0154 187.725 62.0008 187.571C61.9934 187.417 61.9898 187.208 61.9898 186.944L61.9898 176.01C61.9898 175.746 61.9934 175.537 62.0008 175.383C62.0154 175.229 62.0631 175.035 62.1438 174.8C62.2318 174.558 62.3601 174.353 62.5288 174.184C62.6974 174.016 62.8991 173.891 63.1338 173.81C63.3758 173.722 63.5738 173.675 63.7278 173.667C63.8818 173.653 64.0908 173.645 64.3548 173.645H70.4598C70.8778 173.645 71.1821 173.66 71.3728 173.689C71.5634 173.711 71.7504 173.766 71.9338 173.854C72.1831 173.972 72.3848 174.17 72.5388 174.448C72.6928 174.72 72.7698 175.024 72.7698 175.361C72.7698 175.699 72.6928 176.007 72.5388 176.285C72.3848 176.557 72.1831 176.751 71.9338 176.868C71.7504 176.956 71.5634 177.015 71.3728 177.044C71.1821 177.066 70.8778 177.077 70.4598 177.077H65.8618L65.8618 179.695H69.4698C69.8878 179.695 70.1921 179.71 70.3828 179.739C70.5734 179.761 70.7604 179.816 70.9438 179.904C71.1931 180.022 71.3948 180.22 71.5488 180.498C71.7028 180.77 71.7798 181.074 71.7798 181.411C71.7798 181.749 71.7028 182.057 71.5488 182.335C71.3948 182.607 71.1931 182.801 70.9438 182.918C70.7604 183.006 70.5734 183.065 70.3828 183.094C70.1921 183.116 69.8878 183.127 69.4698 183.127H65.8618L65.8618 185.877H70.4598C70.8778 185.877 71.1821 185.892 71.3728 185.921C71.5634 185.943 71.7504 185.998 71.9338 186.086C72.1831 186.204 72.3848 186.402 72.5388 186.68C72.6928 186.952 72.7698 187.256 72.7698 187.593C72.7698 187.931 72.6928 188.239 72.5388 188.517C72.3848 188.789 72.1831 188.983 71.9338 189.1C71.7504 189.188 71.5634 189.247 71.3728 189.276C71.1821 189.298 70.8778 189.309 70.4598 189.309ZM82.6576 186.801L82.6576 183.743C81.4036 183.963 80.2192 184.073 79.1046 184.073C78.3712 184.073 77.6966 183.93 77.0806 183.644C76.4719 183.358 75.9732 182.926 75.5846 182.346C75.1959 181.76 75.0016 181.081 75.0016 180.311L75.0016 176.153C75.0016 175.677 75.0126 175.339 75.0346 175.141C75.0639 174.936 75.1336 174.723 75.2436 174.503C75.3829 174.225 75.6029 173.997 75.9036 173.821C76.2116 173.645 76.5562 173.557 76.9376 173.557C77.3189 173.557 77.6599 173.645 77.9606 173.821C78.2686 173.997 78.4922 174.225 78.6316 174.503C78.7416 174.723 78.8076 174.936 78.8296 175.141C78.8589 175.339 78.8736 175.677 78.8736 176.153L78.8736 179.233C78.8736 179.673 78.9982 180.014 79.2476 180.256C79.5042 180.498 79.8672 180.619 80.3366 180.619C81.1506 180.619 81.9242 180.553 82.6576 180.421L82.6576 176.153C82.6576 175.677 82.6686 175.339 82.6906 175.141C82.7199 174.936 82.7896 174.723 82.8996 174.503C83.0389 174.225 83.2589 173.997 83.5596 173.821C83.8676 173.645 84.2122 173.557 84.5936 173.557C84.9749 173.557 85.3159 173.645 85.6166 173.821C85.9246 173.997 86.1482 174.225 86.2876 174.503C86.3976 174.723 86.4636 174.936 86.4856 175.141C86.5149 175.339 86.5296 175.677 86.5296 176.153L86.5296 186.801C86.5296 187.278 86.5149 187.619 86.4856 187.824C86.4636 188.022 86.3976 188.231 86.2876 188.451C86.1482 188.73 85.9246 188.957 85.6166 189.133C85.3159 189.309 84.9749 189.397 84.5936 189.397C84.2122 189.397 83.8676 189.309 83.5596 189.133C83.2589 188.957 83.0389 188.73 82.8996 188.451C82.7896 188.231 82.7199 188.022 82.6906 187.824C82.6686 187.619 82.6576 187.278 82.6576 186.801ZM98.1316 189.309H92.0266C91.7626 189.309 91.5536 189.306 91.3996 189.298C91.2456 189.284 91.0476 189.236 90.8056 189.155C90.571 189.067 90.3693 188.939 90.2006 188.77C90.032 188.602 89.9036 188.4 89.8156 188.165C89.735 187.923 89.6873 187.725 89.6726 187.571C89.6653 187.417 89.6616 187.208 89.6616 186.944L89.6616 176.01C89.6616 175.746 89.6653 175.537 89.6726 175.383C89.6873 175.229 89.735 175.035 89.8156 174.8C89.9036 174.558 90.032 174.353 90.2006 174.184C90.3693 174.016 90.571 173.891 90.8056 173.81C91.0476 173.722 91.2456 173.675 91.3996 173.667C91.5536 173.653 91.7626 173.645 92.0266 173.645H98.1316C98.5496 173.645 98.854 173.66 99.0446 173.689C99.2353 173.711 99.4223 173.766 99.6056 173.854C99.855 173.972 100.057 174.17 100.211 174.448C100.365 174.72 100.442 175.024 100.442 175.361C100.442 175.699 100.365 176.007 100.211 176.285C100.057 176.557 99.855 176.751 99.6056 176.868C99.4223 176.956 99.2353 177.015 99.0446 177.044C98.854 177.066 98.5496 177.077 98.1316 177.077H93.5336L93.5336 179.695H97.1416C97.5596 179.695 97.864 179.71 98.0546 179.739C98.2453 179.761 98.4323 179.816 98.6156 179.904C98.865 180.022 99.0666 180.22 99.2206 180.498C99.3746 180.77 99.4516 181.074 99.4516 181.411C99.4516 181.749 99.3746 182.057 99.2206 182.335C99.0666 182.607 98.865 182.801 98.6156 182.918C98.4323 183.006 98.2453 183.065 98.0546 183.094C97.864 183.116 97.5596 183.127 97.1416 183.127H93.5336L93.5336 185.877H98.1316C98.5496 185.877 98.854 185.892 99.0446 185.921C99.2353 185.943 99.4223 185.998 99.6056 186.086C99.855 186.204 100.057 186.402 100.211 186.68C100.365 186.952 100.442 187.256 100.442 187.593C100.442 187.931 100.365 188.239 100.211 188.517C100.057 188.789 99.855 188.983 99.6056 189.1C99.4223 189.188 99.2353 189.247 99.0446 189.276C98.854 189.298 98.5496 189.309 98.1316 189.309ZM114.839 186.801C114.839 187.278 114.825 187.619 114.795 187.824C114.773 188.022 114.707 188.231 114.597 188.451C114.458 188.73 114.234 188.957 113.926 189.133C113.626 189.309 113.285 189.397 112.903 189.397C112.522 189.397 112.177 189.309 111.869 189.133C111.569 188.957 111.349 188.73 111.209 188.451C111.099 188.231 111.03 188.022 111 187.824C110.978 187.619 110.967 187.278 110.967 186.801L110.967 183.105H106.875L106.875 186.801C106.875 187.278 106.861 187.619 106.831 187.824C106.809 188.022 106.743 188.231 106.633 188.451C106.494 188.73 106.27 188.957 105.962 189.133C105.662 189.309 105.321 189.397 104.939 189.397C104.558 189.397 104.213 189.309 103.905 189.133C103.605 188.957 103.385 188.73 103.245 188.451C103.135 188.231 103.066 188.022 103.036 187.824C103.014 187.619 103.003 187.278 103.003 186.801L103.003 176.153C103.003 175.677 103.014 175.339 103.036 175.141C103.066 174.936 103.135 174.723 103.245 174.503C103.385 174.225 103.605 173.997 103.905 173.821C104.213 173.645 104.558 173.557 104.939 173.557C105.321 173.557 105.662 173.645 105.962 173.821C106.27 173.997 106.494 174.225 106.633 174.503C106.743 174.723 106.809 174.936 106.831 175.141C106.861 175.339 106.875 175.677 106.875 176.153L106.875 179.673H110.967L110.967 176.153C110.967 175.677 110.978 175.339 111 175.141C111.03 174.936 111.099 174.723 111.209 174.503C111.349 174.225 111.569 173.997 111.869 173.821C112.177 173.645 112.522 173.557 112.903 173.557C113.285 173.557 113.626 173.645 113.926 173.821C114.234 173.997 114.458 174.225 114.597 174.503C114.707 174.723 114.773 174.936 114.795 175.141C114.825 175.339 114.839 175.677 114.839 176.153L114.839 186.801ZM130.233 186.801C130.233 187.278 130.218 187.619 130.189 187.824C130.167 188.022 130.101 188.231 129.991 188.451C129.851 188.73 129.628 188.957 129.32 189.133C129.019 189.309 128.678 189.397 128.297 189.397C127.915 189.397 127.571 189.309 127.263 189.133C126.962 188.957 126.742 188.73 126.603 188.451C126.493 188.231 126.423 188.022 126.394 187.824C126.372 187.619 126.361 187.278 126.361 186.801L126.361 180.993L122.148 187.626C121.73 188.279 121.352 188.737 121.015 189.001C120.685 189.265 120.292 189.397 119.838 189.397C119.295 189.397 118.84 189.214 118.474 188.847C118.268 188.642 118.129 188.393 118.056 188.099C117.99 187.806 117.957 187.443 117.957 187.01L117.957 176.153C117.957 175.677 117.968 175.339 117.99 175.141C118.019 174.936 118.089 174.723 118.199 174.503C118.338 174.225 118.558 173.997 118.859 173.821C119.167 173.645 119.511 173.557 119.893 173.557C120.274 173.557 120.615 173.645 120.916 173.821C121.224 173.997 121.447 174.225 121.587 174.503C121.697 174.723 121.763 174.936 121.785 175.141C121.814 175.339 121.829 175.677 121.829 176.153L121.829 181.961L126.042 175.328C126.46 174.676 126.834 174.217 127.164 173.953C127.501 173.689 127.897 173.557 128.352 173.557C128.894 173.557 129.349 173.741 129.716 174.107C129.921 174.313 130.057 174.562 130.123 174.855C130.196 175.149 130.233 175.512 130.233 175.944L130.233 186.801ZM141.831 189.309H135.726C135.462 189.309 135.253 189.306 135.099 189.298C134.945 189.284 134.747 189.236 134.505 189.155C134.27 189.067 134.069 188.939 133.9 188.77C133.731 188.602 133.603 188.4 133.515 188.165C133.434 187.923 133.387 187.725 133.372 187.571C133.365 187.417 133.361 187.208 133.361 186.944L133.361 176.01C133.361 175.746 133.365 175.537 133.372 175.383C133.387 175.229 133.434 175.035 133.515 174.8C133.603 174.558 133.731 174.353 133.9 174.184C134.069 174.016 134.27 173.891 134.505 173.81C134.747 173.722 134.945 173.675 135.099 173.667C135.253 173.653 135.462 173.645 135.726 173.645H141.831C142.249 173.645 142.553 173.66 142.744 173.689C142.935 173.711 143.122 173.766 143.305 173.854C143.554 173.972 143.756 174.17 143.91 174.448C144.064 174.72 144.141 175.024 144.141 175.361C144.141 175.699 144.064 176.007 143.91 176.285C143.756 176.557 143.554 176.751 143.305 176.868C143.122 176.956 142.935 177.015 142.744 177.044C142.553 177.066 142.249 177.077 141.831 177.077H137.233L137.233 179.695H140.841C141.259 179.695 141.563 179.71 141.754 179.739C141.945 179.761 142.132 179.816 142.315 179.904C142.564 180.022 142.766 180.22 142.92 180.498C143.074 180.77 143.151 181.074 143.151 181.411C143.151 181.749 143.074 182.057 142.92 182.335C142.766 182.607 142.564 182.801 142.315 182.918C142.132 183.006 141.945 183.065 141.754 183.094C141.563 183.116 141.259 183.127 140.841 183.127H137.233L137.233 185.877H141.831C142.249 185.877 142.553 185.892 142.744 185.921C142.935 185.943 143.122 185.998 143.305 186.086C143.554 186.204 143.756 186.402 143.91 186.68C144.064 186.952 144.141 187.256 144.141 187.593C144.141 187.931 144.064 188.239 143.91 188.517C143.756 188.789 143.554 188.983 143.305 189.1C143.122 189.188 142.935 189.247 142.744 189.276C142.553 189.298 142.249 189.309 141.831 189.309ZM165.407 188.319L165.407 190.123C165.407 190.578 165.392 190.904 165.363 191.102C165.341 191.3 165.282 191.495 165.187 191.685C165.055 191.949 164.846 192.162 164.56 192.323C164.281 192.485 163.962 192.565 163.603 192.565C163.243 192.565 162.921 192.485 162.635 192.323C162.356 192.162 162.151 191.949 162.019 191.685C161.923 191.495 161.861 191.3 161.832 191.102C161.81 190.904 161.799 190.578 161.799 190.123L161.799 189.309H154.022L154.022 190.123C154.022 190.578 154.007 190.904 153.978 191.102C153.956 191.3 153.897 191.495 153.802 191.685C153.67 191.949 153.461 192.162 153.175 192.323C152.896 192.485 152.577 192.565 152.218 192.565C151.858 192.565 151.536 192.485 151.25 192.323C150.971 192.162 150.766 191.949 150.634 191.685C150.538 191.495 150.476 191.3 150.447 191.102C150.425 190.904 150.414 190.578 150.414 190.123L150.414 188.319C150.414 187.865 150.425 187.538 150.447 187.34C150.476 187.142 150.538 186.948 150.634 186.757C150.744 186.53 150.916 186.339 151.151 186.185C151.385 186.031 151.653 185.936 151.954 185.899C152.46 184.572 152.845 183.039 153.109 181.301C153.38 179.556 153.516 177.789 153.516 175.999L153.516 175.845C153.516 175.053 153.692 174.481 154.044 174.129C154.19 173.983 154.37 173.873 154.583 173.799C154.795 173.719 154.971 173.675 155.111 173.667C155.257 173.653 155.459 173.645 155.716 173.645H161.249C161.513 173.645 161.722 173.653 161.876 173.667C162.03 173.675 162.224 173.722 162.459 173.81C162.701 173.891 162.906 174.016 163.075 174.184C163.243 174.353 163.368 174.558 163.449 174.8C163.537 175.035 163.584 175.229 163.592 175.383C163.606 175.537 163.614 175.746 163.614 176.01L163.614 185.877C163.966 185.885 164.285 185.969 164.571 186.13C164.857 186.284 165.062 186.493 165.187 186.757C165.282 186.948 165.341 187.142 165.363 187.34C165.392 187.538 165.407 187.865 165.407 188.319ZM159.742 185.877L159.742 177.077H157.278L157.278 177.495C157.278 179.226 157.157 180.733 156.915 182.016C156.68 183.292 156.332 184.579 155.87 185.877H159.742ZM175.97 189.309H169.865C169.601 189.309 169.392 189.306 169.238 189.298C169.084 189.284 168.886 189.236 168.644 189.155C168.409 189.067 168.207 188.939 168.039 188.77C167.87 188.602 167.742 188.4 167.654 188.165C167.573 187.923 167.525 187.725 167.511 187.571C167.503 187.417 167.5 187.208 167.5 186.944L167.5 176.01C167.5 175.746 167.503 175.537 167.511 175.383C167.525 175.229 167.573 175.035 167.654 174.8C167.742 174.558 167.87 174.353 168.039 174.184C168.207 174.016 168.409 173.891 168.644 173.81C168.886 173.722 169.084 173.675 169.238 173.667C169.392 173.653 169.601 173.645 169.865 173.645H175.97C176.388 173.645 176.692 173.66 176.883 173.689C177.073 173.711 177.26 173.766 177.444 173.854C177.693 173.972 177.895 174.17 178.049 174.448C178.203 174.72 178.28 175.024 178.28 175.361C178.28 175.699 178.203 176.007 178.049 176.285C177.895 176.557 177.693 176.751 177.444 176.868C177.26 176.956 177.073 177.015 176.883 177.044C176.692 177.066 176.388 177.077 175.97 177.077H171.372L171.372 179.695H174.98C175.398 179.695 175.702 179.71 175.893 179.739C176.083 179.761 176.27 179.816 176.454 179.904C176.703 180.022 176.905 180.22 177.059 180.498C177.213 180.77 177.29 181.074 177.29 181.411C177.29 181.749 177.213 182.057 177.059 182.335C176.905 182.607 176.703 182.801 176.454 182.918C176.27 183.006 176.083 183.065 175.893 183.094C175.702 183.116 175.398 183.127 174.98 183.127H171.372L171.372 185.877H175.97C176.388 185.877 176.692 185.892 176.883 185.921C177.073 185.943 177.26 185.998 177.444 186.086C177.693 186.204 177.895 186.402 178.049 186.68C178.203 186.952 178.28 187.256 178.28 187.593C178.28 187.931 178.203 188.239 178.049 188.517C177.895 188.789 177.693 188.983 177.444 189.1C177.26 189.188 177.073 189.247 176.883 189.276C176.692 189.298 176.388 189.309 175.97 189.309ZM180.346 183.017C180.339 182.658 180.335 182.145 180.335 181.477C180.335 180.81 180.339 180.3 180.346 179.948C180.361 179.589 180.394 179.149 180.445 178.628C180.504 178.1 180.585 177.671 180.687 177.341C180.797 177.004 180.959 176.645 181.171 176.263C181.384 175.882 181.644 175.537 181.952 175.229C183.096 174.085 184.537 173.513 186.275 173.513C187.236 173.513 188.013 173.605 188.607 173.788C189.201 173.964 189.74 174.269 190.224 174.701C190.76 175.185 191.141 175.688 191.368 176.208C191.596 176.722 191.709 177.187 191.709 177.605C191.709 178.221 191.53 178.709 191.17 179.068C190.811 179.428 190.367 179.607 189.839 179.607C189.429 179.607 189.084 179.508 188.805 179.31C188.483 179.09 188.142 178.661 187.782 178.023C187.562 177.635 187.328 177.36 187.078 177.198C186.836 177.03 186.539 176.945 186.187 176.945C185.608 176.945 185.146 177.173 184.801 177.627C184.567 177.935 184.409 178.342 184.328 178.848C184.248 179.347 184.207 180.223 184.207 181.477C184.207 182.731 184.248 183.611 184.328 184.117C184.409 184.616 184.567 185.019 184.801 185.327C185.146 185.782 185.608 186.009 186.187 186.009C186.539 186.009 186.836 185.929 187.078 185.767C187.328 185.599 187.562 185.32 187.782 184.931C188.142 184.293 188.483 183.864 188.805 183.644C189.084 183.446 189.429 183.347 189.839 183.347C190.367 183.347 190.811 183.527 191.17 183.886C191.53 184.246 191.709 184.733 191.709 185.349C191.709 185.767 191.596 186.237 191.368 186.757C191.141 187.271 190.76 187.769 190.224 188.253C189.74 188.686 189.201 188.994 188.607 189.177C188.013 189.353 187.236 189.441 186.275 189.441C184.537 189.441 183.096 188.869 181.952 187.725C181.644 187.417 181.384 187.073 181.171 186.691C180.959 186.31 180.797 185.954 180.687 185.624C180.585 185.287 180.504 184.858 180.445 184.337C180.394 183.809 180.361 183.369 180.346 183.017ZM202.61 189.309H196.505C196.241 189.309 196.032 189.306 195.878 189.298C195.724 189.284 195.526 189.236 195.284 189.155C195.049 189.067 194.848 188.939 194.679 188.77C194.51 188.602 194.382 188.4 194.294 188.165C194.213 187.923 194.166 187.725 194.151 187.571C194.144 187.417 194.14 187.208 194.14 186.944L194.14 176.01C194.14 175.746 194.144 175.537 194.151 175.383C194.166 175.229 194.213 175.035 194.294 174.8C194.382 174.558 194.51 174.353 194.679 174.184C194.848 174.016 195.049 173.891 195.284 173.81C195.526 173.722 195.724 173.675 195.878 173.667C196.032 173.653 196.241 173.645 196.505 173.645H202.61C203.028 173.645 203.332 173.66 203.523 173.689C203.714 173.711 203.901 173.766 204.084 173.854C204.333 173.972 204.535 174.17 204.689 174.448C204.843 174.72 204.92 175.024 204.92 175.361C204.92 175.699 204.843 176.007 204.689 176.285C204.535 176.557 204.333 176.751 204.084 176.868C203.901 176.956 203.714 177.015 203.523 177.044C203.332 177.066 203.028 177.077 202.61 177.077H198.012L198.012 179.695H201.62C202.038 179.695 202.342 179.71 202.533 179.739C202.724 179.761 202.911 179.816 203.094 179.904C203.343 180.022 203.545 180.22 203.699 180.498C203.853 180.77 203.93 181.074 203.93 181.411C203.93 181.749 203.853 182.057 203.699 182.335C203.545 182.607 203.343 182.801 203.094 182.918C202.911 183.006 202.724 183.065 202.533 183.094C202.342 183.116 202.038 183.127 201.62 183.127H198.012L198.012 185.877H202.61C203.028 185.877 203.332 185.892 203.523 185.921C203.714 185.943 203.901 185.998 204.084 186.086C204.333 186.204 204.535 186.402 204.689 186.68C204.843 186.952 204.92 187.256 204.92 187.593C204.92 187.931 204.843 188.239 204.689 188.517C204.535 188.789 204.333 188.983 204.084 189.1C203.901 189.188 203.714 189.247 203.523 189.276C203.332 189.298 203.028 189.309 202.61 189.309ZM219.318 186.801C219.318 187.278 219.303 187.619 219.274 187.824C219.252 188.022 219.186 188.231 219.076 188.451C218.937 188.73 218.713 188.957 218.405 189.133C218.104 189.309 217.763 189.397 217.382 189.397C217.001 189.397 216.656 189.309 216.348 189.133C216.047 188.957 215.827 188.73 215.688 188.451C215.578 188.231 215.508 188.022 215.479 187.824C215.457 187.619 215.446 187.278 215.446 186.801L215.446 183.105H211.354L211.354 186.801C211.354 187.278 211.339 187.619 211.31 187.824C211.288 188.022 211.222 188.231 211.112 188.451C210.973 188.73 210.749 188.957 210.441 189.133C210.14 189.309 209.799 189.397 209.418 189.397C209.037 189.397 208.692 189.309 208.384 189.133C208.083 188.957 207.863 188.73 207.724 188.451C207.614 188.231 207.544 188.022 207.515 187.824C207.493 187.619 207.482 187.278 207.482 186.801L207.482 176.153C207.482 175.677 207.493 175.339 207.515 175.141C207.544 174.936 207.614 174.723 207.724 174.503C207.863 174.225 208.083 173.997 208.384 173.821C208.692 173.645 209.037 173.557 209.418 173.557C209.799 173.557 210.14 173.645 210.441 173.821C210.749 173.997 210.973 174.225 211.112 174.503C211.222 174.723 211.288 174.936 211.31 175.141C211.339 175.339 211.354 175.677 211.354 176.153L211.354 179.673H215.446L215.446 176.153C215.446 175.677 215.457 175.339 215.479 175.141C215.508 174.936 215.578 174.723 215.688 174.503C215.827 174.225 216.047 173.997 216.348 173.821C216.656 173.645 217.001 173.557 217.382 173.557C217.763 173.557 218.104 173.645 218.405 173.821C218.713 173.997 218.937 174.225 219.076 174.503C219.186 174.723 219.252 174.936 219.274 175.141C219.303 175.339 219.318 175.677 219.318 176.153L219.318 186.801Z" fill="#4D4D4D"/>
<g clip-path="url(#clip0_244_52)">
<path fill-rule="evenodd" clip-rule="evenodd" d="M140.887 65.7338C147.704 65.4206 150.816 59.2955 159.39 61.9935C164.717 63.6697 168.549 68.6903 170.609 74.2751C173.142 81.1402 172.983 87.5303 172.413 95.2808C171.903 102.21 170.789 109.54 169.489 116.02C168.174 122.579 166.794 128.58 164.59 134.619C163.505 137.593 162.271 140.054 160.691 142.389C159.554 144.07 156.037 147.601 153.022 145.16C147.76 140.899 146.833 110.597 140.937 110.052C137.617 110.836 136.203 117.692 135.404 121.192C134.337 125.863 133.694 130.542 132.736 135.28C131.976 139.035 131.022 146.211 126.704 145.935C122.863 145.69 120.105 140.456 118.624 137.131C113.879 126.481 111.004 108.156 109.873 95.7666C109.83 95.2927 109.787 94.814 109.748 94.3316L112.803 95.1023C112.913 96.4237 113.037 97.6629 113.158 98.7193C114.111 107.01 119.503 143.418 127.251 142.884C131.622 135.205 131.172 106.999 141.103 107.086C150.255 107.165 150.176 136.208 154.95 142.876C162.443 143.311 167.572 109.787 168.667 102.007C170.047 92.1907 171.163 79.6408 165.628 70.947C163.685 67.8947 159.662 63.5053 153.897 64.4427C149.211 65.2043 145.62 69.2799 139.911 68.6287C136.411 68.229 134.038 66.4694 131.176 65.3417L128.859 61.5321C133.499 62.0773 134.934 64.8348 140.887 65.7354V65.7338ZM154.85 67.4766C156.968 68.0158 158.39 68.4551 159.982 69.6829C161.456 70.8199 162.44 71.7821 163.476 73.4362C164.408 74.9247 165.128 76.7989 165.356 78.7683C165.834 82.9035 162.722 82.2225 162.495 80.2931C162.178 77.6092 162.094 76.6816 160.79 74.6997C159.929 73.3918 158.427 72.006 156.966 71.2472C153.963 69.6878 152.186 70.5137 151.218 69.7294C150.419 69.0825 149.91 66.2184 154.85 67.476V67.4766ZM133.385 68.9716C133.659 69.4216 133.688 69.9517 133.268 70.5846C133.251 70.6094 133.227 70.637 133.197 70.6673L133.385 68.9716Z" fill="#4D4D4D"/>
<path fill-rule="evenodd" clip-rule="evenodd" d="M112.42 56.3555C122.973 55.5923 131.577 63.7641 132.264 73.345C133.015 83.8238 124.714 92.4295 115.055 93.018C104.231 93.6768 96.1573 85.7732 95.2718 75.9365C94.3306 65.4777 102.856 57.0473 112.42 56.3555ZM124.48 95.5402C133.271 91.1054 138.696 81.3092 137.044 71.1365C135.959 64.457 131.738 58.4206 126.115 54.7376C123.875 53.2707 120.68 52.0878 117.565 51.5994C98.5505 48.6174 84.0712 67.9663 92.7624 85.1111C93.7913 87.1411 94.3977 87.5917 95.0509 88.8049C95.0509 88.8049 75.0512 107.974 74.826 108.153C74.2812 108.795 73.8592 109.157 73.6754 110.133C73.1182 113.085 76.2557 113.909 78.1587 111.941C78.7138 111.367 79.155 111.046 79.6512 110.55C83.5772 106.632 98.8946 92.7454 98.6809 92.6031C106.645 97.9315 115.282 100.18 124.48 95.5396V95.5402Z" fill="#4D4D4D"/>
</g>
<path d="M131.725 1.26339L131.449 1.10397L131.173 1.26339L66.4489 38.693L66.7246 39.1697L66.4487 38.6931L1.72415 76.1502L1.44928 76.3092L1.44928 76.6268L1.44929 151.486L1.44929 226.373L1.44929 226.69L1.72416 226.849L66.4487 264.306L66.4489 264.306L131.173 301.736L131.449 301.895L131.725 301.736L196.449 264.306L196.45 264.306L261.174 226.849L261.449 226.69L261.449 226.373L261.449 151.486L261.449 76.6268L261.449 76.3092L261.174 76.1502L196.45 38.6931L196.174 39.1697L196.449 38.693L131.725 1.26339Z" stroke="#024FA2" stroke-width="1.10141"/>
<defs>
<clipPath id="clip0_244_52">
<rect width="99.1525" height="94.7009" fill="white" transform="translate(73.6101 51.293)"/>
</clipPath>
</defs>
</svg>
