<svg width="121" height="106" viewBox="0 0 121 106" fill="none" xmlns="http://www.w3.org/2000/svg">
<path fill-rule="evenodd" clip-rule="evenodd" d="M53.8692 0.831299C56.372 0.831299 58.4009 2.86558 58.4009 5.37488C58.4009 7.88418 56.372 9.91846 53.8692 9.91846C51.3665 9.91846 49.3375 7.88418 49.3375 5.37488C49.3375 2.86558 51.3665 0.831299 53.8692 0.831299ZM53.8692 2.89719C55.2341 2.89719 56.3404 4.00645 56.3404 5.37488C56.3404 6.74331 55.2341 7.85257 53.8692 7.85257C52.5044 7.85257 51.398 6.74331 51.398 5.37488C51.398 4.00645 52.5044 2.89719 53.8692 2.89719Z" fill="#4D4D4D"/>
<path fill-rule="evenodd" clip-rule="evenodd" d="M59.6967 11.1482C62.8016 11.1482 65.3188 13.672 65.3188 16.7852C65.3188 19.8982 62.8016 22.422 59.6967 22.422C56.5916 22.422 54.0745 19.8982 54.0745 16.7852C54.0745 13.672 56.5916 11.1482 59.6967 11.1482ZM59.6966 13.2142C61.6636 13.2142 63.2582 14.813 63.2582 16.7852C63.2582 18.7574 61.6636 20.3561 59.6966 20.3561C57.7296 20.3561 56.135 18.7574 56.135 16.7852C56.135 14.813 57.7296 13.2142 59.6966 13.2142Z" fill="#4D4D4D"/>
<path fill-rule="evenodd" clip-rule="evenodd" d="M61.5533 26.4873C64.9687 26.4873 67.7376 29.2635 67.7376 32.688C67.7376 36.1124 64.9687 38.8886 61.5533 38.8886C58.1377 38.8886 55.3688 36.1124 55.3688 32.688C55.3688 29.2635 58.1377 26.4873 61.5533 26.4873ZM61.5532 28.5534C63.8307 28.5534 65.677 30.4045 65.677 32.688C65.677 34.9715 63.8307 36.8227 61.5532 36.8227C59.2757 36.8227 57.4293 34.9715 57.4293 32.688C57.4293 30.4045 59.2757 28.5534 61.5532 28.5534Z" fill="#4D4D4D"/>
<path fill-rule="evenodd" clip-rule="evenodd" d="M60.1474 43.2791C64.0004 43.2791 67.1241 46.4109 67.1241 50.274C67.1241 54.1371 64.0004 57.2689 60.1474 57.2689C56.2944 57.2689 53.1708 54.1371 53.1708 50.274C53.1708 46.4109 56.2944 43.2791 60.1474 43.2791ZM60.1474 45.3449C62.8625 45.3449 65.0635 47.5517 65.0635 50.2739C65.0635 52.9962 62.8625 55.203 60.1474 55.203C57.4323 55.203 55.2313 52.9961 55.2313 50.2739C55.2313 47.5517 57.4323 45.3449 60.1474 45.3449Z" fill="#4D4D4D"/>
<path fill-rule="evenodd" clip-rule="evenodd" d="M55.2324 60.8384C58.6008 60.8384 61.3315 63.5762 61.3315 66.9535C61.3315 70.3308 58.6008 73.0686 55.2324 73.0686C51.864 73.0686 49.1333 70.3308 49.1333 66.9535C49.1333 63.5762 51.864 60.8384 55.2324 60.8384ZM55.2324 62.9043C57.4629 62.9043 59.271 64.7171 59.271 66.9534C59.271 69.1898 57.4629 71.0026 55.2324 71.0026C53.0019 71.0026 51.1938 69.1898 51.1938 66.9534C51.1938 64.7171 53.0019 62.9043 55.2324 62.9043Z" fill="#4D4D4D"/>
<path fill-rule="evenodd" clip-rule="evenodd" d="M57.1833 77.5779C59.9637 77.5779 62.2177 79.8379 62.2177 82.6257C62.2177 85.4134 59.9637 87.6734 57.1833 87.6734C54.4027 87.6734 52.1487 85.4134 52.1487 82.6257C52.1487 79.8379 54.4027 77.5779 57.1833 77.5779ZM57.1832 79.6438C58.8256 79.6438 60.1571 80.9787 60.1571 82.6255C60.1571 84.2723 58.8256 85.6072 57.1832 85.6072C55.5407 85.6072 54.2092 84.2723 54.2092 82.6255C54.2092 80.9787 55.5407 79.6438 57.1832 79.6438Z" fill="#4D4D4D"/>
<path fill-rule="evenodd" clip-rule="evenodd" d="M62.8608 89.5271C65.3989 89.5271 67.4565 91.5902 67.4565 94.1348C67.4565 96.6795 65.3988 98.7426 62.8608 98.7426C60.3228 98.7426 58.2651 96.6795 58.2651 94.1348C58.2651 91.5901 60.3228 89.5271 62.8608 89.5271ZM62.8608 91.593C64.2609 91.593 65.396 92.7311 65.396 94.1348C65.396 95.5386 64.2609 96.6767 62.8608 96.6767C61.4607 96.6767 60.3256 95.5386 60.3256 94.1348C60.3256 92.7311 61.4607 91.593 62.8608 91.593Z" fill="#4D4D4D"/>
<path fill-rule="evenodd" clip-rule="evenodd" d="M69.813 97.9937C71.7971 97.9937 73.4056 99.6063 73.4056 101.596C73.4056 103.585 71.7971 105.198 69.813 105.198C67.8287 105.198 66.2202 103.585 66.2202 101.596C66.2202 99.6063 67.8287 97.9937 69.813 97.9937ZM69.8129 100.06C70.6591 100.06 71.345 100.747 71.345 101.596C71.345 102.444 70.6591 103.132 69.8129 103.132C68.9667 103.132 68.2808 102.444 68.2808 101.596C68.2808 100.747 68.9667 100.06 69.8129 100.06Z" fill="#4D4D4D"/>
<path fill-rule="evenodd" clip-rule="evenodd" d="M0.406738 87.6061C7.72531 84.0967 13.7162 81.0234 17.0964 76.4237C19.7548 72.8057 20.554 68.2417 20.7824 61.7787C21.1226 52.1449 20.9187 49.1383 22.6224 45.1071C24.3261 41.0759 28.0054 31.0315 29.1639 29.5283C30.3224 28.0251 41.4303 19.9626 42.8615 19.211C44.2927 18.4594 45.894 18.3567 46.9502 19.2109C48.0065 20.065 47.9044 21.295 47.5976 22.3199C47.2909 23.3447 46.2688 24.3354 46.2688 24.3354C46.2688 24.3354 49.5057 22.5247 51.005 23.8229C52.5043 25.1212 52.845 26.7268 51.7546 27.9567C50.6642 29.1865 46.1324 32.1587 45.0761 32.8078C44.0199 33.457 43.3373 33.2179 43.2352 32.3297C43.133 31.4415 44.3596 30.895 45.6203 30.1775C46.8811 29.46 49.8454 27.4102 50.2884 27.0003C50.7314 26.5903 50.5612 24.8823 49.1981 25.1555C47.8351 25.4287 44.053 26.5903 42.5537 27.9227C41.0545 29.255 36.4541 33.9012 36.0793 34.9602C35.7044 36.0193 35.1252 47.6006 35.1934 48.6596C35.2615 49.7186 35.2274 49.7186 35.2274 49.7186C35.2274 49.7186 37.1355 45.8582 38.3622 41.2462C39.5888 36.6341 40.6111 35.2336 42.417 35.0285C44.2229 34.8235 46.1649 36.1218 45.9605 39.5723C45.7562 43.0227 43.6775 45.9949 43.8137 53.3741C43.95 60.7533 44.2907 70.7289 44.0181 73.1886C43.7455 75.6483 41.6328 83.3011 34.4774 88.4256C27.322 93.5501 23.8462 96.6244 21.0523 99.1184C18.2584 101.612 15.8391 104.994 15.0213 105.336C14.2035 105.678 13.0791 105.165 13.0791 104.311C13.0791 103.457 17.1679 99.2207 21.0864 95.9411C25.0049 92.6615 32.4672 87.7075 35.6021 84.0862C38.7369 80.4649 40.8493 78.1079 41.5308 72.4026C42.2123 66.6973 41.8718 58.908 41.7696 54.9451C41.6673 50.9822 41.8036 48.9325 42.3827 45.5845C42.9618 42.2364 43.8819 40.1526 43.439 38.5127C42.9961 36.8729 41.8716 37.4195 41.2242 38.7518C40.5768 40.0842 38.9414 47.1901 36.7606 51.0847C34.5799 54.9793 32.6717 57.3025 32.6717 57.3025C32.6717 57.3025 33.4553 48.625 33.4894 43.1248C33.5235 37.6245 33.5234 35.0282 34.1367 33.7983C34.7499 32.5685 41.1894 26.7949 42.314 25.7358C43.4385 24.6768 45.108 23.1395 45.3806 22.4562C45.6532 21.7729 45.5169 20.7822 44.631 20.7822C43.7451 20.7822 37.0325 26.2142 34.9199 27.7515C32.8074 29.2888 31.6469 30.075 31.0336 31.0317C30.4202 31.9883 26.4336 42.8522 26.4336 42.8522C26.4336 42.8522 24.2187 47.3274 24.0143 49.6506C23.8099 51.9737 22.8779 67.142 22.7416 68.611C22.6054 70.08 21.3898 77.5278 15.1543 81.969C8.91886 86.4102 3.09225 89.5531 2.00197 89.8948C0.91169 90.2364 0.406738 87.6061 0.406738 87.6061L0.406738 87.6061ZM13.9501 98.5265C14.9982 97.5279 18.4282 93.8823 18.664 93.8233C18.9365 93.755 19.9587 93.6526 19.9247 94.7457C19.8907 95.8389 15.2226 99.8188 14.9841 100.143C14.7456 100.468 14.0297 100.366 13.7232 100.033C13.1896 99.4526 13.5807 98.8783 13.9501 98.5265Z" fill="#4D4D4D"/>
<path fill-rule="evenodd" clip-rule="evenodd" d="M120.491 87.6061C120.491 87.6061 106.922 81.5935 103.583 76.469C100.243 71.3445 100.456 71.4127 100.115 61.7787C99.7747 52.1447 99.9791 49.1383 98.2754 45.1071C96.5718 41.0759 92.8925 31.0315 91.7339 29.5283C90.5754 28.0251 79.4675 19.9626 78.0363 19.211C76.6051 18.4594 75.0039 18.3567 73.9476 19.2109C72.8913 20.065 72.9935 21.295 73.3002 22.3199C73.607 23.3447 74.6291 24.3354 74.6291 24.3354C74.6291 24.3354 71.3921 22.5247 69.8928 23.8229C68.3935 25.1212 68.0528 26.7268 69.1432 27.9567C70.2336 29.1865 74.7654 32.1587 75.8217 32.8078C76.878 33.457 77.5605 33.2179 77.6626 32.3297C77.7648 31.4415 76.5383 30.895 75.2775 30.1775C74.0168 29.46 71.0524 27.4102 70.6094 27.0003C70.1664 26.5903 70.3366 24.8823 71.6997 25.1555C73.0627 25.4287 76.8448 26.5903 78.3441 27.9227C79.8434 29.2551 84.4437 33.9012 84.8186 34.9602C85.1935 36.0193 85.7726 47.6006 85.7045 48.6596C85.6363 49.7186 85.6704 49.7186 85.6704 49.7186C85.6704 49.7186 83.7623 45.8582 82.5356 41.2462C81.309 36.6341 80.2868 35.2336 78.4808 35.0285C76.6749 34.8235 74.7329 36.1218 74.9373 39.5723C75.1417 43.0227 77.2203 45.9949 77.0841 53.3741C76.9478 60.7533 76.6071 70.7289 76.8797 73.1886C77.1523 75.6483 79.265 83.3011 86.4204 88.4256C93.5758 93.5501 97.0516 96.6244 99.8455 99.1184C102.639 101.612 105.059 104.994 105.877 105.336C106.694 105.678 107.819 105.165 107.819 104.311C107.819 103.457 103.73 99.2207 99.8114 95.9411C95.893 92.6615 88.4306 87.7075 85.2957 84.0862C82.161 80.4649 80.0485 78.1079 79.367 72.4026C78.6855 66.6973 79.026 58.908 79.1282 54.9451C79.2305 50.9822 79.0942 48.9325 78.5151 45.5845C77.936 42.2364 77.016 40.1526 77.4588 38.5127C77.9017 36.8729 79.0263 37.4195 79.6736 38.7518C80.321 40.0842 81.9564 47.19 84.1372 51.0847C86.318 54.9793 88.2262 57.3025 88.2262 57.3025C88.2262 57.3025 87.4425 48.625 87.4084 43.1248C87.3743 37.6245 87.3744 35.0282 86.7611 33.7983C86.1479 32.5685 79.7084 26.7949 78.5839 25.7358C77.4594 24.6768 75.7898 23.1395 75.5172 22.4562C75.2446 21.7729 75.3809 20.7822 76.2668 20.7822C77.1527 20.7822 83.8654 26.2142 85.9779 27.7515C88.0904 29.2888 89.2509 30.075 89.8643 31.0317C90.4776 31.9883 94.4642 42.8522 94.4642 42.8522C94.4642 42.8522 96.6792 47.3274 96.8835 49.6506C97.0879 51.9737 97.6336 67.142 97.7698 68.611C97.9061 70.08 99.508 77.5278 105.743 81.969C111.979 86.4102 117.806 89.5531 118.896 89.8948C119.986 90.2364 120.491 87.6061 120.491 87.6061ZM106.948 98.5265C105.9 97.5279 102.47 93.8824 102.234 93.8233C101.961 93.755 100.939 93.6526 100.973 94.7458C101.007 95.8389 105.675 99.8189 105.914 100.143C106.152 100.468 106.868 100.366 107.175 100.033C107.708 99.4527 107.317 98.8784 106.948 98.5265Z" fill="#4D4D4D"/>
</svg>
