<svg width="235" height="275" viewBox="0 0 235 275" fill="none" xmlns="http://www.w3.org/2000/svg">
<path d="M175.24 238.908L175.24 238.908L117.5 272.683L59.7604 238.908L59.7598 238.908L1.99999 205.097L1.99999 137.513L2 69.903L59.7598 36.0919L59.7604 36.0916L117.5 2.31703L175.24 36.0916L175.24 36.0919L233 69.903L233 137.513L233 205.097L175.24 238.908Z" fill="#024FA2" stroke="#9D9E9E" stroke-width="4"/>
<path d="M69.8016 146.871L69.8016 130.071L85.1136 130.071L85.1136 146.871L81.2496 146.871L81.2496 132.351L82.1376 133.239L72.7776 133.239L73.6656 132.351L73.6656 146.871L69.8016 146.871ZM89.2781 146.871L89.2781 130.071L96.5501 130.071C98.0541 130.071 99.3501 130.319 100.438 130.815C101.526 131.295 102.366 131.991 102.958 132.903C103.55 133.815 103.846 134.903 103.846 136.167C103.846 137.415 103.55 138.495 102.958 139.407C102.366 140.319 101.526 141.023 100.438 141.519C99.3501 141.999 98.0541 142.239 96.5501 142.239L91.4381 142.239L93.1661 140.487L93.1661 146.871L89.2781 146.871ZM93.1661 140.919L91.4381 139.071L96.3341 139.071C97.5341 139.071 98.4301 138.815 99.0221 138.303C99.6141 137.791 99.9101 137.079 99.9101 136.167C99.9101 135.239 99.6141 134.519 99.0221 134.007C98.4301 133.495 97.5341 133.239 96.3341 133.239L91.4381 133.239L93.1661 131.391L93.1661 140.919ZM114.685 147.159C113.357 147.159 112.125 146.943 110.989 146.511C109.869 146.079 108.893 145.471 108.061 144.687C107.245 143.903 106.605 142.983 106.141 141.927C105.693 140.871 105.469 139.719 105.469 138.471C105.469 137.223 105.693 136.071 106.141 135.015C106.605 133.959 107.253 133.039 108.085 132.255C108.917 131.471 109.893 130.863 111.013 130.431C112.133 129.999 113.349 129.783 114.661 129.783C115.989 129.783 117.205 129.999 118.309 130.431C119.429 130.863 120.397 131.471 121.213 132.255C122.045 133.039 122.693 133.959 123.157 135.015C123.621 136.055 123.853 137.207 123.853 138.471C123.853 139.719 123.621 140.879 123.157 141.951C122.693 143.007 122.045 143.927 121.213 144.711C120.397 145.479 119.429 146.079 118.309 146.511C117.205 146.943 115.997 147.159 114.685 147.159ZM114.661 143.847C115.413 143.847 116.101 143.719 116.725 143.463C117.365 143.207 117.925 142.839 118.405 142.359C118.885 141.879 119.253 141.311 119.509 140.655C119.781 139.999 119.917 139.271 119.917 138.471C119.917 137.671 119.781 136.943 119.509 136.287C119.253 135.631 118.885 135.063 118.405 134.583C117.941 134.103 117.389 133.735 116.749 133.479C116.109 133.223 115.413 133.095 114.661 133.095C113.909 133.095 113.213 133.223 112.573 133.479C111.949 133.735 111.397 134.103 110.917 134.583C110.437 135.063 110.061 135.631 109.789 136.287C109.533 136.943 109.405 137.671 109.405 138.471C109.405 139.255 109.533 139.983 109.789 140.655C110.061 141.311 110.429 141.879 110.893 142.359C111.373 142.839 111.933 143.207 112.573 143.463C113.213 143.719 113.909 143.847 114.661 143.847ZM135.728 145.815C133.552 145.815 131.704 145.527 130.184 144.951C128.68 144.375 127.536 143.543 126.752 142.455C125.968 141.351 125.576 140.007 125.576 138.423C125.576 136.839 125.968 135.503 126.752 134.415C127.536 133.311 128.68 132.471 130.184 131.895C131.704 131.319 133.552 131.031 135.728 131.031C135.76 131.031 135.848 131.031 135.992 131.031C136.152 131.031 136.304 131.031 136.448 131.031C136.608 131.031 136.696 131.031 136.712 131.031C138.872 131.031 140.696 131.319 142.184 131.895C143.688 132.471 144.824 133.311 145.592 134.415C146.36 135.519 146.744 136.855 146.744 138.423C146.744 139.975 146.36 141.311 145.592 142.431C144.84 143.535 143.728 144.375 142.256 144.951C140.8 145.527 139.016 145.815 136.904 145.815C136.856 145.815 136.744 145.815 136.568 145.815C136.392 145.815 136.216 145.815 136.04 145.815C135.88 145.815 135.776 145.815 135.728 145.815ZM136.088 142.815C136.136 142.815 136.2 142.815 136.28 142.815C136.36 142.815 136.416 142.815 136.448 142.815C137.92 142.815 139.136 142.655 140.096 142.335C141.072 141.999 141.8 141.511 142.28 140.871C142.76 140.215 143 139.391 143 138.399C143 137.407 142.752 136.591 142.256 135.951C141.76 135.311 141.032 134.839 140.072 134.535C139.128 134.215 137.936 134.055 136.496 134.055C136.464 134.055 136.4 134.055 136.304 134.055C136.224 134.055 136.152 134.055 136.088 134.055C134.568 134.055 133.312 134.207 132.32 134.511C131.328 134.815 130.584 135.295 130.088 135.951C129.592 136.591 129.344 137.415 129.344 138.423C129.344 139.431 129.608 140.263 130.136 140.919C130.664 141.559 131.424 142.039 132.416 142.359C133.424 142.663 134.648 142.815 136.088 142.815ZM134.384 147.615L134.384 129.351L137.96 129.351L137.96 147.615L134.384 147.615ZM149.653 146.871L149.653 130.071L153.517 130.071L153.517 141.015L161.533 130.071L165.181 130.071L165.181 146.871L161.341 146.871L161.341 135.951L153.325 146.871L149.653 146.871Z" fill="white"/>
</svg>
