<svg width="235" height="275" viewBox="0 0 235 275" fill="none" xmlns="http://www.w3.org/2000/svg">
<path d="M175.24 238.908L175.24 238.908L117.5 272.683L59.7604 238.908L59.7598 238.908L1.99999 205.097L1.99999 137.513L2 69.903L59.7598 36.0919L59.7604 36.0916L117.5 2.31703L175.24 36.0916L175.24 36.0919L233 69.903L233 137.513L233 205.097L175.24 238.908Z" fill="#E32E16" stroke="#9D9E9E" stroke-width="4"/>
<path d="M70.3034 147.622C68.8994 147.622 67.5908 147.396 66.3774 146.946C65.1814 146.478 64.1414 145.819 63.2574 144.97C62.3734 144.12 61.6801 143.124 61.1774 141.98C60.6921 140.836 60.4494 139.579 60.4494 138.21C60.4494 136.84 60.6921 135.584 61.1774 134.44C61.6801 133.296 62.3734 132.299 63.2574 131.45C64.1588 130.6 65.2074 129.95 66.4034 129.5C67.5994 129.032 68.9081 128.798 70.3294 128.798C71.9068 128.798 73.3281 129.075 74.5934 129.63C75.8761 130.167 76.9508 130.964 77.8174 132.022L75.1134 134.518C74.4894 133.807 73.7961 133.278 73.0334 132.932C72.2708 132.568 71.4388 132.386 70.5374 132.386C69.6881 132.386 68.9081 132.524 68.1974 132.802C67.4868 133.079 66.8714 133.478 66.3514 133.998C65.8314 134.518 65.4241 135.133 65.1294 135.844C64.8521 136.554 64.7134 137.343 64.7134 138.21C64.7134 139.076 64.8521 139.865 65.1294 140.576C65.4241 141.286 65.8314 141.902 66.3514 142.422C66.8714 142.942 67.4868 143.34 68.1974 143.618C68.9081 143.895 69.6881 144.034 70.5374 144.034C71.4388 144.034 72.2708 143.86 73.0334 143.514C73.7961 143.15 74.4894 142.604 75.1134 141.876L77.8174 144.372C76.9508 145.429 75.8761 146.235 74.5934 146.79C73.3281 147.344 71.8981 147.622 70.3034 147.622ZM84.4367 136.442L93.1987 136.442L93.1987 139.718L84.4367 139.718L84.4367 136.442ZM84.7487 143.93L94.6547 143.93L94.6547 147.31L80.5627 147.31L80.5627 129.11L94.3167 129.11L94.3167 132.49L84.7487 132.49L84.7487 143.93ZM98.0568 147.31L98.0568 129.11L105.935 129.11C107.564 129.11 108.968 129.378 110.147 129.916C111.325 130.436 112.235 131.19 112.877 132.178C113.518 133.166 113.839 134.344 113.839 135.714C113.839 137.066 113.518 138.236 112.877 139.224C112.235 140.212 111.325 140.974 110.147 141.512C108.968 142.032 107.564 142.292 105.935 142.292L100.397 142.292L102.269 140.394L102.269 147.31L98.0568 147.31ZM102.269 140.862L100.397 138.86L105.701 138.86C107.001 138.86 107.971 138.582 108.613 138.028C109.254 137.473 109.575 136.702 109.575 135.714C109.575 134.708 109.254 133.928 108.613 133.374C107.971 132.819 107.001 132.542 105.701 132.542L100.397 132.542L102.269 130.54L102.269 140.862ZM116.617 147.31L116.617 129.11L125.093 129.11C127.208 129.11 128.855 129.517 130.033 130.332C131.212 131.146 131.801 132.308 131.801 133.816C131.801 135.306 131.247 136.468 130.137 137.3C129.028 138.114 127.555 138.522 125.717 138.522L126.211 137.43C128.257 137.43 129.843 137.837 130.969 138.652C132.096 139.466 132.659 140.645 132.659 142.188C132.659 143.782 132.053 145.039 130.839 145.958C129.643 146.859 127.893 147.31 125.587 147.31L116.617 147.31ZM120.803 144.19L125.431 144.19C126.402 144.19 127.139 143.999 127.641 143.618C128.144 143.236 128.395 142.647 128.395 141.85C128.395 141.087 128.144 140.524 127.641 140.16C127.139 139.778 126.402 139.588 125.431 139.588L120.803 139.588L120.803 144.19ZM120.803 136.65L124.729 136.65C125.648 136.65 126.341 136.468 126.809 136.104C127.277 135.722 127.511 135.168 127.511 134.44C127.511 133.712 127.277 133.166 126.809 132.802C126.341 132.42 125.648 132.23 124.729 132.23L120.803 132.23L120.803 136.65ZM135.99 147.31L135.99 129.11L140.176 129.11L140.176 140.966L148.86 129.11L152.812 129.11L152.812 147.31L148.652 147.31L148.652 135.48L139.968 147.31L135.99 147.31ZM165.95 147.622C164.546 147.622 163.237 147.396 162.024 146.946C160.828 146.478 159.788 145.819 158.904 144.97C158.02 144.12 157.327 143.124 156.824 141.98C156.339 140.836 156.096 139.579 156.096 138.21C156.096 136.84 156.339 135.584 156.824 134.44C157.327 133.296 158.02 132.299 158.904 131.45C159.805 130.6 160.854 129.95 162.05 129.5C163.246 129.032 164.555 128.798 165.976 128.798C167.553 128.798 168.975 129.075 170.24 129.63C171.523 130.167 172.597 130.964 173.464 132.022L170.76 134.518C170.136 133.807 169.443 133.278 168.68 132.932C167.917 132.568 167.085 132.386 166.184 132.386C165.335 132.386 164.555 132.524 163.844 132.802C163.133 133.079 162.518 133.478 161.998 133.998C161.478 134.518 161.071 135.133 160.776 135.844C160.499 136.554 160.36 137.343 160.36 138.21C160.36 139.076 160.499 139.865 160.776 140.576C161.071 141.286 161.478 141.902 161.998 142.422C162.518 142.942 163.133 143.34 163.844 143.618C164.555 143.895 165.335 144.034 166.184 144.034C167.085 144.034 167.917 143.86 168.68 143.514C169.443 143.15 170.136 142.604 170.76 141.876L173.464 144.372C172.597 145.429 171.523 146.235 170.24 146.79C168.975 147.344 167.545 147.622 165.95 147.622Z" fill="white"/>
</svg>
