<svg width="160" height="185" viewBox="0 0 160 185" fill="none" xmlns="http://www.w3.org/2000/svg">
<path d="M119.003 159.374L119.002 159.374L80 181.809L40.9978 159.374L40.9972 159.374L2.00002 136.926L2.00003 92.0664L2.00003 47.1896L40.9972 24.7418L40.9978 24.7415L80 2.30725L119.002 24.7415L119.003 24.7418L158 47.1896L158 92.0664L158 136.926L119.003 159.374Z" fill="#E32E16" stroke="#9D9E9E" stroke-width="4"/>
<path d="M36.6298 100.811C35.3338 100.811 34.1258 100.603 33.0058 100.187C31.9018 99.7551 30.9418 99.1471 30.1258 98.3631C29.3098 97.5791 28.6698 96.6591 28.2058 95.6031C27.7578 94.5471 27.5338 93.3871 27.5338 92.1231C27.5338 90.8591 27.7578 89.6991 28.2058 88.6431C28.6698 87.5871 29.3098 86.6671 30.1258 85.8831C30.9578 85.0991 31.9258 84.4991 33.0298 84.0831C34.1338 83.6511 35.3418 83.4351 36.6538 83.4351C38.1098 83.4351 39.4218 83.6911 40.5898 84.2031C41.7738 84.6991 42.7658 85.4351 43.5658 86.4111L41.0698 88.7151C40.4938 88.0591 39.8538 87.5711 39.1498 87.2511C38.4458 86.9151 37.6778 86.7471 36.8458 86.7471C36.0618 86.7471 35.3418 86.8751 34.6858 87.1311C34.0298 87.3871 33.4618 87.7551 32.9818 88.2351C32.5018 88.7151 32.1258 89.2831 31.8538 89.9391C31.5978 90.5951 31.4698 91.3231 31.4698 92.1231C31.4698 92.9231 31.5978 93.6511 31.8538 94.3071C32.1258 94.9631 32.5018 95.5311 32.9818 96.0111C33.4618 96.4911 34.0298 96.8591 34.6858 97.1151C35.3418 97.3711 36.0618 97.4991 36.8458 97.4991C37.6778 97.4991 38.4458 97.3391 39.1498 97.0191C39.8538 96.6831 40.4938 96.1791 41.0698 95.5071L43.5658 97.8111C42.7658 98.7871 41.7738 99.5311 40.5898 100.043C39.4218 100.555 38.1018 100.811 36.6298 100.811ZM49.6758 90.4911H57.7638V93.5151H49.6758V90.4911ZM49.9638 97.4031H59.1078V100.523H46.0998V83.7231H58.7958V86.8431H49.9638V97.4031ZM62.2483 100.523V83.7231H69.5203C71.0243 83.7231 72.3203 83.9711 73.4083 84.4671C74.4963 84.9471 75.3363 85.6431 75.9283 86.5551C76.5203 87.4671 76.8163 88.5551 76.8163 89.8191C76.8163 91.0671 76.5203 92.1471 75.9283 93.0591C75.3363 93.9711 74.4963 94.6751 73.4083 95.1711C72.3203 95.6511 71.0243 95.8911 69.5203 95.8911H64.4083L66.1363 94.1391V100.523H62.2483ZM66.1363 94.5711L64.4083 92.7231H69.3043C70.5043 92.7231 71.4003 92.4671 71.9923 91.9551C72.5843 91.4431 72.8803 90.7311 72.8803 89.8191C72.8803 88.8911 72.5843 88.1711 71.9923 87.6591C71.4003 87.1471 70.5043 86.8911 69.3043 86.8911H64.4083L66.1363 85.0431V94.5711ZM79.3811 100.523V83.7231H87.2051C89.1571 83.7231 90.6771 84.0991 91.7651 84.8511C92.8531 85.6031 93.3971 86.6751 93.3971 88.0671C93.3971 89.4431 92.8851 90.5151 91.8611 91.2831C90.8371 92.0351 89.4771 92.4111 87.7811 92.4111L88.2371 91.4031C90.1251 91.4031 91.5891 91.7791 92.6291 92.5311C93.6691 93.2831 94.1891 94.3711 94.1891 95.7951C94.1891 97.2671 93.6291 98.4271 92.5091 99.2751C91.4051 100.107 89.7891 100.523 87.6611 100.523H79.3811ZM83.2451 97.6431H87.5171C88.4131 97.6431 89.0931 97.4671 89.5571 97.1151C90.0211 96.7631 90.2531 96.2191 90.2531 95.4831C90.2531 94.7791 90.0211 94.2591 89.5571 93.9231C89.0931 93.5711 88.4131 93.3951 87.5171 93.3951H83.2451V97.6431ZM83.2451 90.6831H86.8691C87.7171 90.6831 88.3571 90.5151 88.7891 90.1791C89.2211 89.8271 89.4371 89.3151 89.4371 88.6431C89.4371 87.9711 89.2211 87.4671 88.7891 87.1311C88.3571 86.7791 87.7171 86.6031 86.8691 86.6031H83.2451V90.6831ZM97.2639 100.523V83.7231H101.128V94.6671L109.144 83.7231H112.792V100.523H108.952V89.6031L100.936 100.523H97.2639ZM124.919 100.811C123.623 100.811 122.415 100.603 121.295 100.187C120.191 99.7551 119.231 99.1471 118.415 98.3631C117.599 97.5791 116.959 96.6591 116.495 95.6031C116.047 94.5471 115.823 93.3871 115.823 92.1231C115.823 90.8591 116.047 89.6991 116.495 88.6431C116.959 87.5871 117.599 86.6671 118.415 85.8831C119.247 85.0991 120.215 84.4991 121.319 84.0831C122.423 83.6511 123.631 83.4351 124.943 83.4351C126.399 83.4351 127.711 83.6911 128.879 84.2031C130.063 84.6991 131.055 85.4351 131.855 86.4111L129.359 88.7151C128.783 88.0591 128.143 87.5711 127.439 87.2511C126.735 86.9151 125.967 86.7471 125.135 86.7471C124.351 86.7471 123.631 86.8751 122.975 87.1311C122.319 87.3871 121.751 87.7551 121.271 88.2351C120.791 88.7151 120.415 89.2831 120.143 89.9391C119.887 90.5951 119.759 91.3231 119.759 92.1231C119.759 92.9231 119.887 93.6511 120.143 94.3071C120.415 94.9631 120.791 95.5311 121.271 96.0111C121.751 96.4911 122.319 96.8591 122.975 97.1151C123.631 97.3711 124.351 97.4991 125.135 97.4991C125.967 97.4991 126.735 97.3391 127.439 97.0191C128.143 96.6831 128.783 96.1791 129.359 95.5071L131.855 97.8111C131.055 98.7871 130.063 99.5311 128.879 100.043C127.711 100.555 126.391 100.811 124.919 100.811Z" fill="white"/>
</svg>
