<svg width="235" height="275" viewBox="0 0 235 275" fill="none" xmlns="http://www.w3.org/2000/svg">
<path d="M175.565 239.257L175.565 239.257L117.745 273.15L59.9247 239.257L59.9243 239.257L2.08568 205.329L2.08569 137.513L2.08569 69.6706L59.9243 35.7428L59.9247 35.7425L117.745 1.85044L175.565 35.7425L175.565 35.7428L233.404 69.6706L233.404 137.513L233.404 205.329L175.565 239.257Z" fill="#FFDC0A" stroke="#9D9E9E" stroke-width="3.1928"/>
<path d="M175.565 239.257L175.565 239.257L117.745 273.15L59.9247 239.257L59.9243 239.257L2.08568 205.329L2.08569 137.513L2.08569 69.6706L59.9243 35.7428L59.9247 35.7425L117.745 1.85044L175.565 35.7425L175.565 35.7428L233.404 69.6706L233.404 137.513L233.404 205.329L175.565 239.257Z" fill="#FFDC0A" stroke="#9D9E9E" stroke-width="3.1928"/>
<path d="M97.1155 203.704C94.1866 203.704 91.5643 202.989 89.2484 201.558C86.9326 200.094 85.1106 197.982 83.7824 195.224C82.4541 192.465 81.79 189.128 81.79 185.211C81.79 181.295 82.4541 177.957 83.7824 175.199C85.1106 172.44 86.9326 170.345 89.2484 168.915C91.5643 167.451 94.1866 166.718 97.1155 166.718C100.078 166.718 102.701 167.451 104.983 168.915C107.298 170.345 109.12 172.44 110.449 175.199C111.777 177.957 112.441 181.295 112.441 185.211C112.441 189.128 111.777 192.465 110.449 195.224C109.12 197.982 107.298 200.094 104.983 201.558C102.701 202.989 100.078 203.704 97.1155 203.704ZM97.1155 196.705C98.5118 196.705 99.7208 196.314 100.743 195.53C101.798 194.747 102.616 193.504 103.195 191.801C103.808 190.098 104.114 187.902 104.114 185.211C104.114 182.521 103.808 180.324 103.195 178.621C102.616 176.918 101.798 175.675 100.743 174.892C99.7208 174.109 98.5118 173.717 97.1155 173.717C95.7532 173.717 94.5442 174.109 93.4885 174.892C92.4668 175.675 91.6494 176.918 91.0364 178.621C90.4574 180.324 90.168 182.521 90.168 185.211C90.168 187.902 90.4574 190.098 91.0364 191.801C91.6494 193.504 92.4668 194.747 93.4885 195.53C94.5442 196.314 95.7532 196.705 97.1155 196.705ZM121.621 203.091L146.04 167.331L152.119 167.331L127.701 203.091L121.621 203.091ZM124.738 186.642C123.001 186.642 121.468 186.25 120.14 185.467C118.812 184.649 117.756 183.508 116.973 182.044C116.223 180.545 115.849 178.791 115.849 176.782C115.849 174.773 116.223 173.036 116.973 171.571C117.756 170.107 118.812 168.966 120.14 168.149C121.468 167.331 123.001 166.923 124.738 166.923C126.474 166.923 128.007 167.331 129.335 168.149C130.663 168.966 131.702 170.107 132.451 171.571C133.201 173.036 133.575 174.773 133.575 176.782C133.575 178.791 133.201 180.545 132.451 182.044C131.702 183.508 130.663 184.649 129.335 185.467C128.007 186.25 126.474 186.642 124.738 186.642ZM124.738 182.453C125.861 182.453 126.764 181.993 127.445 181.073C128.126 180.12 128.467 178.689 128.467 176.782C128.467 174.875 128.126 173.462 127.445 172.542C126.764 171.589 125.861 171.112 124.738 171.112C123.648 171.112 122.745 171.589 122.03 172.542C121.349 173.462 121.008 174.875 121.008 176.782C121.008 178.655 121.349 180.069 122.03 181.022C122.745 181.976 123.648 182.453 124.738 182.453ZM149.003 203.499C147.3 203.499 145.768 203.108 144.405 202.325C143.077 201.507 142.038 200.366 141.289 198.902C140.54 197.403 140.165 195.649 140.165 193.64C140.165 191.631 140.54 189.894 141.289 188.429C142.038 186.965 143.077 185.824 144.405 185.007C145.768 184.189 147.3 183.781 149.003 183.781C150.774 183.781 152.323 184.189 153.652 185.007C154.98 185.824 156.019 186.965 156.768 188.429C157.517 189.894 157.892 191.631 157.892 193.64C157.892 195.649 157.517 197.403 156.768 198.902C156.019 200.366 154.98 201.507 153.652 202.325C152.323 203.108 150.774 203.499 149.003 203.499ZM149.003 199.311C150.127 199.311 151.029 198.851 151.71 197.931C152.392 196.978 152.732 195.547 152.732 193.64C152.732 191.767 152.392 190.354 151.71 189.4C151.029 188.447 150.127 187.97 149.003 187.97C147.913 187.97 147.011 188.447 146.295 189.4C145.614 190.32 145.274 191.733 145.274 193.64C145.274 195.547 145.614 196.978 146.295 197.931C147.011 198.851 147.913 199.311 149.003 199.311Z" fill="#0C0E73"/>
<path d="M97.5915 203.691C94.7249 203.691 92.1582 202.991 89.8915 201.591C87.6249 200.157 85.8415 198.091 84.5415 195.391C83.2415 192.691 82.5915 189.424 82.5915 185.591C82.5915 181.757 83.2415 178.491 84.5415 175.791C85.8415 173.091 87.6249 171.041 89.8915 169.641C92.1582 168.207 94.7249 167.491 97.5915 167.491C100.492 167.491 103.058 168.207 105.292 169.641C107.558 171.041 109.342 173.091 110.642 175.791C111.942 178.491 112.592 181.757 112.592 185.591C112.592 189.424 111.942 192.691 110.642 195.391C109.342 198.091 107.558 200.157 105.292 201.591C103.058 202.991 100.492 203.691 97.5915 203.691ZM97.5915 196.841C98.9582 196.841 100.142 196.457 101.142 195.691C102.175 194.924 102.975 193.707 103.542 192.041C104.142 190.374 104.442 188.224 104.442 185.591C104.442 182.957 104.142 180.807 103.542 179.141C102.975 177.474 102.175 176.257 101.142 175.491C100.142 174.724 98.9582 174.341 97.5915 174.341C96.2582 174.341 95.0749 174.724 94.0415 175.491C93.0415 176.257 92.2415 177.474 91.6415 179.141C91.0749 180.807 90.7915 182.957 90.7915 185.591C90.7915 188.224 91.0749 190.374 91.6415 192.041C92.2415 193.707 93.0415 194.924 94.0415 195.691C95.0749 196.457 96.2582 196.841 97.5915 196.841ZM121.577 203.091L145.477 168.091L151.427 168.091L127.527 203.091L121.577 203.091ZM124.627 186.991C122.927 186.991 121.427 186.607 120.127 185.841C118.827 185.041 117.794 183.924 117.027 182.491C116.294 181.024 115.927 179.307 115.927 177.341C115.927 175.374 116.294 173.674 117.027 172.241C117.794 170.807 118.827 169.691 120.127 168.891C121.427 168.091 122.927 167.691 124.627 167.691C126.327 167.691 127.827 168.091 129.127 168.891C130.427 169.691 131.444 170.807 132.177 172.241C132.91 173.674 133.277 175.374 133.277 177.341C133.277 179.307 132.91 181.024 132.177 182.491C131.444 183.924 130.427 185.041 129.127 185.841C127.827 186.607 126.327 186.991 124.627 186.991ZM124.627 182.891C125.727 182.891 126.61 182.441 127.277 181.541C127.944 180.607 128.277 179.207 128.277 177.341C128.277 175.474 127.944 174.091 127.277 173.191C126.61 172.257 125.727 171.791 124.627 171.791C123.56 171.791 122.677 172.257 121.977 173.191C121.31 174.091 120.977 175.474 120.977 177.341C120.977 179.174 121.31 180.557 121.977 181.491C122.677 182.424 123.56 182.891 124.627 182.891ZM148.377 203.491C146.71 203.491 145.21 203.107 143.877 202.341C142.577 201.541 141.56 200.424 140.827 198.991C140.094 197.524 139.727 195.807 139.727 193.841C139.727 191.874 140.094 190.174 140.827 188.741C141.56 187.307 142.577 186.191 143.877 185.391C145.21 184.591 146.71 184.191 148.377 184.191C150.11 184.191 151.627 184.591 152.927 185.391C154.227 186.191 155.244 187.307 155.977 188.741C156.71 190.174 157.077 191.874 157.077 193.841C157.077 195.807 156.71 197.524 155.977 198.991C155.244 200.424 154.227 201.541 152.927 202.341C151.627 203.107 150.11 203.491 148.377 203.491ZM148.377 199.391C149.477 199.391 150.36 198.941 151.027 198.041C151.694 197.107 152.027 195.707 152.027 193.841C152.027 192.007 151.694 190.624 151.027 189.691C150.36 188.757 149.477 188.291 148.377 188.291C147.31 188.291 146.427 188.757 145.727 189.691C145.06 190.591 144.727 191.974 144.727 193.841C144.727 195.707 145.06 197.107 145.727 198.041C146.427 198.941 147.31 199.391 148.377 199.391Z" fill="#0C0E73"/>
<path d="M56.8458 106.857C56.6058 106.857 56.3524 106.837 56.0858 106.797C55.8324 106.757 55.5524 106.703 55.2458 106.637L55.4458 103.897C55.6324 103.95 55.8258 103.977 56.0258 103.977C56.5724 103.977 56.9991 103.757 57.3058 103.317C57.6124 102.863 57.8324 102.217 57.9658 101.377C58.0991 100.537 58.1858 99.5167 58.2258 98.3167L58.4258 92.6367L69.1858 92.6367L69.1858 106.637L65.9858 106.637L65.9858 94.5367L66.7258 95.2767L60.5458 95.2767L61.2058 94.4967L61.0858 98.1967C61.0458 99.5701 60.9524 100.79 60.8058 101.857C60.6591 102.923 60.4324 103.83 60.1258 104.577C59.8191 105.323 59.3991 105.89 58.8658 106.277C58.3324 106.663 57.6591 106.857 56.8458 106.857ZM75.6623 98.2767L82.4023 98.2767L82.4023 100.797L75.6623 100.797L75.6623 98.2767ZM75.9023 104.037L83.5223 104.037L83.5223 106.637L72.6823 106.637L72.6823 92.6367L83.2623 92.6367L83.2623 95.2367L75.9023 95.2367L75.9023 104.037ZM94.8994 101.417C94.206 101.697 93.5394 101.91 92.8994 102.057C92.2594 102.19 91.646 102.257 91.0594 102.257C89.1794 102.257 87.7394 101.81 86.7394 100.917C85.7394 100.01 85.2394 98.7101 85.2394 97.0167L85.2394 92.6367L88.4394 92.6367L88.4394 96.6567C88.4394 97.6167 88.6994 98.3434 89.2194 98.8367C89.7394 99.3167 90.4794 99.5567 91.4394 99.5567C92.0527 99.5567 92.646 99.4901 93.2194 99.3567C93.7927 99.2101 94.326 99.0034 94.8194 98.7367L94.8994 101.417ZM94.4394 106.637L94.4394 92.6367L97.6394 92.6367L97.6394 106.637L94.4394 106.637ZM104.1 98.2767L110.84 98.2767L110.84 100.797L104.1 100.797L104.1 98.2767ZM104.34 104.037L111.96 104.037L111.96 106.637L101.12 106.637L101.12 92.6367L111.7 92.6367L111.7 95.2367L104.34 95.2367L104.34 104.037ZM124.177 92.6367L127.417 92.6367L127.417 106.637L124.177 106.637L124.177 92.6367ZM117.817 106.637L114.577 106.637L114.577 92.6367L117.817 92.6367L117.817 106.637ZM124.417 100.897L117.577 100.897L117.577 98.1567L124.417 98.1567L124.417 100.897ZM130.925 106.637L130.925 92.6367L134.145 92.6367L134.145 101.757L140.825 92.6367L143.865 92.6367L143.865 106.637L140.665 106.637L140.665 97.5367L133.985 106.637L130.925 106.637ZM150.33 98.2767L157.07 98.2767L157.07 100.797L150.33 100.797L150.33 98.2767ZM150.57 104.037L158.19 104.037L158.19 106.637L147.35 106.637L147.35 92.6367L157.93 92.6367L157.93 95.2367L150.57 95.2367L150.57 104.037ZM166.471 106.637L166.471 92.6367L172.991 92.6367C174.618 92.6367 175.885 92.9501 176.791 93.5767C177.698 94.2034 178.151 95.0967 178.151 96.2567C178.151 97.4034 177.725 98.2967 176.871 98.9367C176.018 99.5634 174.885 99.8767 173.471 99.8767L173.851 99.0367C175.425 99.0367 176.645 99.3501 177.511 99.9767C178.378 100.603 178.811 101.51 178.811 102.697C178.811 103.923 178.345 104.89 177.411 105.597C176.491 106.29 175.145 106.637 173.371 106.637L166.471 106.637ZM169.691 104.237L173.251 104.237C173.998 104.237 174.565 104.09 174.951 103.797C175.338 103.503 175.531 103.05 175.531 102.437C175.531 101.85 175.338 101.417 174.951 101.137C174.565 100.843 173.998 100.697 173.251 100.697L169.691 100.697L169.691 104.237ZM169.691 98.4367L172.711 98.4367C173.418 98.4367 173.951 98.2967 174.311 98.0167C174.671 97.7234 174.851 97.2967 174.851 96.7367C174.851 96.1767 174.671 95.7567 174.311 95.4767C173.951 95.1834 173.418 95.0367 172.711 95.0367L169.691 95.0367L169.691 98.4367ZM52.5163 130.637L52.5163 116.637L58.5763 116.637C59.8297 116.637 60.9097 116.843 61.8163 117.257C62.723 117.657 63.423 118.237 63.9163 118.997C64.4097 119.757 64.6563 120.663 64.6563 121.717C64.6563 122.757 64.4097 123.657 63.9163 124.417C63.423 125.177 62.723 125.763 61.8163 126.177C60.9097 126.577 59.8297 126.777 58.5763 126.777L54.3163 126.777L55.7563 125.317L55.7563 130.637L52.5163 130.637ZM55.7563 125.677L54.3163 124.137L58.3963 124.137C59.3963 124.137 60.143 123.923 60.6363 123.497C61.1297 123.07 61.3763 122.477 61.3763 121.717C61.3763 120.943 61.1297 120.343 60.6363 119.917C60.143 119.49 59.3963 119.277 58.3963 119.277L54.3163 119.277L55.7563 117.737L55.7563 125.677ZM64.5105 130.637L70.7505 116.637L73.9505 116.637L80.2105 130.637L76.8105 130.637L71.6905 118.277L72.9705 118.277L67.8305 130.637L64.5105 130.637ZM67.6305 127.637L68.4905 125.177L75.6905 125.177L76.5705 127.637L67.6305 127.637ZM88.4918 130.877C87.4118 130.877 86.4051 130.703 85.4718 130.357C84.5518 129.997 83.7518 129.49 83.0718 128.837C82.3918 128.183 81.8585 127.417 81.4718 126.537C81.0985 125.657 80.9118 124.69 80.9118 123.637C80.9118 122.583 81.0985 121.617 81.4718 120.737C81.8585 119.857 82.3918 119.09 83.0718 118.437C83.7651 117.783 84.5718 117.283 85.4918 116.937C86.4118 116.577 87.4185 116.397 88.5118 116.397C89.7251 116.397 90.8185 116.61 91.7918 117.037C92.7785 117.45 93.6051 118.063 94.2718 118.877L92.1918 120.797C91.7118 120.25 91.1785 119.843 90.5918 119.577C90.0051 119.297 89.3651 119.157 88.6718 119.157C88.0185 119.157 87.4185 119.263 86.8718 119.477C86.3251 119.69 85.8518 119.997 85.4518 120.397C85.0518 120.797 84.7385 121.27 84.5118 121.817C84.2985 122.363 84.1918 122.97 84.1918 123.637C84.1918 124.303 84.2985 124.91 84.5118 125.457C84.7385 126.003 85.0518 126.477 85.4518 126.877C85.8518 127.277 86.3251 127.583 86.8718 127.797C87.4185 128.01 88.0185 128.117 88.6718 128.117C89.3651 128.117 90.0051 127.983 90.5918 127.717C91.1785 127.437 91.7118 127.017 92.1918 126.457L94.2718 128.377C93.6051 129.19 92.7785 129.81 91.7918 130.237C90.8185 130.663 89.7185 130.877 88.4918 130.877ZM102.711 130.877C101.631 130.877 100.624 130.703 99.6905 130.357C98.7705 129.997 97.9705 129.49 97.2905 128.837C96.6105 128.183 96.0772 127.417 95.6905 126.537C95.3172 125.657 95.1305 124.69 95.1305 123.637C95.1305 122.583 95.3172 121.617 95.6905 120.737C96.0772 119.857 96.6105 119.09 97.2905 118.437C97.9839 117.783 98.7905 117.283 99.7105 116.937C100.631 116.577 101.637 116.397 102.731 116.397C103.944 116.397 105.037 116.61 106.011 117.037C106.997 117.45 107.824 118.063 108.491 118.877L106.411 120.797C105.931 120.25 105.397 119.843 104.811 119.577C104.224 119.297 103.584 119.157 102.891 119.157C102.237 119.157 101.637 119.263 101.091 119.477C100.544 119.69 100.071 119.997 99.6705 120.397C99.2705 120.797 98.9572 121.27 98.7305 121.817C98.5172 122.363 98.4105 122.97 98.4105 123.637C98.4105 124.303 98.5172 124.91 98.7305 125.457C98.9572 126.003 99.2705 126.477 99.6705 126.877C100.071 127.277 100.544 127.583 101.091 127.797C101.637 128.01 102.237 128.117 102.891 128.117C103.584 128.117 104.224 127.983 104.811 127.717C105.397 127.437 105.931 127.017 106.411 126.457L108.491 128.377C107.824 129.19 106.997 129.81 106.011 130.237C105.037 130.663 103.937 130.877 102.711 130.877ZM110.602 130.637L110.602 116.637L116.662 116.637C117.916 116.637 118.996 116.843 119.902 117.257C120.809 117.657 121.509 118.237 122.002 118.997C122.496 119.757 122.742 120.663 122.742 121.717C122.742 122.757 122.496 123.657 122.002 124.417C121.509 125.177 120.809 125.763 119.902 126.177C118.996 126.577 117.916 126.777 116.662 126.777L112.402 126.777L113.842 125.317L113.842 130.637L110.602 130.637ZM113.842 125.677L112.402 124.137L116.482 124.137C117.482 124.137 118.229 123.923 118.722 123.497C119.216 123.07 119.462 122.477 119.462 121.717C119.462 120.943 119.216 120.343 118.722 119.917C118.229 119.49 117.482 119.277 116.482 119.277L112.402 119.277L113.842 117.737L113.842 125.677ZM131.775 130.877C130.668 130.877 129.642 130.697 128.695 130.337C127.762 129.977 126.948 129.47 126.255 128.817C125.575 128.163 125.042 127.397 124.655 126.517C124.282 125.637 124.095 124.677 124.095 123.637C124.095 122.597 124.282 121.637 124.655 120.757C125.042 119.877 125.582 119.11 126.275 118.457C126.968 117.803 127.782 117.297 128.715 116.937C129.648 116.577 130.662 116.397 131.755 116.397C132.862 116.397 133.875 116.577 134.795 116.937C135.728 117.297 136.535 117.803 137.215 118.457C137.908 119.11 138.448 119.877 138.835 120.757C139.222 121.623 139.415 122.583 139.415 123.637C139.415 124.677 139.222 125.643 138.835 126.537C138.448 127.417 137.908 128.183 137.215 128.837C136.535 129.477 135.728 129.977 134.795 130.337C133.875 130.697 132.868 130.877 131.775 130.877ZM131.755 128.117C132.382 128.117 132.955 128.01 133.475 127.797C134.008 127.583 134.475 127.277 134.875 126.877C135.275 126.477 135.582 126.003 135.795 125.457C136.022 124.91 136.135 124.303 136.135 123.637C136.135 122.97 136.022 122.363 135.795 121.817C135.582 121.27 135.275 120.797 134.875 120.397C134.488 119.997 134.028 119.69 133.495 119.477C132.962 119.263 132.382 119.157 131.755 119.157C131.128 119.157 130.548 119.263 130.015 119.477C129.495 119.69 129.035 119.997 128.635 120.397C128.235 120.797 127.922 121.27 127.695 121.817C127.482 122.363 127.375 122.97 127.375 123.637C127.375 124.29 127.482 124.897 127.695 125.457C127.922 126.003 128.228 126.477 128.615 126.877C129.015 127.277 129.482 127.583 130.015 127.797C130.548 128.01 131.128 128.117 131.755 128.117ZM150.378 125.417C149.685 125.697 149.018 125.91 148.378 126.057C147.738 126.19 147.125 126.257 146.538 126.257C144.658 126.257 143.218 125.81 142.218 124.917C141.218 124.01 140.718 122.71 140.718 121.017L140.718 116.637L143.918 116.637L143.918 120.657C143.918 121.617 144.178 122.343 144.698 122.837C145.218 123.317 145.958 123.557 146.918 123.557C147.531 123.557 148.125 123.49 148.698 123.357C149.271 123.21 149.805 123.003 150.298 122.737L150.378 125.417ZM149.918 130.637L149.918 116.637L153.118 116.637L153.118 130.637L149.918 130.637ZM165.658 130.637L161.298 123.897L163.918 122.317L169.338 130.637L165.658 130.637ZM156.558 130.637L156.558 116.637L159.778 116.637L159.778 130.637L156.558 130.637ZM158.838 124.997L158.838 122.297L163.718 122.297L163.718 124.997L158.838 124.997ZM164.218 123.997L161.238 123.637L165.778 116.637L169.198 116.637L164.218 123.997ZM171.571 127.997C172.344 128.223 172.991 128.29 173.511 128.197C174.044 128.09 174.517 127.717 174.931 127.077L175.611 126.057L175.911 125.717L180.551 116.637L183.731 116.637L177.771 127.717C177.237 128.717 176.604 129.483 175.871 130.017C175.151 130.55 174.357 130.85 173.491 130.917C172.624 130.997 171.724 130.843 170.791 130.457L171.571 127.997ZM175.851 128.417L169.531 116.637L172.991 116.637L177.631 126.037L175.851 128.417Z" fill="#0C0E73"/>
</svg>
