<svg width="161" height="185" viewBox="0 0 161 185" fill="none" xmlns="http://www.w3.org/2000/svg">
<path d="M119.616 159.959L119.615 159.959L80.3863 182.542L41.1573 159.959L41.1569 159.959L1.93092 137.361L1.93092 92.2005L1.93092 47.0229L41.1569 24.4252L41.1573 24.425L80.3863 1.84202L119.615 24.425L119.616 24.4252L158.842 47.0229L158.842 92.2005L158.842 137.361L119.616 159.959Z" fill="#FFDC0A" stroke="#9D9E9E" stroke-width="3.1928"/>
<path d="M119.616 159.959L119.615 159.959L80.3863 182.542L41.1573 159.959L41.1569 159.959L1.93092 137.361L1.93092 92.2005L1.93092 47.0229L41.1569 24.4252L41.1573 24.425L80.3863 1.84202L119.615 24.425L119.616 24.4252L158.842 47.0229L158.842 92.2005L158.842 137.361L119.616 159.959Z" fill="#FFDC0A" stroke="#9D9E9E" stroke-width="3.1928"/>
<path d="M59.1897 143.281C56.2608 143.281 53.6385 142.566 51.3226 141.136C49.0068 139.671 47.1847 137.56 45.8565 134.801C44.5283 132.043 43.8642 128.705 43.8642 124.789C43.8642 120.872 44.5283 117.535 45.8565 114.776C47.1847 112.018 49.0068 109.923 51.3226 108.493C53.6385 107.028 56.2608 106.296 59.1897 106.296C62.1526 106.296 64.7749 107.028 67.0567 108.493C69.3726 109.923 71.1946 112.018 72.5228 114.776C73.851 117.535 74.5151 120.872 74.5151 124.789C74.5151 128.705 73.851 132.043 72.5228 134.801C71.1946 137.56 69.3726 139.671 67.0567 141.136C64.7749 142.566 62.1526 143.281 59.1897 143.281ZM59.1897 136.283C60.586 136.283 61.795 135.891 62.8167 135.108C63.8725 134.325 64.6898 133.082 65.2688 131.379C65.8818 129.676 66.1883 127.479 66.1883 124.789C66.1883 122.098 65.8818 119.902 65.2688 118.199C64.6898 116.496 63.8725 115.253 62.8167 114.47C61.795 113.686 60.586 113.295 59.1897 113.295C57.8274 113.295 56.6184 113.686 55.5627 114.47C54.541 115.253 53.7236 116.496 53.1106 118.199C52.5316 119.902 52.2421 122.098 52.2421 124.789C52.2421 127.479 52.5316 129.676 53.1106 131.379C53.7236 133.082 54.541 134.325 55.5627 135.108C56.6184 135.891 57.8274 136.283 59.1897 136.283ZM83.6956 142.668L108.114 106.909L114.193 106.909L89.7747 142.668L83.6956 142.668ZM86.8118 126.219C85.0749 126.219 83.5424 125.827 82.2142 125.044C80.886 124.227 79.8302 123.086 79.0469 121.622C78.2977 120.123 77.923 118.369 77.923 116.36C77.923 114.35 78.2977 112.614 79.0469 111.149C79.8302 109.685 80.886 108.544 82.2142 107.726C83.5424 106.909 85.0749 106.5 86.8118 106.5C88.5487 106.5 90.0812 106.909 91.4094 107.726C92.7376 108.544 93.7764 109.685 94.5256 111.149C95.2748 112.614 95.6495 114.35 95.6495 116.36C95.6495 118.369 95.2748 120.123 94.5256 121.622C93.7764 123.086 92.7376 124.227 91.4094 125.044C90.0812 125.827 88.5487 126.219 86.8118 126.219ZM86.8118 122.03C87.9357 122.03 88.8382 121.57 89.5193 120.651C90.2004 119.697 90.541 118.267 90.541 116.36C90.541 114.453 90.2004 113.039 89.5193 112.12C88.8382 111.166 87.9357 110.689 86.8118 110.689C85.722 110.689 84.8195 111.166 84.1043 112.12C83.4232 113.039 83.0826 114.453 83.0826 116.36C83.0826 118.233 83.4232 119.646 84.1043 120.6C84.8195 121.553 85.722 122.03 86.8118 122.03ZM111.077 143.077C109.374 143.077 107.842 142.685 106.479 141.902C105.151 141.085 104.113 139.944 103.363 138.48C102.614 136.981 102.239 135.227 102.239 133.218C102.239 131.208 102.614 129.472 103.363 128.007C104.113 126.543 105.151 125.402 106.479 124.584C107.842 123.767 109.374 123.358 111.077 123.358C112.848 123.358 114.398 123.767 115.726 124.584C117.054 125.402 118.093 126.543 118.842 128.007C119.591 129.472 119.966 131.208 119.966 133.218C119.966 135.227 119.591 136.981 118.842 138.48C118.093 139.944 117.054 141.085 115.726 141.902C114.398 142.685 112.848 143.077 111.077 143.077ZM111.077 138.888C112.201 138.888 113.103 138.428 113.785 137.509C114.466 136.555 114.806 135.125 114.806 133.218C114.806 131.345 114.466 129.931 113.785 128.978C113.103 128.024 112.201 127.547 111.077 127.547C109.987 127.547 109.085 128.024 108.37 128.978C107.688 129.897 107.348 131.311 107.348 133.218C107.348 135.125 107.688 136.555 108.37 137.509C109.085 138.428 109.987 138.888 111.077 138.888Z" fill="#0C0E73"/>
<path d="M59.6657 142.268C56.7991 142.268 54.2324 141.568 51.9657 140.168C49.6991 138.735 47.9157 136.668 46.6157 133.968C45.3157 131.268 44.6657 128.002 44.6657 124.168C44.6657 120.335 45.3157 117.068 46.6157 114.368C47.9157 111.668 49.6991 109.618 51.9657 108.218C54.2324 106.785 56.7991 106.068 59.6657 106.068C62.5657 106.068 65.1324 106.785 67.3657 108.218C69.6324 109.618 71.4157 111.668 72.7157 114.368C74.0157 117.068 74.6657 120.335 74.6657 124.168C74.6657 128.002 74.0157 131.268 72.7157 133.968C71.4157 136.668 69.6324 138.735 67.3657 140.168C65.1324 141.568 62.5657 142.268 59.6657 142.268ZM59.6657 135.418C61.0324 135.418 62.2157 135.035 63.2157 134.268C64.2491 133.502 65.0491 132.285 65.6157 130.618C66.2157 128.952 66.5157 126.802 66.5157 124.168C66.5157 121.535 66.2157 119.385 65.6157 117.718C65.0491 116.052 64.2491 114.835 63.2157 114.068C62.2157 113.302 61.0324 112.918 59.6657 112.918C58.3324 112.918 57.1491 113.302 56.1157 114.068C55.1157 114.835 54.3157 116.052 53.7157 117.718C53.1491 119.385 52.8657 121.535 52.8657 124.168C52.8657 126.802 53.1491 128.952 53.7157 130.618C54.3157 132.285 55.1157 133.502 56.1157 134.268C57.1491 135.035 58.3324 135.418 59.6657 135.418ZM83.6513 141.668L107.551 106.668L113.501 106.668L89.6013 141.668L83.6513 141.668ZM86.7013 125.568C85.0013 125.568 83.5013 125.185 82.2013 124.418C80.9013 123.618 79.8679 122.502 79.1013 121.068C78.3679 119.602 78.0013 117.885 78.0013 115.918C78.0013 113.952 78.3679 112.252 79.1013 110.818C79.8679 109.385 80.9013 108.268 82.2013 107.468C83.5013 106.668 85.0013 106.268 86.7013 106.268C88.4013 106.268 89.9013 106.668 91.2013 107.468C92.5013 108.268 93.5179 109.385 94.2513 110.818C94.9846 112.252 95.3513 113.952 95.3513 115.918C95.3513 117.885 94.9846 119.602 94.2513 121.068C93.5179 122.502 92.5013 123.618 91.2013 124.418C89.9013 125.185 88.4013 125.568 86.7013 125.568ZM86.7013 121.468C87.8013 121.468 88.6846 121.018 89.3513 120.118C90.0179 119.185 90.3513 117.785 90.3513 115.918C90.3513 114.052 90.0179 112.668 89.3513 111.768C88.6846 110.835 87.8013 110.368 86.7013 110.368C85.6346 110.368 84.7513 110.835 84.0513 111.768C83.3846 112.668 83.0513 114.052 83.0513 115.918C83.0513 117.752 83.3846 119.135 84.0513 120.068C84.7513 121.002 85.6346 121.468 86.7013 121.468ZM110.451 142.068C108.785 142.068 107.285 141.685 105.951 140.918C104.651 140.118 103.635 139.002 102.901 137.568C102.168 136.102 101.801 134.385 101.801 132.418C101.801 130.452 102.168 128.752 102.901 127.318C103.635 125.885 104.651 124.768 105.951 123.968C107.285 123.168 108.785 122.768 110.451 122.768C112.185 122.768 113.701 123.168 115.001 123.968C116.301 124.768 117.318 125.885 118.051 127.318C118.785 128.752 119.151 130.452 119.151 132.418C119.151 134.385 118.785 136.102 118.051 137.568C117.318 139.002 116.301 140.118 115.001 140.918C113.701 141.685 112.185 142.068 110.451 142.068ZM110.451 137.968C111.551 137.968 112.435 137.518 113.101 136.618C113.768 135.685 114.101 134.285 114.101 132.418C114.101 130.585 113.768 129.202 113.101 128.268C112.435 127.335 111.551 126.868 110.451 126.868C109.385 126.868 108.501 127.335 107.801 128.268C107.135 129.168 106.801 130.552 106.801 132.418C106.801 134.285 107.135 135.685 107.801 136.618C108.501 137.518 109.385 137.968 110.451 137.968Z" fill="#0C0E73"/>
<path d="M19.6281 70.8875C19.3881 70.8875 19.1347 70.8675 18.8681 70.8275C18.6147 70.7875 18.3347 70.7341 18.0281 70.6675L18.2281 67.9275C18.4147 67.9808 18.6081 68.0075 18.8081 68.0075C19.3547 68.0075 19.7814 67.7875 20.0881 67.3475C20.3947 66.8941 20.6147 66.2475 20.7481 65.4075C20.8814 64.5675 20.9681 63.5475 21.0081 62.3475L21.2081 56.6675L31.9681 56.6675L31.9681 70.6675L28.7681 70.6675L28.7681 58.5675L29.5081 59.3075L23.3281 59.3075L23.9881 58.5275L23.8681 62.2275C23.8281 63.6008 23.7347 64.8208 23.5881 65.8875C23.4414 66.9541 23.2147 67.8608 22.9081 68.6075C22.6014 69.3541 22.1814 69.9208 21.6481 70.3075C21.1147 70.6941 20.4414 70.8875 19.6281 70.8875ZM38.4446 62.3075L45.1846 62.3075L45.1846 64.8275L38.4446 64.8275L38.4446 62.3075ZM38.6846 68.0675L46.3046 68.0675L46.3046 70.6675L35.4646 70.6675L35.4646 56.6675L46.0446 56.6675L46.0446 59.2675L38.6846 59.2675L38.6846 68.0675ZM57.6817 65.4475C56.9883 65.7275 56.3217 65.9408 55.6817 66.0875C55.0417 66.2208 54.4283 66.2875 53.8417 66.2875C51.9617 66.2875 50.5217 65.8408 49.5217 64.9475C48.5217 64.0408 48.0217 62.7408 48.0217 61.0475L48.0217 56.6675L51.2217 56.6675L51.2217 60.6875C51.2217 61.6475 51.4817 62.3741 52.0017 62.8675C52.5217 63.3475 53.2617 63.5875 54.2217 63.5875C54.835 63.5875 55.4283 63.5208 56.0017 63.3875C56.575 63.2408 57.1083 63.0341 57.6017 62.7675L57.6817 65.4475ZM57.2217 70.6675L57.2217 56.6675L60.4217 56.6675L60.4217 70.6675L57.2217 70.6675ZM66.8821 62.3075L73.6221 62.3075L73.6221 64.8275L66.8821 64.8275L66.8821 62.3075ZM67.1221 68.0675L74.7421 68.0675L74.7421 70.6675L63.9021 70.6675L63.9021 56.6675L74.4821 56.6675L74.4821 59.2675L67.1221 59.2675L67.1221 68.0675ZM86.9592 56.6675L90.1992 56.6675L90.1992 70.6675L86.9592 70.6675L86.9592 56.6675ZM80.5992 70.6675L77.3592 70.6675L77.3592 56.6675L80.5992 56.6675L80.5992 70.6675ZM87.1992 64.9275L80.3592 64.9275L80.3592 62.1875L87.1992 62.1875L87.1992 64.9275ZM93.7068 70.6675L93.7068 56.6675L96.9268 56.6675L96.9268 65.7875L103.607 56.6675L106.647 56.6675L106.647 70.6675L103.447 70.6675L103.447 61.5675L96.7668 70.6675L93.7068 70.6675ZM113.113 62.3075L119.853 62.3075L119.853 64.8275L113.113 64.8275L113.113 62.3075ZM113.353 68.0675L120.973 68.0675L120.973 70.6675L110.133 70.6675L110.133 56.6675L120.713 56.6675L120.713 59.2675L113.353 59.2675L113.353 68.0675ZM129.254 70.6675L129.254 56.6675L135.774 56.6675C137.4 56.6675 138.667 56.9808 139.574 57.6075C140.48 58.2341 140.934 59.1275 140.934 60.2875C140.934 61.4341 140.507 62.3275 139.654 62.9675C138.8 63.5941 137.667 63.9075 136.254 63.9075L136.634 63.0675C138.207 63.0675 139.427 63.3808 140.294 64.0075C141.16 64.6341 141.594 65.5408 141.594 66.7275C141.594 67.9541 141.127 68.9208 140.194 69.6275C139.274 70.3208 137.927 70.6675 136.154 70.6675L129.254 70.6675ZM132.474 68.2675L136.034 68.2675C136.78 68.2675 137.347 68.1208 137.734 67.8275C138.12 67.5341 138.314 67.0808 138.314 66.4675C138.314 65.8808 138.12 65.4475 137.734 65.1675C137.347 64.8741 136.78 64.7275 136.034 64.7275L132.474 64.7275L132.474 68.2675ZM132.474 62.4675L135.494 62.4675C136.2 62.4675 136.734 62.3275 137.094 62.0475C137.454 61.7541 137.634 61.3275 137.634 60.7675C137.634 60.2075 137.454 59.7875 137.094 59.5075C136.734 59.2141 136.2 59.0675 135.494 59.0675L132.474 59.0675L132.474 62.4675ZM15.2986 94.6675L15.2986 80.6675L21.3586 80.6675C22.6119 80.6675 23.6919 80.8741 24.5986 81.2875C25.5053 81.6875 26.2053 82.2675 26.6986 83.0275C27.1919 83.7875 27.4386 84.6941 27.4386 85.7475C27.4386 86.7875 27.1919 87.6875 26.6986 88.4475C26.2053 89.2075 25.5053 89.7941 24.5986 90.2075C23.6919 90.6075 22.6119 90.8075 21.3586 90.8075L17.0986 90.8075L18.5386 89.3475L18.5386 94.6675L15.2986 94.6675ZM18.5386 89.7075L17.0986 88.1675L21.1786 88.1675C22.1786 88.1675 22.9253 87.9541 23.4186 87.5275C23.9119 87.1008 24.1586 86.5075 24.1586 85.7475C24.1586 84.9741 23.9119 84.3741 23.4186 83.9475C22.9253 83.5208 22.1786 83.3075 21.1786 83.3075L17.0986 83.3075L18.5386 81.7675L18.5386 89.7075ZM27.2928 94.6675L33.5328 80.6675L36.7328 80.6675L42.9928 94.6675L39.5928 94.6675L34.4728 82.3075L35.7528 82.3075L30.6128 94.6675L27.2928 94.6675ZM30.4128 91.6675L31.2728 89.2075L38.4728 89.2075L39.3528 91.6675L30.4128 91.6675ZM51.2741 94.9075C50.1941 94.9075 49.1874 94.7341 48.2541 94.3875C47.3341 94.0275 46.5341 93.5208 45.8541 92.8675C45.1741 92.2141 44.6407 91.4475 44.2541 90.5675C43.8807 89.6875 43.6941 88.7208 43.6941 87.6675C43.6941 86.6141 43.8807 85.6475 44.2541 84.7675C44.6407 83.8875 45.1741 83.1208 45.8541 82.4675C46.5474 81.8141 47.3541 81.3141 48.2741 80.9675C49.1941 80.6075 50.2007 80.4275 51.2941 80.4275C52.5074 80.4275 53.6007 80.6408 54.5741 81.0675C55.5607 81.4808 56.3874 82.0941 57.0541 82.9075L54.9741 84.8275C54.4941 84.2808 53.9607 83.8741 53.3741 83.6075C52.7874 83.3275 52.1474 83.1875 51.4541 83.1875C50.8007 83.1875 50.2007 83.2941 49.6541 83.5075C49.1074 83.7208 48.6341 84.0275 48.2341 84.4275C47.8341 84.8275 47.5207 85.3008 47.2941 85.8475C47.0807 86.3941 46.9741 87.0008 46.9741 87.6675C46.9741 88.3341 47.0807 88.9408 47.2941 89.4875C47.5207 90.0341 47.8341 90.5075 48.2341 90.9075C48.6341 91.3075 49.1074 91.6141 49.6541 91.8275C50.2007 92.0408 50.8007 92.1475 51.4541 92.1475C52.1474 92.1475 52.7874 92.0141 53.3741 91.7475C53.9607 91.4675 54.4941 91.0475 54.9741 90.4875L57.0541 92.4075C56.3874 93.2208 55.5607 93.8408 54.5741 94.2675C53.6007 94.6941 52.5007 94.9075 51.2741 94.9075ZM65.4928 94.9075C64.4128 94.9075 63.4062 94.7341 62.4728 94.3875C61.5528 94.0275 60.7528 93.5208 60.0728 92.8675C59.3928 92.2141 58.8595 91.4475 58.4728 90.5675C58.0995 89.6875 57.9128 88.7208 57.9128 87.6675C57.9128 86.6141 58.0995 85.6475 58.4728 84.7675C58.8595 83.8875 59.3928 83.1208 60.0728 82.4675C60.7662 81.8141 61.5728 81.3141 62.4928 80.9675C63.4128 80.6075 64.4195 80.4275 65.5128 80.4275C66.7262 80.4275 67.8195 80.6408 68.7928 81.0675C69.7795 81.4808 70.6062 82.0941 71.2728 82.9075L69.1928 84.8275C68.7128 84.2808 68.1795 83.8741 67.5928 83.6075C67.0062 83.3275 66.3662 83.1875 65.6728 83.1875C65.0195 83.1875 64.4195 83.2941 63.8728 83.5075C63.3262 83.7208 62.8528 84.0275 62.4528 84.4275C62.0528 84.8275 61.7395 85.3008 61.5128 85.8475C61.2995 86.3941 61.1928 87.0008 61.1928 87.6675C61.1928 88.3341 61.2995 88.9408 61.5128 89.4875C61.7395 90.0341 62.0528 90.5075 62.4528 90.9075C62.8528 91.3075 63.3262 91.6141 63.8728 91.8275C64.4195 92.0408 65.0195 92.1475 65.6728 92.1475C66.3662 92.1475 67.0062 92.0141 67.5928 91.7475C68.1795 91.4675 68.7128 91.0475 69.1928 90.4875L71.2728 92.4075C70.6062 93.2208 69.7795 93.8408 68.7928 94.2675C67.8195 94.6941 66.7195 94.9075 65.4928 94.9075ZM73.3845 94.6675L73.3845 80.6675L79.4445 80.6675C80.6979 80.6675 81.7779 80.8741 82.6845 81.2875C83.5912 81.6875 84.2912 82.2675 84.7845 83.0275C85.2779 83.7875 85.5245 84.6941 85.5245 85.7475C85.5245 86.7875 85.2779 87.6875 84.7845 88.4475C84.2912 89.2075 83.5912 89.7941 82.6845 90.2075C81.7779 90.6075 80.6979 90.8075 79.4445 90.8075L75.1845 90.8075L76.6245 89.3475L76.6245 94.6675L73.3845 94.6675ZM76.6245 89.7075L75.1845 88.1675L79.2645 88.1675C80.2645 88.1675 81.0112 87.9541 81.5045 87.5275C81.9979 87.1008 82.2445 86.5075 82.2445 85.7475C82.2445 84.9741 81.9979 84.3741 81.5045 83.9475C81.0112 83.5208 80.2645 83.3075 79.2645 83.3075L75.1845 83.3075L76.6245 81.7675L76.6245 89.7075ZM94.5572 94.9075C93.4505 94.9075 92.4239 94.7275 91.4772 94.3675C90.5439 94.0075 89.7305 93.5008 89.0372 92.8475C88.3572 92.1941 87.8239 91.4275 87.4372 90.5475C87.0639 89.6675 86.8772 88.7075 86.8772 87.6675C86.8772 86.6275 87.0639 85.6675 87.4372 84.7875C87.8239 83.9075 88.3639 83.1408 89.0572 82.4875C89.7505 81.8341 90.5639 81.3275 91.4972 80.9675C92.4305 80.6075 93.4439 80.4275 94.5372 80.4275C95.6439 80.4275 96.6572 80.6075 97.5772 80.9675C98.5105 81.3275 99.3172 81.8341 99.9972 82.4875C100.691 83.1408 101.231 83.9075 101.617 84.7875C102.004 85.6541 102.197 86.6141 102.197 87.6675C102.197 88.7075 102.004 89.6741 101.617 90.5675C101.231 91.4475 100.691 92.2141 99.9972 92.8675C99.3172 93.5075 98.5105 94.0075 97.5772 94.3675C96.6572 94.7275 95.6505 94.9075 94.5572 94.9075ZM94.5372 92.1475C95.1639 92.1475 95.7372 92.0408 96.2572 91.8275C96.7905 91.6141 97.2572 91.3075 97.6572 90.9075C98.0572 90.5075 98.3639 90.0341 98.5772 89.4875C98.8039 88.9408 98.9172 88.3341 98.9172 87.6675C98.9172 87.0008 98.8039 86.3941 98.5772 85.8475C98.3639 85.3008 98.0572 84.8275 97.6572 84.4275C97.2705 84.0275 96.8105 83.7208 96.2772 83.5075C95.7439 83.2941 95.1639 83.1875 94.5372 83.1875C93.9105 83.1875 93.3305 83.2941 92.7972 83.5075C92.2772 83.7208 91.8172 84.0275 91.4172 84.4275C91.0172 84.8275 90.7039 85.3008 90.4772 85.8475C90.2639 86.3941 90.1572 87.0008 90.1572 87.6675C90.1572 88.3208 90.2639 88.9275 90.4772 89.4875C90.7039 90.0341 91.0105 90.5075 91.3972 90.9075C91.7972 91.3075 92.2639 91.6141 92.7972 91.8275C93.3305 92.0408 93.9105 92.1475 94.5372 92.1475ZM113.16 89.4475C112.467 89.7275 111.8 89.9408 111.16 90.0875C110.52 90.2208 109.907 90.2875 109.32 90.2875C107.44 90.2875 106 89.8408 105 88.9475C104 88.0408 103.5 86.7408 103.5 85.0475L103.5 80.6675L106.7 80.6675L106.7 84.6875C106.7 85.6475 106.96 86.3741 107.48 86.8675C108 87.3475 108.74 87.5875 109.7 87.5875C110.314 87.5875 110.907 87.5208 111.48 87.3875C112.054 87.2408 112.587 87.0341 113.08 86.7675L113.16 89.4475ZM112.7 94.6675L112.7 80.6675L115.9 80.6675L115.9 94.6675L112.7 94.6675ZM128.441 94.6675L124.081 87.9275L126.701 86.3475L132.121 94.6675L128.441 94.6675ZM119.341 94.6675L119.341 80.6675L122.561 80.6675L122.561 94.6675L119.341 94.6675ZM121.621 89.0275L121.621 86.3275L126.501 86.3275L126.501 89.0275L121.621 89.0275ZM127.001 88.0275L124.021 87.6675L128.561 80.6675L131.981 80.6675L127.001 88.0275ZM134.353 92.0275C135.126 92.2541 135.773 92.3208 136.293 92.2275C136.826 92.1208 137.299 91.7475 137.713 91.1075L138.393 90.0875L138.693 89.7475L143.333 80.6675L146.513 80.6675L140.553 91.7475C140.019 92.7475 139.386 93.5141 138.653 94.0475C137.933 94.5808 137.139 94.8808 136.273 94.9475C135.406 95.0275 134.506 94.8741 133.573 94.4875L134.353 92.0275ZM138.633 92.4475L132.313 80.6675L135.773 80.6675L140.413 90.0675L138.633 92.4475Z" fill="#0C0E73"/>
</svg>
