<svg width="160" height="184" viewBox="0 0 160 184" fill="none" xmlns="http://www.w3.org/2000/svg">
<path d="M119.003 159.272L119.003 159.273L80 181.693L40.9973 159.273L40.9967 159.272L1.99996 136.839L1.99997 92.0084L1.99997 47.161L40.9967 24.7276L40.9973 24.7273L80 2.30689L119.003 24.7273L119.003 24.7276L158 47.161L158 92.0084L158 136.839L119.003 159.272Z" fill="#024FA2" stroke="#9D9E9E" stroke-width="4"/>
<path d="M32.304 101.528L32.304 84.7281L47.616 84.7281L47.616 101.528L43.752 101.528L43.752 87.0081L44.64 87.8961L35.28 87.8961L36.168 87.0081L36.168 101.528L32.304 101.528ZM51.7805 101.528L51.7805 84.7281L59.0525 84.7281C60.5565 84.7281 61.8525 84.9761 62.9405 85.4721C64.0285 85.9521 64.8685 86.6481 65.4605 87.5601C66.0525 88.4721 66.3485 89.5601 66.3485 90.8241C66.3485 92.0721 66.0525 93.1521 65.4605 94.0641C64.8685 94.9761 64.0285 95.6801 62.9405 96.1761C61.8525 96.6561 60.5565 96.8961 59.0525 96.8961L53.9405 96.8961L55.6685 95.1441L55.6685 101.528L51.7805 101.528ZM55.6685 95.5761L53.9405 93.7281L58.8365 93.7281C60.0365 93.7281 60.9325 93.4721 61.5245 92.9601C62.1165 92.4481 62.4125 91.7361 62.4125 90.8241C62.4125 89.8961 62.1165 89.1761 61.5245 88.6641C60.9325 88.1521 60.0365 87.8961 58.8365 87.8961L53.9405 87.8961L55.6685 86.0481L55.6685 95.5761ZM77.1877 101.816C75.8597 101.816 74.6277 101.6 73.4917 101.168C72.3717 100.736 71.3957 100.128 70.5637 99.3441C69.7477 98.5601 69.1077 97.6401 68.6437 96.5841C68.1957 95.5281 67.9717 94.3761 67.9717 93.1281C67.9717 91.8801 68.1957 90.7281 68.6437 89.6721C69.1077 88.6161 69.7557 87.6961 70.5877 86.9121C71.4197 86.1281 72.3957 85.5201 73.5157 85.0881C74.6357 84.6561 75.8517 84.4401 77.1637 84.4401C78.4917 84.4401 79.7077 84.6561 80.8117 85.0881C81.9317 85.5201 82.8997 86.1281 83.7157 86.9121C84.5477 87.6961 85.1957 88.6161 85.6597 89.6721C86.1237 90.7121 86.3557 91.8641 86.3557 93.1281C86.3557 94.3761 86.1237 95.5361 85.6597 96.6081C85.1957 97.6641 84.5477 98.5841 83.7157 99.3681C82.8997 100.136 81.9317 100.736 80.8117 101.168C79.7077 101.6 78.4997 101.816 77.1877 101.816ZM77.1637 98.5041C77.9157 98.5041 78.6037 98.3761 79.2277 98.1201C79.8677 97.8641 80.4277 97.4961 80.9077 97.0161C81.3877 96.5361 81.7557 95.9681 82.0117 95.3121C82.2837 94.6561 82.4197 93.9281 82.4197 93.1281C82.4197 92.3281 82.2837 91.6001 82.0117 90.9441C81.7557 90.2881 81.3877 89.7201 80.9077 89.2401C80.4437 88.7601 79.8917 88.3921 79.2517 88.1361C78.6117 87.8801 77.9157 87.7521 77.1637 87.7521C76.4117 87.7521 75.7157 87.8801 75.0757 88.1361C74.4517 88.3921 73.8997 88.7601 73.4197 89.2401C72.9397 89.7201 72.5637 90.2881 72.2917 90.9441C72.0357 91.6001 71.9077 92.3281 71.9077 93.1281C71.9077 93.9121 72.0357 94.6401 72.2917 95.3121C72.5637 95.9681 72.9317 96.5361 73.3957 97.0161C73.8757 97.4961 74.4357 97.8641 75.0757 98.1201C75.7157 98.3761 76.4117 98.5041 77.1637 98.5041ZM98.2308 100.472C96.0548 100.472 94.2068 100.184 92.6868 99.6081C91.1828 99.0321 90.0388 98.2001 89.2548 97.1121C88.4708 96.0081 88.0788 94.6641 88.0788 93.0801C88.0788 91.4961 88.4708 90.1601 89.2548 89.0721C90.0388 87.9681 91.1828 87.1281 92.6868 86.5521C94.2068 85.9761 96.0548 85.6881 98.2308 85.6881C98.2628 85.6881 98.3508 85.6881 98.4948 85.6881C98.6548 85.6881 98.8068 85.6881 98.9508 85.6881C99.1108 85.6881 99.1988 85.6881 99.2148 85.6881C101.375 85.6881 103.199 85.9761 104.687 86.5521C106.191 87.1281 107.327 87.9681 108.095 89.0721C108.863 90.1761 109.247 91.5121 109.247 93.0801C109.247 94.6321 108.863 95.9681 108.095 97.0881C107.343 98.1921 106.231 99.0321 104.759 99.6081C103.303 100.184 101.519 100.472 99.4068 100.472C99.3588 100.472 99.2468 100.472 99.0708 100.472C98.8948 100.472 98.7188 100.472 98.5428 100.472C98.3828 100.472 98.2788 100.472 98.2308 100.472ZM98.5908 97.4721C98.6388 97.4721 98.7028 97.4721 98.7828 97.4721C98.8628 97.4721 98.9188 97.4721 98.9508 97.4721C100.423 97.4721 101.639 97.3121 102.599 96.9921C103.575 96.6561 104.303 96.1681 104.783 95.5281C105.263 94.8721 105.503 94.0481 105.503 93.0561C105.503 92.0641 105.255 91.2481 104.759 90.6081C104.263 89.9681 103.535 89.4961 102.575 89.1921C101.631 88.8721 100.439 88.7121 98.9988 88.7121C98.9668 88.7121 98.9028 88.7121 98.8068 88.7121C98.7268 88.7121 98.6548 88.7121 98.5908 88.7121C97.0708 88.7121 95.8148 88.8641 94.8228 89.1681C93.8308 89.4721 93.0868 89.9521 92.5908 90.6081C92.0948 91.2481 91.8468 92.0721 91.8468 93.0801C91.8468 94.0881 92.1108 94.9201 92.6388 95.5761C93.1668 96.2161 93.9268 96.6961 94.9188 97.0161C95.9268 97.3201 97.1508 97.4721 98.5908 97.4721ZM96.8868 102.272L96.8868 84.0081L100.463 84.0081L100.463 102.272L96.8868 102.272ZM112.156 101.528L112.156 84.7281L116.02 84.7281L116.02 95.6721L124.036 84.7281L127.684 84.7281L127.684 101.528L123.844 101.528L123.844 90.6081L115.828 101.528L112.156 101.528Z" fill="white"/>
</svg>
