<svg width="66" height="100" viewBox="0 0 66 100" fill="none" xmlns="http://www.w3.org/2000/svg">
<g clip-path="url(#clip0_235_1203)">
<path fill-rule="evenodd" clip-rule="evenodd" d="M33.4618 99.9049C33.9405 99.3061 34.4454 99.4381 34.7308 98.2404L33.8922 97.919C34.2347 95.6821 35.9998 97.4655 35.8593 95.5588L34.7572 95.3915C34.7747 93.7447 35.407 94.2114 36.5706 93.8635L36.7155 92.9873C36.2721 92.7407 36.4828 92.9036 36.0613 92.7803C35.833 92.7099 35.9647 92.7803 35.7232 92.6614C35.0953 92.3576 35.2709 91.4549 36.3555 91.3228C37.1985 91.2215 37.5103 91.1643 37.2732 90.2396C36.8692 90.0943 36.3774 90.1119 35.991 89.905C35.8813 89.5351 35.9515 89.1784 36.0481 88.7997L37.7342 88.5003L37.7825 87.5404L36.3291 87.285C36.0437 85.6425 36.9614 86.1445 38.1646 85.8583L38.0504 84.9072L36.3818 84.665L36.4697 83.4277L38.1031 83.2075L38.0723 82.3048C37.44 81.9173 37.1283 82.1903 36.4301 81.9349C36.2018 80.4818 36.7594 80.7328 38.1075 80.5875L38.1031 79.5395L36.4784 79.2841C36.3555 78.8614 36.3555 78.4959 36.5004 78.0336L38.0065 78.0072L38.1426 76.8447C39.8946 76.6553 40.8211 76.7654 40.9835 74.9028C41.2119 72.2608 40.9835 63.8505 40.9879 60.799C40.9923 58.3948 41.4095 53.6656 41.0231 51.6004C40.7333 50.0681 39.7277 49.8435 38.0987 49.8039C36.575 49.7687 35.0119 49.8039 33.4838 49.8039C31.9294 49.8039 30.3706 49.8083 28.8162 49.8083C24.1882 49.8127 24.961 50.0549 25.0005 60.3587L25.0312 74.7575C25.2069 76.5981 26.0236 76.5981 27.736 76.8535L28.0522 77.9808L29.6373 78.0996L29.6242 79.3326L27.9293 79.5219L27.9995 80.6316C29.3431 80.746 29.971 80.3938 29.6022 81.9393C28.623 82.2564 27.6746 81.7896 27.9688 83.1811C28.6933 83.4893 30.2652 83.0578 29.6505 84.4316C29.2597 85.3079 27.7009 84.0045 27.9732 85.7967C28.6801 86.1665 30.0633 85.7746 29.8218 86.9283C29.7427 87.2982 29.6461 87.2894 29.5056 87.3598C29.2992 87.4611 28.6142 87.4699 28.3376 87.4963C27.6438 89.7068 30.7395 87.58 30.0589 89.949C29.1982 90.3893 28.364 89.632 28.8601 91.1423C29.4529 91.4153 30.4453 91.2964 30.6604 91.8248C31.082 92.8596 29.914 92.6879 29.3827 92.8772C29.2948 95.0745 31.3805 92.9124 31.2708 95.3783L30.1774 95.5544C30.2433 97.6196 31.947 95.6205 32.1358 97.8618L31.3191 98.2537C31.6747 99.2972 32.2499 99.8389 33.4706 99.9005L33.4618 99.9049ZM32.7593 5.39196C25.7645 5.06611 22.5679 -1.28788 13.7728 1.51263C8.30609 3.25195 4.3718 8.46108 2.25975 14.2559C-0.339691 21.3804 -0.177225 28.0074 0.406771 36.0479C0.929294 43.2385 2.07094 50.8387 3.40579 57.5625C4.53426 63.2516 5.71104 68.5312 7.38399 73.7712H7.3796C7.59476 75.5149 8.58272 76.237 11.5554 76.259C13.3908 76.2723 15.2306 76.259 17.066 76.259C25.0971 76.259 24.1003 76.5673 24.0345 61.2349C24.0257 59.3679 23.771 51.7369 24.2321 50.5436C24.7853 49.1126 26.0675 48.7075 27.938 48.7339C29.791 48.7559 31.6264 48.7383 33.4794 48.7295C39.2799 48.6987 41.9847 47.8092 42.112 52.6528C42.2657 58.4696 42.0725 65.4753 42.0901 71.5563C42.0988 74.8368 42.9112 76.0741 44.9003 76.2282C46.2263 76.3295 47.5963 76.2943 50.1211 76.237C51.9829 76.2106 53.9676 76.237 55.4737 76.1666C56.6505 76.1137 57.432 75.2991 57.757 73.7448C61.3619 62.6132 63.6145 47.3909 64.5937 36.5455C65.2787 28.9585 65.5465 21.6446 62.8461 14.2514C60.7297 8.45667 56.7998 3.24754 51.333 1.50823C48.3867 0.570321 46.0683 0.658387 44.0265 1.2044C40.0834 2.03663 38.3885 4.52891 32.7681 5.38756L32.7593 5.39196ZM10.6113 73.7712C7.19518 63.0139 4.94262 47.9809 4.25324 43.0228C2.83497 32.8379 1.69332 19.8172 7.37082 10.7992C9.36431 7.63325 13.4918 3.08022 19.4108 4.05335C24.2189 4.84595 27.9029 9.07314 33.7648 8.39503C34.8274 8.27173 35.7583 8.04716 36.7814 7.67729C40.7947 6.2462 44.3119 3.30038 48.8302 4.04014C53.0806 4.73587 56.1104 8.2233 57.7306 10.7992C60.0491 14.476 61.2302 18.8221 61.7176 23.3663C61.722 23.9916 61.8362 24.6917 61.8757 25.2818C62.1435 29.2888 61.6649 35.6736 61.2171 39.6102C60.6023 45.0351 58.1741 62.0451 54.4682 73.7448H50.1782C48.2286 73.7932 46.3098 73.7976 44.8432 73.6127C44.4568 72.1243 44.6236 57.0738 44.6632 54.401C44.7993 45.5195 41.1504 46.1095 33.295 46.1535C30.7965 46.1667 26.1773 45.8321 24.2935 46.8316C21.8127 48.1482 21.4175 50.2662 21.4263 53.8241C21.4394 57.4304 21.6853 70.909 21.3472 73.3925C20.8203 73.7051 18.2516 73.7888 15.6478 73.7756H10.6069L10.6113 73.7712ZM18.4316 7.20173C16.2581 7.76095 14.8003 8.21889 13.1669 9.49146C11.6564 10.6715 10.6421 11.6711 9.57947 13.384C8.62224 14.9296 7.88456 16.8714 7.65184 18.9146C7.16005 23.2034 10.3567 22.4989 10.5894 20.4954C10.9143 17.7125 11.0021 16.7481 12.337 14.6918C13.2196 13.3356 14.7608 11.8957 16.2625 11.1119C19.3449 9.49586 21.1672 10.3501 22.1595 9.53549C22.9806 8.86618 23.5032 5.89394 18.4316 7.19732V7.20173Z" fill="white"/>
</g>
<defs>
<clipPath id="clip0_235_1203">
<rect width="65" height="99.1056" fill="white" transform="translate(0.0507812 0.798828)"/>
</clipPath>
</defs>
</svg>
