<svg width="184" height="184" viewBox="0 0 184 184" fill="none" xmlns="http://www.w3.org/2000/svg">
<path d="M70.7514 144.281C67.8226 144.281 65.2002 143.566 62.8844 142.136C60.5685 140.671 58.7465 138.56 57.4183 135.801C56.0901 133.043 55.426 129.705 55.426 125.789C55.426 121.872 56.0901 118.535 57.4183 115.776C58.7465 113.018 60.5685 110.923 62.8844 109.493C65.2002 108.028 67.8226 107.296 70.7514 107.296C73.7144 107.296 76.3367 108.028 78.6185 109.493C80.9343 110.923 82.7564 113.018 84.0846 115.776C85.4128 118.535 86.0769 121.872 86.0769 125.789C86.0769 129.705 85.4128 133.043 84.0846 135.801C82.7564 138.56 80.9343 140.671 78.6185 142.136C76.3367 143.566 73.7144 144.281 70.7514 144.281ZM70.7514 137.283C72.1478 137.283 73.3568 136.891 74.3785 136.108C75.4342 135.325 76.2516 134.082 76.8305 132.379C77.4436 130.676 77.7501 128.479 77.7501 125.789C77.7501 123.098 77.4436 120.902 76.8305 119.199C76.2516 117.496 75.4342 116.253 74.3785 115.47C73.3568 114.686 72.1478 114.295 70.7514 114.295C69.3892 114.295 68.1802 114.686 67.1244 115.47C66.1027 116.253 65.2854 117.496 64.6724 119.199C64.0934 120.902 63.8039 123.098 63.8039 125.789C63.8039 128.479 64.0934 130.676 64.6724 132.379C65.2854 134.082 66.1027 135.325 67.1244 136.108C68.1802 136.891 69.3892 137.283 70.7514 137.283ZM95.2574 143.668L119.676 107.909L125.755 107.909L101.336 143.668L95.2574 143.668ZM98.3736 127.219C96.6367 127.219 95.1041 126.827 93.7759 126.044C92.4477 125.227 91.392 124.086 90.6087 122.622C89.8594 121.123 89.4848 119.369 89.4848 117.36C89.4848 115.35 89.8594 113.614 90.6087 112.149C91.392 110.685 92.4477 109.544 93.7759 108.726C95.1041 107.909 96.6367 107.5 98.3736 107.5C100.11 107.5 101.643 107.909 102.971 108.726C104.299 109.544 105.338 110.685 106.087 112.149C106.837 113.614 107.211 115.35 107.211 117.36C107.211 119.369 106.837 121.123 106.087 122.622C105.338 124.086 104.299 125.227 102.971 126.044C101.643 126.827 100.11 127.219 98.3736 127.219ZM98.3736 123.03C99.4974 123.03 100.4 122.57 101.081 121.651C101.762 120.697 102.103 119.267 102.103 117.36C102.103 115.453 101.762 114.039 101.081 113.12C100.4 112.166 99.4974 111.689 98.3736 111.689C97.2837 111.689 96.3812 112.166 95.6661 113.12C94.9849 114.039 94.6444 115.453 94.6444 117.36C94.6444 119.233 94.9849 120.646 95.6661 121.6C96.3812 122.553 97.2837 123.03 98.3736 123.03ZM122.639 144.077C120.936 144.077 119.403 143.685 118.041 142.902C116.713 142.085 115.674 140.944 114.925 139.48C114.176 137.981 113.801 136.227 113.801 134.218C113.801 132.208 114.176 130.472 114.925 129.007C115.674 127.543 116.713 126.402 118.041 125.584C119.403 124.767 120.936 124.358 122.639 124.358C124.41 124.358 125.959 124.767 127.288 125.584C128.616 126.402 129.654 127.543 130.404 129.007C131.153 130.472 131.528 132.208 131.528 134.218C131.528 136.227 131.153 137.981 130.404 139.48C129.654 140.944 128.616 142.085 127.288 142.902C125.959 143.685 124.41 144.077 122.639 144.077ZM122.639 139.888C123.763 139.888 124.665 139.428 125.346 138.509C126.027 137.555 126.368 136.125 126.368 134.218C126.368 132.345 126.027 130.931 125.346 129.978C124.665 129.024 123.763 128.547 122.639 128.547C121.549 128.547 120.647 129.024 119.931 129.978C119.25 130.897 118.91 132.311 118.91 134.218C118.91 136.125 119.25 137.555 119.931 138.509C120.647 139.428 121.549 139.888 122.639 139.888Z" fill="#0C0E73"/>
<circle cx="92" cy="92" r="90" fill="#FFDC0A" stroke="#4D4D4D" stroke-width="4"/>
<path d="M71.2276 143.268C68.3609 143.268 65.7943 142.568 63.5276 141.168C61.2609 139.735 59.4776 137.668 58.1776 134.968C56.8776 132.268 56.2276 129.002 56.2276 125.168C56.2276 121.335 56.8776 118.068 58.1776 115.368C59.4776 112.668 61.2609 110.618 63.5276 109.218C65.7943 107.785 68.3609 107.068 71.2276 107.068C74.1276 107.068 76.6943 107.785 78.9276 109.218C81.1943 110.618 82.9776 112.668 84.2776 115.368C85.5776 118.068 86.2276 121.335 86.2276 125.168C86.2276 129.002 85.5776 132.268 84.2776 134.968C82.9776 137.668 81.1943 139.735 78.9276 141.168C76.6943 142.568 74.1276 143.268 71.2276 143.268ZM71.2276 136.418C72.5943 136.418 73.7776 136.035 74.7776 135.268C75.8109 134.502 76.6109 133.285 77.1776 131.618C77.7776 129.952 78.0776 127.802 78.0776 125.168C78.0776 122.535 77.7776 120.385 77.1776 118.718C76.6109 117.052 75.8109 115.835 74.7776 115.068C73.7776 114.302 72.5943 113.918 71.2276 113.918C69.8943 113.918 68.7109 114.302 67.6776 115.068C66.6776 115.835 65.8776 117.052 65.2776 118.718C64.7109 120.385 64.4276 122.535 64.4276 125.168C64.4276 127.802 64.7109 129.952 65.2776 131.618C65.8776 133.285 66.6776 134.502 67.6776 135.268C68.7109 136.035 69.8943 136.418 71.2276 136.418ZM95.2132 142.668L119.113 107.668L125.063 107.668L101.163 142.668L95.2132 142.668ZM98.2632 126.568C96.5632 126.568 95.0632 126.185 93.7632 125.418C92.4632 124.618 91.4298 123.502 90.6632 122.068C89.9298 120.602 89.5632 118.885 89.5632 116.918C89.5632 114.952 89.9298 113.252 90.6632 111.818C91.4298 110.385 92.4632 109.268 93.7632 108.468C95.0632 107.668 96.5632 107.268 98.2632 107.268C99.9632 107.268 101.463 107.668 102.763 108.468C104.063 109.268 105.08 110.385 105.813 111.818C106.546 113.252 106.913 114.952 106.913 116.918C106.913 118.885 106.546 120.602 105.813 122.068C105.08 123.502 104.063 124.618 102.763 125.418C101.463 126.185 99.9632 126.568 98.2632 126.568ZM98.2632 122.468C99.3632 122.468 100.246 122.018 100.913 121.118C101.58 120.185 101.913 118.785 101.913 116.918C101.913 115.052 101.58 113.668 100.913 112.768C100.246 111.835 99.3632 111.368 98.2632 111.368C97.1965 111.368 96.3132 111.835 95.6132 112.768C94.9465 113.668 94.6132 115.052 94.6132 116.918C94.6132 118.752 94.9465 120.135 95.6132 121.068C96.3132 122.002 97.1965 122.468 98.2632 122.468ZM122.013 143.068C120.346 143.068 118.846 142.685 117.513 141.918C116.213 141.118 115.196 140.002 114.463 138.568C113.73 137.102 113.363 135.385 113.363 133.418C113.363 131.452 113.73 129.752 114.463 128.318C115.196 126.885 116.213 125.768 117.513 124.968C118.846 124.168 120.346 123.768 122.013 123.768C123.746 123.768 125.263 124.168 126.563 124.968C127.863 125.768 128.88 126.885 129.613 128.318C130.346 129.752 130.713 131.452 130.713 133.418C130.713 135.385 130.346 137.102 129.613 138.568C128.88 140.002 127.863 141.118 126.563 141.918C125.263 142.685 123.746 143.068 122.013 143.068ZM122.013 138.968C123.113 138.968 123.996 138.518 124.663 137.618C125.33 136.685 125.663 135.285 125.663 133.418C125.663 131.585 125.33 130.202 124.663 129.268C123.996 128.335 123.113 127.868 122.013 127.868C120.946 127.868 120.063 128.335 119.363 129.268C118.696 130.168 118.363 131.552 118.363 133.418C118.363 135.285 118.696 136.685 119.363 137.618C120.063 138.518 120.946 138.968 122.013 138.968Z" fill="#0C0E73"/>
<path d="M31.1898 71.8875C30.9498 71.8875 30.6965 71.8675 30.4298 71.8275C30.1765 71.7875 29.8965 71.7341 29.5898 71.6675L29.7898 68.9275C29.9765 68.9808 30.1698 69.0075 30.3698 69.0075C30.9165 69.0075 31.3432 68.7875 31.6498 68.3475C31.9565 67.8941 32.1765 67.2475 32.3098 66.4075C32.4432 65.5675 32.5298 64.5475 32.5698 63.3475L32.7698 57.6675L43.5298 57.6675L43.5298 71.6675L40.3298 71.6675L40.3298 59.5675L41.0698 60.3075L34.8898 60.3075L35.5498 59.5275L35.4298 63.2275C35.3898 64.6008 35.2965 65.8208 35.1498 66.8875C35.0032 67.9541 34.7765 68.8608 34.4698 69.6075C34.1632 70.3541 33.7432 70.9208 33.2098 71.3075C32.6765 71.6941 32.0032 71.8875 31.1898 71.8875ZM50.0064 63.3075L56.7464 63.3075L56.7464 65.8275L50.0064 65.8275L50.0064 63.3075ZM50.2464 69.0675L57.8664 69.0675L57.8664 71.6675L47.0264 71.6675L47.0264 57.6675L57.6064 57.6675L57.6064 60.2675L50.2464 60.2675L50.2464 69.0675ZM69.2434 66.4475C68.5501 66.7275 67.8834 66.9408 67.2434 67.0875C66.6034 67.2208 65.9901 67.2875 65.4034 67.2875C63.5234 67.2875 62.0834 66.8408 61.0834 65.9475C60.0834 65.0408 59.5834 63.7408 59.5834 62.0475L59.5834 57.6675L62.7834 57.6675L62.7834 61.6875C62.7834 62.6475 63.0434 63.3741 63.5634 63.8675C64.0834 64.3475 64.8234 64.5875 65.7834 64.5875C66.3968 64.5875 66.9901 64.5208 67.5634 64.3875C68.1368 64.2408 68.6701 64.0341 69.1634 63.7675L69.2434 66.4475ZM68.7834 71.6675L68.7834 57.6675L71.9834 57.6675L71.9834 71.6675L68.7834 71.6675ZM78.4439 63.3075L85.1839 63.3075L85.1839 65.8275L78.4439 65.8275L78.4439 63.3075ZM78.6839 69.0675L86.3039 69.0675L86.3039 71.6675L75.4639 71.6675L75.4639 57.6675L86.0439 57.6675L86.0439 60.2675L78.6839 60.2675L78.6839 69.0675ZM98.5209 57.6675L101.761 57.6675L101.761 71.6675L98.5209 71.6675L98.5209 57.6675ZM92.1609 71.6675L88.9209 71.6675L88.9209 57.6675L92.1609 57.6675L92.1609 71.6675ZM98.7609 65.9275L91.9209 65.9275L91.9209 63.1875L98.7609 63.1875L98.7609 65.9275ZM105.269 71.6675L105.269 57.6675L108.489 57.6675L108.489 66.7875L115.169 57.6675L118.209 57.6675L118.209 71.6675L115.009 71.6675L115.009 62.5675L108.329 71.6675L105.269 71.6675ZM124.674 63.3075L131.414 63.3075L131.414 65.8275L124.674 65.8275L124.674 63.3075ZM124.914 69.0675L132.534 69.0675L132.534 71.6675L121.694 71.6675L121.694 57.6675L132.274 57.6675L132.274 60.2675L124.914 60.2675L124.914 69.0675ZM140.815 71.6675L140.815 57.6675L147.335 57.6675C148.962 57.6675 150.229 57.9808 151.135 58.6075C152.042 59.2341 152.495 60.1275 152.495 61.2875C152.495 62.4341 152.069 63.3275 151.215 63.9675C150.362 64.5941 149.229 64.9075 147.815 64.9075L148.195 64.0675C149.769 64.0675 150.989 64.3808 151.855 65.0075C152.722 65.6341 153.155 66.5408 153.155 67.7275C153.155 68.9541 152.689 69.9208 151.755 70.6275C150.835 71.3208 149.489 71.6675 147.715 71.6675L140.815 71.6675ZM144.035 69.2675L147.595 69.2675C148.342 69.2675 148.909 69.1208 149.295 68.8275C149.682 68.5341 149.875 68.0808 149.875 67.4675C149.875 66.8808 149.682 66.4475 149.295 66.1675C148.909 65.8741 148.342 65.7275 147.595 65.7275L144.035 65.7275L144.035 69.2675ZM144.035 63.4675L147.055 63.4675C147.762 63.4675 148.295 63.3275 148.655 63.0475C149.015 62.7541 149.195 62.3275 149.195 61.7675C149.195 61.2075 149.015 60.7875 148.655 60.5075C148.295 60.2141 147.762 60.0675 147.055 60.0675L144.035 60.0675L144.035 63.4675ZM26.8604 95.6675L26.8604 81.6675L32.9204 81.6675C34.1737 81.6675 35.2537 81.8741 36.1604 82.2875C37.067 82.6875 37.767 83.2675 38.2604 84.0275C38.7537 84.7875 39.0004 85.6941 39.0004 86.7475C39.0004 87.7875 38.7537 88.6875 38.2604 89.4475C37.767 90.2075 37.067 90.7941 36.1604 91.2075C35.2537 91.6075 34.1737 91.8075 32.9204 91.8075L28.6604 91.8075L30.1004 90.3475L30.1004 95.6675L26.8604 95.6675ZM30.1004 90.7075L28.6604 89.1675L32.7404 89.1675C33.7404 89.1675 34.487 88.9541 34.9804 88.5275C35.4737 88.1008 35.7204 87.5075 35.7204 86.7475C35.7204 85.9741 35.4737 85.3741 34.9804 84.9475C34.487 84.5208 33.7404 84.3075 32.7404 84.3075L28.6604 84.3075L30.1004 82.7675L30.1004 90.7075ZM38.8546 95.6675L45.0946 81.6675L48.2946 81.6675L54.5546 95.6675L51.1546 95.6675L46.0346 83.3075L47.3146 83.3075L42.1746 95.6675L38.8546 95.6675ZM41.9746 92.6675L42.8346 90.2075L50.0346 90.2075L50.9146 92.6675L41.9746 92.6675ZM62.8358 95.9075C61.7558 95.9075 60.7492 95.7341 59.8158 95.3875C58.8958 95.0275 58.0958 94.5208 57.4158 93.8675C56.7358 93.2141 56.2025 92.4475 55.8158 91.5675C55.4425 90.6875 55.2558 89.7208 55.2558 88.6675C55.2558 87.6141 55.4425 86.6475 55.8158 85.7675C56.2025 84.8875 56.7358 84.1208 57.4158 83.4675C58.1092 82.8141 58.9158 82.3141 59.8358 81.9675C60.7558 81.6075 61.7625 81.4275 62.8558 81.4275C64.0692 81.4275 65.1625 81.6408 66.1358 82.0675C67.1225 82.4808 67.9492 83.0941 68.6158 83.9075L66.5358 85.8275C66.0558 85.2808 65.5225 84.8741 64.9358 84.6075C64.3492 84.3275 63.7092 84.1875 63.0158 84.1875C62.3625 84.1875 61.7625 84.2941 61.2158 84.5075C60.6692 84.7208 60.1958 85.0275 59.7958 85.4275C59.3958 85.8275 59.0825 86.3008 58.8558 86.8475C58.6425 87.3941 58.5358 88.0008 58.5358 88.6675C58.5358 89.3341 58.6425 89.9408 58.8558 90.4875C59.0825 91.0341 59.3958 91.5075 59.7958 91.9075C60.1958 92.3075 60.6692 92.6141 61.2158 92.8275C61.7625 93.0408 62.3625 93.1475 63.0158 93.1475C63.7092 93.1475 64.3492 93.0141 64.9358 92.7475C65.5225 92.4675 66.0558 92.0475 66.5358 91.4875L68.6158 93.4075C67.9492 94.2208 67.1225 94.8408 66.1358 95.2675C65.1625 95.6941 64.0625 95.9075 62.8358 95.9075ZM77.0546 95.9075C75.9746 95.9075 74.9679 95.7341 74.0346 95.3875C73.1146 95.0275 72.3146 94.5208 71.6346 93.8675C70.9546 93.2141 70.4213 92.4475 70.0346 91.5675C69.6613 90.6875 69.4746 89.7208 69.4746 88.6675C69.4746 87.6141 69.6613 86.6475 70.0346 85.7675C70.4213 84.8875 70.9546 84.1208 71.6346 83.4675C72.3279 82.8141 73.1346 82.3141 74.0546 81.9675C74.9746 81.6075 75.9813 81.4275 77.0746 81.4275C78.2879 81.4275 79.3813 81.6408 80.3546 82.0675C81.3413 82.4808 82.1679 83.0941 82.8346 83.9075L80.7546 85.8275C80.2746 85.2808 79.7413 84.8741 79.1546 84.6075C78.5679 84.3275 77.9279 84.1875 77.2346 84.1875C76.5813 84.1875 75.9813 84.2941 75.4346 84.5075C74.8879 84.7208 74.4146 85.0275 74.0146 85.4275C73.6146 85.8275 73.3013 86.3008 73.0746 86.8475C72.8613 87.3941 72.7546 88.0008 72.7546 88.6675C72.7546 89.3341 72.8613 89.9408 73.0746 90.4875C73.3013 91.0341 73.6146 91.5075 74.0146 91.9075C74.4146 92.3075 74.8879 92.6141 75.4346 92.8275C75.9813 93.0408 76.5813 93.1475 77.2346 93.1475C77.9279 93.1475 78.5679 93.0141 79.1546 92.7475C79.7413 92.4675 80.2746 92.0475 80.7546 91.4875L82.8346 93.4075C82.1679 94.2208 81.3413 94.8408 80.3546 95.2675C79.3813 95.6941 78.2813 95.9075 77.0546 95.9075ZM84.9463 95.6675L84.9463 81.6675L91.0063 81.6675C92.2596 81.6675 93.3396 81.8741 94.2463 82.2875C95.153 82.6875 95.853 83.2675 96.3463 84.0275C96.8396 84.7875 97.0863 85.6941 97.0863 86.7475C97.0863 87.7875 96.8396 88.6875 96.3463 89.4475C95.853 90.2075 95.153 90.7941 94.2463 91.2075C93.3396 91.6075 92.2596 91.8075 91.0063 91.8075L86.7463 91.8075L88.1863 90.3475L88.1863 95.6675L84.9463 95.6675ZM88.1863 90.7075L86.7463 89.1675L90.8263 89.1675C91.8263 89.1675 92.573 88.9541 93.0663 88.5275C93.5596 88.1008 93.8063 87.5075 93.8063 86.7475C93.8063 85.9741 93.5596 85.3741 93.0663 84.9475C92.573 84.5208 91.8263 84.3075 90.8263 84.3075L86.7463 84.3075L88.1863 82.7675L88.1863 90.7075ZM106.119 95.9075C105.012 95.9075 103.986 95.7275 103.039 95.3675C102.106 95.0075 101.292 94.5008 100.599 93.8475C99.919 93.1941 99.3856 92.4275 98.999 91.5475C98.6256 90.6675 98.439 89.7075 98.439 88.6675C98.439 87.6275 98.6256 86.6675 98.999 85.7875C99.3856 84.9075 99.9256 84.1408 100.619 83.4875C101.312 82.8341 102.126 82.3275 103.059 81.9675C103.992 81.6075 105.006 81.4275 106.099 81.4275C107.206 81.4275 108.219 81.6075 109.139 81.9675C110.072 82.3275 110.879 82.8341 111.559 83.4875C112.252 84.1408 112.792 84.9075 113.179 85.7875C113.566 86.6541 113.759 87.6141 113.759 88.6675C113.759 89.7075 113.566 90.6741 113.179 91.5675C112.792 92.4475 112.252 93.2141 111.559 93.8675C110.879 94.5075 110.072 95.0075 109.139 95.3675C108.219 95.7275 107.212 95.9075 106.119 95.9075ZM106.099 93.1475C106.726 93.1475 107.299 93.0408 107.819 92.8275C108.352 92.6141 108.819 92.3075 109.219 91.9075C109.619 91.5075 109.926 91.0341 110.139 90.4875C110.366 89.9408 110.479 89.3341 110.479 88.6675C110.479 88.0008 110.366 87.3941 110.139 86.8475C109.926 86.3008 109.619 85.8275 109.219 85.4275C108.832 85.0275 108.372 84.7208 107.839 84.5075C107.306 84.2941 106.726 84.1875 106.099 84.1875C105.472 84.1875 104.892 84.2941 104.359 84.5075C103.839 84.7208 103.379 85.0275 102.979 85.4275C102.579 85.8275 102.266 86.3008 102.039 86.8475C101.826 87.3941 101.719 88.0008 101.719 88.6675C101.719 89.3208 101.826 89.9275 102.039 90.4875C102.266 91.0341 102.572 91.5075 102.959 91.9075C103.359 92.3075 103.826 92.6141 104.359 92.8275C104.892 93.0408 105.472 93.1475 106.099 93.1475ZM124.722 90.4475C124.029 90.7275 123.362 90.9408 122.722 91.0875C122.082 91.2208 121.469 91.2875 120.882 91.2875C119.002 91.2875 117.562 90.8408 116.562 89.9475C115.562 89.0408 115.062 87.7408 115.062 86.0475L115.062 81.6675L118.262 81.6675L118.262 85.6875C118.262 86.6475 118.522 87.3741 119.042 87.8675C119.562 88.3475 120.302 88.5875 121.262 88.5875C121.875 88.5875 122.469 88.5208 123.042 88.3875C123.615 88.2408 124.149 88.0341 124.642 87.7675L124.722 90.4475ZM124.262 95.6675L124.262 81.6675L127.462 81.6675L127.462 95.6675L124.262 95.6675ZM140.002 95.6675L135.642 88.9275L138.262 87.3475L143.682 95.6675L140.002 95.6675ZM130.902 95.6675L130.902 81.6675L134.122 81.6675L134.122 95.6675L130.902 95.6675ZM133.182 90.0275L133.182 87.3275L138.062 87.3275L138.062 90.0275L133.182 90.0275ZM138.562 89.0275L135.582 88.6675L140.122 81.6675L143.542 81.6675L138.562 89.0275ZM145.915 93.0275C146.688 93.2541 147.335 93.3208 147.855 93.2275C148.388 93.1208 148.861 92.7475 149.275 92.1075L149.955 91.0875L150.255 90.7475L154.895 81.6675L158.075 81.6675L152.115 92.7475C151.581 93.7475 150.948 94.5141 150.215 95.0475C149.495 95.5808 148.701 95.8808 147.835 95.9475C146.968 96.0275 146.068 95.8741 145.135 95.4875L145.915 93.0275ZM150.195 93.4475L143.875 81.6675L147.335 81.6675L151.975 91.0675L150.195 93.4475Z" fill="#0C0E73"/>
</svg>
