<svg width="264" height="303" viewBox="0 0 264 303" fill="none" xmlns="http://www.w3.org/2000/svg">
<path d="M75.2601 51.0065L75.2607 51.0061L132 18.338L188.739 51.0061L188.74 51.0064L245.475 83.6963L245.475 149.026L245.475 214.38L188.74 247.07L188.739 247.07L132 279.738L75.2607 247.07L75.2601 247.07L18.5248 214.38L18.5248 149.026L18.5248 83.6963L75.2601 51.0065Z" fill="#F5F5F5" stroke="#4D4D4D" stroke-width="4.40566"/>
<path d="M47.7671 192.048L47.7671 181.4C47.7671 180.923 47.7781 180.586 47.8001 180.388C47.8294 180.182 47.8991 179.97 48.0091 179.75C48.1484 179.471 48.3684 179.244 48.6691 179.068C48.9771 178.892 49.3218 178.804 49.7031 178.804C50.0844 178.804 50.4254 178.892 50.7261 179.068C51.0341 179.244 51.2578 179.471 51.3971 179.75C51.5071 179.97 51.5731 180.182 51.5951 180.388C51.6244 180.586 51.6391 180.923 51.6391 181.4L51.6391 184.711H51.9801L55.9291 179.981C56.2884 179.541 56.5891 179.236 56.8311 179.068C57.0804 178.892 57.3774 178.804 57.7221 178.804C58.1401 178.804 58.5288 178.954 58.8881 179.255C59.3354 179.629 59.5591 180.065 59.5591 180.564C59.5591 180.857 59.5004 181.125 59.3831 181.367C59.2658 181.601 59.0384 181.909 58.7011 182.291L55.0601 186.394L59.0421 191.157C59.3794 191.553 59.6068 191.868 59.7241 192.103C59.8414 192.337 59.9001 192.598 59.9001 192.884C59.9001 193.382 59.6764 193.819 59.2291 194.193C58.8698 194.493 58.4811 194.644 58.0631 194.644C57.7184 194.644 57.4214 194.559 57.1721 194.391C56.9301 194.215 56.6294 193.907 56.2701 193.467L51.9801 188.341H51.6391L51.6391 192.048C51.6391 192.524 51.6244 192.865 51.5951 193.071C51.5731 193.269 51.5071 193.478 51.3971 193.698C51.2578 193.976 51.0341 194.204 50.7261 194.38C50.4254 194.556 50.0844 194.644 49.7031 194.644C49.3218 194.644 48.9771 194.556 48.6691 194.38C48.3684 194.204 48.1484 193.976 48.0091 193.698C47.8991 193.478 47.8294 193.269 47.8001 193.071C47.7781 192.865 47.7671 192.524 47.7671 192.048ZM74.2872 192.048C74.2872 192.524 74.2726 192.865 74.2433 193.071C74.2212 193.269 74.1552 193.478 74.0452 193.698C73.9059 193.976 73.6822 194.204 73.3743 194.38C73.0736 194.556 72.7326 194.644 72.3512 194.644C71.9699 194.644 71.6253 194.556 71.3172 194.38C71.0166 194.204 70.7966 193.976 70.6572 193.698C70.5472 193.478 70.4776 193.269 70.4482 193.071C70.4262 192.865 70.4152 192.524 70.4152 192.048L70.4152 186.24L66.2022 192.873C65.7842 193.525 65.4066 193.984 65.0692 194.248C64.7392 194.512 64.3469 194.644 63.8922 194.644C63.3496 194.644 62.8949 194.46 62.5282 194.094C62.3229 193.888 62.1836 193.639 62.1102 193.346C62.0442 193.052 62.0112 192.689 62.0112 192.257L62.0112 181.4C62.0112 180.923 62.0222 180.586 62.0442 180.388C62.0736 180.182 62.1432 179.97 62.2532 179.75C62.3926 179.471 62.6126 179.244 62.9132 179.068C63.2212 178.892 63.5659 178.804 63.9472 178.804C64.3286 178.804 64.6696 178.892 64.9702 179.068C65.2782 179.244 65.5019 179.471 65.6412 179.75C65.7512 179.97 65.8172 180.182 65.8392 180.388C65.8686 180.586 65.8832 180.923 65.8832 181.4L65.8832 187.208L70.0962 180.575C70.5142 179.922 70.8882 179.464 71.2182 179.2C71.5556 178.936 71.9516 178.804 72.4062 178.804C72.9489 178.804 73.4036 178.987 73.7703 179.354C73.9756 179.559 74.1112 179.808 74.1772 180.102C74.2506 180.395 74.2872 180.758 74.2872 181.191L74.2872 192.048ZM89.2515 192.048C89.2515 192.524 89.2369 192.865 89.2075 193.071C89.1855 193.269 89.1195 193.478 89.0095 193.698C88.8702 193.976 88.6465 194.204 88.3385 194.38C88.0379 194.556 87.6969 194.644 87.3155 194.644C86.9342 194.644 86.5895 194.556 86.2815 194.38C85.9809 194.204 85.7609 193.976 85.6215 193.698C85.5115 193.478 85.4419 193.269 85.4125 193.071C85.3905 192.865 85.3795 192.524 85.3795 192.048L85.3795 188.352H81.2875L81.2875 192.048C81.2875 192.524 81.2729 192.865 81.2435 193.071C81.2215 193.269 81.1555 193.478 81.0455 193.698C80.9062 193.976 80.6825 194.204 80.3745 194.38C80.0739 194.556 79.7329 194.644 79.3515 194.644C78.9702 194.644 78.6255 194.556 78.3175 194.38C78.0169 194.204 77.7969 193.976 77.6575 193.698C77.5475 193.478 77.4779 193.269 77.4485 193.071C77.4265 192.865 77.4155 192.524 77.4155 192.048L77.4155 181.4C77.4155 180.923 77.4265 180.586 77.4485 180.388C77.4779 180.182 77.5475 179.97 77.6575 179.75C77.7969 179.471 78.0169 179.244 78.3175 179.068C78.6255 178.892 78.9702 178.804 79.3515 178.804C79.7329 178.804 80.0739 178.892 80.3745 179.068C80.6825 179.244 80.9062 179.471 81.0455 179.75C81.1555 179.97 81.2215 180.182 81.2435 180.388C81.2729 180.586 81.2875 180.923 81.2875 181.4L81.2875 184.92H85.3795L85.3795 181.4C85.3795 180.923 85.3905 180.586 85.4125 180.388C85.4419 180.182 85.5115 179.97 85.6215 179.75C85.7609 179.471 85.9809 179.244 86.2815 179.068C86.5895 178.892 86.9342 178.804 87.3155 178.804C87.6969 178.804 88.0379 178.892 88.3385 179.068C88.6465 179.244 88.8702 179.471 89.0095 179.75C89.1195 179.97 89.1855 180.182 89.2075 180.388C89.2369 180.586 89.2515 180.923 89.2515 181.4L89.2515 192.048ZM100.839 194.556H94.7337C94.4697 194.556 94.2607 194.552 94.1067 194.545C93.9527 194.53 93.7547 194.482 93.5127 194.402C93.278 194.314 93.0763 194.185 92.9077 194.017C92.739 193.848 92.6107 193.646 92.5227 193.412C92.442 193.17 92.3943 192.972 92.3797 192.818C92.3723 192.664 92.3687 192.455 92.3687 192.191L92.3687 181.257C92.3687 180.993 92.3723 180.784 92.3797 180.63C92.3943 180.476 92.442 180.281 92.5227 180.047C92.6107 179.805 92.739 179.599 92.9077 179.431C93.0763 179.262 93.278 179.137 93.5127 179.057C93.7547 178.969 93.9527 178.921 94.1067 178.914C94.2607 178.899 94.4697 178.892 94.7337 178.892H100.839C101.257 178.892 101.561 178.906 101.752 178.936C101.942 178.958 102.129 179.013 102.313 179.101C102.562 179.218 102.764 179.416 102.918 179.695C103.072 179.966 103.149 180.27 103.149 180.608C103.149 180.945 103.072 181.253 102.918 181.532C102.764 181.803 102.562 181.997 102.313 182.115C102.129 182.203 101.942 182.261 101.752 182.291C101.561 182.313 101.257 182.324 100.839 182.324H96.2407L96.2407 184.942H99.8487C100.267 184.942 100.571 184.956 100.762 184.986C100.952 185.008 101.139 185.063 101.323 185.151C101.572 185.268 101.774 185.466 101.928 185.745C102.082 186.016 102.159 186.32 102.159 186.658C102.159 186.995 102.082 187.303 101.928 187.582C101.774 187.853 101.572 188.047 101.323 188.165C101.139 188.253 100.952 188.311 100.762 188.341C100.571 188.363 100.267 188.374 99.8487 188.374H96.2407L96.2407 191.124H100.839C101.257 191.124 101.561 191.138 101.752 191.168C101.942 191.19 102.129 191.245 102.313 191.333C102.562 191.45 102.764 191.648 102.918 191.927C103.072 192.198 103.149 192.502 103.149 192.84C103.149 193.177 103.072 193.485 102.918 193.764C102.764 194.035 102.562 194.229 102.313 194.347C102.129 194.435 101.942 194.493 101.752 194.523C101.561 194.545 101.257 194.556 100.839 194.556ZM105.138 182.764C105.138 181.774 105.604 180.864 106.535 180.036C107.078 179.559 107.69 179.229 108.372 179.046C109.062 178.855 109.894 178.76 110.869 178.76C112.556 178.76 113.924 179.167 114.972 179.981C116.021 180.787 116.545 181.862 116.545 183.204C116.545 183.886 116.369 184.513 116.017 185.085C115.673 185.657 115.218 186.115 114.653 186.46C115.291 186.782 115.801 187.244 116.182 187.846C116.571 188.44 116.765 189.122 116.765 189.892C116.765 191.336 116.215 192.499 115.115 193.379C114.023 194.251 112.593 194.688 110.825 194.688C109.813 194.688 108.963 194.596 108.273 194.413C107.584 194.222 106.968 193.888 106.425 193.412C105.487 192.576 105.017 191.666 105.017 190.684C105.017 190.075 105.193 189.606 105.545 189.276C105.905 188.938 106.334 188.77 106.832 188.77C107.302 188.77 107.738 188.905 108.141 189.177C108.427 189.375 108.713 189.741 108.999 190.277C109.205 190.658 109.454 190.933 109.747 191.102C110.041 191.263 110.44 191.344 110.946 191.344C111.57 191.344 112.05 191.197 112.387 190.904C112.725 190.61 112.893 190.229 112.893 189.76C112.893 189.254 112.736 188.854 112.42 188.561C112.112 188.26 111.639 188.11 111.001 188.11H110.715C110.07 188.11 109.619 188.047 109.362 187.923C109.135 187.813 108.952 187.637 108.812 187.395C108.673 187.145 108.603 186.863 108.603 186.548C108.603 186.232 108.673 185.954 108.812 185.712C108.952 185.462 109.135 185.283 109.362 185.173C109.619 185.048 110.07 184.986 110.715 184.986H111.001C111.529 184.986 111.947 184.854 112.255 184.59C112.563 184.318 112.717 183.952 112.717 183.49C112.717 183.057 112.56 182.712 112.244 182.456C111.929 182.192 111.507 182.06 110.979 182.06C110.488 182.06 110.096 182.144 109.802 182.313C109.516 182.474 109.271 182.745 109.065 183.127C108.779 183.662 108.493 184.029 108.207 184.227C107.804 184.498 107.379 184.634 106.931 184.634C106.447 184.634 106.026 184.465 105.666 184.128C105.314 183.798 105.138 183.343 105.138 182.764ZM131.672 192.048C131.672 192.524 131.657 192.865 131.628 193.071C131.606 193.269 131.54 193.478 131.43 193.698C131.291 193.976 131.067 194.204 130.759 194.38C130.458 194.556 130.117 194.644 129.736 194.644C129.355 194.644 129.01 194.556 128.702 194.38C128.401 194.204 128.181 193.976 128.042 193.698C127.932 193.478 127.862 193.269 127.833 193.071C127.811 192.865 127.8 192.524 127.8 192.048L127.8 186.24L123.587 192.873C123.169 193.525 122.791 193.984 122.454 194.248C122.124 194.512 121.732 194.644 121.277 194.644C120.734 194.644 120.28 194.46 119.913 194.094C119.708 193.888 119.568 193.639 119.495 193.346C119.429 193.052 119.396 192.689 119.396 192.257L119.396 181.4C119.396 180.923 119.407 180.586 119.429 180.388C119.458 180.182 119.528 179.97 119.638 179.75C119.777 179.471 119.997 179.244 120.298 179.068C120.606 178.892 120.951 178.804 121.332 178.804C121.713 178.804 122.054 178.892 122.355 179.068C122.663 179.244 122.887 179.471 123.026 179.75C123.136 179.97 123.202 180.182 123.224 180.388C123.253 180.586 123.268 180.923 123.268 181.4L123.268 187.208L127.481 180.575C127.899 179.922 128.273 179.464 128.603 179.2C128.94 178.936 129.336 178.804 129.791 178.804C130.334 178.804 130.788 178.987 131.155 179.354C131.36 179.559 131.496 179.808 131.562 180.102C131.635 180.395 131.672 180.758 131.672 181.191L131.672 192.048ZM144.645 192.972C144.066 193.551 143.424 193.984 142.72 194.27C142.024 194.548 141.21 194.688 140.278 194.688C139.347 194.688 138.529 194.548 137.825 194.27C137.129 193.984 136.491 193.551 135.911 192.972C135.603 192.664 135.343 192.319 135.13 191.938C134.918 191.556 134.756 191.201 134.646 190.871C134.544 190.533 134.463 190.104 134.404 189.584C134.353 189.056 134.32 188.616 134.305 188.264C134.298 187.904 134.294 187.391 134.294 186.724C134.294 186.056 134.298 185.547 134.305 185.195C134.32 184.835 134.353 184.395 134.404 183.875C134.463 183.347 134.544 182.918 134.646 182.588C134.756 182.25 134.918 181.891 135.13 181.51C135.343 181.128 135.603 180.784 135.911 180.476C136.491 179.896 137.129 179.467 137.825 179.189C138.529 178.903 139.347 178.76 140.278 178.76C141.21 178.76 142.024 178.903 142.72 179.189C143.424 179.467 144.066 179.896 144.645 180.476C144.953 180.784 145.214 181.128 145.426 181.51C145.639 181.891 145.797 182.25 145.899 182.588C146.009 182.918 146.09 183.347 146.141 183.875C146.2 184.395 146.233 184.835 146.24 185.195C146.255 185.547 146.262 186.056 146.262 186.724C146.262 187.391 146.255 187.904 146.24 188.264C146.233 188.616 146.2 189.056 146.141 189.584C146.09 190.104 146.009 190.533 145.899 190.871C145.797 191.201 145.639 191.556 145.426 191.938C145.214 192.319 144.953 192.664 144.645 192.972ZM141.818 190.552C142.024 190.28 142.17 189.903 142.258 189.419C142.346 188.935 142.39 188.036 142.39 186.724C142.39 185.411 142.346 184.509 142.258 184.018C142.17 183.519 142.024 183.138 141.818 182.874C141.664 182.676 141.452 182.514 141.18 182.39C140.916 182.258 140.616 182.192 140.278 182.192C139.941 182.192 139.637 182.258 139.365 182.39C139.101 182.514 138.892 182.676 138.738 182.874C138.533 183.138 138.386 183.519 138.298 184.018C138.21 184.509 138.166 185.411 138.166 186.724C138.166 188.036 138.21 188.935 138.298 189.419C138.386 189.903 138.533 190.28 138.738 190.552C139.098 191.021 139.611 191.256 140.278 191.256C140.946 191.256 141.459 191.021 141.818 190.552ZM157.403 192.048L157.403 182.324H154.675L154.675 186.416C154.675 187.721 154.605 188.843 154.466 189.782C154.334 190.72 154.139 191.498 153.883 192.114C153.633 192.73 153.296 193.217 152.871 193.577C152.453 193.936 151.987 194.189 151.474 194.336C150.96 194.482 150.348 194.556 149.637 194.556C149.145 194.556 148.797 194.545 148.592 194.523C148.386 194.493 148.192 194.435 148.009 194.347C147.767 194.229 147.565 194.031 147.404 193.753C147.25 193.474 147.173 193.166 147.173 192.829C147.173 192.315 147.334 191.897 147.657 191.575C147.943 191.289 148.364 191.135 148.922 191.113C149.2 191.098 149.446 191.036 149.659 190.926C149.871 190.808 150.047 190.669 150.187 190.508C150.333 190.339 150.454 190.115 150.55 189.837C150.652 189.558 150.729 189.298 150.781 189.056C150.832 188.814 150.872 188.502 150.902 188.121C150.931 187.739 150.946 187.417 150.946 187.153C150.953 186.889 150.957 186.548 150.957 186.13L150.957 181.257C150.957 180.993 150.96 180.784 150.968 180.63C150.982 180.476 151.03 180.281 151.111 180.047C151.199 179.805 151.327 179.599 151.496 179.431C151.664 179.262 151.866 179.137 152.101 179.057C152.343 178.969 152.541 178.921 152.695 178.914C152.849 178.899 153.058 178.892 153.322 178.892H158.91C159.174 178.892 159.383 178.899 159.537 178.914C159.691 178.921 159.885 178.969 160.12 179.057C160.362 179.137 160.567 179.262 160.736 179.431C160.904 179.599 161.029 179.805 161.11 180.047C161.198 180.281 161.245 180.476 161.253 180.63C161.267 180.784 161.275 180.993 161.275 181.257L161.275 192.048C161.275 192.524 161.26 192.865 161.231 193.071C161.209 193.269 161.143 193.478 161.033 193.698C160.893 193.976 160.67 194.204 160.362 194.38C160.061 194.556 159.72 194.644 159.339 194.644C158.957 194.644 158.613 194.556 158.305 194.38C158.004 194.204 157.784 193.976 157.645 193.698C157.535 193.478 157.465 193.269 157.436 193.071C157.414 192.865 157.403 192.524 157.403 192.048ZM174.251 192.972C173.671 193.551 173.03 193.984 172.326 194.27C171.629 194.548 170.815 194.688 169.884 194.688C168.952 194.688 168.135 194.548 167.431 194.27C166.734 193.984 166.096 193.551 165.517 192.972C165.209 192.664 164.948 192.319 164.736 191.938C164.523 191.556 164.362 191.201 164.252 190.871C164.149 190.533 164.068 190.104 164.01 189.584C163.958 189.056 163.925 188.616 163.911 188.264C163.903 187.904 163.9 187.391 163.9 186.724C163.9 186.056 163.903 185.547 163.911 185.195C163.925 184.835 163.958 184.395 164.01 183.875C164.068 183.347 164.149 182.918 164.252 182.588C164.362 182.25 164.523 181.891 164.736 181.51C164.948 181.128 165.209 180.784 165.517 180.476C166.096 179.896 166.734 179.467 167.431 179.189C168.135 178.903 168.952 178.76 169.884 178.76C170.815 178.76 171.629 178.903 172.326 179.189C173.03 179.467 173.671 179.896 174.251 180.476C174.559 180.784 174.819 181.128 175.032 181.51C175.244 181.891 175.402 182.25 175.505 182.588C175.615 182.918 175.695 183.347 175.747 183.875C175.805 184.395 175.838 184.835 175.846 185.195C175.86 185.547 175.868 186.056 175.868 186.724C175.868 187.391 175.86 187.904 175.846 188.264C175.838 188.616 175.805 189.056 175.747 189.584C175.695 190.104 175.615 190.533 175.505 190.871C175.402 191.201 175.244 191.556 175.032 191.938C174.819 192.319 174.559 192.664 174.251 192.972ZM171.424 190.552C171.629 190.28 171.776 189.903 171.864 189.419C171.952 188.935 171.996 188.036 171.996 186.724C171.996 185.411 171.952 184.509 171.864 184.018C171.776 183.519 171.629 183.138 171.424 182.874C171.27 182.676 171.057 182.514 170.786 182.39C170.522 182.258 170.221 182.192 169.884 182.192C169.546 182.192 169.242 182.258 168.971 182.39C168.707 182.514 168.498 182.676 168.344 182.874C168.138 183.138 167.992 183.519 167.904 184.018C167.816 184.509 167.772 185.411 167.772 186.724C167.772 188.036 167.816 188.935 167.904 189.419C167.992 189.903 168.138 190.28 168.344 190.552C168.703 191.021 169.216 191.256 169.884 191.256C170.551 191.256 171.064 191.021 171.424 190.552ZM178.478 192.048L178.478 181.257C178.478 180.993 178.482 180.784 178.489 180.63C178.504 180.476 178.551 180.281 178.632 180.047C178.72 179.805 178.848 179.599 179.017 179.431C179.186 179.262 179.387 179.137 179.622 179.057C179.864 178.969 180.062 178.921 180.216 178.914C180.37 178.899 180.579 178.892 180.843 178.892H186.376C186.794 178.892 187.098 178.906 187.289 178.936C187.48 178.958 187.667 179.013 187.85 179.101C188.099 179.218 188.301 179.416 188.455 179.695C188.609 179.966 188.686 180.27 188.686 180.608C188.686 180.945 188.609 181.253 188.455 181.532C188.301 181.803 188.099 181.997 187.85 182.115C187.667 182.203 187.48 182.261 187.289 182.291C187.098 182.313 186.794 182.324 186.376 182.324H182.35L182.35 192.048C182.35 192.524 182.335 192.865 182.306 193.071C182.284 193.269 182.218 193.478 182.108 193.698C181.969 193.976 181.745 194.204 181.437 194.38C181.136 194.556 180.795 194.644 180.414 194.644C180.033 194.644 179.688 194.556 179.38 194.38C179.079 194.204 178.859 193.976 178.72 193.698C178.61 193.478 178.54 193.269 178.511 193.071C178.489 192.865 178.478 192.524 178.478 192.048ZM203.043 192.048C203.043 192.524 203.028 192.865 202.999 193.071C202.977 193.269 202.911 193.478 202.801 193.698C202.662 193.976 202.438 194.204 202.13 194.38C201.829 194.556 201.488 194.644 201.107 194.644C200.726 194.644 200.381 194.556 200.073 194.38C199.772 194.204 199.552 193.976 199.413 193.698C199.303 193.478 199.233 193.269 199.204 193.071C199.182 192.865 199.171 192.524 199.171 192.048L199.171 186.24L194.958 192.873C194.54 193.525 194.162 193.984 193.825 194.248C193.495 194.512 193.103 194.644 192.648 194.644C192.105 194.644 191.651 194.46 191.284 194.094C191.079 193.888 190.939 193.639 190.866 193.346C190.8 193.052 190.767 192.689 190.767 192.257L190.767 181.4C190.767 180.923 190.778 180.586 190.8 180.388C190.829 180.182 190.899 179.97 191.009 179.75C191.148 179.471 191.368 179.244 191.669 179.068C191.977 178.892 192.322 178.804 192.703 178.804C193.084 178.804 193.425 178.892 193.726 179.068C194.034 179.244 194.258 179.471 194.397 179.75C194.507 179.97 194.573 180.182 194.595 180.388C194.624 180.586 194.639 180.923 194.639 181.4L194.639 187.208L198.852 180.575C199.27 179.922 199.644 179.464 199.974 179.2C200.311 178.936 200.707 178.804 201.162 178.804C201.705 178.804 202.159 178.987 202.526 179.354C202.731 179.559 202.867 179.808 202.933 180.102C203.006 180.395 203.043 180.758 203.043 181.191L203.043 192.048ZM213.453 192.048L213.453 188.968H211.88L209.526 193.104C209.387 193.346 209.27 193.54 209.174 193.687C209.079 193.826 208.951 193.98 208.789 194.149C208.635 194.317 208.459 194.442 208.261 194.523C208.071 194.603 207.858 194.644 207.623 194.644C207.301 194.644 206.978 194.552 206.655 194.369C206.025 194.009 205.709 193.5 205.709 192.84C205.709 192.605 205.75 192.378 205.83 192.158C205.911 191.938 206.061 191.633 206.281 191.245L208.041 188.165C207.308 187.71 206.743 187.105 206.347 186.35C205.951 185.594 205.753 184.788 205.753 183.93C205.753 183.277 205.871 182.654 206.105 182.06C206.34 181.458 206.674 180.923 207.106 180.454C207.546 179.977 208.111 179.599 208.8 179.321C209.49 179.035 210.256 178.892 211.099 178.892H214.96C215.224 178.892 215.433 178.899 215.587 178.914C215.741 178.921 215.936 178.969 216.17 179.057C216.412 179.137 216.618 179.262 216.786 179.431C216.955 179.599 217.08 179.805 217.16 180.047C217.248 180.281 217.296 180.476 217.303 180.63C217.318 180.784 217.325 180.993 217.325 181.257L217.325 192.048C217.325 192.524 217.311 192.865 217.281 193.071C217.259 193.269 217.193 193.478 217.083 193.698C216.944 193.976 216.72 194.204 216.412 194.38C216.112 194.556 215.771 194.644 215.389 194.644C215.008 194.644 214.663 194.556 214.355 194.38C214.055 194.204 213.835 193.976 213.695 193.698C213.585 193.478 213.516 193.269 213.486 193.071C213.464 192.865 213.453 192.524 213.453 192.048ZM213.453 185.536L213.453 182.324H211.275C210.769 182.324 210.362 182.485 210.054 182.808C209.754 183.123 209.603 183.497 209.603 183.93C209.603 184.362 209.754 184.74 210.054 185.063C210.362 185.378 210.769 185.536 211.275 185.536H213.453Z" fill="#4D4D4D"/>
<g clip-path="url(#clip0_244_41)">
<path fill-rule="evenodd" clip-rule="evenodd" d="M124.869 48.8313C127.372 48.8313 129.401 50.8656 129.401 53.3749C129.401 55.8842 127.372 57.9185 124.869 57.9185C122.366 57.9185 120.338 55.8842 120.338 53.3749C120.338 50.8656 122.366 48.8313 124.869 48.8313ZM124.869 50.8972C126.234 50.8972 127.34 52.0064 127.34 53.3749C127.34 54.7433 126.234 55.8526 124.869 55.8526C123.504 55.8526 122.398 54.7433 122.398 53.3749C122.398 52.0064 123.504 50.8972 124.869 50.8972Z" fill="#4D4D4D"/>
<path fill-rule="evenodd" clip-rule="evenodd" d="M130.697 59.1482C133.802 59.1482 136.319 61.672 136.319 64.7852C136.319 67.8982 133.802 70.422 130.697 70.422C127.592 70.422 125.074 67.8982 125.074 64.7852C125.074 61.672 127.592 59.1482 130.697 59.1482ZM130.697 61.2142C132.664 61.2142 134.258 62.813 134.258 64.7852C134.258 66.7574 132.664 68.3561 130.697 68.3561C128.73 68.3561 127.135 66.7574 127.135 64.7852C127.135 62.813 128.73 61.2142 130.697 61.2142Z" fill="#4D4D4D"/>
<path fill-rule="evenodd" clip-rule="evenodd" d="M132.553 74.4873C135.969 74.4873 138.738 77.2635 138.738 80.688C138.738 84.1124 135.969 86.8886 132.553 86.8886C129.138 86.8886 126.369 84.1124 126.369 80.688C126.369 77.2635 129.138 74.4873 132.553 74.4873ZM132.553 76.5534C134.831 76.5534 136.677 78.4045 136.677 80.688C136.677 82.9715 134.831 84.8227 132.553 84.8227C130.276 84.8227 128.429 82.9715 128.429 80.688C128.429 78.4045 130.276 76.5534 132.553 76.5534Z" fill="#4D4D4D"/>
<path fill-rule="evenodd" clip-rule="evenodd" d="M131.147 91.2791C135 91.2791 138.124 94.4109 138.124 98.274C138.124 102.137 135 105.269 131.147 105.269C127.294 105.269 124.171 102.137 124.171 98.274C124.171 94.4109 127.294 91.2791 131.147 91.2791ZM131.147 93.3449C133.863 93.3449 136.064 95.5517 136.064 98.2739C136.064 100.996 133.862 103.203 131.147 103.203C128.432 103.203 126.231 100.996 126.231 98.2739C126.231 95.5517 128.432 93.3449 131.147 93.3449Z" fill="#4D4D4D"/>
<path fill-rule="evenodd" clip-rule="evenodd" d="M126.232 108.838C129.601 108.838 132.332 111.576 132.332 114.953C132.332 118.331 129.601 121.069 126.232 121.069C122.864 121.069 120.133 118.331 120.133 114.953C120.133 111.576 122.864 108.838 126.232 108.838ZM126.232 110.904C128.463 110.904 130.271 112.717 130.271 114.953C130.271 117.19 128.463 119.003 126.232 119.003C124.002 119.003 122.194 117.19 122.194 114.953C122.194 112.717 124.002 110.904 126.232 110.904Z" fill="#4D4D4D"/>
<path fill-rule="evenodd" clip-rule="evenodd" d="M128.183 125.578C130.964 125.578 133.218 127.838 133.218 130.626C133.218 133.413 130.964 135.673 128.183 135.673C125.403 135.673 123.149 133.413 123.149 130.626C123.149 127.838 125.403 125.578 128.183 125.578ZM128.183 127.644C129.826 127.644 131.157 128.979 131.157 130.626C131.157 132.272 129.826 133.607 128.183 133.607C126.541 133.607 125.209 132.272 125.209 130.626C125.209 128.979 126.541 127.644 128.183 127.644Z" fill="#4D4D4D"/>
<path fill-rule="evenodd" clip-rule="evenodd" d="M133.861 137.527C136.399 137.527 138.457 139.59 138.457 142.135C138.457 144.68 136.399 146.743 133.861 146.743C131.323 146.743 129.265 144.679 129.265 142.135C129.265 139.59 131.323 137.527 133.861 137.527ZM133.861 139.593C135.261 139.593 136.396 140.731 136.396 142.135C136.396 143.539 135.261 144.677 133.861 144.677C132.461 144.677 131.326 143.539 131.326 142.135C131.326 140.731 132.461 139.593 133.861 139.593Z" fill="#4D4D4D"/>
<path fill-rule="evenodd" clip-rule="evenodd" d="M140.813 145.994C142.797 145.994 144.406 147.606 144.406 149.596C144.406 151.585 142.797 153.198 140.813 153.198C138.829 153.198 137.22 151.585 137.22 149.596C137.22 147.606 138.829 145.994 140.813 145.994ZM140.813 148.06C141.659 148.06 142.345 148.747 142.345 149.596C142.345 150.444 141.659 151.132 140.813 151.132C139.967 151.132 139.281 150.444 139.281 149.596C139.281 148.747 139.967 148.06 140.813 148.06Z" fill="#4D4D4D"/>
<path fill-rule="evenodd" clip-rule="evenodd" d="M71.4067 135.606C78.7253 132.097 84.7162 129.023 88.0964 124.424C90.7548 120.806 91.554 116.242 91.7824 109.779C92.1226 100.145 91.9187 97.1383 93.6224 93.1071C95.3261 89.0759 99.0054 79.0315 100.164 77.5283C101.322 76.0251 112.43 67.9626 113.862 67.211C115.293 66.4594 116.894 66.3567 117.95 67.2109C119.006 68.065 118.904 69.295 118.598 70.3199C118.291 71.3447 117.269 72.3354 117.269 72.3354C117.269 72.3354 120.506 70.5247 122.005 71.8229C123.504 73.1212 123.845 74.7268 122.755 75.9567C121.664 77.1865 117.132 80.1587 116.076 80.8078C115.02 81.457 114.337 81.2179 114.235 80.3297C114.133 79.4415 115.36 78.895 116.62 78.1775C117.881 77.46 120.845 75.4102 121.288 75.0003C121.731 74.5903 121.561 72.8823 120.198 73.1555C118.835 73.4287 115.053 74.5903 113.554 75.9227C112.054 77.255 107.454 81.9012 107.079 82.9602C106.704 84.0193 106.125 95.6006 106.193 96.6596C106.261 97.7186 106.227 97.7186 106.227 97.7186C106.227 97.7186 108.136 93.8582 109.362 89.2462C110.589 84.6341 111.611 83.2336 113.417 83.0285C115.223 82.8235 117.165 84.1218 116.961 87.5723C116.756 91.0227 114.677 93.9949 114.814 101.374C114.95 108.753 115.291 118.729 115.018 121.189C114.745 123.648 112.633 131.301 105.477 136.426C98.322 141.55 94.8462 144.624 92.0523 147.118C89.2584 149.612 86.8391 152.994 86.0213 153.336C85.2035 153.678 84.0791 153.165 84.0791 152.311C84.0791 151.457 88.1679 147.221 92.0864 143.941C96.0049 140.661 103.467 135.708 106.602 132.086C109.737 128.465 111.849 126.108 112.531 120.403C113.212 114.697 112.872 106.908 112.77 102.945C112.667 98.9822 112.804 96.9325 113.383 93.5845C113.962 90.2364 114.882 88.1526 114.439 86.5127C113.996 84.8729 112.872 85.4195 112.224 86.7518C111.577 88.0842 109.941 95.1901 107.761 99.0847C105.58 102.979 103.672 105.302 103.672 105.302C103.672 105.302 104.455 96.625 104.489 91.1248C104.524 85.6245 104.523 83.0282 105.137 81.7983C105.75 80.5685 112.189 74.7949 113.314 73.7358C114.438 72.6768 116.108 71.1395 116.381 70.4562C116.653 69.7729 116.517 68.7822 115.631 68.7822C114.745 68.7822 108.032 74.2142 105.92 75.7515C103.807 77.2888 102.647 78.075 102.034 79.0317C101.42 79.9883 97.4336 90.8522 97.4336 90.8522C97.4336 90.8522 95.2187 95.3274 95.0143 97.6506C94.8099 99.9737 93.8779 115.142 93.7416 116.611C93.6054 118.08 92.3898 125.528 86.1543 129.969C79.9189 134.41 74.0923 137.553 73.002 137.895C71.9117 138.236 71.4067 135.606 71.4067 135.606L71.4067 135.606ZM84.9501 146.526C85.9982 145.528 89.4282 141.882 89.664 141.823C89.9365 141.755 90.9587 141.653 90.9247 142.746C90.8907 143.839 86.2226 147.819 85.9841 148.143C85.7456 148.468 85.0297 148.366 84.7232 148.033C84.1896 147.453 84.5807 146.878 84.9501 146.526Z" fill="#4D4D4D"/>
<path fill-rule="evenodd" clip-rule="evenodd" d="M191.491 135.606C191.491 135.606 177.922 129.594 174.583 124.469C171.243 119.345 171.456 119.413 171.115 109.779C170.775 100.145 170.979 97.1383 169.275 93.1071C167.572 89.0759 163.892 79.0315 162.734 77.5283C161.575 76.0251 150.467 67.9626 149.036 67.211C147.605 66.4594 146.004 66.3567 144.948 67.2109C143.891 68.065 143.993 69.295 144.3 70.3199C144.607 71.3447 145.629 72.3354 145.629 72.3354C145.629 72.3354 142.392 70.5247 140.893 71.8229C139.394 73.1212 139.053 74.7268 140.143 75.9567C141.234 77.1865 145.765 80.1587 146.822 80.8078C147.878 81.457 148.561 81.2179 148.663 80.3297C148.765 79.4415 147.538 78.895 146.278 78.1775C145.017 77.46 142.052 75.4102 141.609 75.0003C141.166 74.5903 141.337 72.8823 142.7 73.1555C144.063 73.4287 147.845 74.5903 149.344 75.9227C150.843 77.2551 155.444 81.9012 155.819 82.9602C156.193 84.0193 156.773 95.6006 156.704 96.6596C156.636 97.7186 156.67 97.7186 156.67 97.7186C156.67 97.7186 154.762 93.8582 153.536 89.2462C152.309 84.6341 151.287 83.2336 149.481 83.0285C147.675 82.8235 145.733 84.1218 145.937 87.5723C146.142 91.0227 148.22 93.9949 148.084 101.374C147.948 108.753 147.607 118.729 147.88 121.189C148.152 123.648 150.265 131.301 157.42 136.426C164.576 141.55 168.052 144.624 170.846 147.118C173.639 149.612 176.059 152.994 176.877 153.336C177.694 153.678 178.819 153.165 178.819 152.311C178.819 151.457 174.73 147.221 170.811 143.941C166.893 140.661 159.431 135.708 156.296 132.086C153.161 128.465 151.049 126.108 150.367 120.403C149.685 114.697 150.026 106.908 150.128 102.945C150.23 98.9822 150.094 96.9325 149.515 93.5845C148.936 90.2364 148.016 88.1526 148.459 86.5127C148.902 84.8729 150.026 85.4195 150.674 86.7518C151.321 88.0842 152.956 95.19 155.137 99.0847C157.318 102.979 159.226 105.302 159.226 105.302C159.226 105.302 158.443 96.625 158.408 91.1248C158.374 85.6245 158.374 83.0282 157.761 81.7983C157.148 80.5685 150.708 74.7949 149.584 73.7358C148.459 72.6768 146.79 71.1395 146.517 70.4562C146.245 69.7729 146.381 68.7822 147.267 68.7822C148.153 68.7822 154.865 74.2142 156.978 75.7515C159.09 77.2888 160.251 78.075 160.864 79.0317C161.478 79.9883 165.464 90.8522 165.464 90.8522C165.464 90.8522 167.679 95.3274 167.884 97.6506C168.088 99.9737 168.634 115.142 168.77 116.611C168.906 118.08 170.508 125.528 176.743 129.969C182.979 134.41 188.806 137.553 189.896 137.895C190.986 138.236 191.491 135.606 191.491 135.606ZM177.948 146.527C176.9 145.528 173.47 141.882 173.234 141.823C172.961 141.755 171.939 141.653 171.973 142.746C172.007 143.839 176.675 147.819 176.914 148.143C177.152 148.468 177.868 148.366 178.175 148.033C178.708 147.453 178.317 146.878 177.948 146.527Z" fill="#4D4D4D"/>
</g>
<path d="M132.275 1.00363L132 0.845362L131.725 1.00363L66.7251 38.4332L66.9999 38.9105L66.7249 38.4333L1.7249 75.8904L1.44916 76.0493L1.44916 76.3675L1.44916 151.227L1.44917 226.113L1.44917 226.432L1.72491 226.591L66.7249 264.048L66.7251 264.048L131.725 301.477L132 301.635L132.275 301.477L197.275 264.048L197.275 264.048L262.275 226.59L262.551 226.432L262.551 226.113L262.551 151.227L262.551 76.3675L262.551 76.0493L262.275 75.8904L197.275 38.4333L197 38.9105L197.275 38.4332L132.275 1.00363Z" stroke="#024FA2" stroke-width="1.10141"/>
<defs>
<clipPath id="clip0_244_41">
<rect width="120.085" height="104.611" fill="white" transform="translate(71.4067 48.8311)"/>
</clipPath>
</defs>
</svg>
