<svg width="110" height="78" viewBox="0 0 110 78" fill="none" xmlns="http://www.w3.org/2000/svg">
<path fill-rule="evenodd" clip-rule="evenodd" d="M36.1838 56.562L49.8924 56.5646V70.0564L59.1372 69.9762V56.5646L72.979 56.5539L72.9884 47.2028L59.1372 47.2015L59.1251 33.7031L49.8937 33.7192L49.883 47.1988L36.1125 47.2616L36.1838 56.562Z" fill="#E31E24"/>
<path fill-rule="evenodd" clip-rule="evenodd" d="M54.0426 16.4425L73.8045 16.4411L73.8059 3.69873H53.9915L54.0426 16.4425Z" fill="#E31E24"/>
<path fill-rule="evenodd" clip-rule="evenodd" d="M34.0672 0.272949H75.0328C76.1747 0.272949 77.1093 1.20125 77.1093 2.33524V16.4908H104.463C107.005 16.4908 109.084 18.5557 109.084 21.0802V72.767C109.084 75.2915 107.005 77.3564 104.463 77.3564H4.63805C2.09618 77.3564 0.0169678 75.2915 0.0169678 72.767V21.0802C0.0169678 18.5557 2.09618 16.4908 4.63805 16.4908H31.992V2.33524C31.992 1.20125 32.9267 0.272949 34.0685 0.272949L34.0672 0.272949ZM3.5433 26.9625H105.557V21.0788C105.557 20.4805 105.064 19.9916 104.462 19.9916H4.6367C4.03418 19.9916 3.54195 20.4805 3.54195 21.0788V26.9625H3.5433ZM105.557 30.247H3.5433V72.7657C3.5433 73.3641 4.03553 73.8529 4.63805 73.8529H104.463C105.066 73.8529 105.558 73.3641 105.558 72.7657V30.247H105.557ZM73.5817 16.4908V3.77644H35.517V16.4908H73.5817Z" fill="#4D4D4D"/>
</svg>
