<svg width="262" height="303" viewBox="0 0 262 303" fill="none" xmlns="http://www.w3.org/2000/svg">
<path d="M75.2601 51.0065L75.2607 51.0061L132 18.338L188.739 51.0061L188.74 51.0065L245.475 83.6963L245.475 149.026L245.475 214.38L188.74 247.07L188.739 247.07L132 279.738L75.2607 247.07L75.2601 247.07L18.5248 214.38L18.5248 149.026L18.5248 83.6963L75.2601 51.0065Z" fill="#F8F8F8" stroke="#4D4D4D" stroke-width="4.40566"/>
<path d="M44.27 178.048L44.27 167.4C44.27 166.923 44.281 166.586 44.303 166.388C44.3324 166.182 44.402 165.97 44.512 165.75C44.6514 165.471 44.8714 165.244 45.172 165.068C45.48 164.892 45.8247 164.804 46.206 164.804C46.5874 164.804 46.9284 164.892 47.229 165.068C47.537 165.244 47.7607 165.471 47.9 165.75C48.01 165.97 48.076 166.182 48.098 166.388C48.1274 166.586 48.142 166.923 48.142 167.4L48.142 170.711H48.483L52.432 165.981C52.7914 165.541 53.092 165.236 53.334 165.068C53.5834 164.892 53.8804 164.804 54.225 164.804C54.643 164.804 55.0317 164.954 55.391 165.255C55.8384 165.629 56.062 166.065 56.062 166.564C56.062 166.857 56.0034 167.125 55.886 167.367C55.7687 167.601 55.5414 167.909 55.204 168.291L51.563 172.394L55.545 177.157C55.8824 177.553 56.1097 177.868 56.227 178.103C56.3444 178.337 56.403 178.598 56.403 178.884C56.403 179.382 56.1794 179.819 55.732 180.193C55.3727 180.493 54.984 180.644 54.566 180.644C54.2214 180.644 53.9244 180.559 53.675 180.391C53.433 180.215 53.1324 179.907 52.773 179.467L48.483 174.341H48.142L48.142 178.048C48.142 178.524 48.1274 178.865 48.098 179.071C48.076 179.269 48.01 179.478 47.9 179.698C47.7607 179.976 47.537 180.204 47.229 180.38C46.9284 180.556 46.5874 180.644 46.206 180.644C45.8247 180.644 45.48 180.556 45.172 180.38C44.8714 180.204 44.6514 179.976 44.512 179.698C44.402 179.478 44.3324 179.269 44.303 179.071C44.281 178.865 44.27 178.524 44.27 178.048ZM67.9295 178.972C67.3502 179.551 66.7085 179.984 66.0045 180.27C65.3078 180.548 64.4938 180.688 63.5625 180.688C62.6312 180.688 61.8135 180.548 61.1095 180.27C60.4128 179.984 59.7748 179.551 59.1955 178.972C58.8875 178.664 58.6272 178.319 58.4145 177.938C58.2018 177.556 58.0405 177.201 57.9305 176.871C57.8278 176.533 57.7472 176.104 57.6885 175.584C57.6372 175.056 57.6042 174.616 57.5895 174.264C57.5822 173.904 57.5785 173.391 57.5785 172.724C57.5785 172.056 57.5822 171.547 57.5895 171.195C57.6042 170.835 57.6372 170.395 57.6885 169.875C57.7472 169.347 57.8278 168.918 57.9305 168.588C58.0405 168.25 58.2018 167.891 58.4145 167.51C58.6272 167.128 58.8875 166.784 59.1955 166.476C59.7748 165.896 60.4128 165.467 61.1095 165.189C61.8135 164.903 62.6312 164.76 63.5625 164.76C64.4938 164.76 65.3078 164.903 66.0045 165.189C66.7085 165.467 67.3502 165.896 67.9295 166.476C68.2375 166.784 68.4978 167.128 68.7105 167.51C68.9232 167.891 69.0808 168.25 69.1835 168.588C69.2935 168.918 69.3742 169.347 69.4255 169.875C69.4842 170.395 69.5172 170.835 69.5245 171.195C69.5392 171.547 69.5465 172.056 69.5465 172.724C69.5465 173.391 69.5392 173.904 69.5245 174.264C69.5172 174.616 69.4842 175.056 69.4255 175.584C69.3742 176.104 69.2935 176.533 69.1835 176.871C69.0808 177.201 68.9232 177.556 68.7105 177.938C68.4978 178.319 68.2375 178.664 67.9295 178.972ZM65.1025 176.552C65.3078 176.28 65.4545 175.903 65.5425 175.419C65.6305 174.935 65.6745 174.036 65.6745 172.724C65.6745 171.411 65.6305 170.509 65.5425 170.018C65.4545 169.519 65.3078 169.138 65.1025 168.874C64.9485 168.676 64.7358 168.514 64.4645 168.39C64.2005 168.258 63.8998 168.192 63.5625 168.192C63.2252 168.192 62.9208 168.258 62.6495 168.39C62.3855 168.514 62.1765 168.676 62.0225 168.874C61.8172 169.138 61.6705 169.519 61.5825 170.018C61.4945 170.509 61.4505 171.411 61.4505 172.724C61.4505 174.036 61.4945 174.935 61.5825 175.419C61.6705 175.903 61.8172 176.28 62.0225 176.552C62.3818 177.021 62.8952 177.256 63.5625 177.256C64.2298 177.256 64.7432 177.021 65.1025 176.552ZM72.1568 178.048L72.1568 167.158C72.1568 166.71 72.1934 166.347 72.2668 166.069C72.3474 165.783 72.4978 165.53 72.7178 165.31C73.0624 164.965 73.4951 164.793 74.0158 164.793C74.4704 164.793 74.8481 164.895 75.1488 165.101C75.4641 165.313 75.7794 165.68 76.0948 166.201L79.4828 171.976L82.8708 166.201C83.1861 165.68 83.5014 165.313 83.8168 165.101C84.1174 164.895 84.4951 164.793 84.9498 164.793C85.4704 164.793 85.9031 164.965 86.2478 165.31C86.4678 165.53 86.6144 165.783 86.6878 166.069C86.7684 166.347 86.8088 166.71 86.8088 167.158L86.8088 178.048C86.8088 178.524 86.7941 178.865 86.7648 179.071C86.7428 179.269 86.6768 179.478 86.5668 179.698C86.4274 179.976 86.2038 180.204 85.8958 180.38C85.5951 180.556 85.2541 180.644 84.8728 180.644C84.4914 180.644 84.1468 180.556 83.8388 180.38C83.5381 180.204 83.3181 179.976 83.1788 179.698C83.0688 179.478 82.9991 179.269 82.9698 179.071C82.9478 178.865 82.9368 178.524 82.9368 178.048L82.9368 173.054L81.1438 176.156C80.9238 176.537 80.6928 176.812 80.4508 176.981C80.2088 177.149 79.8861 177.234 79.4828 177.234C79.0794 177.234 78.7568 177.149 78.5148 176.981C78.2728 176.812 78.0418 176.537 77.8218 176.156L76.0288 173.054L76.0288 178.048C76.0288 178.524 76.0141 178.865 75.9848 179.071C75.9628 179.269 75.8968 179.478 75.7868 179.698C75.6474 179.976 75.4238 180.204 75.1158 180.38C74.8151 180.556 74.4741 180.644 74.0928 180.644C73.7114 180.644 73.3668 180.556 73.0588 180.38C72.7581 180.204 72.5381 179.976 72.3988 179.698C72.2888 179.478 72.2191 179.269 72.1898 179.071C72.1678 178.865 72.1568 178.524 72.1568 178.048ZM97.8883 178.048L97.8883 168.324H93.7963L93.7963 178.048C93.7963 178.524 93.7817 178.865 93.7523 179.071C93.7303 179.269 93.6643 179.478 93.5543 179.698C93.415 179.976 93.1913 180.204 92.8833 180.38C92.5827 180.556 92.2417 180.644 91.8603 180.644C91.479 180.644 91.1343 180.556 90.8263 180.38C90.5257 180.204 90.3057 179.976 90.1663 179.698C90.0563 179.478 89.9867 179.269 89.9573 179.071C89.9353 178.865 89.9243 178.524 89.9243 178.048L89.9243 167.257C89.9243 166.993 89.928 166.784 89.9353 166.63C89.95 166.476 89.9977 166.281 90.0783 166.047C90.1663 165.805 90.2947 165.599 90.4633 165.431C90.632 165.262 90.8337 165.137 91.0683 165.057C91.3103 164.969 91.5083 164.921 91.6623 164.914C91.8163 164.899 92.0253 164.892 92.2893 164.892H99.3953C99.6593 164.892 99.8683 164.899 100.022 164.914C100.176 164.921 100.371 164.969 100.605 165.057C100.847 165.137 101.053 165.262 101.221 165.431C101.39 165.599 101.515 165.805 101.595 166.047C101.683 166.281 101.731 166.476 101.738 166.63C101.753 166.784 101.76 166.993 101.76 167.257L101.76 178.048C101.76 178.524 101.746 178.865 101.716 179.071C101.694 179.269 101.628 179.478 101.518 179.698C101.379 179.976 101.155 180.204 100.847 180.38C100.547 180.556 100.206 180.644 99.8243 180.644C99.443 180.644 99.0983 180.556 98.7903 180.38C98.4897 180.204 98.2697 179.976 98.1303 179.698C98.0203 179.478 97.9507 179.269 97.9213 179.071C97.8993 178.865 97.8883 178.524 97.8883 178.048ZM111.103 180.556H107.242C106.978 180.556 106.769 180.552 106.615 180.545C106.461 180.53 106.263 180.482 106.021 180.402C105.787 180.314 105.585 180.185 105.416 180.017C105.248 179.848 105.119 179.646 105.031 179.412C104.951 179.17 104.903 178.972 104.888 178.818C104.881 178.664 104.877 178.455 104.877 178.191L104.877 167.4C104.877 166.923 104.888 166.586 104.91 166.388C104.94 166.182 105.009 165.97 105.119 165.75C105.259 165.471 105.479 165.244 105.779 165.068C106.087 164.892 106.432 164.804 106.813 164.804C107.195 164.804 107.536 164.892 107.836 165.068C108.144 165.244 108.368 165.471 108.507 165.75C108.617 165.97 108.683 166.182 108.705 166.388C108.735 166.586 108.749 166.923 108.749 167.4L108.749 170.48H111.103C111.947 170.48 112.713 170.623 113.402 170.909C114.092 171.187 114.653 171.565 115.085 172.042C115.525 172.511 115.863 173.046 116.097 173.648C116.332 174.242 116.449 174.865 116.449 175.518C116.449 176.17 116.332 176.797 116.097 177.399C115.863 177.993 115.525 178.528 115.085 179.005C114.653 179.474 114.092 179.852 113.402 180.138C112.713 180.416 111.947 180.556 111.103 180.556ZM108.749 177.124H110.927C111.433 177.124 111.837 176.966 112.137 176.651C112.445 176.328 112.599 175.95 112.599 175.518C112.599 175.085 112.445 174.711 112.137 174.396C111.837 174.073 111.433 173.912 110.927 173.912H108.749L108.749 177.124ZM118.67 178.048L118.67 167.4C118.67 166.923 118.681 166.586 118.703 166.388C118.733 166.182 118.802 165.97 118.912 165.75C119.052 165.471 119.272 165.244 119.572 165.068C119.88 164.892 120.225 164.804 120.606 164.804C120.988 164.804 121.329 164.892 121.629 165.068C121.937 165.244 122.161 165.471 122.3 165.75C122.41 165.97 122.476 166.182 122.498 166.388C122.528 166.586 122.542 166.923 122.542 167.4L122.542 170.92H124.346C124.39 169.93 124.526 169.083 124.753 168.379C124.981 167.675 125.377 167.04 125.941 166.476C126.521 165.896 127.159 165.467 127.855 165.189C128.559 164.903 129.377 164.76 130.308 164.76C131.24 164.76 132.054 164.903 132.75 165.189C133.454 165.467 134.096 165.896 134.675 166.476C134.983 166.784 135.244 167.128 135.456 167.51C135.669 167.891 135.827 168.25 135.929 168.588C136.039 168.918 136.12 169.347 136.171 169.875C136.23 170.395 136.263 170.835 136.27 171.195C136.285 171.547 136.292 172.056 136.292 172.724C136.292 173.391 136.285 173.904 136.27 174.264C136.263 174.616 136.23 175.056 136.171 175.584C136.12 176.104 136.039 176.533 135.929 176.871C135.827 177.201 135.669 177.556 135.456 177.938C135.244 178.319 134.983 178.664 134.675 178.972C134.096 179.551 133.454 179.984 132.75 180.27C132.054 180.548 131.24 180.688 130.308 180.688C129.377 180.688 128.559 180.548 127.855 180.27C127.159 179.984 126.521 179.551 125.941 178.972C125.362 178.392 124.959 177.74 124.731 177.014C124.511 176.288 124.383 175.4 124.346 174.352H122.542L122.542 178.048C122.542 178.524 122.528 178.865 122.498 179.071C122.476 179.269 122.41 179.478 122.3 179.698C122.161 179.976 121.937 180.204 121.629 180.38C121.329 180.556 120.988 180.644 120.606 180.644C120.225 180.644 119.88 180.556 119.572 180.38C119.272 180.204 119.052 179.976 118.912 179.698C118.802 179.478 118.733 179.269 118.703 179.071C118.681 178.865 118.67 178.524 118.67 178.048ZM131.848 176.552C132.054 176.28 132.2 175.903 132.288 175.419C132.376 174.935 132.42 174.036 132.42 172.724C132.42 171.411 132.376 170.509 132.288 170.018C132.2 169.519 132.054 169.138 131.848 168.874C131.694 168.676 131.482 168.514 131.21 168.39C130.946 168.258 130.646 168.192 130.308 168.192C129.971 168.192 129.667 168.258 129.395 168.39C129.131 168.514 128.922 168.676 128.768 168.874C128.563 169.138 128.416 169.519 128.328 170.018C128.24 170.509 128.196 171.411 128.196 172.724C128.196 174.036 128.24 174.935 128.328 175.419C128.416 175.903 128.563 176.28 128.768 176.552C129.128 177.021 129.641 177.256 130.308 177.256C130.976 177.256 131.489 177.021 131.848 176.552ZM141.243 178.048L141.243 168.324H139.626C139.208 168.324 138.904 168.313 138.713 168.291C138.522 168.261 138.335 168.203 138.152 168.115C137.903 167.997 137.701 167.803 137.547 167.532C137.393 167.253 137.316 166.945 137.316 166.608C137.316 166.27 137.393 165.966 137.547 165.695C137.701 165.416 137.903 165.218 138.152 165.101C138.335 165.013 138.522 164.958 138.713 164.936C138.904 164.906 139.208 164.892 139.626 164.892H146.732C147.15 164.892 147.454 164.906 147.645 164.936C147.836 164.958 148.023 165.013 148.206 165.101C148.455 165.218 148.657 165.416 148.811 165.695C148.965 165.966 149.042 166.27 149.042 166.608C149.042 166.945 148.965 167.253 148.811 167.532C148.657 167.803 148.455 167.997 148.206 168.115C148.023 168.203 147.836 168.261 147.645 168.291C147.454 168.313 147.15 168.324 146.732 168.324H145.115L145.115 178.048C145.115 178.524 145.1 178.865 145.071 179.071C145.049 179.269 144.983 179.478 144.873 179.698C144.734 179.976 144.51 180.204 144.202 180.38C143.901 180.556 143.56 180.644 143.179 180.644C142.798 180.644 142.453 180.556 142.145 180.38C141.844 180.204 141.624 179.976 141.485 179.698C141.375 179.478 141.305 179.269 141.276 179.071C141.254 178.865 141.243 178.524 141.243 178.048ZM159.603 180.556H153.498C153.234 180.556 153.025 180.552 152.871 180.545C152.717 180.53 152.519 180.482 152.277 180.402C152.043 180.314 151.841 180.185 151.672 180.017C151.504 179.848 151.375 179.646 151.287 179.412C151.207 179.17 151.159 178.972 151.144 178.818C151.137 178.664 151.133 178.455 151.133 178.191L151.133 167.257C151.133 166.993 151.137 166.784 151.144 166.63C151.159 166.476 151.207 166.281 151.287 166.047C151.375 165.805 151.504 165.599 151.672 165.431C151.841 165.262 152.043 165.137 152.277 165.057C152.519 164.969 152.717 164.921 152.871 164.914C153.025 164.899 153.234 164.892 153.498 164.892H159.603C160.021 164.892 160.326 164.906 160.516 164.936C160.707 164.958 160.894 165.013 161.077 165.101C161.327 165.218 161.528 165.416 161.682 165.695C161.836 165.966 161.913 166.27 161.913 166.608C161.913 166.945 161.836 167.253 161.682 167.532C161.528 167.803 161.327 167.997 161.077 168.115C160.894 168.203 160.707 168.261 160.516 168.291C160.326 168.313 160.021 168.324 159.603 168.324H155.005L155.005 170.942H158.613C159.031 170.942 159.336 170.956 159.526 170.986C159.717 171.008 159.904 171.063 160.087 171.151C160.337 171.268 160.538 171.466 160.692 171.745C160.846 172.016 160.923 172.32 160.923 172.658C160.923 172.995 160.846 173.303 160.692 173.582C160.538 173.853 160.337 174.047 160.087 174.165C159.904 174.253 159.717 174.311 159.526 174.341C159.336 174.363 159.031 174.374 158.613 174.374H155.005L155.005 177.124H159.603C160.021 177.124 160.326 177.138 160.516 177.168C160.707 177.19 160.894 177.245 161.077 177.333C161.327 177.45 161.528 177.648 161.682 177.927C161.836 178.198 161.913 178.502 161.913 178.84C161.913 179.177 161.836 179.485 161.682 179.764C161.528 180.035 161.327 180.229 161.077 180.347C160.894 180.435 160.707 180.493 160.516 180.523C160.326 180.545 160.021 180.556 159.603 180.556ZM164.475 178.048L164.475 167.257C164.475 166.993 164.479 166.784 164.486 166.63C164.501 166.476 164.548 166.281 164.629 166.047C164.717 165.805 164.845 165.599 165.014 165.431C165.183 165.262 165.384 165.137 165.619 165.057C165.861 164.969 166.059 164.921 166.213 164.914C166.367 164.899 166.576 164.892 166.84 164.892H170.701C171.544 164.892 172.311 165.035 173 165.321C173.689 165.599 174.25 165.977 174.683 166.454C175.123 166.923 175.46 167.458 175.695 168.06C175.93 168.654 176.047 169.277 176.047 169.93C176.047 170.582 175.93 171.209 175.695 171.811C175.46 172.405 175.123 172.94 174.683 173.417C174.25 173.886 173.689 174.264 173 174.55C172.311 174.828 171.544 174.968 170.701 174.968H168.347L168.347 178.048C168.347 178.524 168.332 178.865 168.303 179.071C168.281 179.269 168.215 179.478 168.105 179.698C167.966 179.976 167.742 180.204 167.434 180.38C167.133 180.556 166.792 180.644 166.411 180.644C166.03 180.644 165.685 180.556 165.377 180.38C165.076 180.204 164.856 179.976 164.717 179.698C164.607 179.478 164.537 179.269 164.508 179.071C164.486 178.865 164.475 178.524 164.475 178.048ZM168.347 171.536H170.525C171.031 171.536 171.434 171.378 171.735 171.063C172.043 170.74 172.197 170.362 172.197 169.93C172.197 169.497 172.043 169.123 171.735 168.808C171.434 168.485 171.031 168.324 170.525 168.324H168.347L168.347 171.536ZM190.104 178.048C190.104 178.524 190.089 178.865 190.06 179.071C190.038 179.269 189.972 179.478 189.862 179.698C189.723 179.976 189.499 180.204 189.191 180.38C188.89 180.556 188.549 180.644 188.168 180.644C187.787 180.644 187.442 180.556 187.134 180.38C186.833 180.204 186.613 179.976 186.474 179.698C186.364 179.478 186.294 179.269 186.265 179.071C186.243 178.865 186.232 178.524 186.232 178.048L186.232 174.352H182.14L182.14 178.048C182.14 178.524 182.125 178.865 182.096 179.071C182.074 179.269 182.008 179.478 181.898 179.698C181.759 179.976 181.535 180.204 181.227 180.38C180.926 180.556 180.585 180.644 180.204 180.644C179.823 180.644 179.478 180.556 179.17 180.38C178.869 180.204 178.649 179.976 178.51 179.698C178.4 179.478 178.33 179.269 178.301 179.071C178.279 178.865 178.268 178.524 178.268 178.048L178.268 167.4C178.268 166.923 178.279 166.586 178.301 166.388C178.33 166.182 178.4 165.97 178.51 165.75C178.649 165.471 178.869 165.244 179.17 165.068C179.478 164.892 179.823 164.804 180.204 164.804C180.585 164.804 180.926 164.892 181.227 165.068C181.535 165.244 181.759 165.471 181.898 165.75C182.008 165.97 182.074 166.182 182.096 166.388C182.125 166.586 182.14 166.923 182.14 167.4L182.14 170.92H186.232L186.232 167.4C186.232 166.923 186.243 166.586 186.265 166.388C186.294 166.182 186.364 165.97 186.474 165.75C186.613 165.471 186.833 165.244 187.134 165.068C187.442 164.892 187.787 164.804 188.168 164.804C188.549 164.804 188.89 164.892 189.191 165.068C189.499 165.244 189.723 165.471 189.862 165.75C189.972 165.97 190.038 166.182 190.06 166.388C190.089 166.586 190.104 166.923 190.104 167.4L190.104 178.048ZM192.429 177.608L196.609 166.509C196.844 165.893 197.112 165.467 197.412 165.233C197.772 164.947 198.226 164.804 198.776 164.804C199.326 164.804 199.781 164.947 200.14 165.233C200.441 165.467 200.709 165.893 200.943 166.509L205.123 177.608C205.27 178.004 205.369 178.315 205.42 178.543C205.479 178.763 205.479 179.016 205.42 179.302C205.369 179.58 205.226 179.837 204.991 180.072C204.61 180.453 204.148 180.644 203.605 180.644C203.165 180.644 202.802 180.512 202.516 180.248C202.355 180.101 202.223 179.936 202.12 179.753C202.025 179.569 201.904 179.272 201.757 178.862L201.526 178.224H196.026L195.795 178.862C195.649 179.272 195.524 179.569 195.421 179.753C195.326 179.936 195.198 180.101 195.036 180.248C194.75 180.512 194.387 180.644 193.947 180.644C193.405 180.644 192.943 180.453 192.561 180.072C192.327 179.837 192.18 179.58 192.121 179.302C192.07 179.016 192.07 178.763 192.121 178.543C192.18 178.315 192.283 178.004 192.429 177.608ZM200.36 175.012L198.776 170.656L197.192 175.012H200.36ZM214.747 178.048L214.747 174.968H213.174L210.82 179.104C210.681 179.346 210.564 179.54 210.468 179.687C210.373 179.826 210.245 179.98 210.083 180.149C209.929 180.317 209.753 180.442 209.555 180.523C209.365 180.603 209.152 180.644 208.917 180.644C208.595 180.644 208.272 180.552 207.949 180.369C207.319 180.009 207.003 179.5 207.003 178.84C207.003 178.605 207.044 178.378 207.124 178.158C207.205 177.938 207.355 177.633 207.575 177.245L209.335 174.165C208.602 173.71 208.037 173.105 207.641 172.35C207.245 171.594 207.047 170.788 207.047 169.93C207.047 169.277 207.165 168.654 207.399 168.06C207.634 167.458 207.968 166.923 208.4 166.454C208.84 165.977 209.405 165.599 210.094 165.321C210.784 165.035 211.55 164.892 212.393 164.892H216.254C216.518 164.892 216.727 164.899 216.881 164.914C217.035 164.921 217.23 164.969 217.464 165.057C217.706 165.137 217.912 165.262 218.08 165.431C218.249 165.599 218.374 165.805 218.454 166.047C218.542 166.281 218.59 166.476 218.597 166.63C218.612 166.784 218.619 166.993 218.619 167.257L218.619 178.048C218.619 178.524 218.605 178.865 218.575 179.071C218.553 179.269 218.487 179.478 218.377 179.698C218.238 179.976 218.014 180.204 217.706 180.38C217.406 180.556 217.065 180.644 216.683 180.644C216.302 180.644 215.957 180.556 215.649 180.38C215.349 180.204 215.129 179.976 214.989 179.698C214.879 179.478 214.81 179.269 214.78 179.071C214.758 178.865 214.747 178.524 214.747 178.048ZM214.747 171.536L214.747 168.324H212.569C212.063 168.324 211.656 168.485 211.348 168.808C211.048 169.123 210.897 169.497 210.897 169.93C210.897 170.362 211.048 170.74 211.348 171.063C211.656 171.378 212.063 171.536 212.569 171.536H214.747ZM63.1367 206.048L63.1367 196.324H61.5197C61.1017 196.324 60.7973 196.313 60.6067 196.291C60.416 196.261 60.229 196.203 60.0457 196.115C59.7963 195.997 59.5947 195.803 59.4407 195.532C59.2867 195.253 59.2097 194.945 59.2097 194.608C59.2097 194.27 59.2867 193.966 59.4407 193.695C59.5947 193.416 59.7963 193.218 60.0457 193.101C60.229 193.013 60.416 192.958 60.6067 192.936C60.7973 192.906 61.1017 192.892 61.5197 192.892H68.6257C69.0437 192.892 69.348 192.906 69.5387 192.936C69.7293 192.958 69.9163 193.013 70.0997 193.101C70.349 193.218 70.5507 193.416 70.7047 193.695C70.8587 193.966 70.9357 194.27 70.9357 194.608C70.9357 194.945 70.8587 195.253 70.7047 195.532C70.5507 195.803 70.349 195.997 70.0997 196.115C69.9163 196.203 69.7293 196.261 69.5387 196.291C69.348 196.313 69.0437 196.324 68.6257 196.324H67.0087L67.0087 206.048C67.0087 206.524 66.994 206.865 66.9647 207.071C66.9427 207.269 66.8767 207.478 66.7667 207.698C66.6273 207.976 66.4037 208.204 66.0957 208.38C65.795 208.556 65.454 208.644 65.0727 208.644C64.6913 208.644 64.3467 208.556 64.0387 208.38C63.738 208.204 63.518 207.976 63.3787 207.698C63.2687 207.478 63.199 207.269 63.1697 207.071C63.1477 206.865 63.1367 206.524 63.1367 206.048ZM82.3133 206.972C81.7339 207.551 81.0923 207.984 80.3883 208.27C79.6916 208.548 78.8776 208.688 77.9463 208.688C77.0149 208.688 76.1973 208.548 75.4933 208.27C74.7966 207.984 74.1586 207.551 73.5793 206.972C73.2713 206.664 73.0109 206.319 72.7983 205.938C72.5856 205.556 72.4243 205.201 72.3143 204.871C72.2116 204.533 72.1309 204.104 72.0723 203.584C72.0209 203.056 71.9879 202.616 71.9733 202.264C71.9659 201.904 71.9623 201.391 71.9623 200.724C71.9623 200.056 71.9659 199.547 71.9733 199.195C71.9879 198.835 72.0209 198.395 72.0723 197.875C72.1309 197.347 72.2116 196.918 72.3143 196.588C72.4243 196.25 72.5856 195.891 72.7983 195.51C73.0109 195.128 73.2713 194.784 73.5793 194.476C74.1586 193.896 74.7966 193.467 75.4933 193.189C76.1973 192.903 77.0149 192.76 77.9463 192.76C78.8776 192.76 79.6916 192.903 80.3883 193.189C81.0923 193.467 81.7339 193.896 82.3133 194.476C82.6213 194.784 82.8816 195.128 83.0943 195.51C83.3069 195.891 83.4646 196.25 83.5673 196.588C83.6773 196.918 83.7579 197.347 83.8093 197.875C83.8679 198.395 83.9009 198.835 83.9083 199.195C83.9229 199.547 83.9303 200.056 83.9303 200.724C83.9303 201.391 83.9229 201.904 83.9083 202.264C83.9009 202.616 83.8679 203.056 83.8093 203.584C83.7579 204.104 83.6773 204.533 83.5673 204.871C83.4646 205.201 83.3069 205.556 83.0943 205.938C82.8816 206.319 82.6213 206.664 82.3133 206.972ZM79.4863 204.552C79.6916 204.28 79.8383 203.903 79.9263 203.419C80.0143 202.935 80.0583 202.036 80.0583 200.724C80.0583 199.411 80.0143 198.509 79.9263 198.018C79.8383 197.519 79.6916 197.138 79.4863 196.874C79.3323 196.676 79.1196 196.514 78.8483 196.39C78.5843 196.258 78.2836 196.192 77.9463 196.192C77.6089 196.192 77.3046 196.258 77.0333 196.39C76.7693 196.514 76.5603 196.676 76.4063 196.874C76.2009 197.138 76.0543 197.519 75.9663 198.018C75.8783 198.509 75.8343 199.411 75.8343 200.724C75.8343 202.036 75.8783 202.935 75.9663 203.419C76.0543 203.903 76.2009 204.28 76.4063 204.552C76.7656 205.021 77.2789 205.256 77.9463 205.256C78.6136 205.256 79.1269 205.021 79.4863 204.552ZM86.5405 206.048L86.5405 195.158C86.5405 194.71 86.5772 194.347 86.6505 194.069C86.7312 193.783 86.8815 193.53 87.1015 193.31C87.4462 192.965 87.8789 192.793 88.3995 192.793C88.8542 192.793 89.2319 192.895 89.5325 193.101C89.8479 193.313 90.1632 193.68 90.4785 194.201L93.8665 199.976L97.2545 194.201C97.5699 193.68 97.8852 193.313 98.2005 193.101C98.5012 192.895 98.8789 192.793 99.3335 192.793C99.8542 192.793 100.287 192.965 100.632 193.31C100.852 193.53 100.998 193.783 101.072 194.069C101.152 194.347 101.193 194.71 101.193 195.158L101.193 206.048C101.193 206.524 101.178 206.865 101.149 207.071C101.127 207.269 101.061 207.478 100.951 207.698C100.811 207.976 100.588 208.204 100.28 208.38C99.9789 208.556 99.6379 208.644 99.2565 208.644C98.8752 208.644 98.5305 208.556 98.2225 208.38C97.9219 208.204 97.7019 207.976 97.5625 207.698C97.4525 207.478 97.3829 207.269 97.3535 207.071C97.3315 206.865 97.3205 206.524 97.3205 206.048L97.3205 201.054L95.5275 204.156C95.3075 204.537 95.0765 204.812 94.8345 204.981C94.5925 205.149 94.2699 205.234 93.8665 205.234C93.4632 205.234 93.1405 205.149 92.8985 204.981C92.6565 204.812 92.4255 204.537 92.2055 204.156L90.4125 201.054L90.4125 206.048C90.4125 206.524 90.3979 206.865 90.3685 207.071C90.3465 207.269 90.2805 207.478 90.1705 207.698C90.0312 207.976 89.8075 208.204 89.4995 208.38C89.1989 208.556 88.8579 208.644 88.4765 208.644C88.0952 208.644 87.7505 208.556 87.4425 208.38C87.1419 208.204 86.9219 207.976 86.7825 207.698C86.6725 207.478 86.6029 207.269 86.5735 207.071C86.5515 206.865 86.5405 206.524 86.5405 206.048ZM114.153 206.972C113.574 207.551 112.932 207.984 112.228 208.27C111.531 208.548 110.717 208.688 109.786 208.688C108.855 208.688 108.037 208.548 107.333 208.27C106.636 207.984 105.998 207.551 105.419 206.972C105.111 206.664 104.851 206.319 104.638 205.938C104.425 205.556 104.264 205.201 104.154 204.871C104.051 204.533 103.971 204.104 103.912 203.584C103.861 203.056 103.828 202.616 103.813 202.264C103.806 201.904 103.802 201.391 103.802 200.724C103.802 200.056 103.806 199.547 103.813 199.195C103.828 198.835 103.861 198.395 103.912 197.875C103.971 197.347 104.051 196.918 104.154 196.588C104.264 196.25 104.425 195.891 104.638 195.51C104.851 195.128 105.111 194.784 105.419 194.476C105.998 193.896 106.636 193.467 107.333 193.189C108.037 192.903 108.855 192.76 109.786 192.76C110.717 192.76 111.531 192.903 112.228 193.189C112.932 193.467 113.574 193.896 114.153 194.476C114.461 194.784 114.721 195.128 114.934 195.51C115.147 195.891 115.304 196.25 115.407 196.588C115.517 196.918 115.598 197.347 115.649 197.875C115.708 198.395 115.741 198.835 115.748 199.195C115.763 199.547 115.77 200.056 115.77 200.724C115.77 201.391 115.763 201.904 115.748 202.264C115.741 202.616 115.708 203.056 115.649 203.584C115.598 204.104 115.517 204.533 115.407 204.871C115.304 205.201 115.147 205.556 114.934 205.938C114.721 206.319 114.461 206.664 114.153 206.972ZM111.326 204.552C111.531 204.28 111.678 203.903 111.766 203.419C111.854 202.935 111.898 202.036 111.898 200.724C111.898 199.411 111.854 198.509 111.766 198.018C111.678 197.519 111.531 197.138 111.326 196.874C111.172 196.676 110.959 196.514 110.688 196.39C110.424 196.258 110.123 196.192 109.786 196.192C109.449 196.192 109.144 196.258 108.873 196.39C108.609 196.514 108.4 196.676 108.246 196.874C108.041 197.138 107.894 197.519 107.806 198.018C107.718 198.509 107.674 199.411 107.674 200.724C107.674 202.036 107.718 202.935 107.806 203.419C107.894 203.903 108.041 204.28 108.246 204.552C108.605 205.021 109.119 205.256 109.786 205.256C110.453 205.256 110.967 205.021 111.326 204.552ZM118.38 206.048L118.38 195.257C118.38 194.993 118.384 194.784 118.391 194.63C118.406 194.476 118.454 194.281 118.534 194.047C118.622 193.805 118.751 193.599 118.919 193.431C119.088 193.262 119.29 193.137 119.524 193.057C119.766 192.969 119.964 192.921 120.118 192.914C120.272 192.899 120.481 192.892 120.745 192.892H126.278C126.696 192.892 127.001 192.906 127.191 192.936C127.382 192.958 127.569 193.013 127.752 193.101C128.002 193.218 128.203 193.416 128.357 193.695C128.511 193.966 128.588 194.27 128.588 194.608C128.588 194.945 128.511 195.253 128.357 195.532C128.203 195.803 128.002 195.997 127.752 196.115C127.569 196.203 127.382 196.261 127.191 196.291C127.001 196.313 126.696 196.324 126.278 196.324H122.252L122.252 206.048C122.252 206.524 122.238 206.865 122.208 207.071C122.186 207.269 122.12 207.478 122.01 207.698C121.871 207.976 121.647 208.204 121.339 208.38C121.039 208.556 120.698 208.644 120.316 208.644C119.935 208.644 119.59 208.556 119.282 208.38C118.982 208.204 118.762 207.976 118.622 207.698C118.512 207.478 118.443 207.269 118.413 207.071C118.391 206.865 118.38 206.524 118.38 206.048ZM130.669 206.048L130.669 195.257C130.669 194.993 130.673 194.784 130.68 194.63C130.695 194.476 130.743 194.281 130.823 194.047C130.911 193.805 131.04 193.599 131.208 193.431C131.377 193.262 131.579 193.137 131.813 193.057C132.055 192.969 132.253 192.921 132.407 192.914C132.561 192.899 132.77 192.892 133.034 192.892H136.895C137.739 192.892 138.505 193.035 139.194 193.321C139.884 193.599 140.445 193.977 140.877 194.454C141.317 194.923 141.655 195.458 141.889 196.06C142.124 196.654 142.241 197.277 142.241 197.93C142.241 198.582 142.124 199.209 141.889 199.811C141.655 200.405 141.317 200.94 140.877 201.417C140.445 201.886 139.884 202.264 139.194 202.55C138.505 202.828 137.739 202.968 136.895 202.968H134.541L134.541 206.048C134.541 206.524 134.527 206.865 134.497 207.071C134.475 207.269 134.409 207.478 134.299 207.698C134.16 207.976 133.936 208.204 133.628 208.38C133.328 208.556 132.987 208.644 132.605 208.644C132.224 208.644 131.879 208.556 131.571 208.38C131.271 208.204 131.051 207.976 130.911 207.698C130.801 207.478 130.732 207.269 130.702 207.071C130.68 206.865 130.669 206.524 130.669 206.048ZM134.541 199.536H136.719C137.225 199.536 137.629 199.378 137.929 199.063C138.237 198.74 138.391 198.362 138.391 197.93C138.391 197.497 138.237 197.123 137.929 196.808C137.629 196.485 137.225 196.324 136.719 196.324H134.541L134.541 199.536ZM142.575 205.608L146.755 194.509C146.989 193.893 147.257 193.467 147.558 193.233C147.917 192.947 148.372 192.804 148.922 192.804C149.472 192.804 149.926 192.947 150.286 193.233C150.586 193.467 150.854 193.893 151.089 194.509L155.269 205.608C155.415 206.004 155.514 206.315 155.566 206.543C155.624 206.763 155.624 207.016 155.566 207.302C155.514 207.58 155.371 207.837 155.137 208.072C154.755 208.453 154.293 208.644 153.751 208.644C153.311 208.644 152.948 208.512 152.662 208.248C152.5 208.101 152.368 207.936 152.266 207.753C152.17 207.569 152.049 207.272 151.903 206.862L151.672 206.224H146.172L145.941 206.862C145.794 207.272 145.669 207.569 145.567 207.753C145.471 207.936 145.343 208.101 145.182 208.248C144.896 208.512 144.533 208.644 144.093 208.644C143.55 208.644 143.088 208.453 142.707 208.072C142.472 207.837 142.325 207.58 142.267 207.302C142.215 207.016 142.215 206.763 142.267 206.543C142.325 206.315 142.428 206.004 142.575 205.608ZM150.506 203.012L148.922 198.656L147.338 203.012H150.506ZM163.132 206.84L163.132 206.818C158.71 206.627 156.499 204.442 156.499 200.262C156.499 196.082 158.718 193.896 163.154 193.706L163.154 193.684C163.169 193.456 163.242 193.214 163.374 192.958C163.514 192.679 163.734 192.452 164.034 192.276C164.342 192.1 164.687 192.012 165.068 192.012C165.45 192.012 165.791 192.1 166.091 192.276C166.399 192.452 166.623 192.679 166.762 192.958C166.88 193.207 166.953 193.449 166.982 193.684L166.982 193.706C171.419 193.896 173.637 196.082 173.637 200.262C173.637 204.442 171.423 206.627 166.993 206.818L166.993 206.84C166.986 207.214 166.909 207.544 166.762 207.83C166.623 208.108 166.399 208.336 166.091 208.512C165.791 208.688 165.45 208.776 165.068 208.776C164.687 208.776 164.342 208.688 164.034 208.512C163.734 208.336 163.514 208.108 163.374 207.83C163.235 207.544 163.154 207.214 163.132 206.84ZM166.927 196.962L166.927 203.562C167.939 203.496 168.669 203.21 169.116 202.704C169.564 202.198 169.787 201.384 169.787 200.262C169.787 199.14 169.564 198.326 169.116 197.82C168.669 197.314 167.939 197.028 166.927 196.962ZM163.209 203.562L163.209 196.962C162.197 197.028 161.468 197.314 161.02 197.82C160.573 198.326 160.349 199.14 160.349 200.262C160.349 201.384 160.573 202.198 161.02 202.704C161.468 203.21 162.197 203.496 163.209 203.562ZM188.363 206.048C188.363 206.524 188.349 206.865 188.319 207.071C188.297 207.269 188.231 207.478 188.121 207.698C187.982 207.976 187.758 208.204 187.45 208.38C187.15 208.556 186.809 208.644 186.427 208.644C186.046 208.644 185.701 208.556 185.393 208.38C185.093 208.204 184.873 207.976 184.733 207.698C184.623 207.478 184.554 207.269 184.524 207.071C184.502 206.865 184.491 206.524 184.491 206.048L184.491 200.24L180.278 206.873C179.86 207.525 179.483 207.984 179.145 208.248C178.815 208.512 178.423 208.644 177.968 208.644C177.426 208.644 176.971 208.46 176.604 208.094C176.399 207.888 176.26 207.639 176.186 207.346C176.12 207.052 176.087 206.689 176.087 206.257L176.087 195.4C176.087 194.923 176.098 194.586 176.12 194.388C176.15 194.182 176.219 193.97 176.329 193.75C176.469 193.471 176.689 193.244 176.989 193.068C177.297 192.892 177.642 192.804 178.023 192.804C178.405 192.804 178.746 192.892 179.046 193.068C179.354 193.244 179.578 193.471 179.717 193.75C179.827 193.97 179.893 194.182 179.915 194.388C179.945 194.586 179.959 194.923 179.959 195.4L179.959 201.208L184.172 194.575C184.59 193.922 184.964 193.464 185.294 193.2C185.632 192.936 186.028 192.804 186.482 192.804C187.025 192.804 187.48 192.987 187.846 193.354C188.052 193.559 188.187 193.808 188.253 194.102C188.327 194.395 188.363 194.758 188.363 195.191L188.363 206.048ZM198.774 206.048L198.774 202.968H197.201L194.847 207.104C194.707 207.346 194.59 207.54 194.495 207.687C194.399 207.826 194.271 207.98 194.11 208.149C193.956 208.317 193.78 208.442 193.582 208.523C193.391 208.603 193.178 208.644 192.944 208.644C192.621 208.644 192.298 208.552 191.976 208.369C191.345 208.009 191.03 207.5 191.03 206.84C191.03 206.605 191.07 206.378 191.151 206.158C191.231 205.938 191.382 205.633 191.602 205.245L193.362 202.165C192.628 201.71 192.064 201.105 191.668 200.35C191.272 199.594 191.074 198.788 191.074 197.93C191.074 197.277 191.191 196.654 191.426 196.06C191.66 195.458 191.994 194.923 192.427 194.454C192.867 193.977 193.431 193.599 194.121 193.321C194.81 193.035 195.576 192.892 196.42 192.892H200.281C200.545 192.892 200.754 192.899 200.908 192.914C201.062 192.921 201.256 192.969 201.491 193.057C201.733 193.137 201.938 193.262 202.107 193.431C202.275 193.599 202.4 193.805 202.481 194.047C202.569 194.281 202.616 194.476 202.624 194.63C202.638 194.784 202.646 194.993 202.646 195.257L202.646 206.048C202.646 206.524 202.631 206.865 202.602 207.071C202.58 207.269 202.514 207.478 202.404 207.698C202.264 207.976 202.041 208.204 201.733 208.38C201.432 208.556 201.091 208.644 200.71 208.644C200.328 208.644 199.984 208.556 199.676 208.38C199.375 208.204 199.155 207.976 199.016 207.698C198.906 207.478 198.836 207.269 198.807 207.071C198.785 206.865 198.774 206.524 198.774 206.048ZM198.774 199.536L198.774 196.324H196.596C196.09 196.324 195.683 196.485 195.375 196.808C195.074 197.123 194.924 197.497 194.924 197.93C194.924 198.362 195.074 198.74 195.375 199.063C195.683 199.378 196.09 199.536 196.596 199.536H198.774Z" fill="#4D4D4D"/>
<path fill-rule="evenodd" clip-rule="evenodd" d="M116.882 97.05L116.585 96.829C114.776 95.473 113.403 93.9359 112.029 92.0978C109.337 88.4973 107.153 83.2619 107.153 78.3641C107.153 73.4153 107.374 70.3478 109.545 65.9854C111.655 61.7473 113.985 59.0197 117.814 56.1543C121.819 53.1557 127.197 51.6786 132.512 51.6786C137.92 51.6786 142.649 53.781 145.941 55.9866C149.478 58.3566 152.405 61.714 154.311 65.5556C157.032 71.0353 156.915 74.5492 156.915 80.7753C156.915 86.777 156.915 92.7786 156.915 98.7803C156.949 98.7615 156.965 98.7337 157.018 98.7237C157.559 98.6226 159.785 95.1742 159.997 94.8144C164.08 87.8876 165.05 83.8072 165.05 75.3111C165.05 70.6188 163.391 65.5333 161.807 62.3437C159.94 58.5876 158.726 56.7663 156.076 53.9742L152.969 50.9956C151.575 49.7439 149.899 48.6378 148.254 47.7104C146.629 46.7942 144.495 45.7602 142.661 45.1494C139.409 44.0654 134.111 42.9715 130.715 43.4379C129.196 43.6467 128.684 43.4224 125.538 44.0077C121.906 44.6829 118.917 45.979 115.817 47.7126C109.783 51.0889 106.05 55.4069 102.739 61.3775C101.007 64.4983 99.9617 67.9445 99.359 71.474C98.6328 75.7265 98.9072 81.3539 99.9199 85.1744C101.189 89.9566 103.86 95.6096 107.195 99.0613C108.603 100.52 109.04 101.28 111.071 102.871C113.153 104.5 114.808 105.693 116.883 106.756V97.0511L116.882 97.05Z" fill="#4D4D4D"/>
<path fill-rule="evenodd" clip-rule="evenodd" d="M114.375 98.2999C112.704 96.9338 111.339 95.3757 110.027 93.6187C106.89 89.4228 104.646 83.6633 104.646 78.3646C104.646 73.137 104.936 69.613 107.305 64.853C109.596 60.2507 112.224 57.1921 116.32 54.1257C120.902 50.6973 126.862 49.1513 132.514 49.1513C137.783 49.1513 142.967 50.9571 147.331 53.8825C151.24 56.5013 154.457 60.1962 156.557 64.4243C159.496 70.3471 159.425 74.3531 159.425 80.7757C159.425 84.0697 159.425 87.3638 159.425 90.6578C161.994 85.6068 162.543 81.8919 162.543 75.3093C162.543 71.4633 161.261 66.8854 159.566 63.4725C157.97 60.2618 156.749 58.3426 154.305 55.7616L151.273 52.854C150.003 51.7201 148.509 50.7472 147.032 49.9143C145.439 49.0169 143.608 48.124 141.875 47.5465C138.992 46.5847 134.068 45.5252 131.055 45.9394C130.614 45.9994 130.177 46.0372 129.733 46.0594C128.409 46.1271 127.311 46.2449 125.993 46.4903C122.717 47.0989 119.927 48.3006 117.034 49.9198C111.451 53.044 108.014 57.0444 104.927 62.6085C103.334 65.4816 102.382 68.669 101.83 71.9009C101.189 75.6525 101.369 80.8512 102.342 84.5195C103.476 88.7942 105.911 94.1074 108.991 97.297C110.278 98.6286 111.111 99.7004 112.609 100.874C113.197 101.335 113.782 101.784 114.374 102.216V98.2999H114.375Z" fill="#FEFEFE"/>
<path fill-rule="evenodd" clip-rule="evenodd" d="M116.882 89.1326C116.32 88.4451 115.841 87.8021 115.51 87.3034C110.859 80.3244 111.552 70.8743 116.79 64.124C117.524 63.1789 118.518 62.3404 119.157 61.6874C119.595 61.2398 119.936 60.9688 120.46 60.589C121.526 59.8138 122.261 59.4229 123.475 58.8065C128.879 56.0611 135.273 56.1866 140.706 58.8553L143.75 60.7722C144.252 61.1565 146.231 62.6936 146.231 63.2544V151.191C147.999 151.191 151.914 151.381 153.409 151.03C153.409 137.258 153.409 89.2425 153.409 75.4711C153.409 71.9682 153.145 70.0946 151.602 67.0038C149.378 62.5514 145.862 58.7176 141.285 56.6641C132.354 52.6582 123.229 54.4429 116.365 61.2831C109.347 68.2766 108.147 80.1545 113.852 88.8138C115.289 90.994 115.414 90.7618 116.47 92.1245C116.607 92.3022 116.744 92.4322 116.884 92.5488V89.1326H116.882Z" fill="#4D4D4D"/>
<path fill-rule="evenodd" clip-rule="evenodd" d="M148.737 68.6526V148.7C149.054 148.705 149.37 148.709 149.686 148.712C150.019 148.714 150.449 148.72 150.899 148.718C150.899 124.802 150.899 100.887 150.899 76.9723C150.899 74.0025 150.721 72.4643 149.36 69.7926C149.164 69.4075 148.956 69.0268 148.737 68.6537V68.6526Z" fill="white"/>
<path fill-rule="evenodd" clip-rule="evenodd" d="M141.883 151.034V122.437C141.883 117.664 137.166 112.825 132.108 112.825C130.244 112.825 129.144 113.083 127.576 113.785C124.363 115.224 121.617 118.959 121.617 122.678V151.034H141.883Z" fill="#4D4D4D"/>
<path fill-rule="evenodd" clip-rule="evenodd" d="M139.375 148.507V122.438C139.375 118.887 135.603 115.354 132.107 115.354C130.684 115.354 129.885 115.517 128.594 116.095C126.23 117.154 124.124 120.022 124.124 122.679V148.508H139.375V148.507Z" fill="#FEFEFE"/>
<path fill-rule="evenodd" clip-rule="evenodd" d="M144.716 98.167C144.716 95.2983 144.738 94.12 143.448 91.5145C139.334 83.2072 128.989 81.4447 122.592 87.8839C116.338 94.1777 117.937 105.027 126.272 109.065C128.098 109.949 129.043 110.057 131.501 110.286C136.345 110.737 141.314 107.213 143.288 103.216C143.894 101.989 144.715 99.9906 144.715 98.1659L144.716 98.167Z" fill="#4D4D4D"/>
<path fill-rule="evenodd" clip-rule="evenodd" d="M142.208 98.1678C142.208 95.7577 142.287 94.8315 141.204 92.6447C137.912 85.9978 129.641 84.3619 124.364 89.6739C119.183 94.8893 120.773 103.599 127.359 106.789C128.957 107.563 129.963 107.607 131.732 107.771C135.387 108.111 139.457 105.304 141.044 102.092C141.593 100.981 142.209 99.4183 142.209 98.1678H142.208Z" fill="#FEFEFE"/>
<path d="M131.725 1.00411L131.449 0.84469L131.173 1.00411L66.4489 38.4337L66.7246 38.9105L66.4487 38.4338L1.72415 75.8909L1.44928 76.0499L1.44928 76.3675L1.44929 151.227L1.44929 226.113L1.44929 226.431L1.72416 226.59L66.4487 264.047L66.4489 264.047L131.173 301.477L131.449 301.636L131.725 301.477L196.449 264.047L196.45 264.047L261.174 226.59L261.449 226.431L261.449 226.113L261.449 151.227L261.449 76.3675L261.449 76.0499L261.174 75.8909L196.45 38.4338L196.174 38.9105L196.449 38.4337L131.725 1.00411Z" stroke="#024FA2" stroke-width="1.10141"/>
</svg>
