<svg width="48" height="39" viewBox="0 0 48 39" fill="none" xmlns="http://www.w3.org/2000/svg">
<path d="M14.0415 18.5713H38.1808C43.1809 18.5713 47.2343 22.6247 47.2343 27.6248C47.2343 32.6249 43.1809 36.6783 38.1808 36.6783H14.0415V18.5713Z" fill="#E4181F"/>
<path d="M25.9586 21.4657C25.9586 21.2404 26.0646 21.0335 26.2765 20.845C26.3999 20.7366 26.5392 20.6615 26.6944 20.6198C26.8512 20.5764 27.0406 20.5547 27.2625 20.5547C27.6462 20.5547 27.9574 20.6473 28.196 20.8325C28.4345 21.016 28.5538 21.2604 28.5538 21.5658C28.5538 21.7209 28.5138 21.8636 28.4337 21.9937C28.3553 22.1238 28.2518 22.2281 28.1234 22.3065C28.2685 22.3799 28.3845 22.485 28.4712 22.6219C28.5597 22.757 28.6039 22.9122 28.6039 23.0873C28.6039 23.416 28.4787 23.6805 28.2285 23.8807C27.9799 24.0792 27.6546 24.1785 27.2525 24.1785C27.0222 24.1785 26.8287 24.1576 26.6719 24.1159C26.515 24.0725 26.3749 23.9966 26.2514 23.8882C26.0379 23.698 25.9311 23.4911 25.9311 23.2675C25.9311 23.129 25.9711 23.0223 26.0512 22.9472C26.133 22.8704 26.2306 22.8321 26.344 22.8321C26.4508 22.8321 26.5501 22.8629 26.6418 22.9247C26.7069 22.9697 26.772 23.0531 26.837 23.1749C26.8838 23.2617 26.9405 23.3242 27.0072 23.3626C27.074 23.3993 27.1649 23.4177 27.28 23.4177C27.4218 23.4177 27.5311 23.3843 27.6078 23.3176C27.6846 23.2508 27.723 23.1641 27.723 23.0573C27.723 22.9422 27.6871 22.8513 27.6154 22.7845C27.5453 22.7161 27.4377 22.6819 27.2925 22.6819H27.2274C27.0806 22.6819 26.978 22.6677 26.9196 22.6394C26.8679 22.6143 26.8262 22.5743 26.7945 22.5192C26.7628 22.4625 26.747 22.3983 26.747 22.3265C26.747 22.2548 26.7628 22.1914 26.7945 22.1363C26.8262 22.0796 26.8679 22.0387 26.9196 22.0137C26.978 21.9854 27.0806 21.9712 27.2274 21.9712H27.2925C27.4126 21.9712 27.5077 21.9411 27.5778 21.8811C27.6479 21.8194 27.6829 21.7359 27.6829 21.6308C27.6829 21.5324 27.6471 21.454 27.5753 21.3956C27.5036 21.3355 27.4076 21.3055 27.2875 21.3055C27.1757 21.3055 27.0865 21.3247 27.0197 21.363C26.9547 21.3998 26.8988 21.4615 26.8521 21.5482C26.787 21.67 26.7219 21.7535 26.6569 21.7985C26.5651 21.8602 26.4683 21.8911 26.3666 21.8911C26.2564 21.8911 26.1605 21.8527 26.0788 21.776C25.9987 21.7009 25.9586 21.5975 25.9586 21.4657ZM29.587 24.1484H29.5169C29.4218 24.1484 29.3526 24.1459 29.3092 24.1409C29.2658 24.1343 29.2233 24.1209 29.1816 24.1009C29.1249 24.0742 29.079 24.03 29.0439 23.9683C29.0089 23.9049 28.9914 23.8348 28.9914 23.758C28.9914 23.6813 29.0089 23.612 29.0439 23.5503C29.079 23.4869 29.1249 23.4419 29.1816 23.4152C29.2467 23.3835 29.3493 23.3676 29.4894 23.3676C29.5895 23.3676 29.6613 23.3276 29.7046 23.2475L28.9488 21.2554C28.9155 21.1653 28.8921 21.0953 28.8788 21.0452C28.8671 20.9935 28.8671 20.9359 28.8788 20.8725C28.8921 20.8075 28.9255 20.7482 28.9789 20.6949C29.0656 20.6081 29.1707 20.5647 29.2942 20.5647C29.3943 20.5647 29.4769 20.5947 29.542 20.6548C29.577 20.6865 29.6054 20.7232 29.627 20.7649C29.6487 20.805 29.6779 20.8734 29.7146 20.9701L30.1376 22.1188L30.5605 20.9701C30.5972 20.8734 30.6264 20.805 30.6481 20.7649C30.6698 20.7232 30.6982 20.6865 30.7332 20.6548C30.7983 20.5947 30.8809 20.5647 30.981 20.5647C31.1044 20.5647 31.2095 20.6081 31.2963 20.6949C31.3497 20.7482 31.3822 20.8075 31.3939 20.8725C31.4072 20.9359 31.4072 20.9935 31.3939 21.0452C31.3822 21.0953 31.3597 21.1653 31.3263 21.2554L30.518 23.4177C30.4329 23.6446 30.3128 23.8231 30.1576 23.9532C30.0024 24.0834 29.8122 24.1484 29.587 24.1484ZM33.333 24.1484H32.3945C32.3345 24.1484 32.2869 24.1476 32.2519 24.1459C32.2168 24.1426 32.1718 24.1318 32.1167 24.1134C32.0634 24.0934 32.0175 24.0642 31.9791 24.0258C31.9407 23.9874 31.9115 23.9416 31.8915 23.8882C31.8732 23.8331 31.8623 23.7881 31.859 23.753C31.8573 23.718 31.8565 23.6704 31.8565 23.6104V21.1228C31.8565 21.0627 31.8573 21.0152 31.859 20.9801C31.8623 20.9451 31.8732 20.9009 31.8915 20.8475C31.9115 20.7925 31.9407 20.7457 31.9791 20.7074C32.0175 20.669 32.0634 20.6406 32.1167 20.6223C32.1718 20.6023 32.2168 20.5914 32.2519 20.5897C32.2869 20.5864 32.3345 20.5847 32.3945 20.5847H33.7885C33.8836 20.5847 33.9528 20.5881 33.9962 20.5947C34.0396 20.5998 34.0821 20.6123 34.1238 20.6323C34.1806 20.659 34.2264 20.704 34.2615 20.7674C34.2965 20.8292 34.314 20.8984 34.314 20.9751C34.314 21.0519 34.2965 21.122 34.2615 21.1854C34.2264 21.2471 34.1806 21.2913 34.1238 21.318C34.0821 21.338 34.0396 21.3514 33.9962 21.358C33.9528 21.363 33.8836 21.3655 33.7885 21.3655H32.7374V21.8561H33.333C33.7001 21.8561 33.9904 21.9628 34.2039 22.1764C34.4175 22.3883 34.5242 22.6636 34.5242 23.0022C34.5242 23.3426 34.4175 23.6187 34.2039 23.8306C33.992 24.0425 33.7017 24.1484 33.333 24.1484ZM32.7374 23.3676H33.293C33.4014 23.3676 33.4873 23.3334 33.5507 23.265C33.6158 23.1966 33.6483 23.109 33.6483 23.0022C33.6483 22.8971 33.6158 22.8112 33.5507 22.7445C33.4873 22.6761 33.4014 22.6419 33.293 22.6419H32.7374V23.3676ZM37.9843 23.5778V21.1553C37.9843 21.0469 37.9868 20.9701 37.9918 20.9251C37.9985 20.8784 38.0143 20.83 38.0393 20.7799C38.071 20.7165 38.1211 20.6648 38.1895 20.6248C38.2596 20.5847 38.338 20.5647 38.4247 20.5647C38.5115 20.5647 38.5891 20.5847 38.6575 20.6248C38.7275 20.6648 38.7784 20.7165 38.8101 20.7799C38.8352 20.83 38.8502 20.8784 38.8552 20.9251C38.8619 20.9701 38.8652 21.0469 38.8652 21.1553V23.5778C38.8652 23.6863 38.8619 23.7639 38.8552 23.8106C38.8502 23.8556 38.8352 23.9032 38.8101 23.9532C38.7784 24.0166 38.7275 24.0684 38.6575 24.1084C38.5891 24.1484 38.5115 24.1685 38.4247 24.1685C38.338 24.1685 38.2596 24.1484 38.1895 24.1084C38.1211 24.0684 38.071 24.0166 38.0393 23.9532C38.0143 23.9032 37.9985 23.8556 37.9918 23.8106C37.9868 23.7639 37.9843 23.6863 37.9843 23.5778ZM36.4452 24.1484H35.5668C35.5067 24.1484 35.4592 24.1476 35.4241 24.1459C35.3891 24.1426 35.344 24.1318 35.289 24.1134C35.2356 24.0934 35.1897 24.0642 35.1513 24.0258C35.113 23.9874 35.0838 23.9416 35.0637 23.8882C35.0454 23.8331 35.0345 23.7881 35.0312 23.753C35.0295 23.718 35.0287 23.6704 35.0287 23.6104V21.1553C35.0287 21.0469 35.0312 20.9701 35.0362 20.9251C35.0429 20.8784 35.0587 20.83 35.0838 20.7799C35.1155 20.7165 35.1655 20.6648 35.2339 20.6248C35.304 20.5847 35.3824 20.5647 35.4692 20.5647C35.5559 20.5647 35.6335 20.5847 35.7019 20.6248C35.772 20.6648 35.8229 20.7165 35.8546 20.7799C35.8796 20.83 35.8946 20.8784 35.8996 20.9251C35.9063 20.9701 35.9096 21.0469 35.9096 21.1553V21.8561H36.4452C36.637 21.8561 36.8114 21.8886 36.9682 21.9537C37.1251 22.0171 37.2527 22.103 37.3511 22.2114C37.4512 22.3182 37.528 22.44 37.5814 22.5768C37.6347 22.7119 37.6614 22.8538 37.6614 23.0022C37.6614 23.1507 37.6347 23.2934 37.5814 23.4302C37.528 23.5653 37.4512 23.6871 37.3511 23.7956C37.2527 23.9023 37.1251 23.9883 36.9682 24.0533C36.8114 24.1167 36.637 24.1484 36.4452 24.1484ZM35.9096 23.3676H36.4051C36.5203 23.3676 36.612 23.3318 36.6804 23.26C36.7505 23.1866 36.7855 23.1007 36.7855 23.0022C36.7855 22.9038 36.7505 22.8187 36.6804 22.747C36.612 22.6736 36.5203 22.6369 36.4051 22.6369H35.9096V23.3676ZM28.1809 28.5778V26.3655H27.5603V27.2965C27.5603 27.5935 27.5444 27.8488 27.5127 28.0623C27.4827 28.2759 27.4385 28.4527 27.3801 28.5929C27.3234 28.733 27.2466 28.844 27.1499 28.9257C27.0548 29.0075 26.9488 29.065 26.832 29.0984C26.7153 29.1318 26.5759 29.1484 26.4141 29.1484C26.3023 29.1484 26.2231 29.1459 26.1764 29.1409C26.1296 29.1343 26.0854 29.1209 26.0437 29.1009C25.9887 29.0742 25.9428 29.0291 25.9061 28.9657C25.871 28.9023 25.8535 28.8323 25.8535 28.7555C25.8535 28.6387 25.8902 28.5436 25.9636 28.4702C26.0287 28.4052 26.1246 28.3701 26.2514 28.3651C26.3148 28.3618 26.3707 28.3476 26.4191 28.3226C26.4675 28.2959 26.5075 28.2642 26.5392 28.2275C26.5726 28.1891 26.6001 28.1382 26.6218 28.0748C26.6452 28.0114 26.6627 27.9522 26.6744 27.8971C26.6861 27.8421 26.6952 27.7712 26.7019 27.6844C26.7086 27.5977 26.7119 27.5243 26.7119 27.4642C26.7136 27.4041 26.7144 27.3265 26.7144 27.2314V26.1228C26.7144 26.0627 26.7153 26.0152 26.7169 25.9801C26.7203 25.9451 26.7311 25.9009 26.7495 25.8475C26.7695 25.7925 26.7987 25.7457 26.837 25.7074C26.8754 25.669 26.9213 25.6406 26.9747 25.6223C27.0297 25.6023 27.0748 25.5914 27.1098 25.5897C27.1449 25.5864 27.1924 25.5847 27.2525 25.5847H28.5238C28.5839 25.5847 28.6314 25.5864 28.6664 25.5897C28.7015 25.5914 28.7457 25.6023 28.7991 25.6223C28.8541 25.6406 28.9009 25.669 28.9392 25.7074C28.9776 25.7457 29.006 25.7925 29.0243 25.8475C29.0443 25.9009 29.0552 25.9451 29.0568 25.9801C29.0602 26.0152 29.0619 26.0627 29.0619 26.1228V28.5778C29.0619 28.6863 29.0585 28.7639 29.0518 28.8106C29.0468 28.8556 29.0318 28.9032 29.0068 28.9532C28.9751 29.0166 28.9242 29.0684 28.8541 29.1084C28.7857 29.1484 28.7082 29.1685 28.6214 29.1685C28.5346 29.1685 28.4562 29.1484 28.3862 29.1084C28.3177 29.0684 28.2677 29.0166 28.236 28.9532C28.211 28.9032 28.1951 28.8556 28.1884 28.8106C28.1834 28.7639 28.1809 28.6863 28.1809 28.5778ZM31.7012 29.1484H30.3123C30.2522 29.1484 30.2047 29.1476 30.1696 29.1459C30.1346 29.1426 30.0896 29.1318 30.0345 29.1134C29.9811 29.0934 29.9352 29.0642 29.8969 29.0258C29.8585 28.9874 29.8293 28.9416 29.8093 28.8882C29.7909 28.8331 29.7801 28.7881 29.7767 28.753C29.7751 28.718 29.7742 28.6704 29.7742 28.6104V26.1228C29.7742 26.0627 29.7751 26.0152 29.7767 25.9801C29.7801 25.9451 29.7909 25.9009 29.8093 25.8475C29.8293 25.7925 29.8585 25.7457 29.8969 25.7074C29.9352 25.669 29.9811 25.6406 30.0345 25.6223C30.0896 25.6023 30.1346 25.5914 30.1696 25.5897C30.2047 25.5864 30.2522 25.5847 30.3123 25.5847H31.7012C31.7963 25.5847 31.8656 25.5881 31.9089 25.5947C31.9523 25.5998 31.9949 25.6123 32.0366 25.6323C32.0933 25.659 32.1392 25.704 32.1742 25.7674C32.2093 25.8292 32.2268 25.8984 32.2268 25.9751C32.2268 26.0519 32.2093 26.122 32.1742 26.1854C32.1392 26.2471 32.0933 26.2913 32.0366 26.318C31.9949 26.338 31.9523 26.3514 31.9089 26.358C31.8656 26.363 31.7963 26.3655 31.7012 26.3655H30.6551V26.9612H31.476C31.5711 26.9612 31.6403 26.9645 31.6837 26.9712C31.7271 26.9762 31.7696 26.9887 31.8113 27.0087C31.8681 27.0354 31.914 27.0805 31.949 27.1439C31.984 27.2056 32.0015 27.2748 32.0015 27.3516C32.0015 27.4283 31.984 27.4984 31.949 27.5618C31.914 27.6235 31.8681 27.6677 31.8113 27.6944C31.7696 27.7144 31.7271 27.7278 31.6837 27.7345C31.6403 27.7395 31.5711 27.742 31.476 27.742H30.6551V28.3676H31.7012C31.7963 28.3676 31.8656 28.371 31.9089 28.3776C31.9523 28.3826 31.9949 28.3952 32.0366 28.4152C32.0933 28.4419 32.1392 28.4869 32.1742 28.5503C32.2093 28.612 32.2268 28.6813 32.2268 28.758C32.2268 28.8348 32.2093 28.9049 32.1742 28.9683C32.1392 29.03 32.0933 29.0742 32.0366 29.1009C31.9949 29.1209 31.9523 29.1343 31.9089 29.1409C31.8656 29.1459 31.7963 29.1484 31.7012 29.1484ZM34.4763 28.5778V27.8821C34.191 27.9322 33.9216 27.9572 33.668 27.9572C33.5012 27.9572 33.3477 27.9247 33.2075 27.8596C33.069 27.7945 32.9556 27.6961 32.8672 27.5643C32.7787 27.4308 32.7345 27.2765 32.7345 27.1013V26.1553C32.7345 26.0469 32.737 25.9701 32.742 25.9251C32.7487 25.8784 32.7646 25.83 32.7896 25.7799C32.8213 25.7165 32.8713 25.6648 32.9397 25.6248C33.0098 25.5847 33.0882 25.5647 33.175 25.5647C33.2617 25.5647 33.3393 25.5847 33.4077 25.6248C33.4778 25.6648 33.5287 25.7165 33.5604 25.7799C33.5854 25.83 33.6004 25.8784 33.6054 25.9251C33.6121 25.9701 33.6154 26.0469 33.6154 26.1553V26.8561C33.6154 26.9562 33.6438 27.0337 33.7005 27.0888C33.7589 27.1439 33.8415 27.1714 33.9483 27.1714C34.1335 27.1714 34.3095 27.1564 34.4763 27.1263V26.1553C34.4763 26.0469 34.4788 25.9701 34.4838 25.9251C34.4905 25.8784 34.5064 25.83 34.5314 25.7799C34.5631 25.7165 34.6131 25.6648 34.6816 25.6248C34.7516 25.5847 34.83 25.5647 34.9168 25.5647C35.0036 25.5647 35.0811 25.5847 35.1495 25.6248C35.2196 25.6648 35.2705 25.7165 35.3022 25.7799C35.3272 25.83 35.3422 25.8784 35.3472 25.9251C35.3539 25.9701 35.3573 26.0469 35.3573 26.1553V28.5778C35.3573 28.6863 35.3539 28.7639 35.3472 28.8106C35.3422 28.8556 35.3272 28.9032 35.3022 28.9532C35.2705 29.0166 35.2196 29.0684 35.1495 29.1084C35.0811 29.1484 35.0036 29.1685 34.9168 29.1685C34.83 29.1685 34.7516 29.1484 34.6816 29.1084C34.6131 29.0684 34.5631 29.0166 34.5314 28.9532C34.5064 28.9032 34.4905 28.8556 34.4838 28.8106C34.4788 28.7639 34.4763 28.6863 34.4763 28.5778ZM35.8896 28.4777L36.8406 25.9526C36.894 25.8125 36.9549 25.7157 37.0233 25.6623C37.1051 25.5973 37.2085 25.5647 37.3336 25.5647C37.4588 25.5647 37.5622 25.5973 37.644 25.6623C37.7124 25.7157 37.7733 25.8125 37.8267 25.9526L38.7776 28.4777C38.811 28.5678 38.8335 28.6387 38.8452 28.6905C38.8586 28.7405 38.8586 28.7981 38.8452 28.8631C38.8335 28.9265 38.801 28.9849 38.7476 29.0383C38.6609 29.1251 38.5557 29.1685 38.4323 29.1685C38.3322 29.1685 38.2496 29.1384 38.1845 29.0784C38.1478 29.045 38.1178 29.0075 38.0944 28.9657C38.0727 28.924 38.0452 28.8565 38.0118 28.763L37.9593 28.6179H36.708L36.6554 28.763C36.6221 28.8565 36.5937 28.924 36.5703 28.9657C36.5487 29.0075 36.5195 29.045 36.4828 29.0784C36.4177 29.1384 36.3351 29.1685 36.235 29.1685C36.1115 29.1685 36.0064 29.1251 35.9197 29.0383C35.8663 28.9849 35.8329 28.9265 35.8196 28.8631C35.8079 28.7981 35.8079 28.7405 35.8196 28.6905C35.8329 28.6387 35.8563 28.5678 35.8896 28.4777ZM37.694 27.8871L37.3336 26.8961L36.9733 27.8871H37.694ZM39.6168 28.5778V26.3655H39.2489C39.1538 26.3655 39.0845 26.363 39.0412 26.358C38.9978 26.3514 38.9552 26.338 38.9135 26.318C38.8568 26.2913 38.8109 26.2471 38.7759 26.1854C38.7408 26.122 38.7233 26.0519 38.7233 25.9751C38.7233 25.8984 38.7408 25.8292 38.7759 25.7674C38.8109 25.704 38.8568 25.659 38.9135 25.6323C38.9552 25.6123 38.9978 25.5998 39.0412 25.5947C39.0845 25.5881 39.1538 25.5847 39.2489 25.5847H40.8655C40.9606 25.5847 41.0299 25.5881 41.0733 25.5947C41.1166 25.5998 41.1592 25.6123 41.2009 25.6323C41.2576 25.659 41.3035 25.704 41.3385 25.7674C41.3736 25.8292 41.3911 25.8984 41.3911 25.9751C41.3911 26.0519 41.3736 26.122 41.3385 26.1854C41.3035 26.2471 41.2576 26.2913 41.2009 26.318C41.1592 26.338 41.1166 26.3514 41.0733 26.358C41.0299 26.363 40.9606 26.3655 40.8655 26.3655H40.4977V28.5778C40.4977 28.6863 40.4943 28.7639 40.4877 28.8106C40.4827 28.8556 40.4676 28.9032 40.4426 28.9532C40.4109 29.0166 40.36 29.0684 40.29 29.1084C40.2215 29.1484 40.144 29.1685 40.0572 29.1685C39.9705 29.1685 39.892 29.1484 39.822 29.1084C39.7536 29.0684 39.7035 29.0166 39.6718 28.9532C39.6468 28.9032 39.6309 28.8556 39.6243 28.8106C39.6193 28.7639 39.6168 28.6863 39.6168 28.5778ZM25.9586 31.4657C25.9586 31.2404 26.0646 31.0335 26.2765 30.845C26.3999 30.7366 26.5392 30.6615 26.6944 30.6198C26.8512 30.5764 27.0406 30.5547 27.2625 30.5547C27.6462 30.5547 27.9574 30.6473 28.196 30.8325C28.4345 31.016 28.5538 31.2604 28.5538 31.5658C28.5538 31.7209 28.5138 31.8636 28.4337 31.9937C28.3553 32.1238 28.2518 32.2281 28.1234 32.3065C28.2685 32.3799 28.3845 32.485 28.4712 32.6219C28.5597 32.757 28.6039 32.9122 28.6039 33.0873C28.6039 33.416 28.4787 33.6805 28.2285 33.8807C27.9799 34.0792 27.6546 34.1785 27.2525 34.1785C27.0222 34.1785 26.8287 34.1576 26.6719 34.1159C26.515 34.0725 26.3749 33.9966 26.2514 33.8882C26.0379 33.698 25.9311 33.4911 25.9311 33.2675C25.9311 33.129 25.9711 33.0223 26.0512 32.9472C26.133 32.8704 26.2306 32.8321 26.344 32.8321C26.4508 32.8321 26.5501 32.8629 26.6418 32.9247C26.7069 32.9697 26.772 33.0531 26.837 33.1749C26.8838 33.2617 26.9405 33.3242 27.0072 33.3626C27.074 33.3993 27.1649 33.4177 27.28 33.4177C27.4218 33.4177 27.5311 33.3843 27.6078 33.3176C27.6846 33.2508 27.723 33.1641 27.723 33.0573C27.723 32.9422 27.6871 32.8513 27.6154 32.7845C27.5453 32.7161 27.4377 32.6819 27.2925 32.6819H27.2274C27.0806 32.6819 26.978 32.6677 26.9196 32.6394C26.8679 32.6143 26.8262 32.5743 26.7945 32.5192C26.7628 32.4625 26.747 32.3983 26.747 32.3265C26.747 32.2548 26.7628 32.1914 26.7945 32.1363C26.8262 32.0796 26.8679 32.0387 26.9196 32.0137C26.978 31.9854 27.0806 31.9712 27.2274 31.9712H27.2925C27.4126 31.9712 27.5077 31.9411 27.5778 31.8811C27.6479 31.8194 27.6829 31.7359 27.6829 31.6308C27.6829 31.5324 27.6471 31.454 27.5753 31.3956C27.5036 31.3355 27.4076 31.3055 27.2875 31.3055C27.1757 31.3055 27.0865 31.3247 27.0197 31.363C26.9547 31.3998 26.8988 31.4615 26.8521 31.5482C26.787 31.67 26.7219 31.7535 26.6569 31.7985C26.5651 31.8602 26.4683 31.8911 26.3666 31.8911C26.2564 31.8911 26.1605 31.8527 26.0788 31.776C25.9987 31.7009 25.9586 31.5975 25.9586 31.4657ZM32.2504 33.9232V34.3336C32.2504 34.4371 32.247 34.5113 32.2403 34.5564C32.2353 34.6014 32.222 34.6456 32.2003 34.689C32.1703 34.7491 32.1227 34.7974 32.0577 34.8341C31.9943 34.8709 31.9217 34.8892 31.8399 34.8892C31.7582 34.8892 31.6848 34.8709 31.6197 34.8341C31.5563 34.7974 31.5096 34.7491 31.4796 34.689C31.4579 34.6456 31.4437 34.6014 31.437 34.5564C31.432 34.5113 31.4295 34.4371 31.4295 34.3336V34.1484H29.6602V34.3336C29.6602 34.4371 29.6568 34.5113 29.6502 34.5564C29.6452 34.6014 29.6318 34.6456 29.6101 34.689C29.5801 34.7491 29.5325 34.7974 29.4675 34.8341C29.4041 34.8709 29.3315 34.8892 29.2497 34.8892C29.168 34.8892 29.0946 34.8709 29.0295 34.8341C28.9661 34.7974 28.9194 34.7491 28.8894 34.689C28.8677 34.6456 28.8535 34.6014 28.8468 34.5564C28.8418 34.5113 28.8393 34.4371 28.8393 34.3336V33.9232C28.8393 33.8198 28.8418 33.7455 28.8468 33.7005C28.8535 33.6554 28.8677 33.6112 28.8894 33.5678C28.9144 33.5161 28.9536 33.4727 29.007 33.4377C29.0604 33.4027 29.1213 33.381 29.1897 33.3726C29.3048 33.0707 29.3924 32.722 29.4525 32.3265C29.5142 31.9295 29.545 31.5274 29.545 31.1203V31.0853C29.545 30.9051 29.5851 30.7749 29.6652 30.6949C29.6985 30.6615 29.7394 30.6365 29.7878 30.6198C29.8362 30.6014 29.8762 30.5914 29.9079 30.5897C29.9413 30.5864 29.9872 30.5847 30.0456 30.5847H31.3044C31.3644 30.5847 31.412 30.5864 31.447 30.5897C31.4821 30.5914 31.5263 30.6023 31.5797 30.6223C31.6347 30.6406 31.6814 30.669 31.7198 30.7074C31.7582 30.7457 31.7865 30.7925 31.8049 30.8475C31.8249 30.9009 31.8358 30.9451 31.8374 30.9801C31.8408 31.0152 31.8424 31.0627 31.8424 31.1228V33.3676C31.9225 33.3693 31.9951 33.3885 32.0602 33.4252C32.1252 33.4602 32.1719 33.5078 32.2003 33.5678C32.222 33.6112 32.2353 33.6554 32.2403 33.7005C32.247 33.7455 32.2504 33.8198 32.2504 33.9232ZM30.9615 33.3676V31.3655H30.4009V31.4606C30.4009 31.8544 30.3734 32.1972 30.3184 32.4892C30.265 32.7795 30.1857 33.0723 30.0806 33.3676H30.9615ZM34.6535 34.1484H33.2646C33.2045 34.1484 33.157 34.1476 33.1219 34.1459C33.0869 34.1426 33.0418 34.1318 32.9868 34.1134C32.9334 34.0934 32.8875 34.0642 32.8491 34.0258C32.8108 33.9874 32.7816 33.9416 32.7616 33.8882C32.7432 33.8331 32.7324 33.7881 32.729 33.753C32.7274 33.718 32.7265 33.6704 32.7265 33.6104V31.1228C32.7265 31.0627 32.7274 31.0152 32.729 30.9801C32.7324 30.9451 32.7432 30.9009 32.7616 30.8475C32.7816 30.7925 32.8108 30.7457 32.8491 30.7074C32.8875 30.669 32.9334 30.6406 32.9868 30.6223C33.0418 30.6023 33.0869 30.5914 33.1219 30.5897C33.157 30.5864 33.2045 30.5847 33.2646 30.5847H34.6535C34.7486 30.5847 34.8179 30.5881 34.8612 30.5947C34.9046 30.5998 34.9472 30.6123 34.9889 30.6323C35.0456 30.659 35.0915 30.704 35.1265 30.7674C35.1615 30.8292 35.1791 30.8984 35.1791 30.9751C35.1791 31.0519 35.1615 31.122 35.1265 31.1854C35.0915 31.2471 35.0456 31.2913 34.9889 31.318C34.9472 31.338 34.9046 31.3514 34.8612 31.358C34.8179 31.363 34.7486 31.3655 34.6535 31.3655H33.6074V31.9612H34.4283C34.5234 31.9612 34.5926 31.9645 34.636 31.9712C34.6794 31.9762 34.7219 31.9887 34.7636 32.0087C34.8204 32.0354 34.8662 32.0805 34.9013 32.1439C34.9363 32.2056 34.9538 32.2748 34.9538 32.3516C34.9538 32.4283 34.9363 32.4984 34.9013 32.5618C34.8662 32.6235 34.8204 32.6677 34.7636 32.6944C34.7219 32.7144 34.6794 32.7278 34.636 32.7345C34.5926 32.7395 34.5234 32.742 34.4283 32.742H33.6074V33.3676H34.6535C34.7486 33.3676 34.8179 33.371 34.8612 33.3776C34.9046 33.3826 34.9472 33.3952 34.9889 33.4152C35.0456 33.4419 35.0915 33.4869 35.1265 33.5503C35.1615 33.612 35.1791 33.6813 35.1791 33.758C35.1791 33.8348 35.1615 33.9049 35.1265 33.9683C35.0915 34.03 35.0456 34.0742 34.9889 34.1009C34.9472 34.1209 34.9046 34.1343 34.8612 34.1409C34.8179 34.1459 34.7486 34.1484 34.6535 34.1484ZM35.6493 32.717C35.6476 32.6352 35.6468 32.5184 35.6468 32.3666C35.6468 32.2148 35.6476 32.0988 35.6493 32.0187C35.6526 31.937 35.6601 31.8369 35.6718 31.7184C35.6851 31.5983 35.7035 31.5007 35.7269 31.4256C35.7519 31.3489 35.7886 31.2671 35.837 31.1804C35.8854 31.0936 35.9446 31.0152 36.0147 30.9451C36.2749 30.6848 36.6028 30.5547 36.9982 30.5547C37.2167 30.5547 37.3936 30.5756 37.5287 30.6173C37.6639 30.6573 37.7865 30.7266 37.8966 30.825C38.0184 30.9351 38.1052 31.0494 38.1569 31.1678C38.2086 31.2846 38.2345 31.3906 38.2345 31.4857C38.2345 31.6258 38.1936 31.7368 38.1118 31.8185C38.0301 31.9003 37.9291 31.9411 37.809 31.9411C37.7156 31.9411 37.6372 31.9186 37.5738 31.8736C37.5004 31.8235 37.4228 31.7259 37.341 31.5808C37.291 31.4923 37.2376 31.4298 37.1809 31.3931C37.1258 31.3547 37.0582 31.3355 36.9782 31.3355C36.8464 31.3355 36.7412 31.3872 36.6628 31.4907C36.6094 31.5608 36.5736 31.6533 36.5552 31.7685C36.5369 31.8819 36.5277 32.0813 36.5277 32.3666C36.5277 32.6519 36.5369 32.8521 36.5552 32.9672C36.5736 33.0807 36.6094 33.1724 36.6628 33.2425C36.7412 33.3459 36.8464 33.3977 36.9782 33.3977C37.0582 33.3977 37.1258 33.3793 37.1809 33.3426C37.2376 33.3042 37.291 33.2408 37.341 33.1524C37.4228 33.0073 37.5004 32.9097 37.5738 32.8596C37.6372 32.8146 37.7156 32.792 37.809 32.792C37.9291 32.792 38.0301 32.8329 38.1118 32.9147C38.1936 32.9964 38.2345 33.1074 38.2345 33.2475C38.2345 33.3426 38.2086 33.4494 38.1569 33.5678C38.1052 33.6846 38.0184 33.7981 37.8966 33.9082C37.7865 34.0066 37.6639 34.0767 37.5287 34.1184C37.3936 34.1584 37.2167 34.1785 36.9982 34.1785C36.6028 34.1785 36.2749 34.0483 36.0147 33.7881C35.9446 33.718 35.8854 33.6396 35.837 33.5528C35.7886 33.4661 35.7519 33.3851 35.7269 33.3101C35.7035 33.2333 35.6851 33.1357 35.6718 33.0173C35.6601 32.8971 35.6526 32.797 35.6493 32.717ZM40.204 34.1484H39.3256C39.2655 34.1484 39.2179 34.1476 39.1829 34.1459C39.1479 34.1426 39.1028 34.1318 39.0478 34.1134C38.9944 34.0934 38.9485 34.0642 38.9101 34.0258C38.8717 33.9874 38.8426 33.9416 38.8225 33.8882C38.8042 33.8331 38.7933 33.7881 38.79 33.753C38.7883 33.718 38.7875 33.6704 38.7875 33.6104V31.1553C38.7875 31.0469 38.79 30.9701 38.795 30.9251C38.8017 30.8784 38.8175 30.83 38.8426 30.7799C38.8743 30.7165 38.9243 30.6648 38.9927 30.6248C39.0628 30.5847 39.1412 30.5647 39.228 30.5647C39.3147 30.5647 39.3923 30.5847 39.4607 30.6248C39.5308 30.6648 39.5817 30.7165 39.6134 30.7799C39.6384 30.83 39.6534 30.8784 39.6584 30.9251C39.6651 30.9701 39.6684 31.0469 39.6684 31.1553V31.8561H40.204C40.3958 31.8561 40.5702 31.8886 40.727 31.9537C40.8838 32.0171 41.0115 32.103 41.1099 32.2114C41.21 32.3182 41.2868 32.44 41.3401 32.5768C41.3935 32.7119 41.4202 32.8538 41.4202 33.0022C41.4202 33.1507 41.3935 33.2934 41.3401 33.4302C41.2868 33.5653 41.21 33.6871 41.1099 33.7956C41.0115 33.9023 40.8838 33.9883 40.727 34.0533C40.5702 34.1167 40.3958 34.1484 40.204 34.1484ZM39.6684 33.3676H40.1639C40.279 33.3676 40.3708 33.3318 40.4392 33.26C40.5093 33.1866 40.5443 33.1007 40.5443 33.0022C40.5443 32.9038 40.5093 32.8187 40.4392 32.747C40.3708 32.6736 40.279 32.6369 40.1639 32.6369H39.6684V33.3676Z" fill="white"/>
<path fill-rule="evenodd" clip-rule="evenodd" d="M26.0261 12.9999C26.0261 15.4236 25.3675 17.6923 24.2207 19.6346L13.1189 39L2.07256 19.7314C0.890185 17.7679 0.209473 15.464 0.209473 12.9999C0.209473 5.82026 5.98872 0 13.1178 0C20.2468 0 26.0261 5.82026 26.0261 12.9999ZM13.1186 18.5715C16.1739 18.5715 18.6507 16.0771 18.6507 13.0001C18.6507 9.92311 16.1739 7.42871 13.1186 7.42871C10.0633 7.42871 7.58645 9.92311 7.58645 13.0001C7.58645 16.0771 10.0633 18.5715 13.1186 18.5715Z" fill="#4D4D4D"/>
</svg>
