<svg width="24" height="19" viewBox="0 0 24 19" fill="none" xmlns="http://www.w3.org/2000/svg">
<path d="M12.0003 0C5.37284 0 0 5.42383 0 12.1145C0 15.7424 1.56563 18.1084 1.56563 18.1084L22.4298 18.1094C22.4298 18.1094 24 15.5236 24 12.1143C24 5.42383 18.6272 0 12.0003 0ZM21.5497 16.6336L2.48877 16.6253C2.48877 16.6253 1.47309 14.7019 1.47309 12.0763C1.47309 6.21217 6.20419 1.45799 12.0405 1.45799C17.8765 1.45799 22.6079 6.21192 22.6079 12.0763C22.6081 14.7315 21.5497 16.6336 21.5497 16.6336Z" fill="#0BE2C8"/>
<path d="M15.3915 3.21698L15.2409 3.21673L12.04 9.489L8.72389 3.16317L4.18365 14.591H3.01031V15.5088H9.43831V14.591H8.16287L9.43831 11.0194L12.04 15.5088L14.5398 11.0194L15.815 14.591H14.5398V15.5088H20.9165V14.591H19.8118L15.3915 3.21698Z" fill="#0BE2C8"/>
</svg>
