<svg width="24" height="20" viewBox="0 0 24 20" fill="none" xmlns="http://www.w3.org/2000/svg">
<path d="M12.0003 0.94519C5.37284 0.94519 0 6.36902 0 13.0597C0 16.6876 1.56563 19.0536 1.56563 19.0536L22.4298 19.0546C22.4298 19.0546 24 16.4688 24 13.0595C24 6.36902 18.6272 0.94519 12.0003 0.94519ZM21.5497 17.5788L2.48877 17.5705C2.48877 17.5705 1.47309 15.647 1.47309 13.0215C1.47309 7.15736 6.20419 2.40318 12.0405 2.40318C17.8765 2.40318 22.6079 7.15711 22.6079 13.0215C22.6081 15.6767 21.5497 17.5788 21.5497 17.5788Z" fill="#EE13F2"/>
<path d="M15.3915 4.16217L15.2409 4.16192L12.04 10.4342L8.72389 4.10836L4.18365 15.5362H3.01031V16.454H9.43831V15.5362H8.16287L9.43831 11.9646L12.04 16.454L14.5398 11.9646L15.815 15.5362H14.5398V16.454H20.9165V15.5362H19.8118L15.3915 4.16217Z" fill="#EE13F2"/>
</svg>
