<svg width="752" height="171" viewBox="0 0 752 171" fill="none" xmlns="http://www.w3.org/2000/svg">
<path fill-rule="evenodd" clip-rule="evenodd" d="M709 1L751 25.1265V73.4103L709 97.5366L667 73.4103V25.1265L709 1Z" fill="#9D9E9E" stroke="#9D9E9E" stroke-width="0.0762399" stroke-miterlimit="22.9256"/>
<path fill-rule="evenodd" clip-rule="evenodd" d="M708.999 3.19019L729.052 14.7095L749.106 26.2288V49.2678V72.3066L729.052 83.8259L708.999 95.3452L688.946 83.8259L668.893 72.3066V49.2678V26.2288L688.946 14.7095L708.999 3.19019Z" fill="#E32E16"/>
<path fill-rule="evenodd" clip-rule="evenodd" d="M708.999 3.19019L729.052 14.7095L749.106 26.2288V49.2678V72.3066L729.052 83.8259L708.999 95.3452L688.946 83.8259L668.893 72.3066V49.2678V26.2288L688.946 14.7095L708.999 3.19019Z" fill="#E32E16"/>
<path fill-rule="evenodd" clip-rule="evenodd" d="M721.31 28.2301C723.582 24.5713 715.989 22.5317 714.694 25.2525C714.504 25.6538 712.772 25.0179 711.237 26.066C706.024 29.6252 697.38 16.9655 693.023 32.2636C690.661 40.5569 692.876 48.7342 694.766 57.5335C695.611 61.4693 699.502 78.492 703.052 66.6912C704.298 62.5483 705.371 55.3135 707.515 51.6753C709.152 48.8989 713.183 53.9668 712.951 58.7636C712.909 59.6343 716.049 71 717.039 71C720.372 71 723.531 58.0145 723.89 54.7847C724.399 50.2026 729.345 27.913 722.051 27.5792C721.525 27.5551 721.58 27.7955 721.31 28.2299L721.31 28.2301Z" fill="#FEFEFE"/>
<path fill-rule="evenodd" clip-rule="evenodd" d="M716.335 28.54C716.707 28.0333 719.298 26.9502 719.85 26.3745C720.497 25.6995 721.3 23.2131 721.915 22.6967C722.246 23.3058 723.596 26.1196 723.886 26.4136C724.186 26.7185 726.999 28.0918 727.402 28.5008C726.701 28.9781 724.292 30.1514 723.876 30.5969C723.448 31.0555 722.439 33.5039 721.887 34.2378C721.868 34.22 721.844 34.1929 721.834 34.1797L721.32 33.3066C719.655 29.9571 720.245 30.6296 716.335 28.5395V28.54ZM719.319 23.8783C719.023 23.7293 717.742 23.5551 717.265 23.5551C714.254 23.5551 712.034 26.0744 709.558 26.1369C708.156 26.1723 706.876 25.3879 705.693 24.8123C703.529 23.7599 701.747 23.0243 699.291 23.9855C698.958 24.116 698.564 24.2408 698.268 24.42C697.383 24.9551 696.517 25.5941 695.824 26.3814L695.168 27.2004C693.222 29.7407 692 34.0723 692 37.4512L692.103 43.0519C692.123 43.4922 692.199 43.679 692.228 44.2028L692.598 47.704C692.85 50.0803 693.271 53.4101 693.781 55.5117C693.876 55.9014 693.915 56.2763 693.994 56.6889L695.763 64.0983C696.281 65.7549 696.808 67.4627 697.546 69.0142C697.69 69.3171 697.803 69.5582 697.975 69.8571C698.995 71.6305 699.916 73 701.962 73C704.187 73 705.23 66.0481 705.566 64.2833C706.103 61.4564 708.2 47.2628 711.187 53.8446C712.385 56.4829 712.76 59.4744 713.319 62.3814L714.089 66.9592C714.331 68.2236 715.043 72.9998 716.957 72.9998C718.717 72.9998 719.564 72.0453 720.468 70.6501C721.238 69.4628 721.766 68.2852 722.267 66.9352L723.588 62.8275C723.999 61.3163 724.338 59.8587 724.633 58.3208L725.848 51.5215C725.98 50.6861 726.035 49.7814 726.173 49.0562C726.471 47.4823 726.494 45.7573 726.72 44.1363C726.924 42.6731 727.022 40.4903 727.022 38.8517C727.022 38.0103 726.918 37.5313 726.919 36.8045C726.921 35.9191 726.819 35.5012 726.174 35.312C724.598 34.8496 725.276 37.1688 725.276 38.0973L725.085 42.3142C725.002 43.1319 725.033 43.8376 724.952 44.6518C724.806 46.1221 724.63 47.5603 724.422 49.052C723.994 52.1306 723.423 55.2146 722.838 58.2701C722.254 61.3245 719.821 71.1681 717.368 71.1681C716.804 71.1681 716.45 69.3734 716.281 68.7529C716.139 68.2305 716.046 67.7376 715.956 67.2626C715.113 62.7824 714.666 58.1658 713.113 53.8702C712.535 52.2705 711.401 50.2698 709.459 50.2698C706.153 50.2698 705.378 57.091 704.644 59.8696C704.092 61.9613 703.718 64.7971 703.137 67.2301C702.99 67.8459 702.318 71.1681 701.654 71.1681C701.05 71.1681 700.514 70.5663 700.228 70.1856L699.286 68.5892C697.445 65.1162 696.659 60.5272 695.8 56.7334C695.13 53.7739 694.037 46.6783 693.951 43.699C693.927 42.8419 693.736 42.3424 693.745 41.329C693.755 40.4056 693.643 39.8364 693.643 38.8514C693.643 33.7332 695.873 25.3861 701.654 25.3861C705.049 25.3861 707.52 29.3984 711.853 27.4655C714.13 26.4496 715.54 25.3861 717.881 25.3861L715.586 26.749C715.141 26.9854 714.824 27.198 714.386 27.4295C713.119 28.0972 713.454 29.0446 714.558 29.6248L715.894 30.3785C716.471 30.6834 718.138 31.531 718.524 31.9286C718.949 32.365 720.693 36.2383 721.12 36.7464C721.285 36.943 721.571 37.1279 721.886 37.1279C722.726 37.1279 723.25 35.4623 723.637 34.7626C723.862 34.3557 724.143 33.8904 724.352 33.4667C724.474 33.2203 724.565 33.0322 724.704 32.7579C724.861 32.4464 724.82 32.3209 725.027 32.0196C725.314 31.601 725.798 31.4927 726.233 31.2376L728.89 29.716C729.516 29.319 730 29.2007 730 28.4023C730 27.6424 728.772 27.2058 727.736 26.576L726.474 25.8525C724.839 24.932 724.889 24.9442 723.7 22.406C723.363 21.6859 723.087 21.0209 722.655 20.379C722.39 19.9847 722.032 20.0001 721.578 20.0001C721.106 20.0001 719.378 23.6136 719.319 23.878L719.319 23.8783Z" fill="black"/>
<path fill-rule="evenodd" clip-rule="evenodd" d="M708.215 38.9246C708.743 38.6207 710.061 38.0423 710.315 37.7772C710.653 37.4243 711.11 36.3747 711.488 35.9015C712.375 36.8268 711.902 37.9686 714.816 38.8733C714.546 39.1944 714.171 39.3416 713.729 39.551C712.603 40.0835 712.664 40.0925 712.083 41.114C711.913 41.4135 711.711 41.7971 711.418 42.0187C711.241 41.608 710.497 40.3345 710.194 40.0696C709.664 39.606 708.633 39.4225 708.215 38.9248L708.215 38.9246ZM705 38.9246C705 39.424 705.289 39.6437 705.621 39.8349L708.727 41.4196C710.052 42.56 710.848 47.4623 713.008 43.4449C713.23 43.0316 713.356 42.8688 713.582 42.4929C714.316 41.2761 714.068 41.4008 716.267 40.4055C717.082 40.0367 718 39.674 718 38.9246C718 37.7931 715.091 37.2627 714.232 36.4674C713.445 35.7387 712.739 33 711.562 33C710.18 33 709.766 35.3762 708.809 36.391L705.74 38.01C705.326 38.2076 705 38.3464 705 38.9246H705Z" fill="black"/>
<path fill-rule="evenodd" clip-rule="evenodd" d="M709 38.9769C709.253 39.3024 709.878 39.4225 710.199 39.7255C710.383 39.8987 710.834 40.7314 710.941 41C711.119 40.8551 711.241 40.6042 711.344 40.4084C711.696 39.7403 711.659 39.7346 712.341 39.3864C712.609 39.2495 712.836 39.1532 713 38.9432C711.234 38.3517 711.521 37.6052 710.983 37C710.754 37.3095 710.477 37.9956 710.273 38.2265C710.119 38.3998 709.32 38.7781 709 38.9768L709 38.9769Z" fill="#9D9E9E"/>
<path fill-rule="evenodd" clip-rule="evenodd" d="M716.335 28.54C716.707 28.0333 719.298 26.9502 719.85 26.3745C720.497 25.6995 721.3 23.2131 721.915 22.6967C722.246 23.3058 723.596 26.1196 723.886 26.4136C724.186 26.7185 726.999 28.0918 727.402 28.5008C726.701 28.9781 724.292 30.1514 723.876 30.5969C723.448 31.0555 722.439 33.5039 721.887 34.2378C721.868 34.22 721.844 34.1929 721.834 34.1797L721.32 33.3066C719.655 29.9571 720.245 30.6296 716.335 28.5395V28.54ZM719.319 23.8783C719.023 23.7293 717.742 23.5551 717.265 23.5551C714.254 23.5551 712.034 26.0744 709.558 26.1369C708.156 26.1723 706.876 25.3879 705.693 24.8123C703.529 23.7599 701.747 23.0243 699.291 23.9855C698.958 24.116 698.564 24.2408 698.268 24.42C697.383 24.9551 696.517 25.5941 695.824 26.3814L695.168 27.2004C693.222 29.7407 692 34.0723 692 37.4512L692.103 43.0519C692.123 43.4922 692.199 43.679 692.228 44.2028L692.598 47.704C692.85 50.0803 693.271 53.4101 693.781 55.5117C693.876 55.9014 693.915 56.2763 693.994 56.6889L695.763 64.0983C696.281 65.7549 696.808 67.4627 697.546 69.0142C697.69 69.3171 697.803 69.5582 697.975 69.8571C698.995 71.6305 699.916 73 701.962 73C704.187 73 705.23 66.0481 705.566 64.2833C706.103 61.4564 708.2 47.2628 711.187 53.8446C712.385 56.4829 712.76 59.4744 713.319 62.3814L714.089 66.9592C714.331 68.2236 715.043 72.9998 716.957 72.9998C718.717 72.9998 719.564 72.0453 720.468 70.6501C721.238 69.4628 721.766 68.2852 722.267 66.9352L723.588 62.8275C723.999 61.3163 724.338 59.8587 724.633 58.3208L725.848 51.5215C725.98 50.6861 726.035 49.7814 726.173 49.0562C726.471 47.4823 726.494 45.7573 726.72 44.1363C726.924 42.6731 727.022 40.4903 727.022 38.8517C727.022 38.0103 726.918 37.5313 726.919 36.8045C726.921 35.9191 726.819 35.5012 726.174 35.312C724.598 34.8496 725.276 37.1688 725.276 38.0973L725.085 42.3142C725.002 43.1319 725.033 43.8376 724.952 44.6518C724.806 46.1221 724.63 47.5603 724.422 49.052C723.994 52.1306 723.423 55.2146 722.838 58.2701C722.254 61.3245 719.821 71.1681 717.368 71.1681C716.804 71.1681 716.45 69.3734 716.281 68.7529C716.139 68.2305 716.046 67.7376 715.956 67.2626C715.113 62.7824 714.666 58.1658 713.113 53.8702C712.535 52.2705 711.401 50.2698 709.459 50.2698C706.153 50.2698 705.378 57.091 704.644 59.8696C704.092 61.9613 703.718 64.7971 703.137 67.2301C702.99 67.8459 702.318 71.1681 701.654 71.1681C701.05 71.1681 700.514 70.5663 700.228 70.1856L699.286 68.5892C697.445 65.1162 696.659 60.5272 695.8 56.7334C695.13 53.7739 694.037 46.6783 693.951 43.699C693.927 42.8419 693.736 42.3424 693.745 41.329C693.755 40.4056 693.643 39.8364 693.643 38.8514C693.643 33.7332 695.873 25.3861 701.654 25.3861C705.049 25.3861 707.52 29.3984 711.853 27.4655C714.13 26.4496 715.54 25.3861 717.881 25.3861L715.586 26.749C715.141 26.9854 714.824 27.198 714.386 27.4295C713.119 28.0972 713.454 29.0446 714.558 29.6248L715.894 30.3785C716.471 30.6834 718.138 31.531 718.524 31.9286C718.949 32.365 720.693 36.2383 721.12 36.7464C721.285 36.943 721.571 37.1279 721.886 37.1279C722.726 37.1279 723.25 35.4623 723.637 34.7626C723.862 34.3557 724.143 33.8904 724.352 33.4667C724.474 33.2203 724.565 33.0322 724.704 32.7579C724.861 32.4464 724.82 32.3209 725.027 32.0196C725.314 31.601 725.798 31.4927 726.233 31.2376L728.89 29.716C729.516 29.319 730 29.2007 730 28.4023C730 27.6424 728.772 27.2058 727.736 26.576L726.474 25.8525C724.839 24.932 724.889 24.9442 723.7 22.406C723.363 21.6859 723.087 21.0209 722.655 20.379C722.39 19.9847 722.032 20.0001 721.578 20.0001C721.106 20.0001 719.378 23.6136 719.319 23.878L719.319 23.8783Z" fill="black"/>
<path fill-rule="evenodd" clip-rule="evenodd" d="M708.215 38.9246C708.743 38.6207 710.061 38.0423 710.315 37.7772C710.653 37.4243 711.11 36.3747 711.488 35.9015C712.375 36.8268 711.902 37.9686 714.816 38.8733C714.546 39.1944 714.171 39.3416 713.729 39.551C712.603 40.0835 712.664 40.0925 712.083 41.114C711.913 41.4135 711.711 41.7971 711.418 42.0187C711.241 41.608 710.497 40.3345 710.194 40.0696C709.664 39.606 708.633 39.4225 708.215 38.9248L708.215 38.9246ZM705 38.9246C705 39.424 705.289 39.6437 705.621 39.8349L708.727 41.4196C710.052 42.56 710.848 47.4623 713.008 43.4449C713.23 43.0316 713.356 42.8688 713.582 42.4929C714.316 41.2761 714.068 41.4008 716.267 40.4055C717.082 40.0367 718 39.674 718 38.9246C718 37.7931 715.091 37.2627 714.232 36.4674C713.445 35.7387 712.739 33 711.562 33C710.18 33 709.766 35.3762 708.809 36.391L705.74 38.01C705.326 38.2076 705 38.3464 705 38.9246H705Z" fill="black"/>
<path fill-rule="evenodd" clip-rule="evenodd" d="M709 38.9769C709.253 39.3024 709.878 39.4225 710.199 39.7255C710.383 39.8987 710.834 40.7314 710.941 41C711.119 40.8551 711.241 40.6042 711.344 40.4084C711.696 39.7403 711.659 39.7346 712.341 39.3864C712.609 39.2495 712.836 39.1532 713 38.9432C711.234 38.3517 711.521 37.6052 710.983 37C710.754 37.3095 710.477 37.9956 710.273 38.2265C710.119 38.3998 709.32 38.7781 709 38.9768L709 38.9769Z" fill="#9D9E9E"/>
<path fill-rule="evenodd" clip-rule="evenodd" d="M65.9995 19.1416L132 57.0942V133.047L65.9995 171L0 133.047V57.0942L65.9995 19.1416Z" fill="#9D9E9E"/>
<path fill-rule="evenodd" clip-rule="evenodd" d="M65.9994 23.8142L97.8316 41.6278L129.663 59.4424V95.0706V130.699L97.8316 148.513L65.9994 166.327L34.1682 148.513L2.33594 130.699V95.0706V59.4424L34.1682 41.6278L65.9994 23.8142Z" fill="#FFDC0A" stroke="#9D9E9E" stroke-width="0.0762399" stroke-miterlimit="22.9256"/>
<path fill-rule="evenodd" clip-rule="evenodd" d="M64.0371 64.8307C63.416 66.4579 62.4754 65.5255 60.917 64.9692C55.9635 63.2011 51.0929 66.2183 50.8487 71.5193C50.7461 73.7469 50.2305 74.7079 50.2305 77.9546C50.2305 79.2415 51.9395 91.1957 52.1609 91.5419C52.8377 92.5988 56.4586 106.549 59.0878 98.3331C59.9177 95.7385 60.9953 92.453 61.5753 89.8091C62.2894 86.5541 65.0369 83.3277 66.5632 87.7698C67.0331 89.1395 69.2339 100.387 70.0205 100.59C71.0494 100.855 74.7899 94.0551 74.8105 91.9035C74.8272 90.2221 76.1403 87.2465 76.1403 83.3582C76.1403 79.181 76.882 79.1568 77.0638 76.9495C77.3094 73.9671 76.209 68.0547 74.1923 65.6906C71.4667 62.4942 68.7612 63.4063 65.5472 64.8569C65.0788 65.0679 63.8816 65.2384 64.0371 64.8302V64.8307Z" fill="#FEFEFE"/>
<path fill-rule="evenodd" clip-rule="evenodd" d="M34.7266 116.931L91.6466 116.901L91.6114 99.4415C85.1044 97.811 78.034 99.7204 72.0992 102.206C70.0121 103.081 68.6842 103.85 67.0613 104.919C66.907 107.833 67.5046 109.371 66.4754 110.989C63.9772 114.919 63.6428 116.385 61.8891 113.66C58.972 109.127 59.8508 110.959 59.6819 105.877C58.7909 105.28 58.6625 105.012 57.3179 104.24C56.5163 103.78 55.5306 103.335 54.6137 102.93C52.692 102.081 50.7953 101.392 48.7385 100.781C46.6303 100.156 44.4197 99.6285 42.0953 99.4537C40.5266 99.336 36.0218 99.4366 34.7139 99.9812L34.7251 116.932L34.7266 116.931Z" fill="white"/>
<path fill-rule="evenodd" clip-rule="evenodd" d="M34.7266 116.931L91.6466 116.901L91.6114 99.4415C85.1044 97.811 78.034 99.7204 72.0992 102.206C70.0121 103.081 68.6842 103.85 67.0613 104.919C66.907 107.833 67.5046 109.371 66.4754 110.989C63.9772 114.919 63.6428 116.385 61.8891 113.66C58.972 109.127 59.8508 110.959 59.6819 105.877C58.7909 105.28 58.6625 105.012 57.3179 104.24C56.5163 103.78 55.5306 103.335 54.6137 102.93C52.692 102.081 50.7953 101.392 48.7385 100.781C46.6303 100.156 44.4197 99.6285 42.0953 99.4537C40.5266 99.336 36.0218 99.4366 34.7139 99.9812L34.7251 116.932L34.7266 116.931Z" fill="white"/>
<path fill-rule="evenodd" clip-rule="evenodd" d="M34.7156 99.981C36.024 99.4364 40.5283 99.3358 42.097 99.4535C44.4214 99.6289 46.6316 100.155 48.7402 100.781C50.797 101.392 52.6933 102.08 54.6154 102.929C55.5318 103.334 56.5175 103.779 57.3197 104.24C58.6642 105.012 58.7926 105.28 59.6836 105.877C59.8521 110.96 58.9738 109.127 61.8909 113.66C63.6446 116.385 63.979 114.918 66.4772 110.989C67.5064 109.37 66.9088 107.833 67.0631 104.919C68.6854 103.85 70.0139 103.08 72.101 102.206C78.0358 99.7202 85.1062 97.8108 91.6132 99.4413L91.6483 116.901L34.7283 116.931L34.7171 99.9806L34.7156 99.981ZM61.8113 106.39C62.2326 106.46 64.5883 107.834 64.8954 108.152C64.9505 109.345 64.951 109.359 64.4218 110.174C64.1459 110.599 63.6958 111.515 63.2969 111.796C61.3738 108.32 61.9162 110.913 61.8113 106.39ZM61.8254 101.097C62.4259 101.367 62.9122 101.683 63.5244 102.047C65.2689 103.084 64.8422 102.503 64.9198 105.857C64.3525 105.692 62.4489 104.434 61.8181 104.06L61.8259 101.097H61.8254ZM61.8191 95.8691C62.2707 95.9531 64.4633 97.3379 64.9012 97.7009L64.9032 100.66C64.5839 100.554 62.0925 99.0529 61.8103 98.8248L61.8191 95.8691ZM61.8225 88.4186C61.8225 87.595 62.4445 85.2035 63.4414 84.8122C64.9037 85.5 64.9071 87.6673 64.9071 89.3882C64.9071 90.9048 65.0804 94.0691 64.8651 95.3841C64.3202 95.1516 63.7651 94.7706 63.1431 94.4028C61.3699 93.3535 61.8225 94.0007 61.8225 88.4186V88.4186ZM48.2105 72.7642C48.2105 76.119 48.2383 76.6914 48.5986 80.0164C48.6416 80.4136 48.684 80.6431 48.7055 80.8791L49.514 86.5604C50.0364 89.7526 51.2325 94.2098 52.3618 97.0107C53.7039 100.337 57.0546 104.318 59.2315 98.4761C59.3463 98.1679 59.3428 98.1263 59.4224 97.8362C59.4805 97.6266 59.4317 97.7375 59.5157 97.5143L59.7144 103.543C59.6612 104.616 59.4063 104.105 58.4499 103.526C58.1399 103.339 57.9202 103.213 57.5818 103.01C54.5729 101.205 49.8699 99.1795 46.2322 98.5718C45.4076 98.4341 44.769 98.3725 44.001 98.1723C43.1535 97.951 42.677 97.9226 41.7269 97.8152C40.0694 97.6271 36.1085 97.8787 34.4979 98.2519C33.7304 98.4302 32.9785 98.3994 32.9785 99.3636V118.204C33.6552 118.204 33.5121 118.355 33.975 118.454L85.8722 118.481C87.6757 118.481 92.0609 118.757 93.2106 118.204V98.2553C92.7273 98.1263 93.0012 98.1063 92.6155 98.0203L86.4263 97.5626C80.5447 97.5626 76.2401 98.5577 71.149 101.118L67.0406 103.381V98.9479C67.3081 99.2557 67.2388 99.2879 67.3828 99.7139C67.8296 101.037 68.8743 101.791 70.4899 101.152C71.2378 100.855 72.3685 99.5439 72.7645 98.8561C74.233 96.3024 75.19 92.719 75.8437 89.7457C76.1478 88.3653 76.7337 85.8946 76.7337 84.5401C76.7337 83.9256 74.9004 82.642 74.4952 85.2098C73.9684 88.5485 72.9622 92.824 71.7509 95.9019C71.3716 96.8637 70.6026 98.8009 69.5339 99.0862C68.3529 96.8539 68.163 89.5528 66.57 85.5659C65.6326 83.2218 64.7938 82.7392 63.0255 82.7392C59.316 82.7392 58.59 95.3064 56.518 99.2249C52.6454 97.1748 50.2869 78.575 50.2869 74.0112C50.2869 70.2119 52.1304 63.7593 56.518 63.7593C57.6648 63.7593 58.9781 64.4427 59.8794 64.829C60.7553 65.2052 62.1433 65.8372 63.3023 65.8372C65.8645 65.8372 67.5117 63.7593 69.3953 63.7593C73.3035 63.7593 75.6259 68.9688 75.6259 73.0411L75.4785 78.1588C75.4746 78.2164 74.92 80.3271 76.4359 80.3027C77.6159 80.2836 77.5949 79.0038 77.6828 78.1466C78.2306 72.7896 77.8141 66.6657 73.6472 63.1067C73.1302 62.6646 72.8079 62.524 72.1894 62.2104C70.9083 61.5602 70.2789 61.6814 68.8416 61.6814C66.8883 61.6814 64.9891 63.6206 63.441 63.6206C62.2775 63.6206 61.2098 63.0212 60.3925 62.6534C56.2993 60.8104 52.8549 61.378 50.2576 65.5319C49.1122 67.3647 48.2095 70.5285 48.2095 72.7647L48.2105 72.7642Z" fill="#010101"/>
<path fill-rule="evenodd" clip-rule="evenodd" d="M34.7156 99.981C36.024 99.4364 40.5283 99.3358 42.097 99.4535C44.4214 99.6289 46.6316 100.155 48.7402 100.781C50.797 101.392 52.6933 102.08 54.6154 102.929C55.5318 103.334 56.5175 103.779 57.3197 104.24C58.6642 105.012 58.7926 105.28 59.6836 105.877C59.8521 110.96 58.9738 109.127 61.8909 113.66C63.6446 116.385 63.979 114.918 66.4772 110.989C67.5064 109.37 66.9088 107.833 67.0631 104.919C68.6854 103.85 70.0139 103.08 72.101 102.206C78.0358 99.7202 85.1062 97.8108 91.6132 99.4413L91.6483 116.901L34.7283 116.931L34.7171 99.9806L34.7156 99.981ZM61.8113 106.39C62.2326 106.46 64.5883 107.834 64.8954 108.152C64.9505 109.345 64.951 109.359 64.4218 110.174C64.1459 110.599 63.6958 111.515 63.2969 111.796C61.3738 108.32 61.9162 110.913 61.8113 106.39ZM61.8254 101.097C62.4259 101.367 62.9122 101.683 63.5244 102.047C65.2689 103.084 64.8422 102.503 64.9198 105.857C64.3525 105.692 62.4489 104.434 61.8181 104.06L61.8259 101.097H61.8254ZM61.8191 95.8691C62.2707 95.9531 64.4633 97.3379 64.9012 97.7009L64.9032 100.66C64.5839 100.554 62.0925 99.0529 61.8103 98.8248L61.8191 95.8691ZM61.8225 88.4186C61.8225 87.595 62.4445 85.2035 63.4414 84.8122C64.9037 85.5 64.9071 87.6673 64.9071 89.3882C64.9071 90.9048 65.0804 94.0691 64.8651 95.3841C64.3202 95.1516 63.7651 94.7706 63.1431 94.4028C61.3699 93.3535 61.8225 94.0007 61.8225 88.4186V88.4186ZM48.2105 72.7642C48.2105 76.119 48.2383 76.6914 48.5986 80.0164C48.6416 80.4136 48.684 80.6431 48.7055 80.8791L49.514 86.5604C50.0364 89.7526 51.2325 94.2098 52.3618 97.0107C53.7039 100.337 57.0546 104.318 59.2315 98.4761C59.3463 98.1679 59.3428 98.1263 59.4224 97.8362C59.4805 97.6266 59.4317 97.7375 59.5157 97.5143L59.7144 103.543C59.6612 104.616 59.4063 104.105 58.4499 103.526C58.1399 103.339 57.9202 103.213 57.5818 103.01C54.5729 101.205 49.8699 99.1795 46.2322 98.5718C45.4076 98.4341 44.769 98.3725 44.001 98.1723C43.1535 97.951 42.677 97.9226 41.7269 97.8152C40.0694 97.6271 36.1085 97.8787 34.4979 98.2519C33.7304 98.4302 32.9785 98.3994 32.9785 99.3636V118.204C33.6552 118.204 33.5121 118.355 33.975 118.454L85.8722 118.481C87.6757 118.481 92.0609 118.757 93.2106 118.204V98.2553C92.7273 98.1263 93.0012 98.1063 92.6155 98.0203L86.4263 97.5626C80.5447 97.5626 76.2401 98.5577 71.149 101.118L67.0406 103.381V98.9479C67.3081 99.2557 67.2388 99.2879 67.3828 99.7139C67.8296 101.037 68.8743 101.791 70.4899 101.152C71.2378 100.855 72.3685 99.5439 72.7645 98.8561C74.233 96.3024 75.19 92.719 75.8437 89.7457C76.1478 88.3653 76.7337 85.8946 76.7337 84.5401C76.7337 83.9256 74.9004 82.642 74.4952 85.2098C73.9684 88.5485 72.9622 92.824 71.7509 95.9019C71.3716 96.8637 70.6026 98.8009 69.5339 99.0862C68.3529 96.8539 68.163 89.5528 66.57 85.5659C65.6326 83.2218 64.7938 82.7392 63.0255 82.7392C59.316 82.7392 58.59 95.3064 56.518 99.2249C52.6454 97.1748 50.2869 78.575 50.2869 74.0112C50.2869 70.2119 52.1304 63.7593 56.518 63.7593C57.6648 63.7593 58.9781 64.4427 59.8794 64.829C60.7553 65.2052 62.1433 65.8372 63.3023 65.8372C65.8645 65.8372 67.5117 63.7593 69.3953 63.7593C73.3035 63.7593 75.6259 68.9688 75.6259 73.0411L75.4785 78.1588C75.4746 78.2164 74.92 80.3271 76.4359 80.3027C77.6159 80.2836 77.5949 79.0038 77.6828 78.1466C78.2306 72.7896 77.8141 66.6657 73.6472 63.1067C73.1302 62.6646 72.8079 62.524 72.1894 62.2104C70.9083 61.5602 70.2789 61.6814 68.8416 61.6814C66.8883 61.6814 64.9891 63.6206 63.441 63.6206C62.2775 63.6206 61.2098 63.0212 60.3925 62.6534C56.2993 60.8104 52.8549 61.378 50.2576 65.5319C49.1122 67.3647 48.2095 70.5285 48.2095 72.7647L48.2105 72.7642Z" fill="#010101"/>
<path fill-rule="evenodd" clip-rule="evenodd" d="M61.8232 88.4191C61.8232 94.0013 61.3706 93.3541 63.1438 94.4033C63.7658 94.7716 64.3209 95.1521 64.8658 95.3846C65.0811 94.0697 64.9078 90.9054 64.9078 89.3887C64.9078 87.6678 64.9043 85.5005 63.4421 84.8127C62.4452 85.204 61.8232 87.5955 61.8232 88.4191V88.4191Z" fill="#808080"/>
<path fill-rule="evenodd" clip-rule="evenodd" d="M51.3936 71.1026C51.3936 71.5857 52.019 72.2109 52.5013 72.2109C54.7061 72.2109 52.4891 68.2758 56.7859 67.0771C58.0162 66.7342 58.8711 67.2818 58.8711 65.5609C58.8711 64.4726 57.199 64.5928 56.3231 64.8131C55.2143 65.0915 54.6158 65.4593 53.8244 66.0533C52.5228 67.0312 51.3936 68.8835 51.3936 71.1026V71.1026Z" fill="#010101"/>
<path fill-rule="evenodd" clip-rule="evenodd" d="M61.8125 106.389C61.918 110.912 61.3751 108.319 63.2982 111.795C63.697 111.515 64.1472 110.599 64.423 110.173C64.9517 109.358 64.9513 109.344 64.8966 108.151C64.5895 107.833 62.2338 106.459 61.8125 106.389Z" fill="#808080"/>
<path fill-rule="evenodd" clip-rule="evenodd" d="M61.8096 98.8253C62.0918 99.0534 64.5827 100.555 64.9024 100.66L64.9005 97.7014C64.4626 97.3384 62.27 95.9536 61.8184 95.8696L61.8096 98.8253Z" fill="#808080"/>
<path fill-rule="evenodd" clip-rule="evenodd" d="M61.8188 104.059C62.4496 104.434 64.3532 105.691 64.9205 105.856C64.8429 102.502 65.2696 103.084 63.5252 102.047C62.9134 101.683 62.4272 101.366 61.8262 101.096L61.8184 104.059H61.8188Z" fill="#808080"/>
</svg>
