<svg width="106" height="86" viewBox="0 0 106 86" fill="none" xmlns="http://www.w3.org/2000/svg">
<path fill-rule="evenodd" clip-rule="evenodd" d="M12.1886 53.84C12.4565 51.031 9.91533 48.0912 8.40094 47.2176C6.40802 46.0675 2.9127 44.8365 0.119751 44.8721C1.89511 49.5167 6.5759 55.5855 12.1892 53.8406L12.1886 53.84Z" fill="#4D4D4D"/>
<path fill-rule="evenodd" clip-rule="evenodd" d="M93.7362 53.7781C97.7471 54.21 99.7195 53.244 101.771 51.253C103.146 49.9176 105.034 46.9939 105.881 44.7292C99.5973 45.1222 94.1399 47.6254 93.7356 53.7786L93.7362 53.7781Z" fill="#4D4D4D"/>
<path fill-rule="evenodd" clip-rule="evenodd" d="M89.5597 17.4262C91.1095 11.6946 84.4186 6.91177 80.0787 5.698C80.3625 8.67335 81.4367 11.7428 82.7489 13.7533C84.028 15.7134 86.2231 17.2845 89.5602 17.4262H89.5597Z" fill="#4D4D4D"/>
<path fill-rule="evenodd" clip-rule="evenodd" d="M84.3026 68.789C89.1758 72.3822 97.1464 66.732 98.4701 63.8995C93.5163 62.766 86.1197 62.7993 84.3026 68.789Z" fill="#4D4D4D"/>
<path fill-rule="evenodd" clip-rule="evenodd" d="M13.3358 27.4666C16.392 27.6977 18.9343 26.5769 20.7987 24.2887C21.9671 22.8547 23.6362 19.0585 24.0936 16.7847C21.834 17.0594 18.2114 18.9891 16.7883 20.0962C14.9062 21.5606 13.2439 23.6686 13.3353 27.4666H13.3358Z" fill="#4D4D4D"/>
<path fill-rule="evenodd" clip-rule="evenodd" d="M94.0298 23.3704C95.9399 22.3878 97.0505 18.5337 96.6817 15.739C96.3819 13.4664 94.9777 9.55601 93.7123 8.32617C92.6775 9.84798 91.1791 13.6683 90.941 15.9266C90.5693 19.4526 92.2533 22.1526 94.0292 23.3704H94.0298Z" fill="#4D4D4D"/>
<path fill-rule="evenodd" clip-rule="evenodd" d="M9.39127 45.6408C10.5762 40.2895 8.61752 37.4518 4.87836 34.7478C4.12002 34.1994 2.52968 33.074 1.53951 32.7327C1.20545 37.0996 3.38567 45.1056 9.39184 45.6408H9.39127Z" fill="#4D4D4D"/>
<path fill-rule="evenodd" clip-rule="evenodd" d="M48.1046 77.7155C48.3696 74.5021 46.1586 71.9604 44.5928 70.7862C43.0138 69.6023 39.1479 68.2089 36.6616 67.968C37.3183 71.0122 40.3374 75.8639 43.5775 77.1924C44.663 77.6375 46.8684 78.0866 48.1041 77.7149L48.1046 77.7155Z" fill="#4D4D4D"/>
<path fill-rule="evenodd" clip-rule="evenodd" d="M57.8503 77.7181C61.6169 77.8638 63.8531 76.7676 65.5531 74.7892C66.6266 73.5399 68.9045 69.9685 69.3556 67.853C63.4288 68.7324 57.8092 71.3406 57.8503 77.7181V77.7181Z" fill="#4D4D4D"/>
<path fill-rule="evenodd" clip-rule="evenodd" d="M8.99563 34.9367C9.94527 32.6955 11.8206 30.9661 10.3439 26.7213C9.63919 24.6953 7.28537 20.9972 6.13074 20.1528C5.02863 21.4492 4.55581 26.7322 4.81392 28.7554C5.00636 30.2605 5.48946 31.4078 6.21125 32.4535C6.7623 33.2514 7.95806 34.5374 8.99506 34.9367H8.99563Z" fill="#4D4D4D"/>
<path fill-rule="evenodd" clip-rule="evenodd" d="M14.9984 61.8635C14.3994 55.4075 7.03069 54.3933 1.94446 54.3325C2.53377 55.9541 5.52658 59.4239 6.63553 60.2465C7.59145 60.9555 8.57935 61.6886 10.0383 62.0546C11.4054 62.3976 13.7769 62.5025 14.9984 61.8635Z" fill="#4D4D4D"/>
<path fill-rule="evenodd" clip-rule="evenodd" d="M96.5463 45.5514C99.6173 45.1396 101.42 43.2369 102.619 41.1679C103.62 39.4384 104.839 35.0003 104.416 32.6038C102.434 33.5801 99.3655 35.7942 98.3136 37.1571C95.9627 40.2048 96.0592 40.9568 96.5457 45.5514H96.5463Z" fill="#4D4D4D"/>
<path fill-rule="evenodd" clip-rule="evenodd" d="M97.0284 34.7462C98.8003 34.4588 100.826 31.1898 101.157 28.776C101.447 26.6628 101.005 21.4332 99.8688 20.01C99.8408 20.0352 99.7985 20.0387 99.7871 20.088C99.7757 20.1374 99.722 20.1505 99.7066 20.1672L99.5547 20.3335C98.3624 21.7406 96.2752 24.8634 95.6899 26.438C94.4462 29.7833 95.3661 32.3657 97.0279 34.7462H97.0284Z" fill="#4D4D4D"/>
<path fill-rule="evenodd" clip-rule="evenodd" d="M24.4368 69.4228C25.2734 68.9605 26.1933 67.6653 26.7233 66.5358C27.3771 65.1419 27.6483 63.5811 27.4051 61.8781C27.0773 59.5807 25.5698 55.7077 24.3632 54.3315C23.3895 55.9159 21.8911 59.7717 21.625 61.8763C21.2013 65.2297 22.6318 67.9922 24.4368 69.4228V69.4228Z" fill="#4D4D4D"/>
<path fill-rule="evenodd" clip-rule="evenodd" d="M95.3847 40.4029C95.9134 36.1776 95.9197 34.946 93.6647 32.1135C92.7076 30.9118 89.6857 28.0999 87.7813 27.3708C87.5986 30.1701 88.2193 34.0128 89.3208 36.1587C90.1585 37.7906 92.7562 40.517 95.3847 40.4029V40.4029Z" fill="#4D4D4D"/>
<path fill-rule="evenodd" clip-rule="evenodd" d="M88.9515 62.6052C90.4814 60.0663 91.3436 57.7529 90.161 54.3365C89.4558 52.2984 87.3721 48.6887 86.1026 47.7898C85.2021 49.673 84.3318 54.0864 84.6556 56.5139C85.0239 59.2725 87.0346 61.8423 88.951 62.6057L88.9515 62.6052Z" fill="#4D4D4D"/>
<path fill-rule="evenodd" clip-rule="evenodd" d="M81.3309 69.374C83.3506 68.4717 84.7 64.796 84.3579 61.8889C84.0793 59.5216 83.4214 58.0181 82.4981 56.0156L81.7694 54.5047C81.6044 54.289 81.7015 54.3906 81.5056 54.2334C79.6332 57.46 77.3142 62.3811 79.2009 66.2954C79.8667 67.6767 80.717 68.3564 81.3314 69.374H81.3309Z" fill="#4D4D4D"/>
<path fill-rule="evenodd" clip-rule="evenodd" d="M11.9695 23.4552C13.7031 22.375 15.3997 19.4857 15.0965 16.2132C14.9166 14.271 13.208 9.74169 12.2852 8.46826C10.9913 9.58854 8.05328 16.2935 9.7761 20.4723C10.2466 21.6127 11.2065 23.014 11.97 23.4552H11.9695Z" fill="#4D4D4D"/>
<path fill-rule="evenodd" clip-rule="evenodd" d="M10.7074 40.5092C17.2212 39.8627 18.088 32.7286 18.2456 27.46C16.4634 27.92 11.3538 32.2227 10.5292 35.5227C10.1877 36.8896 10.0889 39.3132 10.7074 40.5092V40.5092Z" fill="#4D4D4D"/>
<path fill-rule="evenodd" clip-rule="evenodd" d="M13.2051 51.9194C15.3648 51.2827 17.469 48.8287 18.1623 46.5228C18.9463 43.9151 18.4495 40.0461 17.7814 37.4683C16.5691 38.0539 13.9086 41.6809 13.0909 43.3387C10.9535 47.6718 12.5324 49.3071 13.2051 51.92V51.9194Z" fill="#4D4D4D"/>
<path fill-rule="evenodd" clip-rule="evenodd" d="M17.0916 62.7395C19.0588 61.5509 20.8553 59.8576 21.315 56.6826C21.6142 54.6159 20.813 49.3145 19.8611 47.9338C18.6705 48.7048 16.4988 52.505 15.8359 54.4903C14.9719 57.0784 15.1877 60.6458 17.0916 62.7395Z" fill="#4D4D4D"/>
<path fill-rule="evenodd" clip-rule="evenodd" d="M24.4119 80.3012C27.2157 81.0291 29.6197 82.0972 32.9654 81.8511C35.5414 81.6613 38.4554 80.1125 39.2611 78.0331C35.4346 74.5559 31.5647 75.6945 27.5189 77.9586C26.8902 78.3102 26.4248 78.6377 25.8829 79.006C25.2964 79.4041 24.7134 79.7379 24.4119 80.3012V80.3012Z" fill="#4D4D4D"/>
<path fill-rule="evenodd" clip-rule="evenodd" d="M66.7314 77.8373C66.9513 78.1585 66.8337 78.2416 67.1986 78.6724L69.1732 80.4902C72.5526 82.5925 78.9676 81.7637 81.5236 80.1197C80.6202 78.8514 76.9016 76.8053 74.8893 76.1783C71.3865 75.0868 68.7946 76.3051 66.732 77.8373H66.7314Z" fill="#4D4D4D"/>
<path fill-rule="evenodd" clip-rule="evenodd" d="M92.8031 51.7801C93.4604 49.1111 95.0187 47.6156 92.9356 43.3038C92.0373 41.4447 89.4654 38.0632 88.2154 37.3364C87.541 39.8839 87.119 43.7672 87.8385 46.3675C88.4952 48.7405 90.503 51.2048 92.8031 51.7801V51.7801Z" fill="#4D4D4D"/>
<path fill-rule="evenodd" clip-rule="evenodd" d="M34.3789 74.684C34.8643 74.0169 35.5621 71.5991 35.6358 70.5844C35.9539 66.1933 30.5564 60.8409 29.4869 60.4629C28.7908 62.6771 28.8496 67.2689 29.5337 69.4193C30.2258 71.5962 32.2598 74.2343 34.3789 74.684V74.684Z" fill="#4D4D4D"/>
<path fill-rule="evenodd" clip-rule="evenodd" d="M71.5802 74.5701C73.7781 74.0441 75.7025 71.6297 76.4317 69.3897C77.3853 66.4597 76.8777 63.4517 76.5876 60.3599C75.7293 60.5262 70.4872 65.2064 70.393 70.2645C70.3507 72.5286 70.8275 73.1068 71.5802 74.5701Z" fill="#4D4D4D"/>
<path fill-rule="evenodd" clip-rule="evenodd" d="M15.1196 72.6202C16.1252 73.6728 19.9809 75.7739 21.9116 76.285C23.3911 76.6768 25.058 76.7703 26.5981 76.4089C27.9657 76.0877 29.4024 75.3689 29.9301 74.5458C28.9359 72.681 26.6066 70.8385 23.4539 70.6332C20.3595 70.4312 17.4843 71.6089 15.1196 72.6202V72.6202Z" fill="#4D4D4D"/>
<path fill-rule="evenodd" clip-rule="evenodd" d="M92.6947 27.3395C92.4315 23.6202 91.3328 21.5838 89.2948 20.0144C87.4286 18.5775 84.6237 17.3861 81.9021 16.6616C82.3509 19.232 83.8585 22.4052 85.1336 24.0349C86.7342 26.0804 88.8356 27.4909 92.6941 27.3395H92.6947Z" fill="#4D4D4D"/>
<path fill-rule="evenodd" clip-rule="evenodd" d="M90.9685 61.8579C94.8698 62.4303 96.68 62.2944 99.3016 60.1812C100.421 59.2783 103.46 55.9594 104.024 54.2764C100.862 54.3274 97.7707 54.5184 95.2524 55.8056C93.3417 56.7819 91.2386 58.9594 90.9679 61.8579H90.9685Z" fill="#4D4D4D"/>
<path fill-rule="evenodd" clip-rule="evenodd" d="M7.50452 64.038C7.73921 64.5445 7.68268 64.4011 8.10639 64.798L10.141 66.7168C11.206 67.6713 11.845 68.1904 13.3068 68.9286C16.7342 70.6604 18.2532 70.268 21.7274 69.0106C21.1403 66.6972 18.8653 64.7309 16.66 63.9674C14.1411 63.0955 10.0154 63.403 7.50452 64.0385V64.038Z" fill="#4D4D4D"/>
<path fill-rule="evenodd" clip-rule="evenodd" d="M34.9066 84.5318C35.9967 85.6252 41.8635 85.8225 43.6674 85.4777C46.1115 85.0108 48.9547 83.064 49.4715 80.9943C46.2126 80.1012 44.7701 77.302 37.7698 82.071C36.2839 83.0835 36.0795 83.3594 34.906 84.5318H34.9066Z" fill="#4D4D4D"/>
<path fill-rule="evenodd" clip-rule="evenodd" d="M76.0323 74.5883C80.7742 78.5377 87.3863 75.5824 90.8776 72.5239C90.093 71.7036 84.3427 70.4651 82.5039 70.55C79.7824 70.6757 76.7022 72.5021 76.0323 74.5877V74.5883Z" fill="#4D4D4D"/>
<path fill-rule="evenodd" clip-rule="evenodd" d="M16.3389 17.5437C23.426 17.2064 24.6429 11.5976 25.95 5.81323C24.0096 6.03522 20.3133 8.69222 19.2083 9.68801C17.2594 11.445 16.0848 13.7366 16.3383 17.5437H16.3389Z" fill="#4D4D4D"/>
<path fill-rule="evenodd" clip-rule="evenodd" d="M56.5316 81.0896C57.6017 83.1822 59.3285 84.7602 62.2796 85.3579C66.008 86.1133 67.8918 84.9833 71.0822 84.4688C70.8149 84.0575 71.085 84.4286 70.7955 84.1304L70.2622 83.6709C70.0104 83.4644 69.831 83.3353 69.5695 83.1019C68.9888 82.5827 68.6895 82.3395 68.0957 81.8898C64.5016 79.1674 59.8727 78.2399 56.531 81.0896H56.5316Z" fill="#4D4D4D"/>
<path fill-rule="evenodd" clip-rule="evenodd" d="M52.5268 77.85C50.2718 78.6182 50.5641 81.1393 52.5331 81.7526C56.0016 82.0813 55.5476 77.2028 52.5268 77.85Z" fill="#4D4D4D"/>
<path fill-rule="evenodd" clip-rule="evenodd" d="M53.1403 3.88013C48.5195 3.6656 46.4106 -0.538439 40.5997 1.31262C36.9891 2.4633 34.392 5.90902 32.9958 9.74192C31.2793 14.4536 31.3872 18.8395 31.7732 24.1592C32.1187 28.9151 32.8736 33.9457 33.7547 38.3941C34.6461 42.8958 35.5815 47.0138 37.0753 51.1594C37.8108 53.2003 38.6474 54.889 39.7181 56.4917C40.4884 57.6458 42.8725 60.0694 44.9156 58.3938C48.4823 55.4695 49.1105 34.6713 53.1066 34.2973C55.3571 34.8354 56.3147 39.5408 56.8566 41.9436C57.5801 45.1496 58.0158 48.3613 58.6651 51.6125C59.1802 54.1898 59.8271 59.1149 62.7537 58.9261C65.3565 58.7581 67.2261 55.1655 68.23 52.8831C71.4455 45.5729 73.3944 32.9964 74.1608 24.4925C74.613 19.4722 74.7889 14.6332 73.0067 9.74192C71.6105 5.90902 69.0134 2.4633 65.4028 1.31262C63.4572 0.692543 61.9263 0.751625 60.5775 1.11243C57.9724 1.66368 56.8526 3.3111 53.1403 3.87956V3.88013ZM43.6765 5.0767C42.2409 5.44668 41.277 5.7484 40.1983 6.59105C39.1995 7.37116 38.532 8.03197 37.8302 9.16716C37.1986 10.1888 36.7104 11.4754 36.5562 12.8268C36.2319 15.6651 38.3418 15.1976 38.496 13.8737C38.7107 12.0318 38.7673 11.3951 39.6512 10.035C40.2348 9.13733 41.2524 8.18628 42.2432 7.66543C44.2789 6.59506 45.4827 7.16179 46.1388 6.62374C46.6801 6.17976 47.0256 4.21398 43.6771 5.07727L43.6765 5.0767ZM72.2643 15.7729C72.2689 16.1871 72.3437 16.65 72.3694 17.0389C72.5453 19.6907 72.2295 23.9143 71.9337 26.5191C71.2879 32.2094 67.6332 57.1978 62.382 56.8313C59.4194 51.5615 59.7244 32.2019 52.9935 32.2616C46.7904 32.316 46.844 52.2492 43.6085 56.8261C38.5297 57.125 35.0532 34.1155 34.3115 28.7757C33.3755 22.0385 32.6195 13.4245 36.3712 7.45721C37.688 5.36236 40.4147 2.34972 44.3223 2.99332C47.4984 3.51589 49.9322 6.31342 53.8016 5.86657C54.5022 5.78569 55.1184 5.63712 55.7933 5.39276C58.4429 4.44629 60.7665 2.49886 63.7513 2.98758C66.5597 3.4482 68.56 5.75586 69.6301 7.45778C71.16 9.89164 71.9406 12.7655 72.2643 15.7729Z" fill="#4D4D4D"/>
</svg>
