<svg width="68" height="109" viewBox="0 0 68 109" fill="none" xmlns="http://www.w3.org/2000/svg">
<path fill-rule="evenodd" clip-rule="evenodd" d="M18.8816 54.05L18.5852 53.829C16.7759 52.473 15.4029 50.9359 14.0288 49.0978C11.3368 45.4973 9.15283 40.2619 9.15283 35.3641C9.15283 30.4153 9.37432 27.3478 11.5451 22.9854C13.6553 18.7473 15.9847 16.0197 19.8139 13.1543C23.8193 10.1557 29.1967 8.67858 34.5123 8.67858C39.9205 8.67858 44.6488 10.781 47.9413 12.9866C51.4785 15.3566 54.4052 18.714 56.3115 22.5556C59.0321 28.0353 58.9153 31.5492 58.9153 37.7753C58.9153 43.777 58.9153 49.7786 58.9153 55.7803C58.9495 55.7615 58.9649 55.7337 59.0178 55.7237C59.5588 55.6226 61.7847 52.1742 61.9974 51.8144C66.08 44.8876 67.0496 40.8072 67.0496 32.3111C67.0496 27.6188 65.3913 22.5333 63.8067 19.3437C61.9401 15.5876 60.7258 13.7663 58.0756 10.9742L54.9693 7.99556C53.5754 6.74391 51.8994 5.63775 50.2543 4.7104C48.6289 3.79415 46.4945 2.76018 44.6609 2.14935C41.4092 1.06541 36.1112 -0.0285383 32.7151 0.437915C31.1955 0.646708 30.6842 0.422366 27.5383 1.00765C23.9064 1.6829 20.9169 2.97897 17.8172 4.71262C11.7831 8.08885 8.04981 12.4069 4.73856 18.3775C3.00745 21.4983 1.96174 24.9445 1.35899 28.474C0.632826 32.7265 0.907203 38.3539 1.91986 42.1744C3.18927 46.9566 5.86031 52.6096 9.19471 56.0613C10.603 57.5195 11.0404 58.2803 13.0712 59.8707C15.1528 61.4999 16.8078 62.6927 18.8827 63.7556V54.0511L18.8816 54.05Z" fill="#4D4D4D"/>
<path fill-rule="evenodd" clip-rule="evenodd" d="M16.3752 55.2999C14.7036 53.9338 13.3394 52.3757 12.0271 50.6187C8.8899 46.4228 6.64641 40.6633 6.64641 35.3646C6.64641 30.137 6.93621 26.613 9.30533 21.853C11.5962 17.2507 14.2243 14.1921 18.3201 11.1257C22.9019 7.69726 28.8621 6.1513 34.5138 6.1513C39.7832 6.1513 44.9666 7.95714 49.3313 10.8825C53.2398 13.5013 56.4574 17.1962 58.5565 21.4243C61.4964 27.3471 61.4248 31.3531 61.4248 37.7757C61.4248 41.0697 61.4248 44.3638 61.4248 47.6578C63.9945 42.6068 64.5432 38.8919 64.5432 32.3093C64.5432 28.4633 63.2606 23.8854 61.5658 20.4725C59.9703 17.2618 58.7493 15.3426 56.3053 12.7616L53.2728 9.85405C52.0034 8.72013 50.5092 7.74724 49.0316 6.91429C47.4393 6.01692 45.6079 5.124 43.8746 4.54648C40.992 3.5847 36.0675 2.52519 33.0549 2.93944C32.6141 2.99941 32.1767 3.03717 31.7326 3.05939C30.4092 3.12713 29.3106 3.24486 27.9927 3.4903C24.7167 4.09891 21.9267 5.30058 19.0341 6.91984C13.4507 10.044 10.0139 14.0444 6.92739 19.6085C5.33403 22.4816 4.38197 25.669 3.82991 28.9009C3.1886 32.6525 3.36931 37.8512 4.3423 41.5195C5.47617 45.7942 7.9114 51.1074 10.9913 54.297C12.2783 55.6286 13.1113 56.7004 14.6088 57.8743C15.1973 58.3352 15.7824 58.7839 16.3741 59.2159V55.2999H16.3752Z" fill="#FEFEFE"/>
<path fill-rule="evenodd" clip-rule="evenodd" d="M18.8816 46.1326C18.3196 45.4451 17.8414 44.8021 17.5097 44.3034C12.8586 37.3244 13.5517 27.8743 18.7902 21.124C19.524 20.1789 20.518 19.3404 21.1571 18.6874C21.5945 18.2398 21.9361 17.9688 22.4595 17.589C23.5262 16.8138 24.2612 16.4229 25.4755 15.8065C30.8793 13.0611 37.2726 13.1866 42.7061 15.8553L45.7496 17.7722C46.2521 18.1565 48.2311 19.6936 48.2311 20.2544V108.191C49.9986 108.191 53.9137 108.381 55.409 108.03C55.409 94.2583 55.409 46.2425 55.409 32.4711C55.409 28.9682 55.1445 27.0946 53.6018 24.0038C51.3782 19.5514 47.862 15.7176 43.2846 13.6641C34.3536 9.65819 25.2286 11.4429 18.3648 18.2831C11.3467 25.2766 10.1467 37.1545 15.8525 45.8138C17.2894 47.994 17.4139 47.7618 18.4695 49.1245C18.6072 49.3022 18.7439 49.4322 18.8838 49.5488V46.1326H18.8816Z" fill="#4D4D4D"/>
<path fill-rule="evenodd" clip-rule="evenodd" d="M50.7374 25.6526V105.7C51.0536 105.705 51.3698 105.709 51.6859 105.712C52.0186 105.714 52.4494 105.72 52.8988 105.718C52.8988 81.8021 52.8988 57.8872 52.8988 33.9723C52.8988 31.0025 52.7215 29.4643 51.3598 26.7926C51.1638 26.4075 50.9556 26.0268 50.7374 25.6537V25.6526Z" fill="white"/>
<path fill-rule="evenodd" clip-rule="evenodd" d="M43.8831 108.034V79.4375C43.8831 74.6641 39.1658 69.8252 34.108 69.8252C32.2436 69.8252 31.1439 70.0828 29.5759 70.7848C26.3627 72.2241 23.6167 75.959 23.6167 79.6785V108.034H43.8831Z" fill="#4D4D4D"/>
<path fill-rule="evenodd" clip-rule="evenodd" d="M41.3751 105.507V79.4381C41.3751 75.8875 37.6033 72.3535 34.1069 72.3535C32.6843 72.3535 31.8854 72.5168 30.594 73.0954C28.2304 74.1538 26.1235 77.0225 26.1235 79.6791V105.508H41.3751V105.507Z" fill="#FEFEFE"/>
<path fill-rule="evenodd" clip-rule="evenodd" d="M46.7159 55.167C46.7159 52.2983 46.7379 51.12 45.4476 48.5145C41.3341 40.2072 30.9894 38.4447 24.5916 44.8839C18.3383 51.1777 19.9372 62.0272 28.272 66.0653C30.0979 66.9494 31.0434 67.0571 33.5006 67.2859C38.3446 67.7368 43.3143 64.2129 45.2878 60.2158C45.8939 58.9886 46.7148 56.9906 46.7148 55.1659L46.7159 55.167Z" fill="#4D4D4D"/>
<path fill-rule="evenodd" clip-rule="evenodd" d="M44.2076 55.1678C44.2076 52.7577 44.287 51.8315 43.2038 49.6447C39.9124 42.9978 31.6414 41.3619 26.3643 46.6739C21.1831 51.8893 22.7732 60.5986 29.3593 63.7894C30.9571 64.5634 31.9632 64.6068 33.7317 64.7711C37.3868 65.111 41.4573 62.3045 43.044 59.0915C43.5928 57.9809 44.2087 56.4183 44.2087 55.1678H44.2076Z" fill="#FEFEFE"/>
</svg>
