<svg width="262" height="303" viewBox="0 0 262 303" fill="none" xmlns="http://www.w3.org/2000/svg">
<path d="M73.2601 51.0065L73.2607 51.0061L130 18.338L186.739 51.0061L186.74 51.0064L243.475 83.6963L243.475 149.026L243.475 214.38L186.74 247.07L186.739 247.07L130 279.738L73.2607 247.07L73.2601 247.07L16.5248 214.38L16.5248 149.026L16.5248 83.6963L73.2601 51.0065Z" fill="#4D4D4D" stroke="#4D4D4D" stroke-width="4.40566"/>
<path d="M76.3912 192.048C76.3912 192.524 76.3765 192.865 76.3472 193.071C76.3252 193.269 76.2592 193.478 76.1492 193.698C76.0099 193.976 75.7862 194.204 75.4782 194.38C75.1775 194.556 74.8365 194.644 74.4552 194.644C74.0739 194.644 73.7292 194.556 73.4212 194.38C73.1205 194.204 72.9005 193.976 72.7612 193.698C72.6512 193.478 72.5815 193.269 72.5522 193.071C72.5302 192.865 72.5192 192.524 72.5192 192.048L72.5192 188.352H68.4272L68.4272 192.048C68.4272 192.524 68.4125 192.865 68.3832 193.071C68.3612 193.269 68.2952 193.478 68.1852 193.698C68.0459 193.976 67.8222 194.204 67.5142 194.38C67.2135 194.556 66.8725 194.644 66.4912 194.644C66.1099 194.644 65.7652 194.556 65.4572 194.38C65.1565 194.204 64.9365 193.976 64.7972 193.698C64.6872 193.478 64.6175 193.269 64.5882 193.071C64.5662 192.865 64.5552 192.524 64.5552 192.048L64.5552 181.4C64.5552 180.923 64.5662 180.586 64.5882 180.388C64.6175 180.182 64.6872 179.97 64.7972 179.75C64.9365 179.471 65.1565 179.244 65.4572 179.068C65.7652 178.892 66.1099 178.804 66.4912 178.804C66.8725 178.804 67.2135 178.892 67.5142 179.068C67.8222 179.244 68.0459 179.471 68.1852 179.75C68.2952 179.97 68.3612 180.182 68.3832 180.388C68.4125 180.586 68.4272 180.923 68.4272 181.4L68.4272 184.92H72.5192L72.5192 181.4C72.5192 180.923 72.5302 180.586 72.5522 180.388C72.5815 180.182 72.6512 179.97 72.7612 179.75C72.9005 179.471 73.1205 179.244 73.4212 179.068C73.7292 178.892 74.0739 178.804 74.4552 178.804C74.8365 178.804 75.1775 178.892 75.4782 179.068C75.7862 179.244 76.0099 179.471 76.1492 179.75C76.2592 179.97 76.3252 180.182 76.3472 180.388C76.3765 180.586 76.3912 180.923 76.3912 181.4L76.3912 192.048ZM78.7163 191.608L82.8963 180.509C83.131 179.893 83.3987 179.467 83.6993 179.233C84.0587 178.947 84.5133 178.804 85.0633 178.804C85.6133 178.804 86.068 178.947 86.4273 179.233C86.728 179.467 86.9957 179.893 87.2303 180.509L91.4103 191.608C91.557 192.004 91.656 192.315 91.7073 192.543C91.766 192.763 91.766 193.016 91.7073 193.302C91.656 193.58 91.513 193.837 91.2783 194.072C90.897 194.453 90.435 194.644 89.8923 194.644C89.4523 194.644 89.0893 194.512 88.8033 194.248C88.642 194.101 88.51 193.936 88.4073 193.753C88.312 193.569 88.191 193.272 88.0443 192.862L87.8133 192.224H82.3133L82.0823 192.862C81.9357 193.272 81.811 193.569 81.7083 193.753C81.613 193.936 81.4847 194.101 81.3233 194.248C81.0373 194.512 80.6743 194.644 80.2343 194.644C79.6917 194.644 79.2297 194.453 78.8483 194.072C78.6137 193.837 78.467 193.58 78.4083 193.302C78.357 193.016 78.357 192.763 78.4083 192.543C78.467 192.315 78.5697 192.004 78.7163 191.608ZM86.6473 189.012L85.0633 184.656L83.4793 189.012H86.6473ZM109.889 194.556H96.1175C95.8535 194.556 95.6445 194.552 95.4905 194.545C95.3365 194.53 95.1385 194.482 94.8965 194.402C94.6618 194.314 94.4601 194.185 94.2915 194.017C94.1228 193.848 93.9945 193.646 93.9065 193.412C93.8258 193.17 93.7781 192.972 93.7635 192.818C93.7561 192.664 93.7525 192.455 93.7525 192.191L93.7525 181.4C93.7525 180.923 93.7635 180.586 93.7855 180.388C93.8148 180.182 93.8845 179.97 93.9945 179.75C94.1338 179.471 94.3538 179.244 94.6545 179.068C94.9625 178.892 95.3071 178.804 95.6885 178.804C96.0698 178.804 96.4108 178.892 96.7115 179.068C97.0195 179.244 97.2431 179.471 97.3825 179.75C97.4925 179.97 97.5585 180.182 97.5805 180.388C97.6098 180.586 97.6245 180.923 97.6245 181.4L97.6245 191.124H101.067L101.067 181.4C101.067 180.923 101.078 180.586 101.1 180.388C101.13 180.182 101.199 179.97 101.309 179.75C101.449 179.471 101.669 179.244 101.969 179.068C102.277 178.892 102.622 178.804 103.003 178.804C103.385 178.804 103.726 178.892 104.026 179.068C104.334 179.244 104.558 179.471 104.697 179.75C104.807 179.97 104.873 180.182 104.895 180.388C104.925 180.586 104.939 180.923 104.939 181.4L104.939 191.124H108.382L108.382 181.4C108.382 180.923 108.393 180.586 108.415 180.388C108.445 180.182 108.514 179.97 108.624 179.75C108.764 179.471 108.984 179.244 109.284 179.068C109.592 178.892 109.937 178.804 110.318 178.804C110.7 178.804 111.041 178.892 111.341 179.068C111.649 179.244 111.873 179.471 112.012 179.75C112.122 179.97 112.188 180.182 112.21 180.388C112.24 180.586 112.254 180.923 112.254 181.4L112.254 192.191C112.254 192.455 112.247 192.664 112.232 192.818C112.225 192.972 112.177 193.17 112.089 193.412C112.009 193.646 111.884 193.848 111.715 194.017C111.547 194.185 111.341 194.314 111.099 194.402C110.865 194.482 110.67 194.53 110.516 194.545C110.362 194.552 110.153 194.556 109.889 194.556ZM127.663 192.048C127.663 192.524 127.649 192.865 127.619 193.071C127.597 193.269 127.531 193.478 127.421 193.698C127.282 193.976 127.058 194.204 126.75 194.38C126.45 194.556 126.109 194.644 125.727 194.644C125.346 194.644 125.001 194.556 124.693 194.38C124.393 194.204 124.173 193.976 124.033 193.698C123.923 193.478 123.854 193.269 123.824 193.071C123.802 192.865 123.791 192.524 123.791 192.048L123.791 186.24L119.578 192.873C119.16 193.525 118.783 193.984 118.445 194.248C118.115 194.512 117.723 194.644 117.268 194.644C116.726 194.644 116.271 194.46 115.904 194.094C115.699 193.888 115.56 193.639 115.486 193.346C115.42 193.052 115.387 192.689 115.387 192.257L115.387 181.4C115.387 180.923 115.398 180.586 115.42 180.388C115.45 180.182 115.519 179.97 115.629 179.75C115.769 179.471 115.989 179.244 116.289 179.068C116.597 178.892 116.942 178.804 117.323 178.804C117.705 178.804 118.046 178.892 118.346 179.068C118.654 179.244 118.878 179.471 119.017 179.75C119.127 179.97 119.193 180.182 119.215 180.388C119.245 180.586 119.259 180.923 119.259 181.4L119.259 187.208L123.472 180.575C123.89 179.922 124.264 179.464 124.594 179.2C124.932 178.936 125.328 178.804 125.782 178.804C126.325 178.804 126.78 178.987 127.146 179.354C127.352 179.559 127.487 179.808 127.553 180.102C127.627 180.395 127.663 180.758 127.663 181.191L127.663 192.048ZM135.668 192.191L135.668 181.4C135.668 180.923 135.679 180.586 135.701 180.388C135.731 180.182 135.8 179.97 135.91 179.75C136.05 179.471 136.27 179.244 136.57 179.068C136.878 178.892 137.223 178.804 137.604 178.804C137.986 178.804 138.327 178.892 138.627 179.068C138.935 179.244 139.159 179.471 139.298 179.75C139.408 179.97 139.474 180.182 139.496 180.388C139.526 180.586 139.54 180.923 139.54 181.4L139.54 191.124H143.632L143.632 181.4C143.632 180.923 143.643 180.586 143.665 180.388C143.695 180.182 143.764 179.97 143.874 179.75C144.014 179.471 144.234 179.244 144.534 179.068C144.842 178.892 145.187 178.804 145.568 178.804C145.95 178.804 146.291 178.892 146.591 179.068C146.899 179.244 147.123 179.471 147.262 179.75C147.372 179.97 147.438 180.182 147.46 180.388C147.49 180.586 147.504 180.923 147.504 181.4L147.504 191.124C147.864 191.124 148.183 191.204 148.461 191.366C148.747 191.527 148.956 191.74 149.088 192.004C149.184 192.194 149.242 192.389 149.264 192.587C149.294 192.785 149.308 193.111 149.308 193.566L149.308 195.37C149.308 195.824 149.294 196.151 149.264 196.349C149.242 196.547 149.184 196.741 149.088 196.932C148.956 197.196 148.747 197.408 148.461 197.57C148.183 197.731 147.864 197.812 147.504 197.812C147.145 197.812 146.822 197.731 146.536 197.57C146.258 197.408 146.052 197.196 145.92 196.932C145.825 196.741 145.763 196.547 145.733 196.349C145.711 196.151 145.7 195.824 145.7 195.37L145.7 194.556H138.033C137.769 194.556 137.56 194.552 137.406 194.545C137.252 194.53 137.054 194.482 136.812 194.402C136.578 194.314 136.376 194.185 136.207 194.017C136.039 193.848 135.91 193.646 135.822 193.412C135.742 193.17 135.694 192.972 135.679 192.818C135.672 192.664 135.668 192.455 135.668 192.191ZM159.865 194.556H153.76C153.496 194.556 153.287 194.552 153.133 194.545C152.979 194.53 152.781 194.482 152.539 194.402C152.304 194.314 152.103 194.185 151.934 194.017C151.765 193.848 151.637 193.646 151.549 193.412C151.468 193.17 151.421 192.972 151.406 192.818C151.399 192.664 151.395 192.455 151.395 192.191L151.395 181.257C151.395 180.993 151.399 180.784 151.406 180.63C151.421 180.476 151.468 180.281 151.549 180.047C151.637 179.805 151.765 179.599 151.934 179.431C152.103 179.262 152.304 179.137 152.539 179.057C152.781 178.969 152.979 178.921 153.133 178.914C153.287 178.899 153.496 178.892 153.76 178.892H159.865C160.283 178.892 160.587 178.906 160.778 178.936C160.969 178.958 161.156 179.013 161.339 179.101C161.588 179.218 161.79 179.416 161.944 179.695C162.098 179.966 162.175 180.27 162.175 180.608C162.175 180.945 162.098 181.253 161.944 181.532C161.79 181.803 161.588 181.997 161.339 182.115C161.156 182.203 160.969 182.261 160.778 182.291C160.587 182.313 160.283 182.324 159.865 182.324H155.267L155.267 184.942H158.875C159.293 184.942 159.597 184.956 159.788 184.986C159.979 185.008 160.166 185.063 160.349 185.151C160.598 185.268 160.8 185.466 160.954 185.745C161.108 186.016 161.185 186.32 161.185 186.658C161.185 186.995 161.108 187.303 160.954 187.582C160.8 187.853 160.598 188.047 160.349 188.165C160.166 188.253 159.979 188.311 159.788 188.341C159.597 188.363 159.293 188.374 158.875 188.374H155.267L155.267 191.124H159.865C160.283 191.124 160.587 191.138 160.778 191.168C160.969 191.19 161.156 191.245 161.339 191.333C161.588 191.45 161.79 191.648 161.944 191.927C162.098 192.198 162.175 192.502 162.175 192.84C162.175 193.177 162.098 193.485 161.944 193.764C161.79 194.035 161.588 194.229 161.339 194.347C161.156 194.435 160.969 194.493 160.778 194.523C160.587 194.545 160.283 194.556 159.865 194.556ZM176.573 192.048C176.573 192.524 176.558 192.865 176.529 193.071C176.507 193.269 176.441 193.478 176.331 193.698C176.192 193.976 175.968 194.204 175.66 194.38C175.359 194.556 175.018 194.644 174.637 194.644C174.256 194.644 173.911 194.556 173.603 194.38C173.302 194.204 173.082 193.976 172.943 193.698C172.833 193.478 172.763 193.269 172.734 193.071C172.712 192.865 172.701 192.524 172.701 192.048L172.701 188.352H168.609L168.609 192.048C168.609 192.524 168.594 192.865 168.565 193.071C168.543 193.269 168.477 193.478 168.367 193.698C168.228 193.976 168.004 194.204 167.696 194.38C167.395 194.556 167.054 194.644 166.673 194.644C166.292 194.644 165.947 194.556 165.639 194.38C165.338 194.204 165.118 193.976 164.979 193.698C164.869 193.478 164.799 193.269 164.77 193.071C164.748 192.865 164.737 192.524 164.737 192.048L164.737 181.4C164.737 180.923 164.748 180.586 164.77 180.388C164.799 180.182 164.869 179.97 164.979 179.75C165.118 179.471 165.338 179.244 165.639 179.068C165.947 178.892 166.292 178.804 166.673 178.804C167.054 178.804 167.395 178.892 167.696 179.068C168.004 179.244 168.228 179.471 168.367 179.75C168.477 179.97 168.543 180.182 168.565 180.388C168.594 180.586 168.609 180.923 168.609 181.4L168.609 184.92H172.701L172.701 181.4C172.701 180.923 172.712 180.586 172.734 180.388C172.763 180.182 172.833 179.97 172.943 179.75C173.082 179.471 173.302 179.244 173.603 179.068C173.911 178.892 174.256 178.804 174.637 178.804C175.018 178.804 175.359 178.892 175.66 179.068C175.968 179.244 176.192 179.471 176.331 179.75C176.441 179.97 176.507 180.182 176.529 180.388C176.558 180.586 176.573 180.923 176.573 181.4L176.573 192.048ZM192.681 192.048L192.681 181.4C192.681 180.923 192.692 180.586 192.714 180.388C192.743 180.182 192.813 179.97 192.923 179.75C193.062 179.471 193.282 179.244 193.583 179.068C193.891 178.892 194.236 178.804 194.617 178.804C194.998 178.804 195.339 178.892 195.64 179.068C195.948 179.244 196.172 179.471 196.311 179.75C196.421 179.97 196.487 180.182 196.509 180.388C196.538 180.586 196.553 180.923 196.553 181.4L196.553 192.048C196.553 192.524 196.538 192.865 196.509 193.071C196.487 193.269 196.421 193.478 196.311 193.698C196.172 193.976 195.948 194.204 195.64 194.38C195.339 194.556 194.998 194.644 194.617 194.644C194.236 194.644 193.891 194.556 193.583 194.38C193.282 194.204 193.062 193.976 192.923 193.698C192.813 193.478 192.743 193.269 192.714 193.071C192.692 192.865 192.681 192.524 192.681 192.048ZM185.916 194.556H182.055C181.791 194.556 181.582 194.552 181.428 194.545C181.274 194.53 181.076 194.482 180.834 194.402C180.599 194.314 180.398 194.185 180.229 194.017C180.06 193.848 179.932 193.646 179.844 193.412C179.763 193.17 179.716 192.972 179.701 192.818C179.694 192.664 179.69 192.455 179.69 192.191L179.69 181.4C179.69 180.923 179.701 180.586 179.723 180.388C179.752 180.182 179.822 179.97 179.932 179.75C180.071 179.471 180.291 179.244 180.592 179.068C180.9 178.892 181.245 178.804 181.626 178.804C182.007 178.804 182.348 178.892 182.649 179.068C182.957 179.244 183.181 179.471 183.32 179.75C183.43 179.97 183.496 180.182 183.518 180.388C183.547 180.586 183.562 180.923 183.562 181.4L183.562 184.48H185.916C186.759 184.48 187.526 184.623 188.215 184.909C188.904 185.187 189.465 185.565 189.898 186.042C190.338 186.511 190.675 187.046 190.91 187.648C191.145 188.242 191.262 188.865 191.262 189.518C191.262 190.17 191.145 190.797 190.91 191.399C190.675 191.993 190.338 192.528 189.898 193.005C189.465 193.474 188.904 193.852 188.215 194.138C187.526 194.416 186.759 194.556 185.916 194.556ZM183.562 191.124H185.74C186.246 191.124 186.649 190.966 186.95 190.651C187.258 190.328 187.412 189.95 187.412 189.518C187.412 189.085 187.258 188.711 186.95 188.396C186.649 188.073 186.246 187.912 185.74 187.912H183.562L183.562 191.124Z" fill="white"/>
<g clip-path="url(#clip0_244_43)">
<path fill-rule="evenodd" clip-rule="evenodd" d="M129.911 109.4C125.257 109.427 120.584 109.311 119.651 109.064L119.552 81.9777C121.466 81.7499 139.589 81.433 143.446 82.7613C148.364 84.456 152.309 90.088 152.309 95.516C152.309 99.3179 150.687 102.545 148.741 104.566C143.505 110.005 137.022 109.359 129.911 109.402V109.4ZM112.275 75.7549L112.201 112.103L102.735 112.413C100.765 112.614 100.645 115.784 102.624 116.543C103.669 116.932 107.674 116.688 108.931 116.688H112.089L112.083 128.379H108.928C107.59 128.379 103.817 128.169 102.669 128.538C100.71 129.171 100.705 132.356 102.78 132.719C104.842 132.737 106.905 132.729 108.97 132.729H112.055L112.27 142.29C112.684 144.076 115.653 144.299 116.376 142.266L116.522 132.778L119.617 132.766C124.425 132.746 129.231 132.737 134.038 132.734C138.492 132.73 143.005 132.676 147.458 132.783C148.821 132.41 149.399 131.193 148.911 129.793C148.794 129.457 148.621 129.066 148.309 128.863C147.429 128.296 144.702 128.378 143.673 128.379C135.674 128.393 127.675 128.379 119.678 128.379H116.521L116.527 116.676L119.694 116.688C127.774 116.72 141.112 117.972 148.279 114.403C151.483 112.807 153.734 110.79 155.868 107.949C161.704 100.178 161.159 88.3582 154.488 81.2403C150.29 76.7599 145.737 75.0142 139.707 74.4807C135.751 74.1303 131.665 74.0427 127.693 74.006C123.83 73.9694 119.881 73.9837 116.026 74.2322C115.136 74.2895 113.245 74.4823 112.572 75.1576C112.409 75.3216 112.326 75.5335 112.276 75.7533L112.275 75.7549ZM130.093 112.095C126.333 112.117 122.594 112.089 118.838 112.098L116.511 112.104L116.388 79.192L119.177 78.8591C120.654 78.6823 122.4 78.6967 123.894 78.6696C126.542 78.6218 129.194 78.617 131.843 78.66C134.234 78.6983 136.639 78.7699 139.024 78.9451C140.707 79.0694 142.885 79.2446 144.479 79.7941C150.809 81.9745 155.464 88.9014 155.464 95.516C155.464 99.6221 153.883 103.763 151.02 106.739C144.964 113.027 138.102 112.049 130.093 112.096V112.095ZM109.12 75.4793L109.051 109.064L102.547 109.277C97.2086 109.677 96.3347 117.494 101.488 119.474C103.181 120.124 106.934 119.829 108.93 119.829L108.927 125.24C106.973 125.24 103.335 125.023 101.694 125.552C96.4788 127.236 96.9941 135.223 102.546 135.859C104.762 135.879 108.967 135.87 108.967 135.87L109.117 142.602C109.912 147.975 118.155 148.472 119.523 142.723L119.627 135.905C119.627 135.905 143.391 135.817 147.759 135.93C150.71 135.394 153.206 132.538 151.888 128.761C150.657 125.235 147.674 125.23 143.663 125.238C135.668 125.253 127.669 125.238 119.673 125.238L119.676 119.828C129.375 119.866 141.861 121.108 149.685 117.211C153.57 115.276 156.121 112.85 158.388 109.83C165.126 100.861 164.518 87.3532 156.79 79.0996C151.657 73.6285 146.081 71.8941 139.981 71.3541C133.834 70.811 122.188 70.6899 115.818 71.0993C112.388 71.3191 109.589 72.2827 109.117 75.4793H109.12Z" fill="white"/>
</g>
<path d="M130.826 1.00411L130.551 0.84469L130.275 1.00411L65.5504 38.4337L65.8261 38.9105L65.5503 38.4338L0.825712 75.8909L0.550846 76.0499L0.550846 76.3675L0.550849 151.227L0.550852 226.113L0.550852 226.431L0.825718 226.59L65.5503 264.047L65.5504 264.047L130.275 301.477L130.551 301.636L130.826 301.477L195.551 264.047L195.551 264.047L260.276 226.59L260.551 226.431L260.551 226.113L260.551 151.227L260.551 76.3675L260.551 76.0499L260.276 75.8909L195.551 38.4338L195.275 38.9105L195.551 38.4337L130.826 1.00411Z" stroke="#024FA2" stroke-width="1.10141"/>
<defs>
<clipPath id="clip0_244_43">
<rect width="65" height="75.981" fill="white" transform="translate(98.0509 70.8547)"/>
</clipPath>
</defs>
</svg>
