<svg width="300" height="38" viewBox="0 0 300 38" fill="none" xmlns="http://www.w3.org/2000/svg">
<g clip-path="url(#clip0_69_1231)">
<path fill-rule="evenodd" clip-rule="evenodd" d="M35.369 9.62272C35.3531 8.39241 35.3666 7.15326 35.3666 5.92201C35.3666 2.78972 34.9103 2.75029 39.4881 2.75026C40.4059 2.75026 42.0162 2.62567 42.7187 3.07725C43.1787 3.37305 43.0956 3.92424 43.0953 4.6042C43.093 10.0585 43.7912 9.64953 38.9328 9.64953C38.0482 9.64953 36.1326 9.75507 35.369 9.62275L35.369 9.62272ZM41.1526 12.395C43.6713 12.3779 45.2722 11.4404 45.5654 9.05331C45.5392 7.26696 45.6135 5.45082 45.5774 3.66042C45.5426 1.93767 44.6618 0.934997 43.3935 0.440235C41.9728 -0.114023 40.0852 0.0126946 38.4392 0.0120201C36.8234 0.0113792 34.9914 0.0462543 33.9966 0.964813C32.7782 2.08982 32.9014 3.33878 32.9014 5.29449V13.4524C32.9014 14.6596 32.6485 16.113 34.596 15.7515C35.0037 15.6758 35.1766 15.4638 35.2932 15.0812C35.4556 14.5483 35.3336 13.0791 35.3736 12.4011L41.1526 12.3949L41.1526 12.395Z" fill="#FE0000"/>
<path fill-rule="evenodd" clip-rule="evenodd" d="M51.4239 11.794C51.5499 12.3419 51.4554 14.7801 51.4554 15.5228C51.4554 17.131 51.7342 17.9899 50.6491 18.3999C49.7197 18.7511 48.2684 18.6664 47.1999 18.6664C43.1136 18.6666 43.5732 18.6966 43.5732 14.8953C43.5732 13.6199 43.2686 12.4258 44.3629 12.0137C45.2425 11.6824 46.7809 11.7839 47.8169 11.7841C48.9483 11.7843 50.3227 11.7129 51.4239 11.794H51.4239ZM45.5649 9.0529C45.2717 11.44 43.6708 12.3775 41.1521 12.3945C41.071 12.9957 41.0791 16.9133 41.0837 17.7826C41.1052 21.8639 45.5841 21.3988 48.2488 21.399C50.0508 21.3991 51.3584 21.264 52.5078 20.2938C53.7919 19.2099 53.9142 18.5164 53.9139 16.2759V8.11798C53.9139 6.87361 54.1853 5.43536 52.273 5.75123C50.9762 5.96544 51.6442 7.87588 51.4353 9.03121L45.5649 9.0529H45.5649Z" fill="#0091FE"/>
<path fill-rule="evenodd" clip-rule="evenodd" d="M82.4607 34.8819C82.7907 34.7899 86.0594 34.7032 86.4392 34.9846C86.692 35.1718 86.7175 35.8449 86.4996 36.1045C86.2003 36.4611 82.6119 36.3315 82.4928 36.2243C82.3095 36.0592 82.4192 35.1576 82.4607 34.8819V34.8819ZM82.5241 33.0545C82.3743 32.8684 82.4359 32.1839 82.4512 31.8957C82.4651 31.6346 82.479 31.6253 82.7329 31.6146C82.9264 31.6065 83.1549 31.6184 83.3563 31.6154C83.8596 31.6078 85.3767 31.5607 85.7756 31.6502C86.1399 31.7319 86.4858 31.7732 86.5766 32.0649C86.6812 32.4009 86.6333 32.8935 86.3608 33.0156C85.9673 33.1917 84.6341 33.1295 84.0967 33.1295C83.833 33.1295 82.6868 33.2044 82.5241 33.0545H82.5241ZM81.4541 30.1284C81.101 30.2097 81.0526 30.2326 80.8816 30.5159C80.7188 30.7858 80.7528 30.9457 80.7562 31.3372L80.7614 37.1076C80.8334 37.6575 81.2963 37.8752 81.8733 37.8706L85.6393 37.8681C86.3325 37.87 86.7057 37.7898 87.1504 37.453C87.4349 37.2375 87.8336 36.8611 87.9146 36.3512C87.9933 35.8564 87.9882 34.9098 87.8315 34.497C87.4966 33.6147 87.9362 33.6738 87.981 32.969C88.0568 31.7776 87.9545 30.7941 86.8033 30.341C85.8581 29.9689 86.1326 30.1966 85.1363 30.0861C84.5381 30.0197 81.9468 30.015 81.4542 30.1284H81.4541Z" fill="#007ECA"/>
<path fill-rule="evenodd" clip-rule="evenodd" d="M27.0348 36.2377C27.0458 36.1909 29.0606 32.5476 29.0606 32.5476C29.3566 33.0139 30.8409 36.2179 30.8409 36.2179C30.5157 36.304 27.6299 36.2819 27.0348 36.2377ZM26.4072 37.7966C27.8468 37.7941 29.2866 37.7963 30.7262 37.7963C31.3879 37.7963 32.2355 37.754 32.8095 37.7705C34.059 37.8065 34.0405 36.4583 33.005 36.2767C32.6079 36.207 32.6306 36.1007 32.469 35.7795C31.7279 34.3521 31.0105 32.9251 30.2582 31.5016C29.8322 30.6534 29.0948 29.1035 28.1052 30.7466L26.6344 33.5756C26.3819 34.0768 25.3658 36.195 25.0377 36.2596C24.6214 36.3417 24.4377 36.2828 24.2094 36.565C24.0488 36.7634 23.9084 36.9992 24.0189 37.2788C24.3066 38.0071 25.0848 37.654 26.4072 37.7965V37.7966Z" fill="#007ECA"/>
<path fill-rule="evenodd" clip-rule="evenodd" d="M39.8344 35.9804C39.6533 36.3483 38.4727 36.3847 38.0686 36.3877C35.439 36.4067 35.9323 36.1216 35.9005 34.1606C35.8936 33.7332 35.8297 32.2988 35.9976 32.0519C36.34 31.5483 39.1066 31.4377 39.693 31.8804C40.0485 32.1488 39.9082 33.3203 39.9083 33.8468C39.9085 34.3323 39.9929 35.6583 39.8344 35.9804H39.8344ZM37.4662 30.066C36.7663 30.1878 36.8175 29.9893 35.8247 30.3092C33.9007 30.9292 34.4312 32.1943 34.2887 34.3464C34.2722 34.5959 34.3398 35.8505 34.3888 36.1341C34.6443 37.6142 36.2336 37.763 37.3047 37.957C38.1801 38.1156 40.476 37.7952 41.0722 37.0917C41.5673 36.5076 41.4257 34.6299 41.4257 33.5958C41.4257 32.7109 41.5622 31.1574 40.6179 30.5658C40.3262 30.383 40.3908 30.3457 39.9866 30.2627C39.3239 30.1265 38.1739 29.9428 37.4662 30.066Z" fill="#007ECA"/>
<path fill-rule="evenodd" clip-rule="evenodd" d="M78.0782 35.8555C77.8879 36.6482 74.9701 36.4269 74.4218 36.2316C73.9087 36.0489 74.0511 35.2992 74.0578 34.4122C74.061 33.9975 74.0071 32.4812 74.0901 32.1996C74.3233 31.4078 77.1245 31.5187 77.7564 31.8249C78.2693 32.0734 78.1056 32.9786 78.1073 33.6592C78.1084 34.119 78.1583 35.522 78.0782 35.8556V35.8555ZM72.514 32.2786L72.5127 35.1653C72.5161 36.3405 72.5364 36.8981 73.7845 37.5549C74.3361 37.8452 75.6754 38.0006 76.3221 38.0002C76.8061 38 78.3899 37.693 78.7765 37.4624C79.7229 36.8978 79.5888 35.7308 79.5917 34.5377C79.5966 32.5816 79.9429 30.6272 77.8497 30.1556C77.4764 30.0715 76.8342 30.101 76.415 30.0406C75.4275 29.8984 73.5269 30.1551 72.851 31.0673C72.6641 31.3197 72.5143 31.849 72.514 32.2786V32.2786Z" fill="#007ECA"/>
<path fill-rule="evenodd" clip-rule="evenodd" d="M57.8096 35.8548C57.7223 35.4305 57.7879 34.168 57.788 33.6585C57.7885 31.9677 57.4334 31.5938 60.1584 31.6183C60.7108 31.6232 61.6435 31.6666 61.8094 32.1734C61.8501 32.2975 61.9195 35.6651 61.7608 35.9813C61.5121 36.4767 59.9897 36.395 59.4779 36.394C58.9312 36.393 57.9239 36.4098 57.8096 35.8548V35.8548ZM56.2106 34.1605C56.2172 36.2521 56.0759 36.9411 57.7734 37.6468C58.4769 37.9392 62.2326 38.2414 63.0224 36.9547C63.4312 36.2888 63.29 34.1026 63.2903 33.2819C63.2906 32.2073 63.4127 32.4769 63.1617 31.4664C63.1163 31.2836 63.1304 31.3222 63.0615 31.1941C62.5785 30.2961 61.8392 30.2118 60.9734 30.1175C60.2299 30.0366 60.6537 30.0073 59.7863 30.0059C58.8309 30.0043 57.4166 30.2026 56.7649 30.8368C56.0808 31.5028 56.2138 32.9209 56.2106 34.1605H56.2106Z" fill="#007ECA"/>
<path fill-rule="evenodd" clip-rule="evenodd" d="M21.9119 35.9801C21.7258 36.3704 20.5952 36.3965 20.1764 36.3995C17.4694 36.4182 17.9353 36.2913 17.9067 34.223C17.9003 33.7594 17.8127 32.3512 17.9945 32.0653C18.4003 31.4267 20.8992 31.5066 21.6553 31.8354C22.131 32.0424 21.9814 32.9065 21.98 33.7838C21.9793 34.2249 22.0504 35.6898 21.9119 35.9801H21.9119ZM16.3459 34.223C16.3452 35.5886 16.2146 36.6881 17.322 37.3715C17.8774 37.7143 19.1593 38.0101 19.8289 37.9601C21.0803 37.9215 21.4905 37.8936 22.5282 37.4856C22.9465 37.3439 23.0935 37.1012 23.2679 36.6865C23.4564 36.238 23.3804 35.0973 23.3802 34.474C23.38 33.2881 23.5948 31.855 23.0735 31.021C22.4145 29.9667 20.6413 30.0647 19.4976 30.0651C18.6777 30.0654 17.2811 30.305 16.7866 30.9549C16.5073 31.322 16.4248 31.7767 16.4125 32.4052L16.3459 34.2231V34.223Z" fill="#F32326"/>
<path fill-rule="evenodd" clip-rule="evenodd" d="M65.9862 33.6327C65.9245 33.2339 65.8757 32.0005 65.9851 31.6503C66.1904 31.5944 69.3949 31.5315 69.8465 31.7151C70.2706 31.8875 70.3133 32.1233 70.2914 32.6556C70.2449 33.7876 69.6588 33.7155 68.6101 33.7009C67.9709 33.692 66.4802 33.7971 65.9861 33.6327L65.9862 33.6327ZM66.7598 30.0813C63.9835 30.0731 64.3799 29.6314 64.3862 34.4114C64.387 35.0263 64.305 36.9633 64.4614 37.3661C64.6787 37.9259 65.4155 37.9958 65.7441 37.5176C65.9743 37.1825 65.9124 36.4309 65.9125 35.9175C65.9125 35.2152 65.7305 35.3344 67.191 35.3349C67.7688 35.3351 68.4776 35.3727 69.0394 35.3338C69.4207 35.3074 70.1663 35.1799 70.5374 34.9966C71.5441 34.4992 71.7388 33.5161 71.7361 32.4024C71.7342 31.6477 71.4466 30.772 70.8477 30.444L70.1838 30.1746C70.1184 30.1557 68.484 30.0018 68.425 30.0049L66.7598 30.0813V30.0813Z" fill="#007ECA"/>
<path fill-rule="evenodd" clip-rule="evenodd" d="M9.69077 33.6594C9.64421 33.5263 9.52443 31.7185 9.77063 31.6255C9.88553 31.5821 11.6344 31.6072 11.9082 31.6076C12.517 31.6076 13.5875 31.5115 13.8733 31.9106C14.0224 32.1187 14.0352 32.8186 13.9611 33.1076C13.7552 33.9106 12.6555 33.7211 11.8465 33.7213C11.127 33.7213 10.4049 33.7511 9.69077 33.6593V33.6594ZM9.74867 30.124C8.03616 30.1233 8.10215 30.0889 8.10059 31.965L8.10029 36.3577C8.10046 36.8239 8.01258 37.2474 8.26972 37.5494C8.50712 37.8281 8.84902 37.9058 9.19115 37.7367C9.80077 37.4356 9.61579 36.4734 9.61563 35.3397L10.3667 35.3329C11.3 35.3969 13.6521 35.3736 14.4115 34.8932C15.6171 34.1306 15.7276 31.9149 15.0128 30.8761C14.2833 29.8159 11.1919 30.0194 9.74861 30.124H9.74867Z" fill="#F32326"/>
<path fill-rule="evenodd" clip-rule="evenodd" d="M44.0438 32.6687C43.9108 32.0029 44.1773 30.8537 43.7712 30.3676C43.4489 29.9817 42.4721 29.8455 42.4702 31.2114L42.4688 36.9847C42.4688 37.7757 43.4386 38.1622 43.8896 37.3872C44.1427 36.9524 43.8578 35.7983 44.0271 35.2676C44.2719 35.1521 44.846 35.6645 45.1646 35.9209C45.5469 36.2284 47.5896 37.7195 47.9598 37.7898C48.2456 37.8441 48.5306 37.7483 48.6752 37.6045C48.8524 37.4284 48.9153 37.1476 48.8468 36.8993C48.7711 36.6248 48.6436 36.5301 48.4108 36.3811C48.2136 36.2549 48.041 36.1153 47.8747 35.9878L46.2309 34.835C45.9698 34.6658 45.26 34.2288 45.1565 33.9725C45.4035 33.5059 47.7396 32.0783 48.3733 31.5905C48.5422 31.4605 48.7727 31.3079 48.8404 31.1064C48.9817 30.6858 48.7277 30.0534 48.0711 30.0809C47.7021 30.0965 46.6431 30.9229 46.3413 31.1506L44.7187 32.3242C44.5025 32.4831 44.3506 32.6505 44.0438 32.6686L44.0438 32.6687Z" fill="#007ECA"/>
<path fill-rule="evenodd" clip-rule="evenodd" d="M1.49597 32.9057C1.4966 32.2702 1.4187 31.9514 1.98623 31.7859C2.55035 31.6214 4.21641 31.6043 4.87537 31.7309C5.3841 31.8286 5.604 31.9365 5.60513 32.5292L5.60576 36.6709C5.60576 37.1877 5.65278 37.8094 6.47719 37.8083C6.95913 37.6508 7.08504 37.3673 7.08946 36.8993C7.10196 35.5737 7.29317 32.6043 6.91005 31.4095C6.46853 30.0323 4.6177 30.1282 3.51732 30.1256C2.66645 30.1236 1.82066 30.1632 1.18182 30.473C0.678659 30.7169 0.000497429 31.2049 0.000464267 31.8389L0 37.2985C0.000397943 37.6768 0.687049 37.9031 0.995156 37.7498C1.39244 37.5522 1.50857 37.3235 1.50336 36.7349L1.49593 32.9057L1.49597 32.9057Z" fill="#F32326"/>
<path fill-rule="evenodd" clip-rule="evenodd" d="M50.7171 31.6067L51.8697 31.6115C51.8697 31.6115 51.9545 35.1653 51.9543 36.6714C51.9549 36.9943 51.9001 37.2599 52.0815 37.4822C52.4198 37.8967 52.695 37.9106 53.0085 37.7481C53.6544 37.4132 53.4761 36.8311 53.4761 35.6673C53.4761 34.5749 53.3669 32.4194 53.5655 31.6106L55.0977 31.6079C56.1043 31.6079 56.6841 30.0737 54.6658 30.0718L51.0872 30.0713C50.913 30.0712 50.2539 30.0796 50.1224 30.0959C49.4147 30.1835 49.1657 31.0306 49.6842 31.4495C49.932 31.6497 50.3318 31.6056 50.7171 31.6067L50.7171 31.6067Z" fill="#007ECA"/>
<path fill-rule="evenodd" clip-rule="evenodd" d="M37.3565 6.42418C37.5932 7.29815 38.561 7.8771 39.6617 7.6748C42.1434 7.21869 41.3372 3.88532 38.8588 4.33805C37.9638 4.50153 37.0465 5.28002 37.3564 6.42418H37.3565Z" fill="#FE0000"/>
<path fill-rule="evenodd" clip-rule="evenodd" d="M47.0558 13.7283C46.1761 13.8969 45.3544 14.6471 45.5811 15.7253C46.0371 17.8947 49.7879 17.3095 49.2825 15.0406C49.089 14.1719 48.139 13.5207 47.0558 13.7283L47.0558 13.7283Z" fill="#0091FE"/>
</g>
<path d="M164 5L167.95 13.5634L177.315 14.6738L170.391 21.0766L172.229 30.3262L164 25.72L155.771 30.3262L157.609 21.0766L150.685 14.6738L160.05 13.5634L164 5Z" fill="#FFDC0A"/>
<path d="M255.5 5L259.591 13.5634L269.29 14.6738L262.119 21.0766L264.023 30.3262L255.5 25.72L246.977 30.3262L248.881 21.0766L241.71 14.6738L251.409 13.5634L255.5 5Z" fill="#FFDC0A"/>
<path d="M194.5 5L198.591 13.5634L208.29 14.6738L201.119 21.0766L203.023 30.3262L194.5 25.72L185.977 30.3262L187.881 21.0766L180.71 14.6738L190.409 13.5634L194.5 5Z" fill="#FFDC0A"/>
<path d="M225 5L228.95 13.5634L238.315 14.6738L231.391 21.0766L233.229 30.3262L225 25.72L216.771 30.3262L218.609 21.0766L211.685 14.6738L221.05 13.5634L225 5Z" fill="#FFDC0A"/>
<path d="M286 5L289.95 13.5634L299.315 14.6738L292.391 21.0766L294.229 30.3262L286 25.72L277.771 30.3262L279.609 21.0766L272.685 14.6738L282.05 13.5634L286 5Z" fill="#FFDC0A"/>
<defs>
<clipPath id="clip0_69_1231">
<rect width="88" height="38" fill="white"/>
</clipPath>
</defs>
</svg>
