<svg width="264" height="303" viewBox="0 0 264 303" fill="none" xmlns="http://www.w3.org/2000/svg">
<path d="M75.2601 52.3671L75.2607 52.3667L132 19.6986L188.739 52.3667L188.74 52.3671L245.475 85.0569L245.475 150.386L245.475 215.74L188.74 248.43L188.739 248.431L132 281.099L75.2607 248.431L75.2601 248.43L18.5248 215.74L18.5248 150.386L18.5248 85.0569L75.2601 52.3671Z" fill="#F8F8F8" stroke="#4D4D4D" stroke-width="4.40566"/>
<path d="M43.2487 186.801L43.2487 177.077H39.1567L39.1567 186.801C39.1567 187.278 39.1421 187.619 39.1127 187.824C39.0907 188.022 39.0247 188.231 38.9147 188.451C38.7754 188.73 38.5517 188.957 38.2437 189.133C37.9431 189.309 37.6021 189.397 37.2207 189.397C36.8394 189.397 36.4947 189.309 36.1867 189.133C35.8861 188.957 35.6661 188.73 35.5267 188.451C35.4167 188.231 35.3471 188.022 35.3177 187.824C35.2957 187.619 35.2847 187.278 35.2847 186.801L35.2847 176.01C35.2847 175.746 35.2884 175.537 35.2957 175.383C35.3104 175.229 35.3581 175.035 35.4387 174.8C35.5267 174.558 35.6551 174.353 35.8237 174.184C35.9924 174.016 36.1941 173.891 36.4287 173.81C36.6707 173.722 36.8687 173.675 37.0227 173.667C37.1767 173.653 37.3857 173.645 37.6497 173.645H44.7557C45.0197 173.645 45.2287 173.653 45.3827 173.667C45.5367 173.675 45.7311 173.722 45.9657 173.81C46.2077 173.891 46.4131 174.016 46.5817 174.184C46.7504 174.353 46.8751 174.558 46.9557 174.8C47.0437 175.035 47.0914 175.229 47.0987 175.383C47.1134 175.537 47.1207 175.746 47.1207 176.01L47.1207 186.801C47.1207 187.278 47.1061 187.619 47.0767 187.824C47.0547 188.022 46.9887 188.231 46.8787 188.451C46.7394 188.73 46.5157 188.957 46.2077 189.133C45.9071 189.309 45.5661 189.397 45.1847 189.397C44.8034 189.397 44.4587 189.309 44.1507 189.133C43.8501 188.957 43.6301 188.73 43.4907 188.451C43.3807 188.231 43.3111 188.022 43.2817 187.824C43.2597 187.619 43.2487 187.278 43.2487 186.801ZM50.2378 186.801L50.2378 176.01C50.2378 175.746 50.2415 175.537 50.2488 175.383C50.2635 175.229 50.3112 175.035 50.3918 174.8C50.4798 174.558 50.6082 174.353 50.7768 174.184C50.9455 174.016 51.1472 173.891 51.3818 173.81C51.6238 173.722 51.8218 173.675 51.9758 173.667C52.1298 173.653 52.3388 173.645 52.6028 173.645H56.4638C57.3072 173.645 58.0735 173.788 58.7628 174.074C59.4522 174.353 60.0132 174.731 60.4458 175.207C60.8858 175.677 61.2232 176.212 61.4578 176.813C61.6925 177.407 61.8098 178.031 61.8098 178.683C61.8098 179.336 61.6925 179.963 61.4578 180.564C61.2232 181.158 60.8858 181.694 60.4458 182.17C60.0132 182.64 59.4522 183.017 58.7628 183.303C58.0735 183.582 57.3072 183.721 56.4638 183.721H54.1098L54.1098 186.801C54.1098 187.278 54.0952 187.619 54.0658 187.824C54.0438 188.022 53.9778 188.231 53.8678 188.451C53.7285 188.73 53.5048 188.957 53.1968 189.133C52.8962 189.309 52.5552 189.397 52.1738 189.397C51.7925 189.397 51.4478 189.309 51.1398 189.133C50.8392 188.957 50.6192 188.73 50.4798 188.451C50.3698 188.231 50.3002 188.022 50.2708 187.824C50.2488 187.619 50.2378 187.278 50.2378 186.801ZM54.1098 180.289H56.2878C56.7938 180.289 57.1972 180.132 57.4978 179.816C57.8058 179.494 57.9598 179.116 57.9598 178.683C57.9598 178.251 57.8058 177.877 57.4978 177.561C57.1972 177.239 56.7938 177.077 56.2878 177.077H54.1098L54.1098 180.289ZM73.8758 187.725C73.2965 188.305 72.6548 188.737 71.9508 189.023C71.2541 189.302 70.4401 189.441 69.5088 189.441C68.5775 189.441 67.7598 189.302 67.0558 189.023C66.3591 188.737 65.7211 188.305 65.1418 187.725C64.8338 187.417 64.5735 187.073 64.3608 186.691C64.1481 186.31 63.9868 185.954 63.8768 185.624C63.7741 185.287 63.6935 184.858 63.6348 184.337C63.5835 183.809 63.5505 183.369 63.5358 183.017C63.5285 182.658 63.5248 182.145 63.5248 181.477C63.5248 180.81 63.5285 180.3 63.5358 179.948C63.5505 179.589 63.5835 179.149 63.6348 178.628C63.6935 178.1 63.7741 177.671 63.8768 177.341C63.9868 177.004 64.1481 176.645 64.3608 176.263C64.5735 175.882 64.8338 175.537 65.1418 175.229C65.7211 174.65 66.3591 174.221 67.0558 173.942C67.7598 173.656 68.5775 173.513 69.5088 173.513C70.4401 173.513 71.2541 173.656 71.9508 173.942C72.6548 174.221 73.2965 174.65 73.8758 175.229C74.1838 175.537 74.4441 175.882 74.6568 176.263C74.8695 176.645 75.0271 177.004 75.1298 177.341C75.2398 177.671 75.3205 178.1 75.3718 178.628C75.4305 179.149 75.4635 179.589 75.4708 179.948C75.4855 180.3 75.4928 180.81 75.4928 181.477C75.4928 182.145 75.4855 182.658 75.4708 183.017C75.4635 183.369 75.4305 183.809 75.3718 184.337C75.3205 184.858 75.2398 185.287 75.1298 185.624C75.0271 185.954 74.8695 186.31 74.6568 186.691C74.4441 187.073 74.1838 187.417 73.8758 187.725ZM71.0488 185.305C71.2541 185.034 71.4008 184.656 71.4888 184.172C71.5768 183.688 71.6208 182.79 71.6208 181.477C71.6208 180.165 71.5768 179.263 71.4888 178.771C71.4008 178.273 71.2541 177.891 71.0488 177.627C70.8948 177.429 70.6821 177.268 70.4108 177.143C70.1468 177.011 69.8461 176.945 69.5088 176.945C69.1715 176.945 68.8671 177.011 68.5958 177.143C68.3318 177.268 68.1228 177.429 67.9688 177.627C67.7635 177.891 67.6168 178.273 67.5288 178.771C67.4408 179.263 67.3968 180.165 67.3968 181.477C67.3968 182.79 67.4408 183.688 67.5288 184.172C67.6168 184.656 67.7635 185.034 67.9688 185.305C68.3281 185.775 68.8415 186.009 69.5088 186.009C70.1761 186.009 70.6895 185.775 71.0488 185.305ZM80.4375 186.801L80.4375 177.077H78.8205C78.4025 177.077 78.0981 177.066 77.9075 177.044C77.7168 177.015 77.5298 176.956 77.3465 176.868C77.0971 176.751 76.8955 176.557 76.7415 176.285C76.5875 176.007 76.5105 175.699 76.5105 175.361C76.5105 175.024 76.5875 174.72 76.7415 174.448C76.8955 174.17 77.0971 173.972 77.3465 173.854C77.5298 173.766 77.7168 173.711 77.9075 173.689C78.0981 173.66 78.4025 173.645 78.8205 173.645H85.9265C86.3445 173.645 86.6488 173.66 86.8395 173.689C87.0301 173.711 87.2172 173.766 87.4005 173.854C87.6498 173.972 87.8515 174.17 88.0055 174.448C88.1595 174.72 88.2365 175.024 88.2365 175.361C88.2365 175.699 88.1595 176.007 88.0055 176.285C87.8515 176.557 87.6498 176.751 87.4005 176.868C87.2172 176.956 87.0301 177.015 86.8395 177.044C86.6488 177.066 86.3445 177.077 85.9265 177.077H84.3095L84.3095 186.801C84.3095 187.278 84.2948 187.619 84.2655 187.824C84.2435 188.022 84.1775 188.231 84.0675 188.451C83.9281 188.73 83.7045 188.957 83.3965 189.133C83.0958 189.309 82.7548 189.397 82.3735 189.397C81.9922 189.397 81.6475 189.309 81.3395 189.133C81.0388 188.957 80.8188 188.73 80.6795 188.451C80.5695 188.231 80.4998 188.022 80.4705 187.824C80.4485 187.619 80.4375 187.278 80.4375 186.801ZM98.7977 189.309H92.6927C92.4287 189.309 92.2197 189.306 92.0657 189.298C91.9117 189.284 91.7137 189.236 91.4717 189.155C91.237 189.067 91.0354 188.939 90.8667 188.77C90.698 188.602 90.5697 188.4 90.4817 188.165C90.401 187.923 90.3534 187.725 90.3387 187.571C90.3314 187.417 90.3277 187.208 90.3277 186.944L90.3277 176.01C90.3277 175.746 90.3314 175.537 90.3387 175.383C90.3534 175.229 90.401 175.035 90.4817 174.8C90.5697 174.558 90.698 174.353 90.8667 174.184C91.0354 174.016 91.237 173.891 91.4717 173.81C91.7137 173.722 91.9117 173.675 92.0657 173.667C92.2197 173.653 92.4287 173.645 92.6927 173.645H98.7977C99.2157 173.645 99.52 173.66 99.7107 173.689C99.9014 173.711 100.088 173.766 100.272 173.854C100.521 173.972 100.723 174.17 100.877 174.448C101.031 174.72 101.108 175.024 101.108 175.361C101.108 175.699 101.031 176.007 100.877 176.285C100.723 176.557 100.521 176.751 100.272 176.868C100.088 176.956 99.9014 177.015 99.7107 177.044C99.52 177.066 99.2157 177.077 98.7977 177.077H94.1997L94.1997 179.695H97.8077C98.2257 179.695 98.53 179.71 98.7207 179.739C98.9114 179.761 99.0984 179.816 99.2817 179.904C99.531 180.022 99.7327 180.22 99.8867 180.498C100.041 180.77 100.118 181.074 100.118 181.411C100.118 181.749 100.041 182.057 99.8867 182.335C99.7327 182.607 99.531 182.801 99.2817 182.918C99.0984 183.006 98.9114 183.065 98.7207 183.094C98.53 183.116 98.2257 183.127 97.8077 183.127H94.1997L94.1997 185.877H98.7977C99.2157 185.877 99.52 185.892 99.7107 185.921C99.9014 185.943 100.088 185.998 100.272 186.086C100.521 186.204 100.723 186.402 100.877 186.68C101.031 186.952 101.108 187.256 101.108 187.593C101.108 187.931 101.031 188.239 100.877 188.517C100.723 188.789 100.521 188.983 100.272 189.1C100.088 189.188 99.9014 189.247 99.7107 189.276C99.52 189.298 99.2157 189.309 98.7977 189.309ZM103.097 177.517C103.097 176.527 103.563 175.618 104.494 174.789C105.037 174.313 105.649 173.983 106.331 173.799C107.021 173.609 107.853 173.513 108.828 173.513C110.515 173.513 111.883 173.92 112.931 174.734C113.98 175.541 114.504 176.615 114.504 177.957C114.504 178.639 114.328 179.266 113.976 179.838C113.632 180.41 113.177 180.869 112.612 181.213C113.25 181.536 113.76 181.998 114.141 182.599C114.53 183.193 114.724 183.875 114.724 184.645C114.724 186.09 114.174 187.252 113.074 188.132C111.982 189.005 110.552 189.441 108.784 189.441C107.772 189.441 106.922 189.35 106.232 189.166C105.543 188.976 104.927 188.642 104.384 188.165C103.446 187.329 102.976 186.42 102.976 185.437C102.976 184.829 103.152 184.359 103.504 184.029C103.864 183.692 104.293 183.523 104.791 183.523C105.261 183.523 105.697 183.659 106.1 183.93C106.386 184.128 106.672 184.495 106.958 185.03C107.164 185.412 107.413 185.687 107.706 185.855C108 186.017 108.399 186.097 108.905 186.097C109.529 186.097 110.009 185.951 110.346 185.657C110.684 185.364 110.852 184.983 110.852 184.513C110.852 184.007 110.695 183.608 110.379 183.314C110.071 183.014 109.598 182.863 108.96 182.863H108.674C108.029 182.863 107.578 182.801 107.321 182.676C107.094 182.566 106.911 182.39 106.771 182.148C106.632 181.899 106.562 181.617 106.562 181.301C106.562 180.986 106.632 180.707 106.771 180.465C106.911 180.216 107.094 180.036 107.321 179.926C107.578 179.802 108.029 179.739 108.674 179.739H108.96C109.488 179.739 109.906 179.607 110.214 179.343C110.522 179.072 110.676 178.705 110.676 178.243C110.676 177.811 110.519 177.466 110.203 177.209C109.888 176.945 109.466 176.813 108.938 176.813C108.447 176.813 108.055 176.898 107.761 177.066C107.475 177.228 107.23 177.499 107.024 177.88C106.738 178.416 106.452 178.782 106.166 178.98C105.763 179.252 105.338 179.387 104.89 179.387C104.406 179.387 103.985 179.219 103.625 178.881C103.273 178.551 103.097 178.097 103.097 177.517ZM129.631 186.801C129.631 187.278 129.616 187.619 129.587 187.824C129.565 188.022 129.499 188.231 129.389 188.451C129.25 188.73 129.026 188.957 128.718 189.133C128.417 189.309 128.076 189.397 127.695 189.397C127.314 189.397 126.969 189.309 126.661 189.133C126.36 188.957 126.14 188.73 126.001 188.451C125.891 188.231 125.821 188.022 125.792 187.824C125.77 187.619 125.759 187.278 125.759 186.801L125.759 180.993L121.546 187.626C121.128 188.279 120.75 188.737 120.413 189.001C120.083 189.265 119.691 189.397 119.236 189.397C118.693 189.397 118.239 189.214 117.872 188.847C117.667 188.642 117.527 188.393 117.454 188.099C117.388 187.806 117.355 187.443 117.355 187.01L117.355 176.153C117.355 175.677 117.366 175.339 117.388 175.141C117.417 174.936 117.487 174.723 117.597 174.503C117.736 174.225 117.956 173.997 118.257 173.821C118.565 173.645 118.91 173.557 119.291 173.557C119.672 173.557 120.013 173.645 120.314 173.821C120.622 173.997 120.846 174.225 120.985 174.503C121.095 174.723 121.161 174.936 121.183 175.141C121.212 175.339 121.227 175.677 121.227 176.153L121.227 181.961L125.44 175.328C125.858 174.676 126.232 174.217 126.562 173.953C126.899 173.689 127.295 173.557 127.75 173.557C128.293 173.557 128.747 173.741 129.114 174.107C129.319 174.313 129.455 174.562 129.521 174.855C129.594 175.149 129.631 175.512 129.631 175.944L129.631 186.801ZM132.759 186.801L132.759 176.01C132.759 175.746 132.763 175.537 132.77 175.383C132.785 175.229 132.833 175.035 132.913 174.8C133.001 174.558 133.13 174.353 133.298 174.184C133.467 174.016 133.669 173.891 133.903 173.81C134.145 173.722 134.343 173.675 134.497 173.667C134.651 173.653 134.86 173.645 135.124 173.645H138.985C139.829 173.645 140.595 173.788 141.284 174.074C141.974 174.353 142.535 174.731 142.967 175.207C143.407 175.677 143.745 176.212 143.979 176.813C144.214 177.407 144.331 178.031 144.331 178.683C144.331 179.336 144.214 179.963 143.979 180.564C143.745 181.158 143.407 181.694 142.967 182.17C142.535 182.64 141.974 183.017 141.284 183.303C140.595 183.582 139.829 183.721 138.985 183.721H136.631L136.631 186.801C136.631 187.278 136.617 187.619 136.587 187.824C136.565 188.022 136.499 188.231 136.389 188.451C136.25 188.73 136.026 188.957 135.718 189.133C135.418 189.309 135.077 189.397 134.695 189.397C134.314 189.397 133.969 189.309 133.661 189.133C133.361 188.957 133.141 188.73 133.001 188.451C132.891 188.231 132.822 188.022 132.792 187.824C132.77 187.619 132.759 187.278 132.759 186.801ZM136.631 180.289H138.809C139.315 180.289 139.719 180.132 140.019 179.816C140.327 179.494 140.481 179.116 140.481 178.683C140.481 178.251 140.327 177.877 140.019 177.561C139.719 177.239 139.315 177.077 138.809 177.077H136.631L136.631 180.289ZM156.397 187.725C155.818 188.305 155.176 188.737 154.472 189.023C153.776 189.302 152.962 189.441 152.03 189.441C151.099 189.441 150.281 189.302 149.577 189.023C148.881 188.737 148.243 188.305 147.663 187.725C147.355 187.417 147.095 187.073 146.882 186.691C146.67 186.31 146.508 185.954 146.398 185.624C146.296 185.287 146.215 184.858 146.156 184.337C146.105 183.809 146.072 183.369 146.057 183.017C146.05 182.658 146.046 182.145 146.046 181.477C146.046 180.81 146.05 180.3 146.057 179.948C146.072 179.589 146.105 179.149 146.156 178.628C146.215 178.1 146.296 177.671 146.398 177.341C146.508 177.004 146.67 176.645 146.882 176.263C147.095 175.882 147.355 175.537 147.663 175.229C148.243 174.65 148.881 174.221 149.577 173.942C150.281 173.656 151.099 173.513 152.03 173.513C152.962 173.513 153.776 173.656 154.472 173.942C155.176 174.221 155.818 174.65 156.397 175.229C156.705 175.537 156.966 175.882 157.178 176.263C157.391 176.645 157.549 177.004 157.651 177.341C157.761 177.671 157.842 178.1 157.893 178.628C157.952 179.149 157.985 179.589 157.992 179.948C158.007 180.3 158.014 180.81 158.014 181.477C158.014 182.145 158.007 182.658 157.992 183.017C157.985 183.369 157.952 183.809 157.893 184.337C157.842 184.858 157.761 185.287 157.651 185.624C157.549 185.954 157.391 186.31 157.178 186.691C156.966 187.073 156.705 187.417 156.397 187.725ZM153.57 185.305C153.776 185.034 153.922 184.656 154.01 184.172C154.098 183.688 154.142 182.79 154.142 181.477C154.142 180.165 154.098 179.263 154.01 178.771C153.922 178.273 153.776 177.891 153.57 177.627C153.416 177.429 153.204 177.268 152.932 177.143C152.668 177.011 152.368 176.945 152.03 176.945C151.693 176.945 151.389 177.011 151.117 177.143C150.853 177.268 150.644 177.429 150.49 177.627C150.285 177.891 150.138 178.273 150.05 178.771C149.962 179.263 149.918 180.165 149.918 181.477C149.918 182.79 149.962 183.688 150.05 184.172C150.138 184.656 150.285 185.034 150.49 185.305C150.85 185.775 151.363 186.009 152.03 186.009C152.698 186.009 153.211 185.775 153.57 185.305ZM167.467 189.309H162.99C162.726 189.309 162.517 189.306 162.363 189.298C162.209 189.284 162.011 189.236 161.769 189.155C161.534 189.067 161.332 188.939 161.164 188.77C160.995 188.602 160.867 188.4 160.779 188.165C160.698 187.923 160.65 187.725 160.636 187.571C160.628 187.417 160.625 187.208 160.625 186.944L160.625 176.01C160.625 175.746 160.628 175.537 160.636 175.383C160.65 175.229 160.698 175.035 160.779 174.8C160.867 174.558 160.995 174.353 161.164 174.184C161.332 174.016 161.534 173.891 161.769 173.81C162.011 173.722 162.209 173.675 162.363 173.667C162.517 173.653 162.726 173.645 162.99 173.645H167.137C168.735 173.645 169.967 174.056 170.833 174.877C171.698 175.691 172.131 176.791 172.131 178.177C172.131 178.595 172.068 178.988 171.944 179.354C171.819 179.721 171.65 180.033 171.438 180.289C171.232 180.546 171.053 180.748 170.899 180.894C170.745 181.041 170.583 181.169 170.415 181.279C170.598 181.397 170.748 181.499 170.866 181.587C170.99 181.668 171.155 181.811 171.361 182.016C171.573 182.222 171.742 182.434 171.867 182.654C171.991 182.874 172.101 183.164 172.197 183.523C172.299 183.883 172.351 184.271 172.351 184.689C172.351 186.141 171.896 187.274 170.987 188.088C170.085 188.902 168.911 189.309 167.467 189.309ZM164.497 179.651H166.895C167.379 179.651 167.731 179.53 167.951 179.288C168.171 179.039 168.281 178.735 168.281 178.375C168.281 178.016 168.171 177.712 167.951 177.462C167.731 177.206 167.379 177.077 166.895 177.077H164.497L164.497 179.651ZM164.497 185.877H167.093C167.577 185.877 167.932 185.742 168.16 185.47C168.387 185.192 168.501 184.858 168.501 184.469C168.501 184.088 168.387 183.765 168.16 183.501C167.932 183.237 167.577 183.105 167.093 183.105H164.497L164.497 185.877ZM174.206 186.361L178.386 175.262C178.62 174.646 178.888 174.221 179.189 173.986C179.548 173.7 180.003 173.557 180.553 173.557C181.103 173.557 181.557 173.7 181.917 173.986C182.217 174.221 182.485 174.646 182.72 175.262L186.9 186.361C187.046 186.757 187.145 187.069 187.197 187.296C187.255 187.516 187.255 187.769 187.197 188.055C187.145 188.334 187.002 188.591 186.768 188.825C186.386 189.207 185.924 189.397 185.382 189.397C184.942 189.397 184.579 189.265 184.293 189.001C184.131 188.855 183.999 188.69 183.897 188.506C183.801 188.323 183.68 188.026 183.534 187.615L183.303 186.977H177.803L177.572 187.615C177.425 188.026 177.3 188.323 177.198 188.506C177.102 188.69 176.974 188.855 176.813 189.001C176.527 189.265 176.164 189.397 175.724 189.397C175.181 189.397 174.719 189.207 174.338 188.825C174.103 188.591 173.956 188.334 173.898 188.055C173.846 187.769 173.846 187.516 173.898 187.296C173.956 187.069 174.059 186.757 174.206 186.361ZM182.137 183.765L180.553 179.409L178.969 183.765H182.137ZM201.078 186.801C201.078 187.278 201.063 187.619 201.034 187.824C201.012 188.022 200.946 188.231 200.836 188.451C200.696 188.73 200.473 188.957 200.165 189.133C199.864 189.309 199.523 189.397 199.142 189.397C198.76 189.397 198.416 189.309 198.108 189.133C197.807 188.957 197.587 188.73 197.448 188.451C197.338 188.231 197.268 188.022 197.239 187.824C197.217 187.619 197.206 187.278 197.206 186.801L197.206 183.105H193.114L193.114 186.801C193.114 187.278 193.099 187.619 193.07 187.824C193.048 188.022 192.982 188.231 192.872 188.451C192.732 188.73 192.509 188.957 192.201 189.133C191.9 189.309 191.559 189.397 191.178 189.397C190.796 189.397 190.452 189.309 190.144 189.133C189.843 188.957 189.623 188.73 189.484 188.451C189.374 188.231 189.304 188.022 189.275 187.824C189.253 187.619 189.242 187.278 189.242 186.801L189.242 176.153C189.242 175.677 189.253 175.339 189.275 175.141C189.304 174.936 189.374 174.723 189.484 174.503C189.623 174.225 189.843 173.997 190.144 173.821C190.452 173.645 190.796 173.557 191.178 173.557C191.559 173.557 191.9 173.645 192.201 173.821C192.509 173.997 192.732 174.225 192.872 174.503C192.982 174.723 193.048 174.936 193.07 175.141C193.099 175.339 193.114 175.677 193.114 176.153L193.114 179.673H197.206L197.206 176.153C197.206 175.677 197.217 175.339 197.239 175.141C197.268 174.936 197.338 174.723 197.448 174.503C197.587 174.225 197.807 173.997 198.108 173.821C198.416 173.645 198.76 173.557 199.142 173.557C199.523 173.557 199.864 173.645 200.165 173.821C200.473 173.997 200.696 174.225 200.836 174.503C200.946 174.723 201.012 174.936 201.034 175.141C201.063 175.339 201.078 175.677 201.078 176.153L201.078 186.801ZM216.471 186.801C216.471 187.278 216.456 187.619 216.427 187.824C216.405 188.022 216.339 188.231 216.229 188.451C216.09 188.73 215.866 188.957 215.558 189.133C215.257 189.309 214.916 189.397 214.535 189.397C214.154 189.397 213.809 189.309 213.501 189.133C213.2 188.957 212.98 188.73 212.841 188.451C212.731 188.231 212.661 188.022 212.632 187.824C212.61 187.619 212.599 187.278 212.599 186.801L212.599 180.993L208.386 187.626C207.968 188.279 207.59 188.737 207.253 189.001C206.923 189.265 206.531 189.397 206.076 189.397C205.533 189.397 205.079 189.214 204.712 188.847C204.507 188.642 204.367 188.393 204.294 188.099C204.228 187.806 204.195 187.443 204.195 187.01L204.195 176.153C204.195 175.677 204.206 175.339 204.228 175.141C204.257 174.936 204.327 174.723 204.437 174.503C204.576 174.225 204.796 173.997 205.097 173.821C205.405 173.645 205.75 173.557 206.131 173.557C206.512 173.557 206.853 173.645 207.154 173.821C207.462 173.997 207.686 174.225 207.825 174.503C207.935 174.723 208.001 174.936 208.023 175.141C208.052 175.339 208.067 175.677 208.067 176.153L208.067 181.961L212.28 175.328C212.698 174.676 213.072 174.217 213.402 173.953C213.739 173.689 214.135 173.557 214.59 173.557C215.133 173.557 215.587 173.741 215.954 174.107C216.159 174.313 216.295 174.562 216.361 174.855C216.434 175.149 216.471 175.512 216.471 175.944L216.471 186.801ZM228.069 189.309H221.964C221.7 189.309 221.491 189.306 221.337 189.298C221.183 189.284 220.985 189.236 220.743 189.155C220.509 189.067 220.307 188.939 220.138 188.77C219.97 188.602 219.841 188.4 219.753 188.165C219.673 187.923 219.625 187.725 219.61 187.571C219.603 187.417 219.599 187.208 219.599 186.944L219.599 176.01C219.599 175.746 219.603 175.537 219.61 175.383C219.625 175.229 219.673 175.035 219.753 174.8C219.841 174.558 219.97 174.353 220.138 174.184C220.307 174.016 220.509 173.891 220.743 173.81C220.985 173.722 221.183 173.675 221.337 173.667C221.491 173.653 221.7 173.645 221.964 173.645H228.069C228.487 173.645 228.792 173.66 228.982 173.689C229.173 173.711 229.36 173.766 229.543 173.854C229.793 173.972 229.994 174.17 230.148 174.448C230.302 174.72 230.379 175.024 230.379 175.361C230.379 175.699 230.302 176.007 230.148 176.285C229.994 176.557 229.793 176.751 229.543 176.868C229.36 176.956 229.173 177.015 228.982 177.044C228.792 177.066 228.487 177.077 228.069 177.077H223.471L223.471 179.695H227.079C227.497 179.695 227.802 179.71 227.992 179.739C228.183 179.761 228.37 179.816 228.553 179.904C228.803 180.022 229.004 180.22 229.158 180.498C229.312 180.77 229.389 181.074 229.389 181.411C229.389 181.749 229.312 182.057 229.158 182.335C229.004 182.607 228.803 182.801 228.553 182.918C228.37 183.006 228.183 183.065 227.992 183.094C227.802 183.116 227.497 183.127 227.079 183.127H223.471L223.471 185.877H228.069C228.487 185.877 228.792 185.892 228.982 185.921C229.173 185.943 229.36 185.998 229.543 186.086C229.793 186.204 229.994 186.402 230.148 186.68C230.302 186.952 230.379 187.256 230.379 187.593C230.379 187.931 230.302 188.239 230.148 188.517C229.994 188.789 229.793 188.983 229.543 189.1C229.36 189.188 229.173 189.247 228.982 189.276C228.792 189.298 228.487 189.309 228.069 189.309Z" fill="#4D4D4D"/>
<g clip-path="url(#clip0_244_50)">
<path fill-rule="evenodd" clip-rule="evenodd" d="M132.184 66.4727C125.783 66.1781 122.861 60.4114 114.811 62.9515C109.809 64.5295 106.211 69.256 104.277 74.5141C101.899 80.9774 102.048 86.9928 102.584 94.29C102.757 96.6452 103.004 99.0495 103.306 101.448L103.314 101.521C103.362 101.931 103.301 102.679 103.519 103.029L103.577 103.122H103.686C106.91 103.122 110.197 103.452 113.402 103.033C115.202 102.797 116.259 101.776 116.381 99.9493C116.525 97.7913 115.947 90.5792 116.793 89.1615C118.426 86.4274 123.084 87.0756 125.796 87.0756C127.743 87.0756 129.691 87.0764 131.638 87.0748C134.218 87.0725 136.799 87.0748 139.379 87.0748C141.621 87.0748 144.054 86.7273 146.056 87.9724C146.607 88.3146 147.07 88.7334 147.351 89.3257C147.892 90.4665 147.69 92.5669 147.68 93.8266C147.668 95.5658 147.562 97.3533 147.616 99.0855C147.646 100.018 147.731 101.183 148.377 101.919C149.519 103.222 152.851 103.085 154.424 103.085C155.569 103.085 156.713 103.102 157.857 103.118C158.623 103.128 159.404 103.145 160.168 103.11C160.97 103.074 160.976 101.784 161.044 101.174L161.054 101.083L161.054 101.082C162.181 91.1477 162.086 81.3066 159.587 74.5164C157.652 69.2583 154.055 64.5318 149.053 62.9538C141.496 60.5702 138.729 65.4823 132.183 66.475L132.184 66.4727ZM106.038 100.17C104.772 90.9981 103.841 79.4316 108.954 71.3795C110.779 68.5057 114.556 64.3738 119.969 65.256C124.369 65.9733 127.741 69.8099 133.101 69.1969C137.313 68.7144 139.927 65.9027 143.896 65.256C149.309 64.3738 153.087 68.5057 154.911 71.3795C159.57 78.7166 159.188 89.0848 158.221 97.5259C158.142 98.2094 158.032 99.0986 157.89 100.148C157.111 100.163 156.331 100.181 155.551 100.186C154.411 100.193 151.803 100.247 150.655 99.9332C150.468 97.7238 150.611 95.6049 150.691 93.3978C150.753 91.6793 150.776 89.7515 150.069 88.1481C149.582 87.0442 148.807 86.2079 147.805 85.5413C145.514 84.0162 143.198 84.1098 140.549 84.1098H123.313C120.679 84.1098 118.397 84.086 116.159 85.6472C113.914 87.2122 113.526 89.1324 113.403 91.7576C113.343 93.0733 113.416 94.4687 113.441 95.7898C113.458 96.6551 113.473 97.5243 113.456 98.3897C113.447 98.8745 113.439 99.5228 113.34 100.019C111.9 100.308 109.954 100.262 108.503 100.238C107.682 100.224 106.86 100.196 106.038 100.17Z" fill="#4D4D4D"/>
<path fill-rule="evenodd" clip-rule="evenodd" d="M161.41 104.973L161.422 104.927C158.801 104.927 151.627 105.174 149.472 104.569C145.05 103.326 145.111 100.65 145.118 97.4122C145.122 95.5135 145.181 93.6125 145.177 91.7137C145.173 89.6539 145.024 88.4395 142.799 88.3513C139.101 88.2047 134.992 88.3298 131.258 88.3543C129.605 88.3336 120.986 88.25 120.033 88.4004C118.103 88.7049 118.381 90.2838 118.453 92.1679C118.523 94.0275 118.466 95.9907 118.466 97.8618C118.465 101.157 118.057 103.477 113.98 104.583C111.445 105.27 106.112 104.744 103.039 104.887L102.889 104.883L102.89 104.894L102.862 104.896L103.123 106.672C103.285 107.862 103.459 109.05 103.646 110.237L103.648 110.248L103.649 110.252C104.03 112.666 104.462 115.075 104.941 117.47C106.133 123.433 107.473 129.31 109.556 135.036C110.513 137.665 111.694 140.112 113.261 142.435C114.859 144.804 118.275 147.374 121.038 145.13C122.575 143.883 123.56 140.626 124.074 138.785C125.004 135.458 125.655 131.994 126.323 128.604C127.059 124.865 127.777 120.915 128.914 117.28C129.31 116.016 130.472 112.411 132.111 112.172C135.024 112.957 136.371 119.819 136.948 122.348C137.947 126.733 138.561 131.193 139.451 135.601C140.094 138.791 141.016 146.235 145.526 145.947C149.398 145.699 152.067 140.534 153.448 137.425C155.265 133.335 156.634 128.736 157.759 124.411C159.232 118.745 160.375 112.938 161.146 107.137C161.244 106.4 161.285 106.096 161.37 105.358L161.409 104.971L161.41 104.973ZM107.107 108.286C107.486 108.222 111.103 108.32 113.572 108.096C115.707 107.902 118.024 107.25 120.389 105.266C123.84 102.369 122.926 97.113 122.935 91.749L140.531 91.703C141.489 97.2703 138.854 101.133 142.943 105.062C144.394 106.456 145.86 107.258 148.274 107.849C150.729 108.451 154.245 108.07 156.849 108.273C156.156 112.798 155.35 117.141 154.352 121.704C153.637 124.969 149.906 142.112 145.224 142.296C144.241 140.453 143.647 137.781 143.226 135.783C142.568 132.665 142.065 129.507 141.485 126.373C140.81 122.725 140.044 118.823 138.739 115.345C137.835 112.935 136.326 109.846 133.728 108.889C133.165 108.682 132.577 108.584 131.978 108.589C131.551 108.593 131.132 108.658 130.725 108.788C128.175 109.599 126.687 112.766 125.826 115.063C124.512 118.564 123.719 122.486 122.999 126.152C122.363 129.392 121.796 132.666 121.039 135.88C120.594 137.769 119.881 140.614 118.771 142.286C114.264 142.118 110.682 126.438 109.954 123.267C108.82 118.329 107.89 113.305 107.107 108.285V108.286Z" fill="#4D4D4D"/>
</g>
<path d="M132.275 1.2629L132 1.10464L131.725 1.2629L66.7252 38.6925L67 39.1697L66.725 38.6926L1.72503 76.1496L1.44928 76.3085L1.44928 76.6268L1.44929 151.486L1.44929 226.373L1.44929 226.691L1.72503 226.85L66.725 264.307L66.7252 264.307L131.725 301.737L132 301.895L132.275 301.737L197.275 264.307L197.275 264.307L262.275 226.85L262.551 226.691L262.551 226.373L262.551 151.486L262.551 76.6268L262.551 76.3085L262.275 76.1496L197.275 38.6926L197 39.1697L197.275 38.6925L132.275 1.2629Z" stroke="#024FA2" stroke-width="1.10141"/>
<defs>
<clipPath id="clip0_244_50">
<rect width="59.4915" height="83.6892" fill="white" transform="translate(102.254 62.3049)"/>
</clipPath>
</defs>
</svg>
