<svg width="60" height="84" viewBox="0 0 60 84" fill="none" xmlns="http://www.w3.org/2000/svg">
<path fill-rule="evenodd" clip-rule="evenodd" d="M30.1845 4.47273C23.7832 4.17814 20.8615 -1.58861 12.8111 0.951461C7.80909 2.52951 4.21086 7.25599 2.27715 12.5141C-0.100843 18.9774 0.0480226 24.9928 0.584093 32.29C0.75687 34.6452 1.00369 37.0495 1.30605 39.4476L1.31377 39.5212C1.36236 39.9309 1.30143 40.6789 1.51894 41.0287L1.57679 41.1215H1.68632C4.90968 41.1215 8.19707 41.4522 11.4019 41.0326C13.2022 40.797 14.2589 39.7759 14.3808 37.9493C14.525 35.7913 13.9465 28.5792 14.7934 27.1615C16.4263 24.4274 21.0836 25.0756 23.7956 25.0756C25.7432 25.0756 27.6908 25.0764 29.6384 25.0748C32.2184 25.0725 34.7993 25.0748 37.3794 25.0748C39.6208 25.0748 42.0536 24.7273 44.056 25.9724C44.6067 26.3146 45.0703 26.7334 45.351 27.3257C45.8925 28.4665 45.6896 30.5669 45.6804 31.8266C45.668 33.5658 45.5616 35.3533 45.6163 37.0855C45.6464 38.0176 45.7313 39.1829 46.3769 39.9194C47.5192 41.222 50.8513 41.0855 52.4241 41.0855C53.5687 41.0855 54.7126 41.1024 55.8572 41.1177C56.6232 41.1277 57.4037 41.1446 58.1681 41.11C58.9703 41.074 58.9757 39.7836 59.0443 39.1745L59.0544 39.0832L59.0536 39.0817C60.1813 29.1477 60.0856 19.3066 57.5865 12.5164C55.6521 7.25829 52.0546 2.53181 47.0526 0.953762C39.4959 -1.42981 36.7291 3.48233 30.1829 4.47503L30.1845 4.47273ZM4.03809 38.1703C2.77234 28.9981 1.84135 17.4316 6.95447 9.37949C8.77865 6.50571 12.5558 2.37378 17.969 3.25601C22.3686 3.97331 25.7409 7.80988 31.1008 7.19692C35.313 6.71437 37.927 3.90273 41.8963 3.25601C47.3094 2.37378 51.0866 6.50571 52.9108 9.37949C57.5696 16.7166 57.1878 27.0848 56.2205 35.5259C56.1418 36.2094 56.0315 37.0986 55.8904 38.148C55.1106 38.1634 54.3308 38.181 53.551 38.1856C52.4109 38.1925 49.8031 38.247 48.6554 37.9332C48.4679 35.7238 48.6114 33.6049 48.6909 31.3978C48.7526 29.6793 48.7765 27.7515 48.0692 26.1481C47.5825 25.0442 46.8065 24.2079 45.8046 23.5413C43.5137 22.0162 41.1982 22.1098 38.5487 22.1098H21.3127C18.6794 22.1098 16.397 22.086 14.1586 23.6472C11.9141 25.2122 11.5261 27.1324 11.4035 29.7576C11.3425 31.0733 11.4158 32.4687 11.4413 33.7898C11.4582 34.6551 11.4729 35.5243 11.4559 36.3897C11.4467 36.8745 11.4389 37.5228 11.3402 38.0191C9.90016 38.3076 7.9541 38.2623 6.50324 38.2378C5.68178 38.224 4.85955 38.1956 4.03809 38.1703Z" fill="#4D4D4D"/>
<path fill-rule="evenodd" clip-rule="evenodd" d="M59.4101 42.9726L59.4217 42.9266C56.8007 42.9266 49.6266 43.1743 47.4723 42.5691C43.0503 41.3263 43.1113 38.6496 43.1182 35.4122C43.1221 33.5135 43.1807 31.6125 43.1768 29.7137C43.173 27.6539 43.0241 26.4395 40.7988 26.3513C37.1011 26.2047 32.9923 26.3298 29.2583 26.3543C27.6045 26.3336 18.9858 26.25 18.0332 26.4004C16.1033 26.7049 16.381 28.2838 16.4527 30.1679C16.5229 32.0275 16.4658 33.9907 16.4658 35.8618C16.4651 39.1567 16.057 41.4774 11.9798 42.5829C9.44524 43.2702 4.1123 42.744 1.03934 42.8867L0.888935 42.8828L0.890477 42.8943L0.861938 42.8959L1.12265 44.6718C1.28462 45.8617 1.45894 47.05 1.64638 48.2368L1.64792 48.2484L1.64869 48.2522C2.02972 50.6664 2.46167 53.0746 2.94066 55.4696C4.13313 61.4328 5.47292 67.31 7.55627 73.0361C8.51271 75.6651 9.69438 78.1124 11.2609 80.4354C12.8591 82.8043 16.2746 85.3736 19.0382 83.1304C20.5747 81.883 21.5597 78.6264 22.0741 76.7852C23.0036 73.458 23.6546 69.9935 24.3226 66.6042C25.0592 62.8651 25.7765 58.915 26.9142 55.2801C27.3099 54.0159 28.4715 50.411 30.1106 50.1716C33.0239 50.9572 34.3714 57.8187 34.9476 60.348C35.9472 64.7331 36.5612 69.1934 37.4505 73.6007C38.0938 76.7906 39.0163 84.2351 43.5262 83.9467C47.3975 83.6989 50.0671 78.5336 51.4477 75.425C53.265 71.3345 54.6341 66.7362 55.7587 62.4109C57.2319 56.7454 58.375 50.938 59.1456 45.1367C59.2435 44.4003 59.2852 44.0957 59.37 43.3577L59.4086 42.9711L59.4101 42.9726ZM5.10654 46.2859C5.48603 46.2223 9.10278 46.3197 11.5718 46.0957C13.7068 45.9016 16.0239 45.2495 18.3888 43.2656C21.8404 40.3688 20.9264 35.113 20.9349 29.749L38.5311 29.703C39.4891 35.2703 36.8543 39.1329 40.9431 43.0616C42.3939 44.4555 43.8602 45.258 46.2737 45.8494C48.7288 46.4509 52.2445 46.0704 54.8493 46.2729C54.1559 50.7984 53.3498 55.1405 52.3517 59.7044C51.6375 62.9694 47.9058 80.1124 43.2239 80.2957C42.2412 78.453 41.6473 75.781 41.2261 73.7833C40.5682 70.6648 40.0653 67.5072 39.4853 64.3733C38.8104 60.7255 38.0444 56.8229 36.7393 53.3446C35.8354 50.9349 34.3259 47.8464 31.7281 46.8889C31.165 46.6818 30.5772 46.5836 29.9779 46.589C29.5514 46.5928 29.1318 46.658 28.7253 46.7877C26.1753 47.5993 24.6874 50.7662 23.8258 53.0631C22.5123 56.5644 21.7186 60.4861 20.9989 64.1524C20.3626 67.3921 19.7964 70.6663 19.039 73.88C18.5939 75.7695 17.8812 78.6141 16.7713 80.2858C12.2644 80.1178 8.68163 64.4377 7.9535 61.2671C6.81965 56.3289 5.89021 51.3047 5.10654 46.2852V46.2859Z" fill="#4D4D4D"/>
</svg>
