<svg width="255" height="128" viewBox="0 0 255 128" fill="none" xmlns="http://www.w3.org/2000/svg">
<rect x="0.5" y="0.5" width="254" height="127" fill="white" stroke="black"/>
<path d="M82 22L86.7963 32.3984L98.168 33.7467L89.7606 41.5216L91.9923 52.7533L82 47.16L72.0077 52.7533L74.2394 41.5216L65.832 33.7467L77.2037 32.3984L82 22Z" fill="#FFDC0A"/>
<path d="M128.239 50.642V49.058H120.643C119.767 49.058 119.137 48.902 118.753 48.59C118.321 48.266 118.105 47.81 118.105 47.222C118.105 46.85 118.267 46.34 118.591 45.692L127.033 28.772C127.345 28.148 127.657 27.722 127.969 27.494C128.221 27.314 128.509 27.224 128.833 27.224C129.277 27.224 129.673 27.386 130.021 27.71C130.381 28.022 130.561 28.4 130.561 28.844C130.561 29.192 130.405 29.678 130.093 30.302L122.461 45.602H128.239V41.858C128.239 41.126 128.329 40.58 128.509 40.22C128.809 39.644 129.331 39.356 130.075 39.356C130.819 39.356 131.341 39.644 131.641 40.22C131.821 40.58 131.911 41.126 131.911 41.858V45.602H133.135C133.879 45.602 134.407 45.686 134.719 45.854C135.247 46.154 135.511 46.646 135.511 47.33C135.511 48.014 135.247 48.506 134.719 48.806C134.407 48.974 133.879 49.058 133.135 49.058H131.911V50.642C131.911 51.374 131.821 51.92 131.641 52.28C131.341 52.856 130.819 53.144 130.075 53.144C129.331 53.144 128.809 52.856 128.509 52.28C128.329 51.92 128.239 51.374 128.239 50.642ZM143.349 48.644C143.865 49.148 144.123 49.76 144.123 50.48C144.123 51.2 143.865 51.818 143.349 52.334C142.833 52.85 142.215 53.108 141.495 53.108C140.775 53.108 140.157 52.85 139.641 52.334C139.125 51.818 138.867 51.2 138.867 50.48C138.867 49.76 139.125 49.148 139.641 48.644C140.157 48.14 140.775 47.888 141.495 47.888C142.215 47.888 142.833 48.14 143.349 48.644ZM153.475 50.066L157.525 41.984C156.901 42.248 156.145 42.38 155.257 42.38C153.361 42.38 151.765 41.696 150.469 40.328C149.173 38.96 148.525 37.172 148.525 34.964C148.525 32.624 149.227 30.74 150.631 29.312C152.035 27.872 153.853 27.152 156.085 27.152C158.329 27.152 160.153 27.848 161.557 29.24C162.973 30.62 163.681 32.48 163.681 34.82C163.681 36.476 163.081 38.504 161.881 40.904L156.535 51.596C156.223 52.22 155.911 52.646 155.599 52.874C155.347 53.054 155.059 53.144 154.735 53.144C154.291 53.144 153.889 52.988 153.529 52.676C153.181 52.352 153.007 51.968 153.007 51.524C153.007 51.176 153.163 50.69 153.475 50.066ZM152.197 34.892C152.197 36.176 152.551 37.238 153.259 38.078C153.967 38.906 154.921 39.32 156.121 39.32C157.285 39.32 158.221 38.924 158.929 38.132C159.649 37.34 160.009 36.26 160.009 34.892C160.009 33.536 159.649 32.462 158.929 31.67C158.221 30.866 157.285 30.464 156.121 30.464C154.957 30.464 154.009 30.866 153.277 31.67C152.557 32.462 152.197 33.536 152.197 34.892Z" fill="black"/>
<g clip-path="url(#clip0_279_1174)">
<path d="M57.2645 78.3046H87.2516C87.95 78.3046 88.5161 78.8683 88.5161 79.5637V85.435C88.5161 86.2171 88.1753 86.9576 87.5819 87.47L70.8129 101.438H87.2516C87.95 101.438 88.5161 101.991 88.5161 102.686V109.427C88.5161 110.122 87.95 110.686 87.2516 110.686H57.2645C56.5661 110.686 56 110.122 56 109.427V103.565C56 102.783 56.3408 102.042 56.9342 101.53L73.7032 87.5625H57.2645C56.5661 87.5625 56 86.986 56 86.2906V79.5637C56 78.8683 56.5661 78.3046 57.2645 78.3046ZM109.419 77.1562C112.887 77.1562 115.978 77.9326 118.559 79.3513C121.139 80.77 123.209 82.831 124.634 85.4005C126.059 87.9699 126.839 91.0477 126.839 94.5C126.839 97.9523 126.059 101.03 124.634 103.6C123.209 106.169 121.139 108.23 118.559 109.649C115.978 111.067 112.887 111.844 109.419 111.844C105.952 111.844 102.861 111.067 100.28 109.649C97.6995 108.23 95.6295 106.169 94.2046 103.6C92.7797 101.03 92 97.9523 92 94.5C92 91.0477 92.7797 87.9699 94.2046 85.4005C95.6295 82.831 97.6995 80.77 100.28 79.3513C102.861 77.9326 105.952 77.1562 109.419 77.1562ZM109.419 86.4062C107.761 86.4062 106.305 86.7551 105.1 87.4037C103.896 88.0523 102.944 89.0007 102.292 90.1998C101.641 91.3988 101.29 92.8486 101.29 94.5C101.29 96.1514 101.641 97.6012 102.292 98.8002C102.944 99.9993 103.896 100.948 105.1 101.596C106.305 102.245 107.761 102.594 109.419 102.594C111.078 102.594 112.534 102.245 113.738 101.596C114.943 100.948 115.895 99.9993 116.547 98.8002C117.198 97.6012 117.548 96.1514 117.548 94.5C117.548 92.8486 117.198 91.3988 116.547 90.1998C115.895 89.0007 114.943 88.0523 113.738 87.4037C112.534 86.7551 111.078 86.4062 109.419 86.4062ZM146.581 77.1562C150.048 77.1562 153.139 77.9326 155.72 79.3513C158.3 80.77 160.371 82.831 161.795 85.4005C163.22 87.9699 164 91.0477 164 94.5C164 97.9523 163.22 101.03 161.795 103.6C160.371 106.169 158.3 108.23 155.72 109.649C153.139 111.067 150.048 111.844 146.581 111.844C143.113 111.844 140.022 111.067 137.441 109.649C134.861 108.23 132.791 106.169 131.366 103.6C129.941 101.03 129.161 97.9523 129.161 94.5C129.161 91.0477 129.941 87.9699 131.366 85.4005C132.791 82.831 134.861 80.77 137.441 79.3513C140.022 77.9326 143.113 77.1562 146.581 77.1562ZM146.581 86.4062C144.922 86.4062 143.466 86.7551 142.262 87.4037C141.057 88.0523 140.105 89.0007 139.453 90.1998C138.802 91.3988 138.452 92.8486 138.452 94.5C138.452 96.1514 138.802 97.6012 139.453 98.8002C140.105 99.9993 141.057 100.948 142.262 101.596C143.466 102.245 144.922 102.594 146.581 102.594C148.239 102.594 149.695 102.245 150.9 101.596C152.104 100.948 153.056 99.9993 153.708 98.8002C154.359 97.6012 154.71 96.1514 154.71 94.5C154.71 92.8486 154.359 91.3988 153.708 90.1998C153.056 89.0007 152.104 88.0523 150.9 87.4037C149.695 86.7551 148.239 86.4062 146.581 86.4062ZM200.004 79.5677V109.426C200.004 110.122 199.438 110.685 198.739 110.685H192.846C192.061 110.685 191.317 110.346 190.803 109.755L176.774 93.061V109.426C176.774 110.122 176.195 110.685 175.497 110.685H168.744C168.046 110.685 167.48 110.122 167.48 109.426V79.5677C167.48 78.8723 168.046 78.3086 168.744 78.3086H174.637C175.423 78.3086 176.167 78.648 176.681 79.239L190.71 95.939V79.5677C190.71 78.8723 191.265 78.3086 191.964 78.3086H198.739C199.438 78.3086 200.004 78.8723 200.004 79.5677Z" fill="url(#paint0_linear_279_1174)"/>
</g>
<defs>
<linearGradient id="paint0_linear_279_1174" x1="167.377" y1="94.5" x2="87.4091" y2="94.5" gradientUnits="userSpaceOnUse">
<stop stop-color="#6339F5"/>
<stop offset="1" stop-color="#3D3F55"/>
</linearGradient>
<clipPath id="clip0_279_1174">
<rect width="144" height="37" fill="white" transform="translate(56 76)"/>
</clipPath>
</defs>
</svg>
