<svg width="255" height="128" viewBox="0 0 255 128" fill="none" xmlns="http://www.w3.org/2000/svg">
<rect x="0.5" y="0.5" width="254" height="127" fill="white" stroke="black"/>
<path d="M82 22L86.7963 32.3984L98.168 33.7467L89.7606 41.5216L91.9923 52.7533L82 47.16L72.0077 52.7533L74.2394 41.5216L65.832 33.7467L77.2037 32.3984L82 22Z" fill="#FFDC0A"/>
<path d="M128.239 50.642V49.058H120.643C119.767 49.058 119.137 48.902 118.753 48.59C118.321 48.266 118.105 47.81 118.105 47.222C118.105 46.85 118.267 46.34 118.591 45.692L127.033 28.772C127.345 28.148 127.657 27.722 127.969 27.494C128.221 27.314 128.509 27.224 128.833 27.224C129.277 27.224 129.673 27.386 130.021 27.71C130.381 28.022 130.561 28.4 130.561 28.844C130.561 29.192 130.405 29.678 130.093 30.302L122.461 45.602H128.239V41.858C128.239 41.126 128.329 40.58 128.509 40.22C128.809 39.644 129.331 39.356 130.075 39.356C130.819 39.356 131.341 39.644 131.641 40.22C131.821 40.58 131.911 41.126 131.911 41.858V45.602H133.135C133.879 45.602 134.407 45.686 134.719 45.854C135.247 46.154 135.511 46.646 135.511 47.33C135.511 48.014 135.247 48.506 134.719 48.806C134.407 48.974 133.879 49.058 133.135 49.058H131.911V50.642C131.911 51.374 131.821 51.92 131.641 52.28C131.341 52.856 130.819 53.144 130.075 53.144C129.331 53.144 128.809 52.856 128.509 52.28C128.329 51.92 128.239 51.374 128.239 50.642ZM143.349 48.644C143.865 49.148 144.123 49.76 144.123 50.48C144.123 51.2 143.865 51.818 143.349 52.334C142.833 52.85 142.215 53.108 141.495 53.108C140.775 53.108 140.157 52.85 139.641 52.334C139.125 51.818 138.867 51.2 138.867 50.48C138.867 49.76 139.125 49.148 139.641 48.644C140.157 48.14 140.775 47.888 141.495 47.888C142.215 47.888 142.833 48.14 143.349 48.644ZM164.023 45.764C164.023 48.032 163.267 49.844 161.755 51.2C160.243 52.544 158.359 53.216 156.103 53.216C153.847 53.216 151.969 52.544 150.469 51.2C148.969 49.844 148.219 48.032 148.219 45.764C148.219 43.172 149.395 41.168 151.747 39.752C150.835 39.2 150.091 38.462 149.515 37.538C148.939 36.602 148.651 35.504 148.651 34.244C148.651 32.132 149.359 30.422 150.775 29.114C152.203 27.806 153.979 27.152 156.103 27.152C158.227 27.152 160.003 27.812 161.431 29.132C162.871 30.44 163.591 32.144 163.591 34.244C163.591 35.504 163.303 36.602 162.727 37.538C162.151 38.462 161.407 39.2 160.495 39.752C162.847 41.168 164.023 43.172 164.023 45.764ZM156.121 38.222C157.213 38.222 158.119 37.862 158.839 37.142C159.571 36.41 159.937 35.48 159.937 34.352C159.937 33.236 159.577 32.312 158.857 31.58C158.137 30.836 157.225 30.464 156.121 30.464C155.017 30.464 154.105 30.836 153.385 31.58C152.665 32.312 152.305 33.236 152.305 34.352C152.305 35.468 152.665 36.392 153.385 37.124C154.105 37.856 155.017 38.222 156.121 38.222ZM159.109 48.68C159.925 47.864 160.333 46.856 160.333 45.656C160.333 44.456 159.925 43.454 159.109 42.65C158.305 41.834 157.309 41.426 156.121 41.426C154.933 41.426 153.931 41.834 153.115 42.65C152.299 43.466 151.891 44.468 151.891 45.656C151.891 46.856 152.299 47.864 153.115 48.68C153.931 49.496 154.933 49.904 156.121 49.904C157.309 49.904 158.305 49.496 159.109 48.68Z" fill="black"/>
<path d="M192.301 83.2879H199C198.153 76.805 193.391 73.3975 186.773 73.3975C180.074 73.3975 175.595 76.9298 175.595 82.997C175.595 89.8953 181.365 91.4327 184.432 92.0563C188.387 92.8458 192.261 92.929 192.261 96.4195C192.261 98.7883 190.324 99.9518 187.58 99.9518C184.19 99.9518 181.93 98.2065 181.365 95.0484H174.747C175.151 101.864 179.953 105.52 187.015 105.52C193.552 105.52 198.919 102.445 198.919 95.7963C198.919 88.6485 192.745 87.3604 188.427 86.6954C185.481 86.2384 182.253 85.8228 182.253 82.6229C182.253 80.3789 183.908 79.0076 186.692 79.0076C189.92 79.0076 191.857 80.8777 192.301 83.2879Z" fill="#403F41"/>
<path d="M171.076 74.4355H164.74V104.564H171.076V74.4355Z" fill="#403F41"/>
<path d="M145.613 94.0492H153.885C152.594 97.2908 149.688 98.8281 146.339 98.8281C140.447 98.8281 137.703 94.1324 137.703 89.4781C137.703 84.7822 140.286 80.0033 146.299 80.0033C149.971 80.0033 152.715 81.7486 153.764 84.8653L160.584 84.8653C159.414 77.8425 153.441 73.8115 146.379 73.8115C137.663 73.8115 131.125 79.9201 131.125 89.5612C131.125 99.3269 138.228 105.103 146.339 105.103C154.329 105.103 160.584 99.7425 160.584 91.3482V88.8963H145.613V94.0492Z" fill="#403F41"/>
<path d="M116.638 73.8115C109.374 73.8115 104.007 78.5073 104.047 86.3198H110.585C110.504 82.9122 112.602 79.7956 116.315 79.7956C119.543 79.7956 121.44 82.1227 121.44 84.7822C121.44 87.4418 119.543 88.9379 116.032 90.5587C111.23 92.7611 107.8 94.174 104.289 95.4207V104.563H128.744V98.4126H111.956C111.956 98.4126 112.012 98.3946 112.039 98.3861C114.895 97.4951 117.04 96.5271 119.584 95.3791C125.031 92.8858 128.139 89.7689 128.139 84.4499C128.139 77.9254 123.458 73.8115 116.638 73.8115Z" fill="#403F41"/>
<path d="M86.857 93.9675C78.6247 94.0091 77.2931 99.1204 76.8492 103.442L76.6475 105.354H74.9929L74.7911 103.442C74.3473 99.1204 72.9753 94.009 65.0255 93.9675C63.6938 91.1415 63.1289 88.8559 63.1289 86.2795C63.1289 79.8384 68.2538 73.8126 75.8403 73.8126C83.4268 73.8126 88.4711 79.7966 88.4711 86.3212C88.4711 88.8559 88.229 91.1415 86.857 93.9675ZM75.7597 66C63.25 66 53 76.5554 53 89.4791C53 102.445 63.25 113 75.7597 113C88.3903 113 98.6 102.445 98.6 89.4791C98.6 76.5554 88.3903 66 75.7597 66Z" fill="#29B24A"/>
</svg>
