<svg width="255" height="128" viewBox="0 0 255 128" fill="none" xmlns="http://www.w3.org/2000/svg">
<rect x="0.5" y="0.5" width="254" height="127" fill="white" stroke="black"/>
<path d="M82 22L86.7963 32.3984L98.168 33.7467L89.7606 41.5216L91.9923 52.7533L82 47.16L72.0077 52.7533L74.2394 41.5216L65.832 33.7467L77.2037 32.3984L82 22Z" fill="#FFDC0A"/>
<path d="M128.239 50.642V49.058H120.643C119.767 49.058 119.137 48.902 118.753 48.59C118.321 48.266 118.105 47.81 118.105 47.222C118.105 46.85 118.267 46.34 118.591 45.692L127.033 28.772C127.345 28.148 127.657 27.722 127.969 27.494C128.221 27.314 128.509 27.224 128.833 27.224C129.277 27.224 129.673 27.386 130.021 27.71C130.381 28.022 130.561 28.4 130.561 28.844C130.561 29.192 130.405 29.678 130.093 30.302L122.461 45.602H128.239V41.858C128.239 41.126 128.329 40.58 128.509 40.22C128.809 39.644 129.331 39.356 130.075 39.356C130.819 39.356 131.341 39.644 131.641 40.22C131.821 40.58 131.911 41.126 131.911 41.858V45.602H133.135C133.879 45.602 134.407 45.686 134.719 45.854C135.247 46.154 135.511 46.646 135.511 47.33C135.511 48.014 135.247 48.506 134.719 48.806C134.407 48.974 133.879 49.058 133.135 49.058H131.911V50.642C131.911 51.374 131.821 51.92 131.641 52.28C131.341 52.856 130.819 53.144 130.075 53.144C129.331 53.144 128.809 52.856 128.509 52.28C128.329 51.92 128.239 51.374 128.239 50.642ZM143.349 48.644C143.865 49.148 144.123 49.76 144.123 50.48C144.123 51.2 143.865 51.818 143.349 52.334C142.833 52.85 142.215 53.108 141.495 53.108C140.775 53.108 140.157 52.85 139.641 52.334C139.125 51.818 138.867 51.2 138.867 50.48C138.867 49.76 139.125 49.148 139.641 48.644C140.157 48.14 140.775 47.888 141.495 47.888C142.215 47.888 142.833 48.14 143.349 48.644ZM153.475 50.066L157.525 41.984C156.901 42.248 156.145 42.38 155.257 42.38C153.361 42.38 151.765 41.696 150.469 40.328C149.173 38.96 148.525 37.172 148.525 34.964C148.525 32.624 149.227 30.74 150.631 29.312C152.035 27.872 153.853 27.152 156.085 27.152C158.329 27.152 160.153 27.848 161.557 29.24C162.973 30.62 163.681 32.48 163.681 34.82C163.681 36.476 163.081 38.504 161.881 40.904L156.535 51.596C156.223 52.22 155.911 52.646 155.599 52.874C155.347 53.054 155.059 53.144 154.735 53.144C154.291 53.144 153.889 52.988 153.529 52.676C153.181 52.352 153.007 51.968 153.007 51.524C153.007 51.176 153.163 50.69 153.475 50.066ZM152.197 34.892C152.197 36.176 152.551 37.238 153.259 38.078C153.967 38.906 154.921 39.32 156.121 39.32C157.285 39.32 158.221 38.924 158.929 38.132C159.649 37.34 160.009 36.26 160.009 34.892C160.009 33.536 159.649 32.462 158.929 31.67C158.221 30.866 157.285 30.464 156.121 30.464C154.957 30.464 154.009 30.866 153.277 31.67C152.557 32.462 152.197 33.536 152.197 34.892Z" fill="black"/>
<path d="M196.242 107.312C199.231 107.312 201.348 106.773 202.925 105.61V100.339C201.306 101.46 199.355 102.165 196.615 102.165C192.008 102.165 190.098 98.5954 190.098 92.9501C190.098 87.0143 192.423 83.9841 196.657 83.9841C199.147 83.9841 201.597 84.8558 202.883 85.686V80.2067C201.514 79.4595 199.148 78.9199 195.91 78.9199C187.649 78.9199 183.374 84.8558 183.374 93.1577C183.415 102.248 187.608 107.312 196.242 107.312ZM155.853 104.905V99.6331C153.861 101.003 150.457 102.207 147.344 102.207C142.612 102.207 140.827 99.9652 140.536 95.3992H156.144V91.9954C156.144 82.4897 151.951 78.9199 145.517 78.9199C137.631 78.9199 133.895 84.9388 133.895 93.1992C133.895 102.705 138.585 107.312 146.804 107.312C150.914 107.312 153.944 106.192 155.853 104.905ZM96.6192 79.418V90.2105H87.9852V79.418H81.5098V106.773H87.9852V95.3577H96.6192V106.773H103.095V79.418H96.6192ZM132.276 101.626H129.412V79.418H110.566V81.7426C110.566 88.4256 110.151 97.0595 107.868 101.626H105.793V112.999H111.77V106.773H126.257V112.999H132.234V101.626H132.276ZM176.483 106.773H183.831L173.453 92.0369L182.585 79.418H176.068L166.936 92.0369V79.418H160.461V106.773H166.936V93.3237L176.483 106.773ZM145.351 83.9841C148.548 83.9841 149.544 86.6407 149.544 90.086V90.6256H140.536C140.702 86.2671 142.28 83.9841 145.351 83.9841ZM122.936 101.626H113.804C115.589 97.5161 116.087 90.0445 116.087 85.3124V84.4822H122.936V101.626Z" fill="black"/>
<path d="M76.1132 106.774H69.5132V74.1057H66.566C61.1698 74.1057 58.3472 76.8038 58.3472 80.8302C58.3472 85.3962 60.2981 87.5132 64.3245 90.2113L67.6453 92.4528L58.0981 106.774H51L59.5925 93.9887C54.6528 90.4604 51.8717 87.0151 51.8717 81.2038C51.8717 73.9396 56.9358 69 66.5245 69H76.0717V106.774H76.1132Z" fill="#FC3F1D"/>
</svg>
