<svg width="255" height="128" viewBox="0 0 255 128" fill="none" xmlns="http://www.w3.org/2000/svg">
<rect x="0.5" y="0.5" width="254" height="127" fill="white" stroke="black"/>
<path d="M82 22L86.7963 32.3984L98.168 33.7467L89.7606 41.5216L91.9923 52.7533L82 47.16L72.0077 52.7533L74.2394 41.5216L65.832 33.7467L77.2037 32.3984L82 22Z" fill="#FFDC0A"/>
<path d="M128.239 50.642V49.058H120.643C119.767 49.058 119.137 48.902 118.753 48.59C118.321 48.266 118.105 47.81 118.105 47.222C118.105 46.85 118.267 46.34 118.591 45.692L127.033 28.772C127.345 28.148 127.657 27.722 127.969 27.494C128.221 27.314 128.509 27.224 128.833 27.224C129.277 27.224 129.673 27.386 130.021 27.71C130.381 28.022 130.561 28.4 130.561 28.844C130.561 29.192 130.405 29.678 130.093 30.302L122.461 45.602H128.239V41.858C128.239 41.126 128.329 40.58 128.509 40.22C128.809 39.644 129.331 39.356 130.075 39.356C130.819 39.356 131.341 39.644 131.641 40.22C131.821 40.58 131.911 41.126 131.911 41.858V45.602H133.135C133.879 45.602 134.407 45.686 134.719 45.854C135.247 46.154 135.511 46.646 135.511 47.33C135.511 48.014 135.247 48.506 134.719 48.806C134.407 48.974 133.879 49.058 133.135 49.058H131.911V50.642C131.911 51.374 131.821 51.92 131.641 52.28C131.341 52.856 130.819 53.144 130.075 53.144C129.331 53.144 128.809 52.856 128.509 52.28C128.329 51.92 128.239 51.374 128.239 50.642ZM143.349 48.644C143.865 49.148 144.123 49.76 144.123 50.48C144.123 51.2 143.865 51.818 143.349 52.334C142.833 52.85 142.215 53.108 141.495 53.108C140.775 53.108 140.157 52.85 139.641 52.334C139.125 51.818 138.867 51.2 138.867 50.48C138.867 49.76 139.125 49.148 139.641 48.644C140.157 48.14 140.775 47.888 141.495 47.888C142.215 47.888 142.833 48.14 143.349 48.644ZM150.685 32.912L155.383 28.214C156.043 27.554 156.715 27.224 157.399 27.224C157.963 27.224 158.425 27.404 158.785 27.764C159.145 28.136 159.325 28.778 159.325 29.69V50.642C159.325 51.374 159.235 51.92 159.055 52.28C158.755 52.856 158.233 53.144 157.489 53.144C156.745 53.144 156.223 52.856 155.923 52.28C155.743 51.92 155.653 51.374 155.653 50.642V32.804L153.115 35.342C152.803 35.654 152.557 35.876 152.377 36.008C152.209 36.128 152.029 36.212 151.837 36.26C151.249 36.416 150.715 36.254 150.235 35.774C149.767 35.306 149.611 34.784 149.767 34.208C149.863 33.86 150.169 33.428 150.685 32.912Z" fill="black"/>
<g clip-path="url(#clip0_279_1172)">
<path fill-rule="evenodd" clip-rule="evenodd" d="M219.904 96.2853C220.528 96.1135 226.708 95.9517 227.426 96.477C227.904 96.8265 227.952 98.0831 227.541 98.5678C226.975 99.2336 220.19 98.9916 219.965 98.7914C219.618 98.4832 219.826 96.8 219.904 96.2853ZM220.024 92.8737C219.741 92.5263 219.858 91.2483 219.886 90.7103C219.913 90.223 219.939 90.2055 220.419 90.1856C220.785 90.1705 221.217 90.1927 221.598 90.187C222.549 90.1729 225.417 90.085 226.172 90.252C226.86 90.4045 227.514 90.4816 227.686 91.0261C227.884 91.6535 227.793 92.5732 227.278 92.801C226.534 93.1299 224.013 93.0136 222.998 93.0136C222.499 93.0136 220.332 93.1535 220.024 92.8737H220.024ZM218.001 87.4109C217.334 87.5626 217.242 87.6054 216.919 88.1344C216.611 88.6382 216.675 88.9367 216.682 89.6677L216.692 100.441C216.828 101.467 217.703 101.873 218.794 101.865L225.914 101.86C227.225 101.864 227.93 101.714 228.771 101.085C229.309 100.683 230.063 99.9803 230.216 99.0283C230.365 98.1047 230.355 96.3374 230.059 95.5667C229.426 93.9196 230.257 94.0298 230.341 92.7142C230.485 90.4898 230.291 88.6538 228.115 87.8078C226.328 87.1131 226.847 87.5383 224.963 87.3319C223.832 87.208 218.933 87.1992 218.001 87.4109H218.001Z" fill="#007ECA"/>
<path fill-rule="evenodd" clip-rule="evenodd" d="M115.115 98.8163C115.136 98.7289 118.945 91.9271 118.945 91.9271C119.504 92.7977 122.311 98.7793 122.311 98.7793C121.696 98.9399 116.24 98.8986 115.115 98.8163ZM113.928 101.726C116.65 101.722 119.372 101.726 122.094 101.726C123.345 101.726 124.948 101.647 126.033 101.678C128.395 101.745 128.36 99.2281 126.402 98.889C125.652 98.759 125.694 98.5605 125.389 97.9609C123.988 95.2959 122.631 92.6318 121.209 89.9743C120.404 88.3907 119.009 85.4972 117.139 88.5647L114.358 93.8463C113.88 94.7819 111.959 98.7364 111.339 98.8571C110.552 99.0103 110.205 98.9005 109.773 99.4273C109.469 99.7977 109.204 100.238 109.413 100.76C109.957 102.12 111.428 101.46 113.928 101.726V101.726Z" fill="#007ECA"/>
<path fill-rule="evenodd" clip-rule="evenodd" d="M139.314 98.3353C138.972 99.0221 136.739 99.0901 135.975 99.0956C131.004 99.1311 131.936 98.5989 131.876 94.9379C131.863 94.14 131.742 91.4621 132.06 91.001C132.707 90.061 137.938 89.8544 139.046 90.6809C139.719 91.1819 139.453 93.3691 139.454 94.3521C139.454 95.2584 139.614 97.734 139.314 98.3353H139.314ZM134.836 87.2936C133.513 87.521 133.61 87.1505 131.733 87.7477C128.095 88.9051 129.098 91.267 128.829 95.2847C128.798 95.7505 128.926 98.0927 129.018 98.6222C129.501 101.385 132.506 101.663 134.531 102.025C136.186 102.321 140.527 101.723 141.654 100.41C142.59 99.3195 142.323 95.814 142.322 93.8834C142.322 92.2314 142.581 89.3312 140.795 88.2266C140.244 87.8853 140.366 87.8157 139.602 87.6608C138.349 87.4066 136.174 87.0636 134.836 87.2936Z" fill="#007ECA"/>
<path fill-rule="evenodd" clip-rule="evenodd" d="M211.619 98.1022C211.26 99.5821 205.743 99.1689 204.706 98.8043C203.736 98.4632 204.006 97.0636 204.018 95.4077C204.024 94.6335 203.922 91.8027 204.079 91.2768C204.52 89.7987 209.816 90.0057 211.011 90.5774C211.981 91.0414 211.671 92.7313 211.674 94.0019C211.677 94.8603 211.771 97.4795 211.619 98.1023V98.1022ZM201.099 91.4244L201.097 96.8135C201.103 99.0076 201.142 100.049 203.502 101.275C204.545 101.817 207.077 102.107 208.299 102.106C209.214 102.106 212.209 101.533 212.94 101.102C214.729 100.048 214.476 97.8693 214.481 95.642C214.49 91.9901 215.145 88.3414 211.187 87.4608C210.482 87.3039 209.267 87.359 208.475 87.2462C206.608 86.9808 203.015 87.46 201.737 89.1631C201.383 89.6342 201.1 90.6223 201.099 91.4244V91.4244Z" fill="#007ECA"/>
<path fill-rule="evenodd" clip-rule="evenodd" d="M173.299 98.1031C173.134 97.311 173.258 94.9539 173.259 94.0027C173.259 90.8462 172.588 90.1482 177.74 90.1938C178.785 90.203 180.548 90.2841 180.862 91.2301C180.939 91.462 181.07 97.7489 180.77 98.3391C180.299 99.2641 177.421 99.1116 176.453 99.1097C175.42 99.1078 173.515 99.1392 173.299 98.1031V98.1031ZM170.276 94.9399C170.289 98.8448 170.022 100.131 173.231 101.449C174.561 101.994 181.662 102.559 183.155 100.157C183.928 98.9132 183.661 94.8319 183.661 93.2997C183.662 91.2935 183.893 91.7968 183.418 89.9103C183.333 89.5691 183.359 89.6411 183.229 89.402C182.316 87.7255 180.918 87.568 179.281 87.3921C177.875 87.2409 178.677 87.1863 177.037 87.1836C175.23 87.1807 172.556 87.5508 171.324 88.735C170.031 89.9783 170.282 92.6257 170.276 94.9399H170.276Z" fill="#007ECA"/>
<path fill-rule="evenodd" clip-rule="evenodd" d="M105.428 98.3367C105.076 99.0653 102.939 99.1141 102.147 99.1196C97.0288 99.1546 97.9097 98.9177 97.8555 95.0564C97.8434 94.1909 97.6779 91.562 98.0215 91.0281C98.7887 89.8359 103.513 89.985 104.943 90.599C105.842 90.9854 105.559 92.5985 105.557 94.2363C105.556 95.0598 105.69 97.7948 105.428 98.3367H105.428ZM94.9046 95.0564C94.9034 97.6057 94.6563 99.6585 96.7501 100.934C97.8002 101.574 100.224 102.127 101.49 102.033C103.856 101.961 104.631 101.909 106.593 101.147C107.384 100.883 107.662 100.43 107.992 99.6555C108.348 98.8181 108.204 96.6887 108.204 95.525C108.204 93.311 108.61 90.6355 107.624 89.0785C106.378 87.1101 103.026 87.2931 100.863 87.2939C99.3133 87.2944 96.6728 87.7419 95.7379 88.9551C95.2097 89.6404 95.0538 90.4893 95.0305 91.6626L94.9046 95.0565V95.0564Z" fill="#F32326"/>
<path fill-rule="evenodd" clip-rule="evenodd" d="M188.757 93.9535C188.641 93.2089 188.548 90.9064 188.755 90.2526C189.143 90.1482 195.202 90.0307 196.056 90.3735C196.858 90.6954 196.938 91.1355 196.897 92.1293C196.809 94.2427 195.701 94.108 193.718 94.0808C192.51 94.0643 189.691 94.2604 188.757 93.9535L188.757 93.9535ZM190.22 87.3234C184.971 87.308 185.72 86.4834 185.732 95.4073C185.734 96.5552 185.579 100.171 185.874 100.923C186.285 101.969 187.678 102.099 188.3 101.206C188.735 100.581 188.618 99.1775 188.618 98.219C188.618 96.9079 188.274 97.1305 191.035 97.1313C192.128 97.1317 193.468 97.202 194.53 97.1293C195.251 97.0799 196.66 96.8419 197.362 96.4997C199.265 95.5712 199.634 93.7357 199.628 91.6567C199.625 90.2476 199.081 88.6128 197.949 88.0005L196.694 87.4975C196.57 87.4623 193.48 87.1749 193.368 87.1808L190.22 87.3233V87.3234Z" fill="#007ECA"/>
<path fill-rule="evenodd" clip-rule="evenodd" d="M82.3223 94.0016C82.2342 93.7531 82.0078 90.3781 82.4732 90.2046C82.6905 90.1235 85.9969 90.1703 86.5147 90.171C87.6656 90.1711 89.6896 89.9918 90.23 90.7367C90.5119 91.1254 90.5361 92.4319 90.396 92.9714C90.0068 94.4707 87.9276 94.1168 86.3981 94.1172C85.0376 94.1171 83.6724 94.1728 82.3223 94.0015V94.0016ZM82.4317 87.4013C79.194 87.4 79.3187 87.3358 79.3158 90.8384L79.3152 99.0392C79.3155 99.9095 79.1494 100.7 79.6355 101.264C80.0844 101.784 80.7308 101.929 81.3777 101.614C82.5302 101.052 82.1805 99.2551 82.1802 97.1386L83.6002 97.126C85.3647 97.2454 89.8117 97.202 91.2475 96.3051C93.5269 94.8813 93.7359 90.7448 92.3844 88.8055C91.0051 86.8262 85.1603 87.206 82.4316 87.4013H82.4317Z" fill="#F32326"/>
<path fill-rule="evenodd" clip-rule="evenodd" d="M147.271 92.152C147.02 90.9091 147.523 88.7636 146.756 87.8561C146.146 87.1357 144.299 86.8813 144.296 89.4315L144.293 100.21C144.293 101.686 146.127 102.408 146.98 100.961C147.458 100.149 146.919 97.9948 147.24 97.004C147.702 96.7884 148.788 97.745 149.39 98.2237C150.113 98.7978 153.975 101.581 154.675 101.713C155.215 101.814 155.754 101.635 156.028 101.367C156.362 101.038 156.481 100.514 156.352 100.05C156.209 99.5378 155.968 99.3609 155.528 99.0827C155.155 98.8471 154.829 98.5865 154.514 98.3485L151.406 96.1964C150.912 95.8806 149.571 95.0646 149.375 94.5861C149.842 93.715 154.259 91.0499 155.457 90.1392C155.776 89.8965 156.212 89.6115 156.34 89.2354C156.607 88.4502 156.127 87.2695 154.885 87.321C154.188 87.3499 152.185 88.8928 151.615 89.318L148.547 91.5088C148.138 91.8055 147.851 92.118 147.271 92.1519L147.271 92.152Z" fill="#007ECA"/>
<path fill-rule="evenodd" clip-rule="evenodd" d="M66.8286 92.5966C66.8298 91.4102 66.6825 90.8149 67.7555 90.506C68.8221 90.1989 71.972 90.1671 73.2179 90.4033C74.1797 90.5857 74.5955 90.7871 74.5976 91.8937L74.5988 99.6259C74.5988 100.591 74.6877 101.751 76.2464 101.749C77.1575 101.455 77.3956 100.926 77.404 100.052C77.4276 97.5775 77.7891 92.034 77.0648 89.8032C76.23 87.2323 72.7307 87.4113 70.6503 87.4064C69.0416 87.4026 67.4425 87.4766 66.2347 88.0549C65.2834 88.5103 64.0012 89.4213 64.0011 90.605L64.0002 100.798C64.001 101.504 65.2992 101.926 65.8817 101.64C66.6329 101.271 66.8524 100.844 66.8426 99.7454L66.8285 92.5966L66.8286 92.5966Z" fill="#F32326"/>
<path fill-rule="evenodd" clip-rule="evenodd" d="M159.889 90.1692L162.068 90.1781C162.068 90.1781 162.229 96.8128 162.228 99.6246C162.229 100.227 162.126 100.723 162.469 101.138C163.108 101.912 163.629 101.938 164.221 101.635C165.442 101.009 165.105 99.9226 165.105 97.7501C165.105 95.7105 164.899 91.6864 165.274 90.1764L168.171 90.1715C170.075 90.1714 171.171 87.3073 167.355 87.3037L160.589 87.3027C160.259 87.3025 159.013 87.3183 158.765 87.3487C157.427 87.5122 156.956 89.0937 157.936 89.8757C158.405 90.2494 159.161 90.1672 159.889 90.1692L159.889 90.1692Z" fill="#007ECA"/>
</g>
<g clip-path="url(#clip1_279_1172)">
<path fill-rule="evenodd" clip-rule="evenodd" d="M219.904 96.2853C220.528 96.1135 226.708 95.9517 227.426 96.477C227.904 96.8265 227.952 98.0831 227.541 98.5678C226.975 99.2336 220.19 98.9916 219.965 98.7914C219.618 98.4832 219.826 96.8 219.904 96.2853ZM220.024 92.8737C219.741 92.5263 219.858 91.2483 219.886 90.7103C219.913 90.223 219.939 90.2055 220.419 90.1856C220.785 90.1705 221.217 90.1927 221.598 90.187C222.549 90.1729 225.417 90.085 226.172 90.252C226.86 90.4045 227.514 90.4816 227.686 91.0261C227.884 91.6535 227.793 92.5732 227.278 92.801C226.534 93.1299 224.013 93.0136 222.998 93.0136C222.499 93.0136 220.332 93.1535 220.024 92.8737H220.024ZM218.001 87.4109C217.334 87.5626 217.242 87.6054 216.919 88.1344C216.611 88.6382 216.675 88.9367 216.682 89.6677L216.692 100.441C216.828 101.467 217.703 101.873 218.794 101.865L225.914 101.86C227.225 101.864 227.93 101.714 228.771 101.085C229.309 100.683 230.063 99.9803 230.216 99.0283C230.365 98.1047 230.355 96.3374 230.059 95.5667C229.426 93.9196 230.257 94.0298 230.341 92.7142C230.485 90.4898 230.291 88.6538 228.115 87.8078C226.328 87.1131 226.847 87.5383 224.963 87.3319C223.832 87.208 218.933 87.1992 218.001 87.4109H218.001Z" fill="#007ECA"/>
<path fill-rule="evenodd" clip-rule="evenodd" d="M115.115 98.8163C115.136 98.7289 118.945 91.9271 118.945 91.9271C119.504 92.7977 122.311 98.7793 122.311 98.7793C121.696 98.9399 116.24 98.8986 115.115 98.8163ZM113.928 101.726C116.65 101.722 119.372 101.726 122.094 101.726C123.345 101.726 124.948 101.647 126.033 101.678C128.395 101.745 128.36 99.2281 126.402 98.889C125.652 98.759 125.694 98.5605 125.389 97.9609C123.988 95.2959 122.631 92.6318 121.209 89.9743C120.404 88.3907 119.009 85.4972 117.139 88.5647L114.358 93.8463C113.88 94.7819 111.959 98.7364 111.339 98.8571C110.552 99.0103 110.205 98.9005 109.773 99.4273C109.469 99.7977 109.204 100.238 109.413 100.76C109.957 102.12 111.428 101.46 113.928 101.726V101.726Z" fill="#007ECA"/>
<path fill-rule="evenodd" clip-rule="evenodd" d="M139.314 98.3353C138.972 99.0221 136.739 99.0901 135.975 99.0956C131.004 99.1311 131.936 98.5989 131.876 94.9379C131.863 94.14 131.742 91.4621 132.06 91.001C132.707 90.061 137.938 89.8544 139.046 90.6809C139.719 91.1819 139.453 93.3691 139.454 94.3521C139.454 95.2584 139.614 97.734 139.314 98.3353H139.314ZM134.836 87.2936C133.513 87.521 133.61 87.1505 131.733 87.7477C128.095 88.9051 129.098 91.267 128.829 95.2847C128.798 95.7505 128.926 98.0927 129.018 98.6222C129.501 101.385 132.506 101.663 134.531 102.025C136.186 102.321 140.527 101.723 141.654 100.41C142.59 99.3195 142.323 95.814 142.322 93.8834C142.322 92.2314 142.581 89.3312 140.795 88.2266C140.244 87.8853 140.366 87.8157 139.602 87.6608C138.349 87.4066 136.174 87.0636 134.836 87.2936Z" fill="#007ECA"/>
<path fill-rule="evenodd" clip-rule="evenodd" d="M211.619 98.1022C211.26 99.5821 205.743 99.1689 204.706 98.8043C203.736 98.4632 204.006 97.0636 204.018 95.4077C204.024 94.6335 203.922 91.8027 204.079 91.2768C204.52 89.7987 209.816 90.0057 211.011 90.5774C211.981 91.0414 211.671 92.7313 211.674 94.0019C211.677 94.8603 211.771 97.4795 211.619 98.1023V98.1022ZM201.099 91.4244L201.097 96.8135C201.103 99.0076 201.142 100.049 203.502 101.275C204.545 101.817 207.077 102.107 208.299 102.106C209.214 102.106 212.209 101.533 212.94 101.102C214.729 100.048 214.476 97.8693 214.481 95.642C214.49 91.9901 215.145 88.3414 211.187 87.4608C210.482 87.3039 209.267 87.359 208.475 87.2462C206.608 86.9808 203.015 87.46 201.737 89.1631C201.383 89.6342 201.1 90.6223 201.099 91.4244V91.4244Z" fill="#007ECA"/>
<path fill-rule="evenodd" clip-rule="evenodd" d="M173.299 98.1031C173.134 97.311 173.258 94.9539 173.259 94.0027C173.259 90.8462 172.588 90.1482 177.74 90.1938C178.785 90.203 180.548 90.2841 180.862 91.2301C180.939 91.462 181.07 97.7489 180.77 98.3391C180.299 99.2641 177.421 99.1116 176.453 99.1097C175.42 99.1078 173.515 99.1392 173.299 98.1031V98.1031ZM170.276 94.9399C170.289 98.8448 170.022 100.131 173.231 101.449C174.561 101.994 181.662 102.559 183.155 100.157C183.928 98.9132 183.661 94.8319 183.661 93.2997C183.662 91.2935 183.893 91.7968 183.418 89.9103C183.333 89.5691 183.359 89.6411 183.229 89.402C182.316 87.7255 180.918 87.568 179.281 87.3921C177.875 87.2409 178.677 87.1863 177.037 87.1836C175.23 87.1807 172.556 87.5508 171.324 88.735C170.031 89.9783 170.282 92.6257 170.276 94.9399H170.276Z" fill="#007ECA"/>
<path fill-rule="evenodd" clip-rule="evenodd" d="M105.428 98.3367C105.076 99.0653 102.939 99.1141 102.147 99.1196C97.0288 99.1546 97.9097 98.9177 97.8555 95.0564C97.8434 94.1909 97.6779 91.562 98.0215 91.0281C98.7887 89.8359 103.513 89.985 104.943 90.599C105.842 90.9854 105.559 92.5985 105.557 94.2363C105.556 95.0598 105.69 97.7948 105.428 98.3367H105.428ZM94.9046 95.0564C94.9034 97.6057 94.6563 99.6585 96.7501 100.934C97.8002 101.574 100.224 102.127 101.49 102.033C103.856 101.961 104.631 101.909 106.593 101.147C107.384 100.883 107.662 100.43 107.992 99.6555C108.348 98.8181 108.204 96.6887 108.204 95.525C108.204 93.311 108.61 90.6355 107.624 89.0785C106.378 87.1101 103.026 87.2931 100.863 87.2939C99.3133 87.2944 96.6728 87.7419 95.7379 88.9551C95.2097 89.6404 95.0538 90.4893 95.0305 91.6626L94.9046 95.0565V95.0564Z" fill="#F32326"/>
<path fill-rule="evenodd" clip-rule="evenodd" d="M188.757 93.9535C188.641 93.2089 188.548 90.9064 188.755 90.2526C189.143 90.1482 195.202 90.0307 196.056 90.3735C196.858 90.6954 196.938 91.1355 196.897 92.1293C196.809 94.2427 195.701 94.108 193.718 94.0808C192.51 94.0643 189.691 94.2604 188.757 93.9535L188.757 93.9535ZM190.22 87.3234C184.971 87.308 185.72 86.4834 185.732 95.4073C185.734 96.5552 185.579 100.171 185.874 100.923C186.285 101.969 187.678 102.099 188.3 101.206C188.735 100.581 188.618 99.1775 188.618 98.219C188.618 96.9079 188.274 97.1305 191.035 97.1313C192.128 97.1317 193.468 97.202 194.53 97.1293C195.251 97.0799 196.66 96.8419 197.362 96.4997C199.265 95.5712 199.634 93.7357 199.628 91.6567C199.625 90.2476 199.081 88.6128 197.949 88.0005L196.694 87.4975C196.57 87.4623 193.48 87.1749 193.368 87.1808L190.22 87.3233V87.3234Z" fill="#007ECA"/>
<path fill-rule="evenodd" clip-rule="evenodd" d="M82.3223 94.0016C82.2342 93.7531 82.0078 90.3781 82.4732 90.2046C82.6905 90.1235 85.9969 90.1703 86.5147 90.171C87.6656 90.1711 89.6896 89.9918 90.23 90.7367C90.5119 91.1254 90.5361 92.4319 90.396 92.9714C90.0068 94.4707 87.9276 94.1168 86.3981 94.1172C85.0376 94.1171 83.6724 94.1728 82.3223 94.0015V94.0016ZM82.4317 87.4013C79.194 87.4 79.3187 87.3358 79.3158 90.8384L79.3152 99.0392C79.3155 99.9095 79.1494 100.7 79.6355 101.264C80.0844 101.784 80.7308 101.929 81.3777 101.614C82.5302 101.052 82.1805 99.2551 82.1802 97.1386L83.6002 97.126C85.3647 97.2454 89.8117 97.202 91.2475 96.3051C93.5269 94.8813 93.7359 90.7448 92.3844 88.8055C91.0051 86.8262 85.1603 87.206 82.4316 87.4013H82.4317Z" fill="#F32326"/>
<path fill-rule="evenodd" clip-rule="evenodd" d="M147.271 92.152C147.02 90.9091 147.523 88.7636 146.756 87.8561C146.146 87.1357 144.299 86.8813 144.296 89.4315L144.293 100.21C144.293 101.686 146.127 102.408 146.98 100.961C147.458 100.149 146.919 97.9948 147.24 97.004C147.702 96.7884 148.788 97.745 149.39 98.2237C150.113 98.7978 153.975 101.581 154.675 101.713C155.215 101.814 155.754 101.635 156.028 101.367C156.362 101.038 156.481 100.514 156.352 100.05C156.209 99.5378 155.968 99.3609 155.528 99.0827C155.155 98.8471 154.829 98.5865 154.514 98.3485L151.406 96.1964C150.912 95.8806 149.571 95.0646 149.375 94.5861C149.842 93.715 154.259 91.0499 155.457 90.1392C155.776 89.8965 156.212 89.6115 156.34 89.2354C156.607 88.4502 156.127 87.2695 154.885 87.321C154.188 87.3499 152.185 88.8928 151.615 89.318L148.547 91.5088C148.138 91.8055 147.851 92.118 147.271 92.1519L147.271 92.152Z" fill="#007ECA"/>
<path fill-rule="evenodd" clip-rule="evenodd" d="M66.8286 92.5966C66.8298 91.4102 66.6825 90.8149 67.7555 90.506C68.8221 90.1989 71.972 90.1671 73.2179 90.4033C74.1797 90.5857 74.5955 90.7871 74.5976 91.8937L74.5988 99.6259C74.5988 100.591 74.6877 101.751 76.2464 101.749C77.1575 101.455 77.3956 100.926 77.404 100.052C77.4276 97.5775 77.7891 92.034 77.0648 89.8032C76.23 87.2323 72.7307 87.4113 70.6503 87.4064C69.0416 87.4026 67.4425 87.4766 66.2347 88.0549C65.2834 88.5103 64.0012 89.4213 64.0011 90.605L64.0002 100.798C64.001 101.504 65.2992 101.926 65.8817 101.64C66.6329 101.271 66.8524 100.844 66.8426 99.7454L66.8285 92.5966L66.8286 92.5966Z" fill="#F32326"/>
<path fill-rule="evenodd" clip-rule="evenodd" d="M159.889 90.1692L162.068 90.1781C162.068 90.1781 162.229 96.8128 162.228 99.6246C162.229 100.227 162.126 100.723 162.469 101.138C163.108 101.912 163.629 101.938 164.221 101.635C165.442 101.009 165.105 99.9226 165.105 97.7501C165.105 95.7105 164.899 91.6864 165.274 90.1764L168.171 90.1715C170.075 90.1714 171.171 87.3073 167.355 87.3037L160.589 87.3027C160.259 87.3025 159.013 87.3183 158.765 87.3487C157.427 87.5122 156.956 89.0937 157.936 89.8757C158.405 90.2494 159.161 90.1672 159.889 90.1692L159.889 90.1692Z" fill="#007ECA"/>
</g>
<path fill-rule="evenodd" clip-rule="evenodd" d="M27.7087 91.0009C27.685 89.2108 27.7051 87.4079 27.7051 85.6164C27.7051 81.059 27.0223 81.0016 33.8726 81.0016C35.2461 81.0016 37.6558 80.8203 38.707 81.4774C39.3954 81.9077 39.271 82.7097 39.2706 83.699C39.2671 91.635 40.3119 91.0399 33.0417 91.0399C31.7179 91.0399 28.8514 91.1935 27.7088 91.0009L27.7087 91.0009ZM36.3635 95.0345C40.1325 95.0096 42.5282 93.6456 42.9669 90.1724C42.9278 87.5733 43.0389 84.9309 42.9849 82.3258C42.9328 79.8193 41.6148 78.3604 39.7168 77.6405C37.5908 76.8341 34.7663 77.0185 32.303 77.0175C29.8851 77.0166 27.1436 77.0673 25.655 78.4038C23.8317 80.0407 24.0161 81.8579 24.0161 84.7034V96.573C24.0161 98.3294 23.6377 100.444 26.552 99.9182C27.1621 99.808 27.4208 99.4996 27.5953 98.9429C27.8383 98.1675 27.6558 96.0299 27.7155 95.0434L36.3634 95.0344L36.3635 95.0345Z" fill="#FE0000"/>
<path fill-rule="evenodd" clip-rule="evenodd" d="M51.2976 94.3002C51.4838 95.1374 51.3442 98.8627 51.3442 99.9975C51.3442 102.455 51.7565 103.767 50.1516 104.393C48.777 104.93 46.6304 104.801 45.0501 104.801C39.0063 104.801 39.686 104.847 39.686 99.0387C39.686 97.0901 39.2354 95.2656 40.8541 94.6359C42.155 94.1298 44.4303 94.2847 45.9627 94.2851C47.636 94.2855 49.6688 94.1763 51.2976 94.3002H51.2976ZM42.6318 90.1121C42.1982 93.7594 39.8303 95.1917 36.1051 95.2178C35.9851 96.1364 35.9972 102.122 36.0039 103.45C36.0358 109.686 42.6601 108.975 46.6015 108.976C49.2666 108.976 51.2006 108.769 52.9007 107.287C54.7999 105.631 54.9809 104.571 54.9804 101.148V88.6837C54.9804 86.7824 55.3817 84.5849 52.5535 85.0675C50.6355 85.3948 51.6233 88.3138 51.3144 90.079L42.6317 90.1121H42.6318Z" fill="#0091FE"/>
<path fill-rule="evenodd" clip-rule="evenodd" d="M31.0794 86.1122C31.385 87.3901 32.6343 88.2367 34.0551 87.9409C37.2586 87.2739 36.2179 82.3996 33.0187 83.0616C31.8635 83.3007 30.6793 84.4391 31.0794 86.1122H31.0794Z" fill="#FE0000"/>
<path fill-rule="evenodd" clip-rule="evenodd" d="M45.3974 97.0573C44.0033 97.3059 42.7012 98.4118 43.0604 100.001C43.783 103.2 49.7269 102.337 48.9259 98.992C48.6193 97.7113 47.114 96.7512 45.3973 97.0573L45.3974 97.0573Z" fill="#0091FE"/>
<path fill-rule="evenodd" clip-rule="evenodd" d="M27.7087 91.0009C27.685 89.2108 27.7051 87.4079 27.7051 85.6164C27.7051 81.059 27.0223 81.0016 33.8726 81.0016C35.2461 81.0016 37.6558 80.8203 38.707 81.4774C39.3954 81.9077 39.271 82.7097 39.2706 83.699C39.2671 91.635 40.3119 91.0399 33.0417 91.0399C31.7179 91.0399 28.8514 91.1935 27.7088 91.0009L27.7087 91.0009ZM36.3635 95.0345C40.1325 95.0096 42.5282 93.6456 42.9669 90.1724C42.9278 87.5733 43.0389 84.9309 42.9849 82.3258C42.9328 79.8193 41.6148 78.3604 39.7168 77.6405C37.5908 76.8341 34.7663 77.0185 32.303 77.0175C29.8851 77.0166 27.1436 77.0673 25.655 78.4038C23.8317 80.0407 24.0161 81.8579 24.0161 84.7034V96.573C24.0161 98.3294 23.6377 100.444 26.552 99.9182C27.1621 99.808 27.4208 99.4996 27.5953 98.9429C27.8383 98.1675 27.6558 96.0299 27.7155 95.0434L36.3634 95.0344L36.3635 95.0345Z" fill="#FE0000"/>
<path fill-rule="evenodd" clip-rule="evenodd" d="M51.2976 94.3002C51.4838 95.1374 51.3442 98.8627 51.3442 99.9975C51.3442 102.455 51.7565 103.767 50.1516 104.393C48.777 104.93 46.6304 104.801 45.0501 104.801C39.0063 104.801 39.686 104.847 39.686 99.0387C39.686 97.0901 39.2354 95.2656 40.8541 94.6359C42.155 94.1298 44.4303 94.2847 45.9627 94.2851C47.636 94.2855 49.6688 94.1763 51.2976 94.3002H51.2976ZM42.6318 90.1121C42.1982 93.7594 39.8303 95.1917 36.1051 95.2178C35.9851 96.1364 35.9972 102.122 36.0039 103.45C36.0358 109.686 42.6601 108.975 46.6015 108.976C49.2666 108.976 51.2006 108.769 52.9007 107.287C54.7999 105.631 54.9809 104.571 54.9804 101.148V88.6837C54.9804 86.7824 55.3817 84.5849 52.5535 85.0675C50.6355 85.3948 51.6233 88.3138 51.3144 90.079L42.6317 90.1121H42.6318Z" fill="#0091FE"/>
<path fill-rule="evenodd" clip-rule="evenodd" d="M31.0794 86.1122C31.385 87.3901 32.6343 88.2367 34.0551 87.9409C37.2586 87.2739 36.2179 82.3996 33.0187 83.0616C31.8635 83.3007 30.6793 84.4391 31.0794 86.1122H31.0794Z" fill="#FE0000"/>
<path fill-rule="evenodd" clip-rule="evenodd" d="M45.3974 97.0573C44.0033 97.3059 42.7012 98.4118 43.0604 100.001C43.783 103.2 49.7269 102.337 48.9259 98.992C48.6193 97.7113 47.114 96.7512 45.3973 97.0573L45.3974 97.0573Z" fill="#0091FE"/>
<defs>
<clipPath id="clip0_279_1172">
<rect width="166.378" height="18.1066" fill="white" transform="translate(64 84)"/>
</clipPath>
<clipPath id="clip1_279_1172">
<rect width="166.378" height="18.1066" fill="white" transform="translate(64 84)"/>
</clipPath>
</defs>
</svg>
