<svg width="255" height="128" viewBox="0 0 255 128" fill="none" xmlns="http://www.w3.org/2000/svg">
<rect x="0.5" y="0.5" width="254" height="127" fill="white" stroke="black"/>
<path d="M82 22L86.7963 32.3984L98.168 33.7467L89.7606 41.5216L91.9923 52.7533L82 47.16L72.0077 52.7533L74.2394 41.5216L65.832 33.7467L77.2037 32.3984L82 22Z" fill="#FFDC0A"/>
<path d="M126.907 53.216C124.639 53.216 122.845 52.622 121.525 51.434C120.973 50.93 120.523 50.336 120.175 49.652C119.839 48.968 119.671 48.272 119.671 47.564C119.671 46.988 119.839 46.52 120.175 46.16C120.487 45.812 120.919 45.638 121.471 45.638C121.963 45.638 122.347 45.764 122.623 46.016C122.911 46.292 123.187 46.826 123.451 47.618C123.943 49.142 125.095 49.904 126.907 49.904C128.083 49.904 129.001 49.574 129.661 48.914C130.153 48.422 130.477 47.816 130.633 47.096C130.789 46.364 130.867 45.476 130.867 44.432C130.867 43.628 130.807 42.92 130.687 42.308C130.579 41.696 130.387 41.138 130.111 40.634C129.847 40.118 129.463 39.728 128.959 39.464C128.455 39.188 127.837 39.05 127.105 39.05C126.325 39.05 125.671 39.164 125.143 39.392C124.627 39.62 124.141 40.016 123.685 40.58C123.481 40.832 123.235 41.048 122.947 41.228C122.695 41.396 122.353 41.48 121.921 41.48C121.393 41.48 120.967 41.318 120.643 40.994C120.295 40.658 120.121 40.13 120.121 39.41V29.456C120.121 28.7 120.283 28.16 120.607 27.836C120.919 27.524 121.447 27.368 122.191 27.368H131.839C132.559 27.368 133.057 27.452 133.333 27.62C133.837 27.92 134.089 28.388 134.089 29.024C134.089 29.66 133.837 30.128 133.333 30.428C133.033 30.596 132.535 30.68 131.839 30.68H123.451V37.394C124.447 36.398 125.863 35.9 127.699 35.9C129.667 35.9 131.203 36.452 132.307 37.556C133.183 38.432 133.771 39.44 134.071 40.58C134.383 41.708 134.539 42.992 134.539 44.432C134.539 45.98 134.389 47.282 134.089 48.338C133.801 49.394 133.225 50.354 132.361 51.218C131.029 52.55 129.211 53.216 126.907 53.216ZM143.349 48.644C143.865 49.148 144.123 49.76 144.123 50.48C144.123 51.2 143.865 51.818 143.349 52.334C142.833 52.85 142.215 53.108 141.495 53.108C140.775 53.108 140.157 52.85 139.641 52.334C139.125 51.818 138.867 51.2 138.867 50.48C138.867 49.76 139.125 49.148 139.641 48.644C140.157 48.14 140.775 47.888 141.495 47.888C142.215 47.888 142.833 48.14 143.349 48.644ZM163.519 45.872C163.519 48.104 162.811 49.886 161.395 51.218C159.979 52.55 158.215 53.216 156.103 53.216C154.003 53.216 152.245 52.55 150.829 51.218C149.425 49.874 148.723 48.092 148.723 45.872V34.496C148.723 32.276 149.425 30.5 150.829 29.168C152.245 27.824 154.003 27.152 156.103 27.152C158.215 27.152 159.979 27.818 161.395 29.15C162.811 30.482 163.519 32.264 163.519 34.496V45.872ZM159.847 45.728V34.64C159.847 33.392 159.511 32.384 158.839 31.616C158.167 30.848 157.255 30.464 156.103 30.464C154.963 30.464 154.057 30.854 153.385 31.634C152.725 32.402 152.395 33.404 152.395 34.64V45.728C152.395 46.964 152.725 47.972 153.385 48.752C154.057 49.52 154.963 49.904 156.103 49.904C157.255 49.904 158.167 49.52 158.839 48.752C159.511 47.984 159.847 46.976 159.847 45.728Z" fill="black"/>
<path d="M32 66H79V113H32V66Z" fill="#303540"/>
<path d="M50.0408 84.0408C47.3197 86.7618 47.3197 91.2382 50.0408 93.9592C52.7618 96.6803 57.2382 96.6803 59.9592 93.9592C62.6803 91.2382 62.6803 86.7618 59.9592 84.0408C57.2382 81.3197 52.8495 81.3197 50.0408 84.0408Z" fill="#FEFEFE"/>
<path d="M66.8628 78.6816V88.9168C66.8628 94.9913 62.0163 99.8177 55.9164 99.8177H45.6385C51.5713 105.476 60.8465 105.393 66.6122 99.568C72.3778 93.8263 72.4614 84.5897 66.8628 78.6816M45.1372 89.0832C45.1372 83.0087 49.9837 78.1823 56.0836 78.1823H66.3615C60.4287 72.5239 51.1535 72.6071 45.3878 78.432C39.6222 84.2569 39.5386 93.4935 45.1372 99.3184V89.0832V89.0832Z" fill="white"/>
<path d="M79 66H222V113H79V66Z" fill="#2E6BE5"/>
<path d="M103.374 90.8303C100.303 89.9818 98 87.5212 98 83.9576C98 79.5455 101.668 77 105.592 77H124.274V82.3455H113.355V86.503H121.8V91.6788H113.355V99.0606H107.554V82.1758H105.507C104.568 82.1758 103.459 82.7697 103.459 83.9576C103.459 84.8909 104.057 85.4848 104.824 85.8242L103.374 90.8303V90.8303ZM127.003 99.0606V77H132.975V99.0606H127.003ZM143.296 82.4303C147.732 82.4303 150.889 84.5515 150.889 88.9636V99.0606H145.856V97.3636C144.917 99.0606 142.785 99.5697 140.737 99.5697C137.155 99.5697 135.107 97.0242 135.107 94.1394C135.107 91.6788 137.069 88.7091 141.932 88.7091H145.429V88.4545C145.429 86.5879 144.747 85.9091 143.211 85.9091C141.846 85.9091 140.993 86.5879 140.908 87.8606H135.79C136.046 84.7212 138.605 82.4303 143.296 82.4303V82.4303ZM145.514 92.8667V91.9333H143.041C141.59 91.9333 140.481 92.697 140.481 93.8C140.481 94.9879 141.334 95.5818 142.785 95.5818C144.491 95.5818 145.514 94.3939 145.514 92.8667V92.8667ZM168.291 85.3152C169.399 83.2788 171.02 82.5152 173.153 82.5152C177.247 82.5152 179.039 85.0606 179.039 89.1333V99.0606H173.494V90.2364C173.494 88.3697 173.153 87.2667 171.532 87.2667C169.741 87.2667 169.229 88.6242 169.229 90.4061V99.0606H163.684V90.2364C163.684 88.3697 163.258 87.2667 161.552 87.2667C159.76 87.2667 159.163 88.7939 159.163 90.6606V99.1455H153.448V82.9394H158.822V85.3152C159.931 83.0242 161.893 82.4303 163.684 82.4303C165.817 82.4303 167.352 83.2788 168.291 85.3152V85.3152ZM187.057 85.1455C188.166 83.1091 190.214 82.4303 192.176 82.4303C196.441 82.4303 199 85.9939 199 91C199 96.0909 196.356 99.5697 192.176 99.5697C190.214 99.5697 188.252 98.9758 187.228 97.3636V105H181.598V82.9394H187.057V85.1455V85.1455ZM190.128 95.1576C192.517 95.1576 193.455 93.2061 193.455 91C193.455 88.7939 192.602 86.9273 190.128 86.9273C187.825 86.9273 186.802 88.7939 186.802 91C186.887 93.2061 187.825 95.1576 190.128 95.1576Z" fill="white"/>
</svg>
