<svg width="255" height="128" viewBox="0 0 255 128" fill="none" xmlns="http://www.w3.org/2000/svg">
<rect x="0.5" y="0.5" width="254" height="127" fill="white" stroke="black"/>
<path d="M82 22L86.7963 32.3984L98.168 33.7467L89.7606 41.5216L91.9923 52.7533L82 47.16L72.0077 52.7533L74.2394 41.5216L65.832 33.7467L77.2037 32.3984L82 22Z" fill="#FFDC0A"/>
<path d="M126.907 53.216C124.639 53.216 122.845 52.622 121.525 51.434C120.973 50.93 120.523 50.336 120.175 49.652C119.839 48.968 119.671 48.272 119.671 47.564C119.671 46.988 119.839 46.52 120.175 46.16C120.487 45.812 120.919 45.638 121.471 45.638C121.963 45.638 122.347 45.764 122.623 46.016C122.911 46.292 123.187 46.826 123.451 47.618C123.943 49.142 125.095 49.904 126.907 49.904C128.083 49.904 129.001 49.574 129.661 48.914C130.153 48.422 130.477 47.816 130.633 47.096C130.789 46.364 130.867 45.476 130.867 44.432C130.867 43.628 130.807 42.92 130.687 42.308C130.579 41.696 130.387 41.138 130.111 40.634C129.847 40.118 129.463 39.728 128.959 39.464C128.455 39.188 127.837 39.05 127.105 39.05C126.325 39.05 125.671 39.164 125.143 39.392C124.627 39.62 124.141 40.016 123.685 40.58C123.481 40.832 123.235 41.048 122.947 41.228C122.695 41.396 122.353 41.48 121.921 41.48C121.393 41.48 120.967 41.318 120.643 40.994C120.295 40.658 120.121 40.13 120.121 39.41V29.456C120.121 28.7 120.283 28.16 120.607 27.836C120.919 27.524 121.447 27.368 122.191 27.368H131.839C132.559 27.368 133.057 27.452 133.333 27.62C133.837 27.92 134.089 28.388 134.089 29.024C134.089 29.66 133.837 30.128 133.333 30.428C133.033 30.596 132.535 30.68 131.839 30.68H123.451V37.394C124.447 36.398 125.863 35.9 127.699 35.9C129.667 35.9 131.203 36.452 132.307 37.556C133.183 38.432 133.771 39.44 134.071 40.58C134.383 41.708 134.539 42.992 134.539 44.432C134.539 45.98 134.389 47.282 134.089 48.338C133.801 49.394 133.225 50.354 132.361 51.218C131.029 52.55 129.211 53.216 126.907 53.216ZM143.349 48.644C143.865 49.148 144.123 49.76 144.123 50.48C144.123 51.2 143.865 51.818 143.349 52.334C142.833 52.85 142.215 53.108 141.495 53.108C140.775 53.108 140.157 52.85 139.641 52.334C139.125 51.818 138.867 51.2 138.867 50.48C138.867 49.76 139.125 49.148 139.641 48.644C140.157 48.14 140.775 47.888 141.495 47.888C142.215 47.888 142.833 48.14 143.349 48.644ZM163.519 45.872C163.519 48.104 162.811 49.886 161.395 51.218C159.979 52.55 158.215 53.216 156.103 53.216C154.003 53.216 152.245 52.55 150.829 51.218C149.425 49.874 148.723 48.092 148.723 45.872V34.496C148.723 32.276 149.425 30.5 150.829 29.168C152.245 27.824 154.003 27.152 156.103 27.152C158.215 27.152 159.979 27.818 161.395 29.15C162.811 30.482 163.519 32.264 163.519 34.496V45.872ZM159.847 45.728V34.64C159.847 33.392 159.511 32.384 158.839 31.616C158.167 30.848 157.255 30.464 156.103 30.464C154.963 30.464 154.057 30.854 153.385 31.634C152.725 32.402 152.395 33.404 152.395 34.64V45.728C152.395 46.964 152.725 47.972 153.385 48.752C154.057 49.52 154.963 49.904 156.103 49.904C157.255 49.904 158.167 49.52 158.839 48.752C159.511 47.984 159.847 46.976 159.847 45.728Z" fill="black"/>
<path d="M122.237 106V94.2985L123.462 97.678L110.62 76.4294H116.492L126.799 93.5381H123.504L133.896 76.4294H139.303L126.461 97.678L127.729 94.2985V106H122.237ZM150.479 106.296C147.973 106.296 145.776 105.803 143.889 104.817C142.031 103.803 140.58 102.423 139.538 100.677C138.524 98.9312 138.017 96.9458 138.017 94.7209C138.017 92.4679 138.51 90.4825 139.496 88.7646C140.51 87.0185 141.89 85.6526 143.636 84.6669C145.41 83.6812 147.424 83.1884 149.677 83.1884C151.873 83.1884 153.831 83.6672 155.549 84.6247C157.267 85.5822 158.618 86.934 159.604 88.6801C160.59 90.4262 161.083 92.482 161.083 94.8477C161.083 95.073 161.068 95.3264 161.04 95.608C161.04 95.8897 161.026 96.1572 160.998 96.4107H142.2V92.9044H158.21L156.14 94.0028C156.168 92.7073 155.901 91.5667 155.337 90.581C154.774 89.5954 154 88.8209 153.014 88.2576C152.056 87.6944 150.944 87.4128 149.677 87.4128C148.381 87.4128 147.241 87.6944 146.255 88.2576C145.297 88.8209 144.537 89.6094 143.974 90.6233C143.439 91.609 143.171 92.7777 143.171 94.1295V94.9744C143.171 96.3262 143.481 97.5231 144.101 98.5651C144.72 99.6071 145.593 100.41 146.72 100.973C147.846 101.536 149.142 101.818 150.606 101.818C151.873 101.818 153.014 101.621 154.028 101.226C155.042 100.832 155.943 100.213 156.731 99.3677L159.562 102.621C158.548 103.803 157.267 104.719 155.718 105.366C154.197 105.986 152.451 106.296 150.479 106.296ZM166.155 106V74.6552H171.435V106H166.155ZM178.366 106V74.6552H183.646V106H178.366Z" fill="black"/>
<path fill-rule="evenodd" clip-rule="evenodd" d="M97.0546 112.952C99.9314 113.781 96.2306 103.477 96.2306 103.477C97.8786 98.5275 99.5106 81.6284 98.4866 76.4775C97.4626 71.325 93.6226 71.5034 86.5666 70.0939C79.3842 68.6475 61.3202 67.8198 57.4002 68.0319C53.5042 68.2361 50.6402 70.9087 51.0402 76.2766C51.4514 81.6284 57.701 101.573 60.8002 106.523C63.8882 111.473 68.453 110.608 71.1762 110.277C74.9106 109.814 88.9682 106.523 88.9682 106.523C87.7106 104.9 94.1778 112.122 97.053 112.952H97.0546ZM78.2002 81.8052L80.7026 76.463H88.1906L80.005 92.1198V101.345H71.413V92.1198L66.837 83.3673L63.2162 76.463H70.7042L75.7026 87.1103L78.2002 81.8052Z" fill="#ED484A"/>
</svg>
