<svg width="184" height="184" viewBox="0 0 184 184" fill="none" xmlns="http://www.w3.org/2000/svg">
<circle cx="92" cy="92" r="90" fill="#024FA2" stroke="#4D4D4D" stroke-width="4"/>
<path d="M44.304 101.528L44.304 84.7283L59.616 84.7283L59.616 101.528L55.752 101.528L55.752 87.0083L56.64 87.8963L47.28 87.8963L48.168 87.0083L48.168 101.528L44.304 101.528ZM63.7805 101.528L63.7805 84.7283L71.0525 84.7283C72.5565 84.7283 73.8525 84.9763 74.9405 85.4723C76.0285 85.9523 76.8685 86.6483 77.4605 87.5603C78.0525 88.4723 78.3485 89.5603 78.3485 90.8243C78.3485 92.0723 78.0525 93.1523 77.4605 94.0643C76.8685 94.9763 76.0285 95.6803 74.9405 96.1763C73.8525 96.6563 72.5565 96.8963 71.0525 96.8963L65.9405 96.8963L67.6685 95.1443L67.6685 101.528L63.7805 101.528ZM67.6685 95.5763L65.9405 93.7283L70.8365 93.7283C72.0365 93.7283 72.9325 93.4723 73.5245 92.9603C74.1165 92.4483 74.4125 91.7363 74.4125 90.8243C74.4125 89.8963 74.1165 89.1763 73.5245 88.6643C72.9325 88.1523 72.0365 87.8963 70.8365 87.8963L65.9405 87.8963L67.6685 86.0483L67.6685 95.5763ZM89.1877 101.816C87.8597 101.816 86.6277 101.6 85.4917 101.168C84.3717 100.736 83.3957 100.128 82.5637 99.3443C81.7477 98.5603 81.1077 97.6403 80.6437 96.5843C80.1957 95.5283 79.9717 94.3763 79.9717 93.1283C79.9717 91.8803 80.1957 90.7283 80.6437 89.6723C81.1077 88.6163 81.7557 87.6963 82.5877 86.9123C83.4197 86.1283 84.3957 85.5203 85.5157 85.0883C86.6357 84.6563 87.8517 84.4403 89.1637 84.4403C90.4917 84.4403 91.7077 84.6563 92.8117 85.0883C93.9317 85.5203 94.8997 86.1283 95.7157 86.9123C96.5477 87.6963 97.1957 88.6163 97.6597 89.6723C98.1237 90.7123 98.3557 91.8643 98.3557 93.1283C98.3557 94.3763 98.1237 95.5363 97.6597 96.6083C97.1957 97.6643 96.5477 98.5843 95.7157 99.3683C94.8997 100.136 93.9317 100.736 92.8117 101.168C91.7077 101.6 90.4997 101.816 89.1877 101.816ZM89.1637 98.5043C89.9157 98.5043 90.6037 98.3763 91.2277 98.1203C91.8677 97.8643 92.4277 97.4963 92.9077 97.0163C93.3877 96.5363 93.7557 95.9683 94.0117 95.3123C94.2837 94.6563 94.4197 93.9283 94.4197 93.1283C94.4197 92.3283 94.2837 91.6003 94.0117 90.9443C93.7557 90.2883 93.3877 89.7203 92.9077 89.2403C92.4437 88.7603 91.8917 88.3923 91.2517 88.1363C90.6117 87.8803 89.9157 87.7523 89.1637 87.7523C88.4117 87.7523 87.7157 87.8803 87.0757 88.1363C86.4517 88.3923 85.8997 88.7603 85.4197 89.2403C84.9397 89.7203 84.5637 90.2883 84.2917 90.9443C84.0357 91.6003 83.9077 92.3283 83.9077 93.1283C83.9077 93.9123 84.0357 94.6403 84.2917 95.3123C84.5637 95.9683 84.9317 96.5363 85.3957 97.0163C85.8757 97.4963 86.4357 97.8643 87.0757 98.1203C87.7157 98.3763 88.4117 98.5043 89.1637 98.5043ZM110.231 100.472C108.055 100.472 106.207 100.184 104.687 99.6083C103.183 99.0323 102.039 98.2003 101.255 97.1123C100.471 96.0083 100.079 94.6643 100.079 93.0803C100.079 91.4963 100.471 90.1603 101.255 89.0723C102.039 87.9683 103.183 87.1283 104.687 86.5523C106.207 85.9763 108.055 85.6883 110.231 85.6883C110.263 85.6883 110.351 85.6883 110.495 85.6883C110.655 85.6883 110.807 85.6883 110.951 85.6883C111.111 85.6883 111.199 85.6883 111.215 85.6883C113.375 85.6883 115.199 85.9763 116.687 86.5523C118.191 87.1283 119.327 87.9683 120.095 89.0723C120.863 90.1763 121.247 91.5123 121.247 93.0803C121.247 94.6323 120.863 95.9683 120.095 97.0883C119.343 98.1923 118.231 99.0323 116.759 99.6083C115.303 100.184 113.519 100.472 111.407 100.472C111.359 100.472 111.247 100.472 111.071 100.472C110.895 100.472 110.719 100.472 110.543 100.472C110.383 100.472 110.279 100.472 110.231 100.472ZM110.591 97.4723C110.639 97.4723 110.703 97.4723 110.783 97.4723C110.863 97.4723 110.919 97.4723 110.951 97.4723C112.423 97.4723 113.639 97.3123 114.599 96.9923C115.575 96.6563 116.303 96.1683 116.783 95.5283C117.263 94.8723 117.503 94.0483 117.503 93.0563C117.503 92.0643 117.255 91.2483 116.759 90.6083C116.263 89.9683 115.535 89.4963 114.575 89.1923C113.631 88.8723 112.439 88.7123 110.999 88.7123C110.967 88.7123 110.903 88.7123 110.807 88.7123C110.727 88.7123 110.655 88.7123 110.591 88.7123C109.071 88.7123 107.815 88.8643 106.823 89.1683C105.831 89.4723 105.087 89.9523 104.591 90.6083C104.095 91.2483 103.847 92.0723 103.847 93.0803C103.847 94.0883 104.111 94.9203 104.639 95.5763C105.167 96.2163 105.927 96.6963 106.919 97.0163C107.927 97.3203 109.151 97.4723 110.591 97.4723ZM108.887 102.272L108.887 84.0083L112.463 84.0083L112.463 102.272L108.887 102.272ZM124.156 101.528L124.156 84.7283L128.02 84.7283L128.02 95.6723L136.036 84.7283L139.684 84.7283L139.684 101.528L135.844 101.528L135.844 90.6083L127.828 101.528L124.156 101.528Z" fill="white"/>
</svg>
