<svg width="184" height="184" viewBox="0 0 184 184" fill="none" xmlns="http://www.w3.org/2000/svg">
<circle cx="92" cy="92" r="90" fill="#E32E16" stroke="#4D4D4D" stroke-width="4"/>
<path d="M48.6296 101.811C47.3336 101.811 46.1256 101.603 45.0056 101.187C43.9016 100.755 42.9416 100.147 42.1256 99.3631C41.3096 98.5791 40.6696 97.6591 40.2056 96.6031C39.7576 95.5471 39.5336 94.3871 39.5336 93.1231C39.5336 91.8591 39.7576 90.6991 40.2056 89.6431C40.6696 88.5871 41.3096 87.6671 42.1256 86.8831C42.9576 86.0991 43.9256 85.4991 45.0296 85.0831C46.1336 84.6511 47.3416 84.4351 48.6536 84.4351C50.1096 84.4351 51.4216 84.6911 52.5896 85.2031C53.7736 85.6991 54.7656 86.4351 55.5656 87.4111L53.0696 89.7151C52.4936 89.0591 51.8536 88.5711 51.1496 88.2511C50.4456 87.9151 49.6776 87.7471 48.8456 87.7471C48.0616 87.7471 47.3416 87.8751 46.6856 88.1311C46.0296 88.3871 45.4616 88.7551 44.9816 89.2351C44.5016 89.7151 44.1256 90.2831 43.8536 90.9391C43.5976 91.5951 43.4696 92.3231 43.4696 93.1231C43.4696 93.9231 43.5976 94.6511 43.8536 95.3071C44.1256 95.9631 44.5016 96.5311 44.9816 97.0111C45.4616 97.4911 46.0296 97.8591 46.6856 98.1151C47.3416 98.3711 48.0616 98.4991 48.8456 98.4991C49.6776 98.4991 50.4456 98.3391 51.1496 98.0191C51.8536 97.6831 52.4936 97.1791 53.0696 96.5071L55.5656 98.8111C54.7656 99.7871 53.7736 100.531 52.5896 101.043C51.4216 101.555 50.1016 101.811 48.6296 101.811ZM61.6757 91.4911H69.7637V94.5151H61.6757V91.4911ZM61.9637 98.4031H71.1077V101.523H58.0997V84.7231H70.7957V87.8431H61.9637V98.4031ZM74.2481 101.523V84.7231H81.5201C83.0241 84.7231 84.3201 84.9711 85.4081 85.4671C86.4961 85.9471 87.3361 86.6431 87.9281 87.5551C88.5201 88.4671 88.8161 89.5551 88.8161 90.8191C88.8161 92.0671 88.5201 93.1471 87.9281 94.0591C87.3361 94.9711 86.4961 95.6751 85.4081 96.1711C84.3201 96.6511 83.0241 96.8911 81.5201 96.8911H76.4081L78.1361 95.1391V101.523H74.2481ZM78.1361 95.5711L76.4081 93.7231H81.3041C82.5041 93.7231 83.4001 93.4671 83.9921 92.9551C84.5841 92.4431 84.8801 91.7311 84.8801 90.8191C84.8801 89.8911 84.5841 89.1711 83.9921 88.6591C83.4001 88.1471 82.5041 87.8911 81.3041 87.8911H76.4081L78.1361 86.0431V95.5711ZM91.381 101.523V84.7231H99.205C101.157 84.7231 102.677 85.0991 103.765 85.8511C104.853 86.6031 105.397 87.6751 105.397 89.0671C105.397 90.4431 104.885 91.5151 103.861 92.2831C102.837 93.0351 101.477 93.4111 99.781 93.4111L100.237 92.4031C102.125 92.4031 103.589 92.7791 104.629 93.5311C105.669 94.2831 106.189 95.3711 106.189 96.7951C106.189 98.2671 105.629 99.4271 104.509 100.275C103.405 101.107 101.789 101.523 99.661 101.523H91.381ZM95.245 98.6431H99.517C100.413 98.6431 101.093 98.4671 101.557 98.1151C102.021 97.7631 102.253 97.2191 102.253 96.4831C102.253 95.7791 102.021 95.2591 101.557 94.9231C101.093 94.5711 100.413 94.3951 99.517 94.3951H95.245V98.6431ZM95.245 91.6831H98.869C99.717 91.6831 100.357 91.5151 100.789 91.1791C101.221 90.8271 101.437 90.3151 101.437 89.6431C101.437 88.9711 101.221 88.4671 100.789 88.1311C100.357 87.7791 99.717 87.6031 98.869 87.6031H95.245V91.6831ZM109.264 101.523V84.7231H113.128V95.6671L121.144 84.7231H124.792V101.523H120.952V90.6031L112.936 101.523H109.264ZM136.919 101.811C135.623 101.811 134.415 101.603 133.295 101.187C132.191 100.755 131.231 100.147 130.415 99.3631C129.599 98.5791 128.959 97.6591 128.495 96.6031C128.047 95.5471 127.823 94.3871 127.823 93.1231C127.823 91.8591 128.047 90.6991 128.495 89.6431C128.959 88.5871 129.599 87.6671 130.415 86.8831C131.247 86.0991 132.215 85.4991 133.319 85.0831C134.423 84.6511 135.631 84.4351 136.943 84.4351C138.399 84.4351 139.711 84.6911 140.879 85.2031C142.063 85.6991 143.055 86.4351 143.855 87.4111L141.359 89.7151C140.783 89.0591 140.143 88.5711 139.439 88.2511C138.735 87.9151 137.967 87.7471 137.135 87.7471C136.351 87.7471 135.631 87.8751 134.975 88.1311C134.319 88.3871 133.751 88.7551 133.271 89.2351C132.791 89.7151 132.415 90.2831 132.143 90.9391C131.887 91.5951 131.759 92.3231 131.759 93.1231C131.759 93.9231 131.887 94.6511 132.143 95.3071C132.415 95.9631 132.791 96.5311 133.271 97.0111C133.751 97.4911 134.319 97.8591 134.975 98.1151C135.631 98.3711 136.351 98.4991 137.135 98.4991C137.967 98.4991 138.735 98.3391 139.439 98.0191C140.143 97.6831 140.783 97.1791 141.359 96.5071L143.855 98.8111C143.055 99.7871 142.063 100.531 140.879 101.043C139.711 101.555 138.391 101.811 136.919 101.811Z" fill="white"/>
</svg>
