<svg width="66" height="77" viewBox="0 0 66 77" fill="none" xmlns="http://www.w3.org/2000/svg">
<g clip-path="url(#clip0_235_1115)">
<path fill-rule="evenodd" clip-rule="evenodd" d="M31.911 39.4C27.2571 39.4271 22.5839 39.3108 21.6509 39.0639L21.5517 11.9777C23.4657 11.7499 41.5886 11.433 45.4455 12.7613C50.3635 14.456 54.3085 20.088 54.3085 25.516C54.3085 29.3179 52.6873 32.5448 50.7412 34.566C45.5047 40.0052 39.0215 39.3586 31.911 39.4016V39.4ZM14.2747 5.75486L14.201 42.1029L4.73472 42.4135C2.76463 42.6141 2.6446 45.7837 4.62429 46.5434C5.66935 46.9321 9.67353 46.6884 10.9314 46.6884H14.089L14.0826 58.3791H10.9282C9.59031 58.3791 5.81658 58.1689 4.6691 58.5384C2.71022 59.1707 2.70542 62.3562 4.77953 62.7193C6.84243 62.7369 8.90534 62.7289 10.9699 62.7289H14.0554L14.2699 72.2901C14.6844 74.0756 17.6531 74.2986 18.3765 72.2662L18.5221 62.7783L21.6173 62.7655C26.4249 62.7464 31.2308 62.7369 36.0384 62.7337C40.4923 62.7305 45.0054 62.6763 49.4577 62.7831C50.8213 62.4103 51.399 61.1935 50.9109 59.7935C50.794 59.4574 50.6212 59.0656 50.3091 58.8633C49.4289 58.2963 46.7018 58.3775 45.6728 58.3791C37.674 58.3934 29.6753 58.3791 21.6781 58.3791H18.5205L18.5269 46.6756L21.6941 46.6884C29.7745 46.7202 43.1122 47.9721 50.2787 44.4028C53.4827 42.8069 55.7345 40.7904 57.8678 37.949C63.7044 30.178 63.1587 18.3582 56.4882 11.2403C52.2904 6.75988 47.7373 5.01424 41.707 4.48067C37.7508 4.13026 33.665 4.04266 29.6929 4.00603C25.8295 3.9694 21.8813 3.98373 18.026 4.2322C17.1362 4.28954 15.2445 4.48226 14.5723 5.15758C14.4091 5.32163 14.3259 5.53347 14.2763 5.75327L14.2747 5.75486ZM32.0934 42.0949C28.3325 42.1172 24.594 42.0885 20.8379 42.0981L18.5109 42.1045L18.3877 9.192L21.1772 8.85912C22.6543 8.68232 24.4004 8.69666 25.8935 8.66958C28.5422 8.6218 31.194 8.61702 33.8427 8.66003C36.2337 8.69825 38.6391 8.76992 41.0236 8.94513C42.7073 9.06936 44.8854 9.24456 46.4794 9.79406C52.8089 11.9745 57.4645 18.9014 57.4645 25.516C57.4645 29.6221 55.8833 33.7633 53.0202 36.7385C46.9643 43.0267 40.1018 42.0487 32.0934 42.0965V42.0949ZM11.1203 5.47932L11.0515 39.0639L4.54747 39.2773C-0.791444 39.6771 -1.66526 47.4943 3.48801 49.4741C5.18123 50.1239 8.93415 49.8293 10.9298 49.8293L10.9266 55.2398C8.97256 55.2398 5.33486 55.0232 3.69446 55.552C-1.52122 57.2355 -1.0059 65.2231 4.54587 65.8586C6.76241 65.8793 10.9666 65.8698 10.9666 65.8698L11.1171 72.6023C11.9125 77.9746 20.1545 78.4716 21.5228 72.7234L21.6269 65.9048C21.6269 65.9048 45.3911 65.8172 49.7586 65.9303C52.7097 65.3936 55.2063 62.5378 53.8876 58.7614C52.6569 55.235 49.6738 55.2303 45.6632 55.2382C37.6676 55.2526 29.6688 55.2382 21.6733 55.2382L21.6765 49.8277C31.3749 49.8659 43.8611 51.1082 51.6855 47.2108C55.5696 45.2756 58.1206 42.8499 60.3884 39.83C67.1261 30.8613 66.5179 17.3532 58.7896 9.09962C53.6571 3.62855 48.0814 1.89405 41.9807 1.35411C35.8336 0.810984 24.1875 0.689936 17.8179 1.09927C14.3883 1.31907 11.5892 2.28268 11.1171 5.47932H11.1203Z" fill="white"/>
</g>
<defs>
<clipPath id="clip0_235_1115">
<rect width="65" height="75.981" fill="white" transform="translate(0.0509033 0.854736)"/>
</clipPath>
</defs>
</svg>
