<svg width="262" height="303" viewBox="0 0 262 303" fill="none" xmlns="http://www.w3.org/2000/svg">
<path d="M73.2601 52.3671L73.2607 52.3667L130 19.6986L186.739 52.3667L186.74 52.3671L243.475 85.0569L243.475 150.386L243.475 215.74L186.74 248.43L186.739 248.431L130 281.099L73.2607 248.431L73.2601 248.43L16.5248 215.74L16.5248 150.386L16.5248 85.0569L73.2601 52.3671Z" fill="#E22E15" stroke="#4D4D4D" stroke-width="4.40566"/>
<path d="M66.7918 177.898L69.5418 173.168L67.0448 168.867C66.8248 168.478 66.6745 168.174 66.5938 167.954C66.5131 167.734 66.4728 167.506 66.4728 167.272C66.4728 166.612 66.7881 166.102 67.4188 165.743C67.7415 165.559 68.0641 165.468 68.3868 165.468C68.6215 165.468 68.8341 165.508 69.0248 165.589C69.2228 165.669 69.3988 165.794 69.5528 165.963C69.7141 166.131 69.8425 166.289 69.9378 166.436C70.0331 166.575 70.1505 166.766 70.2898 167.008L71.9288 169.923L73.5678 167.008C73.7071 166.766 73.8245 166.575 73.9198 166.436C74.0151 166.289 74.1398 166.131 74.2938 165.963C74.4551 165.794 74.6311 165.669 74.8218 165.589C75.0198 165.508 75.2361 165.468 75.4708 165.468C75.7935 165.468 76.1161 165.559 76.4388 165.743C77.0695 166.102 77.3848 166.612 77.3848 167.272C77.3848 167.506 77.3445 167.734 77.2638 167.954C77.1831 168.174 77.0328 168.478 76.8128 168.867L74.3158 173.168L77.0658 177.898C77.2931 178.294 77.4471 178.602 77.5278 178.822C77.6085 179.042 77.6488 179.269 77.6488 179.504C77.6488 180.164 77.3335 180.673 76.7028 181.033C76.3801 181.216 76.0575 181.308 75.7348 181.308C75.5001 181.308 75.2838 181.267 75.0858 181.187C74.8951 181.106 74.7191 180.981 74.5578 180.813C74.4038 180.644 74.2791 180.49 74.1838 180.351C74.0885 180.204 73.9711 180.01 73.8318 179.768L71.9288 176.402L70.0258 179.768C69.8865 180.01 69.7691 180.204 69.6738 180.351C69.5785 180.49 69.4501 180.644 69.2888 180.813C69.1348 180.981 68.9588 181.106 68.7608 181.187C68.5701 181.267 68.3575 181.308 68.1228 181.308C67.8001 181.308 67.4775 181.216 67.1548 181.033C66.5241 180.673 66.2088 180.164 66.2088 179.504C66.2088 179.269 66.2491 179.042 66.3298 178.822C66.4105 178.602 66.5645 178.294 66.7918 177.898ZM92.1066 178.712C92.1066 179.188 92.0919 179.529 92.0626 179.735C92.0406 179.933 91.9746 180.142 91.8646 180.362C91.7253 180.64 91.5016 180.868 91.1936 181.044C90.8929 181.22 90.5519 181.308 90.1706 181.308C89.7893 181.308 89.4446 181.22 89.1366 181.044C88.8359 180.868 88.6159 180.64 88.4766 180.362C88.3666 180.142 88.2969 179.933 88.2676 179.735C88.2456 179.529 88.2346 179.188 88.2346 178.712L88.2346 172.904L84.0216 179.537C83.6036 180.189 83.2259 180.648 82.8886 180.912C82.5586 181.176 82.1663 181.308 81.7116 181.308C81.1689 181.308 80.7143 181.124 80.3476 180.758C80.1423 180.552 80.0029 180.303 79.9296 180.01C79.8636 179.716 79.8306 179.353 79.8306 178.921L79.8306 168.064C79.8306 167.587 79.8416 167.25 79.8636 167.052C79.8929 166.846 79.9626 166.634 80.0726 166.414C80.2119 166.135 80.4319 165.908 80.7326 165.732C81.0406 165.556 81.3853 165.468 81.7666 165.468C82.1479 165.468 82.4889 165.556 82.7896 165.732C83.0976 165.908 83.3213 166.135 83.4606 166.414C83.5706 166.634 83.6366 166.846 83.6586 167.052C83.6879 167.25 83.7026 167.587 83.7026 168.064L83.7026 173.872L87.9156 167.239C88.3336 166.586 88.7076 166.128 89.0376 165.864C89.3749 165.6 89.7709 165.468 90.2256 165.468C90.7683 165.468 91.2229 165.651 91.5896 166.018C91.7949 166.223 91.9306 166.472 91.9966 166.766C92.0699 167.059 92.1066 167.422 92.1066 167.855L92.1066 178.712ZM95.2349 178.712L95.2349 167.921C95.2349 167.657 95.2385 167.448 95.2459 167.294C95.2605 167.14 95.3082 166.945 95.3889 166.711C95.4769 166.469 95.6052 166.263 95.7739 166.095C95.9425 165.926 96.1442 165.801 96.3789 165.721C96.6209 165.633 96.8189 165.585 96.9729 165.578C97.1269 165.563 97.3359 165.556 97.5999 165.556H101.461C102.304 165.556 103.071 165.699 103.76 165.985C104.449 166.263 105.01 166.641 105.443 167.118C105.883 167.587 106.22 168.122 106.455 168.724C106.69 169.318 106.807 169.941 106.807 170.594C106.807 171.246 106.69 171.873 106.455 172.475C106.22 173.069 105.883 173.604 105.443 174.081C105.01 174.55 104.449 174.928 103.76 175.214C103.071 175.492 102.304 175.632 101.461 175.632H99.1069L99.1069 178.712C99.1069 179.188 99.0922 179.529 99.0629 179.735C99.0409 179.933 98.9749 180.142 98.8649 180.362C98.7255 180.64 98.5019 180.868 98.1939 181.044C97.8932 181.22 97.5522 181.308 97.1709 181.308C96.7895 181.308 96.4449 181.22 96.1369 181.044C95.8362 180.868 95.6162 180.64 95.4769 180.362C95.3669 180.142 95.2972 179.933 95.2679 179.735C95.2459 179.529 95.2349 179.188 95.2349 178.712ZM99.1069 172.2H101.285C101.791 172.2 102.194 172.042 102.495 171.727C102.803 171.404 102.957 171.026 102.957 170.594C102.957 170.161 102.803 169.787 102.495 169.472C102.194 169.149 101.791 168.988 101.285 168.988H99.1069L99.1069 172.2ZM111.041 181.22H110.733C110.315 181.22 110.011 181.209 109.82 181.187C109.629 181.157 109.442 181.099 109.259 181.011C109.01 180.893 108.808 180.699 108.654 180.428C108.5 180.149 108.423 179.841 108.423 179.504C108.423 179.166 108.5 178.862 108.654 178.591C108.808 178.312 109.01 178.114 109.259 177.997C109.545 177.857 109.996 177.788 110.612 177.788C111.052 177.788 111.367 177.612 111.558 177.26L108.236 168.504C108.089 168.108 107.987 167.8 107.928 167.58C107.877 167.352 107.877 167.099 107.928 166.821C107.987 166.535 108.133 166.274 108.368 166.04C108.749 165.658 109.211 165.468 109.754 165.468C110.194 165.468 110.557 165.6 110.843 165.864C110.997 166.003 111.122 166.164 111.217 166.348C111.312 166.524 111.441 166.824 111.602 167.25L113.461 172.299L115.32 167.25C115.481 166.824 115.61 166.524 115.705 166.348C115.8 166.164 115.925 166.003 116.079 165.864C116.365 165.6 116.728 165.468 117.168 165.468C117.711 165.468 118.173 165.658 118.554 166.04C118.789 166.274 118.932 166.535 118.983 166.821C119.042 167.099 119.042 167.352 118.983 167.58C118.932 167.8 118.833 168.108 118.686 168.504L115.133 178.008C114.759 179.005 114.231 179.79 113.549 180.362C112.867 180.934 112.031 181.22 111.041 181.22ZM121.016 178.712L121.016 167.921C121.016 167.657 121.02 167.448 121.027 167.294C121.042 167.14 121.089 166.945 121.17 166.711C121.258 166.469 121.386 166.263 121.555 166.095C121.724 165.926 121.925 165.801 122.16 165.721C122.402 165.633 122.6 165.585 122.754 165.578C122.908 165.563 123.117 165.556 123.381 165.556H127.242C128.085 165.556 128.852 165.699 129.541 165.985C130.23 166.263 130.791 166.641 131.224 167.118C131.664 167.587 132.001 168.122 132.236 168.724C132.471 169.318 132.588 169.941 132.588 170.594C132.588 171.246 132.471 171.873 132.236 172.475C132.001 173.069 131.664 173.604 131.224 174.081C130.791 174.55 130.23 174.928 129.541 175.214C128.852 175.492 128.085 175.632 127.242 175.632H124.888L124.888 178.712C124.888 179.188 124.873 179.529 124.844 179.735C124.822 179.933 124.756 180.142 124.646 180.362C124.507 180.64 124.283 180.868 123.975 181.044C123.674 181.22 123.333 181.308 122.952 181.308C122.571 181.308 122.226 181.22 121.918 181.044C121.617 180.868 121.397 180.64 121.258 180.362C121.148 180.142 121.078 179.933 121.049 179.735C121.027 179.529 121.016 179.188 121.016 178.712ZM124.888 172.2H127.066C127.572 172.2 127.975 172.042 128.276 171.727C128.584 171.404 128.738 171.026 128.738 170.594C128.738 170.161 128.584 169.787 128.276 169.472C127.975 169.149 127.572 168.988 127.066 168.988H124.888L124.888 172.2ZM134.809 178.712L134.809 167.921C134.809 167.657 134.813 167.448 134.82 167.294C134.835 167.14 134.882 166.945 134.963 166.711C135.051 166.469 135.179 166.263 135.348 166.095C135.517 165.926 135.718 165.801 135.953 165.721C136.195 165.633 136.393 165.585 136.547 165.578C136.701 165.563 136.91 165.556 137.174 165.556H142.707C143.125 165.556 143.429 165.57 143.62 165.6C143.811 165.622 143.998 165.677 144.181 165.765C144.43 165.882 144.632 166.08 144.786 166.359C144.94 166.63 145.017 166.934 145.017 167.272C145.017 167.609 144.94 167.917 144.786 168.196C144.632 168.467 144.43 168.661 144.181 168.779C143.998 168.867 143.811 168.925 143.62 168.955C143.429 168.977 143.125 168.988 142.707 168.988H138.681L138.681 178.712C138.681 179.188 138.666 179.529 138.637 179.735C138.615 179.933 138.549 180.142 138.439 180.362C138.3 180.64 138.076 180.868 137.768 181.044C137.467 181.22 137.126 181.308 136.745 181.308C136.364 181.308 136.019 181.22 135.711 181.044C135.41 180.868 135.19 180.64 135.051 180.362C134.941 180.142 134.871 179.933 134.842 179.735C134.82 179.529 134.809 179.188 134.809 178.712ZM159.374 178.712C159.374 179.188 159.359 179.529 159.33 179.735C159.308 179.933 159.242 180.142 159.132 180.362C158.993 180.64 158.769 180.868 158.461 181.044C158.16 181.22 157.819 181.308 157.438 181.308C157.057 181.308 156.712 181.22 156.404 181.044C156.103 180.868 155.883 180.64 155.744 180.362C155.634 180.142 155.564 179.933 155.535 179.735C155.513 179.529 155.502 179.188 155.502 178.712L155.502 172.904L151.289 179.537C150.871 180.189 150.493 180.648 150.156 180.912C149.826 181.176 149.434 181.308 148.979 181.308C148.436 181.308 147.982 181.124 147.615 180.758C147.41 180.552 147.27 180.303 147.197 180.01C147.131 179.716 147.098 179.353 147.098 178.921L147.098 168.064C147.098 167.587 147.109 167.25 147.131 167.052C147.16 166.846 147.23 166.634 147.34 166.414C147.479 166.135 147.699 165.908 148 165.732C148.308 165.556 148.653 165.468 149.034 165.468C149.415 165.468 149.756 165.556 150.057 165.732C150.365 165.908 150.589 166.135 150.728 166.414C150.838 166.634 150.904 166.846 150.926 167.052C150.955 167.25 150.97 167.587 150.97 168.064L150.97 173.872L155.183 167.239C155.601 166.586 155.975 166.128 156.305 165.864C156.642 165.6 157.038 165.468 157.493 165.468C158.036 165.468 158.49 165.651 158.857 166.018C159.062 166.223 159.198 166.472 159.264 166.766C159.337 167.059 159.374 167.422 159.374 167.855L159.374 178.712ZM169.784 178.712L169.784 175.632H168.211L165.857 179.768C165.718 180.01 165.601 180.204 165.505 180.351C165.41 180.49 165.282 180.644 165.12 180.813C164.966 180.981 164.79 181.106 164.592 181.187C164.402 181.267 164.189 181.308 163.954 181.308C163.632 181.308 163.309 181.216 162.986 181.033C162.356 180.673 162.04 180.164 162.04 179.504C162.04 179.269 162.081 179.042 162.161 178.822C162.242 178.602 162.392 178.297 162.612 177.909L164.372 174.829C163.639 174.374 163.074 173.769 162.678 173.014C162.282 172.258 162.084 171.452 162.084 170.594C162.084 169.941 162.202 169.318 162.436 168.724C162.671 168.122 163.005 167.587 163.437 167.118C163.877 166.641 164.442 166.263 165.131 165.985C165.821 165.699 166.587 165.556 167.43 165.556H171.291C171.555 165.556 171.764 165.563 171.918 165.578C172.072 165.585 172.267 165.633 172.501 165.721C172.743 165.801 172.949 165.926 173.117 166.095C173.286 166.263 173.411 166.469 173.491 166.711C173.579 166.945 173.627 167.14 173.634 167.294C173.649 167.448 173.656 167.657 173.656 167.921L173.656 178.712C173.656 179.188 173.642 179.529 173.612 179.735C173.59 179.933 173.524 180.142 173.414 180.362C173.275 180.64 173.051 180.868 172.743 181.044C172.443 181.22 172.102 181.308 171.72 181.308C171.339 181.308 170.994 181.22 170.686 181.044C170.386 180.868 170.166 180.64 170.026 180.362C169.916 180.142 169.847 179.933 169.817 179.735C169.795 179.529 169.784 179.188 169.784 178.712ZM169.784 172.2L169.784 168.988H167.606C167.1 168.988 166.693 169.149 166.385 169.472C166.085 169.787 165.934 170.161 165.934 170.594C165.934 171.026 166.085 171.404 166.385 171.727C166.693 172.042 167.1 172.2 167.606 172.2H169.784ZM193.943 178.712C193.943 179.188 193.928 179.529 193.899 179.735C193.877 179.933 193.811 180.142 193.701 180.362C193.561 180.64 193.338 180.868 193.03 181.044C192.729 181.22 192.388 181.308 192.007 181.308C191.625 181.308 191.281 181.22 190.973 181.044C190.672 180.868 190.452 180.64 190.313 180.362C190.203 180.142 190.133 179.933 190.104 179.735C190.082 179.529 190.071 179.188 190.071 178.712L190.071 172.904L185.858 179.537C185.44 180.189 185.062 180.648 184.725 180.912C184.395 181.176 184.002 181.308 183.548 181.308C183.005 181.308 182.55 181.124 182.184 180.758C181.978 180.552 181.839 180.303 181.766 180.01C181.7 179.716 181.667 179.353 181.667 178.921L181.667 168.064C181.667 167.587 181.678 167.25 181.7 167.052C181.729 166.846 181.799 166.634 181.909 166.414C182.048 166.135 182.268 165.908 182.569 165.732C182.877 165.556 183.221 165.468 183.603 165.468C183.984 165.468 184.325 165.556 184.626 165.732C184.934 165.908 185.157 166.135 185.297 166.414C185.407 166.634 185.473 166.846 185.495 167.052C185.524 167.25 185.539 167.587 185.539 168.064L185.539 173.872L189.752 167.239C190.17 166.586 190.544 166.128 190.874 165.864C191.211 165.6 191.607 165.468 192.062 165.468C192.604 165.468 193.059 165.651 193.426 166.018C193.631 166.223 193.767 166.472 193.833 166.766C193.906 167.059 193.943 167.422 193.943 167.855L193.943 178.712ZM62.1789 206.712C62.1789 207.188 62.1642 207.529 62.1349 207.735C62.1129 207.933 62.0469 208.142 61.9369 208.362C61.7975 208.64 61.5739 208.868 61.2659 209.044C60.9652 209.22 60.6242 209.308 60.2429 209.308C59.8615 209.308 59.5169 209.22 59.2089 209.044C58.9082 208.868 58.6882 208.64 58.5489 208.362C58.4389 208.142 58.3692 207.933 58.3399 207.735C58.3179 207.529 58.3069 207.188 58.3069 206.712L58.3069 200.904L54.0939 207.537C53.6759 208.189 53.2982 208.648 52.9609 208.912C52.6309 209.176 52.2385 209.308 51.7839 209.308C51.2412 209.308 50.7865 209.124 50.4199 208.758C50.2145 208.552 50.0752 208.303 50.0019 208.01C49.9359 207.716 49.9029 207.353 49.9029 206.921L49.9029 196.064C49.9029 195.587 49.9139 195.25 49.9359 195.052C49.9652 194.846 50.0349 194.634 50.1449 194.414C50.2842 194.135 50.5042 193.908 50.8049 193.732C51.1129 193.556 51.4575 193.468 51.8389 193.468C52.2202 193.468 52.5612 193.556 52.8619 193.732C53.1699 193.908 53.3935 194.135 53.5329 194.414C53.6429 194.634 53.7089 194.846 53.7309 195.052C53.7602 195.25 53.7749 195.587 53.7749 196.064L53.7749 201.872L57.9879 195.239C58.4059 194.586 58.7799 194.128 59.1099 193.864C59.4472 193.6 59.8432 193.468 60.2979 193.468C60.8405 193.468 61.2952 193.651 61.6619 194.018C61.8672 194.223 62.0029 194.472 62.0689 194.766C62.1422 195.059 62.1789 195.422 62.1789 195.855L62.1789 206.712ZM65.3071 206.712L65.3071 195.822C65.3071 195.374 65.3438 195.011 65.4171 194.733C65.4978 194.447 65.6481 194.194 65.8681 193.974C66.2128 193.629 66.6455 193.457 67.1661 193.457C67.6208 193.457 67.9985 193.559 68.2991 193.765C68.6145 193.977 68.9298 194.344 69.2451 194.865L72.6331 200.64L76.0211 194.865C76.3365 194.344 76.6518 193.977 76.9671 193.765C77.2678 193.559 77.6455 193.457 78.1001 193.457C78.6208 193.457 79.0535 193.629 79.3981 193.974C79.6181 194.194 79.7648 194.447 79.8381 194.733C79.9188 195.011 79.9591 195.374 79.9591 195.822L79.9591 206.712C79.9591 207.188 79.9445 207.529 79.9151 207.735C79.8931 207.933 79.8271 208.142 79.7171 208.362C79.5778 208.64 79.3541 208.868 79.0461 209.044C78.7455 209.22 78.4045 209.308 78.0231 209.308C77.6418 209.308 77.2971 209.22 76.9891 209.044C76.6885 208.868 76.4685 208.64 76.3291 208.362C76.2191 208.142 76.1495 207.933 76.1201 207.735C76.0981 207.529 76.0871 207.188 76.0871 206.712L76.0871 201.718L74.2941 204.82C74.0741 205.201 73.8431 205.476 73.6011 205.645C73.3591 205.813 73.0365 205.898 72.6331 205.898C72.2298 205.898 71.9071 205.813 71.6651 205.645C71.4231 205.476 71.1921 205.201 70.9721 204.82L69.1791 201.718L69.1791 206.712C69.1791 207.188 69.1645 207.529 69.1351 207.735C69.1131 207.933 69.0471 208.142 68.9371 208.362C68.7978 208.64 68.5741 208.868 68.2661 209.044C67.9655 209.22 67.6245 209.308 67.2431 209.308C66.8618 209.308 66.5171 209.22 66.2091 209.044C65.9085 208.868 65.6885 208.64 65.5491 208.362C65.4391 208.142 65.3695 207.933 65.3401 207.735C65.3181 207.529 65.3071 207.188 65.3071 206.712ZM91.0387 206.712L91.0387 196.988H86.9467L86.9467 206.712C86.9467 207.188 86.9321 207.529 86.9027 207.735C86.8807 207.933 86.8147 208.142 86.7047 208.362C86.5654 208.64 86.3417 208.868 86.0337 209.044C85.7331 209.22 85.3921 209.308 85.0107 209.308C84.6294 209.308 84.2847 209.22 83.9767 209.044C83.6761 208.868 83.4561 208.64 83.3167 208.362C83.2067 208.142 83.1371 207.933 83.1077 207.735C83.0857 207.529 83.0747 207.188 83.0747 206.712L83.0747 195.921C83.0747 195.657 83.0784 195.448 83.0857 195.294C83.1004 195.14 83.1481 194.945 83.2287 194.711C83.3167 194.469 83.4451 194.263 83.6137 194.095C83.7824 193.926 83.9841 193.801 84.2187 193.721C84.4607 193.633 84.6587 193.585 84.8127 193.578C84.9667 193.563 85.1757 193.556 85.4397 193.556H92.5457C92.8097 193.556 93.0187 193.563 93.1727 193.578C93.3267 193.585 93.5211 193.633 93.7557 193.721C93.9977 193.801 94.2031 193.926 94.3717 194.095C94.5404 194.263 94.6651 194.469 94.7457 194.711C94.8337 194.945 94.8814 195.14 94.8887 195.294C94.9034 195.448 94.9107 195.657 94.9107 195.921L94.9107 206.712C94.9107 207.188 94.8961 207.529 94.8667 207.735C94.8447 207.933 94.7787 208.142 94.6687 208.362C94.5294 208.64 94.3057 208.868 93.9977 209.044C93.6971 209.22 93.3561 209.308 92.9747 209.308C92.5934 209.308 92.2487 209.22 91.9407 209.044C91.6401 208.868 91.4201 208.64 91.2807 208.362C91.1707 208.142 91.1011 207.933 91.0717 207.735C91.0497 207.529 91.0387 207.188 91.0387 206.712ZM107.224 206.712L107.224 196.988H104.496L104.496 201.08C104.496 202.385 104.426 203.507 104.287 204.446C104.155 205.384 103.961 206.162 103.704 206.778C103.455 207.394 103.117 207.881 102.692 208.241C102.274 208.6 101.808 208.853 101.295 209C100.782 209.146 100.169 209.22 99.4579 209.22C98.9665 209.22 98.6182 209.209 98.4129 209.187C98.2075 209.157 98.0132 209.099 97.8299 209.011C97.5879 208.893 97.3862 208.695 97.2249 208.417C97.0709 208.138 96.9939 207.83 96.9939 207.493C96.9939 206.979 97.1552 206.561 97.4779 206.239C97.7639 205.953 98.1855 205.799 98.7429 205.777C99.0215 205.762 99.2672 205.7 99.4799 205.59C99.6925 205.472 99.8685 205.333 100.008 205.172C100.155 205.003 100.276 204.779 100.371 204.501C100.474 204.222 100.551 203.962 100.602 203.72C100.653 203.478 100.694 203.166 100.723 202.785C100.752 202.403 100.767 202.081 100.767 201.817C100.774 201.553 100.778 201.212 100.778 200.794L100.778 195.921C100.778 195.657 100.782 195.448 100.789 195.294C100.804 195.14 100.851 194.945 100.932 194.711C101.02 194.469 101.148 194.263 101.317 194.095C101.486 193.926 101.687 193.801 101.922 193.721C102.164 193.633 102.362 193.585 102.516 193.578C102.67 193.563 102.879 193.556 103.143 193.556H108.731C108.995 193.556 109.204 193.563 109.358 193.578C109.512 193.585 109.706 193.633 109.941 193.721C110.183 193.801 110.388 193.926 110.557 194.095C110.726 194.263 110.85 194.469 110.931 194.711C111.019 194.945 111.067 195.14 111.074 195.294C111.089 195.448 111.096 195.657 111.096 195.921L111.096 206.712C111.096 207.188 111.081 207.529 111.052 207.735C111.03 207.933 110.964 208.142 110.854 208.362C110.715 208.64 110.491 208.868 110.183 209.044C109.882 209.22 109.541 209.308 109.16 209.308C108.779 209.308 108.434 209.22 108.126 209.044C107.825 208.868 107.605 208.64 107.466 208.362C107.356 208.142 107.286 207.933 107.257 207.735C107.235 207.529 107.224 207.188 107.224 206.712ZM113.435 206.272L117.615 195.173C117.85 194.557 118.117 194.131 118.418 193.897C118.777 193.611 119.232 193.468 119.782 193.468C120.332 193.468 120.787 193.611 121.146 193.897C121.447 194.131 121.714 194.557 121.949 195.173L126.129 206.272C126.276 206.668 126.375 206.979 126.426 207.207C126.485 207.427 126.485 207.68 126.426 207.966C126.375 208.244 126.232 208.501 125.997 208.736C125.616 209.117 125.154 209.308 124.611 209.308C124.171 209.308 123.808 209.176 123.522 208.912C123.361 208.765 123.229 208.6 123.126 208.417C123.031 208.233 122.91 207.936 122.763 207.526L122.532 206.888H117.032L116.801 207.526C116.654 207.936 116.53 208.233 116.427 208.417C116.332 208.6 116.203 208.765 116.042 208.912C115.756 209.176 115.393 209.308 114.953 209.308C114.41 209.308 113.948 209.117 113.567 208.736C113.332 208.501 113.186 208.244 113.127 207.966C113.076 207.68 113.076 207.427 113.127 207.207C113.186 206.979 113.288 206.668 113.435 206.272ZM121.366 203.676L119.782 199.32L118.198 203.676H121.366ZM140.307 206.712C140.307 207.188 140.293 207.529 140.263 207.735C140.241 207.933 140.175 208.142 140.065 208.362C139.926 208.64 139.702 208.868 139.394 209.044C139.094 209.22 138.753 209.308 138.371 209.308C137.99 209.308 137.645 209.22 137.337 209.044C137.037 208.868 136.817 208.64 136.677 208.362C136.567 208.142 136.498 207.933 136.468 207.735C136.446 207.529 136.435 207.188 136.435 206.712L136.435 203.016H132.343L132.343 206.712C132.343 207.188 132.329 207.529 132.299 207.735C132.277 207.933 132.211 208.142 132.101 208.362C131.962 208.64 131.738 208.868 131.43 209.044C131.13 209.22 130.789 209.308 130.407 209.308C130.026 209.308 129.681 209.22 129.373 209.044C129.073 208.868 128.853 208.64 128.713 208.362C128.603 208.142 128.534 207.933 128.504 207.735C128.482 207.529 128.471 207.188 128.471 206.712L128.471 196.064C128.471 195.587 128.482 195.25 128.504 195.052C128.534 194.846 128.603 194.634 128.713 194.414C128.853 194.135 129.073 193.908 129.373 193.732C129.681 193.556 130.026 193.468 130.407 193.468C130.789 193.468 131.13 193.556 131.43 193.732C131.738 193.908 131.962 194.135 132.101 194.414C132.211 194.634 132.277 194.846 132.299 195.052C132.329 195.25 132.343 195.587 132.343 196.064L132.343 199.584H136.435L136.435 196.064C136.435 195.587 136.446 195.25 136.468 195.052C136.498 194.846 136.567 194.634 136.677 194.414C136.817 194.135 137.037 193.908 137.337 193.732C137.645 193.556 137.99 193.468 138.371 193.468C138.753 193.468 139.094 193.556 139.394 193.732C139.702 193.908 139.926 194.135 140.065 194.414C140.175 194.634 140.241 194.846 140.263 195.052C140.293 195.25 140.307 195.587 140.307 196.064L140.307 206.712ZM146.317 206.712L146.317 196.988H144.7C144.282 196.988 143.978 196.977 143.787 196.955C143.597 196.925 143.41 196.867 143.226 196.779C142.977 196.661 142.775 196.467 142.621 196.196C142.467 195.917 142.39 195.609 142.39 195.272C142.39 194.934 142.467 194.63 142.621 194.359C142.775 194.08 142.977 193.882 143.226 193.765C143.41 193.677 143.597 193.622 143.787 193.6C143.978 193.57 144.282 193.556 144.7 193.556H151.806C152.224 193.556 152.529 193.57 152.719 193.6C152.91 193.622 153.097 193.677 153.28 193.765C153.53 193.882 153.731 194.08 153.885 194.359C154.039 194.63 154.116 194.934 154.116 195.272C154.116 195.609 154.039 195.917 153.885 196.196C153.731 196.467 153.53 196.661 153.28 196.779C153.097 196.867 152.91 196.925 152.719 196.955C152.529 196.977 152.224 196.988 151.806 196.988H150.189L150.189 206.712C150.189 207.188 150.175 207.529 150.145 207.735C150.123 207.933 150.057 208.142 149.947 208.362C149.808 208.64 149.584 208.868 149.276 209.044C148.976 209.22 148.635 209.308 148.253 209.308C147.872 209.308 147.527 209.22 147.219 209.044C146.919 208.868 146.699 208.64 146.559 208.362C146.449 208.142 146.38 207.933 146.35 207.735C146.328 207.529 146.317 207.188 146.317 206.712ZM153.869 206.272L158.049 195.173C158.283 194.557 158.551 194.131 158.852 193.897C159.211 193.611 159.666 193.468 160.216 193.468C160.766 193.468 161.22 193.611 161.58 193.897C161.88 194.131 162.148 194.557 162.383 195.173L166.563 206.272C166.709 206.668 166.808 206.979 166.86 207.207C166.918 207.427 166.918 207.68 166.86 207.966C166.808 208.244 166.665 208.501 166.431 208.736C166.049 209.117 165.587 209.308 165.045 209.308C164.605 209.308 164.242 209.176 163.956 208.912C163.794 208.765 163.662 208.6 163.56 208.417C163.464 208.233 163.343 207.936 163.197 207.526L162.966 206.888H157.466L157.235 207.526C157.088 207.936 156.963 208.233 156.861 208.417C156.765 208.6 156.637 208.765 156.476 208.912C156.19 209.176 155.827 209.308 155.387 209.308C154.844 209.308 154.382 209.117 154.001 208.736C153.766 208.501 153.619 208.244 153.561 207.966C153.509 207.68 153.509 207.427 153.561 207.207C153.619 206.979 153.722 206.668 153.869 206.272ZM161.8 203.676L160.216 199.32L158.632 203.676H161.8ZM168.905 206.855L168.905 196.064C168.905 195.587 168.916 195.25 168.938 195.052C168.967 194.846 169.037 194.634 169.147 194.414C169.286 194.135 169.506 193.908 169.807 193.732C170.115 193.556 170.459 193.468 170.841 193.468C171.222 193.468 171.563 193.556 171.864 193.732C172.172 193.908 172.395 194.135 172.535 194.414C172.645 194.634 172.711 194.846 172.733 195.052C172.762 195.25 172.777 195.587 172.777 196.064L172.777 205.788H176.869L176.869 196.064C176.869 195.587 176.88 195.25 176.902 195.052C176.931 194.846 177.001 194.634 177.111 194.414C177.25 194.135 177.47 193.908 177.771 193.732C178.079 193.556 178.423 193.468 178.805 193.468C179.186 193.468 179.527 193.556 179.828 193.732C180.136 193.908 180.359 194.135 180.499 194.414C180.609 194.634 180.675 194.846 180.697 195.052C180.726 195.25 180.741 195.587 180.741 196.064L180.741 205.788C181.1 205.788 181.419 205.868 181.698 206.03C181.984 206.191 182.193 206.404 182.325 206.668C182.42 206.858 182.479 207.053 182.501 207.251C182.53 207.449 182.545 207.775 182.545 208.23L182.545 210.034C182.545 210.488 182.53 210.815 182.501 211.013C182.479 211.211 182.42 211.405 182.325 211.596C182.193 211.86 181.984 212.072 181.698 212.234C181.419 212.395 181.1 212.476 180.741 212.476C180.381 212.476 180.059 212.395 179.773 212.234C179.494 212.072 179.289 211.86 179.157 211.596C179.061 211.405 178.999 211.211 178.97 211.013C178.948 210.815 178.937 210.488 178.937 210.034L178.937 209.22H171.27C171.006 209.22 170.797 209.216 170.643 209.209C170.489 209.194 170.291 209.146 170.049 209.066C169.814 208.978 169.612 208.849 169.444 208.681C169.275 208.512 169.147 208.31 169.059 208.076C168.978 207.834 168.93 207.636 168.916 207.482C168.908 207.328 168.905 207.119 168.905 206.855ZM196.907 206.712C196.907 207.188 196.893 207.529 196.863 207.735C196.841 207.933 196.775 208.142 196.665 208.362C196.526 208.64 196.302 208.868 195.994 209.044C195.694 209.22 195.353 209.308 194.971 209.308C194.59 209.308 194.245 209.22 193.937 209.044C193.637 208.868 193.417 208.64 193.277 208.362C193.167 208.142 193.098 207.933 193.068 207.735C193.046 207.529 193.035 207.188 193.035 206.712L193.035 200.904L188.822 207.537C188.404 208.189 188.027 208.648 187.689 208.912C187.359 209.176 186.967 209.308 186.512 209.308C185.97 209.308 185.515 209.124 185.148 208.758C184.943 208.552 184.804 208.303 184.73 208.01C184.664 207.716 184.631 207.353 184.631 206.921L184.631 196.064C184.631 195.587 184.642 195.25 184.664 195.052C184.694 194.846 184.763 194.634 184.873 194.414C185.013 194.135 185.233 193.908 185.533 193.732C185.841 193.556 186.186 193.468 186.567 193.468C186.949 193.468 187.29 193.556 187.59 193.732C187.898 193.908 188.122 194.135 188.261 194.414C188.371 194.634 188.437 194.846 188.459 195.052C188.489 195.25 188.503 195.587 188.503 196.064L188.503 201.872L192.716 195.239C193.134 194.586 193.508 194.128 193.838 193.864C194.176 193.6 194.572 193.468 195.026 193.468C195.569 193.468 196.024 193.651 196.39 194.018C196.596 194.223 196.731 194.472 196.797 194.766C196.871 195.059 196.907 195.422 196.907 195.855L196.907 206.712ZM207.318 206.712L207.318 203.632H205.745L203.391 207.768C203.251 208.01 203.134 208.204 203.039 208.351C202.943 208.49 202.815 208.644 202.654 208.813C202.5 208.981 202.324 209.106 202.126 209.187C201.935 209.267 201.722 209.308 201.488 209.308C201.165 209.308 200.842 209.216 200.52 209.033C199.889 208.673 199.574 208.164 199.574 207.504C199.574 207.269 199.614 207.042 199.695 206.822C199.775 206.602 199.926 206.297 200.146 205.909L201.906 202.829C201.172 202.374 200.608 201.769 200.212 201.014C199.816 200.258 199.618 199.452 199.618 198.594C199.618 197.941 199.735 197.318 199.97 196.724C200.204 196.122 200.538 195.587 200.971 195.118C201.411 194.641 201.975 194.263 202.665 193.985C203.354 193.699 204.12 193.556 204.964 193.556H208.825C209.089 193.556 209.298 193.563 209.452 193.578C209.606 193.585 209.8 193.633 210.035 193.721C210.277 193.801 210.482 193.926 210.651 194.095C210.819 194.263 210.944 194.469 211.025 194.711C211.113 194.945 211.16 195.14 211.168 195.294C211.182 195.448 211.19 195.657 211.19 195.921L211.19 206.712C211.19 207.188 211.175 207.529 211.146 207.735C211.124 207.933 211.058 208.142 210.948 208.362C210.808 208.64 210.585 208.868 210.277 209.044C209.976 209.22 209.635 209.308 209.254 209.308C208.872 209.308 208.528 209.22 208.22 209.044C207.919 208.868 207.699 208.64 207.56 208.362C207.45 208.142 207.38 207.933 207.351 207.735C207.329 207.529 207.318 207.188 207.318 206.712ZM207.318 200.2L207.318 196.988H205.14C204.634 196.988 204.227 197.149 203.919 197.472C203.618 197.787 203.468 198.161 203.468 198.594C203.468 199.026 203.618 199.404 203.919 199.727C204.227 200.042 204.634 200.2 205.14 200.2H207.318Z" fill="white"/>
<g clip-path="url(#clip0_244_48)">
<path fill-rule="evenodd" clip-rule="evenodd" d="M131.462 155.905C131.94 155.306 132.445 155.438 132.731 154.24L131.892 153.919C132.235 151.682 134 153.465 133.859 151.559L132.757 151.392C132.775 149.745 133.407 150.211 134.571 149.864L134.716 148.987C134.272 148.741 134.483 148.904 134.061 148.78C133.833 148.71 133.965 148.78 133.723 148.661C133.095 148.358 133.271 147.455 134.355 147.323C135.199 147.222 135.51 147.164 135.273 146.24C134.869 146.094 134.377 146.112 133.991 145.905C133.881 145.535 133.952 145.178 134.048 144.8L135.734 144.5L135.783 143.54L134.329 143.285C134.044 141.643 134.961 142.145 136.165 141.858L136.05 140.907L134.382 140.665L134.47 139.428L136.103 139.207L136.072 138.305C135.44 137.917 135.128 138.19 134.43 137.935C134.202 136.482 134.759 136.733 136.107 136.588L136.103 135.54L134.478 135.284C134.355 134.861 134.355 134.496 134.5 134.034L136.006 134.007L136.143 132.845C137.895 132.655 138.821 132.765 138.984 130.903C139.212 128.261 138.984 119.85 138.988 116.799C138.992 114.395 139.409 109.666 139.023 107.6C138.733 106.068 137.728 105.844 136.099 105.804C134.575 105.769 133.012 105.804 131.484 105.804C129.929 105.804 128.371 105.808 126.816 105.808C122.188 105.813 122.961 106.055 123 116.359L123.031 130.758C123.207 132.598 124.024 132.598 125.736 132.854L126.052 133.981L127.637 134.1L127.624 135.333L125.929 135.522L126 136.632C127.343 136.746 127.971 136.394 127.602 137.939C126.623 138.256 125.675 137.79 125.969 139.181C126.693 139.489 128.265 139.058 127.651 140.432C127.26 141.308 125.701 140.005 125.973 141.797C126.68 142.167 128.063 141.775 127.822 142.928C127.743 143.298 127.646 143.289 127.506 143.36C127.299 143.461 126.614 143.47 126.338 143.496C125.644 145.707 128.739 143.58 128.059 145.949C127.198 146.389 126.364 145.632 126.86 147.142C127.453 147.415 128.445 147.296 128.66 147.825C129.082 148.86 127.914 148.688 127.383 148.877C127.295 151.074 129.381 148.912 129.271 151.378L128.177 151.554C128.243 153.62 129.947 151.62 130.136 153.862L129.319 154.254C129.675 155.297 130.25 155.839 131.471 155.9L131.462 155.905ZM130.759 61.392C123.765 61.0661 120.568 54.7121 111.773 57.5126C106.306 59.2519 102.372 64.4611 100.26 70.2559C97.6603 77.3804 97.8228 84.0074 98.4068 92.0479C98.9293 99.2385 100.071 106.839 101.406 113.563C102.534 119.252 103.711 124.531 105.384 129.771H105.38C105.595 131.515 106.583 132.237 109.555 132.259C111.391 132.272 113.231 132.259 115.066 132.259C123.097 132.259 122.1 132.567 122.034 117.235C122.026 115.368 121.771 107.737 122.232 106.544C122.785 105.113 124.067 104.707 125.938 104.734C127.791 104.756 129.626 104.738 131.479 104.729C137.28 104.699 139.985 103.809 140.112 108.653C140.266 114.47 140.073 121.475 140.09 127.556C140.099 130.837 140.911 132.074 142.9 132.228C144.226 132.33 145.596 132.294 148.121 132.237C149.983 132.211 151.968 132.237 153.474 132.167C154.65 132.114 155.432 131.299 155.757 129.745C159.362 118.613 161.615 103.391 162.594 92.5455C163.279 84.9585 163.547 77.6446 160.846 70.2514C158.73 64.4567 154.8 59.2475 149.333 57.5082C146.387 56.5703 144.068 56.6584 142.026 57.2044C138.083 58.0366 136.388 60.5289 130.768 61.3876L130.759 61.392ZM108.611 129.771C105.195 119.014 102.943 103.981 102.253 99.0228C100.835 88.8379 99.6933 75.8172 105.371 66.7992C107.364 63.6333 111.492 59.0802 117.411 60.0533C122.219 60.8459 125.903 65.0731 131.765 64.395C132.827 64.2717 133.758 64.0472 134.781 63.6773C138.795 62.2462 142.312 59.3004 146.83 60.0401C151.081 60.7359 154.11 64.2233 155.731 66.7992C158.049 70.476 159.23 74.8221 159.718 79.3663C159.722 79.9916 159.836 80.6917 159.876 81.2818C160.144 85.2888 159.665 91.6736 159.217 95.6102C158.602 101.035 156.174 118.045 152.468 129.745H148.178C146.229 129.793 144.31 129.798 142.843 129.613C142.457 128.124 142.624 113.074 142.663 110.401C142.799 101.519 139.15 102.109 131.295 102.154C128.797 102.167 124.177 101.832 122.294 102.832C119.813 104.148 119.417 106.266 119.426 109.824C119.439 113.43 119.685 126.909 119.347 129.392C118.82 129.705 116.252 129.789 113.648 129.776H108.607L108.611 129.771ZM116.432 63.2017C114.258 63.7609 112.8 64.2189 111.167 65.4915C109.656 66.6715 108.642 67.6711 107.579 69.384C106.622 70.9296 105.885 72.8714 105.652 74.9146C105.16 79.2034 108.357 78.4989 108.589 76.4954C108.914 73.7125 109.002 72.7481 110.337 70.6918C111.22 69.3356 112.761 67.8957 114.262 67.1119C117.345 65.4959 119.167 66.3501 120.16 65.5355C120.981 64.8662 121.503 61.8939 116.432 63.1973V63.2017Z" fill="white"/>
</g>
<path d="M130.827 1.26339L130.551 1.10397L130.275 1.26339L65.5506 38.693L65.8262 39.1697L65.5504 38.6931L0.825834 76.1502L0.550968 76.3092L0.550968 76.6268L0.550971 151.486L0.550974 226.373L0.550974 226.69L0.82584 226.849L65.5504 264.306L65.5506 264.306L130.275 301.736L130.551 301.895L130.827 301.736L195.551 264.306L195.551 264.306L260.276 226.849L260.551 226.69L260.551 226.373L260.551 151.486L260.551 76.6268L260.551 76.3092L260.276 76.1502L195.551 38.6931L195.275 39.1697L195.551 38.693L130.827 1.26339Z" stroke="#024FA2" stroke-width="1.10141"/>
<defs>
<clipPath id="clip0_244_48">
<rect width="65" height="99.1056" fill="white" transform="translate(98.0508 56.7988)"/>
</clipPath>
</defs>
</svg>
