<svg width="132" height="152" viewBox="0 0 132 152" fill="none" xmlns="http://www.w3.org/2000/svg">
<path fill-rule="evenodd" clip-rule="evenodd" d="M65.9996 0L132 37.9874V114.012L65.9996 152L0 114.012V37.9874L65.9996 0Z" fill="#9D9E9E"/>
<path fill-rule="evenodd" clip-rule="evenodd" d="M65.9995 3.44917L97.5124 21.5868L129.024 39.7244V75.9997V112.275L97.5124 130.413L65.9995 148.55L34.4876 130.413L2.97559 112.275V75.9997V39.7244L34.4876 21.5868L65.9995 3.44917Z" fill="#024FA2"/>
<path fill-rule="evenodd" clip-rule="evenodd" d="M76.9501 75.7559C74.9997 71.9278 72.7258 72.3809 68.5784 72.2539C64.7261 72.1371 65.3534 73.828 59.8836 72.3858C57.33 71.7117 53.9523 74.2331 53.1307 76.3665C51.8753 79.6276 52.4107 78.0139 52.16 81.5298C51.8664 85.6587 51.5294 88.6637 53.0678 92.6269C53.33 93.3027 57.4231 111.355 59.6741 107.992C62.338 104.011 61.2835 98.8034 64.3598 93.472C66.0199 90.5949 66.3797 92.4315 67.3291 94.7266C68.1532 96.7192 67.8551 98.4444 69.3988 101.425C69.6103 101.832 70.9208 107.113 71.5322 107.47C71.8295 109.349 73.6288 106.651 74.049 105.415C75.0969 102.335 77.5651 96.9793 77.9465 93.7505C78.2834 90.9002 79.1002 89.3 79.1002 85.8065C79.1002 84.4615 77.1216 76.0922 76.9501 75.7559Z" fill="#FEFEFE"/>
<path fill-rule="evenodd" clip-rule="evenodd" d="M93.6478 86.9441L93.6668 102.773L76.5689 102.79L78.1704 95.8059C78.3303 94.9408 79.235 88.4996 79.2968 88.3839C79.732 87.5704 84.5936 86.6974 85.9491 86.5194C87.6154 86.3 92.4019 86.1954 93.6478 86.9445V86.9441ZM68.2091 102.787L62.3819 102.771C62.3778 101.978 63.9204 93.6459 65.2549 93.6736C66.6615 93.7025 68.2149 101.085 68.2091 102.787ZM36.3357 86.8792C38.2744 86.2281 42.1954 86.2673 44.2437 86.5442C47.01 86.9181 48.9293 87.4981 51.1796 88.4137C51.3321 90.8224 51.778 93.4274 52.2075 95.7613L53.7682 102.771L36.3559 102.77L36.3352 86.8788L36.3357 86.8792ZM71.4868 107.931L70.848 105.834C69.7946 101.347 69.1636 91.9388 65.2273 91.7301C63.7741 91.6537 62.8492 93.3191 62.4041 94.4152C60.885 98.1539 60.343 105.188 58.8956 107.931C55.8656 107.223 53.678 93.496 53.2357 90.4894C52.491 85.422 51.8044 78.2959 55.6694 74.4333C59.0011 71.1032 61.7472 74.9303 65.4189 74.9303C66.5923 74.9303 67.4965 74.4713 68.3521 74.0689C70.529 73.045 72.4854 72.4299 74.5593 74.2833C79.7267 78.9007 77.1829 91.0104 76.0253 96.8161C75.6523 98.6848 73.8117 107.387 71.4868 107.93V107.931ZM50.704 82.382L50.8556 86.0318C49.4898 85.7129 49.0365 85.3448 46.8237 84.9031C45.183 84.5755 44.0875 84.4098 42.2 84.3606C41.7507 84.349 41.4771 84.2834 41.2059 84.266C40.8815 84.2449 40.7439 84.3139 40.2382 84.3478C39.235 84.4147 38.7067 84.3945 37.8173 84.5189C37.1109 84.6176 36.3365 84.723 35.628 84.9093C34.8713 85.1076 34.3203 85.2915 34.3203 86.1835V103.672C34.3203 105.352 36.7837 104.889 38.4161 104.889H54.4965C55.3109 106.589 56.518 109.907 59.0473 109.907C60.008 109.907 60.7506 108.738 61.0663 107.977C61.3532 107.288 61.8642 105.678 61.9294 104.889L67.4017 104.889C68.3327 104.863 68.4267 104.602 68.6373 105.149C68.8409 105.679 68.8157 106.554 69.4245 108.02C71.0314 111.889 73.8611 109.114 75.1791 106.461C75.2616 106.296 75.9943 104.573 76.1093 104.876L76.3834 104.86C76.5347 104.862 76.7613 104.881 76.9328 104.885C81.2466 105.003 87.0672 104.888 91.5105 104.888C92.364 104.888 93.2497 104.913 94.0983 104.897C94.6209 104.888 94.8644 104.871 95.2098 104.643C95.4575 104.479 95.7579 104.15 95.7579 103.824V86.0306C95.7579 84.5846 91.3151 84.3986 89.9864 84.3532C87.819 84.2784 85.5135 84.3949 83.48 84.8234C81.6542 85.2084 80.8501 85.5695 79.5264 85.879L79.678 82.6853C79.678 77.803 77.326 72.5728 73.5178 71.3722C71.3549 70.69 69.9166 71.178 67.9997 72.0427C65.3633 73.2314 65.0975 73.3115 62.4857 72.0898C61.6437 71.6961 60.8318 71.3391 59.9169 71.166C57.6811 70.7429 56.1182 71.5407 54.7318 72.5807C52.1304 74.5324 50.7036 79.1309 50.7036 82.3812L50.704 82.382Z" fill="#010101"/>
<path fill-rule="evenodd" clip-rule="evenodd" d="M64.6085 67.064C65.9793 66.3356 66.5909 68.4444 65.4831 68.9468C64.8014 69.2563 64.2018 68.9018 64.0221 68.418C63.7055 67.5668 64.1774 67.2933 64.6085 67.064ZM72.0418 50.5542C76.352 50.5927 80.6757 50.5609 84.9871 50.5609C87.2122 50.5609 96.3674 50.2733 97.8181 50.6522L97.7847 52.6746L72.0587 52.6779L72.0418 50.5542ZM59.9044 47.4746L70.0648 47.4775C70.3661 48.3971 70.1749 53.6294 70.1794 55.0085C70.1885 57.6482 69.3188 59.0851 67.7519 60.0854C63.626 62.7189 58.8609 58.4538 59.9118 54.661C62.5178 54.3185 65.9908 55.3386 65.9686 53.6471C65.9476 52.0581 62.5281 52.863 59.8269 52.6518L59.9048 47.475L59.9044 47.4746ZM57.833 46.34V56.2248C57.833 59.2326 60.9784 62.7643 63.9013 62.7643C63.9013 66.3683 63.8547 64.4868 62.6575 65.9274C60.9475 67.9845 62.4156 71.1279 64.963 71.1279C67.4424 71.1279 69.203 68.0891 67.4317 66.0679C65.9439 64.3711 66.0246 66.253 66.0246 63.2204C66.0246 62.2301 67.3319 63.4811 70.2358 60.5981C71.8733 58.9732 72.2442 57.2032 72.2442 54.704H98.9432C100.272 54.704 99.8532 51.3384 99.8532 49.6858C99.8532 48.7793 99.2412 48.469 98.3362 48.469H72.2442C72.2442 47.0469 72.5512 45.4278 71.0309 45.4278H58.7434C58.3779 45.4278 57.833 45.974 57.833 46.34Z" fill="#010101"/>
<path fill-rule="evenodd" clip-rule="evenodd" d="M36.3561 102.771L53.7685 102.771L52.2077 95.7618C51.7783 93.4279 51.3319 90.8225 51.1799 88.4142C48.9296 87.4982 47.0103 86.9186 44.244 86.5446C42.1957 86.2678 38.2746 86.2286 36.3359 86.8797L36.3565 102.771L36.3561 102.771Z" fill="white"/>
<path fill-rule="evenodd" clip-rule="evenodd" d="M93.6483 86.9442C92.4024 86.1951 87.6158 86.2997 85.9496 86.5191C84.594 86.6971 79.7325 87.5701 79.2973 88.3836C79.2355 88.4993 78.3308 94.94 78.1709 95.8056L76.5693 102.789L93.6672 102.773L93.6483 86.9438V86.9442Z" fill="white"/>
<path fill-rule="evenodd" clip-rule="evenodd" d="M59.8273 52.6524C62.5285 52.8635 65.948 52.0591 65.969 53.6477C65.9908 55.3391 62.5182 54.319 59.9122 54.6615C58.8613 58.4547 63.6264 62.7194 67.7523 60.0859C69.3193 59.0852 70.1889 57.6487 70.1798 55.009C70.1753 53.6299 70.3665 48.3977 70.0652 47.478L59.9048 47.4751L59.8269 52.6519L59.8273 52.6524Z" fill="#B3B3B3"/>
<path fill-rule="evenodd" clip-rule="evenodd" d="M72.0589 52.6786L97.7849 52.6753L97.8183 50.6523C96.3675 50.2737 87.2123 50.561 84.9872 50.561C80.6754 50.561 76.3521 50.5932 72.042 50.5544L72.0589 52.6786Z" fill="#575556"/>
<path fill-rule="evenodd" clip-rule="evenodd" d="M68.209 102.787C68.2152 101.085 66.6615 93.7023 65.2548 93.6733C63.9203 93.6457 62.3777 101.977 62.3818 102.771L68.209 102.787Z" fill="white"/>
<path fill-rule="evenodd" clip-rule="evenodd" d="M54.9509 81.1652C55.3606 81.1652 55.3688 81.0925 55.7097 81.0132C56.1276 80.1393 55.9083 79.4345 56.3617 78.4731C56.7074 77.7389 57.2379 77.0873 57.929 76.699C58.2925 76.4949 58.7059 76.3635 59.1613 76.2614C59.5046 76.1842 61.3638 76.2263 61.0872 74.9922C60.6063 72.8421 54.9653 74.8199 54.1229 78.816C53.8971 79.8886 53.7269 81.166 54.9509 81.166V81.1652Z" fill="#010101"/>
<path fill-rule="evenodd" clip-rule="evenodd" d="M64.6088 67.0641C64.1777 67.2935 63.7058 67.5671 64.0223 68.4185C64.202 68.9024 64.8017 69.257 65.4833 68.9475C66.5912 68.4449 65.9791 66.3355 64.6088 67.0641Z" fill="#B3B3B3"/>
</svg>
