<svg width="69" height="90" viewBox="0 0 69 90" fill="none" xmlns="http://www.w3.org/2000/svg">
<path fill-rule="evenodd" clip-rule="evenodd" d="M34.1098 22.1973C36.0131 21.2324 36.7358 24.1462 38.3568 26.9189C39.2005 28.3619 43.4415 29.4661 44.0258 30.6328C44.8239 32.227 43.1527 32.7705 42.2213 33.2949C41.2295 33.8529 40.2163 34.3584 39.1819 34.9475C37.6171 35.8388 36.7691 39.9329 35.4776 40.5882C33.6011 41.5403 32.6775 38.3753 31.1914 35.8104C30.3304 34.3242 26.1602 33.2159 25.5446 32.1123C24.6681 30.5412 26.3904 29.9214 27.2722 29.4342C31.2818 27.2185 30.3996 28.2434 32.2045 25.0231C32.9143 23.757 33.2796 22.6182 34.1098 22.1974V22.1973ZM18.4158 12.2054C23.2333 10.9699 22.736 13.7839 21.9572 14.4194C21.0134 15.1897 19.2812 14.3785 16.3525 15.9104C14.9277 16.6558 13.4631 18.0176 12.6235 19.3027C11.3517 21.2497 11.2699 22.1613 10.9613 24.7983C10.7395 26.6939 7.70451 27.3629 8.17102 23.3C8.39313 21.3653 9.09526 19.5234 10.0042 18.0609C11.0144 16.4361 11.9743 15.4904 13.4113 14.3733C14.9631 13.1669 16.3501 12.7352 18.4157 12.2053L18.4158 12.2054ZM60.8194 25.916C60.6304 24.7015 60.0439 23.4804 59.5206 22.405C59.288 21.927 59.2227 21.6432 58.7858 21.3366L55.3002 27.6675C54.895 28.4409 54.3719 29.1639 53.0436 28.7081C52.2672 28.4418 50.9917 25.6508 50.4207 24.5837C47.6492 19.4044 48.9527 20.5227 43.6953 17.7844C42.7684 17.3017 39.7743 15.7357 39.4607 15.2595C38.199 13.3453 41.089 12.3876 42.3061 11.7409C43.1474 11.294 46.1899 9.87073 46.6458 9.16192C40.8763 8.97331 38.2277 12.7333 32.9831 13.3363C27.4162 13.9764 23.9142 9.97179 19.3451 9.22335C13.7231 8.30235 9.80071 12.6152 7.90595 15.6141C2.50869 24.1563 3.59638 36.4877 4.94263 46.1325C6.0098 53.7771 11.0113 86.7162 18.3185 86.2886C22.9735 79.7367 22.8963 51.201 31.8205 51.1227C41.5042 51.0375 41.0659 78.752 45.3279 86.2962C52.8834 86.8211 58.1411 51.0479 59.0705 42.9021C59.4959 39.1727 59.9501 33.1268 59.6971 29.3304C59.6038 27.9301 59.0603 25.8638 60.8193 25.9161L60.8194 25.916Z" fill="white"/>
<path fill-rule="evenodd" clip-rule="evenodd" d="M43.9436 14.4612C44.7014 13.4972 49.1409 11.7834 50.109 10.8719C51.1073 9.93189 52.4917 6.19655 53.6546 4.71813L55.4652 7.74938C57.5849 11.7596 56.9985 10.8387 61.8854 13.4573L63.1179 14.1442C63.3762 14.3379 63.2691 14.2527 63.4053 14.4124C62.1122 15.4687 58.0602 17.0443 57.208 17.9636C56.2756 18.9701 54.5043 23.4329 53.6546 24.0619C52.6554 22.7606 51.1041 18.8549 50.1525 17.9122C49.7237 17.4876 44.9133 14.9419 43.9437 14.461L43.9436 14.4612ZM32.0316 10.492C25.3835 10.1845 22.3495 4.1662 13.989 6.81679C8.79411 8.4638 5.05777 13.3965 3.0489 18.884C0.579254 25.6296 0.734165 31.9078 1.29019 39.5232C1.78756 46.3317 2.87321 53.5333 4.14054 59.901C5.42292 66.3455 6.76905 72.2407 8.91779 78.1752C9.9759 81.0973 11.1799 83.5144 12.72 85.8088C13.8286 87.4607 17.2582 90.9307 20.198 88.5322C25.3294 84.3453 26.2332 54.5716 31.9825 54.0367C35.2202 54.8069 36.5982 61.5432 37.378 64.9824C38.4187 69.5719 39.0454 74.17 39.9796 78.8241C40.7203 82.5138 41.6513 89.5647 45.8621 89.2939C49.6068 89.0533 52.2969 83.91 53.7411 80.6433C58.3676 70.1785 61.171 52.1741 62.274 40.0002C62.6195 36.1857 62.8898 32.0623 62.5655 28.172C62.4393 26.6587 62.3704 25.9307 60.8198 25.9151C59.0607 25.8629 59.6043 27.9292 59.6977 29.3294C59.9506 33.1256 59.4965 39.1716 59.071 42.901C58.1417 51.0468 52.8839 86.8201 45.3284 86.2951C41.0664 78.7511 41.5048 51.0364 31.821 51.1217C22.897 51.2001 22.9741 79.7358 18.319 86.2875C11.0118 86.7152 6.01031 53.7761 4.94315 46.1315C3.59689 36.4867 2.50907 24.1553 7.90647 15.6131C9.80122 12.6142 13.7236 8.30132 19.3456 9.22231C23.9147 9.97076 27.4167 13.9754 32.9837 13.3353C38.228 12.7322 40.8768 8.97228 46.6463 9.16089C46.1905 9.8697 43.148 11.2928 42.3066 11.7399C41.0895 12.3865 38.1995 13.3443 39.4612 15.2584C39.775 15.7347 42.7689 17.3006 43.6958 17.7834C48.9532 20.5216 47.6497 19.4033 50.4212 24.5827C50.9923 25.6497 52.2677 28.4408 53.0441 28.7071C54.3724 29.1628 54.8955 28.44 55.3007 27.6664L58.7863 21.3356C59.2435 19.6187 61.2545 19.0331 62.6806 18.2425C65.4871 16.6866 69.332 15.4607 67.8062 13.4316C67.0221 12.3888 59.9309 9.64146 59.0571 8.14138C58.6097 7.37318 58.2276 6.66017 57.8256 5.89898C56.9487 4.23833 56.1588 2.86493 55.3251 1.30649C54.8692 0.454053 54.4966 -0.140446 53.2089 0.140045C52.429 0.310048 52.0435 1.35695 51.6762 2.04601C50.9326 3.44006 49.8331 5.1908 49.2092 6.62882C39.6782 5.0064 39.6671 9.32847 32.0319 10.4918L32.0316 10.492Z" fill="#4D4D4D"/>
<path fill-rule="evenodd" clip-rule="evenodd" d="M43.9432 14.4619C44.9129 14.9429 49.7233 17.4884 50.152 17.9131C51.1037 18.8557 52.6551 22.7614 53.6542 24.0627C54.5037 23.4339 56.275 18.9709 57.2076 17.9644C58.0598 17.0451 62.1119 15.4696 63.4049 14.4132C63.2688 14.2534 63.3758 14.3388 63.1175 14.1451L61.885 13.4582C56.9981 10.8396 57.5844 11.7605 55.4648 7.75024L53.6542 4.71899C52.4913 6.1974 51.107 9.93275 50.1086 10.8727C49.1405 11.7843 44.701 13.4981 43.9431 14.462L43.9432 14.4619Z" fill="#E32E16"/>
<path fill-rule="evenodd" clip-rule="evenodd" d="M29.966 31.3855C30.6448 30.5499 32.1699 30.314 32.9489 29.5666C33.5076 29.0306 34.1581 27.2362 34.7665 26.5597C35.4832 27.2738 35.8793 28.8547 36.5885 29.5646C37.276 30.2532 38.9364 30.5568 39.5704 31.3855C37.6857 32.888 37.1425 31.8587 35.7146 34.5892C35.4164 35.1593 35.2142 35.6772 34.7667 36.0974C33.9544 35.3133 33.7362 33.9826 32.9685 33.1827C32.4041 32.5949 30.7789 32.0092 29.9662 31.3855H29.966ZM34.1095 22.1963C33.2793 22.6171 32.9139 23.7559 32.2042 25.022C30.3993 28.2422 31.2814 27.2174 27.2719 29.433C26.3903 29.9203 24.6678 30.5401 25.5443 32.1111C26.1599 33.2147 30.3301 34.3231 31.1911 35.8092C32.6771 38.3743 33.6008 41.5391 35.4773 40.587C36.7688 39.9319 37.6166 35.8377 39.1816 34.9464C40.216 34.3572 41.2292 33.8518 42.221 33.2937C43.1524 32.7695 44.8236 32.2259 44.0255 30.6317C43.4412 29.4651 39.2002 28.3609 38.3565 26.9178C36.7356 24.1451 36.013 21.2313 34.1095 22.1962V22.1963Z" fill="#4D4D4D"/>
<path fill-rule="evenodd" clip-rule="evenodd" d="M18.4163 12.2047C16.3507 12.7345 14.9637 13.1663 13.412 14.3727C11.9749 15.4898 11.015 16.4355 10.0049 18.0603C9.09594 19.5228 8.3938 21.3647 8.1717 23.2995C7.70531 27.3623 10.7402 26.6931 10.962 24.7978C11.2707 22.1607 11.3525 21.2492 12.6242 19.3021C13.4638 18.017 14.9282 16.6552 16.3532 15.9098C19.2818 14.3779 21.0141 15.1892 21.9579 14.4188C22.7366 13.7833 23.2339 10.9692 18.4165 12.2048L18.4163 12.2047Z" fill="#4D4D4D"/>
<path fill-rule="evenodd" clip-rule="evenodd" d="M29.9667 31.3861C30.7794 32.0098 32.4046 32.5955 32.969 33.1834C33.7367 33.9832 33.9548 35.3139 34.7671 36.098C35.2148 35.6779 35.417 35.16 35.7151 34.5898C37.1431 31.8593 37.6862 32.8886 39.5709 31.3861C38.9368 30.5574 37.2764 30.2538 36.589 29.5653C35.8798 28.8552 35.4838 27.2743 34.767 26.5603C34.1586 27.2367 33.5081 29.0312 32.9494 29.5672C32.1705 30.3146 30.6454 30.5505 29.9664 31.3861H29.9667Z" fill="#E32E16"/>
</svg>
