<svg width="83" height="95" viewBox="0 0 83 95" fill="none" xmlns="http://www.w3.org/2000/svg">
<path fill-rule="evenodd" clip-rule="evenodd" d="M41.52 0L82.8515 23.7421V71.2576L41.52 95L0.188965 71.2576V23.7421L41.52 0Z" fill="#9D9E9E"/>
<path fill-rule="evenodd" clip-rule="evenodd" d="M41.5198 2.15625L61.2542 13.4923L80.988 24.8283V47.5003V70.1726L61.2542 81.5084L41.5198 92.8444L21.786 81.5084L2.05225 70.1726V47.5003V24.8283L21.786 13.4923L41.5198 2.15625Z" fill="#024FA2"/>
<path fill-rule="evenodd" clip-rule="evenodd" d="M48.3782 47.3472C47.1568 44.9546 45.7328 45.2378 43.1355 45.1584C40.7232 45.0854 41.116 46.1423 37.6906 45.2409C36.0915 44.8195 33.9763 46.3954 33.4617 47.7288C32.6756 49.767 33.0109 48.7585 32.8538 50.9559C32.67 53.5364 32.459 55.4146 33.4223 57.8916C33.5865 58.3139 36.1498 69.5966 37.5594 67.4946C39.2276 65.0069 38.5673 61.7519 40.4938 58.4198C41.5333 56.6215 41.7586 57.7695 42.3532 59.2039C42.8693 60.4493 42.6826 61.5275 43.6493 63.3903C43.7818 63.645 44.6025 66.9453 44.9853 67.1682C45.1715 68.3426 46.2983 66.6563 46.5614 65.8839C47.2176 63.9592 48.7633 60.6118 49.0022 58.5938C49.2132 56.8123 49.7246 55.8122 49.7246 53.6288C49.7246 52.7882 48.4856 47.5574 48.3782 47.3472Z" fill="#FEFEFE"/>
<path fill-rule="evenodd" clip-rule="evenodd" d="M58.8339 54.3399L58.8458 64.2332L48.1385 64.2432L49.1415 59.8785C49.2416 59.3378 49.8081 55.3121 49.8469 55.2398C50.1194 54.7313 53.1639 54.1857 54.0127 54.0744C55.0562 53.9373 58.0537 53.8719 58.8339 54.3401V54.3399ZM42.9034 64.242L39.2542 64.2319C39.2516 63.7358 40.2177 58.5285 41.0534 58.5458C41.9342 58.5639 42.907 63.1778 42.9034 64.242ZM22.9432 54.2993C24.1573 53.8923 26.6128 53.9169 27.8955 54.0899C29.6278 54.3236 30.8298 54.6861 32.239 55.2583C32.3345 56.7638 32.6137 58.3919 32.8827 59.8506L33.86 64.2316L22.9559 64.2311L22.943 54.299L22.9432 54.2993ZM44.956 67.4566L44.5559 66.1458C43.8963 63.3415 43.5011 57.4615 41.0361 57.3311C40.126 57.2833 39.5469 58.3242 39.2681 59.0093C38.3168 61.346 37.9774 65.7425 37.071 67.4566C35.1735 67.014 33.8035 58.4348 33.5266 56.5557C33.0602 53.3885 32.6302 48.9347 35.0506 46.5206C37.1371 44.4393 38.8567 46.8312 41.1561 46.8312C41.8909 46.8312 42.4571 46.5443 42.9929 46.2928C44.3562 45.6529 45.5813 45.2684 46.8801 46.4268C50.116 49.3127 48.5231 56.8813 47.7981 60.5098C47.5645 61.6778 46.4119 67.1168 44.956 67.4563V67.4566ZM31.9411 51.4885L32.0361 53.7697C31.1808 53.5703 30.8969 53.3403 29.5112 53.0642C28.4837 52.8595 27.7977 52.7559 26.6156 52.7252C26.3343 52.7179 26.1629 52.6769 25.9931 52.666C25.79 52.6529 25.7038 52.696 25.3871 52.7172C24.7589 52.759 24.428 52.7464 23.8711 52.8241C23.4287 52.8858 22.9437 52.9516 22.5001 53.0681C22.0262 53.192 21.6812 53.307 21.6812 53.8645V64.7948C21.6812 65.8447 23.2238 65.5553 24.2461 65.5553H34.3161C34.8261 66.6181 35.582 68.6917 37.166 68.6917C37.7676 68.6917 38.2327 67.9609 38.4304 67.4855C38.61 67.0545 38.93 66.0487 38.9708 65.5553L42.3978 65.5555C42.9808 65.539 43.0396 65.3763 43.1715 65.7182C43.299 66.0493 43.2833 66.5962 43.6645 67.5121C44.6708 69.9306 46.4429 68.1959 47.2682 66.5381C47.3199 66.435 47.7787 65.358 47.8508 65.547L48.0224 65.5372C48.1171 65.5385 48.2591 65.5504 48.3664 65.5532C51.0679 65.6268 54.7129 65.555 57.4954 65.555C58.0299 65.555 58.5846 65.5703 59.116 65.5607C59.4433 65.5545 59.5958 65.5444 59.8121 65.4016C59.9672 65.2994 60.1553 65.0933 60.1553 64.8896V53.7689C60.1553 52.8651 57.3731 52.7489 56.541 52.7205C55.1837 52.6738 53.7399 52.7466 52.4665 53.0144C51.3231 53.2551 50.8196 53.4807 49.9906 53.6741L50.0856 51.6781C50.0856 48.6266 48.6126 45.3578 46.2279 44.6074C44.8734 44.1811 43.9727 44.486 42.7723 45.0265C41.1212 45.7694 40.9548 45.8195 39.3192 45.0559C38.792 44.8098 38.2835 44.5867 37.7105 44.4785C36.3104 44.2141 35.3317 44.7127 34.4635 45.3627C32.8344 46.5825 31.9409 49.4566 31.9409 51.488L31.9411 51.4885Z" fill="#010101"/>
<path fill-rule="evenodd" clip-rule="evenodd" d="M40.6488 41.9152C41.5072 41.46 41.8902 42.778 41.1965 43.092C40.7696 43.2854 40.3941 43.0638 40.2815 42.7614C40.0833 42.2295 40.3788 42.0586 40.6488 41.9152ZM45.3038 31.5966C48.0029 31.6206 50.7106 31.6007 53.4105 31.6007C54.8039 31.6007 60.5372 31.421 61.4457 31.6578L61.4248 32.9218L45.3144 32.9239L45.3038 31.5966ZM37.7029 29.6718L44.0657 29.6736C44.2544 30.2484 44.1346 33.5186 44.1375 34.3805C44.1431 36.0303 43.5986 36.9284 42.6173 37.5536C40.0335 39.1995 37.0494 36.5339 37.7076 34.1634C39.3395 33.9493 41.5145 34.5868 41.5005 33.5297C41.4874 32.5366 39.346 33.0396 37.6544 32.9076L37.7032 29.6721L37.7029 29.6718ZM36.4058 28.9627V35.1407C36.4058 37.0206 38.3755 39.2279 40.2059 39.2279C40.2059 41.4804 40.1768 40.3044 39.427 41.2049C38.3562 42.4906 39.2755 44.4551 40.8708 44.4551C42.4235 44.4551 43.526 42.5559 42.4167 41.2927C41.485 40.2321 41.5356 41.4083 41.5356 39.513C41.5356 38.894 42.3543 39.6759 44.1728 37.874C45.1982 36.8584 45.4305 35.7522 45.4305 34.1902H62.1503C62.9824 34.1902 62.7202 32.0867 62.7202 31.0538C62.7202 30.4873 62.3369 30.2934 61.7701 30.2934H45.4305C45.4305 29.4046 45.6228 28.3926 44.6707 28.3926H36.9759C36.747 28.3926 36.4058 28.7339 36.4058 28.9627Z" fill="#010101"/>
<path fill-rule="evenodd" clip-rule="evenodd" d="M22.9565 64.2314L33.8607 64.2319L32.8833 59.8509C32.6143 58.3921 32.3348 56.7638 32.2396 55.2586C30.8304 54.6861 29.6285 54.3238 27.8961 54.0901C26.6134 53.9171 24.1579 53.8926 22.9438 54.2996L22.9568 64.2316L22.9565 64.2314Z" fill="white"/>
<path fill-rule="evenodd" clip-rule="evenodd" d="M58.834 54.34C58.0538 53.8718 55.0563 53.9371 54.0129 54.0743C53.164 54.1856 50.1195 54.7312 49.847 55.2396C49.8083 55.3119 49.2418 59.3374 49.1416 59.8784L48.1387 64.2431L58.8459 64.233L58.834 54.3397V54.34Z" fill="white"/>
<path fill-rule="evenodd" clip-rule="evenodd" d="M37.6545 32.9077C39.346 33.0396 41.4874 32.5369 41.5006 33.5297C41.5143 34.5869 39.3396 33.9493 37.7077 34.1634C37.0495 36.5342 40.0336 39.1996 42.6174 37.5536C43.5986 36.9282 44.1432 36.0304 44.1375 34.3806C44.1347 33.5186 44.2544 30.2485 44.0658 29.6737L37.703 29.6719L37.6542 32.9074L37.6545 32.9077Z" fill="#B3B3B3"/>
<path fill-rule="evenodd" clip-rule="evenodd" d="M45.3148 32.924L61.4252 32.9219L61.4461 31.6579C60.5376 31.4214 54.8043 31.6009 53.4109 31.6009C50.7107 31.6009 48.0033 31.621 45.3042 31.5967L45.3148 32.924Z" fill="#575556"/>
<path fill-rule="evenodd" clip-rule="evenodd" d="M42.9036 64.2416C42.9074 63.1775 41.9344 58.5635 41.0536 58.5455C40.2179 58.5282 39.2518 63.7355 39.2544 64.2315L42.9036 64.2416Z" fill="white"/>
<path fill-rule="evenodd" clip-rule="evenodd" d="M34.6016 50.7284C34.8582 50.7284 34.8633 50.6829 35.0768 50.6334C35.3385 50.0872 35.2012 49.6467 35.4851 49.0458C35.7016 48.5869 36.0338 48.1797 36.4666 47.937C36.6943 47.8094 36.9531 47.7273 37.2383 47.6635C37.4533 47.6152 38.6176 47.6416 38.4444 46.8703C38.1432 45.5265 34.6107 46.7626 34.0831 49.2601C33.9417 49.9305 33.8351 50.7289 34.6016 50.7289V50.7284Z" fill="#010101"/>
<path fill-rule="evenodd" clip-rule="evenodd" d="M40.6493 41.915C40.3793 42.0583 40.0838 42.2292 40.282 42.7612C40.3945 43.0635 40.7701 43.2851 41.197 43.0917C41.8907 42.7777 41.5074 41.4597 40.6493 41.915Z" fill="#B3B3B3"/>
</svg>
