<svg width="134" height="154" viewBox="0 0 134 154" fill="none" xmlns="http://www.w3.org/2000/svg">
<path fill-rule="evenodd" clip-rule="evenodd" d="M67 1L133 38.9879V115.012L67 153L1 115.012V38.9879L67 1Z" fill="#9D9E9E" stroke="#9D9E9E" stroke-width="0.0762399" stroke-miterlimit="22.9256"/>
<path fill-rule="evenodd" clip-rule="evenodd" d="M67 4.44952L98.5123 22.587L130.025 40.7245V77.0002V113.276L98.5123 131.413L67 149.551L35.4877 131.413L3.9751 113.276V77.0002V40.7245L35.4877 22.587L67 4.44952Z" fill="#E32E16"/>
<path fill-rule="evenodd" clip-rule="evenodd" d="M87.7145 45.3555C91.4569 39.6375 78.9514 36.4502 76.8186 40.7022C76.5046 41.3293 73.6528 40.3356 71.1247 41.9734C62.5386 47.5356 48.3018 27.7516 41.1268 51.6588C37.2373 64.6192 40.8844 77.3984 43.9971 91.1496C45.3893 97.3003 51.7974 123.903 57.6442 105.461C59.6971 98.9865 61.4635 87.6803 64.9954 81.9947C67.6905 77.6557 74.3296 85.5757 73.9477 93.072C73.8788 94.4326 79.0505 112.194 80.6801 112.194C86.1696 112.194 91.3729 91.9013 91.964 86.8539C92.8029 79.6932 100.948 44.8599 88.935 44.3382C88.0693 44.3006 88.1588 44.6763 87.7141 45.3552L87.7145 45.3555Z" fill="#FEFEFE"/>
<path fill-rule="evenodd" clip-rule="evenodd" d="M78.975 45.3154C79.5829 44.524 83.8186 42.8319 84.7208 41.9323C85.7775 40.8778 87.0904 36.9933 88.0958 36.1866C88.6365 37.1382 90.8433 41.5342 91.3174 41.9935C91.8082 42.4698 96.4064 44.6153 97.0642 45.2543C95.9194 45.9999 91.9811 47.833 91.3011 48.529C90.602 49.2454 88.9526 53.0705 88.0497 54.2171C88.0186 54.1893 87.9801 54.1469 87.9631 54.1264L87.1226 52.7623C84.4015 47.5294 85.3668 48.5801 78.975 45.3147V45.3154ZM83.8525 38.0326C83.3684 37.7998 81.275 37.5277 80.4951 37.5277C75.5739 37.5277 71.9448 41.4636 67.8969 41.5613C65.6056 41.6165 63.514 40.391 61.58 39.4919C58.0431 37.8477 55.1296 36.6984 51.1158 38.2C50.5702 38.404 49.9266 38.5989 49.4424 38.8789C47.9961 39.7149 46.5807 40.7131 45.4487 41.9431L44.375 43.2228C41.195 47.1913 39.1973 53.9586 39.1973 59.2374L39.3664 67.9871C39.3983 68.6751 39.5227 68.9669 39.5702 69.7852L40.1746 75.2551C40.586 78.9675 41.2751 84.1696 42.1086 87.4529C42.2632 88.0617 42.327 88.6475 42.4569 89.292L45.3478 100.868C46.1956 103.456 47.0565 106.124 48.2627 108.548C48.4983 109.021 48.6834 109.397 48.9642 109.864C50.6306 112.635 52.1365 114.775 55.4818 114.775C59.1182 114.775 60.8231 103.914 61.3714 101.157C62.2493 96.7402 65.6777 74.5657 70.5605 84.8485C72.5177 88.9703 73.1315 93.6438 74.0448 98.1853L75.3039 105.337C75.6987 107.312 76.8636 114.774 79.9919 114.774C82.8689 114.774 84.2529 113.283 85.7314 111.103C86.9899 109.248 87.8518 107.409 88.6715 105.3L90.8315 98.8823C91.5018 96.5213 92.0567 94.2442 92.5381 91.8416L94.5244 81.219C94.7403 79.914 94.8301 78.5006 95.0554 77.3676C95.5434 74.9087 95.5804 72.2138 95.9496 69.6813C96.283 67.3954 96.4438 63.9852 96.4438 61.4252C96.4438 60.1108 96.2736 59.3624 96.276 58.227C96.2795 56.8438 96.1114 56.1909 95.0574 55.8952C92.4812 55.1729 93.5893 58.7961 93.5893 60.2467L93.2784 66.8346C93.1422 68.1122 93.1928 69.2147 93.06 70.4867C92.8209 72.7837 92.5346 75.0306 92.1946 77.361C91.4938 82.1707 90.5611 86.9888 89.6049 91.7623C88.6493 96.5342 84.6726 111.913 80.6629 111.913C79.7413 111.913 79.1622 109.109 78.887 108.139C78.6551 107.323 78.5019 106.553 78.3556 105.811C76.9776 98.8117 76.2466 91.5994 73.7089 84.8884C72.7641 82.3892 70.9095 79.2636 67.7361 79.2636C62.3318 79.2636 61.0653 89.9202 59.8651 94.2612C58.9622 97.5289 58.3515 101.959 57.4019 105.76C57.1617 106.722 56.063 111.913 54.9775 111.913C53.9904 111.913 53.1149 110.972 52.6474 110.378L51.1068 107.884C48.098 102.458 46.8122 95.2886 45.4081 89.3615C44.3136 84.738 42.5263 73.6526 42.3866 68.9982C42.3464 67.6591 42.0344 66.8788 42.0504 65.2955C42.0656 63.8529 41.8826 62.9637 41.8826 61.4249C41.8826 53.4287 45.5274 40.3883 54.9771 40.3883C60.5267 40.3883 64.5659 46.6566 71.6481 43.6369C75.3705 42.0498 77.6749 40.3883 81.5016 40.3883L77.7501 42.5174C77.023 42.8868 76.5059 43.2189 75.7885 43.5806C73.7176 44.6237 74.2662 46.1038 76.0706 47.0103L78.2537 48.1878C79.1972 48.6641 81.922 49.9883 82.5535 50.6095C83.2471 51.2912 86.0988 57.3424 86.7965 58.1363C87.0661 58.4434 87.5337 58.7322 88.0491 58.7322C89.4222 58.7322 90.2783 56.1301 90.9105 55.037C91.2779 54.4012 91.7375 53.6743 92.0802 53.0125C92.2788 52.6275 92.4282 52.3335 92.6542 51.9051C92.911 51.4184 92.8448 51.2224 93.1827 50.7516C93.6517 50.0977 94.4429 49.9285 95.1538 49.53L99.4976 47.1527C100.521 46.5325 101.312 46.3477 101.312 45.1004C101.312 43.9131 99.3039 43.2311 97.6111 42.2471L95.5486 41.1169C92.876 39.6788 92.9571 39.6979 91.0145 35.7325C90.4634 34.6074 90.0111 33.5685 89.3054 32.5658C88.8722 31.9498 88.2872 31.9738 87.5458 31.9738C86.7736 31.9738 83.9486 37.6191 83.8522 38.0322L83.8525 38.0326Z" fill="black"/>
<path fill-rule="evenodd" clip-rule="evenodd" d="M78.9751 45.316C85.3669 48.5813 84.4017 47.5306 87.1227 52.7635L87.9632 54.1276C87.9798 54.1478 88.0187 54.1905 88.0499 54.2183C88.9527 53.0717 90.6021 49.2463 91.3012 48.5302C91.9812 47.8343 95.9199 46.0011 97.0643 45.2555C96.4065 44.6162 91.8083 42.4707 91.3175 41.9947C90.8437 41.5354 88.6366 37.1395 88.0959 36.1878C87.0905 36.9946 85.7776 40.8791 84.7209 41.9336C83.8187 42.8331 79.5827 44.5248 78.9751 45.3167V45.316Z" fill="#9D9E9E"/>
<path fill-rule="evenodd" clip-rule="evenodd" d="M66.0526 60.9204C66.7676 60.4715 68.5557 59.6172 68.9002 59.2256C69.3581 58.7044 69.9777 57.1541 70.49 56.455C71.6927 57.8219 71.0515 59.5084 75.0029 60.8447C74.6363 61.319 74.1288 61.5365 73.5286 61.8457C72.0022 62.6323 72.0843 62.6455 71.2972 64.1545C71.0667 64.5968 70.7933 65.1635 70.3961 65.4908C70.1556 64.8841 69.1459 63.003 68.7356 62.6118C68.0174 61.927 66.6186 61.656 66.0523 60.9208L66.0526 60.9204ZM61.6929 60.9204C61.6929 61.6581 62.0852 61.9826 62.5344 62.2651L66.7468 64.6058C68.5436 66.2902 69.6228 73.5314 72.5508 67.5974C72.852 66.9869 73.0229 66.7464 73.3303 66.1912C74.3254 64.3939 73.9888 64.578 76.9702 63.108C78.0762 62.5632 79.3204 62.0274 79.3204 60.9204C79.3204 59.2492 75.3762 58.4657 74.2113 57.291C73.1435 56.2146 72.1873 52.1693 70.5909 52.1693C68.7162 52.1693 68.1554 55.6792 66.8577 57.1781L62.6959 59.5695C62.1348 59.8614 61.6932 60.0664 61.6932 60.9204H61.6929Z" fill="black"/>
<path fill-rule="evenodd" clip-rule="evenodd" d="M45.7437 54.1892C45.7437 55.2493 46.0435 56.6926 47.4776 56.276C49.64 55.6481 47.3193 53.2876 50.512 49.2082C54.5647 44.0305 59.1736 46.9696 59.1736 44.2595C59.1736 41.474 52.4262 43.1949 49.2255 46.4036C47.6502 47.9827 45.7437 51.1226 45.7437 54.1889V54.1892Z" fill="black"/>
<path fill-rule="evenodd" clip-rule="evenodd" d="M66.0522 60.9206C66.6186 61.6558 68.0174 61.9272 68.7355 62.6117C69.1459 63.0029 70.1552 64.884 70.3961 65.4906C70.7929 65.1633 71.0664 64.5967 71.2972 64.1544C72.0843 62.645 72.0021 62.6322 73.5285 61.8456C74.1288 61.5363 74.6362 61.3188 75.0029 60.8446C71.0515 59.5083 71.6926 57.8221 70.49 56.4549C69.9774 57.154 69.358 58.7039 68.9002 59.2254C68.5557 59.617 66.7676 60.4714 66.0526 60.9203L66.0522 60.9206Z" fill="#9D9E9E"/>
</svg>
