<svg width="132" height="152" viewBox="0 0 132 152" fill="none" xmlns="http://www.w3.org/2000/svg">
<path fill-rule="evenodd" clip-rule="evenodd" d="M65.9995 0L132 37.988V114.012L65.9995 152L0 114.012V37.988L65.9995 0Z" fill="#9D9E9E"/>
<path fill-rule="evenodd" clip-rule="evenodd" d="M66 3.44922L97.5127 21.5863L129.025 39.7244V75.9996V112.275L97.5127 130.413L66 148.551L34.4883 130.413L2.97559 112.275V75.9996V39.7244L34.4883 21.5863L66 3.44922Z" fill="#FFDC0A" stroke="#9D9E9E" stroke-width="0.0762399" stroke-miterlimit="22.9256"/>
<path fill-rule="evenodd" clip-rule="evenodd" d="M64.4137 45.2016C63.7623 46.862 62.7757 45.9105 61.1413 45.3429C55.9457 43.5387 50.8372 46.6174 50.581 52.0265C50.4734 54.2994 49.9326 55.2801 49.9326 58.593C49.9326 59.9061 51.7252 72.1039 51.9573 72.4572C52.6672 73.5356 56.465 87.7698 59.2226 79.3868C60.0931 76.7393 61.2233 73.3869 61.8317 70.6891C62.5806 67.3678 65.4623 64.0756 67.0633 68.6082C67.5561 70.0058 69.8644 81.4829 70.6894 81.6899C71.7686 81.9606 75.6919 75.0216 75.7134 72.8262C75.7309 71.1105 77.1082 68.0742 77.1082 64.1067C77.1082 59.8443 77.8862 59.8196 78.0768 57.5674C78.3344 54.5242 77.1803 48.4912 75.065 46.0789C72.2063 42.8174 69.3686 43.7482 65.9976 45.2282C65.5063 45.4436 64.2506 45.6175 64.4137 45.2011V45.2016Z" fill="#FEFEFE"/>
<path fill-rule="evenodd" clip-rule="evenodd" d="M35.0929 99.0851L92.6147 99.0539L92.5791 81.3753C86.0034 79.7244 78.8582 81.6578 72.8607 84.1748C70.7515 85.0601 69.4095 85.8396 67.7695 86.9218C67.6136 89.8726 68.2175 91.4296 67.1774 93.0683C64.6528 97.0468 64.3148 98.5321 62.5426 95.7723C59.5947 91.1823 60.4828 93.0381 60.312 87.8922C59.4116 87.2873 59.2819 87.0158 57.9231 86.2343C57.113 85.7679 56.1168 85.3173 55.1903 84.9073C53.2483 84.0477 51.3315 83.3508 49.2529 82.732C47.1225 82.0984 44.8885 81.5648 42.5395 81.3877C40.9543 81.2685 36.4018 81.3704 35.0801 81.9219L35.0914 99.0856L35.0929 99.0851Z" fill="white"/>
<path fill-rule="evenodd" clip-rule="evenodd" d="M35.0816 81.9217C36.4039 81.3702 40.9558 81.2683 42.541 81.3875C44.89 81.5651 47.1235 82.0982 49.2545 82.7318C51.3331 83.3506 53.2494 84.0475 55.1918 84.9071C56.1179 85.3171 57.114 85.7677 57.9246 86.2341C59.2834 87.0156 59.4132 87.2871 60.3136 87.892C60.4838 93.0384 59.5962 91.1821 62.5442 95.772C64.3164 98.5319 64.6544 97.0466 67.179 93.068C68.219 91.4289 67.6151 89.8724 67.771 86.9216C69.4105 85.8389 70.753 85.0599 72.8622 84.1746C78.8598 81.6576 86.0049 79.7241 92.5807 81.3751L92.6162 99.0537L35.0945 99.0849L35.0831 81.9212L35.0816 81.9217ZM62.4637 88.4109C62.8895 88.4821 65.2701 89.8729 65.5804 90.1949C65.6362 91.4032 65.6367 91.4176 65.1018 92.243C64.8231 92.6734 64.3682 93.6007 63.9651 93.8851C62.0217 90.365 62.5698 92.9914 62.4637 88.4109ZM62.478 83.0518C63.0849 83.3253 63.5763 83.6454 64.195 84.0138C65.9579 85.0639 65.5267 84.4748 65.6051 87.8713C65.0318 87.7046 63.1081 86.431 62.4706 86.0521L62.4785 83.0518H62.478ZM62.4716 77.7581C62.928 77.8432 65.1438 79.2454 65.5863 79.6129L65.5883 82.6087C65.2656 82.5023 62.7479 80.9819 62.4627 80.7509L62.4716 77.7581ZM62.4751 70.2139C62.4751 69.38 63.1037 66.9584 64.1111 66.5623C65.5888 67.2587 65.5923 69.4532 65.5923 71.1957C65.5923 72.7314 65.7674 75.9355 65.5498 77.2669C64.9992 77.0315 64.4383 76.6457 63.8097 76.2733C62.0177 75.2109 62.4751 75.8662 62.4751 70.2139ZM48.7192 54.3629C48.7192 57.7598 48.7473 58.3395 49.1114 61.7062C49.1548 62.1083 49.1977 62.3408 49.2194 62.5797L50.0365 68.3324C50.5644 71.5647 51.7732 76.0779 52.9144 78.914C54.2707 82.2817 57.6567 86.3132 59.8567 80.3978C59.9727 80.0857 59.9692 80.0437 60.0496 79.7499C60.1084 79.5377 60.059 79.6499 60.1439 79.4239L60.3447 85.5288C60.2909 86.615 60.0334 86.0976 59.0668 85.5115C58.7535 85.3216 58.5315 85.194 58.1896 84.9882C55.1489 83.1606 50.3962 81.11 46.72 80.4947C45.8867 80.3553 45.2413 80.2929 44.4652 80.0901C43.6087 79.8661 43.1272 79.8374 42.1671 79.7286C40.492 79.5382 36.4892 79.7929 34.8616 80.1708C34.086 80.3513 33.3262 80.3201 33.3262 81.2965V100.374C34.01 100.374 33.8654 100.526 34.3332 100.627L86.779 100.654C88.6016 100.654 93.0331 100.933 94.195 100.374V80.1742C93.7066 80.0437 93.9834 80.0234 93.5936 79.9363L87.339 79.4729C81.3952 79.4729 77.0451 80.4804 71.9001 83.0731L67.7483 85.3641V80.8756C68.0187 81.1872 67.9487 81.2198 68.0942 81.6511C68.5456 82.991 69.6015 83.7547 71.2341 83.1072C71.9899 82.807 73.1326 81.479 73.5327 80.7826C75.0168 78.1968 75.9839 74.5684 76.6445 71.5577C76.9519 70.16 77.5439 67.6583 77.5439 66.2868C77.5439 65.6645 75.6913 64.3647 75.2818 66.9649C74.7494 70.3455 73.7326 74.6747 72.5085 77.7912C72.1251 78.7651 71.348 80.7267 70.268 81.0155C69.0745 78.7552 68.8826 71.3624 67.2727 67.3254C66.3254 64.9518 65.4778 64.4632 63.6908 64.4632C59.9421 64.4632 59.2084 77.1883 57.1145 81.156C53.201 79.0802 50.8175 60.2467 50.8175 55.6256C50.8175 51.7786 52.6805 45.2449 57.1145 45.2449C58.2735 45.2449 59.6007 45.9368 60.5114 46.328C61.3966 46.7089 62.7992 47.3489 63.9705 47.3489C66.5598 47.3489 68.2245 45.2449 70.1279 45.2449C74.0774 45.2449 76.4244 50.5198 76.4244 54.6433L76.2754 59.8253C76.2715 59.8836 75.711 62.0208 77.243 61.9961C78.4355 61.9768 78.4142 60.6809 78.5031 59.8129C79.0566 54.3886 78.6358 48.1877 74.4248 44.5841C73.9023 44.1364 73.5766 43.994 72.9515 43.6765C71.6569 43.0181 71.0209 43.1408 69.5684 43.1408C67.5944 43.1408 65.6752 45.1044 64.1107 45.1044C62.9349 45.1044 61.8559 44.4975 61.03 44.1251C56.8935 42.2589 53.4127 42.8337 50.7879 47.0398C49.6304 48.8955 48.7182 52.0991 48.7182 54.3634L48.7192 54.3629Z" fill="#010101"/>
<path fill-rule="evenodd" clip-rule="evenodd" d="M62.4761 70.2139C62.4761 75.8662 62.0187 75.2109 63.8107 76.2733C64.4392 76.6462 65.0002 77.0315 65.5508 77.267C65.7684 75.9355 65.5933 72.7314 65.5933 71.1957C65.5933 69.4532 65.5898 67.2587 64.1121 66.5623C63.1046 66.9584 62.4761 69.38 62.4761 70.2139Z" fill="#808080"/>
<path fill-rule="evenodd" clip-rule="evenodd" d="M51.9375 52.6798C51.9375 53.1689 52.5695 53.802 53.057 53.802C55.2851 53.802 53.0446 49.8175 57.3869 48.6038C58.6302 48.2565 59.4941 48.811 59.4941 47.0685C59.4941 45.9665 57.8043 46.0882 56.9191 46.3113C55.7987 46.5932 55.1938 46.9656 54.394 47.5671C53.0787 48.5573 51.9375 50.4328 51.9375 52.6798Z" fill="#010101"/>
<path fill-rule="evenodd" clip-rule="evenodd" d="M62.4648 88.41C62.5714 92.9906 62.0228 90.3642 63.9662 93.8843C64.3693 93.6004 64.8242 92.673 65.1029 92.2422C65.6373 91.4167 65.6368 91.4024 65.5815 90.1941C65.2712 89.8721 62.8906 88.4813 62.4648 88.41Z" fill="#808080"/>
<path fill-rule="evenodd" clip-rule="evenodd" d="M62.4629 80.7507C62.7481 80.9816 65.2653 82.502 65.5885 82.6084L65.5865 79.6126C65.1439 79.2451 62.9282 77.8429 62.4718 77.7578L62.4629 80.7507Z" fill="#808080"/>
<path fill-rule="evenodd" clip-rule="evenodd" d="M62.4702 86.0517C63.1077 86.4305 65.0314 87.7041 65.6047 87.8708C65.5262 84.4744 65.9574 85.0634 64.1946 84.0134C63.5764 83.6449 63.085 83.3244 62.4776 83.0514L62.4697 86.0517H62.4702Z" fill="#808080"/>
</svg>
