<svg width="82" height="95" viewBox="0 0 82 95" fill="none" xmlns="http://www.w3.org/2000/svg">
<path fill-rule="evenodd" clip-rule="evenodd" d="M40.9997 0L82 23.5522V70.6863L40.9997 94.2385L0 70.6863V23.5522L40.9997 0Z" fill="#9D9E9E"/>
<path fill-rule="evenodd" clip-rule="evenodd" d="M40.9997 2.13855L60.5758 13.3834L80.1515 24.6288V47.1191V69.6096L60.5758 80.8548L40.9997 92.0999L21.4242 80.8548L1.84814 69.6096V47.1191V24.6288L21.4242 13.3834L40.9997 2.13855Z" fill="#FFDC0A" stroke="#9D9E9E" stroke-width="0.0762399" stroke-miterlimit="22.9256"/>
<path fill-rule="evenodd" clip-rule="evenodd" d="M40.0146 28.0245C39.61 29.0539 38.9971 28.464 37.9817 28.1121C34.7542 26.9935 31.5807 28.9023 31.4216 32.2559C31.3548 33.6651 31.0188 34.2731 31.0188 36.327C31.0188 37.1412 32.1324 44.7037 32.2766 44.9227C32.7176 45.5913 35.0768 54.4164 36.7899 49.219C37.3306 47.5776 38.0327 45.4991 38.4106 43.8265C38.8759 41.7673 40.666 39.7262 41.6606 42.5364C41.9667 43.4029 43.4007 50.5186 43.9132 50.6469C44.5835 50.8147 47.0208 46.5126 47.0341 45.1515C47.045 44.0878 47.9006 42.2053 47.9006 39.7455C47.9006 37.1029 48.3839 37.0876 48.5023 35.6912C48.6623 33.8045 47.9454 30.0641 46.6313 28.5685C44.8555 26.5464 43.0927 27.1234 40.9986 28.041C40.6934 28.1746 39.9133 28.2824 40.0146 28.0242V28.0245Z" fill="#FEFEFE"/>
<path fill-rule="evenodd" clip-rule="evenodd" d="M21.8002 61.4321L57.5334 61.4128L57.5113 50.4522C53.4264 49.4286 48.9877 50.6273 45.262 52.1878C43.9517 52.7367 43.1181 53.22 42.0993 53.891C42.0024 55.7204 42.3776 56.6858 41.7315 57.7017C40.1632 60.1684 39.9532 61.0893 38.8523 59.3782C37.021 56.5325 37.5727 57.683 37.4666 54.4926C36.9073 54.1176 36.8267 53.9492 35.9826 53.4647C35.4793 53.1756 34.8605 52.8962 34.2849 52.642C33.0786 52.109 31.8878 51.677 30.5966 51.2934C29.2731 50.9005 27.8853 50.5697 26.4261 50.4599C25.4414 50.386 22.6133 50.4492 21.7922 50.7911L21.7993 61.4324L21.8002 61.4321Z" fill="white"/>
<path fill-rule="evenodd" clip-rule="evenodd" d="M21.7931 50.7908C22.6145 50.4489 25.4423 50.3857 26.427 50.4596C27.8862 50.5697 29.2737 50.9003 30.5975 51.2931C31.8887 51.6767 33.0792 52.1088 34.2858 52.6417C34.8611 52.896 35.4799 53.1753 35.9835 53.4645C36.8276 53.949 36.9082 54.1173 37.4676 54.4924C37.5733 57.6831 37.0219 56.5322 38.8532 59.3779C39.9541 61.089 40.1641 60.1681 41.7324 57.7015C42.3785 56.6852 42.0034 55.7202 42.1002 53.8907C43.1187 53.2195 43.9527 52.7365 45.2629 52.1876C48.9887 50.6271 53.4273 49.4284 57.5123 50.452L57.5343 61.4125L21.8011 61.4318L21.7941 50.7905L21.7931 50.7908ZM38.8032 54.814C39.0677 54.8582 40.5466 55.7205 40.7394 55.9201C40.774 56.6693 40.7743 56.6782 40.4421 57.19C40.2689 57.4567 39.9863 58.0317 39.7359 58.208C38.5286 56.0256 38.8691 57.6539 38.8032 54.814ZM38.8121 51.4915C39.1891 51.6611 39.4944 51.8595 39.8787 52.0879C40.9738 52.739 40.706 52.3737 40.7547 54.4795C40.3986 54.3762 39.2035 53.5865 38.8075 53.3516L38.8124 51.4915H38.8121ZM38.8082 48.2094C39.0917 48.2622 40.4681 49.1315 40.743 49.3594L40.7443 51.2167C40.5438 51.1508 38.9798 50.2082 38.8026 50.065L38.8082 48.2094ZM38.8103 43.5321C38.8103 43.0151 39.2008 41.5138 39.8266 41.2681C40.7446 41.6999 40.7467 43.0605 40.7467 44.1408C40.7467 45.093 40.8555 47.0794 40.7204 47.9049C40.3783 47.759 40.0298 47.5198 39.6394 47.2889C38.5262 46.6302 38.8103 47.0365 38.8103 43.5321ZM30.2649 33.7046C30.2649 35.8107 30.2824 36.1701 30.5086 38.2574C30.5356 38.5068 30.5622 38.6509 30.5757 38.799L31.0833 42.3656C31.4112 44.3696 32.1621 47.1677 32.8711 48.9261C33.7136 51.014 35.8171 53.5135 37.1837 49.846C37.2558 49.6525 37.2536 49.6265 37.3036 49.4443C37.3401 49.3128 37.3094 49.3824 37.3621 49.2422L37.4869 53.0272C37.4535 53.7006 37.2935 53.3798 36.693 53.0165C36.4984 52.8987 36.3605 52.8196 36.1481 52.692C34.2592 51.559 31.3067 50.2876 29.023 49.9061C28.5054 49.8197 28.1045 49.781 27.6224 49.6553C27.0903 49.5164 26.7911 49.4986 26.1947 49.4311C25.1542 49.3131 22.6676 49.471 21.6564 49.7053C21.1746 49.8172 20.7026 49.7979 20.7026 50.4032V62.231C21.1274 62.231 21.0376 62.3254 21.3282 62.3877L53.9082 62.4048C55.0404 62.4048 57.7933 62.5778 58.5151 62.231V49.7074C58.2117 49.6265 58.3836 49.6139 58.1415 49.5599L54.2561 49.2726C50.5637 49.2726 47.8614 49.8972 44.6653 51.5047L42.0861 52.9251V50.1422C42.2541 50.3354 42.2105 50.3557 42.301 50.6231C42.5814 51.4538 43.2373 51.9273 44.2515 51.5258C44.721 51.3397 45.4309 50.5164 45.6794 50.0846C46.6014 48.4814 47.2021 46.2319 47.6125 44.3653C47.8035 43.4987 48.1712 41.9477 48.1712 41.0973C48.1712 40.7116 47.0204 39.9057 46.766 41.5177C46.4353 43.6137 45.8036 46.2978 45.0432 48.23C44.805 48.8338 44.3223 50.0499 43.6514 50.229C42.91 48.8276 42.7907 44.2442 41.7906 41.7413C41.2022 40.2697 40.6756 39.9667 39.5655 39.9667C37.2368 39.9667 36.781 47.8562 35.4802 50.3161C33.0491 49.0291 31.5685 37.3525 31.5685 34.4875C31.5685 32.1024 32.7258 28.0515 35.4802 28.0515C36.2002 28.0515 37.0247 28.4806 37.5905 28.7231C38.1403 28.9592 39.0117 29.356 39.7393 29.356C41.3478 29.356 42.3819 28.0515 43.5643 28.0515C46.0178 28.0515 47.4758 31.322 47.4758 33.8785L47.3832 37.0913C47.3808 37.1274 47.0326 38.4525 47.9843 38.4371C48.7251 38.4252 48.7119 37.6218 48.7671 37.0836C49.111 33.7206 48.8495 29.8761 46.2336 27.6419C45.909 27.3643 45.7067 27.276 45.3184 27.0792C44.5142 26.671 44.1191 26.7471 43.2168 26.7471C41.9905 26.7471 40.7982 27.9645 39.8263 27.9645C39.096 27.9645 38.4257 27.5882 37.9126 27.3573C35.3429 26.2003 33.1806 26.5566 31.5501 29.1644C30.831 30.3149 30.2643 32.3011 30.2643 33.7049L30.2649 33.7046Z" fill="#010101"/>
<path fill-rule="evenodd" clip-rule="evenodd" d="M38.8105 43.5321C38.8105 47.0364 38.5264 46.6301 39.6396 47.2888C40.0301 47.52 40.3785 47.7589 40.7206 47.9049C40.8558 47.0794 40.747 45.0929 40.747 44.1408C40.747 43.0604 40.7448 41.6998 39.8269 41.2681C39.201 41.5137 38.8105 43.015 38.8105 43.5321Z" fill="#808080"/>
<path fill-rule="evenodd" clip-rule="evenodd" d="M32.2642 32.6611C32.2642 32.9644 32.6568 33.3569 32.9596 33.3569C34.3437 33.3569 32.9519 30.8866 35.6494 30.134C36.4217 29.9188 36.9584 30.2625 36.9584 29.1822C36.9584 28.499 35.9087 28.5744 35.3588 28.7127C34.6628 28.8875 34.287 29.1184 33.7902 29.4913C32.9731 30.1052 32.2642 31.268 32.2642 32.6611Z" fill="#010101"/>
<path fill-rule="evenodd" clip-rule="evenodd" d="M38.8035 54.8134C38.8697 57.6532 38.5289 56.0249 39.7361 58.2073C39.9865 58.0313 40.2691 57.4564 40.4423 57.1893C40.7742 56.6775 40.7739 56.6686 40.7396 55.9194C40.5468 55.7198 39.068 54.8575 38.8035 54.8134Z" fill="#808080"/>
<path fill-rule="evenodd" clip-rule="evenodd" d="M38.8027 50.0649C38.9799 50.2081 40.5436 51.1507 40.7444 51.2167L40.7431 49.3593C40.4682 49.1314 39.0918 48.2621 38.8083 48.2094L38.8027 50.0649Z" fill="#808080"/>
<path fill-rule="evenodd" clip-rule="evenodd" d="M38.8077 53.3509C39.2037 53.5858 40.3987 54.3754 40.7548 54.4787C40.7061 52.373 40.974 52.7382 39.8789 52.0872C39.4948 51.8587 39.1896 51.66 38.8123 51.4907L38.8074 53.3509H38.8077Z" fill="#808080"/>
</svg>
