<svg width="85" height="97" viewBox="0 0 85 97" fill="none" xmlns="http://www.w3.org/2000/svg">
<path fill-rule="evenodd" clip-rule="evenodd" d="M42.5 1L84 24.7425V72.2578L42.5 96L1 72.2578V24.7425L42.5 1Z" fill="#9D9E9E" stroke="#9D9E9E" stroke-width="0.0762399" stroke-miterlimit="22.9256"/>
<path fill-rule="evenodd" clip-rule="evenodd" d="M42.5004 3.15625L62.3149 14.4922L82.1294 25.8281V48.5004V71.1725L62.3149 82.5085L42.5004 93.8444L22.6858 82.5085L2.87109 71.1725V48.5004V25.8281L22.6858 14.4922L42.5004 3.15625Z" fill="#E32E16"/>
<path fill-rule="evenodd" clip-rule="evenodd" d="M55.5251 28.7215C57.8783 25.1478 50.015 23.1557 48.6739 25.8132C48.4764 26.2051 46.6833 25.5841 45.0937 26.6077C39.6948 30.0841 30.7429 17.7191 26.2313 32.6611C23.7856 40.7613 26.0789 48.7483 28.0361 57.3429C28.9116 61.187 32.9409 77.8135 36.6173 66.2874C37.9081 62.2409 39.0188 55.1745 41.2396 51.621C42.9342 48.9092 47.1088 53.8591 46.8687 58.5443C46.8254 59.3947 50.0773 70.4959 51.1019 70.4959C54.5537 70.4959 57.8255 57.8126 58.1971 54.658C58.7246 50.1826 63.8461 28.4118 56.2925 28.0857C55.7482 28.0622 55.8045 28.297 55.5249 28.7213L55.5251 28.7215Z" fill="#FEFEFE"/>
<path fill-rule="evenodd" clip-rule="evenodd" d="M50.0293 28.6961C50.4116 28.2014 53.0749 27.1438 53.6422 26.5816C54.3067 25.9225 55.1322 23.4947 55.7644 22.9905C56.1044 23.5853 57.4919 26.3327 57.7901 26.6198C58.0987 26.9175 60.99 28.2585 61.4036 28.6578C60.6838 29.1238 58.2074 30.2696 57.7798 30.7045C57.3403 31.1523 56.3031 33.543 55.7354 34.2596C55.7158 34.2422 55.6916 34.2157 55.6809 34.2029L55.1525 33.3503C53.4415 30.0798 54.0484 30.7364 50.0293 28.6956V28.6961ZM53.0963 24.1443C52.7918 23.9988 51.4755 23.8287 50.9852 23.8287C47.8908 23.8287 45.6088 26.2887 43.0636 26.3497C41.6228 26.3842 40.3076 25.6183 39.0916 25.0563C36.8676 24.0287 35.0357 23.3104 32.5118 24.2489C32.1688 24.3764 31.7641 24.4982 31.4596 24.6732C30.5502 25.1957 29.6602 25.8196 28.9484 26.5883L28.2733 27.3881C26.2737 29.8685 25.0176 34.098 25.0176 37.3972L25.1239 42.8659C25.144 43.2958 25.2222 43.4782 25.2521 43.9896L25.6321 47.4083C25.8908 49.7286 26.3241 52.9799 26.8482 55.032C26.9454 55.4125 26.9855 55.7786 27.0672 56.1814L28.885 63.4161C29.418 65.0337 29.9594 66.7013 30.7178 68.2161C30.866 68.5119 30.9824 68.7473 31.1589 69.0392C32.2067 70.7708 33.1536 72.108 35.2571 72.108C37.5436 72.108 38.6156 65.3199 38.9604 63.5968C39.5124 60.8365 41.6682 46.9775 44.7384 53.4042C45.9691 55.9803 46.355 58.9013 46.9293 61.7397L47.721 66.2096C47.9692 67.4442 48.7017 72.1078 50.6687 72.1078C52.4778 72.1078 53.348 71.1758 54.2777 69.8135C55.069 68.6541 55.611 67.5043 56.1264 66.1862L57.4845 62.1753C57.906 60.6997 58.2549 59.2765 58.5576 57.7749L59.8066 51.1358C59.9424 50.3202 59.9988 49.4368 60.1405 48.7286C60.4473 47.1918 60.4706 45.5076 60.7027 43.9247C60.9124 42.496 61.0135 40.3647 61.0135 38.7647C61.0135 37.9432 60.9065 37.4754 60.908 36.7658C60.9102 35.9013 60.8045 35.4932 60.1418 35.3084C58.5219 34.857 59.2186 37.1215 59.2186 38.0281L59.0231 42.1456C58.9375 42.944 58.9693 43.6331 58.8858 44.4281C58.7355 45.8637 58.5555 47.268 58.3417 48.7245C57.901 51.7306 57.3146 54.7419 56.7133 57.7254C56.1124 60.7078 53.6119 70.3193 51.0907 70.3193C50.5112 70.3193 50.147 68.5669 49.974 67.961C49.8282 67.4509 49.7319 66.9697 49.6399 66.5058C48.7734 62.1312 48.3138 57.6235 46.7181 53.4292C46.124 51.8672 44.9579 49.9136 42.9625 49.9136C39.5643 49.9136 38.7679 56.574 38.0133 59.2871C37.4455 61.3295 37.0615 64.0984 36.4644 66.4741C36.3134 67.0754 35.6225 70.3193 34.94 70.3193C34.3193 70.3193 33.7688 69.7317 33.4748 69.3599L32.5061 67.8012C30.6143 64.4101 29.8057 59.9293 28.9229 56.2248C28.2347 53.3351 27.1108 46.4068 27.023 43.4978C26.9977 42.6609 26.8016 42.1731 26.8116 41.1836C26.8212 40.2819 26.7061 39.7262 26.7061 38.7645C26.7061 33.7668 28.9979 25.6166 34.9398 25.6166C38.4293 25.6166 40.9691 29.5343 45.4223 27.647C47.7628 26.655 49.2119 25.6166 51.618 25.6166L49.2592 26.9473C48.8019 27.1781 48.4768 27.3857 48.0257 27.6118C46.7235 28.2637 47.0685 29.1888 48.2031 29.7553L49.5758 30.4913C50.169 30.789 51.8824 31.6166 52.2795 32.0048C52.7156 32.4309 54.5087 36.2129 54.9474 36.7091C55.1169 36.901 55.4109 37.0815 55.735 37.0815C56.5984 37.0815 57.1367 35.4552 57.5342 34.7721C57.7652 34.3747 58.0542 33.9204 58.2697 33.5067C58.3946 33.2661 58.4885 33.0824 58.6306 32.8146C58.7921 32.5104 58.7505 32.3879 58.963 32.0937C59.2578 31.685 59.7554 31.5792 60.2024 31.3301L62.9337 29.8444C63.577 29.4567 64.0743 29.3412 64.0743 28.5616C64.0743 27.8196 62.8119 27.3933 61.7475 26.7784L60.4506 26.0719C58.7701 25.1731 58.8211 25.1851 57.5996 22.7067C57.2531 22.0035 56.9687 21.3542 56.525 20.7275C56.2526 20.3425 55.8847 20.3575 55.4186 20.3575C54.933 20.3575 53.1566 23.8858 53.0961 24.144L53.0963 24.1443Z" fill="black"/>
<path fill-rule="evenodd" clip-rule="evenodd" d="M50.0293 28.6961C50.4116 28.2014 53.0749 27.1438 53.6422 26.5816C54.3067 25.9225 55.1322 23.4947 55.7644 22.9905C56.1044 23.5853 57.4919 26.3327 57.7901 26.6198C58.0987 26.9175 60.99 28.2585 61.4036 28.6578C60.6838 29.1238 58.2074 30.2696 57.7798 30.7045C57.3403 31.1523 56.3031 33.543 55.7354 34.2596C55.7158 34.2422 55.6916 34.2157 55.6809 34.2029L55.1525 33.3503C53.4415 30.0798 54.0484 30.7364 50.0293 28.6956V28.6961ZM53.0963 24.1443C52.7918 23.9988 51.4755 23.8287 50.9852 23.8287C47.8908 23.8287 45.6088 26.2887 43.0636 26.3497C41.6228 26.3842 40.3076 25.6183 39.0916 25.0563C36.8676 24.0287 35.0357 23.3104 32.5118 24.2489C32.1688 24.3764 31.7641 24.4982 31.4596 24.6732C30.5502 25.1957 29.6602 25.8196 28.9484 26.5883L28.2733 27.3881C26.2737 29.8685 25.0176 34.098 25.0176 37.3972L25.1239 42.8659C25.144 43.2958 25.2222 43.4782 25.2521 43.9896L25.6321 47.4083C25.8908 49.7286 26.3241 52.9799 26.8482 55.032C26.9454 55.4125 26.9855 55.7786 27.0672 56.1814L28.885 63.4161C29.418 65.0337 29.9594 66.7013 30.7178 68.2161C30.866 68.5119 30.9824 68.7473 31.1589 69.0392C32.2067 70.7708 33.1536 72.108 35.2571 72.108C37.5436 72.108 38.6156 65.3199 38.9604 63.5968C39.5124 60.8365 41.6682 46.9775 44.7384 53.4042C45.9691 55.9803 46.355 58.9013 46.9293 61.7397L47.721 66.2096C47.9692 67.4442 48.7017 72.1078 50.6687 72.1078C52.4778 72.1078 53.348 71.1758 54.2777 69.8135C55.069 68.6541 55.611 67.5043 56.1264 66.1862L57.4845 62.1753C57.906 60.6997 58.2549 59.2765 58.5576 57.7749L59.8066 51.1358C59.9424 50.3202 59.9988 49.4368 60.1405 48.7286C60.4473 47.1918 60.4706 45.5076 60.7027 43.9247C60.9124 42.496 61.0135 40.3647 61.0135 38.7647C61.0135 37.9432 60.9065 37.4754 60.908 36.7658C60.9102 35.9013 60.8045 35.4932 60.1418 35.3084C58.5219 34.857 59.2186 37.1215 59.2186 38.0281L59.0231 42.1456C58.9375 42.944 58.9693 43.6331 58.8858 44.4281C58.7355 45.8637 58.5555 47.268 58.3417 48.7245C57.901 51.7306 57.3146 54.7419 56.7133 57.7254C56.1124 60.7078 53.6119 70.3193 51.0907 70.3193C50.5112 70.3193 50.147 68.5669 49.974 67.961C49.8282 67.4509 49.7319 66.9697 49.6399 66.5058C48.7734 62.1312 48.3138 57.6235 46.7181 53.4292C46.124 51.8672 44.9579 49.9136 42.9625 49.9136C39.5643 49.9136 38.7679 56.574 38.0133 59.2871C37.4455 61.3295 37.0615 64.0984 36.4644 66.4741C36.3134 67.0754 35.6225 70.3193 34.94 70.3193C34.3193 70.3193 33.7688 69.7317 33.4748 69.3599L32.5061 67.8012C30.6143 64.4101 29.8057 59.9293 28.9229 56.2248C28.2347 53.3351 27.1108 46.4068 27.023 43.4978C26.9977 42.6609 26.8016 42.1731 26.8116 41.1836C26.8212 40.2819 26.7061 39.7262 26.7061 38.7645C26.7061 33.7668 28.9979 25.6166 34.9398 25.6166C38.4293 25.6166 40.9691 29.5343 45.4223 27.647C47.7628 26.655 49.2119 25.6166 51.618 25.6166L49.2592 26.9473C48.8019 27.1781 48.4768 27.3857 48.0257 27.6118C46.7235 28.2637 47.0685 29.1888 48.2031 29.7553L49.5758 30.4913C50.169 30.789 51.8824 31.6166 52.2795 32.0048C52.7156 32.4309 54.5087 36.2129 54.9474 36.7091C55.1169 36.901 55.4109 37.0815 55.735 37.0815C56.5984 37.0815 57.1367 35.4552 57.5342 34.7721C57.7652 34.3747 58.0542 33.9204 58.2697 33.5067C58.3946 33.2661 58.4885 33.0824 58.6306 32.8146C58.7921 32.5104 58.7505 32.3879 58.963 32.0937C59.2578 31.685 59.7554 31.5792 60.2024 31.3301L62.9337 29.8444C63.577 29.4567 64.0743 29.3412 64.0743 28.5616C64.0743 27.8196 62.8119 27.3933 61.7475 26.7784L60.4506 26.0719C58.7701 25.1731 58.8211 25.1851 57.5996 22.7067C57.2531 22.0035 56.9687 21.3542 56.525 20.7275C56.2526 20.3425 55.8847 20.3575 55.4186 20.3575C54.933 20.3575 53.1566 23.8858 53.0961 24.144L53.0963 24.1443Z" fill="black"/>
<path fill-rule="evenodd" clip-rule="evenodd" d="M49.8711 28.6953C53.8902 30.7362 53.2832 30.0795 54.9942 33.3501L55.5227 34.2026C55.5332 34.2152 55.5576 34.2419 55.5772 34.2593C56.1449 33.5427 57.182 31.1518 57.6216 30.7042C58.0492 30.2693 60.5258 29.1236 61.2454 28.6576C60.8317 28.258 57.9404 26.9171 57.6318 26.6196C57.3339 26.3325 55.9461 23.585 55.6062 22.9902C54.974 23.4945 54.1484 25.9223 53.484 26.5813C52.9167 27.1435 50.2531 28.2004 49.8711 28.6953Z" fill="#9D9E9E"/>
<path fill-rule="evenodd" clip-rule="evenodd" d="M41.9035 38.45C42.3531 38.1694 43.4774 37.6354 43.694 37.3907C43.9819 37.0649 44.3715 36.096 44.6936 35.6591C45.4499 36.5134 45.0467 37.5674 47.5313 38.4026C47.3008 38.699 46.9817 38.835 46.6042 39.0282C45.6445 39.5199 45.6961 39.5281 45.2012 40.4712C45.0563 40.7477 44.8843 41.1019 44.6346 41.3064C44.4833 40.9273 43.8485 39.7516 43.5905 39.5071C43.1389 39.0791 42.2593 38.9097 41.9032 38.4502L41.9035 38.45ZM39.1621 38.45C39.1621 38.911 39.4088 39.1138 39.6912 39.2903L42.34 40.7533C43.4697 41.8061 44.1484 46.3318 45.9895 42.623C46.1788 42.2415 46.2863 42.0912 46.4796 41.7442C47.1053 40.6209 46.8937 40.7359 48.7683 39.8172C49.4637 39.4767 50.2461 39.1418 50.2461 38.45C50.2461 37.4054 47.766 36.9157 47.0336 36.1815C46.3621 35.5088 45.7609 32.9805 44.7571 32.9805C43.5783 32.9805 43.2257 35.1742 42.4097 36.111L39.7928 37.6057C39.44 37.7881 39.1623 37.9162 39.1623 38.45H39.1621Z" fill="black"/>
<path fill-rule="evenodd" clip-rule="evenodd" d="M29.1338 34.242C29.1338 34.9045 29.3223 35.8066 30.2241 35.5462C31.5838 35.1538 30.1245 33.6785 32.1321 31.1289C34.6804 27.8928 37.5784 29.7297 37.5784 28.0359C37.5784 26.295 33.3357 27.3706 31.3231 29.376C30.3326 30.363 29.1338 32.3254 29.1338 34.2418V34.242Z" fill="black"/>
<path fill-rule="evenodd" clip-rule="evenodd" d="M41.9033 38.4493C42.2594 38.9088 43.139 39.0784 43.5905 39.5062C43.8486 39.7507 44.4832 40.9264 44.6347 41.3055C44.8842 41.101 45.0561 40.7468 45.2013 40.4704C45.6962 39.527 45.6445 39.519 46.6043 39.0274C46.9818 38.8341 47.3008 38.6982 47.5314 38.4017C45.0468 37.5666 45.4499 36.5127 44.6937 35.6582C44.3714 36.0951 43.982 37.0638 43.6941 37.3898C43.4774 37.6345 42.3531 38.1685 41.9035 38.4491L41.9033 38.4493Z" fill="#9D9E9E"/>
</svg>
