<svg width="20" height="26" viewBox="0 0 20 26" fill="none" xmlns="http://www.w3.org/2000/svg">
<path fill-rule="evenodd" clip-rule="evenodd" d="M2.72303 0.343089C2.72303 0.343089 0.294532 1.29483 0.0742391 2.39949C-0.14664 3.50356 0.0742391 5.21812 1.43818 8.67245C2.51562 11.3969 3.90241 13.6926 5.2312 15.6764C6.7422 17.9338 8.38502 20.1599 10.7514 22.4406C13.4014 24.9929 15.1198 25.8259 16.2078 25.9902C17.2969 26.1564 19.0019 24.1461 19.0019 24.1461C19.0019 24.1461 20.4015 22.7974 19.886 21.592C19.3692 20.3854 16.9987 17.6705 16.6612 17.7023C16.3244 17.7328 14.7372 19.1116 14.5304 19.2591C14.3241 19.4078 13.4869 19.5338 12.2976 18.0213C8.94279 13.7508 8.83967 13.6027 6.05027 8.88654C5.06891 7.22655 5.47317 6.46492 5.67882 6.31619C5.88505 6.16866 7.59994 5.17315 7.74406 4.8601C7.88819 4.54705 6.20729 1.33681 5.27807 0.427048C4.34769 -0.48211 2.72303 0.343089 2.72303 0.343089Z" fill="white"/>
</svg>
