<svg width="24" height="30" viewBox="0 0 24 30" fill="none" xmlns="http://www.w3.org/2000/svg">
<path fill-rule="evenodd" clip-rule="evenodd" d="M3.34673 0.395872C3.34673 0.395872 0.552511 1.49403 0.299042 2.76864C0.0448997 4.04256 0.299042 6.02091 1.86839 10.0067C3.10809 13.1503 4.70373 15.7992 6.23263 18.0882C7.97119 20.6928 9.86141 23.2614 12.5842 25.893C15.6332 28.838 17.6104 29.7991 18.8622 29.9887C20.1154 30.1804 22.0771 27.8609 22.0771 27.8609C22.0771 27.8609 23.6876 26.3047 23.0944 24.9138C22.4998 23.5216 19.7723 20.389 19.384 20.4257C18.9964 20.461 17.1702 22.0518 16.9322 22.2221C16.695 22.3937 15.7316 22.539 14.3632 20.7938C10.5032 15.8663 10.3845 15.6954 7.17505 10.2537C6.0459 8.33833 6.51104 7.45952 6.74766 7.28791C6.98495 7.11769 8.95809 5.96901 9.12393 5.6078C9.28976 5.2466 7.35571 1.54247 6.28656 0.492748C5.21606 -0.556281 3.34673 0.395872 3.34673 0.395872Z" fill="#E32E16"/>
</svg>
