<svg width="60" height="60" viewBox="0 0 60 60" fill="none" xmlns="http://www.w3.org/2000/svg">
<circle cx="30" cy="30" r="30" fill="#E31E24" fill-opacity="0.2"/>
<circle cx="30.3891" cy="30.3896" r="25.7143" fill="#E31E24" fill-opacity="0.2"/>
<circle cx="30.3894" cy="30.3894" r="22.5974" fill="#E31E24"/>
<g clip-path="url(#clip0_301_990)">
<path fill-rule="evenodd" clip-rule="evenodd" d="M21.7797 15.9644C21.7797 15.9644 19.0359 17.0198 18.787 18.2448C18.5374 19.4691 18.787 21.3704 20.328 25.2009C21.5454 28.222 23.1123 30.7677 24.6136 32.9676C26.3208 35.4707 28.1769 37.9393 30.8506 40.4683C33.8446 43.2986 35.7862 44.2224 37.0154 44.4046C38.246 44.5888 40.1723 42.3596 40.1723 42.3596C40.1723 42.3596 41.7537 40.864 41.1712 39.5273C40.5874 38.1893 37.9091 35.1788 37.5278 35.214C37.1471 35.2479 35.3539 36.7768 35.1202 36.9404C34.8872 37.1053 33.9413 37.245 32.5975 35.5678C28.8071 30.8322 28.6906 30.668 25.539 25.4383C24.4302 23.5975 24.887 22.7529 25.1193 22.588C25.3523 22.4244 27.2899 21.3205 27.4527 20.9733C27.6156 20.6262 25.7164 17.0664 24.6665 16.0575C23.6153 15.0494 21.7797 15.9644 21.7797 15.9644Z" fill="white"/>
</g>
<defs>
<clipPath id="clip0_301_990">
<rect width="22.5974" height="28.8312" fill="white" transform="translate(18.7021 15.5845)"/>
</clipPath>
</defs>
</svg>
