<svg width="31" height="31" viewBox="0 0 31 31" fill="none" xmlns="http://www.w3.org/2000/svg">
<path fill-rule="evenodd" clip-rule="evenodd" d="M30 15.5C30 23.5081 23.5081 30 15.5 30C7.49187 30 1 23.5081 1 15.5C1 7.49187 7.49187 1 15.5 1C23.5081 1 30 7.49187 30 15.5ZM31 15.5C31 24.0604 24.0604 31 15.5 31C6.93959 31 0 24.0604 0 15.5C0 6.93959 6.93959 0 15.5 0C24.0604 0 31 6.93959 31 15.5ZM12.5606 12.3934C12.6727 15.2008 15.4762 18.9254 16.8967 19.7115V19.6928C17.2847 19.5402 17.6471 19.3 18.0047 19.0631C18.6116 18.6608 19.205 18.2676 19.8871 18.3265C20.0553 18.3452 24.5783 20.4415 23.9428 22.5565C23.8307 22.9308 22.6158 24.8773 22.3355 25.2329C20.915 27.0484 18.0555 25.2329 16.4481 24.1848C10.0935 20.0859 6.48634 11.0832 8.617 5.97356C9.06619 4.90731 10.3891 4.96812 11.8212 5.03396C11.9979 5.04208 12.1764 5.05028 12.355 5.05645C14.0932 5.1126 14.523 5.28105 14.8782 6.89068C15.7379 10.7276 15.6258 11.0458 12.5606 12.3934Z" fill="#E32E16"/>
</svg>
