<svg width="176" height="57" viewBox="0 0 176 57" fill="none" xmlns="http://www.w3.org/2000/svg">
<g filter="url(#filter0_di_272_179)">
<rect x="4" width="168" height="49" rx="10" fill="#024FA2" shape-rendering="crispEdges"/>
<g clip-path="url(#clip0_272_179)">
<path d="M24.7139 15.498H38.6796V30.1685H24.7139V15.498Z" fill="white"/>
<path fill-rule="evenodd" clip-rule="evenodd" d="M40.7534 12.6955C35.0272 11.1002 29.0039 11.1002 23.2777 12.6955C22.3356 12.9585 21.4828 13.4939 20.8163 14.2409C20.1498 14.9878 19.6964 15.9162 19.5077 16.9205C18.8317 20.5434 18.8317 24.2696 19.5077 27.8925C19.6969 28.8975 20.1512 29.8265 20.8188 30.5735C21.4865 31.3205 22.3407 31.8555 23.2839 32.1175C26.7455 33.0829 30.3305 33.469 33.9068 33.2615C34.3699 33.2334 34.8258 33.3914 35.182 33.7035L39.3977 37.4345C39.4354 37.4699 39.4821 37.493 39.5321 37.5009C39.5821 37.5089 39.6332 37.5014 39.6792 37.4793C39.7252 37.4572 39.764 37.4216 39.791 37.3766C39.818 37.3317 39.8319 37.2795 39.831 37.2265V32.8975C39.831 32.5855 40.0291 32.3125 40.3201 32.2345L40.7534 32.1175C41.6967 31.8555 42.5508 31.3205 43.2185 30.5735C43.8861 29.8265 44.3405 28.8975 44.5296 27.8925C45.2056 24.2696 45.2056 20.5434 44.5296 16.9205C44.3405 15.9154 43.8861 14.9865 43.2185 14.2394C42.5508 13.4924 41.6967 12.9574 40.7534 12.6955ZM37.4415 16.329C37.8315 16.329 38.1472 16.6605 38.1472 17.07V19.67C38.1472 20.0795 37.8315 20.411 37.4415 20.411H34.9591C34.5629 20.411 34.2472 20.749 34.2472 21.1585V28.2175C34.2472 28.627 33.9315 28.9585 33.5415 28.9585H30.7001C30.5129 28.9585 30.3334 28.8804 30.2011 28.7414C30.0687 28.6025 29.9944 28.414 29.9944 28.2175V21.1585C29.9944 20.749 29.6725 20.411 29.2825 20.411H26.8063C26.7131 20.4118 26.6206 20.3933 26.5343 20.3564C26.448 20.3196 26.3694 20.2651 26.3033 20.1962C26.2371 20.1273 26.1845 20.0454 26.1487 19.955C26.1128 19.8647 26.0944 19.7678 26.0944 19.67V17.07C26.0944 16.6605 26.4039 16.329 26.8001 16.329H37.4477H37.4415Z" fill="#FC3234"/>
</g>
<path d="M60.9732 33V18.288H55.2132V16.2H69.1092V18.288H63.3492V33H60.9732ZM75.7386 33.144C74.3786 33.144 73.1786 32.864 72.1386 32.304C71.1146 31.744 70.3146 30.976 69.7386 30C69.1786 29.024 68.8986 27.904 68.8986 26.64C68.8986 25.376 69.1706 24.256 69.7146 23.28C70.2746 22.304 71.0346 21.544 71.9946 21C72.9706 20.44 74.0666 20.16 75.2826 20.16C76.5146 20.16 77.6026 20.432 78.5466 20.976C79.4906 21.52 80.2266 22.288 80.7546 23.28C81.2986 24.256 81.5706 25.4 81.5706 26.712C81.5706 26.808 81.5626 26.92 81.5466 27.048C81.5466 27.176 81.5386 27.296 81.5226 27.408H70.6986V25.752H80.3226L79.3866 26.328C79.4026 25.512 79.2346 24.784 78.8826 24.144C78.5306 23.504 78.0426 23.008 77.4186 22.656C76.8106 22.288 76.0986 22.104 75.2826 22.104C74.4826 22.104 73.7706 22.288 73.1466 22.656C72.5226 23.008 72.0346 23.512 71.6826 24.168C71.3306 24.808 71.1546 25.544 71.1546 26.376V26.76C71.1546 27.608 71.3466 28.368 71.7306 29.04C72.1306 29.696 72.6826 30.208 73.3866 30.576C74.0906 30.944 74.8986 31.128 75.8106 31.128C76.5626 31.128 77.2426 31 77.8506 30.744C78.4746 30.488 79.0186 30.104 79.4826 29.592L80.7546 31.08C80.1786 31.752 79.4586 32.264 78.5946 32.616C77.7466 32.968 76.7946 33.144 75.7386 33.144ZM91.5619 20.16C92.6019 20.16 93.5139 20.36 94.2979 20.76C95.0979 21.16 95.7219 21.768 96.1699 22.584C96.6179 23.4 96.8419 24.432 96.8419 25.68V33H94.5379V25.944C94.5379 24.712 94.2339 23.784 93.6259 23.16C93.0339 22.536 92.1939 22.224 91.1059 22.224C90.2899 22.224 89.5779 22.384 88.9699 22.704C88.3619 23.024 87.8899 23.496 87.5539 24.12C87.2339 24.744 87.0739 25.52 87.0739 26.448V33H84.7699V20.28H86.9779V23.712L86.6179 22.8C87.0339 21.968 87.6739 21.32 88.5379 20.856C89.4019 20.392 90.4099 20.16 91.5619 20.16ZM108.954 33.192C107.674 33.192 106.49 32.984 105.402 32.568C104.33 32.136 103.394 31.536 102.594 30.768C101.81 29.984 101.194 29.072 100.746 28.032C100.298 26.992 100.074 25.848 100.074 24.6C100.074 23.352 100.298 22.208 100.746 21.168C101.194 20.128 101.818 19.224 102.618 18.456C103.418 17.672 104.354 17.072 105.426 16.656C106.514 16.224 107.698 16.008 108.978 16.008C110.274 16.008 111.466 16.232 112.554 16.68C113.658 17.112 114.594 17.76 115.362 18.624L113.802 20.136C113.162 19.464 112.442 18.968 111.642 18.648C110.842 18.312 109.986 18.144 109.074 18.144C108.13 18.144 107.25 18.304 106.434 18.624C105.634 18.944 104.938 19.392 104.346 19.968C103.754 20.544 103.29 21.232 102.954 22.032C102.634 22.816 102.474 23.672 102.474 24.6C102.474 25.528 102.634 26.392 102.954 27.192C103.29 27.976 103.754 28.656 104.346 29.232C104.938 29.808 105.634 30.256 106.434 30.576C107.25 30.896 108.13 31.056 109.074 31.056C109.986 31.056 110.842 30.896 111.642 30.576C112.442 30.24 113.162 29.728 113.802 29.04L115.362 30.552C114.594 31.416 113.658 32.072 112.554 32.52C111.466 32.968 110.266 33.192 108.954 33.192ZM125.242 20.16C126.282 20.16 127.194 20.36 127.978 20.76C128.778 21.16 129.402 21.768 129.85 22.584C130.298 23.4 130.522 24.432 130.522 25.68V33H128.218V25.944C128.218 24.712 127.914 23.784 127.306 23.16C126.714 22.536 125.874 22.224 124.786 22.224C123.97 22.224 123.258 22.384 122.65 22.704C122.042 23.024 121.57 23.496 121.234 24.12C120.914 24.744 120.754 25.52 120.754 26.448V33H118.45V15.192H120.754V23.712L120.298 22.8C120.714 21.968 121.354 21.32 122.218 20.856C123.082 20.392 124.09 20.16 125.242 20.16ZM142.682 33V30.312L142.562 29.808V25.224C142.562 24.248 142.274 23.496 141.698 22.968C141.138 22.424 140.29 22.152 139.154 22.152C138.402 22.152 137.666 22.28 136.946 22.536C136.226 22.776 135.618 23.104 135.122 23.52L134.162 21.792C134.818 21.264 135.602 20.864 136.514 20.592C137.442 20.304 138.41 20.16 139.418 20.16C141.162 20.16 142.506 20.584 143.45 21.432C144.394 22.28 144.866 23.576 144.866 25.32V33H142.682ZM138.506 33.144C137.562 33.144 136.73 32.984 136.01 32.664C135.306 32.344 134.762 31.904 134.378 31.344C133.994 30.768 133.802 30.12 133.802 29.4C133.802 28.712 133.962 28.088 134.282 27.528C134.618 26.968 135.154 26.52 135.89 26.184C136.642 25.848 137.65 25.68 138.914 25.68H142.946V27.336H139.01C137.858 27.336 137.082 27.528 136.682 27.912C136.282 28.296 136.082 28.76 136.082 29.304C136.082 29.928 136.33 30.432 136.826 30.816C137.322 31.184 138.01 31.368 138.89 31.368C139.754 31.368 140.506 31.176 141.146 30.792C141.802 30.408 142.274 29.848 142.562 29.112L143.018 30.696C142.714 31.448 142.178 32.048 141.41 32.496C140.642 32.928 139.674 33.144 138.506 33.144ZM153.497 33.144C152.217 33.144 151.225 32.8 150.521 32.112C149.817 31.424 149.465 30.44 149.465 29.16V17.496H151.769V29.064C151.769 29.752 151.937 30.28 152.273 30.648C152.625 31.016 153.121 31.2 153.761 31.2C154.481 31.2 155.081 31 155.561 30.6L156.281 32.256C155.929 32.56 155.505 32.784 155.009 32.928C154.529 33.072 154.025 33.144 153.497 33.144ZM147.305 22.176V20.28H155.417V22.176H147.305Z" fill="white"/>
</g>
<defs>
<filter id="filter0_di_272_179" x="0" y="0" width="176" height="57" filterUnits="userSpaceOnUse" color-interpolation-filters="sRGB">
<feFlood flood-opacity="0" result="BackgroundImageFix"/>
<feColorMatrix in="SourceAlpha" type="matrix" values="0 0 0 0 0 0 0 0 0 0 0 0 0 0 0 0 0 0 127 0" result="hardAlpha"/>
<feOffset dy="4"/>
<feGaussianBlur stdDeviation="2"/>
<feComposite in2="hardAlpha" operator="out"/>
<feColorMatrix type="matrix" values="0 0 0 0 0 0 0 0 0 0 0 0 0 0 0 0 0 0 0.25 0"/>
<feBlend mode="normal" in2="BackgroundImageFix" result="effect1_dropShadow_272_179"/>
<feBlend mode="normal" in="SourceGraphic" in2="effect1_dropShadow_272_179" result="shape"/>
<feColorMatrix in="SourceAlpha" type="matrix" values="0 0 0 0 0 0 0 0 0 0 0 0 0 0 0 0 0 0 127 0" result="hardAlpha"/>
<feOffset/>
<feGaussianBlur stdDeviation="2"/>
<feComposite in2="hardAlpha" operator="arithmetic" k2="-1" k3="1"/>
<feColorMatrix type="matrix" values="0 0 0 0 0 0 0 0 0 0 0 0 0 0 0 0 0 0 0.25 0"/>
<feBlend mode="normal" in2="shape" result="effect2_innerShadow_272_179"/>
</filter>
<clipPath id="clip0_272_179">
<rect width="26" height="26" fill="white" transform="translate(19 11.5)"/>
</clipPath>
</defs>
</svg>
