<svg width="262" height="303" viewBox="0 0 262 303" fill="none" xmlns="http://www.w3.org/2000/svg">
<path d="M75.2601 52.367L75.2607 52.3667L132 19.6986L188.739 52.3667L188.74 52.367L245.475 85.0569L245.475 150.386L245.475 215.74L188.74 248.43L188.739 248.431L132 281.099L75.2607 248.431L75.2601 248.43L18.5248 215.74L18.5248 150.386L18.5248 85.0569L75.2601 52.367Z" fill="#F8F8F8" stroke="#4D4D4D" stroke-width="4.40566"/>
<path d="M55.4426 186.801L55.4426 177.077H52.7146L52.7146 181.169C52.7146 182.475 52.6449 183.597 52.5056 184.535C52.3736 185.474 52.1793 186.251 51.9226 186.867C51.6733 187.483 51.3359 187.971 50.9106 188.33C50.4926 188.69 50.0269 188.943 49.5136 189.089C49.0003 189.236 48.3879 189.309 47.6766 189.309C47.1853 189.309 46.8369 189.298 46.6316 189.276C46.4263 189.247 46.2319 189.188 46.0486 189.1C45.8066 188.983 45.6049 188.785 45.4436 188.506C45.2896 188.228 45.2126 187.92 45.2126 187.582C45.2126 187.069 45.3739 186.651 45.6966 186.328C45.9826 186.042 46.4043 185.888 46.9616 185.866C47.2403 185.852 47.4859 185.789 47.6986 185.679C47.9113 185.562 48.0873 185.423 48.2266 185.261C48.3733 185.093 48.4943 184.869 48.5896 184.59C48.6923 184.312 48.7693 184.051 48.8206 183.809C48.8719 183.567 48.9123 183.256 48.9416 182.874C48.9709 182.493 48.9856 182.17 48.9856 181.906C48.9929 181.642 48.9966 181.301 48.9966 180.883L48.9966 176.01C48.9966 175.746 49.0003 175.537 49.0076 175.383C49.0223 175.229 49.0699 175.035 49.1506 174.8C49.2386 174.558 49.3669 174.353 49.5356 174.184C49.7043 174.016 49.9059 173.891 50.1406 173.81C50.3826 173.722 50.5806 173.675 50.7346 173.667C50.8886 173.653 51.0976 173.645 51.3616 173.645H56.9496C57.2136 173.645 57.4226 173.653 57.5766 173.667C57.7306 173.675 57.9249 173.722 58.1596 173.81C58.4016 173.891 58.6069 174.016 58.7756 174.184C58.9443 174.353 59.0689 174.558 59.1496 174.8C59.2376 175.035 59.2853 175.229 59.2926 175.383C59.3073 175.537 59.3146 175.746 59.3146 176.01L59.3146 186.801C59.3146 187.278 59.2999 187.619 59.2706 187.824C59.2486 188.022 59.1826 188.231 59.0726 188.451C58.9333 188.73 58.7096 188.957 58.4016 189.133C58.1009 189.309 57.7599 189.397 57.3786 189.397C56.9973 189.397 56.6526 189.309 56.3446 189.133C56.0439 188.957 55.8239 188.73 55.6846 188.451C55.5746 188.231 55.5049 188.022 55.4756 187.824C55.4536 187.619 55.4426 187.278 55.4426 186.801ZM70.9158 189.309H64.8108C64.5468 189.309 64.3378 189.306 64.1838 189.298C64.0298 189.284 63.8318 189.236 63.5898 189.155C63.3552 189.067 63.1535 188.939 62.9848 188.77C62.8162 188.602 62.6878 188.4 62.5998 188.165C62.5192 187.923 62.4715 187.725 62.4568 187.571C62.4495 187.417 62.4458 187.208 62.4458 186.944L62.4458 176.01C62.4458 175.746 62.4495 175.537 62.4568 175.383C62.4715 175.229 62.5192 175.035 62.5998 174.8C62.6878 174.558 62.8162 174.353 62.9848 174.184C63.1535 174.016 63.3552 173.891 63.5898 173.81C63.8318 173.722 64.0298 173.675 64.1838 173.667C64.3378 173.653 64.5468 173.645 64.8108 173.645H70.9158C71.3338 173.645 71.6382 173.66 71.8288 173.689C72.0195 173.711 72.2065 173.766 72.3898 173.854C72.6392 173.972 72.8408 174.17 72.9948 174.448C73.1488 174.72 73.2258 175.024 73.2258 175.361C73.2258 175.699 73.1488 176.007 72.9948 176.285C72.8408 176.557 72.6392 176.751 72.3898 176.868C72.2065 176.956 72.0195 177.015 71.8288 177.044C71.6382 177.066 71.3338 177.077 70.9158 177.077H66.3178L66.3178 179.695H69.9258C70.3438 179.695 70.6482 179.71 70.8388 179.739C71.0295 179.761 71.2165 179.816 71.3998 179.904C71.6492 180.022 71.8508 180.22 72.0048 180.498C72.1588 180.77 72.2358 181.074 72.2358 181.411C72.2358 181.749 72.1588 182.057 72.0048 182.335C71.8508 182.607 71.6492 182.801 71.3998 182.918C71.2165 183.006 71.0295 183.065 70.8388 183.094C70.6482 183.116 70.3438 183.127 69.9258 183.127H66.3178L66.3178 185.877H70.9158C71.3338 185.877 71.6382 185.892 71.8288 185.921C72.0195 185.943 72.2065 185.998 72.3898 186.086C72.6392 186.204 72.8408 186.402 72.9948 186.68C73.1488 186.952 73.2258 187.256 73.2258 187.593C73.2258 187.931 73.1488 188.239 72.9948 188.517C72.8408 188.789 72.6392 188.983 72.3898 189.1C72.2065 189.188 72.0195 189.247 71.8288 189.276C71.6382 189.298 71.3338 189.309 70.9158 189.309ZM83.1136 186.801L83.1136 183.743C81.8596 183.963 80.6753 184.073 79.5606 184.073C78.8273 184.073 78.1526 183.93 77.5366 183.644C76.9279 183.358 76.4293 182.926 76.0406 182.346C75.6519 181.76 75.4576 181.081 75.4576 180.311L75.4576 176.153C75.4576 175.677 75.4686 175.339 75.4906 175.141C75.5199 174.936 75.5896 174.723 75.6996 174.503C75.8389 174.225 76.0589 173.997 76.3596 173.821C76.6676 173.645 77.0123 173.557 77.3936 173.557C77.7749 173.557 78.1159 173.645 78.4166 173.821C78.7246 173.997 78.9483 174.225 79.0876 174.503C79.1976 174.723 79.2636 174.936 79.2856 175.141C79.3149 175.339 79.3296 175.677 79.3296 176.153L79.3296 179.233C79.3296 179.673 79.4543 180.014 79.7036 180.256C79.9603 180.498 80.3233 180.619 80.7926 180.619C81.6066 180.619 82.3803 180.553 83.1136 180.421L83.1136 176.153C83.1136 175.677 83.1246 175.339 83.1466 175.141C83.176 174.936 83.2456 174.723 83.3556 174.503C83.495 174.225 83.715 173.997 84.0156 173.821C84.3236 173.645 84.6683 173.557 85.0496 173.557C85.4309 173.557 85.7719 173.645 86.0726 173.821C86.3806 173.997 86.6043 174.225 86.7436 174.503C86.8536 174.723 86.9196 174.936 86.9416 175.141C86.971 175.339 86.9856 175.677 86.9856 176.153L86.9856 186.801C86.9856 187.278 86.971 187.619 86.9416 187.824C86.9196 188.022 86.8536 188.231 86.7436 188.451C86.6043 188.73 86.3806 188.957 86.0726 189.133C85.7719 189.309 85.4309 189.397 85.0496 189.397C84.6683 189.397 84.3236 189.309 84.0156 189.133C83.715 188.957 83.495 188.73 83.3556 188.451C83.2456 188.231 83.176 188.022 83.1466 187.824C83.1246 187.619 83.1136 187.278 83.1136 186.801ZM98.5877 189.309H92.4827C92.2187 189.309 92.0097 189.306 91.8557 189.298C91.7017 189.284 91.5037 189.236 91.2617 189.155C91.027 189.067 90.8254 188.939 90.6567 188.77C90.488 188.602 90.3597 188.4 90.2717 188.165C90.191 187.923 90.1434 187.725 90.1287 187.571C90.1214 187.417 90.1177 187.208 90.1177 186.944L90.1177 176.01C90.1177 175.746 90.1214 175.537 90.1287 175.383C90.1434 175.229 90.191 175.035 90.2717 174.8C90.3597 174.558 90.488 174.353 90.6567 174.184C90.8254 174.016 91.027 173.891 91.2617 173.81C91.5037 173.722 91.7017 173.675 91.8557 173.667C92.0097 173.653 92.2187 173.645 92.4827 173.645H98.5877C99.0057 173.645 99.31 173.66 99.5007 173.689C99.6914 173.711 99.8784 173.766 100.062 173.854C100.311 173.972 100.513 174.17 100.667 174.448C100.821 174.72 100.898 175.024 100.898 175.361C100.898 175.699 100.821 176.007 100.667 176.285C100.513 176.557 100.311 176.751 100.062 176.868C99.8784 176.956 99.6914 177.015 99.5007 177.044C99.31 177.066 99.0057 177.077 98.5877 177.077H93.9897L93.9897 179.695H97.5977C98.0157 179.695 98.32 179.71 98.5107 179.739C98.7014 179.761 98.8884 179.816 99.0717 179.904C99.321 180.022 99.5227 180.22 99.6767 180.498C99.8307 180.77 99.9077 181.074 99.9077 181.411C99.9077 181.749 99.8307 182.057 99.6767 182.335C99.5227 182.607 99.321 182.801 99.0717 182.918C98.8884 183.006 98.7014 183.065 98.5107 183.094C98.32 183.116 98.0157 183.127 97.5977 183.127H93.9897L93.9897 185.877H98.5877C99.0057 185.877 99.31 185.892 99.5007 185.921C99.6914 185.943 99.8784 185.998 100.062 186.086C100.311 186.204 100.513 186.402 100.667 186.68C100.821 186.952 100.898 187.256 100.898 187.593C100.898 187.931 100.821 188.239 100.667 188.517C100.513 188.789 100.311 188.983 100.062 189.1C99.8784 189.188 99.6914 189.247 99.5007 189.276C99.31 189.298 99.0057 189.309 98.5877 189.309ZM115.295 186.801C115.295 187.278 115.281 187.619 115.251 187.824C115.229 188.022 115.163 188.231 115.053 188.451C114.914 188.73 114.69 188.957 114.382 189.133C114.082 189.309 113.741 189.397 113.359 189.397C112.978 189.397 112.633 189.309 112.325 189.133C112.025 188.957 111.805 188.73 111.665 188.451C111.555 188.231 111.486 188.022 111.456 187.824C111.434 187.619 111.423 187.278 111.423 186.801L111.423 183.105H107.331L107.331 186.801C107.331 187.278 107.317 187.619 107.287 187.824C107.265 188.022 107.199 188.231 107.089 188.451C106.95 188.73 106.726 188.957 106.418 189.133C106.118 189.309 105.777 189.397 105.395 189.397C105.014 189.397 104.669 189.309 104.361 189.133C104.061 188.957 103.841 188.73 103.701 188.451C103.591 188.231 103.522 188.022 103.492 187.824C103.47 187.619 103.459 187.278 103.459 186.801L103.459 176.153C103.459 175.677 103.47 175.339 103.492 175.141C103.522 174.936 103.591 174.723 103.701 174.503C103.841 174.225 104.061 173.997 104.361 173.821C104.669 173.645 105.014 173.557 105.395 173.557C105.777 173.557 106.118 173.645 106.418 173.821C106.726 173.997 106.95 174.225 107.089 174.503C107.199 174.723 107.265 174.936 107.287 175.141C107.317 175.339 107.331 175.677 107.331 176.153L107.331 179.673H111.423L111.423 176.153C111.423 175.677 111.434 175.339 111.456 175.141C111.486 174.936 111.555 174.723 111.665 174.503C111.805 174.225 112.025 173.997 112.325 173.821C112.633 173.645 112.978 173.557 113.359 173.557C113.741 173.557 114.082 173.645 114.382 173.821C114.69 173.997 114.914 174.225 115.053 174.503C115.163 174.723 115.229 174.936 115.251 175.141C115.281 175.339 115.295 175.677 115.295 176.153L115.295 186.801ZM130.689 186.801C130.689 187.278 130.674 187.619 130.645 187.824C130.623 188.022 130.557 188.231 130.447 188.451C130.307 188.73 130.084 188.957 129.776 189.133C129.475 189.309 129.134 189.397 128.753 189.397C128.371 189.397 128.027 189.309 127.719 189.133C127.418 188.957 127.198 188.73 127.059 188.451C126.949 188.231 126.879 188.022 126.85 187.824C126.828 187.619 126.817 187.278 126.817 186.801L126.817 180.993L122.604 187.626C122.186 188.279 121.808 188.737 121.471 189.001C121.141 189.265 120.748 189.397 120.294 189.397C119.751 189.397 119.296 189.214 118.93 188.847C118.724 188.642 118.585 188.393 118.512 188.099C118.446 187.806 118.413 187.443 118.413 187.01L118.413 176.153C118.413 175.677 118.424 175.339 118.446 175.141C118.475 174.936 118.545 174.723 118.655 174.503C118.794 174.225 119.014 173.997 119.315 173.821C119.623 173.645 119.967 173.557 120.349 173.557C120.73 173.557 121.071 173.645 121.372 173.821C121.68 173.997 121.903 174.225 122.043 174.503C122.153 174.723 122.219 174.936 122.241 175.141C122.27 175.339 122.285 175.677 122.285 176.153L122.285 181.961L126.498 175.328C126.916 174.676 127.29 174.217 127.62 173.953C127.957 173.689 128.353 173.557 128.808 173.557C129.35 173.557 129.805 173.741 130.172 174.107C130.377 174.313 130.513 174.562 130.579 174.855C130.652 175.149 130.689 175.512 130.689 175.944L130.689 186.801ZM142.287 189.309H136.182C135.918 189.309 135.709 189.306 135.555 189.298C135.401 189.284 135.203 189.236 134.961 189.155C134.726 189.067 134.525 188.939 134.356 188.77C134.187 188.602 134.059 188.4 133.971 188.165C133.89 187.923 133.843 187.725 133.828 187.571C133.821 187.417 133.817 187.208 133.817 186.944L133.817 176.01C133.817 175.746 133.821 175.537 133.828 175.383C133.843 175.229 133.89 175.035 133.971 174.8C134.059 174.558 134.187 174.353 134.356 174.184C134.525 174.016 134.726 173.891 134.961 173.81C135.203 173.722 135.401 173.675 135.555 173.667C135.709 173.653 135.918 173.645 136.182 173.645H142.287C142.705 173.645 143.009 173.66 143.2 173.689C143.391 173.711 143.578 173.766 143.761 173.854C144.01 173.972 144.212 174.17 144.366 174.448C144.52 174.72 144.597 175.024 144.597 175.361C144.597 175.699 144.52 176.007 144.366 176.285C144.212 176.557 144.01 176.751 143.761 176.868C143.578 176.956 143.391 177.015 143.2 177.044C143.009 177.066 142.705 177.077 142.287 177.077H137.689L137.689 179.695H141.297C141.715 179.695 142.019 179.71 142.21 179.739C142.401 179.761 142.588 179.816 142.771 179.904C143.02 180.022 143.222 180.22 143.376 180.498C143.53 180.77 143.607 181.074 143.607 181.411C143.607 181.749 143.53 182.057 143.376 182.335C143.222 182.607 143.02 182.801 142.771 182.918C142.588 183.006 142.401 183.065 142.21 183.094C142.019 183.116 141.715 183.127 141.297 183.127H137.689L137.689 185.877H142.287C142.705 185.877 143.009 185.892 143.2 185.921C143.391 185.943 143.578 185.998 143.761 186.086C144.01 186.204 144.212 186.402 144.366 186.68C144.52 186.952 144.597 187.256 144.597 187.593C144.597 187.931 144.52 188.239 144.366 188.517C144.212 188.789 144.01 188.983 143.761 189.1C143.578 189.188 143.391 189.247 143.2 189.276C143.009 189.298 142.705 189.309 142.287 189.309ZM151.464 177.517C151.464 176.527 151.929 175.618 152.861 174.789C153.403 174.313 154.016 173.983 154.698 173.799C155.387 173.609 156.219 173.513 157.195 173.513C158.881 173.513 160.249 173.92 161.298 174.734C162.346 175.541 162.871 176.615 162.871 177.957C162.871 178.639 162.695 179.266 162.343 179.838C161.998 180.41 161.543 180.869 160.979 181.213C161.617 181.536 162.126 181.998 162.508 182.599C162.896 183.193 163.091 183.875 163.091 184.645C163.091 186.09 162.541 187.252 161.441 188.132C160.348 189.005 158.918 189.441 157.151 189.441C156.139 189.441 155.288 189.35 154.599 189.166C153.909 188.976 153.293 188.642 152.751 188.165C151.812 187.329 151.343 186.42 151.343 185.437C151.343 184.829 151.519 184.359 151.871 184.029C152.23 183.692 152.659 183.523 153.158 183.523C153.627 183.523 154.063 183.659 154.467 183.93C154.753 184.128 155.039 184.495 155.325 185.03C155.53 185.412 155.779 185.687 156.073 185.855C156.366 186.017 156.766 186.097 157.272 186.097C157.895 186.097 158.375 185.951 158.713 185.657C159.05 185.364 159.219 184.983 159.219 184.513C159.219 184.007 159.061 183.608 158.746 183.314C158.438 183.014 157.965 182.863 157.327 182.863H157.041C156.395 182.863 155.944 182.801 155.688 182.676C155.46 182.566 155.277 182.39 155.138 182.148C154.998 181.899 154.929 181.617 154.929 181.301C154.929 180.986 154.998 180.707 155.138 180.465C155.277 180.216 155.46 180.036 155.688 179.926C155.944 179.802 156.395 179.739 157.041 179.739H157.327C157.855 179.739 158.273 179.607 158.581 179.343C158.889 179.072 159.043 178.705 159.043 178.243C159.043 177.811 158.885 177.466 158.57 177.209C158.254 176.945 157.833 176.813 157.305 176.813C156.813 176.813 156.421 176.898 156.128 177.066C155.842 177.228 155.596 177.499 155.391 177.88C155.105 178.416 154.819 178.782 154.533 178.98C154.129 179.252 153.704 179.387 153.257 179.387C152.773 179.387 152.351 179.219 151.992 178.881C151.64 178.551 151.464 178.097 151.464 177.517ZM167.412 189.309H167.104C166.686 189.309 166.382 189.298 166.191 189.276C166 189.247 165.813 189.188 165.63 189.1C165.381 188.983 165.179 188.789 165.025 188.517C164.871 188.239 164.794 187.931 164.794 187.593C164.794 187.256 164.871 186.952 165.025 186.68C165.179 186.402 165.381 186.204 165.63 186.086C165.916 185.947 166.367 185.877 166.983 185.877C167.423 185.877 167.738 185.701 167.929 185.349L164.607 176.593C164.46 176.197 164.358 175.889 164.299 175.669C164.248 175.442 164.248 175.189 164.299 174.91C164.358 174.624 164.504 174.364 164.739 174.129C165.12 173.748 165.582 173.557 166.125 173.557C166.565 173.557 166.928 173.689 167.214 173.953C167.368 174.093 167.493 174.254 167.588 174.437C167.683 174.613 167.812 174.914 167.973 175.339L169.832 180.388L171.691 175.339C171.852 174.914 171.981 174.613 172.076 174.437C172.171 174.254 172.296 174.093 172.45 173.953C172.736 173.689 173.099 173.557 173.539 173.557C174.082 173.557 174.544 173.748 174.925 174.129C175.16 174.364 175.303 174.624 175.354 174.91C175.413 175.189 175.413 175.442 175.354 175.669C175.303 175.889 175.204 176.197 175.057 176.593L171.504 186.097C171.13 187.095 170.602 187.879 169.92 188.451C169.238 189.023 168.402 189.309 167.412 189.309ZM183.877 189.309H179.752C179.488 189.309 179.279 189.306 179.125 189.298C178.971 189.284 178.773 189.236 178.531 189.155C178.297 189.067 178.095 188.939 177.926 188.77C177.758 188.602 177.629 188.4 177.541 188.165C177.461 187.923 177.413 187.725 177.398 187.571C177.391 187.417 177.387 187.208 177.387 186.944L177.387 176.01C177.387 175.746 177.391 175.537 177.398 175.383C177.413 175.229 177.461 175.035 177.541 174.8C177.629 174.558 177.758 174.353 177.926 174.184C178.095 174.016 178.297 173.891 178.531 173.81C178.773 173.722 178.971 173.675 179.125 173.667C179.279 173.653 179.488 173.645 179.752 173.645H185.879C186.297 173.645 186.602 173.66 186.792 173.689C186.983 173.711 187.17 173.766 187.353 173.854C187.603 173.972 187.804 174.17 187.958 174.448C188.112 174.72 188.189 175.024 188.189 175.361C188.189 175.699 188.112 176.007 187.958 176.285C187.804 176.557 187.603 176.751 187.353 176.868C187.17 176.956 186.983 177.015 186.792 177.044C186.602 177.066 186.297 177.077 185.879 177.077H181.259L181.259 179.233H183.877C185.491 179.233 186.767 179.703 187.705 180.641C188.644 181.573 189.113 182.783 189.113 184.271C189.113 185.767 188.644 186.981 187.705 187.912C186.774 188.844 185.498 189.309 183.877 189.309ZM181.259 185.877H183.701C184.178 185.877 184.556 185.727 184.834 185.426C185.12 185.126 185.263 184.741 185.263 184.271C185.263 183.809 185.12 183.432 184.834 183.138C184.556 182.838 184.178 182.687 183.701 182.687H181.259L181.259 185.877ZM201.176 187.725C200.596 188.305 199.955 188.737 199.251 189.023C198.554 189.302 197.74 189.441 196.809 189.441C195.877 189.441 195.06 189.302 194.356 189.023C193.659 188.737 193.021 188.305 192.442 187.725C192.134 187.417 191.873 187.073 191.661 186.691C191.448 186.31 191.287 185.954 191.177 185.624C191.074 185.287 190.993 184.858 190.935 184.337C190.883 183.809 190.85 183.369 190.836 183.017C190.828 182.658 190.825 182.145 190.825 181.477C190.825 180.81 190.828 180.3 190.836 179.948C190.85 179.589 190.883 179.149 190.935 178.628C190.993 178.1 191.074 177.671 191.177 177.341C191.287 177.004 191.448 176.645 191.661 176.263C191.873 175.882 192.134 175.537 192.442 175.229C193.021 174.65 193.659 174.221 194.356 173.942C195.06 173.656 195.877 173.513 196.809 173.513C197.74 173.513 198.554 173.656 199.251 173.942C199.955 174.221 200.596 174.65 201.176 175.229C201.484 175.537 201.744 175.882 201.957 176.263C202.169 176.645 202.327 177.004 202.43 177.341C202.54 177.671 202.62 178.1 202.672 178.628C202.73 179.149 202.763 179.589 202.771 179.948C202.785 180.3 202.793 180.81 202.793 181.477C202.793 182.145 202.785 182.658 202.771 183.017C202.763 183.369 202.73 183.809 202.672 184.337C202.62 184.858 202.54 185.287 202.43 185.624C202.327 185.954 202.169 186.31 201.957 186.691C201.744 187.073 201.484 187.417 201.176 187.725ZM198.349 185.305C198.554 185.034 198.701 184.656 198.789 184.172C198.877 183.688 198.921 182.79 198.921 181.477C198.921 180.165 198.877 179.263 198.789 178.771C198.701 178.273 198.554 177.891 198.349 177.627C198.195 177.429 197.982 177.268 197.711 177.143C197.447 177.011 197.146 176.945 196.809 176.945C196.471 176.945 196.167 177.011 195.896 177.143C195.632 177.268 195.423 177.429 195.269 177.627C195.063 177.891 194.917 178.273 194.829 178.771C194.741 179.263 194.697 180.165 194.697 181.477C194.697 182.79 194.741 183.688 194.829 184.172C194.917 184.656 195.063 185.034 195.269 185.305C195.628 185.775 196.141 186.009 196.809 186.009C197.476 186.009 197.989 185.775 198.349 185.305ZM212.245 189.309H207.768C207.504 189.309 207.295 189.306 207.141 189.298C206.987 189.284 206.789 189.236 206.547 189.155C206.312 189.067 206.111 188.939 205.942 188.77C205.773 188.602 205.645 188.4 205.557 188.165C205.476 187.923 205.429 187.725 205.414 187.571C205.407 187.417 205.403 187.208 205.403 186.944L205.403 176.01C205.403 175.746 205.407 175.537 205.414 175.383C205.429 175.229 205.476 175.035 205.557 174.8C205.645 174.558 205.773 174.353 205.942 174.184C206.111 174.016 206.312 173.891 206.547 173.81C206.789 173.722 206.987 173.675 207.141 173.667C207.295 173.653 207.504 173.645 207.768 173.645H211.915C213.514 173.645 214.746 174.056 215.611 174.877C216.476 175.691 216.909 176.791 216.909 178.177C216.909 178.595 216.847 178.988 216.722 179.354C216.597 179.721 216.429 180.033 216.216 180.289C216.011 180.546 215.831 180.748 215.677 180.894C215.523 181.041 215.362 181.169 215.193 181.279C215.376 181.397 215.527 181.499 215.644 181.587C215.769 181.668 215.934 181.811 216.139 182.016C216.352 182.222 216.52 182.434 216.645 182.654C216.77 182.874 216.88 183.164 216.975 183.523C217.078 183.883 217.129 184.271 217.129 184.689C217.129 186.141 216.674 187.274 215.765 188.088C214.863 188.902 213.69 189.309 212.245 189.309ZM209.275 179.651H211.673C212.157 179.651 212.509 179.53 212.729 179.288C212.949 179.039 213.059 178.735 213.059 178.375C213.059 178.016 212.949 177.712 212.729 177.462C212.509 177.206 212.157 177.077 211.673 177.077H209.275L209.275 179.651ZM209.275 185.877H211.871C212.355 185.877 212.711 185.742 212.938 185.47C213.165 185.192 213.279 184.858 213.279 184.469C213.279 184.088 213.165 183.765 212.938 183.501C212.711 183.237 212.355 183.105 211.871 183.105H209.275L209.275 185.877Z" fill="#4D4D4D"/>
<path fill-rule="evenodd" clip-rule="evenodd" d="M120.467 103.212C121.821 102.846 123.82 102.88 123.837 104.525C123.852 105.998 121.951 105.811 120.629 106.147C117.129 107.036 116.912 109.892 116.458 111.951C116.082 113.657 113.784 113.306 113.696 111.487C113.523 107.862 116.591 104.262 120.465 103.214L120.467 103.212ZM120.576 150.846C120.957 150.518 121.028 150.245 121.245 149.646C123.543 143.247 124.279 127.881 129.601 127.95C133.287 127.998 134.922 134.069 135.734 137.788C136.711 142.274 137.195 146.674 138.578 150.852C143.247 149.742 146.859 126.733 147.269 120.331C147.643 114.483 147.113 107.784 143.859 104.187C138.391 98.1434 134.544 104.346 129.601 104.138C124.829 103.937 119.782 98.3829 115.394 104.239C111.911 108.891 111.509 114.224 111.968 120.217C112.392 125.756 115.6 148.721 120.574 150.843L120.576 150.846Z" fill="white"/>
<path fill-rule="evenodd" clip-rule="evenodd" d="M145.785 143.575C146.586 140.421 147.406 136.93 148.049 133.707C148.409 131.908 149.288 124.123 149.664 123.291C150.261 121.976 157.022 120.807 159.086 120.547C161.929 120.187 167.813 120.086 170.098 121.169L170.113 143.591L145.785 143.575ZM125.614 143.627C125.616 141.883 127.746 130.641 129.753 130.702C131.79 130.765 133.786 140.78 133.952 143.61L125.614 143.627ZM88.6308 121.001C92.1185 120.257 96.2221 120.005 100.073 120.563C105.483 121.347 105.392 121.788 109.809 123.186C110.558 132.251 111.785 135.321 113.484 143.619L88.5782 143.602L88.6287 121.001H88.6308ZM120.579 150.845C115.603 148.723 112.395 125.758 111.972 120.219C111.514 114.224 111.916 108.891 115.399 104.241C119.786 98.3845 124.834 103.938 129.606 104.14C134.549 104.348 138.394 98.1449 143.864 104.188C147.12 107.786 147.648 114.484 147.274 120.332C146.864 126.735 143.252 149.744 138.583 150.853C137.2 146.676 136.716 142.276 135.739 137.79C134.929 134.07 133.291 127.998 129.606 127.952C124.283 127.882 123.547 143.249 121.25 149.647C121.035 150.246 120.962 150.517 120.581 150.847L120.579 150.845ZM129.163 146.575L134.25 146.518C135.104 147.424 135.333 154.913 139.428 153.577C141.644 152.854 144.03 149.008 144.909 146.546C153.101 146.59 162.305 146.722 170.455 146.598C172.543 146.567 173.081 145.997 173.064 143.913L173.062 123.341C173.062 119.603 174.147 118.447 168.288 117.737C163.638 117.172 158.733 117.401 154.199 118.496C152.826 118.828 151.442 119.37 150.015 119.63C150.219 112.818 150.431 107.685 145.672 101.896C144.335 100.269 141.186 98.271 137.713 98.7249C134.635 99.1262 131.9 101.501 129.142 101.343C126.192 100.843 124.351 98.832 120.899 98.6681C117.56 98.5105 114.659 100.593 113.345 102.186C111.731 104.144 110.49 106.542 109.727 109.647C108.701 113.829 109.433 115.823 109.237 119.824C107.434 119.546 105.169 118.384 100.784 117.79C97.6285 117.361 89.8795 117.191 86.8102 118.546C85.3576 119.187 85.7885 121.034 85.7885 122.707V143.596C85.7759 147.544 87.3295 146.575 93.1906 146.577C100.21 146.579 107.228 146.577 114.247 146.577C115.435 147.33 116.219 152.518 119.829 153.526C123.394 154.524 124.746 148.874 124.996 146.577L129.163 146.571V146.575Z" fill="#4D4D4D"/>
<path fill-rule="evenodd" clip-rule="evenodd" d="M127.863 94.7012C127.485 92.7365 130.491 91.9948 130.834 93.949C131.238 96.2562 128.198 96.4369 127.863 94.7012ZM122.072 65.359L136.224 65.3128C136.674 65.443 136.277 65.2308 136.586 65.4956C137.078 66.6912 136.746 73.8628 136.727 75.7099C136.689 79.5804 135.671 81.6292 133.352 83.098C130.807 84.7117 127.397 84.6172 125.12 82.8731C124.058 82.0578 123.283 81.2509 122.639 79.9671C122.305 79.2989 121.086 75.7288 122.488 75.4094C122.526 75.401 122.574 75.3884 122.618 75.38C124.952 74.924 130.409 76.3276 130.704 74.2663C131.076 71.6481 125.467 72.9404 122.061 72.642L122.072 65.3569V65.359ZM139.375 69.6582C140.187 69.4754 155.367 69.6015 157.621 69.5952C163.653 69.5741 170.035 69.1749 175.974 69.7107L175.966 72.6441C172.999 72.8773 160.072 72.6756 156.038 72.6756C152.714 72.6756 149.389 72.6777 146.065 72.6777C144.429 72.6777 142.792 72.6672 141.156 72.6777C140.86 72.6798 140.12 72.7177 139.874 72.6861C139.319 72.6147 139.388 72.8248 139.342 72.0705C139.308 71.5115 139.308 70.1877 139.375 69.654V69.6582ZM129.106 98.7462C131.441 98.7903 133.209 97.1891 133.699 95.3148C134.021 94.0813 133.779 93.0055 133.186 92.0662C132.318 90.692 131.076 90.3873 130.945 90.194C130.758 89.3892 130.758 87.9498 130.91 87.1345C132.039 86.5546 135.022 86.2541 137.279 83.3879C139.069 81.1165 139.621 79.3724 139.657 75.6111C140.967 75.2203 176.214 75.7603 177.683 75.4787C179.113 75.2056 178.982 72.6903 178.959 71.2762C178.879 66.1344 179.216 66.6723 172.663 66.6723C161.67 66.6723 150.677 66.6723 139.684 66.6723C139.474 61.8141 141.307 62.2764 129.074 62.3689C127.302 62.3457 125.517 62.3647 123.743 62.3647C122.028 62.3647 119.854 61.9423 119.292 63.3439C119.046 63.9574 119.185 72.5559 119.185 73.9679C119.185 78.7714 119.24 82.31 123.768 85.4934C125.139 86.4579 125.902 86.6176 127.805 86.979C127.794 89.862 128.065 89.9502 126.936 90.6163C123.629 92.5684 124.756 98.5802 129.104 98.7441L129.106 98.7462Z" fill="#4D4D4D"/>
<path fill-rule="evenodd" clip-rule="evenodd" d="M88.6313 121.003L88.5808 143.605L113.486 143.621C111.786 135.323 110.558 132.253 109.812 123.189C105.393 121.791 105.485 121.35 100.076 120.566C96.2247 120.007 92.121 120.259 88.6334 121.003H88.6313Z" fill="#B3B3B3"/>
<path fill-rule="evenodd" clip-rule="evenodd" d="M145.785 143.575L170.113 143.592L170.098 121.169C167.813 120.087 161.929 120.188 159.086 120.547C157.022 120.808 150.261 121.976 149.664 123.292C149.288 124.122 148.409 131.909 148.049 133.708C147.406 136.933 146.586 140.423 145.785 143.575Z" fill="#B3B3B3"/>
<path fill-rule="evenodd" clip-rule="evenodd" d="M122.063 72.6442C125.469 72.9426 131.078 71.6503 130.706 74.2685C130.411 76.3298 124.954 74.9262 122.62 75.3822C122.578 75.3906 122.53 75.4032 122.49 75.4116C121.09 75.731 122.307 79.301 122.641 79.9693C123.285 81.2531 124.058 82.06 125.122 82.8753C127.399 84.6194 130.809 84.7139 133.355 83.1002C135.673 81.6314 136.691 79.5826 136.729 75.7121C136.746 73.865 137.08 66.6913 136.588 65.4978C136.279 65.2309 136.676 65.4452 136.226 65.3149L122.074 65.3612L122.063 72.6463V72.6442Z" fill="#B2B3B3"/>
<path fill-rule="evenodd" clip-rule="evenodd" d="M139.876 72.6909C140.122 72.7224 140.862 72.6846 141.159 72.6825C142.794 72.6719 144.432 72.6825 146.067 72.6825C149.391 72.6825 152.717 72.6804 156.041 72.6804C160.075 72.6804 173.002 72.8821 175.968 72.6488L175.976 69.7148C170.037 69.1789 163.655 69.5782 157.624 69.5992C155.368 69.6076 140.189 69.4794 139.378 69.6623C139.311 70.1961 139.309 71.5202 139.344 72.0793C139.391 72.8338 139.323 72.6236 139.876 72.6951V72.6909Z" fill="#CECECE"/>
<path fill-rule="evenodd" clip-rule="evenodd" d="M125.614 143.626L133.951 143.61C133.785 140.779 131.79 130.762 129.753 130.701C127.745 130.64 125.616 141.882 125.614 143.626Z" fill="#B3B3B3"/>
<path fill-rule="evenodd" clip-rule="evenodd" d="M120.468 103.211C116.594 104.26 113.526 107.861 113.699 111.484C113.785 113.304 116.083 113.657 116.461 111.948C116.915 109.889 117.132 107.035 120.632 106.145C121.952 105.808 123.855 105.995 123.84 104.522C123.823 102.877 121.824 102.843 120.47 103.209L120.468 103.211Z" fill="#4D4D4D"/>
<path fill-rule="evenodd" clip-rule="evenodd" d="M127.864 94.7013C128.198 96.4373 131.235 96.2566 130.834 93.9489C130.493 91.9943 127.486 92.7362 127.864 94.7013Z" fill="#B2B3B3"/>
<path d="M131.725 1.26339L131.449 1.10397L131.173 1.26339L66.4489 38.693L66.7246 39.1697L66.4487 38.6931L1.72415 76.1502L1.44928 76.3092L1.44928 76.6268L1.44929 151.486L1.44929 226.373L1.44929 226.69L1.72416 226.849L66.4487 264.306L66.4489 264.306L131.173 301.736L131.449 301.895L131.725 301.736L196.449 264.306L196.45 264.306L261.174 226.849L261.449 226.69L261.449 226.373L261.449 151.486L261.449 76.6268L261.449 76.3092L261.174 76.1502L196.45 38.6931L196.174 39.1697L196.449 38.693L131.725 1.26339Z" stroke="#024FA2" stroke-width="1.10141"/>
</svg>
