<svg width="94" height="92" viewBox="0 0 94 92" fill="none" xmlns="http://www.w3.org/2000/svg">
<path fill-rule="evenodd" clip-rule="evenodd" d="M35.4671 41.2117C36.821 40.846 38.8202 40.8797 38.8371 42.525C38.8518 43.998 36.9513 43.811 35.629 44.1472C32.1287 45.036 31.9122 47.8916 31.4581 49.9509C31.0818 51.6571 28.784 51.3062 28.6957 49.4865C28.5233 45.8618 31.5905 42.2623 35.465 41.2138L35.4671 41.2117ZM35.5764 88.8455C35.9569 88.5177 36.0284 88.2446 36.245 87.6457C38.5427 81.2473 39.2785 65.8807 44.6015 65.95C48.2868 65.9983 49.9223 72.0689 50.7338 75.7882C51.7114 80.2744 52.1949 84.6745 53.5782 88.8518C58.2473 87.7424 61.859 64.7334 62.269 58.3308C62.6432 52.4829 62.1134 45.7841 58.8591 42.1867C53.3911 36.1434 49.5439 42.3464 44.6015 42.1383C39.8293 41.9366 34.7818 36.3829 30.3943 42.2392C26.9109 46.8914 26.5093 52.2245 26.9676 58.2173C27.3923 63.7563 30.6004 86.7211 35.5743 88.8434L35.5764 88.8455Z" fill="white"/>
<path fill-rule="evenodd" clip-rule="evenodd" d="M60.7853 81.5745C61.5863 78.4205 62.4061 74.9303 63.0494 71.7069C63.4089 69.9082 64.2877 62.123 64.664 61.2909C65.261 59.9755 72.0219 58.8072 74.0864 58.5466C76.9286 58.1873 82.8129 58.0865 85.0981 59.1686L85.1128 81.5913L60.7853 81.5745ZM40.614 81.6271C40.6161 79.883 42.7457 68.6412 44.7533 68.7021C46.7905 68.7651 48.7855 78.7798 48.9516 81.6103L40.614 81.6271ZM3.6308 59.0005C7.11847 58.2567 11.2221 58.0045 15.0735 58.5634C20.4826 59.3472 20.3922 59.7885 24.8091 61.1858C25.5575 70.2508 26.7852 73.3207 28.4839 81.6187L3.57824 81.6019L3.62869 59.0005H3.6308ZM35.579 88.845C30.603 86.7227 27.3949 63.7578 26.9723 58.2188C26.514 52.2239 26.9156 46.8909 30.399 42.2407C34.7865 36.3845 39.834 41.9381 44.6062 42.1399C49.5486 42.3479 53.3937 36.1449 58.8638 42.1882C62.1202 45.7856 62.6479 52.4845 62.2737 58.3323C61.8638 64.7349 58.252 87.7439 53.5829 88.8534C52.1996 84.676 51.7161 80.2759 50.7385 75.7897C49.9291 72.0705 48.2915 65.9978 44.6062 65.9515C39.2832 65.8822 38.5474 81.2488 36.2497 87.6472C36.0352 88.2461 35.9616 88.5172 35.5811 88.8471L35.579 88.845ZM44.1626 84.5752L49.2501 84.5184C50.1036 85.4241 50.3328 92.913 54.428 91.5766C56.6438 90.8538 59.0299 87.0084 59.9086 84.5457C68.1012 84.5899 77.3049 84.7223 85.4555 84.5983C87.543 84.5668 88.0812 83.9973 88.0644 81.9128L88.0623 61.3413C88.0623 57.6032 89.147 56.4475 83.288 55.7372C78.6378 55.172 73.7332 55.401 69.1986 56.4958C67.8258 56.8278 66.4425 57.3699 65.0151 57.6305C65.219 50.8181 65.4313 45.6847 60.6718 39.8957C59.3347 38.2693 56.1855 36.271 52.7126 36.7249C49.6348 37.1262 46.8998 39.5007 44.1416 39.3431C41.1921 38.843 39.3505 36.832 35.8986 36.6681C32.5602 36.5105 29.659 38.5929 28.3451 40.1857C26.7306 42.1441 25.4902 44.5416 24.7271 47.6473C23.7012 51.8289 24.4328 53.823 24.2373 57.8238C22.4335 57.5464 20.1694 56.3844 15.784 55.7898C12.6285 55.3611 4.87955 55.1909 1.81023 56.5462C0.357557 57.1871 0.788523 59.0341 0.788523 60.7068V81.5956C0.77591 85.5439 2.32949 84.5752 8.19063 84.5773C15.2101 84.5794 22.2275 84.5773 29.247 84.5773C30.4348 85.3295 31.2189 90.5176 34.8285 91.5262C38.394 92.5243 39.7457 86.874 39.9959 84.5773L44.1626 84.571V84.5752Z" fill="#4D4D4D"/>
<path fill-rule="evenodd" clip-rule="evenodd" d="M42.8634 32.7012C42.485 30.7365 45.4913 29.9948 45.8339 31.949C46.2376 34.2562 43.1977 34.4369 42.8634 32.7012ZM37.0717 3.35898L51.2242 3.31275C51.674 3.44303 51.2767 3.2308 51.5857 3.49556C52.0777 4.69119 51.7455 11.8628 51.7266 13.7099C51.6888 17.5804 50.6713 19.6292 48.3524 21.098C45.8066 22.7117 42.3967 22.6172 40.1199 20.8731C39.0583 20.0578 38.2826 19.2509 37.6393 17.9671C37.305 17.2989 36.0857 13.7288 37.4879 13.4094C37.5257 13.401 37.5741 13.3884 37.6182 13.38C39.9518 12.924 45.4093 14.3276 45.7036 12.2663C46.0757 9.6481 40.4668 10.9404 37.0611 10.642L37.0717 3.35688V3.35898ZM54.3755 7.65819C55.1869 7.47538 70.3675 7.60146 72.6211 7.59515C78.6525 7.57414 85.035 7.1749 90.9739 7.71072L90.9655 10.6441C87.9992 10.8773 75.0723 10.6756 71.0381 10.6756C67.7144 10.6756 64.3886 10.6777 61.0649 10.6777C59.4293 10.6777 57.7917 10.6672 56.1561 10.6777C55.8597 10.6798 55.1197 10.7177 54.8737 10.6861C54.3187 10.6147 54.3881 10.8248 54.3418 10.0705C54.3082 9.51152 54.3082 8.18771 54.3755 7.65399V7.65819ZM44.1059 36.7462C46.4415 36.7903 48.2095 35.1891 48.6993 33.3148C49.021 32.0813 48.7792 31.0055 48.1864 30.0662C47.3181 28.692 46.0757 28.3873 45.9453 28.194C45.7582 27.3892 45.7582 25.9498 45.9096 25.1345C47.0385 24.5546 50.0217 24.2541 52.2795 21.3879C54.0685 19.1165 54.6214 17.3724 54.6572 13.6111C55.9669 13.2203 91.2136 13.7603 92.6831 13.4787C94.1126 13.2056 93.9823 10.6903 93.9592 9.27618C93.8793 4.13435 94.2156 4.67228 87.6628 4.67228C76.6701 4.67228 65.6773 4.67228 54.6845 4.67228C54.4743 -0.185876 56.3074 0.276406 44.0743 0.368862C42.3021 0.345748 40.5173 0.364659 38.743 0.364659C37.0275 0.364659 34.8538 -0.0576974 34.2924 1.34385C34.0465 1.95743 34.1852 10.5559 34.1852 11.9679C34.1852 16.7714 34.2399 20.31 38.7682 23.4934C40.1389 24.4579 40.902 24.6176 42.8046 24.979C42.794 27.862 43.0652 27.9502 41.9363 28.6163C38.6294 30.5684 39.7563 36.5802 44.1038 36.7441L44.1059 36.7462Z" fill="#4D4D4D"/>
<path fill-rule="evenodd" clip-rule="evenodd" d="M3.63127 59.0033L3.58081 81.6046L28.4864 81.6214C26.7857 73.3235 25.558 70.2535 24.8117 61.1886C20.3927 59.7912 20.4852 59.35 15.076 58.5662C11.2247 58.0072 7.12104 58.2594 3.63337 59.0033H3.63127Z" fill="#B3B3B3"/>
<path fill-rule="evenodd" clip-rule="evenodd" d="M60.7852 81.5752L85.1127 81.592L85.0979 59.1693C82.8128 58.0871 76.9285 58.188 74.0862 58.5473C72.0218 58.8079 65.2609 59.9762 64.6639 61.2916C64.2875 62.1216 63.4088 69.9089 63.0493 71.7076C62.406 74.9331 61.5861 78.4233 60.7852 81.5752Z" fill="#B3B3B3"/>
<path fill-rule="evenodd" clip-rule="evenodd" d="M37.0634 10.6442C40.469 10.9426 46.0779 9.65029 45.7058 12.2685C45.4115 14.3298 39.954 12.9262 37.6205 13.3822C37.5784 13.3906 37.5301 13.4032 37.4901 13.4116C36.09 13.731 37.3072 17.301 37.6415 17.9693C38.2848 19.2531 39.0584 20.06 40.1222 20.8753C42.3989 22.6194 45.8088 22.7139 48.3547 21.1002C50.6735 19.6314 51.691 17.5826 51.7288 13.7121C51.7456 11.865 52.0799 4.69128 51.588 3.49775C51.2789 3.23089 51.6763 3.44522 51.2264 3.31494L37.0739 3.36117L37.0634 10.6463V10.6442Z" fill="#B2B3B3"/>
<path fill-rule="evenodd" clip-rule="evenodd" d="M54.8762 10.6909C55.1221 10.7224 55.8621 10.6846 56.1585 10.6825C57.7941 10.6719 59.4318 10.6825 61.0673 10.6825C64.391 10.6825 67.7168 10.6804 71.0405 10.6804C75.0748 10.6804 88.0017 10.8821 90.968 10.6488L90.9764 7.7148C85.0375 7.17886 78.655 7.57819 72.6235 7.59921C70.3678 7.60761 55.1894 7.47941 54.3779 7.66226C54.3106 8.1961 54.3085 9.52019 54.3443 10.0793C54.3905 10.8338 54.3233 10.6236 54.8762 10.6951V10.6909Z" fill="#CECECE"/>
<path fill-rule="evenodd" clip-rule="evenodd" d="M40.6135 81.6264L48.9511 81.6096C48.7851 78.7792 46.79 68.7624 44.7529 68.7014C42.7452 68.6405 40.6156 79.8823 40.6135 81.6264Z" fill="#B3B3B3"/>
<path fill-rule="evenodd" clip-rule="evenodd" d="M35.4681 41.2112C31.5936 42.2597 28.5264 45.8613 28.6988 49.4839C28.785 51.3036 31.0828 51.6566 31.4612 49.9483C31.9153 47.889 32.1318 45.0355 35.6321 44.1446C36.9523 43.8084 38.8549 43.9954 38.8402 42.5224C38.8234 40.8771 36.8241 40.8435 35.4702 41.2091L35.4681 41.2112Z" fill="#4D4D4D"/>
<path fill-rule="evenodd" clip-rule="evenodd" d="M42.8639 32.7013C43.1981 34.4373 46.2351 34.2566 45.8337 31.9489C45.4932 29.9943 42.4856 30.7362 42.8639 32.7013Z" fill="#B2B3B3"/>
</svg>
