<svg width="100" height="95" viewBox="0 0 100 95" fill="none" xmlns="http://www.w3.org/2000/svg">
<path fill-rule="evenodd" clip-rule="evenodd" d="M67.8868 14.7338C74.7045 14.4206 77.8158 8.29551 86.3898 10.9935C91.7172 12.6697 95.5489 17.6903 97.6089 23.2751C100.142 30.1402 99.9825 36.5303 99.4127 44.2808C98.9029 51.2103 97.7894 58.54 96.4895 65.0204C95.1743 71.5793 93.7942 77.5795 91.5901 83.6192C90.505 86.593 89.2705 89.0536 87.6908 91.3886C86.5539 93.0697 83.0369 96.6012 80.022 94.1602C74.7595 89.899 73.8326 59.5969 67.937 59.0522C64.6168 59.8359 63.2034 66.6918 62.4041 70.1919C61.3369 74.8631 60.6941 79.5424 59.736 84.2796C58.9764 88.035 58.0216 95.2111 53.7036 94.9353C49.8632 94.6902 47.1046 89.456 45.6236 86.1311C40.8791 75.4808 38.0039 57.1563 36.873 44.7666C36.8299 44.2927 36.7874 43.814 36.7476 43.3316L39.8033 44.1023C39.9129 45.4237 40.0367 46.6629 40.1577 47.7193C41.1109 56.0096 46.5026 92.4179 54.251 91.8835C58.622 84.2055 58.1721 55.9988 68.1033 56.0859C77.2553 56.1654 77.1757 85.2078 81.9496 91.876C89.4434 92.3114 94.5723 58.7871 95.6666 51.0069C97.0473 41.1907 98.1629 28.6408 92.6278 19.947C90.685 16.8947 86.6624 12.5053 80.8967 13.4427C76.2111 14.2043 72.6199 18.2799 66.9108 17.6287C63.4106 17.229 61.0376 15.4694 58.1765 14.3417L55.8585 10.5321C60.4994 11.0773 61.934 13.8348 67.8868 14.7354V14.7338ZM81.8498 16.4766C83.9682 17.0158 85.3903 17.4551 86.982 18.6829C88.4559 19.8199 89.4401 20.7821 90.4761 22.4362C91.408 23.9247 92.1283 25.7989 92.3563 27.7683C92.8345 31.9035 89.722 31.2225 89.4946 29.2931C89.1784 26.6092 89.0944 25.6816 87.7901 23.6997C86.9291 22.3918 85.4274 21.006 83.966 20.2472C80.9626 18.6878 79.1861 19.5137 78.2183 18.7294C77.4194 18.0825 76.9096 15.2184 81.8498 16.476V16.4766ZM60.3854 17.9716C60.6592 18.4216 60.6881 18.9517 60.2676 19.5846C60.2513 19.6094 60.2273 19.637 60.1973 19.6673L60.3854 17.9716Z" fill="#4D4D4D"/>
<path fill-rule="evenodd" clip-rule="evenodd" d="M39.4203 5.35546C49.9731 4.59225 58.577 12.7641 59.2641 22.345C60.0155 32.8238 51.7141 41.4295 42.0545 42.018C31.2313 42.6768 23.1573 34.7732 22.2718 24.9365C21.3306 14.4777 29.8561 6.04727 39.4203 5.35546ZM51.4802 44.5402C60.2712 40.1054 65.6957 30.3092 64.044 20.1365C62.9594 13.457 58.7379 7.4206 53.115 3.73764C50.875 2.27072 47.6802 1.08778 44.565 0.599353C25.5505 -2.38261 11.0712 16.9663 19.7624 34.1111C20.7913 36.1411 21.3977 36.5917 22.0509 37.8049C22.0509 37.8049 2.05118 56.9738 1.82598 57.1528C1.28124 57.7949 0.859197 58.1573 0.675438 59.133C0.118163 62.0847 3.2557 62.909 5.15873 60.9413C5.71382 60.3668 6.15495 60.0455 6.65116 59.5501C10.5772 55.6318 25.8946 41.7454 25.6809 41.6031C33.6452 46.9315 42.2819 49.18 51.4802 44.5396V44.5402Z" fill="#4D4D4D"/>
</svg>
