<svg width="614" height="229" viewBox="0 0 614 229" fill="none" xmlns="http://www.w3.org/2000/svg">
<mask id="path-1-inside-1_86_369" fill="white">
<path fill-rule="evenodd" clip-rule="evenodd" d="M205 0H0L302.341 227.627L302.5 228H302.836L303.5 228.5L303.284 228H614V0H205Z"/>
</mask>
<path fill-rule="evenodd" clip-rule="evenodd" d="M205 0H0L302.341 227.627L302.5 228H302.836L303.5 228.5L303.284 228H614V0H205Z" fill="#F5F5F5"/>
<path d="M0 0V-4H-11.9632L-2.40589 3.19557L0 0ZM302.341 227.627L306.018 226.054L305.599 225.073L304.746 224.431L302.341 227.627ZM302.5 228L298.822 229.573L299.86 232H302.5V228ZM302.836 228L305.242 224.804L304.173 224H302.836V228ZM303.5 228.5L301.094 231.696L313.144 240.768L307.173 226.917L303.5 228.5ZM303.284 228V224H297.204L299.611 229.583L303.284 228ZM614 228V232H618V228H614ZM614 0H618V-4H614V0ZM0 4H205V-4H0V4ZM304.746 224.431L2.40589 -3.19557L-2.40589 3.19557L299.935 230.823L304.746 224.431ZM306.178 226.427L306.018 226.054L298.663 229.2L298.822 229.573L306.178 226.427ZM302.836 224H302.5V232H302.836V224ZM305.906 225.304L305.242 224.804L300.43 231.196L301.094 231.696L305.906 225.304ZM299.611 229.583L299.827 230.083L307.173 226.917L306.958 226.417L299.611 229.583ZM614 224H303.284V232H614V224ZM610 0V228H618V0H610ZM205 4H614V-4H205V4Z" fill="#024FA2" mask="url(#path-1-inside-1_86_369)"/>
</svg>
