<svg width="262" height="303" viewBox="0 0 262 303" fill="none" xmlns="http://www.w3.org/2000/svg">
<path d="M75.2601 53.2086L75.2607 53.2083L132 20.5401L188.739 53.2083L188.74 53.2086L245.475 85.8984L245.475 151.228L245.475 216.582L188.74 249.272L188.739 249.272L132 281.94L75.2607 249.272L75.2601 249.272L18.5248 216.582L18.5248 151.228L18.5248 85.8985L75.2601 53.2086Z" fill="#F8F8F8" stroke="#4D4D4D" stroke-width="4.40566"/>
<path d="M74.44 176.574C74.616 176.346 74.748 176.079 74.836 175.771C74.924 175.455 74.9827 174.99 75.012 174.374H73.208C72.79 174.374 72.4857 174.363 72.295 174.341C72.1043 174.311 71.9173 174.253 71.734 174.165C71.4847 174.047 71.283 173.853 71.129 173.582C70.975 173.303 70.898 172.995 70.898 172.658C70.898 172.32 70.975 172.016 71.129 171.745C71.283 171.466 71.4847 171.268 71.734 171.151C71.9173 171.063 72.1043 171.008 72.295 170.986C72.4857 170.956 72.79 170.942 73.208 170.942H75.001C74.9717 170.377 74.913 169.948 74.825 169.655C74.7443 169.361 74.616 169.101 74.44 168.874C74.0953 168.419 73.6333 168.192 73.054 168.192C72.702 168.192 72.4013 168.276 72.152 168.445C71.91 168.606 71.679 168.881 71.459 169.27C71.0997 169.908 70.7587 170.337 70.436 170.557C70.1573 170.755 69.8127 170.854 69.402 170.854C68.874 170.854 68.4303 170.674 68.071 170.315C67.7117 169.955 67.532 169.468 67.532 168.852C67.532 168.434 67.6457 167.968 67.873 167.455C68.1003 166.934 68.4817 166.432 69.017 165.948C69.501 165.515 70.04 165.211 70.634 165.035C71.228 164.851 72.0053 164.76 72.966 164.76C74.704 164.76 76.145 165.332 77.289 166.476C77.597 166.784 77.8573 167.128 78.07 167.51C78.2827 167.891 78.4403 168.25 78.543 168.588C78.653 168.918 78.7337 169.347 78.785 169.875C78.8437 170.395 78.8767 170.835 78.884 171.195C78.8987 171.547 78.906 172.056 78.906 172.724C78.906 173.391 78.8987 173.904 78.884 174.264C78.8767 174.616 78.8437 175.056 78.785 175.584C78.7337 176.104 78.653 176.533 78.543 176.871C78.4403 177.201 78.2827 177.556 78.07 177.938C77.8573 178.319 77.597 178.664 77.289 178.972C76.145 180.116 74.704 180.688 72.966 180.688C72.0053 180.688 71.228 180.6 70.634 180.424C70.04 180.24 69.501 179.932 69.017 179.5C68.4817 179.016 68.1003 178.517 67.873 178.004C67.6457 177.483 67.532 177.014 67.532 176.596C67.532 175.98 67.7117 175.492 68.071 175.133C68.4303 174.773 68.874 174.594 69.402 174.594C69.8127 174.594 70.1573 174.693 70.436 174.891C70.7587 175.111 71.0997 175.54 71.459 176.178C71.679 176.566 71.91 176.845 72.152 177.014C72.4013 177.175 72.702 177.256 73.054 177.256C73.6333 177.256 74.0953 177.028 74.44 176.574ZM81.0288 174.264C81.0215 173.904 81.0178 173.391 81.0178 172.724C81.0178 172.056 81.0215 171.547 81.0288 171.195C81.0435 170.835 81.0765 170.395 81.1278 169.875C81.1865 169.347 81.2672 168.918 81.3698 168.588C81.4798 168.25 81.6412 167.891 81.8538 167.51C82.0665 167.128 82.3268 166.784 82.6348 166.476C83.7788 165.332 85.2198 164.76 86.9578 164.76C87.9185 164.76 88.6958 164.851 89.2898 165.035C89.8838 165.211 90.4228 165.515 90.9068 165.948C91.4422 166.432 91.8235 166.934 92.0508 167.455C92.2782 167.968 92.3918 168.434 92.3918 168.852C92.3918 169.468 92.2122 169.955 91.8528 170.315C91.4935 170.674 91.0498 170.854 90.5218 170.854C90.1112 170.854 89.7665 170.755 89.4878 170.557C89.1652 170.337 88.8242 169.908 88.4648 169.27C88.2448 168.881 88.0102 168.606 87.7608 168.445C87.5188 168.276 87.2218 168.192 86.8698 168.192C86.2905 168.192 85.8285 168.419 85.4838 168.874C85.2492 169.182 85.0915 169.589 85.0108 170.095C84.9302 170.593 84.8898 171.47 84.8898 172.724C84.8898 173.978 84.9302 174.858 85.0108 175.364C85.0915 175.862 85.2492 176.266 85.4838 176.574C85.8285 177.028 86.2905 177.256 86.8698 177.256C87.2218 177.256 87.5188 177.175 87.7608 177.014C88.0102 176.845 88.2448 176.566 88.4648 176.178C88.8242 175.54 89.1652 175.111 89.4878 174.891C89.7665 174.693 90.1112 174.594 90.5218 174.594C91.0498 174.594 91.4935 174.773 91.8528 175.133C92.2122 175.492 92.3918 175.98 92.3918 176.596C92.3918 177.014 92.2782 177.483 92.0508 178.004C91.8235 178.517 91.4422 179.016 90.9068 179.5C90.4228 179.932 89.8838 180.24 89.2898 180.424C88.6958 180.6 87.9185 180.688 86.9578 180.688C85.2198 180.688 83.7788 180.116 82.6348 178.972C82.3268 178.664 82.0665 178.319 81.8538 177.938C81.6412 177.556 81.4798 177.201 81.3698 176.871C81.2672 176.533 81.1865 176.104 81.1278 175.584C81.0765 175.056 81.0435 174.616 81.0288 174.264ZM97.6082 178.048L97.6082 168.324H95.9912C95.5732 168.324 95.2689 168.313 95.0782 168.291C94.8876 168.261 94.7006 168.203 94.5172 168.115C94.2679 167.997 94.0662 167.803 93.9122 167.532C93.7582 167.253 93.6812 166.945 93.6812 166.608C93.6812 166.27 93.7582 165.966 93.9122 165.695C94.0662 165.416 94.2679 165.218 94.5172 165.101C94.7006 165.013 94.8876 164.958 95.0782 164.936C95.2689 164.906 95.5732 164.892 95.9912 164.892H103.097C103.515 164.892 103.82 164.906 104.01 164.936C104.201 164.958 104.388 165.013 104.571 165.101C104.821 165.218 105.022 165.416 105.176 165.695C105.33 165.966 105.407 166.27 105.407 166.608C105.407 166.945 105.33 167.253 105.176 167.532C105.022 167.803 104.821 167.997 104.571 168.115C104.388 168.203 104.201 168.261 104.01 168.291C103.82 168.313 103.515 168.324 103.097 168.324H101.48L101.48 178.048C101.48 178.524 101.466 178.865 101.436 179.071C101.414 179.269 101.348 179.478 101.238 179.698C101.099 179.976 100.875 180.204 100.567 180.38C100.267 180.556 99.9256 180.644 99.5442 180.644C99.1629 180.644 98.8182 180.556 98.5102 180.38C98.2096 180.204 97.9896 179.976 97.8502 179.698C97.7402 179.478 97.6706 179.269 97.6412 179.071C97.6192 178.865 97.6082 178.524 97.6082 178.048ZM115.968 180.556H109.863C109.599 180.556 109.39 180.552 109.236 180.545C109.082 180.53 108.884 180.482 108.642 180.402C108.408 180.314 108.206 180.185 108.037 180.017C107.869 179.848 107.74 179.646 107.652 179.412C107.572 179.17 107.524 178.972 107.509 178.818C107.502 178.664 107.498 178.455 107.498 178.191L107.498 167.257C107.498 166.993 107.502 166.784 107.509 166.63C107.524 166.476 107.572 166.281 107.652 166.047C107.74 165.805 107.869 165.599 108.037 165.431C108.206 165.262 108.408 165.137 108.642 165.057C108.884 164.969 109.082 164.921 109.236 164.914C109.39 164.899 109.599 164.892 109.863 164.892H115.968C116.386 164.892 116.691 164.906 116.881 164.936C117.072 164.958 117.259 165.013 117.442 165.101C117.692 165.218 117.893 165.416 118.047 165.695C118.201 165.966 118.278 166.27 118.278 166.608C118.278 166.945 118.201 167.253 118.047 167.532C117.893 167.803 117.692 167.997 117.442 168.115C117.259 168.203 117.072 168.261 116.881 168.291C116.691 168.313 116.386 168.324 115.968 168.324H111.37L111.37 170.942H114.978C115.396 170.942 115.701 170.956 115.891 170.986C116.082 171.008 116.269 171.063 116.452 171.151C116.702 171.268 116.903 171.466 117.057 171.745C117.211 172.016 117.288 172.32 117.288 172.658C117.288 172.995 117.211 173.303 117.057 173.582C116.903 173.853 116.702 174.047 116.452 174.165C116.269 174.253 116.082 174.311 115.891 174.341C115.701 174.363 115.396 174.374 114.978 174.374H111.37L111.37 177.124H115.968C116.386 177.124 116.691 177.138 116.881 177.168C117.072 177.19 117.259 177.245 117.442 177.333C117.692 177.45 117.893 177.648 118.047 177.927C118.201 178.198 118.278 178.502 118.278 178.84C118.278 179.177 118.201 179.485 118.047 179.764C117.893 180.035 117.692 180.229 117.442 180.347C117.259 180.435 117.072 180.493 116.881 180.523C116.691 180.545 116.386 180.556 115.968 180.556ZM123.733 178.048L123.733 168.324H122.116C121.698 168.324 121.394 168.313 121.203 168.291C121.013 168.261 120.826 168.203 120.642 168.115C120.393 167.997 120.191 167.803 120.037 167.532C119.883 167.253 119.806 166.945 119.806 166.608C119.806 166.27 119.883 165.966 120.037 165.695C120.191 165.416 120.393 165.218 120.642 165.101C120.826 165.013 121.013 164.958 121.203 164.936C121.394 164.906 121.698 164.892 122.116 164.892H129.222C129.64 164.892 129.945 164.906 130.135 164.936C130.326 164.958 130.513 165.013 130.696 165.101C130.946 165.218 131.147 165.416 131.301 165.695C131.455 165.966 131.532 166.27 131.532 166.608C131.532 166.945 131.455 167.253 131.301 167.532C131.147 167.803 130.946 167.997 130.696 168.115C130.513 168.203 130.326 168.261 130.135 168.291C129.945 168.313 129.64 168.324 129.222 168.324H127.605L127.605 178.048C127.605 178.524 127.591 178.865 127.561 179.071C127.539 179.269 127.473 179.478 127.363 179.698C127.224 179.976 127 180.204 126.692 180.38C126.392 180.556 126.051 180.644 125.669 180.644C125.288 180.644 124.943 180.556 124.635 180.38C124.335 180.204 124.115 179.976 123.975 179.698C123.865 179.478 123.796 179.269 123.766 179.071C123.744 178.865 123.733 178.524 123.733 178.048ZM145.899 178.048C145.899 178.524 145.885 178.865 145.855 179.071C145.833 179.269 145.767 179.478 145.657 179.698C145.518 179.976 145.294 180.204 144.986 180.38C144.686 180.556 144.345 180.644 143.963 180.644C143.582 180.644 143.237 180.556 142.929 180.38C142.629 180.204 142.409 179.976 142.269 179.698C142.159 179.478 142.09 179.269 142.06 179.071C142.038 178.865 142.027 178.524 142.027 178.048L142.027 172.24L137.814 178.873C137.396 179.525 137.019 179.984 136.681 180.248C136.351 180.512 135.959 180.644 135.504 180.644C134.962 180.644 134.507 180.46 134.14 180.094C133.935 179.888 133.796 179.639 133.722 179.346C133.656 179.052 133.623 178.689 133.623 178.257L133.623 167.4C133.623 166.923 133.634 166.586 133.656 166.388C133.686 166.182 133.755 165.97 133.865 165.75C134.005 165.471 134.225 165.244 134.525 165.068C134.833 164.892 135.178 164.804 135.559 164.804C135.941 164.804 136.282 164.892 136.582 165.068C136.89 165.244 137.114 165.471 137.253 165.75C137.363 165.97 137.429 166.182 137.451 166.388C137.481 166.586 137.495 166.923 137.495 167.4L137.495 173.208L141.708 166.575C142.126 165.922 142.5 165.464 142.83 165.2C143.168 164.936 143.564 164.804 144.018 164.804C144.561 164.804 145.016 164.987 145.382 165.354C145.588 165.559 145.723 165.808 145.789 166.102C145.863 166.395 145.899 166.758 145.899 167.191L145.899 178.048ZM149.028 178.048L149.028 167.4C149.028 166.923 149.039 166.586 149.061 166.388C149.09 166.182 149.16 165.97 149.27 165.75C149.409 165.471 149.629 165.244 149.93 165.068C150.238 164.892 150.582 164.804 150.964 164.804C151.345 164.804 151.686 164.892 151.987 165.068C152.295 165.244 152.518 165.471 152.658 165.75C152.768 165.97 152.834 166.182 152.856 166.388C152.885 166.586 152.9 166.923 152.9 167.4L152.9 170.711H153.241L157.19 165.981C157.549 165.541 157.85 165.236 158.092 165.068C158.341 164.892 158.638 164.804 158.983 164.804C159.401 164.804 159.789 164.954 160.149 165.255C160.596 165.629 160.82 166.065 160.82 166.564C160.82 166.857 160.761 167.125 160.644 167.367C160.526 167.601 160.299 167.909 159.962 168.291L156.321 172.394L160.303 177.157C160.64 177.553 160.867 177.868 160.985 178.103C161.102 178.337 161.161 178.598 161.161 178.884C161.161 179.382 160.937 179.819 160.49 180.193C160.13 180.493 159.742 180.644 159.324 180.644C158.979 180.644 158.682 180.559 158.433 180.391C158.191 180.215 157.89 179.907 157.531 179.467L153.241 174.341H152.9L152.9 178.048C152.9 178.524 152.885 178.865 152.856 179.071C152.834 179.269 152.768 179.478 152.658 179.698C152.518 179.976 152.295 180.204 151.987 180.38C151.686 180.556 151.345 180.644 150.964 180.644C150.582 180.644 150.238 180.556 149.93 180.38C149.629 180.204 149.409 179.976 149.27 179.698C149.16 179.478 149.09 179.269 149.061 179.071C149.039 178.865 149.028 178.524 149.028 178.048ZM162.48 177.608L166.66 166.509C166.895 165.893 167.162 165.467 167.463 165.233C167.822 164.947 168.277 164.804 168.827 164.804C169.377 164.804 169.832 164.947 170.191 165.233C170.492 165.467 170.759 165.893 170.994 166.509L175.174 177.608C175.321 178.004 175.42 178.315 175.471 178.543C175.53 178.763 175.53 179.016 175.471 179.302C175.42 179.58 175.277 179.837 175.042 180.072C174.661 180.453 174.199 180.644 173.656 180.644C173.216 180.644 172.853 180.512 172.567 180.248C172.406 180.101 172.274 179.936 172.171 179.753C172.076 179.569 171.955 179.272 171.808 178.862L171.577 178.224H166.077L165.846 178.862C165.699 179.272 165.575 179.569 165.472 179.753C165.377 179.936 165.248 180.101 165.087 180.248C164.801 180.512 164.438 180.644 163.998 180.644C163.455 180.644 162.993 180.453 162.612 180.072C162.377 179.837 162.231 179.58 162.172 179.302C162.121 179.016 162.121 178.763 162.172 178.543C162.231 178.315 162.333 178.004 162.48 177.608ZM170.411 175.012L168.827 170.656L167.243 175.012H170.411ZM194.669 178.048C194.669 178.524 194.654 178.865 194.625 179.071C194.603 179.269 194.537 179.478 194.427 179.698C194.288 179.976 194.064 180.204 193.756 180.38C193.455 180.556 193.114 180.644 192.733 180.644C192.352 180.644 192.007 180.556 191.699 180.38C191.398 180.204 191.178 179.976 191.039 179.698C190.929 179.478 190.859 179.269 190.83 179.071C190.808 178.865 190.797 178.524 190.797 178.048L190.797 172.24L186.584 178.873C186.166 179.525 185.788 179.984 185.451 180.248C185.121 180.512 184.729 180.644 184.274 180.644C183.731 180.644 183.277 180.46 182.91 180.094C182.705 179.888 182.565 179.639 182.492 179.346C182.426 179.052 182.393 178.689 182.393 178.257L182.393 167.4C182.393 166.923 182.404 166.586 182.426 166.388C182.455 166.182 182.525 165.97 182.635 165.75C182.774 165.471 182.994 165.244 183.295 165.068C183.603 164.892 183.948 164.804 184.329 164.804C184.71 164.804 185.051 164.892 185.352 165.068C185.66 165.244 185.884 165.471 186.023 165.75C186.133 165.97 186.199 166.182 186.221 166.388C186.25 166.586 186.265 166.923 186.265 167.4L186.265 173.208L190.478 166.575C190.896 165.922 191.27 165.464 191.6 165.2C191.937 164.936 192.333 164.804 192.788 164.804C193.331 164.804 193.785 164.987 194.152 165.354C194.357 165.559 194.493 165.808 194.559 166.102C194.632 166.395 194.669 166.758 194.669 167.191L194.669 178.048ZM64.1052 206.972C63.5258 207.551 62.8842 207.984 62.1802 208.27C61.4835 208.548 60.6695 208.688 59.7382 208.688C58.8068 208.688 57.9892 208.548 57.2852 208.27C56.5885 207.984 55.9505 207.551 55.3712 206.972C55.0632 206.664 54.8028 206.319 54.5902 205.938C54.3775 205.556 54.2162 205.201 54.1062 204.871C54.0035 204.533 53.9228 204.104 53.8642 203.584C53.8128 203.056 53.7798 202.616 53.7652 202.264C53.7578 201.904 53.7542 201.391 53.7542 200.724C53.7542 200.056 53.7578 199.547 53.7652 199.195C53.7798 198.835 53.8128 198.395 53.8642 197.875C53.9228 197.347 54.0035 196.918 54.1062 196.588C54.2162 196.25 54.3775 195.891 54.5902 195.51C54.8028 195.128 55.0632 194.784 55.3712 194.476C55.9505 193.896 56.5885 193.467 57.2852 193.189C57.9892 192.903 58.8068 192.76 59.7382 192.76C60.6695 192.76 61.4835 192.903 62.1802 193.189C62.8842 193.467 63.5258 193.896 64.1052 194.476C64.4132 194.784 64.6735 195.128 64.8862 195.51C65.0988 195.891 65.2565 196.25 65.3592 196.588C65.4692 196.918 65.5498 197.347 65.6012 197.875C65.6598 198.395 65.6928 198.835 65.7002 199.195C65.7148 199.547 65.7222 200.056 65.7222 200.724C65.7222 201.391 65.7148 201.904 65.7002 202.264C65.6928 202.616 65.6598 203.056 65.6012 203.584C65.5498 204.104 65.4692 204.533 65.3592 204.871C65.2565 205.201 65.0988 205.556 64.8862 205.938C64.6735 206.319 64.4132 206.664 64.1052 206.972ZM61.2782 204.552C61.4835 204.28 61.6302 203.903 61.7182 203.419C61.8062 202.935 61.8502 202.036 61.8502 200.724C61.8502 199.411 61.8062 198.509 61.7182 198.018C61.6302 197.519 61.4835 197.138 61.2782 196.874C61.1242 196.676 60.9115 196.514 60.6402 196.39C60.3762 196.258 60.0755 196.192 59.7382 196.192C59.4008 196.192 59.0965 196.258 58.8252 196.39C58.5612 196.514 58.3522 196.676 58.1982 196.874C57.9928 197.138 57.8462 197.519 57.7582 198.018C57.6702 198.509 57.6262 199.411 57.6262 200.724C57.6262 202.036 57.6702 202.935 57.7582 203.419C57.8462 203.903 57.9928 204.28 58.1982 204.552C58.5575 205.021 59.0708 205.256 59.7382 205.256C60.4055 205.256 60.9188 205.021 61.2782 204.552ZM70.6668 206.048L70.6668 196.324H69.0498C68.6318 196.324 68.3275 196.313 68.1368 196.291C67.9462 196.261 67.7592 196.203 67.5758 196.115C67.3265 195.997 67.1248 195.803 66.9708 195.532C66.8168 195.253 66.7398 194.945 66.7398 194.608C66.7398 194.27 66.8168 193.966 66.9708 193.695C67.1248 193.416 67.3265 193.218 67.5758 193.101C67.7592 193.013 67.9462 192.958 68.1368 192.936C68.3275 192.906 68.6318 192.892 69.0498 192.892H76.1558C76.5738 192.892 76.8782 192.906 77.0688 192.936C77.2595 192.958 77.4465 193.013 77.6298 193.101C77.8792 193.218 78.0808 193.416 78.2348 193.695C78.3888 193.966 78.4658 194.27 78.4658 194.608C78.4658 194.945 78.3888 195.253 78.2348 195.532C78.0808 195.803 77.8792 195.997 77.6298 196.115C77.4465 196.203 77.2595 196.261 77.0688 196.291C76.8782 196.313 76.5738 196.324 76.1558 196.324H74.5388L74.5388 206.048C74.5388 206.524 74.5242 206.865 74.4948 207.071C74.4728 207.269 74.4068 207.478 74.2968 207.698C74.1575 207.976 73.9338 208.204 73.6258 208.38C73.3252 208.556 72.9842 208.644 72.6028 208.644C72.2215 208.644 71.8768 208.556 71.5688 208.38C71.2682 208.204 71.0482 207.976 70.9088 207.698C70.7988 207.478 70.7292 207.269 70.6998 207.071C70.6778 206.865 70.6668 206.524 70.6668 206.048ZM87.047 208.556H82.922C82.658 208.556 82.449 208.552 82.295 208.545C82.141 208.53 81.943 208.482 81.701 208.402C81.4664 208.314 81.2647 208.185 81.096 208.017C80.9274 207.848 80.799 207.646 80.711 207.412C80.6304 207.17 80.5827 206.972 80.568 206.818C80.5607 206.664 80.557 206.455 80.557 206.191L80.557 195.257C80.557 194.993 80.5607 194.784 80.568 194.63C80.5827 194.476 80.6304 194.281 80.711 194.047C80.799 193.805 80.9274 193.599 81.096 193.431C81.2647 193.262 81.4664 193.137 81.701 193.057C81.943 192.969 82.141 192.921 82.295 192.914C82.449 192.899 82.658 192.892 82.922 192.892H89.049C89.467 192.892 89.7714 192.906 89.962 192.936C90.1527 192.958 90.3397 193.013 90.523 193.101C90.7724 193.218 90.974 193.416 91.128 193.695C91.282 193.966 91.359 194.27 91.359 194.608C91.359 194.945 91.282 195.253 91.128 195.532C90.974 195.803 90.7724 195.997 90.523 196.115C90.3397 196.203 90.1527 196.261 89.962 196.291C89.7714 196.313 89.467 196.324 89.049 196.324H84.429L84.429 198.48H87.047C88.6604 198.48 89.9364 198.949 90.875 199.888C91.8137 200.819 92.283 202.029 92.283 203.518C92.283 205.014 91.8137 206.227 90.875 207.159C89.9437 208.09 88.6677 208.556 87.047 208.556ZM84.429 205.124H86.871C87.3477 205.124 87.7254 204.973 88.004 204.673C88.29 204.372 88.433 203.987 88.433 203.518C88.433 203.056 88.29 202.678 88.004 202.385C87.7254 202.084 87.3477 201.934 86.871 201.934H84.429L84.429 205.124ZM102.97 208.556H96.8654C96.6014 208.556 96.3924 208.552 96.2384 208.545C96.0844 208.53 95.8864 208.482 95.6444 208.402C95.4097 208.314 95.2081 208.185 95.0394 208.017C94.8707 207.848 94.7424 207.646 94.6544 207.412C94.5737 207.17 94.5261 206.972 94.5114 206.818C94.5041 206.664 94.5004 206.455 94.5004 206.191L94.5004 195.257C94.5004 194.993 94.5041 194.784 94.5114 194.63C94.5261 194.476 94.5737 194.281 94.6544 194.047C94.7424 193.805 94.8707 193.599 95.0394 193.431C95.2081 193.262 95.4097 193.137 95.6444 193.057C95.8864 192.969 96.0844 192.921 96.2384 192.914C96.3924 192.899 96.6014 192.892 96.8654 192.892H102.97C103.388 192.892 103.693 192.906 103.883 192.936C104.074 192.958 104.261 193.013 104.444 193.101C104.694 193.218 104.895 193.416 105.049 193.695C105.203 193.966 105.28 194.27 105.28 194.608C105.28 194.945 105.203 195.253 105.049 195.532C104.895 195.803 104.694 195.997 104.444 196.115C104.261 196.203 104.074 196.261 103.883 196.291C103.693 196.313 103.388 196.324 102.97 196.324H98.3724L98.3724 198.942H101.98C102.398 198.942 102.703 198.956 102.893 198.986C103.084 199.008 103.271 199.063 103.454 199.151C103.704 199.268 103.905 199.466 104.059 199.745C104.213 200.016 104.29 200.32 104.29 200.658C104.29 200.995 104.213 201.303 104.059 201.582C103.905 201.853 103.704 202.047 103.454 202.165C103.271 202.253 103.084 202.311 102.893 202.341C102.703 202.363 102.398 202.374 101.98 202.374H98.3724L98.3724 205.124H102.97C103.388 205.124 103.693 205.138 103.883 205.168C104.074 205.19 104.261 205.245 104.444 205.333C104.694 205.45 104.895 205.648 105.049 205.927C105.203 206.198 105.28 206.502 105.28 206.84C105.28 207.177 105.203 207.485 105.049 207.764C104.895 208.035 104.694 208.229 104.444 208.347C104.261 208.435 104.074 208.493 103.883 208.523C103.693 208.545 103.388 208.556 102.97 208.556ZM117.038 206.048L117.038 196.324H114.31L114.31 200.416C114.31 201.721 114.241 202.843 114.101 203.782C113.969 204.72 113.775 205.498 113.518 206.114C113.269 206.73 112.932 207.217 112.506 207.577C112.088 207.936 111.623 208.189 111.109 208.336C110.596 208.482 109.984 208.556 109.272 208.556C108.781 208.556 108.433 208.545 108.227 208.523C108.022 208.493 107.828 208.435 107.644 208.347C107.402 208.229 107.201 208.031 107.039 207.753C106.885 207.474 106.808 207.166 106.808 206.829C106.808 206.315 106.97 205.897 107.292 205.575C107.578 205.289 108 205.135 108.557 205.113C108.836 205.098 109.082 205.036 109.294 204.926C109.507 204.808 109.683 204.669 109.822 204.508C109.969 204.339 110.09 204.115 110.185 203.837C110.288 203.558 110.365 203.298 110.416 203.056C110.468 202.814 110.508 202.502 110.537 202.121C110.567 201.739 110.581 201.417 110.581 201.153C110.589 200.889 110.592 200.548 110.592 200.13L110.592 195.257C110.592 194.993 110.596 194.784 110.603 194.63C110.618 194.476 110.666 194.281 110.746 194.047C110.834 193.805 110.963 193.599 111.131 193.431C111.3 193.262 111.502 193.137 111.736 193.057C111.978 192.969 112.176 192.921 112.33 192.914C112.484 192.899 112.693 192.892 112.957 192.892H118.545C118.809 192.892 119.018 192.899 119.172 192.914C119.326 192.921 119.521 192.969 119.755 193.057C119.997 193.137 120.203 193.262 120.371 193.431C120.54 193.599 120.665 193.805 120.745 194.047C120.833 194.281 120.881 194.476 120.888 194.63C120.903 194.784 120.91 194.993 120.91 195.257L120.91 206.048C120.91 206.524 120.896 206.865 120.866 207.071C120.844 207.269 120.778 207.478 120.668 207.698C120.529 207.976 120.305 208.204 119.997 208.38C119.697 208.556 119.356 208.644 118.974 208.644C118.593 208.644 118.248 208.556 117.94 208.38C117.64 208.204 117.42 207.976 117.28 207.698C117.17 207.478 117.101 207.269 117.071 207.071C117.049 206.865 117.038 206.524 117.038 206.048ZM136.317 206.048C136.317 206.524 136.303 206.865 136.273 207.071C136.251 207.269 136.185 207.478 136.075 207.698C135.936 207.976 135.712 208.204 135.404 208.38C135.104 208.556 134.763 208.644 134.381 208.644C134 208.644 133.655 208.556 133.347 208.38C133.047 208.204 132.827 207.976 132.687 207.698C132.577 207.478 132.508 207.269 132.478 207.071C132.456 206.865 132.445 206.524 132.445 206.048L132.445 200.24L128.232 206.873C127.814 207.525 127.437 207.984 127.099 208.248C126.769 208.512 126.377 208.644 125.922 208.644C125.38 208.644 124.925 208.46 124.558 208.094C124.353 207.888 124.214 207.639 124.14 207.346C124.074 207.052 124.041 206.689 124.041 206.257L124.041 195.4C124.041 194.923 124.052 194.586 124.074 194.388C124.104 194.182 124.173 193.97 124.283 193.75C124.423 193.471 124.643 193.244 124.943 193.068C125.251 192.892 125.596 192.804 125.977 192.804C126.359 192.804 126.7 192.892 127 193.068C127.308 193.244 127.532 193.471 127.671 193.75C127.781 193.97 127.847 194.182 127.869 194.388C127.899 194.586 127.913 194.923 127.913 195.4L127.913 201.208L132.126 194.575C132.544 193.922 132.918 193.464 133.248 193.2C133.586 192.936 133.982 192.804 134.436 192.804C134.979 192.804 135.434 192.987 135.8 193.354C136.006 193.559 136.141 193.808 136.207 194.102C136.281 194.395 136.317 194.758 136.317 195.191L136.317 206.048ZM146.288 208.556H141.811C141.547 208.556 141.338 208.552 141.184 208.545C141.03 208.53 140.832 208.482 140.59 208.402C140.355 208.314 140.153 208.185 139.985 208.017C139.816 207.848 139.688 207.646 139.6 207.412C139.519 207.17 139.471 206.972 139.457 206.818C139.449 206.664 139.446 206.455 139.446 206.191L139.446 195.257C139.446 194.993 139.449 194.784 139.457 194.63C139.471 194.476 139.519 194.281 139.6 194.047C139.688 193.805 139.816 193.599 139.985 193.431C140.153 193.262 140.355 193.137 140.59 193.057C140.832 192.969 141.03 192.921 141.184 192.914C141.338 192.899 141.547 192.892 141.811 192.892H145.958C147.556 192.892 148.788 193.302 149.654 194.124C150.519 194.938 150.952 196.038 150.952 197.424C150.952 197.842 150.889 198.234 150.765 198.601C150.64 198.967 150.471 199.279 150.259 199.536C150.053 199.792 149.874 199.994 149.72 200.141C149.566 200.287 149.404 200.416 149.236 200.526C149.419 200.643 149.569 200.746 149.687 200.834C149.811 200.914 149.976 201.057 150.182 201.263C150.394 201.468 150.563 201.681 150.688 201.901C150.812 202.121 150.922 202.41 151.018 202.77C151.12 203.129 151.172 203.518 151.172 203.936C151.172 205.388 150.717 206.521 149.808 207.335C148.906 208.149 147.732 208.556 146.288 208.556ZM143.318 198.898H145.716C146.2 198.898 146.552 198.777 146.772 198.535C146.992 198.285 147.102 197.981 147.102 197.622C147.102 197.262 146.992 196.958 146.772 196.709C146.552 196.452 146.2 196.324 145.716 196.324H143.318L143.318 198.898ZM143.318 205.124H145.914C146.398 205.124 146.753 204.988 146.981 204.717C147.208 204.438 147.322 204.104 147.322 203.716C147.322 203.334 147.208 203.012 146.981 202.748C146.753 202.484 146.398 202.352 145.914 202.352H143.318L143.318 205.124ZM153.027 205.608L157.207 194.509C157.441 193.893 157.709 193.467 158.01 193.233C158.369 192.947 158.824 192.804 159.374 192.804C159.924 192.804 160.378 192.947 160.738 193.233C161.038 193.467 161.306 193.893 161.541 194.509L165.721 205.608C165.867 206.004 165.966 206.315 166.018 206.543C166.076 206.763 166.076 207.016 166.018 207.302C165.966 207.58 165.823 207.837 165.589 208.072C165.207 208.453 164.745 208.644 164.203 208.644C163.763 208.644 163.4 208.512 163.114 208.248C162.952 208.101 162.82 207.936 162.718 207.753C162.622 207.569 162.501 207.272 162.355 206.862L162.124 206.224H156.624L156.393 206.862C156.246 207.272 156.121 207.569 156.019 207.753C155.923 207.936 155.795 208.101 155.634 208.248C155.348 208.512 154.985 208.644 154.545 208.644C154.002 208.644 153.54 208.453 153.159 208.072C152.924 207.837 152.777 207.58 152.719 207.302C152.667 207.016 152.667 206.763 152.719 206.543C152.777 206.315 152.88 206.004 153.027 205.608ZM160.958 203.012L159.374 198.656L157.79 203.012H160.958ZM179.899 206.048C179.899 206.524 179.884 206.865 179.855 207.071C179.833 207.269 179.767 207.478 179.657 207.698C179.518 207.976 179.294 208.204 178.986 208.38C178.685 208.556 178.344 208.644 177.963 208.644C177.582 208.644 177.237 208.556 176.929 208.38C176.628 208.204 176.408 207.976 176.269 207.698C176.159 207.478 176.089 207.269 176.06 207.071C176.038 206.865 176.027 206.524 176.027 206.048L176.027 202.352H171.935L171.935 206.048C171.935 206.524 171.92 206.865 171.891 207.071C171.869 207.269 171.803 207.478 171.693 207.698C171.554 207.976 171.33 208.204 171.022 208.38C170.721 208.556 170.38 208.644 169.999 208.644C169.618 208.644 169.273 208.556 168.965 208.38C168.664 208.204 168.444 207.976 168.305 207.698C168.195 207.478 168.125 207.269 168.096 207.071C168.074 206.865 168.063 206.524 168.063 206.048L168.063 195.4C168.063 194.923 168.074 194.586 168.096 194.388C168.125 194.182 168.195 193.97 168.305 193.75C168.444 193.471 168.664 193.244 168.965 193.068C169.273 192.892 169.618 192.804 169.999 192.804C170.38 192.804 170.721 192.892 171.022 193.068C171.33 193.244 171.554 193.471 171.693 193.75C171.803 193.97 171.869 194.182 171.891 194.388C171.92 194.586 171.935 194.923 171.935 195.4L171.935 198.92H176.027L176.027 195.4C176.027 194.923 176.038 194.586 176.06 194.388C176.089 194.182 176.159 193.97 176.269 193.75C176.408 193.471 176.628 193.244 176.929 193.068C177.237 192.892 177.582 192.804 177.963 192.804C178.344 192.804 178.685 192.892 178.986 193.068C179.294 193.244 179.518 193.471 179.657 193.75C179.767 193.97 179.833 194.182 179.855 194.388C179.884 194.586 179.899 194.923 179.899 195.4L179.899 206.048ZM195.292 206.048C195.292 206.524 195.277 206.865 195.248 207.071C195.226 207.269 195.16 207.478 195.05 207.698C194.911 207.976 194.687 208.204 194.379 208.38C194.078 208.556 193.737 208.644 193.356 208.644C192.975 208.644 192.63 208.556 192.322 208.38C192.021 208.204 191.801 207.976 191.662 207.698C191.552 207.478 191.482 207.269 191.453 207.071C191.431 206.865 191.42 206.524 191.42 206.048L191.42 200.24L187.207 206.873C186.789 207.525 186.411 207.984 186.074 208.248C185.744 208.512 185.352 208.644 184.897 208.644C184.354 208.644 183.9 208.46 183.533 208.094C183.328 207.888 183.188 207.639 183.115 207.346C183.049 207.052 183.016 206.689 183.016 206.257L183.016 195.4C183.016 194.923 183.027 194.586 183.049 194.388C183.078 194.182 183.148 193.97 183.258 193.75C183.397 193.471 183.617 193.244 183.918 193.068C184.226 192.892 184.571 192.804 184.952 192.804C185.333 192.804 185.674 192.892 185.975 193.068C186.283 193.244 186.507 193.471 186.646 193.75C186.756 193.97 186.822 194.182 186.844 194.388C186.873 194.586 186.888 194.923 186.888 195.4L186.888 201.208L191.101 194.575C191.519 193.922 191.893 193.464 192.223 193.2C192.56 192.936 192.956 192.804 193.411 192.804C193.954 192.804 194.408 192.987 194.775 193.354C194.98 193.559 195.116 193.808 195.182 194.102C195.255 194.395 195.292 194.758 195.292 195.191L195.292 206.048ZM206.89 208.556H200.785C200.521 208.556 200.312 208.552 200.158 208.545C200.004 208.53 199.806 208.482 199.564 208.402C199.33 208.314 199.128 208.185 198.959 208.017C198.791 207.848 198.662 207.646 198.574 207.412C198.494 207.17 198.446 206.972 198.431 206.818C198.424 206.664 198.42 206.455 198.42 206.191L198.42 195.257C198.42 194.993 198.424 194.784 198.431 194.63C198.446 194.476 198.494 194.281 198.574 194.047C198.662 193.805 198.791 193.599 198.959 193.431C199.128 193.262 199.33 193.137 199.564 193.057C199.806 192.969 200.004 192.921 200.158 192.914C200.312 192.899 200.521 192.892 200.785 192.892H206.89C207.308 192.892 207.613 192.906 207.803 192.936C207.994 192.958 208.181 193.013 208.364 193.101C208.614 193.218 208.815 193.416 208.969 193.695C209.123 193.966 209.2 194.27 209.2 194.608C209.2 194.945 209.123 195.253 208.969 195.532C208.815 195.803 208.614 195.997 208.364 196.115C208.181 196.203 207.994 196.261 207.803 196.291C207.613 196.313 207.308 196.324 206.89 196.324H202.292L202.292 198.942H205.9C206.318 198.942 206.623 198.956 206.813 198.986C207.004 199.008 207.191 199.063 207.374 199.151C207.624 199.268 207.825 199.466 207.979 199.745C208.133 200.016 208.21 200.32 208.21 200.658C208.21 200.995 208.133 201.303 207.979 201.582C207.825 201.853 207.624 202.047 207.374 202.165C207.191 202.253 207.004 202.311 206.813 202.341C206.623 202.363 206.318 202.374 205.9 202.374H202.292L202.292 205.124H206.89C207.308 205.124 207.613 205.138 207.803 205.168C207.994 205.19 208.181 205.245 208.364 205.333C208.614 205.45 208.815 205.648 208.969 205.927C209.123 206.198 209.2 206.502 209.2 206.84C209.2 207.177 209.123 207.485 208.969 207.764C208.815 208.035 208.614 208.229 208.364 208.347C208.181 208.435 207.994 208.493 207.803 208.523C207.613 208.545 207.308 208.556 206.89 208.556Z" fill="#4D4D4D"/>
<g clip-path="url(#clip0_244_40)">
<path fill-rule="evenodd" clip-rule="evenodd" d="M91.1886 112.84C91.4565 110.031 88.9153 107.091 87.4009 106.218C85.408 105.068 81.9127 103.837 79.1198 103.872C80.8951 108.517 85.5759 114.586 91.1892 112.841L91.1886 112.84Z" fill="#4D4D4D"/>
<path fill-rule="evenodd" clip-rule="evenodd" d="M172.736 112.778C176.747 113.21 178.719 112.244 180.771 110.253C182.146 108.918 184.034 105.994 184.881 103.729C178.597 104.122 173.14 106.625 172.736 112.779L172.736 112.778Z" fill="#4D4D4D"/>
<path fill-rule="evenodd" clip-rule="evenodd" d="M168.56 76.4262C170.109 70.6946 163.419 65.9118 159.079 64.698C159.363 67.6733 160.437 70.7428 161.749 72.7533C163.028 74.7134 165.223 76.2845 168.56 76.4262H168.56Z" fill="#4D4D4D"/>
<path fill-rule="evenodd" clip-rule="evenodd" d="M163.303 127.789C168.176 131.382 176.146 125.732 177.47 122.9C172.516 121.766 165.12 121.799 163.303 127.789Z" fill="#4D4D4D"/>
<path fill-rule="evenodd" clip-rule="evenodd" d="M92.3358 86.4666C95.392 86.6977 97.9343 85.5769 99.7987 83.2887C100.967 81.8547 102.636 78.0585 103.094 75.7847C100.834 76.0594 97.2114 77.9891 95.7883 79.0962C93.9062 80.5606 92.2439 82.6686 92.3353 86.4666H92.3358Z" fill="#4D4D4D"/>
<path fill-rule="evenodd" clip-rule="evenodd" d="M173.03 82.3704C174.94 81.3878 176.051 77.5337 175.682 74.739C175.382 72.4664 173.978 68.556 172.712 67.3262C171.678 68.848 170.179 72.6683 169.941 74.9266C169.569 78.4526 171.253 81.1526 173.029 82.3704H173.03Z" fill="#4D4D4D"/>
<path fill-rule="evenodd" clip-rule="evenodd" d="M88.3913 104.641C89.5762 99.2895 87.6175 96.4518 83.8784 93.7478C83.12 93.1994 81.5297 92.074 80.5395 91.7327C80.2054 96.0996 82.3857 104.106 88.3918 104.641H88.3913Z" fill="#4D4D4D"/>
<path fill-rule="evenodd" clip-rule="evenodd" d="M127.105 136.715C127.37 133.502 125.159 130.96 123.593 129.786C122.014 128.602 118.148 127.209 115.662 126.968C116.318 130.012 119.337 134.864 122.577 136.192C123.663 136.637 125.868 137.087 127.104 136.715L127.105 136.715Z" fill="#4D4D4D"/>
<path fill-rule="evenodd" clip-rule="evenodd" d="M136.85 136.718C140.617 136.864 142.853 135.768 144.553 133.789C145.627 132.54 147.904 128.969 148.356 126.853C142.429 127.732 136.809 130.341 136.85 136.718Z" fill="#4D4D4D"/>
<path fill-rule="evenodd" clip-rule="evenodd" d="M87.9956 93.9367C88.9453 91.6955 90.8206 89.9661 89.3439 85.7213C88.6392 83.6953 86.2854 79.9972 85.1307 79.1528C84.0286 80.4492 83.5558 85.7322 83.8139 87.7554C84.0064 89.2605 84.4895 90.4078 85.2113 91.4535C85.7623 92.2514 86.9581 93.5374 87.9951 93.9367H87.9956Z" fill="#4D4D4D"/>
<path fill-rule="evenodd" clip-rule="evenodd" d="M93.9984 120.864C93.3994 114.407 86.0307 113.393 80.9445 113.333C81.5338 114.954 84.5266 118.424 85.6355 119.247C86.5915 119.956 87.5793 120.689 89.0383 121.055C90.4054 121.398 92.7769 121.503 93.9984 120.864Z" fill="#4D4D4D"/>
<path fill-rule="evenodd" clip-rule="evenodd" d="M175.546 104.551C178.617 104.14 180.42 102.237 181.619 100.168C182.62 98.4384 183.839 94.0003 183.416 91.6038C181.434 92.5801 178.365 94.7942 177.314 96.1571C174.963 99.2048 175.059 99.9568 175.546 104.551H175.546Z" fill="#4D4D4D"/>
<path fill-rule="evenodd" clip-rule="evenodd" d="M176.028 93.7462C177.8 93.4588 179.826 90.1898 180.157 87.776C180.447 85.6628 180.005 80.4332 178.869 79.01C178.841 79.0352 178.799 79.0387 178.787 79.088C178.776 79.1374 178.722 79.1505 178.707 79.1672L178.555 79.3335C177.362 80.7406 175.275 83.8634 174.69 85.438C173.446 88.7833 174.366 91.3657 176.028 93.7462H176.028Z" fill="#4D4D4D"/>
<path fill-rule="evenodd" clip-rule="evenodd" d="M103.437 128.423C104.273 127.96 105.193 126.665 105.723 125.536C106.377 124.142 106.648 122.581 106.405 120.878C106.077 118.581 104.57 114.708 103.363 113.332C102.39 114.916 100.891 118.772 100.625 120.876C100.201 124.23 101.632 126.992 103.437 128.423Z" fill="#4D4D4D"/>
<path fill-rule="evenodd" clip-rule="evenodd" d="M174.385 99.4029C174.913 95.1776 174.92 93.946 172.665 91.1135C171.708 89.9118 168.686 87.0999 166.781 86.3708C166.599 89.1701 167.219 93.0128 168.321 95.1587C169.159 96.7906 171.756 99.517 174.385 99.4029Z" fill="#4D4D4D"/>
<path fill-rule="evenodd" clip-rule="evenodd" d="M167.952 121.605C169.481 119.066 170.344 116.753 169.161 113.336C168.456 111.298 166.372 107.689 165.103 106.79C164.202 108.673 163.332 113.086 163.656 115.514C164.024 118.272 166.035 120.842 167.951 121.606L167.952 121.605Z" fill="#4D4D4D"/>
<path fill-rule="evenodd" clip-rule="evenodd" d="M160.331 128.374C162.351 127.472 163.7 123.796 163.358 120.889C163.079 118.522 162.421 117.018 161.498 115.016L160.769 113.505C160.604 113.289 160.701 113.391 160.506 113.233C158.633 116.46 156.314 121.381 158.201 125.295C158.867 126.677 159.717 127.356 160.331 128.374H160.331Z" fill="#4D4D4D"/>
<path fill-rule="evenodd" clip-rule="evenodd" d="M90.9695 82.4552C92.7031 81.375 94.3997 78.4857 94.0965 75.2132C93.9166 73.271 92.208 68.7417 91.2852 67.4683C89.9913 68.5885 87.0533 75.2935 88.7761 79.4723C89.2466 80.6127 90.2065 82.014 90.97 82.4552H90.9695Z" fill="#4D4D4D"/>
<path fill-rule="evenodd" clip-rule="evenodd" d="M89.7074 99.5092C96.2212 98.8627 97.088 91.7286 97.2456 86.46C95.4634 86.92 90.3538 91.2227 89.5292 94.5227C89.1877 95.8896 89.0889 98.3132 89.7074 99.5092Z" fill="#4D4D4D"/>
<path fill-rule="evenodd" clip-rule="evenodd" d="M92.2051 110.919C94.3648 110.283 96.469 107.829 97.1623 105.523C97.9463 102.915 97.4495 99.0461 96.7814 96.4683C95.5691 97.0539 92.9086 100.681 92.0909 102.339C89.9535 106.672 91.5324 108.307 92.2051 110.92V110.919Z" fill="#4D4D4D"/>
<path fill-rule="evenodd" clip-rule="evenodd" d="M96.0916 121.739C98.0588 120.551 99.8553 118.858 100.315 115.683C100.614 113.616 99.813 108.315 98.8611 106.934C97.6705 107.705 95.4988 111.505 94.8359 113.49C93.9719 116.078 94.1877 119.646 96.0916 121.739Z" fill="#4D4D4D"/>
<path fill-rule="evenodd" clip-rule="evenodd" d="M103.412 139.301C106.216 140.029 108.62 141.097 111.965 140.851C114.541 140.661 117.455 139.113 118.261 137.033C114.435 133.556 110.565 134.695 106.519 136.959C105.89 137.31 105.425 137.638 104.883 138.006C104.296 138.404 103.713 138.738 103.412 139.301Z" fill="#4D4D4D"/>
<path fill-rule="evenodd" clip-rule="evenodd" d="M145.731 136.837C145.951 137.158 145.834 137.242 146.199 137.672L148.173 139.49C151.553 141.593 157.968 140.764 160.524 139.12C159.62 137.851 155.902 135.805 153.889 135.178C150.387 134.087 147.795 135.305 145.732 136.837H145.731Z" fill="#4D4D4D"/>
<path fill-rule="evenodd" clip-rule="evenodd" d="M171.803 110.78C172.46 108.111 174.019 106.616 171.936 102.304C171.037 100.445 168.465 97.0632 167.215 96.3364C166.541 98.8839 166.119 102.767 166.839 105.367C167.495 107.741 169.503 110.205 171.803 110.78Z" fill="#4D4D4D"/>
<path fill-rule="evenodd" clip-rule="evenodd" d="M113.379 133.684C113.864 133.017 114.562 130.599 114.636 129.584C114.954 125.193 109.556 119.841 108.487 119.463C107.791 121.677 107.85 126.269 108.534 128.419C109.226 130.596 111.26 133.234 113.379 133.684Z" fill="#4D4D4D"/>
<path fill-rule="evenodd" clip-rule="evenodd" d="M150.58 133.57C152.778 133.044 154.702 130.63 155.432 128.39C156.385 125.46 155.878 122.452 155.588 119.36C154.729 119.526 149.487 124.206 149.393 129.265C149.351 131.529 149.828 132.107 150.58 133.57Z" fill="#4D4D4D"/>
<path fill-rule="evenodd" clip-rule="evenodd" d="M94.1196 131.62C95.1252 132.673 98.9809 134.774 100.912 135.285C102.391 135.677 104.058 135.77 105.598 135.409C106.966 135.088 108.402 134.369 108.93 133.546C107.936 131.681 105.607 129.839 102.454 129.633C99.3595 129.431 96.4843 130.609 94.1196 131.62Z" fill="#4D4D4D"/>
<path fill-rule="evenodd" clip-rule="evenodd" d="M171.695 86.3395C171.431 82.6202 170.333 80.5838 168.295 79.0144C166.429 77.5775 163.624 76.3861 160.902 75.6616C161.351 78.232 162.858 81.4052 164.134 83.0349C165.734 85.0804 167.836 86.4909 171.694 86.3395H171.695Z" fill="#4D4D4D"/>
<path fill-rule="evenodd" clip-rule="evenodd" d="M169.968 120.858C173.87 121.43 175.68 121.294 178.302 119.181C179.421 118.278 182.46 114.959 183.024 113.276C179.862 113.327 176.771 113.518 174.252 114.806C172.342 115.782 170.239 117.959 169.968 120.858H169.968Z" fill="#4D4D4D"/>
<path fill-rule="evenodd" clip-rule="evenodd" d="M86.5045 123.038C86.7392 123.544 86.6827 123.401 87.1064 123.798L89.141 125.717C90.206 126.671 90.845 127.19 92.3068 127.929C95.7342 129.66 97.2532 129.268 100.727 128.011C100.14 125.697 97.8653 123.731 95.66 122.967C93.1411 122.096 89.0154 122.403 86.5045 123.039V123.038Z" fill="#4D4D4D"/>
<path fill-rule="evenodd" clip-rule="evenodd" d="M113.907 143.532C114.997 144.625 120.864 144.822 122.667 144.478C125.111 144.011 127.955 142.064 128.471 139.994C125.213 139.101 123.77 136.302 116.77 141.071C115.284 142.083 115.079 142.359 113.906 143.532H113.907Z" fill="#4D4D4D"/>
<path fill-rule="evenodd" clip-rule="evenodd" d="M155.032 133.588C159.774 137.538 166.386 134.582 169.878 131.524C169.093 130.704 163.343 129.465 161.504 129.55C158.782 129.676 155.702 131.502 155.032 133.588V133.588Z" fill="#4D4D4D"/>
<path fill-rule="evenodd" clip-rule="evenodd" d="M95.3389 76.5437C102.426 76.2064 103.643 70.5976 104.95 64.8132C103.01 65.0352 99.3133 67.6922 98.2083 68.688C96.2594 70.445 95.0848 72.7366 95.3383 76.5437H95.3389Z" fill="#4D4D4D"/>
<path fill-rule="evenodd" clip-rule="evenodd" d="M135.532 140.09C136.602 142.182 138.329 143.76 141.28 144.358C145.008 145.113 146.892 143.983 150.082 143.469C149.815 143.058 150.085 143.429 149.796 143.13L149.262 142.671C149.01 142.464 148.831 142.335 148.57 142.102C147.989 141.583 147.69 141.34 147.096 140.89C143.502 138.167 138.873 137.24 135.531 140.09H135.532Z" fill="#4D4D4D"/>
<path fill-rule="evenodd" clip-rule="evenodd" d="M131.527 136.85C129.272 137.618 129.564 140.139 131.533 140.753C135.002 141.081 134.548 136.203 131.527 136.85Z" fill="#4D4D4D"/>
<path fill-rule="evenodd" clip-rule="evenodd" d="M132.14 62.8801C127.519 62.6656 125.411 58.4616 119.6 60.3126C115.989 61.4633 113.392 64.909 111.996 68.7419C110.279 73.4536 110.387 77.8395 110.773 83.1592C111.119 87.9151 111.874 92.9457 112.755 97.3941C113.646 101.896 114.581 106.014 116.075 110.159C116.811 112.2 117.647 113.889 118.718 115.492C119.488 116.646 121.872 119.069 123.916 117.394C127.482 114.47 128.11 93.6713 132.107 93.2973C134.357 93.8354 135.315 98.5408 135.857 100.944C136.58 104.15 137.016 107.361 137.665 110.613C138.18 113.19 138.827 118.115 141.754 117.926C144.357 117.758 146.226 114.166 147.23 111.883C150.445 104.573 152.394 91.9964 153.161 83.4925C153.613 78.4722 153.789 73.6332 152.007 68.7419C150.611 64.909 148.013 61.4633 144.403 60.3126C142.457 59.6925 140.926 59.7516 139.577 60.1124C136.972 60.6637 135.853 62.3111 132.14 62.8796V62.8801ZM122.676 64.0767C121.241 64.4467 120.277 64.7484 119.198 65.591C118.2 66.3712 117.532 67.032 116.83 68.1672C116.199 69.1888 115.71 70.4754 115.556 71.8268C115.232 74.6651 117.342 74.1976 117.496 72.8737C117.711 71.0318 117.767 70.3951 118.651 69.035C119.235 68.1373 120.252 67.1863 121.243 66.6654C123.279 65.5951 124.483 66.1618 125.139 65.6237C125.68 65.1798 126.026 63.214 122.677 64.0773L122.676 64.0767ZM151.264 74.7729C151.269 75.1871 151.344 75.65 151.369 76.0389C151.545 78.6907 151.23 82.9143 150.934 85.5191C150.288 91.2094 146.633 116.198 141.382 115.831C138.419 110.561 138.724 91.2019 131.994 91.2616C125.79 91.316 125.844 111.249 122.609 115.826C117.53 116.125 114.053 93.1155 113.311 87.7757C112.376 81.0385 111.619 72.4245 115.371 66.4572C116.688 64.3624 119.415 61.3497 123.322 61.9933C126.498 62.5159 128.932 65.3134 132.802 64.8666C133.502 64.7857 134.118 64.6371 134.793 64.3928C137.443 63.4463 139.766 61.4989 142.751 61.9876C145.56 62.4482 147.56 64.7559 148.63 66.4578C150.16 68.8916 150.941 71.7655 151.264 74.7729Z" fill="#4D4D4D"/>
</g>
<path d="M131.725 1.00411L131.449 0.84469L131.173 1.00411L66.4489 38.4337L66.7246 38.9105L66.4487 38.4338L1.72415 75.8909L1.44928 76.0499L1.44928 76.3675L1.44929 151.227L1.44929 226.113L1.44929 226.431L1.72416 226.59L66.4487 264.047L66.4489 264.047L131.173 301.477L131.449 301.636L131.725 301.477L196.449 264.047L196.45 264.047L261.174 226.59L261.449 226.431L261.449 226.113L261.449 151.227L261.449 76.3675L261.449 76.0499L261.174 75.8909L196.45 38.4338L196.174 38.9105L196.449 38.4337L131.725 1.00411Z" stroke="#024FA2" stroke-width="1.10141"/>
<defs>
<clipPath id="clip0_244_40">
<rect width="105.763" height="84.7903" fill="white" transform="translate(79.1187 59.8428)"/>
</clipPath>
</defs>
</svg>
