<svg width="133" height="153" viewBox="0 0 133 153" fill="none" xmlns="http://www.w3.org/2000/svg">
<path d="M98.5402 132.147L98.5397 132.148L66.3592 150.692L34.1788 132.148L34.1782 132.147L2.00004 113.591L2.00004 76.507L2.00004 39.4089L34.1782 20.8526L34.1788 20.8523L66.3592 2.3083L98.5397 20.8523L98.5402 20.8526L130.718 39.4089L130.718 76.507L130.718 113.591L98.5402 132.147Z" fill="#FFDC0A" stroke="#383838" stroke-width="4"/>
<path d="M40.4112 94.7616C37.2579 94.7616 34.4346 93.9916 31.9412 92.4516C29.4479 90.8749 27.4862 88.6016 26.0562 85.6316C24.6262 82.6616 23.9112 79.0682 23.9112 74.8516C23.9112 70.6349 24.6262 67.0416 26.0562 64.0716C27.4862 61.1016 29.4479 58.8466 31.9412 57.3066C34.4346 55.7299 37.2579 54.9416 40.4112 54.9416C43.6012 54.9416 46.4246 55.7299 48.8812 57.3066C51.3746 58.8466 53.3362 61.1016 54.7662 64.0716C56.1962 67.0416 56.9112 70.6349 56.9112 74.8516C56.9112 79.0682 56.1962 82.6616 54.7662 85.6316C53.3362 88.6016 51.3746 90.8749 48.8812 92.4516C46.4246 93.9916 43.6012 94.7616 40.4112 94.7616ZM40.4112 87.2266C41.9146 87.2266 43.2162 86.8049 44.3162 85.9616C45.4529 85.1182 46.3329 83.7799 46.9562 81.9466C47.6162 80.1132 47.9462 77.7482 47.9462 74.8516C47.9462 71.9549 47.6162 69.5899 46.9562 67.7566C46.3329 65.9232 45.4529 64.5849 44.3162 63.7416C43.2162 62.8982 41.9146 62.4766 40.4112 62.4766C38.9446 62.4766 37.6429 62.8982 36.5062 63.7416C35.4062 64.5849 34.5262 65.9232 33.8662 67.7566C33.2429 69.5899 32.9312 71.9549 32.9312 74.8516C32.9312 77.7482 33.2429 80.1132 33.8662 81.9466C34.5262 83.7799 35.4062 85.1182 36.5062 85.9616C37.6429 86.8049 38.9446 87.2266 40.4112 87.2266ZM66.7953 94.1016L93.0853 55.6016L99.6303 55.6016L73.3403 94.1016L66.7953 94.1016ZM70.1503 76.3916C68.2803 76.3916 66.6303 75.9699 65.2003 75.1266C63.7703 74.2466 62.6337 73.0182 61.7903 71.4416C60.9837 69.8282 60.5803 67.9399 60.5803 65.7766C60.5803 63.6132 60.9837 61.7432 61.7903 60.1666C62.6337 58.5899 63.7703 57.3616 65.2003 56.4816C66.6303 55.6016 68.2803 55.1616 70.1503 55.1616C72.0203 55.1616 73.6703 55.6016 75.1003 56.4816C76.5303 57.3616 77.6487 58.5899 78.4553 60.1666C79.262 61.7432 79.6653 63.6132 79.6653 65.7766C79.6653 67.9399 79.262 69.8282 78.4553 71.4416C77.6487 73.0182 76.5303 74.2466 75.1003 75.1266C73.6703 75.9699 72.0203 76.3916 70.1503 76.3916ZM70.1503 71.8816C71.3603 71.8816 72.332 71.3866 73.0653 70.3966C73.7987 69.3699 74.1653 67.8299 74.1653 65.7766C74.1653 63.7232 73.7987 62.2016 73.0653 61.2116C72.332 60.1849 71.3603 59.6716 70.1503 59.6716C68.977 59.6716 68.0053 60.1849 67.2353 61.2116C66.502 62.2016 66.1353 63.7232 66.1353 65.7766C66.1353 67.7932 66.502 69.3149 67.2353 70.3416C68.0053 71.3682 68.977 71.8816 70.1503 71.8816ZM96.2753 94.5416C94.442 94.5416 92.792 94.1199 91.3253 93.2766C89.8953 92.3966 88.777 91.1682 87.9703 89.5916C87.1637 87.9782 86.7603 86.0899 86.7603 83.9266C86.7603 81.7632 87.1637 79.8932 87.9703 78.3166C88.777 76.7399 89.8953 75.5116 91.3253 74.6316C92.792 73.7516 94.442 73.3116 96.2753 73.3116C98.182 73.3116 99.8503 73.7516 101.28 74.6316C102.71 75.5116 103.829 76.7399 104.635 78.3166C105.442 79.8932 105.845 81.7632 105.845 83.9266C105.845 86.0899 105.442 87.9782 104.635 89.5916C103.829 91.1682 102.71 92.3966 101.28 93.2766C99.8503 94.1199 98.182 94.5416 96.2753 94.5416ZM96.2753 90.0316C97.4853 90.0316 98.457 89.5366 99.1903 88.5466C99.9237 87.5199 100.29 85.9799 100.29 83.9266C100.29 81.9099 99.9237 80.3882 99.1903 79.3616C98.457 78.3349 97.4853 77.8216 96.2753 77.8216C95.102 77.8216 94.1303 78.3349 93.3603 79.3616C92.627 80.3516 92.2603 81.8732 92.2603 83.9266C92.2603 85.9799 92.627 87.5199 93.3603 88.5466C94.1303 89.5366 95.102 90.0316 96.2753 90.0316Z" fill="#4D4D4D"/>
</svg>
