<svg width="538" height="357" viewBox="0 0 538 357" fill="none" xmlns="http://www.w3.org/2000/svg">
<path d="M634.427 356.298H267.44L0.929688 0H634.427V356.298Z" fill="#FFB80C"/>
<path d="M340.616 -33.2406L423.239 157.149L410.897 163.685L303.461 -13.5645L340.616 -33.2406Z" fill="#FFC82A"/>
<path d="M532.514 -19.9635L468.115 177.713L451.011 173.929L481.023 -31.3555L532.514 -19.9635Z" fill="#FFC82A"/>
<path d="M113.302 -112.706L389.283 255.634L351.738 292.399L0.273438 -2.02344L113.302 -112.706Z" fill="#FFC82A"/>
<path d="M665.783 235.155L476.945 194.766L665.783 171.734V235.155Z" fill="#FEC41B" stroke="#FFC728" stroke-width="0.712596"/>
<path d="M701.486 55.9387L490.967 184.597L655.11 4.03552L701.486 55.9387Z" fill="#FEC41B" stroke="#FFC728" stroke-width="0.712596"/>
<path d="M638.545 332.438L492.47 208.639L660.679 297.533L638.545 332.438Z" fill="#FEC41B" stroke="#FFC728" stroke-width="0.712596"/>
<path d="M538.81 396.176L447.161 182.6L594.989 358.404L538.81 396.176Z" fill="#FEC41B" stroke="#FFC728" stroke-width="0.712596"/>
<path d="M163.759 216.9L371.614 112.927L204.75 270.776L163.759 216.9Z" fill="#FEC41B" stroke="#FFC728" stroke-width="0.712596"/>
<g opacity="0.24">
<path d="M323.313 234.095C323.431 230.71 325.787 227.618 328.982 226.674C332.722 225.577 335.579 227.061 338.583 231.715C339.554 228.978 341.351 227.123 343.972 226.072C339.775 223.428 338.229 220.351 339.054 216.486C339.79 213.039 342.514 210.441 345.754 210.101C349.641 209.684 352.394 211.663 354.353 216.301C355.928 211.987 358.623 209.916 362.422 210.07C365.691 210.194 368.606 212.606 369.549 215.945C370.638 219.872 369.254 222.887 365.013 225.979C366 226.705 367.119 227.339 367.988 228.251C368.871 229.179 369.505 230.385 370.226 231.436C372.965 227.154 375.763 225.654 379.4 226.582C382.565 227.401 384.98 230.168 385.363 233.4C385.613 235.518 385.231 237.497 384.067 239.275C382.919 241.021 381.314 242.104 379.296 242.707C383.846 244.917 385.805 247.638 385.422 251.411C385.289 252.694 384.921 254.039 384.318 255.137C383.729 256.203 382.786 257.177 381.8 257.873C380.813 258.569 379.591 258.878 378.575 259.311C383.213 260.81 385.451 263.671 385.172 267.86C384.921 271.54 382.271 274.539 378.678 275.127C376.572 275.467 374.658 274.879 372.965 273.534C371.242 272.158 370.388 270.241 369.976 267.86C369.254 272.328 366.854 274.802 362.716 275.575C367.59 277.214 369.873 280.228 369.372 284.202C368.886 288.036 366.044 290.88 362.451 291.097C358.976 291.313 355.722 288.793 354.912 285.237C354.5 283.444 354.662 281.697 355.428 280.043C356.62 277.461 358.697 276.116 361.332 275.575C357.798 274.987 355.531 272.916 354.397 269.422C352.144 274.106 349.715 275.807 345.798 275.451C342.779 275.173 339.937 272.792 339.186 269.623C338.067 264.969 339.864 261.645 343.928 259.435C341.307 258.399 339.613 256.513 338.583 253.869C336.197 258.059 333.282 259.744 329.763 259.048C326.479 258.399 323.799 255.678 323.431 252.246C322.901 247.329 325.198 244.268 329.645 242.753C325.213 241.052 323.21 238.27 323.357 234.126L323.313 234.095ZM370.138 237.435C369.239 239.816 367.855 241.501 365.632 242.707C367.782 243.897 369.225 245.551 370.123 247.932C371.33 245.258 373.112 243.526 375.777 242.738C373.156 241.887 371.286 240.202 370.123 237.435H370.138ZM369.902 266.453C370.653 262.403 372.935 259.976 377.088 259.203C373.716 258.723 371.551 257.007 370.167 253.884C369.092 256.528 367.443 258.352 364.852 259.419C367.738 260.903 369.49 263.13 369.917 266.453H369.902ZM354.309 265.232C355.148 262.48 356.694 260.609 359.212 259.45C356.974 258.507 355.413 257.069 354.309 254.936C353.16 257.1 351.614 258.538 349.346 259.419C351.85 260.579 353.484 262.403 354.309 265.232ZM357.901 242.707C356.738 241.485 355.457 240.156 354.309 238.965C353.19 240.125 351.894 241.47 350.686 242.738C351.82 243.897 353.145 245.242 354.309 246.433C355.442 245.258 356.723 243.928 357.901 242.722V242.707ZM354.294 230.57C355.914 227.973 356.665 227.277 359.286 225.994C356.768 224.835 355.118 222.949 354.338 219.996C353.514 222.949 351.894 224.866 349.229 226.025C351.57 226.937 353.204 228.437 354.294 230.57ZM338.509 248.102C339.422 245.613 340.865 243.913 343.088 242.707C340.894 241.501 339.393 239.785 338.524 237.265C337.361 240.171 335.432 241.918 332.354 242.707C335.343 243.511 337.302 245.165 338.494 248.102H338.509Z" fill="#E31E24"/>
<path d="M331.044 259.28C335.285 259.357 338.687 262.511 338.672 267.242C338.657 272.282 334.902 275.127 331.118 275.157C326.98 275.188 323.564 271.602 323.535 267.257C323.52 262.928 326.922 259.203 331.044 259.264V259.28Z" fill="#E31E24"/>
<path d="M377.55 226.194C373.103 226.194 370.114 222.715 369.996 218.263C369.878 213.965 373.412 210.332 377.535 210.316C381.673 210.301 385.118 213.857 385.133 218.201C385.133 222.221 382.379 226.209 377.564 226.194H377.55Z" fill="#E31E24"/>
<path d="M331.117 226.194C327.024 226.209 323.563 222.592 323.549 218.263C323.549 213.934 326.95 210.332 331.073 210.316C335.181 210.316 338.641 213.903 338.656 218.217C338.671 222.499 335.211 226.163 331.102 226.178L331.117 226.194Z" fill="#E31E24"/>
<path d="M393.129 243.188C397.163 243.188 400.491 246.682 400.477 250.918C400.477 255.154 397.149 258.648 393.114 258.632C389.08 258.632 385.752 255.138 385.767 250.902C385.767 246.666 389.094 243.172 393.129 243.188Z" fill="#E31E24"/>
<path d="M346.652 275.623C351.305 275.623 353.97 279.442 354 283.353C354.029 287.589 350.687 291.083 346.637 291.083C342.603 291.083 339.275 287.589 339.275 283.353C339.334 279.442 341.984 275.623 346.637 275.623H346.652Z" fill="#E31E24"/>
<path d="M393.158 242.291C389.138 242.321 385.781 238.827 385.781 234.591C385.781 230.371 389.109 226.861 393.143 226.861C397.178 226.861 400.506 230.386 400.476 234.607C400.447 238.797 397.163 242.26 393.173 242.275L393.158 242.291Z" fill="#E31E24"/>
<path d="M346.63 209.838C342.639 209.792 339.356 206.329 339.341 202.139C339.341 197.949 342.595 194.486 346.6 194.44C350.606 194.394 353.977 197.888 353.992 202.124C353.992 206.329 350.62 209.885 346.63 209.838Z" fill="#E31E24"/>
<path d="M315.527 226.891C319.547 226.86 322.904 230.385 322.875 234.605C322.86 238.795 319.576 242.243 315.586 242.274C311.566 242.305 308.209 238.78 308.238 234.559C308.253 230.369 311.537 226.922 315.527 226.891Z" fill="#E31E24"/>
<path d="M362.105 209.855C358.188 209.963 354.728 206.376 354.698 202.171C354.669 197.997 357.923 194.518 361.943 194.441C365.904 194.363 369.246 197.765 369.349 201.985C369.452 206.144 366.154 209.731 362.119 209.855H362.105Z" fill="#E31E24"/>
<path d="M315.542 243.217C319.562 243.217 322.904 246.742 322.875 250.947C322.845 255.152 319.547 258.584 315.557 258.6C311.537 258.6 308.194 255.075 308.224 250.87C308.253 246.664 311.552 243.232 315.542 243.217Z" fill="#E31E24"/>
<path d="M377.606 275.838C381.493 275.869 384.703 279.239 384.703 283.321C384.703 287.449 381.478 290.865 377.547 290.865C373.615 290.865 370.376 287.449 370.391 283.321C370.405 279.193 373.674 275.807 377.591 275.838H377.606Z" fill="#E31E24"/>
<path d="M393.073 259.727C397.005 259.696 400.259 263.097 400.273 267.225C400.273 271.306 397.108 274.708 393.206 274.754C389.289 274.816 385.99 271.446 385.961 267.318C385.917 263.205 389.142 259.758 393.073 259.727Z" fill="#E31E24"/>
<path d="M331.122 276.07C335.01 276.086 338.22 279.456 338.234 283.538C338.249 287.65 334.995 291.082 331.078 291.067C327.191 291.051 323.981 287.681 323.966 283.599C323.951 279.487 327.206 276.055 331.122 276.07Z" fill="#E31E24"/>
<path d="M315.465 259.743C319.367 259.681 322.666 263.067 322.695 267.195C322.725 271.261 319.544 274.662 315.642 274.724C311.74 274.786 308.442 271.4 308.412 267.272C308.383 263.206 311.563 259.805 315.465 259.743Z" fill="#E31E24"/>
<path d="M393.123 225.746C389.235 225.746 386.025 222.407 385.981 218.31C385.937 214.213 389.191 210.765 393.108 210.75C396.995 210.75 400.205 214.089 400.25 218.186C400.294 222.283 397.04 225.731 393.123 225.746Z" fill="#E31E24"/>
<path d="M377.635 209.62C373.733 209.682 370.45 206.266 370.435 202.153C370.42 198.087 373.601 194.686 377.503 194.639C381.405 194.578 384.688 197.994 384.703 202.107C384.718 206.173 381.537 209.574 377.635 209.62Z" fill="#E31E24"/>
<path d="M315.515 225.714C311.613 225.683 308.403 222.282 308.447 218.201C308.477 214.104 311.716 210.733 315.604 210.78C319.506 210.811 322.716 214.212 322.671 218.293C322.642 222.39 319.403 225.761 315.515 225.714Z" fill="#E31E24"/>
<path d="M331.077 209.591C327.175 209.575 323.965 206.19 323.994 202.093C324.009 197.996 327.234 194.626 331.136 194.656C335.038 194.672 338.248 198.058 338.219 202.155C338.204 206.252 334.979 209.622 331.077 209.591Z" fill="#E31E24"/>
<path d="M408.657 227.443C412.412 227.443 415.445 230.597 415.445 234.54C415.445 238.497 412.456 241.682 408.716 241.698C404.947 241.713 401.899 238.575 401.869 234.648C401.84 230.644 404.858 227.443 408.657 227.443Z" fill="#E31E24"/>
<path d="M393.058 276.223C396.828 276.207 399.876 279.346 399.89 283.273C399.92 287.23 396.945 290.446 393.205 290.477C389.421 290.508 386.358 287.4 386.314 283.474C386.27 279.454 389.259 276.238 393.058 276.223Z" fill="#E31E24"/>
<path d="M408.613 243.773C412.382 243.758 415.43 246.896 415.445 250.823C415.475 254.781 412.485 257.997 408.76 258.028C404.976 258.059 401.913 254.951 401.869 251.024C401.825 247.005 404.814 243.789 408.613 243.773Z" fill="#E31E24"/>
<path d="M346.629 292.564C350.398 292.564 353.431 295.687 353.461 299.63C353.476 303.588 350.501 306.788 346.761 306.819C342.947 306.85 339.885 303.696 339.885 299.707C339.885 295.765 342.889 292.58 346.643 292.564H346.629Z" fill="#E31E24"/>
<path d="M361.914 292.565C365.727 292.534 368.79 295.688 368.805 299.661C368.805 303.619 365.816 306.803 362.061 306.819C358.291 306.834 355.243 303.696 355.229 299.769C355.199 295.811 358.173 292.596 361.914 292.565Z" fill="#E31E24"/>
<path d="M393.132 209.253C389.392 209.253 386.344 206.068 386.344 202.156C386.344 198.23 389.377 195.029 393.103 195.029C396.843 195.029 399.891 198.214 399.891 202.125C399.891 206.052 396.857 209.253 393.132 209.253Z" fill="#E31E24"/>
<path d="M315.54 276.457C319.28 276.457 322.328 279.642 322.328 283.569C322.328 287.496 319.295 290.696 315.555 290.696C311.815 290.696 308.767 287.511 308.767 283.584C308.767 279.657 311.8 276.457 315.54 276.457Z" fill="#E31E24"/>
<path d="M315.555 209.237C311.844 209.237 308.781 206.021 308.796 202.11C308.796 198.214 311.888 195.014 315.614 195.029C319.295 195.06 322.313 198.245 322.328 202.11C322.328 206.006 319.28 209.237 315.569 209.237H315.555Z" fill="#E31E24"/>
<path d="M299.978 227.478C303.688 227.478 306.766 230.679 306.766 234.575C306.766 238.44 303.747 241.64 300.081 241.671C296.355 241.717 293.263 238.532 293.234 234.621C293.204 230.71 296.252 227.478 299.978 227.463V227.478Z" fill="#E31E24"/>
<path d="M300.021 243.801C303.702 243.801 306.735 246.986 306.75 250.851C306.779 254.762 303.731 257.993 300.006 258.009C296.295 258.009 293.218 254.808 293.218 250.897C293.218 247.001 296.295 243.785 300.006 243.801H300.021Z" fill="#E31E24"/>
<path d="M346.641 192.894C342.93 192.894 339.882 189.647 339.897 185.736C339.926 181.84 343.018 178.64 346.729 178.686C350.41 178.732 353.414 181.917 353.414 185.782C353.414 189.678 350.351 192.894 346.626 192.878L346.641 192.894Z" fill="#E31E24"/>
<path d="M362.044 192.893C358.333 192.909 355.256 189.709 355.241 185.797C355.241 181.901 358.304 178.686 362.029 178.686C365.71 178.686 368.744 181.87 368.773 185.72C368.803 189.631 365.755 192.862 362.044 192.878V192.893Z" fill="#E31E24"/>
<path d="M408.723 260.281C412.389 260.297 415.29 263.358 415.305 267.207C415.305 271.103 412.389 274.195 408.679 274.195C404.968 274.195 402.038 271.103 402.052 267.223C402.052 263.342 405.012 260.266 408.723 260.297V260.281Z" fill="#E31E24"/>
<path d="M377.605 292.734C381.301 292.75 384.217 295.873 384.187 299.769C384.158 303.603 381.228 306.648 377.561 306.648C373.851 306.648 370.92 303.556 370.935 299.676C370.935 295.795 373.895 292.719 377.605 292.75V292.734Z" fill="#E31E24"/>
<path d="M331.085 292.734C334.752 292.734 337.682 295.749 337.726 299.599C337.77 303.495 334.869 306.618 331.174 306.648C327.463 306.679 324.503 303.618 324.489 299.738C324.474 295.842 327.389 292.75 331.1 292.734H331.085Z" fill="#E31E24"/>
<path d="M299.813 260.3C303.538 260.223 306.557 263.238 306.601 267.087C306.645 270.952 303.803 274.091 300.181 274.168C296.456 274.245 293.437 271.231 293.393 267.381C293.349 263.516 296.191 260.378 299.813 260.3Z" fill="#E31E24"/>
<path d="M408.721 225.174C405.01 225.19 402.065 222.113 402.065 218.233C402.065 214.399 404.966 211.322 408.618 211.307C412.329 211.291 415.273 214.352 415.273 218.248C415.273 222.082 412.373 225.159 408.721 225.174Z" fill="#E31E24"/>
<path d="M377.545 192.739C373.893 192.739 370.963 189.678 370.948 185.844C370.948 181.948 373.864 178.871 377.56 178.871C381.211 178.871 384.142 181.932 384.156 185.766C384.156 189.662 381.241 192.739 377.545 192.739Z" fill="#E31E24"/>
<path d="M299.982 225.159C296.345 225.159 293.415 222.067 293.415 218.233C293.415 214.414 296.345 211.322 299.982 211.322C303.634 211.322 306.579 214.383 306.594 218.187C306.608 222.067 303.663 225.159 299.982 225.159Z" fill="#E31E24"/>
<path d="M331.024 192.706C327.402 192.675 324.486 189.583 324.501 185.749C324.501 181.93 327.461 178.869 331.112 178.885C334.749 178.885 337.68 181.977 337.68 185.796C337.68 189.661 334.72 192.737 331.024 192.722V192.706Z" fill="#E31E24"/>
<path d="M408.663 276.67C412.138 276.67 415.024 279.638 415.039 283.287C415.068 286.982 412.197 290.027 408.678 290.043C405.203 290.043 402.317 287.075 402.302 283.426C402.273 279.731 405.144 276.685 408.663 276.67Z" fill="#E31E24"/>
<path d="M393.064 292.996C396.554 292.981 399.44 295.934 399.484 299.582C399.528 303.293 396.671 306.354 393.167 306.369C389.677 306.385 386.791 303.432 386.747 299.783C386.703 296.073 389.559 293.012 393.064 292.996Z" fill="#E31E24"/>
<path d="M299.983 276.889C303.488 276.889 306.389 279.95 306.359 283.614C306.33 287.262 303.429 290.246 299.969 290.231C296.508 290.215 293.637 287.185 293.652 283.552C293.652 279.919 296.523 276.904 299.983 276.889Z" fill="#E31E24"/>
<path d="M393.122 192.475C389.662 192.475 386.776 189.476 386.761 185.843C386.747 182.21 389.588 179.179 393.064 179.133C396.524 179.102 399.425 182.07 399.483 185.719C399.542 189.383 396.642 192.475 393.137 192.475H393.122Z" fill="#E31E24"/>
<path d="M408.713 208.803C405.209 208.834 402.293 205.773 402.308 202.109C402.323 198.476 405.194 195.461 408.669 195.461C412.13 195.461 415.001 198.476 415.016 202.109C415.016 205.742 412.174 208.772 408.713 208.803Z" fill="#E31E24"/>
<path d="M315.546 293.012C319.006 293.012 321.892 295.996 321.922 299.644C321.951 303.277 319.095 306.323 315.634 306.354C312.13 306.4 309.214 303.355 309.214 299.675C309.214 296.042 312.086 293.027 315.561 293.012H315.546Z" fill="#E31E24"/>
<path d="M299.988 208.773C296.528 208.773 293.641 205.727 293.656 202.094C293.671 198.445 296.586 195.431 300.032 195.477C303.507 195.523 306.378 198.585 306.319 202.202C306.261 205.82 303.419 208.773 299.988 208.773Z" fill="#E31E24"/>
<path d="M315.673 192.447C312.272 192.54 309.386 189.664 309.224 186C309.077 182.413 311.874 179.29 315.379 179.151C318.81 179.012 321.769 181.965 321.887 185.644C322.005 189.247 319.178 192.339 315.673 192.447Z" fill="#E31E24"/>
<path d="M362.104 309.493C365.564 309.446 368.362 312.276 368.406 315.878C368.45 319.557 365.726 322.51 362.251 322.526C358.79 322.541 356.022 319.696 355.993 316.094C355.963 312.461 358.673 309.539 362.089 309.493H362.104Z" fill="#E31E24"/>
<path d="M346.527 309.492C350.031 309.446 352.829 312.306 352.844 315.954C352.858 319.587 350.149 322.494 346.703 322.509C343.243 322.54 340.46 319.696 340.431 316.093C340.401 312.46 343.096 309.523 346.512 309.477L346.527 309.492Z" fill="#E31E24"/>
<path d="M424.134 228.065C427.594 228.034 430.377 230.863 430.421 234.465C430.466 238.145 427.727 241.082 424.252 241.098C420.791 241.098 418.038 238.253 418.008 234.651C417.994 231.018 420.703 228.111 424.134 228.08V228.065Z" fill="#E31E24"/>
<path d="M424.178 244.391C427.639 244.391 430.392 247.235 430.422 250.837C430.451 254.471 427.742 257.377 424.296 257.424C420.792 257.454 418.009 254.579 418.009 250.915C418.009 247.297 420.733 244.406 424.178 244.391Z" fill="#E31E24"/>
<path d="M284.703 244.406C288.089 244.422 290.828 247.328 290.828 250.884C290.828 254.502 288.075 257.408 284.629 257.393C281.183 257.393 278.445 254.471 278.445 250.853C278.445 247.251 281.242 244.375 284.688 244.391L284.703 244.406Z" fill="#E31E24"/>
<path d="M362.01 175.965C358.564 175.965 355.811 173.058 355.811 169.441C355.811 165.839 358.594 162.947 362.039 162.963C365.426 162.978 368.18 165.869 368.18 169.425C368.18 173.043 365.441 175.949 361.995 175.949L362.01 175.965Z" fill="#E31E24"/>
<path d="M284.469 228.094C287.841 228.094 290.609 231.016 290.609 234.556C290.609 238.143 287.826 241.08 284.41 241.065C281.038 241.065 278.27 238.143 278.27 234.603C278.27 231.016 281.053 228.078 284.469 228.094Z" fill="#E31E24"/>
<path d="M346.695 175.948C343.264 175.963 340.466 173.057 340.466 169.454C340.466 165.914 343.22 162.992 346.592 162.977C350.023 162.961 352.82 165.868 352.82 169.47C352.82 173.01 350.067 175.932 346.695 175.948Z" fill="#E31E24"/>
<path d="M331.107 309.6C334.479 309.6 337.277 312.568 337.218 316.093C337.159 319.618 334.376 322.478 331.063 322.432C327.706 322.385 324.982 319.494 324.996 315.985C325.011 312.475 327.765 309.6 331.107 309.6Z" fill="#E31E24"/>
<path d="M424.165 260.825C427.478 260.778 430.261 263.623 430.335 267.148C430.408 270.657 427.61 273.641 424.238 273.657C420.911 273.657 418.142 270.797 418.113 267.272C418.084 263.778 420.808 260.871 424.165 260.825Z" fill="#E31E24"/>
<path d="M377.546 309.6C380.874 309.6 383.642 312.46 383.672 315.985C383.701 319.479 380.977 322.385 377.62 322.432C374.263 322.493 371.435 319.54 371.45 316C371.45 312.491 374.204 309.615 377.546 309.6Z" fill="#E31E24"/>
<path d="M284.599 260.871C287.956 260.84 290.68 263.669 290.695 267.194C290.725 270.719 288.03 273.579 284.658 273.595C281.301 273.626 278.577 270.796 278.562 267.256C278.532 263.731 281.227 260.871 284.584 260.855L284.599 260.871Z" fill="#E31E24"/>
<path d="M424.26 224.618C420.902 224.634 418.178 221.82 418.164 218.279C418.149 214.755 420.829 211.894 424.201 211.879C427.558 211.864 430.282 214.677 430.297 218.218C430.312 221.743 427.632 224.603 424.26 224.618Z" fill="#E31E24"/>
<path d="M284.41 224.588C281.067 224.572 278.417 221.789 278.417 218.264C278.417 214.709 281.097 211.895 284.484 211.91C287.826 211.926 290.477 214.708 290.477 218.233C290.477 221.789 287.797 224.603 284.41 224.588Z" fill="#E31E24"/>
<path d="M377.653 175.795C374.251 175.842 371.557 173.059 371.542 169.503C371.527 165.978 374.148 163.18 377.491 163.133C380.892 163.087 383.587 165.87 383.602 169.426C383.616 172.951 380.995 175.749 377.653 175.795Z" fill="#E31E24"/>
<path d="M331.074 175.793C327.732 175.777 325.081 172.994 325.081 169.469C325.081 165.914 327.761 163.1 331.148 163.115C334.49 163.131 337.141 165.914 337.141 169.438C337.141 172.994 334.461 175.808 331.074 175.793Z" fill="#E31E24"/>
<path d="M408.53 293.415C411.872 293.353 414.611 296.136 414.64 299.63C414.67 303.078 412.019 305.938 408.751 305.969C405.452 306.015 402.728 303.248 402.684 299.816C402.64 296.352 405.261 293.492 408.53 293.415Z" fill="#E31E24"/>
<path d="M300.049 293.43C303.318 293.461 305.998 296.321 305.969 299.738C305.939 303.17 303.215 305.984 299.961 305.953C296.692 305.922 294.012 303.062 294.041 299.645C294.071 296.213 296.795 293.399 300.049 293.43Z" fill="#E31E24"/>
<path d="M408.632 192.056C405.363 192.041 402.683 189.196 402.698 185.764C402.713 182.332 405.422 179.518 408.691 179.533C411.96 179.549 414.64 182.393 414.625 185.826C414.61 189.258 411.901 192.071 408.632 192.056Z" fill="#E31E24"/>
<path d="M300.003 192.029C296.778 192.029 294.098 189.262 294.054 185.86C294.01 182.459 296.719 179.568 299.988 179.553C303.213 179.553 305.893 182.32 305.937 185.721C305.981 189.123 303.272 192.014 300.003 192.029Z" fill="#E31E24"/>
<path d="M315.36 309.894C318.673 309.802 321.323 312.461 321.382 315.893C321.426 319.31 318.923 322.061 315.684 322.123C312.415 322.185 309.794 319.572 309.72 316.171C309.647 312.739 312.135 309.972 315.36 309.879V309.894Z" fill="#E31E24"/>
<path d="M393.071 309.895C396.325 309.864 398.917 312.523 398.961 315.94C398.99 319.403 396.428 322.139 393.13 322.139C389.876 322.139 387.313 319.465 387.299 316.048C387.299 312.631 389.831 309.926 393.071 309.895Z" fill="#E31E24"/>
<path d="M424.15 277.228C427.448 277.197 430.055 279.903 430.055 283.351C430.055 286.767 427.493 289.457 424.238 289.457C420.984 289.457 418.407 286.783 418.393 283.381C418.378 279.965 420.911 277.244 424.15 277.213V277.228Z" fill="#E31E24"/>
<path d="M424.064 208.045C420.766 208.061 418.174 205.34 418.189 201.892C418.203 198.491 420.78 195.801 424.02 195.801C427.274 195.801 429.836 198.491 429.836 201.908C429.836 205.324 427.289 208.03 424.049 208.045H424.064Z" fill="#E31E24"/>
<path d="M393.084 175.563C389.844 175.563 387.297 172.842 387.312 169.426C387.312 166.024 389.903 163.35 393.158 163.365C396.397 163.365 398.944 166.086 398.93 169.503C398.93 172.904 396.338 175.579 393.084 175.563Z" fill="#E31E24"/>
<path d="M284.637 277.479C287.876 277.479 290.453 280.153 290.453 283.554C290.453 286.956 287.906 289.661 284.666 289.661C281.427 289.661 278.85 286.986 278.85 283.585C278.85 280.184 281.397 277.479 284.637 277.479Z" fill="#E31E24"/>
<path d="M315.631 175.548C312.391 175.579 309.77 172.889 309.77 169.504C309.77 166.149 312.303 163.428 315.483 163.397C318.723 163.366 321.344 166.056 321.344 169.442C321.344 172.797 318.811 175.517 315.631 175.548Z" fill="#E31E24"/>
<path d="M284.557 208.199C281.303 208.246 278.667 205.571 278.653 202.201C278.623 198.83 281.156 196.094 284.322 196.047C287.576 196.001 290.212 198.676 290.226 202.046C290.256 205.416 287.723 208.153 284.557 208.199Z" fill="#E31E24"/>
<path d="M346.648 326.469C349.74 326.469 352.228 329.051 352.258 332.282C352.272 335.59 349.799 338.218 346.662 338.218C343.57 338.218 341.082 335.637 341.052 332.405C341.038 329.097 343.511 326.469 346.648 326.469Z" fill="#E31E24"/>
<path d="M362.201 326.469C365.294 326.469 367.782 329.051 367.797 332.297C367.812 335.606 365.338 338.234 362.201 338.234C359.109 338.234 356.621 335.652 356.606 332.405C356.591 329.097 359.065 326.469 362.201 326.469Z" fill="#E31E24"/>
<path d="M439.583 228.697C442.676 228.697 445.164 231.295 445.164 234.541C445.164 237.85 442.69 240.462 439.554 240.462C436.462 240.462 433.973 237.865 433.973 234.619C433.973 231.31 436.447 228.697 439.583 228.697Z" fill="#E31E24"/>
<path d="M439.569 245.025C442.661 245.025 445.149 247.607 445.164 250.854C445.179 254.162 442.705 256.791 439.569 256.791C436.476 256.791 433.988 254.209 433.973 250.962C433.958 247.654 436.432 245.025 439.569 245.025Z" fill="#E31E24"/>
<path d="M269.084 245.041C272.162 245.041 274.665 247.638 274.68 250.869C274.68 254.101 272.221 256.744 269.158 256.76C266.036 256.791 263.504 254.162 263.518 250.885C263.518 247.654 266.022 245.041 269.099 245.041H269.084Z" fill="#E31E24"/>
<path d="M269.011 228.713C272.147 228.682 274.68 231.295 274.68 234.557C274.68 237.788 272.206 240.416 269.128 240.432C266.051 240.432 263.533 237.85 263.518 234.634C263.489 231.388 265.963 228.744 269.011 228.713Z" fill="#E31E24"/>
<path d="M346.639 159.004C343.561 159.004 341.073 156.376 341.073 153.144C341.073 149.913 343.547 147.285 346.624 147.27C349.701 147.27 352.219 149.851 352.234 153.067C352.264 156.345 349.76 159.004 346.639 158.988V159.004Z" fill="#E31E24"/>
<path d="M362.02 159.004C358.898 159.004 356.395 156.36 356.425 153.067C356.454 149.851 358.957 147.254 362.049 147.27C365.112 147.285 367.601 149.913 367.586 153.144C367.586 156.376 365.083 158.988 362.02 158.988V159.004Z" fill="#E31E24"/>
<path d="M423.987 191.593C420.968 191.562 418.48 188.934 418.495 185.78C418.524 182.611 421.027 179.998 424.031 180.014C427.05 180.045 429.538 182.673 429.523 185.827C429.494 188.996 426.991 191.609 423.987 191.593Z" fill="#E31E24"/>
<path d="M424.168 293.895C427.172 293.849 429.69 296.446 429.734 299.631C429.778 302.785 427.304 305.428 424.271 305.475C421.267 305.521 418.749 302.924 418.705 299.739C418.661 296.585 421.135 293.942 424.168 293.895Z" fill="#E31E24"/>
<path d="M331.111 326.549C334.13 326.549 336.633 329.177 336.633 332.331C336.633 335.5 334.13 338.128 331.126 338.128C328.107 338.128 325.604 335.5 325.604 332.346C325.604 329.177 328.107 326.549 331.111 326.549Z" fill="#E31E24"/>
<path d="M377.542 326.549C380.545 326.533 383.063 329.146 383.078 332.316C383.093 335.469 380.604 338.113 377.586 338.129C374.582 338.144 372.064 335.531 372.049 332.362C372.035 329.208 374.523 326.564 377.542 326.549Z" fill="#E31E24"/>
<path d="M439.608 224.047C436.604 224.078 434.086 221.465 434.057 218.296C434.027 215.142 436.516 212.498 439.534 212.467C442.538 212.436 445.056 215.049 445.086 218.218C445.115 221.372 442.627 224.016 439.608 224.047Z" fill="#E31E24"/>
<path d="M439.594 261.441C442.612 261.472 445.101 264.101 445.086 267.254C445.056 270.424 442.553 273.037 439.549 273.021C436.531 272.99 434.042 270.362 434.057 267.208C434.087 264.039 436.59 261.426 439.594 261.441Z" fill="#E31E24"/>
<path d="M408.673 310.221C411.691 310.221 414.194 312.849 414.18 316.018C414.18 319.188 411.676 321.816 408.658 321.8C405.639 321.8 403.136 319.172 403.151 316.003C403.151 312.834 405.654 310.205 408.673 310.221Z" fill="#E31E24"/>
<path d="M299.956 310.221C302.96 310.19 305.478 312.803 305.508 315.972C305.537 319.126 303.049 321.77 300.03 321.801C297.026 321.832 294.508 319.219 294.479 316.049C294.449 312.896 296.938 310.252 299.956 310.221Z" fill="#E31E24"/>
<path d="M284.51 293.942C287.514 293.849 289.987 296.307 290.105 299.492C290.223 302.677 287.838 305.336 284.775 305.429C281.771 305.522 279.297 303.063 279.179 299.879C279.062 296.694 281.447 294.035 284.51 293.942Z" fill="#E31E24"/>
<path d="M269.07 261.49C272.118 261.475 274.577 264.057 274.562 267.257C274.548 270.457 272.059 273.024 269.026 272.977C266.007 272.931 263.622 270.364 263.637 267.211C263.651 264.041 266.066 261.506 269.085 261.49H269.07Z" fill="#E31E24"/>
<path d="M284.464 191.503C281.431 191.503 279.031 188.999 279.031 185.814C279.031 182.629 281.416 180.109 284.449 180.109C287.483 180.109 289.883 182.614 289.883 185.799C289.883 188.983 287.497 191.503 284.464 191.503Z" fill="#E31E24"/>
<path d="M300.003 175.177C296.97 175.177 294.57 172.673 294.555 169.488C294.555 166.303 296.94 163.783 299.974 163.768C303.007 163.768 305.407 166.272 305.422 169.457C305.422 172.642 303.036 175.162 300.003 175.177Z" fill="#E31E24"/>
<path d="M408.805 175.204C405.801 175.297 403.313 172.854 403.195 169.67C403.077 166.485 405.448 163.826 408.511 163.717C411.515 163.625 414.003 166.067 414.121 169.252C414.239 172.437 411.868 175.096 408.805 175.204Z" fill="#E31E24"/>
<path d="M377.75 158.88C374.716 159.004 372.184 156.515 372.095 153.299C372.007 150.145 374.333 147.532 377.367 147.409C380.4 147.285 382.933 149.774 383.021 152.99C383.109 156.144 380.783 158.756 377.75 158.88Z" fill="#E31E24"/>
<path d="M331.15 158.833C328.102 158.849 325.702 156.36 325.672 153.175C325.657 149.975 328.028 147.455 331.061 147.424C334.109 147.408 336.51 149.898 336.539 153.082C336.554 156.283 334.183 158.803 331.15 158.833Z" fill="#E31E24"/>
<path d="M269.068 223.955C266.035 223.955 263.65 221.419 263.664 218.219C263.664 215.034 266.079 212.53 269.127 212.545C272.161 212.545 274.546 215.08 274.531 218.281C274.531 221.466 272.116 223.97 269.068 223.955Z" fill="#E31E24"/>
<path d="M439.524 277.77C442.425 277.724 444.869 280.275 444.898 283.336C444.913 286.381 442.484 288.948 439.568 288.948C436.653 288.948 434.223 286.381 434.252 283.336C434.282 280.306 436.638 277.817 439.524 277.77Z" fill="#E31E24"/>
<path d="M393.038 326.809C395.968 326.763 398.368 329.236 398.383 332.328C398.397 335.374 396.086 337.848 393.185 337.894C390.255 337.941 387.855 335.467 387.84 332.375C387.825 329.329 390.137 326.856 393.038 326.809Z" fill="#E31E24"/>
<path d="M315.585 326.809C318.53 326.84 320.886 329.36 320.827 332.436C320.768 335.497 318.412 337.909 315.511 337.878C312.596 337.847 310.284 335.405 310.269 332.343C310.269 329.251 312.64 326.762 315.585 326.793V326.809Z" fill="#E31E24"/>
<path d="M268.997 278.063C271.942 278.017 274.283 280.398 274.327 283.459C274.372 286.551 272.104 289.009 269.189 289.055C266.244 289.102 263.902 286.721 263.858 283.66C263.814 280.568 266.082 278.11 268.997 278.063Z" fill="#E31E24"/>
<path d="M269.057 207.629C266.126 207.613 263.844 205.171 263.859 202.094C263.874 199.018 266.2 196.621 269.13 196.637C272.06 196.652 274.343 199.095 274.328 202.172C274.313 205.248 271.987 207.644 269.057 207.629Z" fill="#E31E24"/>
<path d="M439.492 207.456C436.576 207.394 434.279 204.936 434.294 201.891C434.309 198.829 436.635 196.402 439.551 196.387C442.496 196.371 444.866 198.876 444.851 201.952C444.837 205.044 442.437 207.518 439.492 207.456Z" fill="#E31E24"/>
<path d="M393.08 158.635C390.15 158.619 387.868 156.177 387.882 153.1C387.897 150.024 390.223 147.627 393.154 147.643C396.084 147.658 398.366 150.101 398.351 153.177C398.337 156.254 396.01 158.65 393.08 158.635Z" fill="#E31E24"/>
<path d="M315.567 158.6C312.681 158.6 310.369 156.219 310.339 153.205C310.31 150.113 312.607 147.67 315.522 147.67C318.408 147.67 320.72 150.051 320.75 153.066C320.779 156.158 318.482 158.6 315.567 158.6Z" fill="#E31E24"/>
<path d="M424.164 310.683C426.962 310.653 429.23 312.987 429.288 315.924C429.333 318.908 427.05 321.32 424.208 321.32C421.411 321.32 419.158 318.97 419.143 316.017C419.128 313.08 421.352 310.699 424.164 310.668V310.683Z" fill="#E31E24"/>
<path d="M424.062 174.743C421.235 174.758 418.997 172.455 418.982 169.486C418.982 166.518 421.191 164.184 424.018 164.184C426.801 164.184 429.009 166.472 429.039 169.394C429.068 172.377 426.874 174.727 424.047 174.743H424.062Z" fill="#E31E24"/>
<path d="M284.622 310.732C287.449 310.732 289.688 313.036 289.688 316.004C289.688 318.926 287.523 321.261 284.74 321.292C281.898 321.323 279.66 319.035 279.631 316.066C279.601 313.098 281.81 310.732 284.622 310.732Z" fill="#E31E24"/>
<path d="M284.497 174.73C281.67 174.745 279.432 172.426 279.432 169.458C279.432 166.536 281.64 164.217 284.423 164.217C287.206 164.217 289.43 166.52 289.43 169.442C289.43 172.364 287.25 174.714 284.482 174.73H284.497Z" fill="#E31E24"/>
<path d="M439.563 294.449C442.331 294.449 444.555 296.799 444.555 299.706C444.555 302.612 442.302 304.931 439.519 304.916C436.751 304.9 434.557 302.519 434.586 299.597C434.616 296.737 436.839 294.434 439.563 294.434V294.449Z" fill="#E31E24"/>
<path d="M408.709 327.102C411.433 327.117 413.641 329.436 413.656 332.296C413.671 335.218 411.447 337.568 408.679 337.568C405.911 337.568 403.673 335.234 403.673 332.327C403.673 329.421 405.926 327.086 408.694 327.102H408.709Z" fill="#E31E24"/>
<path d="M362.269 343.459C364.979 343.49 367.202 345.855 367.187 348.7C367.187 351.545 364.935 353.895 362.225 353.895C359.472 353.895 357.219 351.483 357.248 348.607C357.292 345.763 359.56 343.444 362.269 343.459Z" fill="#E31E24"/>
<path d="M346.589 343.459C349.298 343.428 351.565 345.747 351.624 348.592C351.669 351.468 349.416 353.895 346.662 353.895C343.953 353.895 341.7 351.56 341.685 348.716C341.67 345.871 343.879 343.49 346.589 343.459Z" fill="#E31E24"/>
<path d="M455.161 229.362C457.87 229.393 460.094 231.758 460.094 234.603C460.094 237.447 457.841 239.797 455.132 239.797C452.378 239.797 450.11 237.401 450.155 234.51C450.184 231.665 452.452 229.331 455.161 229.362Z" fill="#E31E24"/>
<path d="M439.569 191.024C436.86 191.024 434.622 188.674 434.607 185.829C434.607 182.985 436.83 180.619 439.54 180.588C442.249 180.557 444.517 182.892 444.546 185.736C444.59 188.612 442.308 191.024 439.569 191.024Z" fill="#E31E24"/>
<path d="M269.011 294.466C271.72 294.419 274.002 296.723 274.061 299.567C274.12 302.412 271.941 304.824 269.232 304.901C266.493 304.978 264.166 302.628 264.122 299.753C264.093 296.908 266.301 294.527 269.011 294.466Z" fill="#E31E24"/>
<path d="M299.977 327.131C302.686 327.131 304.939 329.465 304.968 332.31C304.998 335.155 302.774 337.536 300.065 337.566C297.326 337.613 295.029 335.232 295.029 332.341C295.029 329.496 297.267 327.146 299.977 327.131Z" fill="#E31E24"/>
<path d="M455.132 245.689C457.841 245.689 460.079 248.039 460.094 250.884C460.094 253.775 457.826 256.156 455.073 256.125C452.363 256.094 450.14 253.729 450.155 250.884C450.169 248.039 452.422 245.689 455.132 245.689Z" fill="#E31E24"/>
<path d="M269.061 190.991C266.352 190.976 264.099 188.564 264.143 185.75C264.187 182.952 266.396 180.633 269.061 180.617C271.756 180.602 274.023 182.983 274.023 185.812C274.023 188.641 271.741 191.022 269.046 191.006L269.061 190.991Z" fill="#E31E24"/>
<path d="M253.52 229.379C256.186 229.379 258.409 231.667 258.483 234.481C258.556 237.295 256.318 239.722 253.609 239.768C250.929 239.814 248.632 237.465 248.602 234.62C248.573 231.791 250.826 229.394 253.535 229.379H253.52Z" fill="#E31E24"/>
<path d="M253.567 245.721C256.232 245.721 258.455 248.04 258.499 250.853C258.544 253.667 256.291 256.079 253.581 256.11C250.887 256.141 248.604 253.76 248.604 250.931C248.604 248.102 250.872 245.721 253.567 245.736V245.721Z" fill="#E31E24"/>
<path d="M299.983 158.324C297.274 158.324 295.021 155.927 295.05 153.098C295.08 150.253 297.362 147.904 300.057 147.95C302.737 147.996 304.931 150.331 304.945 153.129C304.945 155.958 302.678 158.339 299.998 158.339L299.983 158.324Z" fill="#E31E24"/>
<path d="M346.682 141.998C343.987 142.029 341.705 139.648 341.705 136.819C341.705 134.021 343.884 131.686 346.564 131.624C349.244 131.562 351.541 133.912 351.585 136.757C351.629 139.571 349.377 141.983 346.667 142.013L346.682 141.998Z" fill="#E31E24"/>
<path d="M362.079 141.999C359.385 142.045 357.102 139.68 357.073 136.835C357.043 134.006 359.311 131.609 362.006 131.609C364.7 131.609 366.968 133.99 366.953 136.819C366.953 139.618 364.744 141.952 362.064 141.999H362.079Z" fill="#E31E24"/>
<path d="M408.683 158.324C405.989 158.324 403.721 155.959 403.721 153.13C403.721 150.331 405.915 147.997 408.595 147.95C411.275 147.889 413.572 150.254 413.601 153.099C413.631 155.928 411.378 158.324 408.683 158.34V158.324Z" fill="#E31E24"/>
<path d="M377.584 343.584C380.264 343.584 382.384 345.81 382.414 348.624C382.443 351.484 380.308 353.757 377.584 353.772C374.86 353.772 372.71 351.53 372.71 348.67C372.71 345.81 374.86 343.568 377.584 343.568V343.584Z" fill="#E31E24"/>
<path d="M330.982 343.584C333.706 343.522 335.9 345.733 335.945 348.577C335.989 351.391 333.927 353.679 331.262 353.757C328.538 353.849 326.315 351.669 326.241 348.809C326.167 345.949 328.258 343.63 330.982 343.568V343.584Z" fill="#E31E24"/>
<path d="M455.276 223.332C452.552 223.409 450.343 221.23 450.269 218.369C450.196 215.509 452.301 213.206 455.011 213.144C457.691 213.082 459.87 215.246 459.958 218.045C460.047 220.905 457.97 223.239 455.261 223.317L455.276 223.332Z" fill="#E31E24"/>
<path d="M455.103 262.139C457.827 262.139 459.977 264.38 459.977 267.241C459.977 270.101 457.812 272.342 455.088 272.327C452.408 272.311 450.288 270.101 450.258 267.287C450.229 264.427 452.364 262.154 455.088 262.139H455.103Z" fill="#E31E24"/>
<path d="M253.514 223.304C250.819 223.304 248.713 221.078 248.713 218.249C248.713 215.419 250.819 213.193 253.499 213.178C256.194 213.178 258.329 215.358 258.343 218.171C258.373 221.047 256.238 223.304 253.514 223.289V223.304Z" fill="#E31E24"/>
<path d="M377.53 141.877C374.851 141.877 372.745 139.635 372.745 136.806C372.745 133.976 374.865 131.766 377.545 131.766C380.24 131.766 382.36 133.961 382.375 136.79C382.39 139.666 380.255 141.907 377.516 141.892L377.53 141.877Z" fill="#E31E24"/>
<path d="M253.478 262.17C256.173 262.139 258.323 264.319 258.367 267.133C258.396 270.009 256.291 272.281 253.567 272.281C250.872 272.281 248.752 270.086 248.737 267.272C248.722 264.443 250.813 262.201 253.493 262.17H253.478Z" fill="#E31E24"/>
<path d="M331.047 141.844C328.396 141.813 326.291 139.556 326.32 136.742C326.35 133.959 328.499 131.749 331.179 131.78C333.83 131.811 335.935 134.068 335.906 136.881C335.876 139.664 333.727 141.875 331.047 141.844Z" fill="#E31E24"/>
<path d="M393.128 343.772C395.705 343.772 397.752 345.905 397.796 348.595C397.84 351.332 395.779 353.542 393.173 353.573C390.566 353.604 388.475 351.424 388.461 348.688C388.461 345.951 390.537 343.756 393.143 343.772H393.128Z" fill="#E31E24"/>
<path d="M315.557 343.771C318.119 343.771 320.181 345.905 320.21 348.611C320.254 351.347 318.193 353.558 315.587 353.589C312.98 353.62 310.89 351.44 310.875 348.703C310.875 345.967 312.951 343.771 315.557 343.787V343.771Z" fill="#E31E24"/>
<path d="M455.113 278.449C457.675 278.449 459.736 280.567 459.781 283.273C459.825 286.009 457.778 288.22 455.172 288.251C452.565 288.282 450.46 286.117 450.445 283.381C450.43 280.645 452.507 278.449 455.113 278.449Z" fill="#E31E24"/>
<path d="M393.14 141.674C390.549 141.674 388.517 139.572 388.487 136.866C388.473 134.145 390.475 131.996 393.052 131.965C395.644 131.934 397.705 134.021 397.749 136.727C397.793 139.494 395.761 141.674 393.14 141.69V141.674Z" fill="#E31E24"/>
<path d="M455.052 206.775C452.475 206.744 450.473 204.595 450.487 201.874C450.502 199.169 452.549 197.051 455.126 197.051C457.702 197.051 459.734 199.184 459.734 201.905C459.734 204.657 457.673 206.806 455.037 206.775H455.052Z" fill="#E31E24"/>
<path d="M253.563 278.713C256.14 278.713 258.172 280.862 258.172 283.567C258.172 286.273 256.155 288.422 253.563 288.422C250.942 288.422 248.895 286.273 248.91 283.505C248.925 280.8 250.972 278.682 253.563 278.697V278.713Z" fill="#E31E24"/>
<path d="M315.672 141.641C313.081 141.688 310.99 139.601 310.945 136.911C310.916 134.19 312.919 132.01 315.481 131.979C318.072 131.948 320.134 134.066 320.148 136.756C320.163 139.431 318.175 141.595 315.672 141.641Z" fill="#E31E24"/>
<path d="M253.598 206.961C251.006 206.977 248.959 204.859 248.945 202.153C248.945 199.448 250.962 197.299 253.539 197.299C256.115 197.299 258.147 199.448 258.133 202.153C258.133 204.812 256.101 206.946 253.583 206.961H253.598Z" fill="#E31E24"/>
<path d="M424.24 327.535C426.743 327.535 428.79 329.7 428.805 332.328C428.805 335.002 426.743 337.182 424.196 337.167C421.693 337.167 419.646 335.002 419.631 332.374C419.631 329.7 421.693 327.52 424.24 327.535Z" fill="#E31E24"/>
<path d="M284.632 327.535C287.135 327.535 289.197 329.653 289.226 332.281C289.256 334.956 287.209 337.151 284.662 337.167C282.158 337.167 280.097 335.049 280.068 332.421C280.038 329.746 282.085 327.551 284.632 327.535Z" fill="#E31E24"/>
<path d="M439.547 311.193C442.095 311.193 444.171 313.358 444.156 316.032C444.156 318.661 442.095 320.81 439.592 320.825C437.044 320.825 434.968 318.661 434.983 315.986C434.983 313.358 437.044 311.209 439.547 311.193Z" fill="#E31E24"/>
<path d="M269.128 311.225C271.616 311.256 273.678 313.451 273.648 316.048C273.619 318.661 271.528 320.826 269.054 320.795C266.566 320.764 264.504 318.569 264.534 315.971C264.563 313.358 266.654 311.194 269.128 311.225Z" fill="#E31E24"/>
<path d="M424.006 157.921C421.518 157.906 419.457 155.711 419.471 153.113C419.486 150.501 421.577 148.336 424.051 148.352C426.539 148.367 428.601 150.562 428.586 153.16C428.571 155.773 426.48 157.937 424.006 157.921Z" fill="#E31E24"/>
<path d="M439.538 174.264C437.05 174.233 434.988 172.037 435.018 169.44C435.047 166.827 437.138 164.663 439.612 164.694C442.1 164.725 444.162 166.92 444.133 169.517C444.103 172.13 442.012 174.294 439.538 174.264Z" fill="#E31E24"/>
<path d="M284.382 157.893C281.909 157.831 279.891 155.667 279.921 153.1C279.95 150.518 282.012 148.369 284.471 148.385C286.93 148.385 288.977 150.549 288.977 153.131C288.977 155.744 286.856 157.955 284.382 157.893Z" fill="#E31E24"/>
<path d="M269.074 174.217C266.615 174.217 264.569 172.053 264.569 169.471C264.569 166.889 266.601 164.74 269.06 164.709C271.504 164.678 273.58 166.812 273.624 169.409C273.668 172.007 271.563 174.233 269.074 174.217Z" fill="#E31E24"/>
<path d="M455.119 295.084C457.563 295.084 459.551 297.186 459.507 299.753C459.478 302.273 457.49 304.314 455.09 304.283C452.69 304.267 450.746 302.18 450.746 299.66C450.746 297.14 452.719 295.084 455.119 295.068V295.084Z" fill="#E31E24"/>
<path d="M455.163 190.405C452.763 190.405 450.775 188.379 450.746 185.859C450.716 183.339 452.66 181.237 455.045 181.206C457.446 181.159 459.463 183.185 459.507 185.705C459.551 188.271 457.593 190.405 455.149 190.42L455.163 190.405Z" fill="#E31E24"/>
<path d="M299.965 344.08C302.41 344.064 304.397 346.152 304.383 348.718C304.368 351.238 302.395 353.294 299.98 353.279C297.58 353.279 295.622 351.207 295.607 348.687C295.607 346.167 297.55 344.095 299.951 344.064L299.965 344.08Z" fill="#E31E24"/>
<path d="M408.63 344.08C411.03 344.064 413.018 346.09 413.062 348.61C413.092 351.13 411.163 353.232 408.777 353.279C406.333 353.325 404.316 351.253 404.301 348.687C404.301 346.167 406.245 344.095 408.645 344.064L408.63 344.08Z" fill="#E31E24"/>
<path d="M253.62 190.371C251.25 190.433 249.218 188.362 249.174 185.857C249.129 183.368 251.117 181.235 253.503 181.219C255.873 181.188 257.891 183.291 257.891 185.78C257.891 188.238 255.962 190.31 253.62 190.371Z" fill="#E31E24"/>
<path d="M408.658 141.379C406.273 141.379 404.285 139.261 404.314 136.772C404.344 134.314 406.287 132.258 408.629 132.227C410.999 132.196 413.017 134.283 413.031 136.788C413.031 139.292 411.043 141.395 408.658 141.379Z" fill="#E31E24"/>
<path d="M299.971 141.598C297.586 141.598 295.598 139.465 295.628 136.976C295.657 134.471 297.689 132.4 300.06 132.446C302.416 132.492 304.345 134.549 304.359 137.022C304.359 139.527 302.357 141.614 299.986 141.614L299.971 141.598Z" fill="#E31E24"/>
<path d="M253.489 295.1C255.859 295.069 257.877 297.141 257.906 299.645C257.921 302.103 256.007 304.175 253.651 304.252C251.28 304.33 249.248 302.258 249.189 299.753C249.145 297.264 251.103 295.131 253.503 295.1H253.489Z" fill="#E31E24"/>
<path d="M470.488 230.106C472.889 229.998 474.862 231.915 474.935 234.435C475.009 236.908 473.213 238.934 470.857 239.042C468.456 239.15 466.483 237.233 466.41 234.713C466.336 232.239 468.133 230.214 470.488 230.106Z" fill="#E31E24"/>
<path d="M470.561 246.433C472.917 246.371 474.846 248.257 474.934 250.746C475.023 253.266 473.182 255.323 470.782 255.385C468.426 255.446 466.497 253.56 466.409 251.071C466.32 248.551 468.161 246.495 470.561 246.433Z" fill="#E31E24"/>
<path d="M237.963 246.481C240.334 246.465 242.204 248.398 242.219 250.871C242.233 253.36 240.393 255.324 238.037 255.339C235.666 255.355 233.796 253.422 233.781 250.949C233.767 248.459 235.607 246.496 237.963 246.481Z" fill="#E31E24"/>
<path d="M237.963 230.137C240.334 230.121 242.204 232.054 242.219 234.527C242.233 237.017 240.393 238.98 238.037 238.995C235.666 239.011 233.796 237.078 233.781 234.605C233.767 232.116 235.607 230.152 237.963 230.137Z" fill="#E31E24"/>
<path d="M362.045 125.115C359.674 125.13 357.804 123.198 357.789 120.724C357.774 118.235 359.615 116.271 361.971 116.256C364.342 116.24 366.212 118.173 366.226 120.647C366.241 123.136 364.401 125.099 362.045 125.115Z" fill="#E31E24"/>
<path d="M346.498 125.115C344.127 125.115 342.257 123.197 342.242 120.724C342.242 118.235 344.068 116.271 346.424 116.256C348.795 116.256 350.665 118.173 350.68 120.647C350.68 123.136 348.854 125.099 346.498 125.115Z" fill="#E31E24"/>
<path d="M470.634 262.836C472.99 262.821 474.875 264.784 474.875 267.242C474.875 269.669 473.034 271.617 470.723 271.648C468.367 271.664 466.482 269.7 466.482 267.242C466.482 264.815 468.323 262.867 470.634 262.836Z" fill="#E31E24"/>
<path d="M377.604 125.067C375.322 125.098 373.408 123.134 373.378 120.723C373.349 118.326 375.219 116.316 377.516 116.286C379.798 116.255 381.712 118.218 381.742 120.63C381.771 123.026 379.901 125.036 377.604 125.067Z" fill="#E31E24"/>
<path d="M470.699 222.639C468.417 222.639 466.517 220.676 466.503 218.279C466.503 215.883 468.373 213.889 470.655 213.873C472.937 213.873 474.837 215.836 474.852 218.233C474.852 220.629 472.982 222.623 470.699 222.639Z" fill="#E31E24"/>
<path d="M238.012 262.852C240.294 262.852 242.179 264.862 242.164 267.258C242.164 269.654 240.25 271.633 237.967 271.618C235.685 271.618 233.8 269.608 233.815 267.212C233.815 264.815 235.729 262.836 238.012 262.852Z" fill="#E31E24"/>
<path d="M237.98 222.607C235.698 222.607 233.769 220.55 233.828 218.17C233.872 215.804 235.786 213.856 238.025 213.887C240.277 213.918 242.147 215.912 242.133 218.262C242.118 220.612 240.233 222.591 237.98 222.591V222.607Z" fill="#E31E24"/>
<path d="M331.075 125.054C328.837 125.038 326.952 123.044 326.952 120.694C326.952 118.344 328.837 116.35 331.075 116.334C333.313 116.319 335.212 118.282 335.242 120.632C335.271 123.013 333.342 125.054 331.075 125.038V125.054Z" fill="#E31E24"/>
<path d="M268.905 328.045C271.128 327.906 273.072 329.776 273.19 332.173C273.308 334.507 271.511 336.532 269.229 336.641C266.991 336.749 265.077 334.847 264.988 332.451C264.915 330.132 266.652 328.168 268.905 328.029V328.045Z" fill="#E31E24"/>
<path d="M439.571 328.031C441.824 328.031 443.694 329.995 443.68 332.36C443.665 334.741 441.78 336.673 439.527 336.642C437.26 336.611 435.419 334.617 435.478 332.252C435.537 329.902 437.363 328.016 439.586 328.016L439.571 328.031Z" fill="#E31E24"/>
<path d="M269.106 157.382C266.838 157.382 265.057 155.527 265.057 153.146C265.057 150.765 266.824 148.895 269.091 148.895C271.359 148.895 273.141 150.75 273.141 153.131C273.141 155.511 271.374 157.382 269.106 157.382Z" fill="#E31E24"/>
<path d="M439.553 157.382C437.285 157.382 435.519 155.496 435.533 153.115C435.533 150.734 437.33 148.879 439.597 148.895C441.865 148.895 443.632 150.781 443.617 153.162C443.617 155.542 441.821 157.398 439.553 157.382Z" fill="#E31E24"/>
<path d="M470.548 279.143C472.8 279.097 474.612 280.86 474.685 283.163C474.759 285.575 473.051 287.507 470.813 287.554C468.56 287.6 466.749 285.838 466.675 283.534C466.601 281.122 468.309 279.19 470.548 279.143Z" fill="#E31E24"/>
<path d="M424.205 344.467C426.473 344.467 428.24 346.337 428.211 348.718C428.196 351.053 426.429 352.877 424.205 352.877C421.938 352.877 420.171 351.006 420.2 348.626C420.215 346.291 421.982 344.467 424.205 344.467Z" fill="#E31E24"/>
<path d="M455.084 311.812C457.351 311.812 459.133 313.652 459.133 316.033C459.133 318.368 457.381 320.207 455.157 320.223C452.89 320.223 451.108 318.383 451.108 316.002C451.108 313.668 452.86 311.828 455.084 311.812Z" fill="#E31E24"/>
<path d="M470.651 206.096C468.457 206.096 466.675 204.195 466.69 201.891C466.69 199.588 468.501 197.717 470.695 197.733C472.889 197.733 474.671 199.634 474.656 201.938C474.656 204.241 472.845 206.112 470.651 206.096Z" fill="#E31E24"/>
<path d="M237.971 279.375C240.165 279.375 241.962 281.23 241.977 283.549C241.977 285.853 240.21 287.739 238.001 287.754C235.807 287.754 234.01 285.899 233.996 283.58C233.996 281.277 235.763 279.39 237.971 279.375Z" fill="#E31E24"/>
<path d="M455.155 173.661C452.947 173.676 451.15 171.821 451.121 169.517C451.106 167.198 452.873 165.312 455.067 165.281C457.276 165.266 459.072 167.121 459.101 169.425C459.116 171.744 457.349 173.63 455.155 173.661Z" fill="#E31E24"/>
<path d="M424.039 140.993C421.83 141.008 420.034 139.153 420.019 136.834C420.004 134.515 421.771 132.629 423.98 132.613C426.189 132.598 427.985 134.453 428 136.772C428.015 139.091 426.248 140.977 424.039 140.993Z" fill="#E31E24"/>
<path d="M284.636 344.496C286.829 344.496 288.626 346.367 288.641 348.67C288.641 350.974 286.859 352.86 284.665 352.875C282.471 352.875 280.675 351.005 280.66 348.701C280.66 346.398 282.442 344.512 284.636 344.496Z" fill="#E31E24"/>
<path d="M253.577 311.826C255.771 311.842 257.538 313.743 257.523 316.047C257.509 318.35 255.697 320.206 253.504 320.19C251.31 320.175 249.543 318.273 249.557 315.97C249.572 313.666 251.383 311.811 253.577 311.826Z" fill="#E31E24"/>
<path d="M253.582 173.63C251.461 173.661 249.636 171.822 249.577 169.564C249.518 167.292 251.314 165.344 253.493 165.313C255.614 165.282 257.44 167.122 257.499 169.379C257.557 171.652 255.761 173.6 253.582 173.63Z" fill="#E31E24"/>
<path d="M238.006 206.284C235.871 206.284 234.075 204.445 234.03 202.187C233.986 199.915 235.812 197.967 237.977 197.967C240.112 197.967 241.908 199.807 241.952 202.064C241.997 204.336 240.171 206.284 238.006 206.284Z" fill="#E31E24"/>
<path d="M284.437 141.179C282.302 141.179 280.506 139.308 280.476 137.066C280.447 134.794 282.273 132.861 284.437 132.861C286.572 132.861 288.369 134.732 288.398 136.974C288.428 139.246 286.602 141.179 284.437 141.179Z" fill="#E31E24"/>
<path d="M393.123 124.855C390.988 124.855 389.192 123.015 389.148 120.758C389.103 118.485 390.915 116.537 393.094 116.537C395.229 116.537 397.025 118.377 397.07 120.634C397.114 122.907 395.303 124.855 393.123 124.855Z" fill="#E31E24"/>
<path d="M315.569 124.853C313.434 124.853 311.637 123.013 311.593 120.756C311.549 118.483 313.36 116.535 315.539 116.52C317.674 116.52 319.471 118.359 319.515 120.616C319.559 122.889 317.748 124.837 315.569 124.853Z" fill="#E31E24"/>
<path d="M238.037 295.782C240.04 295.813 241.689 297.56 241.719 299.662C241.733 301.796 240.025 303.604 237.993 303.604C235.961 303.604 234.253 301.796 234.268 299.678C234.283 297.544 236.02 295.751 238.037 295.782Z" fill="#E31E24"/>
<path d="M470.575 295.782C472.593 295.704 474.345 297.467 474.389 299.616C474.448 301.734 472.755 303.558 470.708 303.605C468.691 303.636 466.953 301.858 466.938 299.709C466.938 297.622 468.558 295.859 470.575 295.782Z" fill="#E31E24"/>
<path d="M470.68 189.71C468.648 189.71 466.94 187.917 466.94 185.783C466.94 183.65 468.677 181.856 470.709 181.887C472.712 181.918 474.361 183.665 474.39 185.768C474.42 187.901 472.712 189.71 470.68 189.71Z" fill="#E31E24"/>
<path d="M408.646 124.53C406.599 124.53 404.994 122.829 405.009 120.68C405.009 118.531 406.629 116.846 408.675 116.861C410.722 116.861 412.327 118.562 412.312 120.711C412.312 122.86 410.693 124.545 408.646 124.53Z" fill="#E31E24"/>
<path d="M299.96 124.528C297.914 124.512 296.323 122.796 296.338 120.647C296.353 118.498 297.987 116.828 300.034 116.844C302.081 116.859 303.671 118.575 303.656 120.724C303.641 122.873 302.007 124.543 299.96 124.528Z" fill="#E31E24"/>
<path d="M237.959 189.631C235.913 189.616 234.322 187.915 234.337 185.766C234.352 183.617 235.972 181.948 238.018 181.963C240.065 181.978 241.655 183.679 241.641 185.828C241.626 187.977 240.006 189.647 237.959 189.631Z" fill="#E31E24"/>
<path d="M486.226 247.178C488.155 247.178 489.789 248.894 489.789 250.919C489.789 252.944 488.155 254.66 486.226 254.66C484.297 254.66 482.662 252.944 482.662 250.919C482.662 248.894 484.297 247.178 486.226 247.178Z" fill="#E31E24"/>
<path d="M486.204 230.832C488.133 230.802 489.782 232.502 489.796 234.527C489.826 236.553 488.206 238.284 486.277 238.3C484.348 238.331 482.699 236.63 482.684 234.605C482.655 232.579 484.275 230.848 486.204 230.832Z" fill="#E31E24"/>
<path d="M439.599 344.928C441.528 344.943 443.147 346.675 443.133 348.7C443.118 350.725 441.469 352.426 439.54 352.411C437.611 352.395 435.991 350.664 436.006 348.638C436.021 346.613 437.67 344.912 439.599 344.928Z" fill="#E31E24"/>
<path d="M455.147 328.606C457.076 328.606 458.695 330.337 458.695 332.362C458.695 334.388 457.046 336.088 455.117 336.088C453.188 336.088 451.569 334.357 451.569 332.331C451.569 330.306 453.218 328.59 455.147 328.606Z" fill="#E31E24"/>
<path d="M222.365 247.222C224.25 247.175 225.884 248.799 225.943 250.808C226.017 252.834 224.397 254.581 222.453 254.596C220.554 254.612 218.949 252.973 218.919 250.963C218.89 248.969 220.436 247.284 222.365 247.222Z" fill="#E31E24"/>
<path d="M269.052 344.991C270.952 344.96 272.557 346.614 272.601 348.624C272.645 350.649 271.01 352.381 269.067 352.365C267.153 352.365 265.577 350.68 265.577 348.686C265.577 346.691 267.153 345.006 269.052 344.991Z" fill="#E31E24"/>
<path d="M222.433 230.895C224.333 230.895 225.923 232.564 225.938 234.559C225.938 236.599 224.303 238.315 222.374 238.269C220.46 238.223 218.899 236.538 218.914 234.543C218.943 232.533 220.534 230.879 222.433 230.895Z" fill="#E31E24"/>
<path d="M439.67 140.5C437.741 140.577 436.077 138.877 436.062 136.836C436.062 134.842 437.623 133.156 439.537 133.125C441.437 133.095 443.042 134.733 443.101 136.743C443.145 138.722 441.599 140.438 439.685 140.5H439.67Z" fill="#E31E24"/>
<path d="M269.184 140.701C267.256 140.763 265.592 139.078 265.577 137.021C265.577 135.027 267.138 133.342 269.052 133.311C270.951 133.28 272.556 134.919 272.601 136.929C272.645 138.923 271.099 140.624 269.17 140.685L269.184 140.701Z" fill="#E31E24"/>
<path d="M361.966 108.046C360.052 108.015 358.476 106.346 358.491 104.336C358.491 102.326 360.081 100.672 361.996 100.656C363.939 100.656 365.559 102.388 365.515 104.413C365.471 106.423 363.866 108.062 361.966 108.031V108.046Z" fill="#E31E24"/>
<path d="M346.494 108.048C344.55 108.079 342.916 106.348 342.945 104.323C342.975 102.313 344.565 100.658 346.464 100.674C348.378 100.674 349.954 102.344 349.969 104.353C349.969 106.348 348.408 108.033 346.494 108.048Z" fill="#E31E24"/>
<path d="M455.152 156.826C453.252 156.841 451.647 155.187 451.618 153.193C451.588 151.167 453.223 149.436 455.166 149.451C457.081 149.467 458.656 151.152 458.656 153.146C458.656 155.141 457.081 156.81 455.166 156.826H455.152Z" fill="#E31E24"/>
<path d="M253.55 328.649C255.464 328.649 257.04 330.318 257.055 332.313C257.055 334.307 255.494 335.992 253.58 336.023C251.636 336.054 250.002 334.338 250.031 332.297C250.06 330.287 251.651 328.633 253.55 328.649Z" fill="#E31E24"/>
<path d="M253.603 156.747C251.644 156.778 250.113 155.217 250.084 153.176C250.069 151.12 251.556 149.527 253.5 149.512C255.414 149.512 256.916 151.027 256.96 153.021C257.004 155.077 255.532 156.701 253.588 156.732L253.603 156.747Z" fill="#E31E24"/>
<path d="M486.248 263.623C488.163 263.623 489.65 265.185 489.679 267.179C489.709 269.235 488.222 270.843 486.263 270.858C484.305 270.874 482.788 269.297 482.788 267.256C482.788 265.215 484.29 263.623 486.248 263.623Z" fill="#E31E24"/>
<path d="M377.53 107.94C375.63 107.94 374.143 106.347 374.158 104.337C374.158 102.343 375.675 100.782 377.589 100.797C379.488 100.797 380.976 102.389 380.961 104.399C380.961 106.394 379.444 107.955 377.53 107.94Z" fill="#E31E24"/>
<path d="M222.413 263.654C224.327 263.654 225.829 265.2 225.844 267.21C225.844 269.22 224.371 270.797 222.457 270.812C220.543 270.812 219.041 269.266 219.026 267.256C219.026 265.247 220.499 263.67 222.413 263.654Z" fill="#E31E24"/>
<path d="M486.246 221.818C484.332 221.818 482.83 220.272 482.815 218.262C482.815 216.253 484.288 214.676 486.202 214.66C488.116 214.66 489.618 216.206 489.633 218.216C489.633 220.226 488.16 221.803 486.246 221.818Z" fill="#E31E24"/>
<path d="M470.684 312.461C472.524 312.461 474.055 314.053 474.07 315.986C474.085 317.949 472.524 319.588 470.639 319.557C468.799 319.526 467.297 317.918 467.312 315.986C467.312 314.053 468.858 312.461 470.684 312.461Z" fill="#E31E24"/>
<path d="M222.433 222.005C220.592 222.005 219.061 220.412 219.046 218.48C219.031 216.547 220.533 214.94 222.374 214.909C224.244 214.878 225.819 216.516 225.805 218.48C225.805 220.412 224.258 222.005 222.433 222.005Z" fill="#E31E24"/>
<path d="M331.054 107.907C329.213 107.876 327.711 106.253 327.726 104.32C327.74 102.388 329.272 100.795 331.112 100.811C332.953 100.811 334.47 102.419 334.484 104.336C334.484 106.299 332.924 107.938 331.039 107.907H331.054Z" fill="#E31E24"/>
<path d="M237.976 312.51C239.758 312.51 241.274 314.056 241.319 315.942C241.378 317.828 239.846 319.498 238.035 319.529C236.224 319.575 234.663 317.967 234.634 316.05C234.619 314.149 236.15 312.51 237.976 312.51Z" fill="#E31E24"/>
<path d="M424.003 124.204C422.177 124.204 420.646 122.55 420.675 120.648C420.705 118.731 422.28 117.123 424.091 117.185C425.888 117.232 427.36 118.824 427.375 120.695C427.375 122.596 425.829 124.22 424.018 124.22L424.003 124.204Z" fill="#E31E24"/>
<path d="M470.681 172.98C468.87 172.98 467.324 171.342 467.338 169.44C467.353 167.569 468.84 165.992 470.637 165.961C472.448 165.93 474.009 167.538 474.023 169.44C474.038 171.342 472.492 172.98 470.681 172.98Z" fill="#E31E24"/>
<path d="M238.11 172.904C236.313 172.966 234.826 171.559 234.723 169.673C234.62 167.74 235.975 166.132 237.815 166.039C239.656 165.947 241.172 167.384 241.246 169.317C241.334 171.249 239.936 172.826 238.095 172.904H238.11Z" fill="#E31E24"/>
<path d="M486.044 279.922C487.884 279.814 489.401 281.251 489.504 283.184C489.592 285.116 488.208 286.709 486.367 286.786C484.527 286.863 483.025 285.395 482.951 283.462C482.892 281.576 484.232 280.03 486.044 279.922Z" fill="#E31E24"/>
<path d="M284.614 124.128C282.774 124.221 281.257 122.783 281.183 120.85C281.095 118.918 282.494 117.341 284.334 117.264C286.131 117.202 287.618 118.609 287.721 120.495C287.824 122.427 286.469 124.035 284.629 124.128H284.614Z" fill="#E31E24"/>
<path d="M222.343 280.181C224.199 280.134 225.642 281.619 225.656 283.551C225.656 285.453 224.272 286.937 222.476 286.952C220.665 286.968 219.236 285.515 219.222 283.644C219.192 281.742 220.562 280.227 222.358 280.196L222.343 280.181Z" fill="#E31E24"/>
<path d="M486.229 205.295C484.433 205.295 483.019 203.826 483.019 201.925C483.019 200.023 484.403 198.539 486.2 198.524C488.04 198.508 489.469 199.992 489.469 201.94C489.469 203.826 488.04 205.295 486.244 205.295H486.229Z" fill="#E31E24"/>
<path d="M393.081 107.74C391.285 107.725 389.901 106.241 389.901 104.339C389.901 102.453 391.314 100.984 393.111 100.969C394.951 100.969 396.365 102.468 396.335 104.416C396.306 106.302 394.892 107.74 393.081 107.725V107.74Z" fill="#E31E24"/>
<path d="M315.7 107.707C313.918 107.784 312.416 106.331 312.358 104.46C312.313 102.621 313.668 101.09 315.391 101.013C317.173 100.935 318.674 102.389 318.733 104.259C318.777 106.099 317.423 107.63 315.7 107.707Z" fill="#E31E24"/>
<path d="M222.51 205.478C220.728 205.525 219.256 204.025 219.241 202.17C219.227 200.346 220.611 198.831 222.348 198.784C224.13 198.738 225.602 200.238 225.617 202.093C225.632 203.917 224.248 205.432 222.51 205.478Z" fill="#E31E24"/>
<path d="M486.199 296.541C487.848 296.541 489.188 297.886 489.218 299.602C489.262 301.365 487.937 302.818 486.258 302.833C484.609 302.833 483.269 301.488 483.239 299.772C483.195 298.01 484.52 296.556 486.199 296.541Z" fill="#E31E24"/>
<path d="M455.083 345.313C456.732 345.297 458.072 346.642 458.116 348.358C458.16 350.121 456.835 351.574 455.156 351.589C453.507 351.605 452.167 350.26 452.123 348.544C452.079 346.781 453.404 345.328 455.083 345.313Z" fill="#E31E24"/>
<path d="M222.424 296.584C224.043 296.584 225.427 298.037 225.398 299.738C225.369 301.392 224.029 302.799 222.453 302.814C220.833 302.814 219.449 301.361 219.479 299.661C219.508 298.006 220.848 296.599 222.424 296.584Z" fill="#E31E24"/>
<path d="M253.592 345.563C255.183 345.594 256.508 347.016 256.508 348.67C256.508 350.371 255.109 351.809 253.504 351.778C251.914 351.747 250.588 350.325 250.588 348.67C250.588 346.97 251.987 345.532 253.592 345.563Z" fill="#E31E24"/>
<path d="M408.725 107.477C407.12 107.508 405.721 106.07 405.707 104.37C405.707 102.715 407.032 101.293 408.622 101.262C410.227 101.231 411.626 102.669 411.641 104.37C411.641 106.024 410.315 107.446 408.725 107.477Z" fill="#E31E24"/>
<path d="M486.242 188.904C484.666 188.904 483.311 187.528 483.267 185.859C483.223 184.174 484.592 182.689 486.212 182.689C487.788 182.689 489.142 184.065 489.186 185.735C489.231 187.42 487.861 188.904 486.242 188.904Z" fill="#E31E24"/>
<path d="M455.163 139.911C453.558 139.942 452.159 138.488 452.159 136.788C452.159 135.133 453.499 133.711 455.074 133.68C456.679 133.649 458.078 135.103 458.078 136.803C458.078 138.457 456.738 139.88 455.163 139.911Z" fill="#E31E24"/>
<path d="M470.705 329.297C472.31 329.328 473.606 330.719 473.561 332.404C473.517 334.059 472.251 335.373 470.675 335.373C469.07 335.373 467.76 333.997 467.775 332.327C467.775 330.642 469.1 329.282 470.705 329.297Z" fill="#E31E24"/>
<path d="M299.99 107.399C298.385 107.399 297.089 106.008 297.104 104.323C297.133 102.638 298.458 101.277 300.063 101.323C301.639 101.37 302.891 102.699 302.891 104.354C302.891 106.039 301.58 107.415 299.99 107.399Z" fill="#E31E24"/>
<path d="M222.463 188.845C220.858 188.876 219.532 187.5 219.532 185.815C219.532 184.13 220.843 182.754 222.433 182.77C224.009 182.77 225.275 184.099 225.319 185.738C225.363 187.423 224.068 188.815 222.463 188.845Z" fill="#E31E24"/>
<path d="M253.557 140.066C251.952 140.082 250.641 138.721 250.627 137.036C250.627 135.351 251.937 133.975 253.542 133.99C255.147 133.99 256.443 135.397 256.414 137.082C256.384 138.737 255.118 140.051 253.557 140.082V140.066Z" fill="#E31E24"/>
<path d="M470.658 156.099C469.068 156.099 467.846 154.785 467.86 153.115C467.86 151.446 469.112 150.162 470.702 150.178C472.292 150.178 473.515 151.492 473.5 153.162C473.5 154.831 472.248 156.115 470.658 156.099Z" fill="#E31E24"/>
<path d="M238.044 156.098C236.439 156.128 235.187 154.861 235.172 153.191C235.143 151.506 236.35 150.192 237.941 150.176C239.546 150.145 240.797 151.413 240.812 153.083C240.841 154.768 239.634 156.082 238.044 156.098Z" fill="#E31E24"/>
<path d="M439.578 123.665C437.988 123.665 436.751 122.382 436.751 120.712C436.751 119.043 437.973 117.744 439.563 117.744C441.154 117.744 442.391 119.027 442.391 120.697C442.391 122.367 441.168 123.665 439.578 123.665Z" fill="#E31E24"/>
<path d="M238.015 329.377C239.605 329.377 240.827 330.691 240.812 332.361C240.812 334.031 239.561 335.314 237.97 335.298C236.38 335.298 235.158 333.984 235.173 332.315C235.173 330.645 236.424 329.362 238.015 329.377Z" fill="#E31E24"/>
<path d="M269.035 123.661C267.445 123.646 266.237 122.332 266.252 120.647C266.267 118.977 267.518 117.709 269.123 117.725C270.713 117.74 271.921 119.054 271.906 120.739C271.891 122.409 270.64 123.677 269.035 123.661Z" fill="#E31E24"/>
<path d="M501.615 237.372C500.099 237.372 498.891 236.12 498.921 234.527C498.95 232.966 500.128 231.76 501.615 231.776C503.102 231.776 504.251 233.012 504.266 234.574C504.266 236.135 503.117 237.357 501.63 237.372H501.615Z" fill="#E31E24"/>
<path d="M207.062 248.104C208.549 248.104 209.727 249.309 209.742 250.871C209.757 252.463 208.564 253.731 207.033 253.7C205.546 253.685 204.397 252.448 204.412 250.886C204.412 249.325 205.575 248.104 207.062 248.104Z" fill="#E31E24"/>
<path d="M501.54 248.104C503.027 248.088 504.205 249.279 504.249 250.84C504.279 252.448 503.101 253.716 501.57 253.7C500.082 253.7 498.919 252.479 498.919 250.917C498.919 249.356 500.068 248.119 501.54 248.104Z" fill="#E31E24"/>
<path d="M486.2 313.283C487.687 313.283 488.851 314.489 488.836 316.051C488.836 317.566 487.687 318.756 486.244 318.756C484.757 318.756 483.594 317.55 483.609 315.989C483.609 314.474 484.757 313.283 486.2 313.283Z" fill="#E31E24"/>
<path d="M346.493 90.7621C345.006 90.7776 343.843 89.5717 343.843 88.0102C343.843 86.4951 344.977 85.3047 346.42 85.2892C347.907 85.2737 349.07 86.4796 349.07 88.0411C349.07 89.5562 347.937 90.7466 346.493 90.7621Z" fill="#E31E24"/>
<path d="M207.029 237.309C205.586 237.294 204.467 236.088 204.467 234.573C204.467 233.011 205.63 231.806 207.118 231.837C208.561 231.852 209.68 233.058 209.68 234.573C209.68 236.134 208.516 237.34 207.029 237.309Z" fill="#E31E24"/>
<path d="M362.062 90.7639C360.604 90.7794 359.455 89.6353 359.411 88.1202C359.367 86.5433 360.501 85.3065 361.973 85.2755C363.431 85.2601 364.58 86.4041 364.624 87.9192C364.668 89.4962 363.534 90.733 362.062 90.7639Z" fill="#E31E24"/>
<path d="M501.626 220.984C500.139 220.984 498.976 219.779 498.99 218.217C498.99 216.702 500.124 215.512 501.567 215.496C503.054 215.496 504.218 216.702 504.203 218.263C504.203 219.779 503.069 220.969 501.626 220.984Z" fill="#E31E24"/>
<path d="M501.582 264.488C503.069 264.488 504.218 265.71 504.203 267.271C504.188 268.786 503.04 269.961 501.597 269.961C500.11 269.961 498.961 268.74 498.976 267.178C498.99 265.663 500.139 264.488 501.582 264.488Z" fill="#E31E24"/>
<path d="M222.379 313.313C223.793 313.282 225 314.534 225 316.019C225 317.456 223.851 318.693 222.482 318.724C221.069 318.755 219.861 317.503 219.861 316.019C219.861 314.581 221.01 313.344 222.379 313.313Z" fill="#E31E24"/>
<path d="M207.094 221.155C205.68 221.155 204.488 219.903 204.502 218.419C204.517 216.965 205.68 215.76 207.065 215.744C208.478 215.744 209.671 216.996 209.656 218.481C209.641 219.934 208.478 221.14 207.094 221.155Z" fill="#E31E24"/>
<path d="M207.109 264.534C208.493 264.549 209.642 265.771 209.656 267.208C209.656 268.693 208.464 269.96 207.05 269.929C205.666 269.914 204.517 268.693 204.503 267.255C204.503 265.771 205.695 264.503 207.109 264.534Z" fill="#E31E24"/>
<path d="M424.016 107.058C422.632 107.058 421.469 105.852 421.44 104.414C421.41 102.93 422.603 101.662 424.016 101.662C425.386 101.662 426.564 102.868 426.593 104.306C426.623 105.79 425.43 107.058 424.016 107.058Z" fill="#E31E24"/>
<path d="M377.606 90.732C376.236 90.7629 375.044 89.5879 374.985 88.1347C374.926 86.6505 376.089 85.3518 377.517 85.3209C378.887 85.29 380.08 86.465 380.138 87.9182C380.197 89.4024 379.034 90.701 377.606 90.732Z" fill="#E31E24"/>
<path d="M486.367 172.176C484.968 172.254 483.716 171.048 483.658 169.564C483.613 168.126 484.718 166.858 486.102 166.781C487.501 166.704 488.752 167.909 488.811 169.394C488.855 170.831 487.751 172.099 486.367 172.176Z" fill="#E31E24"/>
<path d="M331.145 90.732C329.775 90.7629 328.583 89.5879 328.524 88.1347C328.465 86.6505 329.628 85.3518 331.057 85.3209C332.426 85.29 333.619 86.465 333.678 87.9182C333.736 89.4024 332.573 90.701 331.145 90.732Z" fill="#E31E24"/>
<path d="M284.457 106.994C283.073 106.994 281.91 105.758 281.939 104.304C281.969 102.882 283.103 101.722 284.442 101.707C285.827 101.707 286.99 102.944 286.96 104.397C286.931 105.819 285.797 106.979 284.457 106.994Z" fill="#E31E24"/>
<path d="M222.435 172.098C221.095 172.098 219.961 170.939 219.917 169.516C219.887 168.063 221.051 166.826 222.435 166.826C223.775 166.826 224.908 167.986 224.953 169.408C224.982 170.861 223.819 172.098 222.435 172.098Z" fill="#E31E24"/>
<path d="M393.121 90.5318C391.81 90.5318 390.706 89.4032 390.721 88.0118C390.721 86.6822 391.766 85.5536 393.033 85.5072C394.343 85.4609 395.462 86.5894 395.492 87.9654C395.521 89.3414 394.431 90.5009 393.121 90.5163V90.5318Z" fill="#E31E24"/>
<path d="M501.633 204.427C500.323 204.458 499.204 203.329 499.189 201.953C499.174 200.577 500.264 199.418 501.574 199.418C502.841 199.418 503.915 200.516 503.96 201.845C504.004 203.221 502.944 204.396 501.618 204.427H501.633Z" fill="#E31E24"/>
<path d="M501.755 280.848C503.021 280.848 504.111 281.93 504.155 283.259C504.199 284.635 503.139 285.826 501.828 285.857C500.518 285.888 499.399 284.775 499.369 283.399C499.34 282.023 500.43 280.863 501.74 280.848H501.755Z" fill="#E31E24"/>
<path d="M207.076 204.627C205.765 204.627 204.675 203.467 204.69 202.091C204.69 200.715 205.809 199.587 207.12 199.618C208.386 199.649 209.446 200.762 209.461 202.091C209.461 203.467 208.386 204.627 207.076 204.627Z" fill="#E31E24"/>
<path d="M207.12 281.061C208.386 281.092 209.446 282.19 209.461 283.535C209.476 284.911 208.401 286.07 207.075 286.07C205.765 286.07 204.675 284.926 204.675 283.55C204.675 282.175 205.794 281.03 207.105 281.061H207.12Z" fill="#E31E24"/>
<path d="M470.577 346.027C471.828 345.95 472.962 347.048 473.006 348.393C473.051 349.707 472.005 350.882 470.724 350.928C469.502 350.959 468.427 349.923 468.339 348.609C468.25 347.295 469.281 346.105 470.562 346.027H470.577Z" fill="#E31E24"/>
<path d="M315.584 90.4854C314.317 90.5163 313.228 89.3722 313.213 88.0427C313.213 86.7595 314.214 85.6463 315.451 85.5845C316.703 85.5226 317.822 86.6358 317.866 87.9654C317.91 89.2795 316.835 90.4544 315.569 90.4699L315.584 90.4854Z" fill="#E31E24"/>
<path d="M237.904 346.32C239.156 346.274 240.157 347.232 240.216 348.531C240.275 349.891 239.347 350.973 238.066 351.02C236.815 351.066 235.813 350.108 235.755 348.809C235.696 347.449 236.623 346.366 237.904 346.32Z" fill="#E31E24"/>
<path d="M238.069 139.371C236.773 139.418 235.772 138.413 235.757 137.052C235.757 135.738 236.67 134.718 237.907 134.671C239.203 134.625 240.204 135.63 240.219 136.99C240.219 138.305 239.306 139.325 238.069 139.371Z" fill="#E31E24"/>
<path d="M470.772 139.153C469.476 139.199 468.46 138.194 468.445 136.849C468.431 135.535 469.358 134.499 470.595 134.468C471.891 134.422 472.907 135.427 472.922 136.772C472.936 138.086 472.009 139.122 470.772 139.153Z" fill="#E31E24"/>
<path d="M455.135 123.03C453.884 123.03 452.927 122.041 452.897 120.742C452.868 119.382 453.84 118.346 455.121 118.346C456.372 118.346 457.329 119.335 457.359 120.634C457.388 121.994 456.416 123.03 455.135 123.03Z" fill="#E31E24"/>
<path d="M253.557 123.028C252.306 123.028 251.334 122.054 251.304 120.74C251.275 119.379 252.232 118.328 253.528 118.328C254.779 118.328 255.751 119.302 255.781 120.616C255.81 121.977 254.853 123.028 253.557 123.028Z" fill="#E31E24"/>
<path d="M486.319 155.373C485.17 155.435 484.125 154.415 484.095 153.193C484.066 152.018 484.994 150.982 486.127 150.921C487.276 150.859 488.321 151.879 488.351 153.101C488.38 154.275 487.453 155.311 486.319 155.373Z" fill="#E31E24"/>
<path d="M486.127 330.116C487.276 330.054 488.321 331.074 488.351 332.296C488.38 333.471 487.453 334.507 486.319 334.584C485.17 334.646 484.125 333.625 484.095 332.404C484.066 331.229 484.994 330.193 486.127 330.116Z" fill="#E31E24"/>
<path d="M501.719 297.451C502.868 297.404 503.898 298.456 503.898 299.677C503.898 300.852 502.956 301.872 501.837 301.919C500.688 301.965 499.658 300.914 499.658 299.692C499.658 298.517 500.6 297.497 501.719 297.451Z" fill="#E31E24"/>
<path d="M501.642 188.02C500.493 188.067 499.462 187.015 499.462 185.794C499.462 184.619 500.405 183.599 501.524 183.552C502.672 183.506 503.703 184.557 503.703 185.779C503.703 186.953 502.761 187.974 501.642 188.02Z" fill="#E31E24"/>
<path d="M222.518 155.263C221.325 155.294 220.427 154.382 220.427 153.13C220.427 151.924 221.281 151.012 222.43 151.012C223.578 151.012 224.462 151.893 224.476 153.083C224.491 154.289 223.667 155.232 222.518 155.263Z" fill="#E31E24"/>
<path d="M408.766 90.1617C407.573 90.2081 406.66 89.296 406.645 88.0437C406.645 86.8378 407.485 85.9257 408.633 85.8947C409.782 85.8793 410.665 86.7605 410.695 87.9509C410.724 89.1568 409.899 90.0999 408.751 90.1463L408.766 90.1617Z" fill="#E31E24"/>
<path d="M299.94 90.1597C298.807 90.1288 297.967 89.2012 297.982 87.9953C297.997 86.7894 298.88 85.9082 300.029 85.9082C301.177 85.9082 302.031 86.8204 302.031 88.0262C302.031 89.2785 301.133 90.1907 299.94 90.1597Z" fill="#E31E24"/>
<path d="M207.075 187.93C205.926 187.93 205.058 187.033 205.043 185.827C205.043 184.621 205.867 183.694 207.016 183.663C208.165 183.632 209.063 184.513 209.092 185.704C209.136 186.956 208.253 187.914 207.075 187.914V187.93Z" fill="#E31E24"/>
<path d="M222.377 330.212C223.569 330.181 224.468 331.108 224.453 332.361C224.453 333.567 223.569 334.463 222.436 334.463C221.287 334.463 220.418 333.567 220.404 332.361C220.404 331.155 221.228 330.227 222.377 330.212Z" fill="#E31E24"/>
<path d="M207.062 297.556C208.21 297.556 209.079 298.438 209.094 299.644C209.108 300.896 208.225 301.823 207.032 301.808C205.884 301.793 205.044 300.88 205.044 299.659C205.044 298.453 205.913 297.556 207.062 297.541V297.556Z" fill="#E31E24"/>
<path d="M439.547 106.484C438.398 106.484 437.544 105.572 437.544 104.366C437.544 103.16 438.398 102.248 439.532 102.233C440.725 102.217 441.608 103.145 441.594 104.397C441.579 105.603 440.695 106.484 439.547 106.484Z" fill="#E31E24"/>
<path d="M269.208 106.485C268.06 106.531 267.147 105.681 267.073 104.49C267.014 103.238 267.854 102.249 269.032 102.233C270.18 102.202 271.078 103.084 271.108 104.274C271.152 105.48 270.327 106.438 269.193 106.485H269.208Z" fill="#E31E24"/>
<path d="M501.601 171.297C500.689 171.297 499.879 170.478 499.849 169.519C499.82 168.561 500.6 167.695 501.513 167.648C502.411 167.602 503.265 168.406 503.31 169.38C503.368 170.369 502.544 171.282 501.587 171.297H501.601Z" fill="#E31E24"/>
<path d="M517.107 249.076C518.02 249.061 518.845 249.88 518.874 250.839C518.904 251.828 518.064 252.74 517.107 252.725C516.194 252.725 515.399 251.859 515.399 250.901C515.399 249.942 516.194 249.092 517.107 249.076Z" fill="#E31E24"/>
<path d="M501.77 314.193C502.683 314.193 503.493 315.013 503.523 315.971C503.552 316.961 502.698 317.857 501.756 317.842C500.843 317.826 500.048 316.961 500.048 316.002C500.048 315.044 500.858 314.193 501.77 314.193Z" fill="#E31E24"/>
<path d="M517.06 232.75C517.958 232.704 518.812 233.508 518.856 234.481C518.915 235.471 518.091 236.399 517.134 236.399C516.221 236.399 515.411 235.579 515.381 234.621C515.352 233.662 516.132 232.796 517.045 232.75H517.06Z" fill="#E31E24"/>
<path d="M517.186 219.95C516.244 219.981 515.522 219.27 515.508 218.28C515.493 217.291 516.185 216.549 517.113 216.549C518.011 216.549 518.703 217.229 518.732 218.157C518.777 219.146 518.099 219.919 517.172 219.95H517.186Z" fill="#E31E24"/>
<path d="M362.049 73.4012C361.107 73.4167 360.4 72.6901 360.4 71.7161C360.4 70.7266 361.092 70 362.035 70C362.933 70 363.61 70.6957 363.64 71.6388C363.669 72.6282 362.992 73.3858 362.049 73.4012Z" fill="#E31E24"/>
<path d="M346.458 73.4022C345.531 73.4022 344.824 72.6601 344.839 71.6706C344.839 70.6967 345.575 69.97 346.503 70.001C347.386 70.0319 348.063 70.743 348.078 71.6706C348.078 72.6601 347.386 73.4022 346.458 73.4022Z" fill="#E31E24"/>
<path d="M517.181 265.542C518.109 265.573 518.786 266.33 518.757 267.32C518.727 268.247 518.035 268.943 517.137 268.943C516.21 268.943 515.503 268.201 515.517 267.211C515.517 266.237 516.254 265.511 517.181 265.542Z" fill="#E31E24"/>
<path d="M207.172 171.173C206.229 171.219 205.493 170.508 205.464 169.534C205.434 168.545 206.112 167.787 207.054 167.772C207.996 167.756 208.703 168.483 208.703 169.457C208.703 170.4 208.055 171.127 207.172 171.173Z" fill="#E31E24"/>
<path d="M191.543 236.275C190.601 236.275 189.909 235.549 189.909 234.575C189.909 233.601 190.63 232.859 191.558 232.89C192.456 232.905 193.119 233.616 193.148 234.544C193.163 235.533 192.486 236.275 191.543 236.291V236.275Z" fill="#E31E24"/>
<path d="M206.978 314.32C207.921 314.258 208.657 314.969 208.701 315.928C208.745 316.917 208.068 317.69 207.14 317.706C206.198 317.737 205.476 317.01 205.462 316.036C205.462 315.093 206.095 314.351 206.978 314.305V314.32Z" fill="#E31E24"/>
<path d="M284.5 89.7292C283.557 89.7601 282.836 89.0335 282.821 88.0595C282.821 87.1164 283.454 86.3743 284.338 86.328C285.28 86.2661 286.016 86.9773 286.06 87.9358C286.105 88.9253 285.427 89.6983 284.5 89.7137V89.7292Z" fill="#E31E24"/>
<path d="M424.014 89.7296C423.086 89.7296 422.38 88.9721 422.409 87.9981C422.424 87.055 423.101 86.3593 423.985 86.3284C424.927 86.3129 425.634 87.0241 425.648 88.0135C425.648 89.003 424.956 89.7296 424.029 89.7296H424.014Z" fill="#E31E24"/>
<path d="M191.602 249.198C192.486 249.229 193.148 249.956 193.148 250.899C193.148 251.873 192.442 252.615 191.499 252.599C190.572 252.599 189.88 251.826 189.909 250.852C189.938 249.878 190.66 249.167 191.602 249.198Z" fill="#E31E24"/>
<path d="M377.605 73.3431C376.81 73.374 376.059 72.6474 376.015 71.8126C375.956 70.9468 376.692 70.112 377.531 70.081C378.327 70.0501 379.078 70.7767 379.122 71.6116C379.181 72.4774 378.444 73.3122 377.605 73.3431Z" fill="#E31E24"/>
<path d="M191.576 220.091C190.737 220.122 189.971 219.334 189.971 218.468C189.971 217.633 190.678 216.86 191.473 216.829C192.312 216.798 193.078 217.587 193.078 218.468C193.078 219.303 192.371 220.076 191.576 220.107V220.091Z" fill="#E31E24"/>
<path d="M470.68 122.319C469.884 122.319 469.148 121.577 469.119 120.742C469.089 119.861 469.84 119.057 470.665 119.057C471.46 119.057 472.196 119.799 472.226 120.634C472.255 121.515 471.504 122.319 470.68 122.319Z" fill="#E31E24"/>
<path d="M238.044 122.317C237.219 122.363 236.439 121.575 236.424 120.693C236.424 119.859 237.116 119.086 237.912 119.055C238.736 119.008 239.517 119.797 239.531 120.678C239.531 121.513 238.839 122.286 238.044 122.317Z" fill="#E31E24"/>
<path d="M331.179 73.3383C330.383 73.3846 329.632 72.6889 329.559 71.8386C329.485 70.9729 330.192 70.1225 331.031 70.0762C331.826 70.0298 332.577 70.7255 332.651 71.5758C332.725 72.4416 332.018 73.2919 331.179 73.3383Z" fill="#E31E24"/>
<path d="M486.272 346.831C487.068 346.862 487.789 347.619 487.789 348.454C487.789 349.336 487.023 350.124 486.199 350.093C485.404 350.062 484.682 349.305 484.682 348.47C484.682 347.589 485.448 346.8 486.272 346.831Z" fill="#E31E24"/>
<path d="M191.501 265.605C192.296 265.605 193.032 266.317 193.076 267.167C193.12 268.033 192.384 268.868 191.545 268.868C190.75 268.868 190.013 268.156 189.969 267.306C189.925 266.44 190.661 265.605 191.501 265.605Z" fill="#E31E24"/>
<path d="M517.067 281.868C517.892 281.821 518.54 282.44 518.569 283.305C518.599 284.171 517.995 284.836 517.17 284.851C516.346 284.867 515.713 284.233 515.713 283.367C515.713 282.532 516.272 281.914 517.053 281.868H517.067Z" fill="#E31E24"/>
<path d="M222.495 138.521C221.67 138.552 221.037 137.918 221.007 137.052C220.993 136.186 221.596 135.521 222.421 135.521C223.216 135.521 223.82 136.109 223.849 136.928C223.893 137.794 223.304 138.474 222.48 138.505L222.495 138.521Z" fill="#E31E24"/>
<path d="M222.655 347.184C223.45 347.199 224.024 347.802 224.054 348.637C224.083 349.503 223.479 350.167 222.655 350.183C221.83 350.183 221.212 349.549 221.212 348.683C221.212 347.817 221.83 347.184 222.67 347.199L222.655 347.184Z" fill="#E31E24"/>
<path d="M486.221 138.307C485.396 138.307 484.793 137.642 484.807 136.776C484.822 135.911 485.455 135.277 486.295 135.308C487.075 135.339 487.649 135.957 487.664 136.776C487.664 137.642 487.06 138.292 486.236 138.292L486.221 138.307Z" fill="#E31E24"/>
<path d="M253.629 105.852C252.804 105.898 252.142 105.296 252.112 104.43C252.083 103.564 252.672 102.884 253.496 102.868C254.321 102.837 254.954 103.471 254.969 104.337C254.969 105.172 254.424 105.806 253.644 105.852H253.629Z" fill="#E31E24"/>
<path d="M455.169 105.851C454.344 105.882 453.711 105.248 453.696 104.382C453.696 103.517 454.3 102.867 455.124 102.867C455.92 102.867 456.509 103.47 456.538 104.29C456.567 105.155 455.978 105.836 455.154 105.866L455.169 105.851Z" fill="#E31E24"/>
<path d="M191.55 282.16C192.257 282.16 192.875 282.825 192.875 283.567C192.875 284.34 192.198 285.036 191.461 284.989C190.755 284.943 190.151 284.263 190.18 283.536C190.21 282.794 190.843 282.16 191.535 282.16H191.55Z" fill="#E31E24"/>
<path d="M517.136 203.328C516.43 203.328 515.796 202.695 515.782 201.952C515.767 201.226 516.371 200.546 517.077 200.515C517.814 200.484 518.491 201.164 518.476 201.952C518.476 202.695 517.843 203.344 517.136 203.344V203.328Z" fill="#E31E24"/>
<path d="M191.533 203.547C190.826 203.547 190.208 202.913 190.178 202.171C190.164 201.429 190.767 200.764 191.474 200.734C192.166 200.703 192.829 201.321 192.873 202.063C192.917 202.836 192.269 203.563 191.533 203.563V203.547Z" fill="#E31E24"/>
<path d="M315.498 73.1065C314.792 73.0756 314.188 72.4108 314.203 71.6688C314.203 70.9267 314.836 70.2773 315.543 70.2773C316.249 70.2773 316.868 70.9267 316.883 71.6688C316.897 72.4418 316.22 73.1375 315.484 73.1065H315.498Z" fill="#E31E24"/>
<path d="M393.136 73.1066C392.429 73.1066 391.796 72.4881 391.766 71.7461C391.737 70.9731 392.399 70.2619 393.136 70.2773C393.842 70.2928 394.461 70.9576 394.461 71.6842C394.461 72.4263 393.842 73.0756 393.136 73.0911V73.1066Z" fill="#E31E24"/>
<path d="M501.717 331.09C502.424 331.029 503.013 331.616 502.983 332.358C502.954 333.147 502.512 333.533 501.923 333.61C501.128 333.61 500.583 333.085 500.583 332.389C500.583 331.616 500.981 331.152 501.717 331.09Z" fill="#E31E24"/>
<path d="M207.036 331.092C207.743 331.046 208.317 331.634 208.288 332.376C208.244 333.164 207.802 333.551 207.081 333.628C206.359 333.551 205.903 333.149 205.888 332.376C205.888 331.603 206.3 331.154 207.036 331.092Z" fill="#E31E24"/>
<path d="M439.668 89.3104C438.917 89.2794 438.431 88.9239 438.372 88.1354C438.314 87.3624 438.696 86.8831 439.433 86.7749C440.139 86.6667 440.758 87.2387 440.758 87.9653C440.758 88.7538 440.346 89.1712 439.653 89.2949L439.668 89.3104Z" fill="#E31E24"/>
<path d="M501.675 154.399C500.969 154.476 500.38 153.889 500.394 153.146C500.394 152.358 500.836 151.956 501.543 151.863C502.279 151.925 502.75 152.296 502.78 153.085C502.809 153.858 502.412 154.321 501.675 154.414V154.399Z" fill="#E31E24"/>
<path d="M191.533 186.88C191.091 186.803 190.708 186.339 190.296 186.03C190.296 185.86 190.296 185.706 190.296 185.535C190.708 185.242 191.091 184.778 191.533 184.716C192.181 184.608 192.578 185.103 192.578 185.798C192.578 186.494 192.166 186.989 191.518 186.865L191.533 186.88Z" fill="#E31E24"/>
<path d="M517.151 186.877C516.709 186.799 516.326 186.336 515.914 186.057C515.914 185.887 515.914 185.733 515.914 185.563C516.326 185.269 516.694 184.805 517.151 184.712C517.799 184.589 518.211 185.083 518.211 185.779C518.211 186.475 517.813 186.97 517.165 186.861L517.151 186.877Z" fill="#E31E24"/>
<path d="M207.176 154.412C207.014 154.412 206.866 154.412 206.704 154.427C206.41 154.01 205.939 153.623 205.85 153.159C205.718 152.495 206.16 152.031 206.837 152.015C207.499 151.984 208 152.386 207.912 153.067C207.853 153.53 207.426 153.963 207.176 154.396V154.412Z" fill="#E31E24"/>
<path d="M518.195 299.678C518.195 300.374 517.798 300.884 517.165 300.776C516.723 300.698 516.325 300.25 515.913 299.956C515.913 299.786 515.913 299.632 515.913 299.462C516.325 299.168 516.693 298.689 517.135 298.611C517.768 298.488 518.195 298.967 518.195 299.678Z" fill="#E31E24"/>
<path d="M191.286 298.393C191.448 298.393 191.596 298.393 191.758 298.393C192.037 298.825 192.494 299.212 192.567 299.676C192.685 300.341 192.229 300.789 191.551 300.789C190.889 300.789 190.403 300.371 190.506 299.707C190.58 299.243 191.007 298.825 191.286 298.393Z" fill="#E31E24"/>
<path d="M269.122 89.1405C268.459 89.1405 267.973 88.723 268.076 88.0583C268.15 87.5944 268.577 87.177 268.857 86.7441C269.019 86.7441 269.166 86.7441 269.328 86.7441C269.608 87.177 270.064 87.5635 270.138 88.0273C270.256 88.6921 269.799 89.1405 269.122 89.1405Z" fill="#E31E24"/>
<path d="M300.016 72.8164C299.294 72.8164 298.823 72.3526 298.971 71.6414C299.059 71.1931 299.56 70.8375 299.869 70.4355C300.016 70.4355 300.163 70.4355 300.31 70.4355C300.561 70.853 300.958 71.2395 301.032 71.6878C301.135 72.3681 300.693 72.8009 300.016 72.8164Z" fill="#E31E24"/>
<path d="M408.853 73.0003C408.691 73.0003 408.544 73.0003 408.382 73.0003C408.117 72.5674 407.69 72.15 407.631 71.6707C407.543 70.9904 408.029 70.5885 408.691 70.6039C409.354 70.6194 409.81 71.0832 409.692 71.748C409.604 72.2118 409.148 72.5983 408.853 73.0157V73.0003Z" fill="#E31E24"/>
</g>
<g filter="url(#filter0_f_70_10)">
<circle cx="394.821" cy="208.499" r="102.696" fill="#FE9100"/>
</g>
<defs>
<filter id="filter0_f_70_10" x="264.488" y="78.1658" width="260.666" height="260.666" filterUnits="userSpaceOnUse" color-interpolation-filters="sRGB">
<feFlood flood-opacity="0" result="BackgroundImageFix"/>
<feBlend mode="normal" in="SourceGraphic" in2="BackgroundImageFix" result="shape"/>
<feGaussianBlur stdDeviation="13.8185" result="effect1_foregroundBlur_70_10"/>
</filter>
</defs>
</svg>
