<svg width="1024" height="357" viewBox="0 0 1024 357" fill="none" xmlns="http://www.w3.org/2000/svg">
<path d="M951.013 9.64693L656.761 217.017L904.752 -41.4165L951.013 9.64693Z" fill="#FEC41B" stroke="#FFC728" stroke-width="0.725291"/>
<path d="M972.789 417.292L676.196 213.285L1004.63 356.186L972.789 417.292Z" fill="#FEC41B" stroke="#FFC728" stroke-width="0.725291"/>
<path d="M1107.16 145.47L657.363 223.098L1065.4 29.0358L1107.16 145.47Z" fill="#FEC41B" stroke="#FFC728" stroke-width="0.912654"/>
<path d="M1065.12 286.031L709.969 227.101L1068 216.838L1065.12 286.031Z" fill="#FEC41B" stroke="#FFC728" stroke-width="0.725291"/>
<path d="M597.718 -35.9221L737.689 295.762L537.693 -1.38312L597.718 -35.9221Z" fill="#FEC41B" stroke="#FFC728" stroke-width="0.725291"/>
<path d="M20.2572 -50.3903L763.417 303.608L-9.76519 24.2919L20.2572 -50.3903Z" fill="#FEC41B" stroke="#FFC728" stroke-width="0.842991"/>
<path d="M272.096 -107.001L800.235 363.521L246.128 -75.6071L272.096 -107.001Z" fill="#FEC41B" stroke="#FFC728" stroke-width="0.725291"/>
<path d="M-87.9676 302.857L779.378 228.93L-74.1155 393.284L-87.9676 302.857Z" fill="#FEC41B" stroke="#FFC728" stroke-width="0.725291"/>
<path d="M405.69 381.914L721.742 209.526L446.05 438.19L405.69 381.914Z" fill="#FEC41B" stroke="#FFC728" stroke-width="0.725291"/>
<g opacity="0.24">
<path d="M661.497 199.678C661.615 196.463 663.981 193.527 667.189 192.631C670.945 191.589 673.813 192.999 676.83 197.417C677.805 194.819 679.609 193.057 682.241 192.059C678.027 189.549 676.475 186.627 677.303 182.957C678.042 179.683 680.777 177.217 684.03 176.894C687.934 176.498 690.698 178.377 692.665 182.781C694.247 178.685 696.953 176.718 700.767 176.865C704.05 176.982 706.977 179.272 707.923 182.443C709.018 186.172 707.628 189.035 703.37 191.971C704.36 192.661 705.484 193.263 706.356 194.129C707.243 195.01 707.879 196.155 708.604 197.153C711.354 193.087 714.163 191.663 717.815 192.543C720.994 193.321 723.419 195.949 723.803 199.017C724.054 201.029 723.67 202.908 722.502 204.596C721.349 206.255 719.737 207.282 717.711 207.855C722.28 209.954 724.247 212.538 723.862 216.12C723.729 217.339 723.359 218.616 722.753 219.658C722.162 220.671 721.216 221.596 720.225 222.256C719.234 222.917 718.007 223.211 716.987 223.622C721.644 225.046 723.892 227.762 723.611 231.74C723.359 235.234 720.698 238.082 717.09 238.64C714.976 238.963 713.054 238.405 711.354 237.128C709.624 235.821 708.766 234.001 708.352 231.74C707.628 235.983 705.218 238.331 701.063 239.065C705.957 240.622 708.249 243.484 707.746 247.257C707.258 250.898 704.404 253.599 700.797 253.805C697.307 254.01 694.04 251.617 693.227 248.241C692.813 246.538 692.975 244.879 693.744 243.308C694.942 240.856 697.027 239.579 699.673 239.065C696.125 238.508 693.848 236.54 692.709 233.223C690.447 237.671 688.007 239.286 684.074 238.948C681.043 238.684 678.19 236.423 677.436 233.414C676.312 228.995 678.116 225.838 682.197 223.739C679.565 222.756 677.865 220.965 676.83 218.454C674.434 222.433 671.507 224.033 667.973 223.372C664.676 222.756 661.985 220.172 661.615 216.913C661.083 212.244 663.39 209.338 667.855 207.899C663.404 206.284 661.394 203.642 661.541 199.707L661.497 199.678ZM708.515 202.849C707.613 205.11 706.223 206.71 703.991 207.855C706.149 208.985 707.598 210.556 708.5 212.817C709.712 210.277 711.502 208.633 714.178 207.884C711.546 207.077 709.668 205.477 708.5 202.849H708.515ZM708.278 230.404C709.032 226.558 711.324 224.253 715.494 223.519C712.108 223.064 709.934 221.434 708.544 218.469C707.465 220.979 705.809 222.712 703.207 223.725C706.105 225.134 707.864 227.248 708.293 230.404H708.278ZM692.62 229.244C693.463 226.631 695.016 224.855 697.544 223.754C695.297 222.858 693.729 221.493 692.62 219.467C691.467 221.522 689.915 222.888 687.638 223.725C690.151 224.826 691.793 226.558 692.62 229.244ZM696.228 207.855C695.06 206.695 693.774 205.433 692.62 204.302C691.497 205.403 690.196 206.681 688.983 207.884C690.122 208.985 691.452 210.263 692.62 211.393C693.759 210.277 695.045 209.015 696.228 207.87V207.855ZM692.606 196.331C694.232 193.865 694.986 193.204 697.618 191.986C695.09 190.885 693.434 189.094 692.65 186.29C691.822 189.094 690.196 190.914 687.52 192.015C689.87 192.881 691.512 194.305 692.606 196.331ZM676.756 212.978C677.672 210.615 679.121 209 681.354 207.855C679.151 206.71 677.643 205.08 676.77 202.688C675.602 205.447 673.666 207.106 670.575 207.855C673.577 208.618 675.543 210.189 676.741 212.978H676.756Z" fill="#E31E24"/>
<path d="M669.265 223.593C673.523 223.666 676.939 226.661 676.924 231.153C676.909 235.939 673.139 238.64 669.339 238.669C665.184 238.699 661.754 235.293 661.724 231.168C661.71 227.057 665.125 223.519 669.265 223.578V223.593Z" fill="#E31E24"/>
<path d="M715.955 192.174C711.49 192.174 708.488 188.871 708.37 184.643C708.252 180.562 711.8 177.112 715.94 177.098C720.095 177.083 723.555 180.46 723.569 184.585C723.569 188.402 720.804 192.189 715.97 192.174H715.955Z" fill="#E31E24"/>
<path d="M669.337 192.174C665.227 192.189 661.752 188.754 661.737 184.643C661.737 180.533 665.153 177.112 669.293 177.098C673.418 177.098 676.892 180.504 676.907 184.599C676.922 188.666 673.447 192.145 669.322 192.16L669.337 192.174Z" fill="#E31E24"/>
<path d="M731.599 208.312C735.65 208.312 738.991 211.63 738.977 215.652C738.977 219.675 735.635 222.992 731.584 222.978C727.533 222.978 724.191 219.66 724.206 215.638C724.206 211.615 727.547 208.297 731.599 208.312Z" fill="#E31E24"/>
<path d="M684.935 239.108C689.608 239.108 692.284 242.734 692.313 246.449C692.343 250.471 688.987 253.789 684.921 253.789C680.869 253.789 677.528 250.471 677.528 246.449C677.587 242.734 680.248 239.108 684.921 239.108H684.935Z" fill="#E31E24"/>
<path d="M731.628 207.458C727.592 207.488 724.22 204.17 724.22 200.148C724.22 196.14 727.562 192.807 731.613 192.807C735.664 192.807 739.006 196.154 738.976 200.162C738.947 204.141 735.65 207.429 731.643 207.444L731.628 207.458Z" fill="#E31E24"/>
<path d="M684.91 176.646C680.903 176.602 677.606 173.313 677.591 169.335C677.591 165.357 680.859 162.068 684.88 162.024C688.902 161.98 692.288 165.298 692.303 169.32C692.303 173.313 688.917 176.69 684.91 176.646Z" fill="#E31E24"/>
<path d="M653.675 192.836C657.711 192.807 661.082 196.154 661.053 200.161C661.038 204.14 657.741 207.413 653.734 207.443C649.697 207.472 646.326 204.125 646.356 200.117C646.371 196.139 649.668 192.865 653.675 192.836Z" fill="#E31E24"/>
<path d="M700.444 176.661C696.511 176.764 693.036 173.358 693.007 169.365C692.977 165.401 696.245 162.098 700.281 162.025C704.259 161.952 707.615 165.181 707.718 169.189C707.822 173.138 704.51 176.544 700.459 176.661H700.444Z" fill="#E31E24"/>
<path d="M653.689 208.339C657.726 208.339 661.082 211.686 661.053 215.679C661.023 219.672 657.711 222.931 653.704 222.946C649.668 222.946 646.311 219.599 646.341 215.606C646.371 211.613 649.683 208.354 653.689 208.339Z" fill="#E31E24"/>
<path d="M716.012 239.314C719.915 239.344 723.139 242.544 723.139 246.419C723.139 250.339 719.901 253.583 715.953 253.583C712.005 253.583 708.752 250.339 708.767 246.419C708.782 242.5 712.064 239.285 715.997 239.314H716.012Z" fill="#E31E24"/>
<path d="M731.537 224.018C735.484 223.988 738.752 227.218 738.767 231.138C738.767 235.013 735.588 238.243 731.67 238.287C727.737 238.346 724.425 235.145 724.395 231.226C724.351 227.321 727.589 224.047 731.537 224.018Z" fill="#E31E24"/>
<path d="M669.341 239.536C673.244 239.551 676.468 242.751 676.482 246.627C676.497 250.532 673.23 253.791 669.297 253.776C665.393 253.762 662.17 250.561 662.155 246.686C662.14 242.781 665.408 239.522 669.341 239.536Z" fill="#E31E24"/>
<path d="M653.623 224.033C657.541 223.974 660.853 227.189 660.883 231.108C660.912 234.969 657.719 238.199 653.8 238.258C649.882 238.317 646.57 235.102 646.541 231.182C646.511 227.321 649.705 224.091 653.623 224.033Z" fill="#E31E24"/>
<path d="M731.598 191.751C727.695 191.751 724.472 188.58 724.427 184.69C724.383 180.8 727.651 177.526 731.583 177.511C735.487 177.511 738.71 180.682 738.754 184.572C738.799 188.463 735.531 191.736 731.598 191.751Z" fill="#E31E24"/>
<path d="M716.042 176.437C712.123 176.495 708.826 173.251 708.812 169.346C708.797 165.485 711.99 162.256 715.909 162.211C719.827 162.153 723.124 165.397 723.139 169.302C723.153 173.163 719.96 176.393 716.042 176.437Z" fill="#E31E24"/>
<path d="M653.668 191.721C649.75 191.692 646.527 188.462 646.571 184.587C646.601 180.696 649.854 177.496 653.757 177.54C657.675 177.569 660.898 180.799 660.854 184.675C660.824 188.565 657.572 191.765 653.668 191.721Z" fill="#E31E24"/>
<path d="M669.294 176.409C665.376 176.395 662.152 173.18 662.182 169.289C662.197 165.399 665.435 162.199 669.353 162.228C673.271 162.243 676.494 165.458 676.465 169.348C676.45 173.238 673.212 176.439 669.294 176.409Z" fill="#E31E24"/>
<path d="M747.199 193.364C750.969 193.364 754.015 196.359 754.015 200.103C754.015 203.861 751.013 206.885 747.258 206.9C743.473 206.914 740.412 203.934 740.382 200.205C740.353 196.403 743.384 193.364 747.199 193.364Z" fill="#E31E24"/>
<path d="M731.538 239.682C735.323 239.668 738.383 242.648 738.398 246.376C738.428 250.135 735.441 253.188 731.686 253.217C727.886 253.247 724.81 250.296 724.766 246.567C724.722 242.75 727.723 239.697 731.538 239.682Z" fill="#E31E24"/>
<path d="M747.154 208.867C750.939 208.853 754 211.833 754.014 215.561C754.044 219.32 751.043 222.373 747.302 222.403C743.502 222.432 740.427 219.481 740.382 215.752C740.338 211.935 743.339 208.882 747.154 208.867Z" fill="#E31E24"/>
<path d="M684.904 255.198C688.689 255.198 691.735 258.163 691.765 261.907C691.779 265.665 688.793 268.704 685.037 268.733C681.208 268.763 678.132 265.768 678.132 261.98C678.132 258.237 681.149 255.213 684.919 255.198H684.904Z" fill="#E31E24"/>
<path d="M700.257 255.198C704.087 255.169 707.162 258.164 707.177 261.936C707.177 265.695 704.175 268.719 700.405 268.733C696.62 268.748 693.559 265.768 693.545 262.039C693.515 258.281 696.502 255.228 700.257 255.198Z" fill="#E31E24"/>
<path d="M731.594 176.088C727.839 176.088 724.778 173.064 724.778 169.349C724.778 165.621 727.824 162.582 731.565 162.582C735.32 162.582 738.381 165.606 738.381 169.32C738.381 173.049 735.335 176.088 731.594 176.088Z" fill="#E31E24"/>
<path d="M653.693 239.902C657.448 239.902 660.509 242.926 660.509 246.655C660.509 250.384 657.463 253.422 653.707 253.422C649.952 253.422 646.891 250.398 646.891 246.67C646.891 242.941 649.937 239.902 653.693 239.902Z" fill="#E31E24"/>
<path d="M653.707 176.073C649.982 176.073 646.906 173.02 646.921 169.305C646.921 165.606 650.026 162.567 653.767 162.582C657.463 162.611 660.494 165.635 660.509 169.305C660.509 173.005 657.448 176.073 653.722 176.073H653.707Z" fill="#E31E24"/>
<path d="M638.065 193.396C641.791 193.396 644.881 196.435 644.881 200.134C644.881 203.804 641.85 206.843 638.168 206.872C634.428 206.916 631.323 203.892 631.293 200.178C631.263 196.464 634.324 193.396 638.065 193.381V193.396Z" fill="#E31E24"/>
<path d="M638.107 208.894C641.803 208.894 644.849 211.919 644.864 215.589C644.894 219.303 641.833 222.371 638.092 222.386C634.366 222.386 631.276 219.347 631.276 215.633C631.276 211.933 634.366 208.88 638.092 208.894H638.107Z" fill="#E31E24"/>
<path d="M684.917 160.555C681.192 160.555 678.131 157.472 678.146 153.758C678.175 150.058 681.28 147.02 685.006 147.064C688.703 147.108 691.719 150.132 691.719 153.802C691.719 157.501 688.643 160.555 684.903 160.54L684.917 160.555Z" fill="#E31E24"/>
<path d="M700.385 160.554C696.659 160.569 693.569 157.53 693.555 153.816C693.555 150.117 696.63 147.063 700.371 147.063C704.067 147.063 707.113 150.087 707.142 153.743C707.172 157.457 704.111 160.525 700.385 160.54V160.554Z" fill="#E31E24"/>
<path d="M747.258 224.545C750.94 224.559 753.852 227.466 753.867 231.121C753.867 234.821 750.94 237.757 747.214 237.757C743.488 237.757 740.545 234.821 740.56 231.136C740.56 227.451 743.532 224.53 747.258 224.559V224.545Z" fill="#E31E24"/>
<path d="M716.014 255.36C719.725 255.374 722.652 258.34 722.623 262.039C722.593 265.68 719.651 268.572 715.969 268.572C712.243 268.572 709.301 265.636 709.316 261.951C709.316 258.266 712.288 255.345 716.014 255.374V255.36Z" fill="#E31E24"/>
<path d="M669.309 255.36C672.99 255.36 675.933 258.222 675.977 261.878C676.021 265.577 673.109 268.543 669.398 268.572C665.672 268.601 662.7 265.695 662.685 262.01C662.67 258.31 665.598 255.374 669.324 255.36H669.309Z" fill="#E31E24"/>
<path d="M637.9 224.56C641.641 224.487 644.672 227.349 644.716 231.005C644.761 234.675 641.907 237.655 638.27 237.729C634.529 237.802 631.498 234.939 631.454 231.284C631.409 227.614 634.263 224.634 637.9 224.56Z" fill="#E31E24"/>
<path d="M747.253 191.206C743.528 191.221 740.57 188.3 740.57 184.615C740.57 180.974 743.483 178.053 747.15 178.038C750.876 178.023 753.833 180.93 753.833 184.63C753.833 188.27 750.92 191.192 747.253 191.206Z" fill="#E31E24"/>
<path d="M715.956 160.407C712.289 160.407 709.347 157.5 709.332 153.86C709.332 150.16 712.26 147.239 715.971 147.239C719.638 147.239 722.58 150.145 722.595 153.786C722.595 157.486 719.667 160.407 715.956 160.407Z" fill="#E31E24"/>
<path d="M638.066 191.193C634.414 191.193 631.472 188.257 631.472 184.616C631.472 180.99 634.414 178.054 638.066 178.054C641.733 178.054 644.69 180.96 644.705 184.572C644.72 188.257 641.763 191.193 638.066 191.193Z" fill="#E31E24"/>
<path d="M669.25 160.376C665.612 160.346 662.685 157.41 662.7 153.77C662.7 150.144 665.672 147.237 669.338 147.252C672.99 147.252 675.933 150.188 675.933 153.814C675.933 157.484 672.961 160.405 669.25 160.39V160.376Z" fill="#E31E24"/>
<path d="M747.198 240.104C750.688 240.104 753.586 242.923 753.6 246.388C753.63 249.896 750.747 252.788 747.213 252.803C743.724 252.803 740.826 249.984 740.811 246.52C740.781 243.011 743.665 240.119 747.198 240.104Z" fill="#E31E24"/>
<path d="M731.543 255.609C735.047 255.594 737.945 258.398 737.99 261.863C738.034 265.386 735.166 268.293 731.647 268.307C728.143 268.322 725.245 265.518 725.2 262.054C725.156 258.53 728.024 255.624 731.543 255.609Z" fill="#E31E24"/>
<path d="M638.065 240.314C641.584 240.314 644.497 243.221 644.468 246.7C644.438 250.164 641.525 252.998 638.051 252.983C634.576 252.968 631.693 250.091 631.708 246.641C631.708 243.191 634.591 240.329 638.065 240.314Z" fill="#E31E24"/>
<path d="M731.602 160.157C728.127 160.157 725.229 157.309 725.215 153.86C725.2 150.41 728.054 147.532 731.543 147.488C735.017 147.459 737.93 150.278 737.989 153.742C738.048 157.221 735.136 160.157 731.617 160.157H731.602Z" fill="#E31E24"/>
<path d="M747.262 175.662C743.743 175.691 740.815 172.784 740.83 169.305C740.845 165.855 743.728 162.993 747.217 162.993C750.692 162.993 753.575 165.855 753.59 169.305C753.59 172.755 750.736 175.632 747.262 175.662Z" fill="#E31E24"/>
<path d="M653.692 255.623C657.167 255.623 660.065 258.456 660.094 261.921C660.124 265.371 657.256 268.263 653.781 268.292C650.262 268.336 647.335 265.444 647.335 261.95C647.335 258.5 650.218 255.638 653.707 255.623H653.692Z" fill="#E31E24"/>
<path d="M638.081 175.632C634.606 175.632 631.708 172.74 631.723 169.291C631.738 165.826 634.665 162.963 638.125 163.007C641.615 163.051 644.498 165.958 644.439 169.393C644.379 172.828 641.526 175.632 638.081 175.632Z" fill="#E31E24"/>
<path d="M653.829 160.129C650.414 160.217 647.516 157.487 647.353 154.007C647.205 150.602 650.015 147.636 653.534 147.504C656.979 147.372 659.95 150.176 660.069 153.67C660.187 157.09 657.348 160.026 653.829 160.129Z" fill="#E31E24"/>
<path d="M700.446 271.273C703.92 271.228 706.73 273.915 706.774 277.335C706.818 280.829 704.083 283.633 700.594 283.648C697.119 283.663 694.339 280.962 694.31 277.541C694.28 274.091 697.001 271.317 700.431 271.273H700.446Z" fill="#E31E24"/>
<path d="M684.821 271.274C688.34 271.23 691.149 273.946 691.164 277.41C691.179 280.86 688.458 283.62 684.998 283.635C681.524 283.664 678.729 280.963 678.7 277.542C678.67 274.093 681.376 271.303 684.806 271.259L684.821 271.274Z" fill="#E31E24"/>
<path d="M762.734 193.952C766.209 193.923 769.003 196.61 769.047 200.03C769.092 203.524 766.342 206.313 762.852 206.328C759.378 206.328 756.613 203.627 756.583 200.206C756.568 196.756 759.289 193.996 762.734 193.967V193.952Z" fill="#E31E24"/>
<path d="M762.779 209.455C766.253 209.455 769.018 212.156 769.048 215.577C769.077 219.027 766.357 221.787 762.897 221.831C759.378 221.86 756.583 219.129 756.583 215.65C756.583 212.215 759.319 209.47 762.779 209.455Z" fill="#E31E24"/>
<path d="M622.734 209.47C626.135 209.484 628.885 212.244 628.885 215.621C628.885 219.056 626.12 221.816 622.66 221.801C619.2 221.801 616.45 219.027 616.45 215.592C616.45 212.171 619.259 209.44 622.719 209.455L622.734 209.47Z" fill="#E31E24"/>
<path d="M700.359 144.48C696.899 144.48 694.134 141.72 694.134 138.285C694.134 134.864 696.928 132.119 700.388 132.134C703.789 132.149 706.554 134.894 706.554 138.27C706.554 141.705 703.804 144.465 700.344 144.465L700.359 144.48Z" fill="#E31E24"/>
<path d="M622.499 193.979C625.884 193.979 628.664 196.754 628.664 200.115C628.664 203.521 625.87 206.311 622.439 206.296C619.054 206.296 616.274 203.521 616.274 200.159C616.274 196.754 619.068 193.964 622.499 193.979Z" fill="#E31E24"/>
<path d="M684.979 144.465C681.534 144.48 678.725 141.72 678.725 138.299C678.725 134.937 681.49 132.163 684.876 132.148C688.321 132.133 691.13 134.893 691.13 138.314C691.13 141.676 688.365 144.45 684.979 144.465Z" fill="#E31E24"/>
<path d="M669.325 271.375C672.711 271.375 675.52 274.194 675.461 277.541C675.402 280.888 672.607 283.604 669.281 283.56C665.91 283.516 663.174 280.771 663.189 277.438C663.204 274.106 665.969 271.375 669.325 271.375Z" fill="#E31E24"/>
<path d="M762.765 225.058C766.092 225.014 768.887 227.715 768.96 231.062C769.034 234.395 766.225 237.228 762.839 237.243C759.498 237.243 756.718 234.527 756.689 231.18C756.659 227.862 759.394 225.102 762.765 225.058Z" fill="#E31E24"/>
<path d="M715.956 271.375C719.298 271.375 722.078 274.091 722.107 277.438C722.137 280.756 719.401 283.516 716.03 283.56C712.659 283.619 709.82 280.815 709.835 277.453C709.835 274.121 712.6 271.39 715.956 271.375Z" fill="#E31E24"/>
<path d="M622.628 225.105C625.999 225.075 628.734 227.762 628.749 231.109C628.778 234.456 626.073 237.172 622.687 237.187C619.316 237.216 616.58 234.53 616.566 231.168C616.536 227.821 619.242 225.105 622.613 225.09L622.628 225.105Z" fill="#E31E24"/>
<path d="M762.855 190.679C759.484 190.693 756.748 188.022 756.734 184.66C756.719 181.313 759.41 178.597 762.796 178.582C766.167 178.567 768.902 181.239 768.917 184.601C768.932 187.948 766.241 190.664 762.855 190.679Z" fill="#E31E24"/>
<path d="M622.437 190.65C619.08 190.635 616.419 187.993 616.419 184.646C616.419 181.269 619.11 178.597 622.511 178.612C625.867 178.627 628.528 181.269 628.528 184.616C628.528 187.993 625.837 190.664 622.437 190.65Z" fill="#E31E24"/>
<path d="M716.055 144.318C712.639 144.362 709.934 141.719 709.919 138.343C709.904 134.996 712.536 132.339 715.892 132.294C719.308 132.25 722.013 134.893 722.028 138.269C722.043 141.617 719.411 144.274 716.055 144.318Z" fill="#E31E24"/>
<path d="M669.291 144.316C665.935 144.302 663.274 141.659 663.274 138.312C663.274 134.936 665.964 132.264 669.365 132.278C672.721 132.293 675.383 134.936 675.383 138.283C675.383 141.659 672.692 144.331 669.291 144.316Z" fill="#E31E24"/>
<path d="M747.062 256.007C750.418 255.948 753.168 258.59 753.198 261.908C753.228 265.182 750.566 267.898 747.284 267.927C743.972 267.971 741.237 265.343 741.192 262.084C741.148 258.796 743.78 256.08 747.062 256.007Z" fill="#E31E24"/>
<path d="M638.138 256.02C641.42 256.049 644.111 258.765 644.082 262.01C644.052 265.269 641.317 267.94 638.049 267.911C634.767 267.882 632.076 265.166 632.106 261.922C632.135 258.662 634.87 255.991 638.138 256.02Z" fill="#E31E24"/>
<path d="M747.17 159.759C743.887 159.744 741.196 157.043 741.211 153.784C741.226 150.525 743.947 147.853 747.229 147.868C750.511 147.882 753.202 150.584 753.187 153.843C753.173 157.102 750.452 159.774 747.17 159.759Z" fill="#E31E24"/>
<path d="M638.1 159.733C634.862 159.733 632.172 157.106 632.127 153.876C632.083 150.646 634.803 147.901 638.086 147.886C641.324 147.886 644.015 150.514 644.059 153.744C644.103 156.973 641.383 159.719 638.1 159.733Z" fill="#E31E24"/>
<path d="M653.515 271.655C656.841 271.567 659.503 274.092 659.562 277.351C659.606 280.595 657.093 283.209 653.84 283.267C650.558 283.326 647.926 280.845 647.852 277.615C647.778 274.356 650.277 271.728 653.515 271.64V271.655Z" fill="#E31E24"/>
<path d="M731.538 271.656C734.805 271.627 737.408 274.152 737.452 277.396C737.481 280.685 734.909 283.283 731.597 283.283C728.329 283.283 725.757 280.743 725.742 277.499C725.742 274.255 728.285 271.686 731.538 271.656Z" fill="#E31E24"/>
<path d="M762.75 240.636C766.062 240.607 768.679 243.176 768.679 246.449C768.679 249.694 766.106 252.248 762.838 252.248C759.571 252.248 756.983 249.708 756.969 246.479C756.954 243.234 759.497 240.651 762.75 240.621V240.636Z" fill="#E31E24"/>
<path d="M762.662 174.943C759.35 174.957 756.748 172.373 756.763 169.1C756.777 165.87 759.365 163.316 762.618 163.316C765.885 163.316 768.458 165.87 768.458 169.114C768.458 172.359 765.9 174.928 762.647 174.943H762.662Z" fill="#E31E24"/>
<path d="M731.554 144.099C728.301 144.099 725.743 141.515 725.758 138.271C725.758 135.041 728.36 132.502 731.628 132.516C734.881 132.516 737.439 135.1 737.424 138.345C737.424 141.574 734.822 144.114 731.554 144.099Z" fill="#E31E24"/>
<path d="M622.66 240.872C625.913 240.872 628.5 243.412 628.5 246.641C628.5 249.871 625.942 252.44 622.689 252.44C619.437 252.44 616.849 249.9 616.849 246.671C616.849 243.441 619.407 240.872 622.66 240.872Z" fill="#E31E24"/>
<path d="M653.781 144.084C650.528 144.113 647.896 141.559 647.896 138.344C647.896 135.158 650.439 132.574 653.633 132.545C656.886 132.516 659.518 135.07 659.518 138.285C659.518 141.471 656.974 144.054 653.781 144.084Z" fill="#E31E24"/>
<path d="M622.581 175.089C619.313 175.133 616.667 172.593 616.652 169.393C616.622 166.192 619.165 163.594 622.344 163.55C625.612 163.506 628.258 166.046 628.273 169.246C628.303 172.446 625.76 175.045 622.581 175.089Z" fill="#E31E24"/>
<path d="M684.935 287.393C688.04 287.393 690.539 289.844 690.568 292.913C690.583 296.054 688.099 298.55 684.95 298.55C681.845 298.55 679.346 296.098 679.317 293.03C679.302 289.888 681.786 287.393 684.935 287.393Z" fill="#E31E24"/>
<path d="M700.549 287.393C703.654 287.393 706.153 289.844 706.168 292.927C706.183 296.069 703.699 298.565 700.549 298.565C697.444 298.565 694.946 296.113 694.931 293.03C694.916 289.888 697.4 287.393 700.549 287.393Z" fill="#E31E24"/>
<path d="M778.244 194.553C781.349 194.553 783.848 197.019 783.848 200.102C783.848 203.244 781.364 205.724 778.214 205.724C775.109 205.724 772.611 203.258 772.611 200.175C772.611 197.034 775.095 194.553 778.244 194.553Z" fill="#E31E24"/>
<path d="M778.229 210.057C781.334 210.057 783.833 212.509 783.848 215.592C783.862 218.733 781.378 221.229 778.229 221.229C775.124 221.229 772.625 218.777 772.611 215.694C772.596 212.553 775.08 210.057 778.229 210.057Z" fill="#E31E24"/>
<path d="M607.044 210.07C610.134 210.07 612.647 212.536 612.662 215.605C612.662 218.673 610.193 221.183 607.118 221.198C603.983 221.227 601.44 218.731 601.455 215.619C601.455 212.551 603.968 210.07 607.058 210.07H607.044Z" fill="#E31E24"/>
<path d="M606.97 194.567C610.119 194.538 612.662 197.019 612.662 200.116C612.662 203.185 610.178 205.68 607.088 205.695C603.998 205.695 601.47 203.243 601.455 200.19C601.425 197.107 603.909 194.597 606.97 194.567Z" fill="#E31E24"/>
<path d="M684.921 128.374C681.831 128.374 679.332 125.878 679.332 122.81C679.332 119.742 681.816 117.246 684.907 117.231C687.997 117.231 690.525 119.683 690.54 122.737C690.569 125.849 688.056 128.374 684.921 128.359V128.374Z" fill="#E31E24"/>
<path d="M700.358 128.374C697.224 128.374 694.71 125.864 694.74 122.737C694.769 119.683 697.283 117.217 700.388 117.232C703.463 117.246 705.962 119.742 705.947 122.81C705.947 125.878 703.434 128.359 700.358 128.359V128.374Z" fill="#E31E24"/>
<path d="M762.593 159.32C759.562 159.29 757.063 156.795 757.078 153.8C757.108 150.79 759.621 148.309 762.637 148.324C765.668 148.353 768.167 150.849 768.152 153.844C768.123 156.853 765.609 159.334 762.593 159.32Z" fill="#E31E24"/>
<path d="M762.767 256.462C765.783 256.418 768.312 258.884 768.356 261.909C768.4 264.903 765.916 267.414 762.87 267.458C759.854 267.502 757.326 265.036 757.282 262.011C757.237 259.017 759.721 256.506 762.767 256.462Z" fill="#E31E24"/>
<path d="M669.323 287.466C672.354 287.466 674.867 289.962 674.867 292.957C674.867 295.966 672.354 298.462 669.337 298.462C666.306 298.462 663.793 295.966 663.793 292.971C663.793 289.962 666.306 287.466 669.323 287.466Z" fill="#E31E24"/>
<path d="M715.953 287.466C718.97 287.452 721.498 289.933 721.513 292.942C721.527 295.937 719.029 298.447 715.998 298.462C712.981 298.477 710.453 295.996 710.438 292.986C710.424 289.991 712.922 287.481 715.953 287.466Z" fill="#E31E24"/>
<path d="M778.28 190.136C775.264 190.166 772.735 187.685 772.706 184.675C772.676 181.68 775.175 179.17 778.206 179.141C781.222 179.111 783.75 181.592 783.78 184.602C783.81 187.597 781.311 190.107 778.28 190.136Z" fill="#E31E24"/>
<path d="M778.259 225.647C781.29 225.676 783.789 228.172 783.774 231.167C783.745 234.176 781.231 236.657 778.215 236.642C775.184 236.613 772.685 234.117 772.7 231.123C772.73 228.113 775.243 225.632 778.259 225.647Z" fill="#E31E24"/>
<path d="M747.215 271.962C750.246 271.962 752.76 274.458 752.745 277.467C752.745 280.477 750.232 282.972 747.201 282.958C744.169 282.958 741.656 280.462 741.671 277.452C741.671 274.443 744.184 271.947 747.215 271.962Z" fill="#E31E24"/>
<path d="M638.049 271.962C641.065 271.933 643.593 274.414 643.623 277.423C643.652 280.418 641.154 282.928 638.123 282.958C635.106 282.987 632.578 280.506 632.548 277.497C632.519 274.502 635.018 271.992 638.049 271.962Z" fill="#E31E24"/>
<path d="M622.542 256.508C625.559 256.42 628.043 258.754 628.161 261.778C628.279 264.802 625.884 267.327 622.809 267.416C619.792 267.504 617.308 265.169 617.19 262.145C617.072 259.121 619.467 256.596 622.542 256.508Z" fill="#E31E24"/>
<path d="M607.034 225.692C610.094 225.678 612.564 228.129 612.549 231.168C612.534 234.207 610.035 236.644 606.989 236.6C603.958 236.556 601.563 234.119 601.578 231.124C601.593 228.114 604.018 225.707 607.049 225.692H607.034Z" fill="#E31E24"/>
<path d="M622.481 159.234C619.435 159.234 617.025 156.856 617.025 153.832C617.025 150.807 619.42 148.415 622.466 148.415C625.512 148.415 627.922 150.793 627.922 153.817C627.922 156.841 625.527 159.234 622.481 159.234Z" fill="#E31E24"/>
<path d="M638.091 143.73C635.045 143.73 632.635 141.352 632.621 138.328C632.621 135.304 635.016 132.911 638.062 132.896C641.107 132.896 643.517 135.274 643.532 138.298C643.532 141.323 641.137 143.715 638.091 143.73Z" fill="#E31E24"/>
<path d="M747.347 143.759C744.33 143.847 741.832 141.528 741.713 138.503C741.595 135.479 743.976 132.954 747.051 132.852C750.067 132.763 752.566 135.083 752.684 138.107C752.803 141.131 750.422 143.656 747.347 143.759Z" fill="#E31E24"/>
<path d="M716.16 128.259C713.115 128.376 710.572 126.013 710.483 122.959C710.394 119.964 712.73 117.483 715.776 117.366C718.822 117.248 721.365 119.612 721.454 122.665C721.542 125.66 719.206 128.141 716.16 128.259Z" fill="#E31E24"/>
<path d="M669.365 128.211C666.304 128.226 663.894 125.863 663.865 122.838C663.85 119.8 666.23 117.407 669.276 117.377C672.337 117.363 674.747 119.726 674.776 122.75C674.791 125.789 672.411 128.182 669.365 128.211Z" fill="#E31E24"/>
<path d="M607.029 190.05C603.983 190.05 601.588 187.642 601.603 184.603C601.603 181.579 604.028 179.201 607.088 179.215C610.134 179.215 612.529 181.623 612.515 184.662C612.515 187.686 610.09 190.064 607.029 190.05Z" fill="#E31E24"/>
<path d="M778.19 241.15C781.103 241.106 783.557 243.529 783.587 246.435C783.602 249.327 781.162 251.764 778.235 251.764C775.307 251.764 772.867 249.327 772.897 246.435C772.927 243.558 775.292 241.195 778.19 241.15Z" fill="#E31E24"/>
<path d="M731.513 287.716C734.455 287.672 736.865 290.021 736.88 292.957C736.895 295.849 734.573 298.198 731.661 298.242C728.718 298.286 726.308 295.937 726.293 293.001C726.279 290.109 728.6 287.76 731.513 287.716Z" fill="#E31E24"/>
<path d="M653.742 287.715C656.699 287.744 659.065 290.137 659.006 293.059C658.947 295.966 656.581 298.256 653.668 298.226C650.741 298.197 648.419 295.877 648.405 292.971C648.405 290.035 650.785 287.671 653.742 287.7V287.715Z" fill="#E31E24"/>
<path d="M606.958 241.43C609.915 241.386 612.266 243.646 612.31 246.553C612.354 249.489 610.077 251.823 607.15 251.867C604.193 251.911 601.842 249.651 601.797 246.744C601.753 243.808 604.03 241.474 606.958 241.43Z" fill="#E31E24"/>
<path d="M607.017 174.545C604.075 174.531 601.783 172.211 601.798 169.29C601.813 166.368 604.149 164.093 607.091 164.107C610.034 164.122 612.325 166.442 612.31 169.363C612.296 172.284 609.96 174.56 607.017 174.545Z" fill="#E31E24"/>
<path d="M778.16 174.382C775.232 174.323 772.926 171.989 772.941 169.097C772.956 166.19 775.292 163.886 778.219 163.871C781.176 163.856 783.557 166.234 783.542 169.156C783.527 172.092 781.117 174.441 778.16 174.382Z" fill="#E31E24"/>
<path d="M731.552 128.023C728.61 128.009 726.318 125.689 726.333 122.768C726.348 119.846 728.684 117.571 731.626 117.586C734.569 117.6 736.86 119.92 736.846 122.841C736.831 125.762 734.495 128.038 731.552 128.023Z" fill="#E31E24"/>
<path d="M653.723 127.993C650.825 127.993 648.504 125.732 648.474 122.869C648.445 119.933 650.751 117.614 653.679 117.614C656.577 117.614 658.898 119.875 658.927 122.737C658.957 125.673 656.65 127.993 653.723 127.993Z" fill="#E31E24"/>
<path d="M762.768 272.404C765.577 272.375 767.854 274.592 767.913 277.381C767.958 280.214 765.666 282.504 762.812 282.504C760.003 282.504 757.741 280.273 757.726 277.469C757.711 274.68 759.944 272.419 762.768 272.39V272.404Z" fill="#E31E24"/>
<path d="M762.661 143.318C759.823 143.332 757.575 141.145 757.56 138.326C757.56 135.508 759.778 133.291 762.617 133.291C765.411 133.291 767.629 135.464 767.659 138.238C767.688 141.072 765.485 143.303 762.647 143.318H762.661Z" fill="#E31E24"/>
<path d="M622.643 272.448C625.482 272.448 627.729 274.635 627.729 277.454C627.729 280.228 625.556 282.445 622.762 282.474C619.908 282.504 617.661 280.331 617.631 277.512C617.601 274.694 619.819 272.448 622.643 272.448Z" fill="#E31E24"/>
<path d="M622.526 143.305C619.688 143.32 617.44 141.118 617.44 138.299C617.44 135.524 619.658 133.322 622.452 133.322C625.247 133.322 627.479 135.51 627.479 138.284C627.479 141.059 625.291 143.29 622.512 143.305H622.526Z" fill="#E31E24"/>
<path d="M778.235 256.989C781.014 256.989 783.247 259.22 783.247 261.98C783.247 264.74 780.985 266.942 778.19 266.928C775.411 266.913 773.208 264.652 773.237 261.878C773.267 259.162 775.499 256.974 778.235 256.974V256.989Z" fill="#E31E24"/>
<path d="M747.239 287.995C749.974 288.01 752.192 290.212 752.207 292.928C752.222 295.702 749.989 297.934 747.209 297.934C744.43 297.934 742.182 295.717 742.182 292.957C742.182 290.197 744.445 287.98 747.224 287.995H747.239Z" fill="#E31E24"/>
<path d="M700.606 303.526C703.327 303.556 705.56 305.802 705.545 308.503C705.545 311.204 703.283 313.436 700.562 313.436C697.797 313.436 695.535 311.146 695.565 308.415C695.609 305.714 697.886 303.512 700.606 303.526Z" fill="#E31E24"/>
<path d="M684.876 303.527C687.597 303.497 689.874 305.699 689.933 308.401C689.977 311.131 687.715 313.436 684.95 313.436C682.23 313.436 679.968 311.219 679.953 308.518C679.938 305.817 682.156 303.556 684.876 303.527Z" fill="#E31E24"/>
<path d="M793.894 195.183C796.614 195.213 798.847 197.459 798.847 200.16C798.847 202.861 796.585 205.093 793.864 205.093C791.099 205.093 788.822 202.817 788.866 200.072C788.896 197.371 791.173 195.154 793.894 195.183Z" fill="#E31E24"/>
<path d="M778.232 158.78C775.512 158.78 773.264 156.549 773.25 153.848C773.25 151.146 775.482 148.9 778.203 148.871C780.923 148.842 783.2 151.058 783.23 153.759C783.274 156.49 780.982 158.78 778.232 158.78Z" fill="#E31E24"/>
<path d="M606.972 257.003C609.693 256.959 611.985 259.147 612.044 261.848C612.103 264.549 609.915 266.839 607.194 266.913C604.444 266.986 602.108 264.755 602.064 262.024C602.034 259.323 604.252 257.062 606.972 257.003Z" fill="#E31E24"/>
<path d="M638.072 288.023C640.793 288.023 643.055 290.24 643.085 292.941C643.114 295.642 640.882 297.903 638.161 297.932C635.411 297.976 633.104 295.716 633.104 292.97C633.104 290.269 635.352 288.038 638.072 288.023Z" fill="#E31E24"/>
<path d="M793.864 210.688C796.585 210.688 798.832 212.919 798.847 215.62C798.847 218.365 796.57 220.626 793.805 220.597C791.084 220.567 788.852 218.321 788.866 215.62C788.881 212.919 791.143 210.688 793.864 210.688Z" fill="#E31E24"/>
<path d="M607.034 158.748C604.313 158.734 602.051 156.443 602.096 153.772C602.14 151.115 604.358 148.912 607.034 148.898C609.74 148.883 612.017 151.144 612.017 153.83C612.017 156.517 609.725 158.778 607.019 158.763L607.034 158.748Z" fill="#E31E24"/>
<path d="M591.415 195.199C594.091 195.199 596.324 197.371 596.398 200.043C596.472 202.715 594.224 205.02 591.504 205.064C588.813 205.108 586.506 202.877 586.477 200.175C586.447 197.489 588.709 195.213 591.43 195.199H591.415Z" fill="#E31E24"/>
<path d="M591.457 210.716C594.134 210.716 596.366 212.918 596.41 215.59C596.455 218.262 594.193 220.552 591.472 220.581C588.766 220.61 586.475 218.35 586.475 215.663C586.475 212.977 588.752 210.716 591.457 210.73V210.716Z" fill="#E31E24"/>
<path d="M638.08 127.728C635.359 127.728 633.097 125.453 633.127 122.766C633.156 120.065 635.448 117.834 638.154 117.878C640.845 117.922 643.048 120.139 643.062 122.796C643.062 125.482 640.786 127.743 638.095 127.743L638.08 127.728Z" fill="#E31E24"/>
<path d="M684.97 112.227C682.265 112.257 679.973 109.996 679.973 107.309C679.973 104.652 682.161 102.435 684.852 102.377C687.543 102.318 689.85 104.549 689.894 107.251C689.938 109.922 687.676 112.212 684.956 112.242L684.97 112.227Z" fill="#E31E24"/>
<path d="M700.418 112.227C697.713 112.271 695.421 110.024 695.391 107.323C695.362 104.637 697.639 102.361 700.345 102.361C703.05 102.361 705.327 104.622 705.312 107.309C705.312 109.966 703.095 112.182 700.404 112.227H700.418Z" fill="#E31E24"/>
<path d="M747.228 127.729C744.523 127.729 742.246 125.483 742.246 122.796C742.246 120.139 744.449 117.922 747.14 117.878C749.831 117.82 752.137 120.066 752.167 122.767C752.196 125.453 749.934 127.729 747.228 127.744V127.729Z" fill="#E31E24"/>
<path d="M716.006 303.644C718.696 303.644 720.826 305.758 720.855 308.43C720.885 311.146 718.741 313.304 716.006 313.319C713.27 313.319 711.112 311.19 711.112 308.474C711.112 305.758 713.27 303.63 716.006 303.63V303.644Z" fill="#E31E24"/>
<path d="M669.204 303.644C671.939 303.586 674.142 305.685 674.187 308.386C674.231 311.058 672.161 313.231 669.485 313.304C666.75 313.392 664.517 311.322 664.443 308.606C664.369 305.89 666.469 303.688 669.204 303.63V303.644Z" fill="#E31E24"/>
<path d="M794.012 189.461C791.277 189.534 789.059 187.464 788.985 184.748C788.911 182.032 791.026 179.845 793.746 179.786C796.437 179.727 798.625 181.783 798.714 184.44C798.803 187.156 796.718 189.372 793.998 189.446L794.012 189.461Z" fill="#E31E24"/>
<path d="M793.828 226.308C796.563 226.308 798.722 228.437 798.722 231.153C798.722 233.869 796.548 235.997 793.813 235.983C791.122 235.968 788.993 233.869 788.963 231.197C788.934 228.481 791.078 226.323 793.813 226.308H793.828Z" fill="#E31E24"/>
<path d="M591.42 189.432C588.714 189.432 586.6 187.318 586.6 184.631C586.6 181.945 588.714 179.831 591.405 179.816C594.111 179.816 596.254 181.886 596.269 184.558C596.299 187.288 594.155 189.432 591.42 189.417V189.432Z" fill="#E31E24"/>
<path d="M715.94 112.111C713.249 112.111 711.135 109.983 711.135 107.296C711.135 104.61 713.264 102.51 715.955 102.51C718.661 102.51 720.79 104.595 720.805 107.281C720.819 110.012 718.676 112.141 715.925 112.126L715.94 112.111Z" fill="#E31E24"/>
<path d="M591.372 226.337C594.078 226.308 596.237 228.378 596.281 231.049C596.311 233.78 594.196 235.938 591.461 235.938C588.755 235.938 586.626 233.853 586.611 231.181C586.596 228.495 588.696 226.366 591.387 226.337H591.372Z" fill="#E31E24"/>
<path d="M669.262 112.082C666.601 112.052 664.486 109.909 664.516 107.237C664.546 104.595 666.704 102.495 669.395 102.525C672.057 102.554 674.171 104.697 674.141 107.369C674.112 110.012 671.953 112.111 669.262 112.082Z" fill="#E31E24"/>
<path d="M731.596 303.821C734.184 303.821 736.239 305.847 736.283 308.401C736.328 311 734.258 313.099 731.641 313.128C729.024 313.158 726.924 311.088 726.91 308.489C726.91 305.891 728.994 303.806 731.611 303.821H731.596Z" fill="#E31E24"/>
<path d="M653.711 303.821C656.284 303.821 658.354 305.847 658.383 308.416C658.427 311.014 656.357 313.113 653.74 313.143C651.123 313.172 649.024 311.102 649.009 308.504C649.009 305.905 651.094 303.821 653.711 303.835V303.821Z" fill="#E31E24"/>
<path d="M793.842 241.794C796.414 241.794 798.484 243.806 798.529 246.375C798.573 248.973 796.518 251.072 793.901 251.102C791.284 251.131 789.169 249.076 789.155 246.477C789.14 243.879 791.225 241.794 793.842 241.794Z" fill="#E31E24"/>
<path d="M731.617 111.918C729.014 111.918 726.974 109.922 726.944 107.352C726.93 104.769 728.94 102.728 731.528 102.699C734.13 102.669 736.2 104.651 736.244 107.22C736.289 109.848 734.248 111.918 731.617 111.933V111.918Z" fill="#E31E24"/>
<path d="M793.787 173.735C791.2 173.706 789.189 171.665 789.204 169.081C789.219 166.512 791.274 164.501 793.861 164.501C796.449 164.501 798.489 166.527 798.489 169.111C798.489 171.724 796.419 173.765 793.773 173.735H793.787Z" fill="#E31E24"/>
<path d="M591.46 242.046C594.048 242.046 596.088 244.086 596.088 246.655C596.088 249.224 594.062 251.265 591.46 251.265C588.828 251.265 586.773 249.224 586.788 246.597C586.803 244.028 588.858 242.016 591.46 242.031V242.046Z" fill="#E31E24"/>
<path d="M653.826 111.888C651.224 111.932 649.125 109.95 649.08 107.396C649.051 104.812 651.062 102.742 653.634 102.713C656.236 102.684 658.306 104.695 658.321 107.249C658.336 109.789 656.34 111.844 653.826 111.888Z" fill="#E31E24"/>
<path d="M591.489 173.913C588.887 173.928 586.832 171.917 586.817 169.347C586.817 166.778 588.842 164.738 591.43 164.738C594.017 164.738 596.058 166.778 596.043 169.347C596.043 171.872 594.003 173.898 591.474 173.913H591.489Z" fill="#E31E24"/>
<path d="M762.837 288.404C765.351 288.404 767.406 290.46 767.421 292.955C767.421 295.495 765.351 297.565 762.793 297.55C760.28 297.55 758.224 295.495 758.21 292.999C758.21 290.46 760.28 288.39 762.837 288.404Z" fill="#E31E24"/>
<path d="M622.662 288.404C625.176 288.404 627.246 290.415 627.275 292.911C627.305 295.451 625.249 297.535 622.692 297.55C620.178 297.55 618.108 295.539 618.079 293.043C618.049 290.504 620.104 288.419 622.662 288.404Z" fill="#E31E24"/>
<path d="M778.217 272.887C780.775 272.887 782.859 274.942 782.845 277.482C782.845 279.978 780.775 282.018 778.261 282.033C775.703 282.033 773.619 279.978 773.633 277.438C773.633 274.942 775.703 272.902 778.217 272.887Z" fill="#E31E24"/>
<path d="M607.086 272.919C609.584 272.948 611.654 275.032 611.625 277.499C611.595 279.98 609.496 282.035 607.012 282.006C604.513 281.976 602.443 279.892 602.472 277.425C602.502 274.944 604.602 272.889 607.086 272.919Z" fill="#E31E24"/>
<path d="M762.608 127.346C760.109 127.331 758.039 125.246 758.054 122.78C758.069 120.299 760.168 118.244 762.652 118.258C765.151 118.273 767.221 120.358 767.206 122.824C767.191 125.305 765.092 127.36 762.608 127.346Z" fill="#E31E24"/>
<path d="M778.203 142.863C775.704 142.834 773.634 140.749 773.664 138.283C773.693 135.802 775.793 133.747 778.277 133.776C780.776 133.805 782.846 135.89 782.816 138.356C782.787 140.837 780.687 142.892 778.203 142.863Z" fill="#E31E24"/>
<path d="M622.407 127.32C619.923 127.261 617.898 125.206 617.927 122.769C617.957 120.317 620.027 118.276 622.496 118.291C624.965 118.291 627.021 120.346 627.021 122.798C627.021 125.279 624.891 127.378 622.407 127.32Z" fill="#E31E24"/>
<path d="M607.027 142.82C604.558 142.82 602.503 140.765 602.503 138.313C602.503 135.862 604.543 133.821 607.012 133.792C609.467 133.762 611.552 135.788 611.596 138.254C611.64 140.721 609.526 142.835 607.027 142.82Z" fill="#E31E24"/>
<path d="M793.845 257.59C796.3 257.59 798.296 259.586 798.251 262.023C798.222 264.416 796.226 266.354 793.816 266.325C791.406 266.31 789.454 264.328 789.454 261.935C789.454 259.542 791.435 257.59 793.845 257.575V257.59Z" fill="#E31E24"/>
<path d="M793.89 158.191C791.479 158.191 789.483 156.268 789.454 153.875C789.424 151.482 791.376 149.486 793.771 149.457C796.181 149.413 798.207 151.336 798.251 153.729C798.296 156.165 796.329 158.191 793.875 158.206L793.89 158.191Z" fill="#E31E24"/>
<path d="M638.049 304.116C640.503 304.101 642.499 306.083 642.484 308.52C642.47 310.913 640.488 312.865 638.063 312.851C635.653 312.851 633.687 310.884 633.672 308.491C633.672 306.098 635.624 304.131 638.034 304.101L638.049 304.116Z" fill="#E31E24"/>
<path d="M747.167 304.116C749.577 304.101 751.573 306.024 751.618 308.417C751.647 310.81 749.711 312.807 747.315 312.851C744.861 312.895 742.835 310.928 742.82 308.491C742.82 306.098 744.772 304.131 747.182 304.101L747.167 304.116Z" fill="#E31E24"/>
<path d="M591.523 158.16C589.142 158.218 587.102 156.251 587.058 153.873C587.013 151.509 589.009 149.484 591.404 149.469C593.785 149.439 595.811 151.436 595.811 153.8C595.811 156.134 593.874 158.101 591.523 158.16Z" fill="#E31E24"/>
<path d="M747.199 111.639C744.803 111.639 742.807 109.628 742.837 107.264C742.866 104.93 744.818 102.978 747.169 102.948C749.549 102.919 751.575 104.901 751.59 107.279C751.59 109.657 749.594 111.654 747.199 111.639Z" fill="#E31E24"/>
<path d="M638.067 111.845C635.671 111.845 633.675 109.819 633.705 107.455C633.734 105.077 635.775 103.11 638.155 103.154C640.521 103.198 642.458 105.151 642.473 107.499C642.473 109.878 640.462 111.86 638.081 111.86L638.067 111.845Z" fill="#E31E24"/>
<path d="M591.387 257.607C593.767 257.577 595.793 259.544 595.822 261.923C595.837 264.257 593.915 266.224 591.549 266.297C589.169 266.371 587.128 264.404 587.069 262.025C587.025 259.662 588.991 257.636 591.401 257.607H591.387Z" fill="#E31E24"/>
<path d="M700.476 319.47C702.827 319.411 704.838 321.334 704.897 323.698C704.956 326.032 703.019 328.028 700.639 328.087C698.288 328.146 696.277 326.223 696.218 323.859C696.159 321.525 698.096 319.529 700.476 319.47Z" fill="#E31E24"/>
<path d="M684.979 319.469C687.36 319.498 689.311 321.495 689.282 323.829C689.252 326.192 687.241 328.13 684.891 328.101C682.51 328.072 680.558 326.075 680.588 323.741C680.618 321.377 682.628 319.439 684.979 319.469Z" fill="#E31E24"/>
<path d="M809.282 195.891C811.692 195.789 813.673 197.609 813.747 200.002C813.821 202.351 812.017 204.274 809.651 204.377C807.241 204.479 805.26 202.659 805.186 200.266C805.112 197.917 806.916 195.994 809.282 195.891Z" fill="#E31E24"/>
<path d="M809.355 211.393C811.72 211.334 813.657 213.125 813.746 215.489C813.835 217.882 811.986 219.834 809.576 219.893C807.211 219.952 805.274 218.161 805.185 215.797C805.096 213.404 806.945 211.452 809.355 211.393Z" fill="#E31E24"/>
<path d="M575.79 211.437C578.171 211.422 580.049 213.257 580.063 215.606C580.078 217.97 578.23 219.834 575.864 219.849C573.484 219.864 571.606 218.029 571.591 215.68C571.577 213.316 573.425 211.452 575.79 211.437Z" fill="#E31E24"/>
<path d="M575.79 195.92C578.171 195.905 580.049 197.74 580.063 200.089C580.078 202.453 578.23 204.317 575.864 204.332C573.484 204.346 571.606 202.511 571.591 200.162C571.577 197.799 573.425 195.934 575.79 195.92Z" fill="#E31E24"/>
<path d="M700.388 96.1939C698.007 96.2086 696.13 94.3736 696.115 92.0247C696.1 89.6612 697.948 87.7968 700.314 87.7821C702.694 87.7674 704.572 89.6024 704.587 91.9513C704.602 94.3148 702.753 96.1792 700.388 96.1939Z" fill="#E31E24"/>
<path d="M684.772 96.1938C682.391 96.1938 680.513 94.3735 680.499 92.0246C680.499 89.6611 682.332 87.7967 684.698 87.782C687.078 87.782 688.956 89.6023 688.971 91.9512C688.971 94.3147 687.137 96.1792 684.772 96.1938Z" fill="#E31E24"/>
<path d="M715.937 319.6C718.258 319.6 720.151 321.42 720.18 323.711C720.21 326.074 718.347 327.953 715.996 327.968C713.675 327.968 711.782 326.148 711.753 323.857C711.723 321.494 713.586 319.615 715.937 319.6Z" fill="#E31E24"/>
<path d="M669.367 319.6C671.688 319.615 673.536 321.479 673.536 323.784C673.536 326.133 671.644 327.983 669.278 327.968C666.957 327.953 665.108 326.089 665.108 323.784C665.108 321.435 667.001 319.586 669.367 319.6Z" fill="#E31E24"/>
<path d="M809.428 226.968C811.794 226.954 813.687 228.818 813.687 231.152C813.687 233.457 811.838 235.307 809.517 235.336C807.151 235.351 805.259 233.486 805.259 231.152C805.259 228.847 807.107 226.998 809.428 226.968Z" fill="#E31E24"/>
<path d="M716.015 96.1506C713.723 96.1799 711.801 94.3155 711.771 92.0254C711.742 89.7499 713.62 87.8415 715.926 87.8121C718.218 87.7827 720.14 89.6472 720.17 91.9373C720.199 94.2127 718.321 96.1212 716.015 96.1506Z" fill="#E31E24"/>
<path d="M809.489 188.8C807.197 188.8 805.29 186.935 805.275 184.66C805.275 182.385 807.153 180.491 809.444 180.476C811.736 180.476 813.643 182.34 813.658 184.616C813.658 186.891 811.78 188.785 809.489 188.8Z" fill="#E31E24"/>
<path d="M575.855 226.983C578.147 226.983 580.039 228.891 580.024 231.167C580.024 233.442 578.102 235.321 575.81 235.307C573.519 235.307 571.626 233.398 571.641 231.123C571.641 228.847 573.563 226.968 575.855 226.983Z" fill="#E31E24"/>
<path d="M575.821 188.77C573.529 188.77 571.592 186.818 571.651 184.557C571.696 182.311 573.618 180.461 575.865 180.491C578.127 180.52 580.005 182.414 579.99 184.645C579.975 186.877 578.083 188.756 575.821 188.756V188.77Z" fill="#E31E24"/>
<path d="M669.294 96.1367C667.047 96.1221 665.154 94.2283 665.154 91.9969C665.154 89.7655 667.047 87.8717 669.294 87.857C671.541 87.8423 673.449 89.7067 673.478 91.9382C673.508 94.1989 671.571 96.1367 669.294 96.1221V96.1367Z" fill="#E31E24"/>
<path d="M606.87 288.891C609.102 288.759 611.054 290.535 611.172 292.81C611.291 295.027 609.487 296.95 607.195 297.053C604.948 297.156 603.025 295.35 602.937 293.075C602.863 290.873 604.608 289.008 606.87 288.876V288.891Z" fill="#E31E24"/>
<path d="M778.232 288.876C780.494 288.876 782.372 290.741 782.357 292.987C782.343 295.248 780.45 297.083 778.188 297.053C775.911 297.024 774.063 295.13 774.122 292.884C774.181 290.653 776.014 288.862 778.247 288.862L778.232 288.876Z" fill="#E31E24"/>
<path d="M607.058 126.835C604.781 126.835 602.992 125.073 602.992 122.812C602.992 120.552 604.766 118.775 607.043 118.775C609.32 118.775 611.109 120.537 611.109 122.798C611.109 125.059 609.335 126.835 607.058 126.835Z" fill="#E31E24"/>
<path d="M778.214 126.835C775.937 126.835 774.163 125.044 774.178 122.783C774.178 120.522 775.981 118.761 778.258 118.775C780.535 118.775 782.31 120.566 782.295 122.827C782.295 125.088 780.491 126.85 778.214 126.835Z" fill="#E31E24"/>
<path d="M809.337 242.454C811.599 242.41 813.418 244.084 813.492 246.271C813.566 248.561 811.851 250.396 809.603 250.44C807.341 250.484 805.522 248.811 805.449 246.623C805.375 244.333 807.09 242.498 809.337 242.454Z" fill="#E31E24"/>
<path d="M762.81 304.482C765.087 304.482 766.861 306.259 766.832 308.52C766.817 310.736 765.043 312.469 762.81 312.469C760.533 312.469 758.759 310.692 758.788 308.431C758.803 306.215 760.577 304.482 762.81 304.482Z" fill="#E31E24"/>
<path d="M731.541 319.792C733.818 319.777 735.622 321.524 735.622 323.785C735.622 326.001 733.877 327.763 731.645 327.778C729.368 327.792 727.564 326.045 727.564 323.785C727.564 321.568 729.309 319.806 731.541 319.792Z" fill="#E31E24"/>
<path d="M793.818 273.475C796.095 273.475 797.884 275.222 797.884 277.483C797.884 279.699 796.124 281.446 793.892 281.461C791.615 281.461 789.826 279.714 789.826 277.453C789.826 275.236 791.585 273.49 793.818 273.475Z" fill="#E31E24"/>
<path d="M809.444 173.092C807.241 173.092 805.452 171.287 805.467 169.099C805.467 166.912 807.285 165.136 809.488 165.15C811.691 165.15 813.481 166.956 813.466 169.143C813.466 171.331 811.647 173.107 809.444 173.092Z" fill="#E31E24"/>
<path d="M653.706 319.807C655.909 319.807 657.698 321.598 657.698 323.8C657.698 325.988 655.894 327.764 653.677 327.764C651.474 327.764 649.685 325.973 649.685 323.771C649.685 321.583 651.488 319.807 653.706 319.807Z" fill="#E31E24"/>
<path d="M575.805 242.674C578.008 242.674 579.811 244.436 579.826 246.638C579.826 248.825 578.052 250.616 575.834 250.631C573.631 250.631 571.827 248.869 571.812 246.667C571.812 244.48 573.587 242.689 575.805 242.674Z" fill="#E31E24"/>
<path d="M793.893 142.292C791.675 142.307 789.871 140.545 789.842 138.358C789.827 136.156 791.601 134.365 793.804 134.335C796.022 134.321 797.826 136.082 797.855 138.27C797.87 140.472 796.096 142.263 793.893 142.292Z" fill="#E31E24"/>
<path d="M762.645 111.272C760.427 111.286 758.623 109.525 758.608 107.323C758.593 105.12 760.368 103.329 762.586 103.315C764.803 103.3 766.607 105.062 766.622 107.264C766.637 109.466 764.863 111.257 762.645 111.272Z" fill="#E31E24"/>
<path d="M622.659 304.511C624.862 304.511 626.666 306.287 626.681 308.474C626.681 310.662 624.892 312.453 622.689 312.467C620.486 312.467 618.682 310.691 618.667 308.504C618.667 306.316 620.456 304.525 622.659 304.511Z" fill="#E31E24"/>
<path d="M591.474 273.489C593.677 273.504 595.451 275.309 595.436 277.497C595.422 279.684 593.603 281.446 591.4 281.431C589.197 281.417 587.423 279.611 587.438 277.423C587.452 275.236 589.271 273.474 591.474 273.489Z" fill="#E31E24"/>
<path d="M591.474 142.263C589.345 142.293 587.511 140.546 587.452 138.402C587.393 136.244 589.197 134.395 591.385 134.365C593.514 134.336 595.348 136.083 595.407 138.226C595.466 140.384 593.662 142.234 591.474 142.263Z" fill="#E31E24"/>
<path d="M575.835 173.269C573.691 173.269 571.887 171.522 571.843 169.379C571.798 167.221 573.632 165.371 575.805 165.371C577.949 165.371 579.753 167.118 579.797 169.261C579.841 171.419 578.008 173.269 575.835 173.269Z" fill="#E31E24"/>
<path d="M622.465 111.448C620.321 111.448 618.517 109.672 618.487 107.543C618.458 105.385 620.291 103.55 622.465 103.55C624.609 103.55 626.412 105.326 626.442 107.455C626.472 109.613 624.638 111.448 622.465 111.448Z" fill="#E31E24"/>
<path d="M731.596 95.9478C729.452 95.9478 727.649 94.2009 727.604 92.0575C727.56 89.8995 729.378 88.0498 731.567 88.0498C733.711 88.0498 735.514 89.7968 735.559 91.9401C735.603 94.0981 733.785 95.9478 731.596 95.9478Z" fill="#E31E24"/>
<path d="M653.718 95.9469C651.574 95.9469 649.771 94.1999 649.726 92.0566C649.682 89.8986 651.501 88.0489 653.689 88.0342C655.833 88.0342 657.636 89.7811 657.681 91.9245C657.725 94.0825 655.907 95.9322 653.718 95.9469Z" fill="#E31E24"/>
<path d="M747.153 320.028C749.194 319.999 750.938 321.673 750.983 323.713C751.027 325.768 749.282 327.545 747.197 327.545C745.113 327.545 743.427 325.857 743.412 323.816C743.398 321.79 745.098 320.073 747.138 320.043L747.153 320.028Z" fill="#E31E24"/>
<path d="M575.863 258.254C577.874 258.283 579.53 259.942 579.559 261.939C579.574 263.965 577.859 265.682 575.819 265.682C573.778 265.682 572.063 263.965 572.078 261.953C572.093 259.928 573.838 258.225 575.863 258.254Z" fill="#E31E24"/>
<path d="M809.374 258.253C811.4 258.18 813.159 259.853 813.204 261.894C813.263 263.905 811.562 265.637 809.507 265.681C807.482 265.711 805.737 264.022 805.722 261.982C805.722 260 807.349 258.326 809.374 258.253Z" fill="#E31E24"/>
<path d="M637.997 320.071C640.022 319.998 641.782 321.671 641.826 323.712C641.871 325.723 640.17 327.455 638.13 327.485C636.104 327.514 634.36 325.826 634.345 323.785C634.345 321.803 635.971 320.13 637.997 320.056V320.071Z" fill="#E31E24"/>
<path d="M809.473 157.53C807.433 157.53 805.717 155.828 805.717 153.802C805.717 151.776 807.462 150.073 809.502 150.102C811.513 150.132 813.169 151.79 813.199 153.787C813.228 155.813 811.513 157.53 809.473 157.53Z" fill="#E31E24"/>
<path d="M747.183 95.6373C745.127 95.6373 743.516 94.0224 743.531 91.9819C743.531 89.9413 745.157 88.3411 747.212 88.3558C749.267 88.3558 750.879 89.9707 750.864 92.0112C750.864 94.0518 749.238 95.652 747.183 95.6373Z" fill="#E31E24"/>
<path d="M638.053 95.6378C635.998 95.6231 634.401 93.9936 634.416 91.953C634.431 89.9125 636.072 88.327 638.127 88.3417C640.183 88.3563 641.779 89.9859 641.765 92.0264C641.75 94.067 640.109 95.6525 638.053 95.6378Z" fill="#E31E24"/>
<path d="M575.79 157.456C573.735 157.441 572.138 155.826 572.153 153.786C572.167 151.745 573.794 150.159 575.849 150.174C577.904 150.189 579.501 151.804 579.486 153.844C579.471 155.885 577.845 157.47 575.79 157.456Z" fill="#E31E24"/>
<path d="M684.904 335.736C686.841 335.706 688.497 337.321 688.511 339.244C688.541 341.167 686.914 342.811 684.978 342.826C683.041 342.855 681.385 341.241 681.37 339.317C681.34 337.394 682.967 335.75 684.904 335.736Z" fill="#E31E24"/>
<path d="M700.579 335.735C702.516 335.75 704.143 337.394 704.128 339.317C704.113 341.24 702.457 342.855 700.52 342.84C698.583 342.826 696.957 341.182 696.972 339.258C696.986 337.335 698.642 335.721 700.579 335.735Z" fill="#E31E24"/>
<path d="M825.091 212.099C827.028 212.099 828.669 213.728 828.669 215.651C828.669 217.574 827.028 219.204 825.091 219.204C823.154 219.204 821.513 217.574 821.513 215.651C821.513 213.728 823.154 212.099 825.091 212.099Z" fill="#E31E24"/>
<path d="M825.061 196.582C826.998 196.552 828.654 198.167 828.669 200.09C828.698 202.013 827.072 203.658 825.135 203.672C823.198 203.702 821.542 202.087 821.527 200.164C821.498 198.241 823.124 196.596 825.061 196.582Z" fill="#E31E24"/>
<path d="M778.259 304.92C780.196 304.935 781.822 306.579 781.808 308.502C781.793 310.425 780.137 312.04 778.2 312.026C776.263 312.011 774.637 310.367 774.651 308.444C774.666 306.52 776.322 304.906 778.259 304.92Z" fill="#E31E24"/>
<path d="M793.872 289.421C795.809 289.421 797.436 291.066 797.436 292.989C797.436 294.912 795.78 296.527 793.843 296.527C791.906 296.527 790.279 294.883 790.279 292.959C790.279 291.036 791.935 289.407 793.872 289.421Z" fill="#E31E24"/>
<path d="M560.132 212.143C562.025 212.099 563.666 213.641 563.725 215.549C563.799 217.472 562.173 219.131 560.221 219.146C558.314 219.16 556.702 217.604 556.672 215.696C556.643 213.802 558.195 212.202 560.132 212.143Z" fill="#E31E24"/>
<path d="M607.019 304.981C608.926 304.952 610.538 306.523 610.582 308.431C610.626 310.354 608.985 311.999 607.034 311.984C605.112 311.984 603.529 310.384 603.529 308.49C603.529 306.596 605.112 304.996 607.019 304.981Z" fill="#E31E24"/>
<path d="M560.209 196.638C562.116 196.638 563.713 198.224 563.728 200.117C563.728 202.055 562.086 203.685 560.149 203.641C558.227 203.597 556.66 201.996 556.675 200.103C556.704 198.194 558.301 196.623 560.209 196.638Z" fill="#E31E24"/>
<path d="M778.333 110.802C776.396 110.876 774.726 109.261 774.711 107.323C774.711 105.429 776.278 103.829 778.2 103.8C780.108 103.77 781.719 105.326 781.778 107.235C781.823 109.114 780.27 110.744 778.348 110.802H778.333Z" fill="#E31E24"/>
<path d="M607.152 110.994C605.215 111.053 603.544 109.452 603.529 107.5C603.529 105.606 605.097 104.006 607.019 103.977C608.926 103.947 610.538 105.503 610.582 107.412C610.626 109.306 609.074 110.921 607.137 110.979L607.152 110.994Z" fill="#E31E24"/>
<path d="M700.309 79.9874C698.387 79.9581 696.805 78.3726 696.82 76.4641C696.82 74.5557 698.416 72.9849 700.338 72.9702C702.29 72.9702 703.917 74.6144 703.872 76.5375C703.828 78.446 702.216 80.0021 700.309 79.9727V79.9874Z" fill="#E31E24"/>
<path d="M684.773 79.9885C682.822 80.0178 681.18 78.3736 681.21 76.4505C681.24 74.5421 682.836 72.9713 684.744 72.9859C686.666 72.9859 688.248 74.5714 688.263 76.4799C688.263 78.3736 686.695 79.9738 684.773 79.9885Z" fill="#E31E24"/>
<path d="M793.872 126.306C791.964 126.321 790.353 124.75 790.323 122.856C790.294 120.933 791.935 119.289 793.886 119.304C795.809 119.318 797.391 120.919 797.391 122.812C797.391 124.706 795.809 126.292 793.886 126.306H793.872Z" fill="#E31E24"/>
<path d="M591.447 289.463C593.369 289.463 594.951 291.048 594.966 292.942C594.966 294.836 593.399 296.436 591.476 296.465C589.525 296.494 587.884 294.865 587.913 292.927C587.943 291.019 589.54 289.448 591.447 289.463Z" fill="#E31E24"/>
<path d="M591.509 126.231C589.542 126.26 588.005 124.777 587.975 122.84C587.96 120.887 589.454 119.375 591.405 119.36C593.327 119.36 594.836 120.799 594.88 122.693C594.924 124.645 593.446 126.187 591.494 126.216L591.509 126.231Z" fill="#E31E24"/>
<path d="M825.104 227.716C827.026 227.716 828.52 229.199 828.549 231.093C828.579 233.045 827.086 234.572 825.119 234.587C823.153 234.601 821.63 233.104 821.63 231.166C821.63 229.228 823.138 227.716 825.104 227.716Z" fill="#E31E24"/>
<path d="M669.337 335.853C671.259 335.853 672.752 337.321 672.782 339.229C672.811 341.182 671.318 342.708 669.366 342.723C667.4 342.738 665.877 341.24 665.862 339.302C665.862 337.365 667.37 335.853 669.337 335.853Z" fill="#E31E24"/>
<path d="M716.002 335.853C717.954 335.867 719.447 337.394 719.433 339.347C719.403 341.24 717.91 342.708 715.987 342.723C714.036 342.723 712.513 341.226 712.513 339.273C712.513 337.335 714.051 335.838 716.002 335.853Z" fill="#E31E24"/>
<path d="M715.943 79.8857C714.035 79.8857 712.542 78.3736 712.557 76.4652C712.557 74.5714 714.08 73.0887 716.002 73.1034C717.909 73.1034 719.402 74.6155 719.388 76.5239C719.388 78.4177 717.865 79.9004 715.943 79.8857Z" fill="#E31E24"/>
<path d="M560.175 227.746C562.097 227.746 563.605 229.214 563.62 231.123C563.62 233.031 562.142 234.528 560.219 234.543C558.297 234.543 556.789 233.075 556.774 231.167C556.774 229.258 558.253 227.761 560.175 227.746Z" fill="#E31E24"/>
<path d="M825.103 188.021C823.181 188.021 821.673 186.553 821.658 184.645C821.658 182.736 823.137 181.239 825.059 181.224C826.981 181.224 828.489 182.692 828.504 184.601C828.504 186.509 827.025 188.006 825.103 188.021Z" fill="#E31E24"/>
<path d="M809.476 274.091C811.324 274.091 812.862 275.603 812.877 277.438C812.892 279.303 811.324 280.859 809.432 280.829C807.584 280.8 806.076 279.273 806.09 277.438C806.09 275.603 807.643 274.091 809.476 274.091Z" fill="#E31E24"/>
<path d="M762.795 320.409C764.643 320.395 766.196 321.892 766.225 323.727C766.255 325.591 764.702 327.162 762.81 327.148C760.962 327.148 759.439 325.621 759.439 323.786C759.439 321.951 760.962 320.424 762.795 320.409Z" fill="#E31E24"/>
<path d="M560.206 188.198C558.358 188.198 556.82 186.686 556.805 184.851C556.79 183.016 558.298 181.489 560.147 181.46C562.024 181.43 563.606 182.986 563.592 184.851C563.592 186.686 562.039 188.198 560.206 188.198Z" fill="#E31E24"/>
<path d="M669.263 79.8558C667.415 79.8265 665.907 78.285 665.921 76.45C665.936 74.6149 667.474 73.1029 669.322 73.1175C671.17 73.1175 672.693 74.6443 672.708 76.4647C672.708 78.3291 671.141 79.8852 669.248 79.8558H669.263Z" fill="#E31E24"/>
<path d="M575.816 274.138C577.605 274.138 579.128 275.606 579.172 277.397C579.231 279.188 577.694 280.773 575.875 280.803C574.056 280.847 572.489 279.32 572.46 277.499C572.445 275.694 573.982 274.138 575.816 274.138Z" fill="#E31E24"/>
<path d="M622.658 320.453C624.477 320.453 626.044 321.995 626.029 323.801C626.029 325.577 624.536 327.074 622.732 327.118C620.913 327.162 619.331 325.636 619.317 323.815C619.287 322.01 620.825 320.453 622.658 320.439V320.453Z" fill="#E31E24"/>
<path d="M762.601 95.3296C760.768 95.3296 759.23 93.7588 759.26 91.9531C759.289 90.1328 760.872 88.606 762.69 88.6647C764.494 88.7088 765.973 90.2208 765.987 91.9972C765.987 93.8029 764.435 95.3443 762.616 95.3443L762.601 95.3296Z" fill="#E31E24"/>
<path d="M809.475 141.647C807.656 141.647 806.104 140.09 806.118 138.285C806.133 136.508 807.626 135.011 809.43 134.982C811.249 134.952 812.816 136.479 812.831 138.285C812.846 140.09 811.293 141.647 809.475 141.647Z" fill="#E31E24"/>
<path d="M575.941 141.571C574.138 141.63 572.644 140.294 572.541 138.503C572.437 136.668 573.798 135.141 575.646 135.053C577.494 134.965 579.017 136.33 579.091 138.165C579.179 140 577.775 141.498 575.927 141.571H575.941Z" fill="#E31E24"/>
<path d="M824.895 243.192C826.744 243.089 828.267 244.455 828.37 246.29C828.459 248.125 827.069 249.637 825.221 249.71C823.373 249.784 821.864 248.389 821.79 246.554C821.731 244.763 823.077 243.295 824.895 243.192Z" fill="#E31E24"/>
<path d="M622.643 95.2582C620.795 95.3463 619.272 93.981 619.198 92.146C619.11 90.3109 620.514 88.8135 622.362 88.7401C624.166 88.6814 625.66 90.0173 625.763 91.8083C625.867 93.6434 624.506 95.1701 622.658 95.2582H622.643Z" fill="#E31E24"/>
<path d="M731.406 336.031C733.254 335.928 734.777 337.293 734.881 339.128C734.969 340.963 733.58 342.476 731.731 342.549C729.883 342.622 728.375 341.228 728.301 339.393C728.242 337.602 729.588 336.134 731.406 336.031Z" fill="#E31E24"/>
<path d="M560.118 243.439C561.981 243.394 563.43 244.804 563.444 246.639C563.444 248.445 562.055 249.854 560.251 249.869C558.432 249.883 556.998 248.503 556.983 246.727C556.954 244.921 558.329 243.483 560.132 243.453L560.118 243.439Z" fill="#E31E24"/>
<path d="M825.087 172.33C823.283 172.33 821.864 170.935 821.864 169.129C821.864 167.324 823.254 165.914 825.057 165.9C826.906 165.885 828.34 167.294 828.34 169.144C828.34 170.935 826.906 172.33 825.102 172.33H825.087Z" fill="#E31E24"/>
<path d="M731.549 79.6961C729.746 79.6814 728.356 78.2721 728.356 76.4664C728.356 74.6754 729.775 73.2808 731.579 73.2661C733.427 73.2661 734.847 74.6901 734.817 76.5398C734.787 78.3308 733.368 79.6961 731.549 79.6814V79.6961Z" fill="#E31E24"/>
<path d="M653.635 336.074C655.454 336.045 656.903 337.41 656.933 339.186C656.977 341.036 655.572 342.475 653.724 342.49C651.905 342.49 650.486 341.11 650.471 339.319C650.457 337.513 651.832 336.089 653.635 336.06V336.074Z" fill="#E31E24"/>
<path d="M653.853 79.6653C652.064 79.7387 650.555 78.3588 650.496 76.5824C650.452 74.8355 651.812 73.3821 653.542 73.3087C655.331 73.2353 656.839 74.6153 656.898 76.3916C656.943 78.1385 655.582 79.5919 653.853 79.6653Z" fill="#E31E24"/>
<path d="M560.28 172.505C558.491 172.549 557.012 171.125 556.997 169.363C556.982 167.631 558.372 166.192 560.117 166.148C561.906 166.104 563.385 167.528 563.399 169.29C563.414 171.022 562.024 172.461 560.28 172.505Z" fill="#E31E24"/>
<path d="M825.059 258.973C826.715 258.973 828.06 260.25 828.09 261.88C828.134 263.553 826.803 264.933 825.118 264.948C823.462 264.948 822.116 263.671 822.087 262.041C822.042 260.368 823.373 258.988 825.059 258.973Z" fill="#E31E24"/>
<path d="M793.816 305.287C795.472 305.273 796.818 306.55 796.862 308.179C796.907 309.853 795.576 311.233 793.89 311.247C792.234 311.262 790.889 309.985 790.845 308.355C790.8 306.682 792.131 305.302 793.816 305.287Z" fill="#E31E24"/>
<path d="M638.077 336.307C639.763 336.307 641.108 337.658 641.079 339.346C641.049 340.976 639.718 342.282 638.077 342.282C636.392 342.282 635.046 340.932 635.076 339.243C635.105 337.614 636.436 336.307 638.077 336.307Z" fill="#E31E24"/>
<path d="M747.199 336.307C748.885 336.307 750.23 337.658 750.201 339.346C750.171 340.976 748.84 342.282 747.199 342.282C745.514 342.282 744.168 340.932 744.198 339.243C744.227 337.614 745.558 336.307 747.199 336.307Z" fill="#E31E24"/>
<path d="M560.191 259.014C561.817 259.014 563.207 260.394 563.177 262.009C563.148 263.58 561.802 264.916 560.22 264.931C558.594 264.931 557.204 263.551 557.234 261.936C557.263 260.365 558.609 259.029 560.191 259.014Z" fill="#E31E24"/>
<path d="M591.489 305.523C593.086 305.552 594.417 306.903 594.417 308.473C594.417 310.088 593.012 311.454 591.401 311.424C589.804 311.395 588.473 310.044 588.473 308.473C588.473 306.859 589.878 305.493 591.489 305.523Z" fill="#E31E24"/>
<path d="M747.257 79.4445C745.645 79.4738 744.241 78.1085 744.226 76.4937C744.226 74.9229 745.557 73.5723 747.154 73.5429C748.765 73.5136 750.17 74.8789 750.185 76.4937C750.185 78.0645 748.854 79.4151 747.257 79.4445Z" fill="#E31E24"/>
<path d="M825.104 156.765C823.522 156.765 822.162 155.459 822.118 153.873C822.073 152.273 823.448 150.864 825.075 150.864C826.657 150.864 828.017 152.17 828.061 153.756C828.106 155.356 826.731 156.765 825.104 156.765Z" fill="#E31E24"/>
<path d="M793.891 110.244C792.279 110.274 790.875 108.894 790.875 107.279C790.875 105.708 792.22 104.357 793.802 104.328C795.414 104.299 796.818 105.679 796.818 107.294C796.818 108.864 795.473 110.215 793.891 110.244Z" fill="#E31E24"/>
<path d="M809.503 290.08C811.114 290.11 812.415 291.431 812.371 293.031C812.327 294.602 811.055 295.85 809.473 295.85C807.861 295.85 806.545 294.543 806.56 292.958C806.56 291.357 807.891 290.066 809.503 290.08Z" fill="#E31E24"/>
<path d="M638.081 79.3711C636.47 79.3711 635.169 78.0498 635.183 76.4497C635.213 74.8495 636.544 73.5576 638.155 73.6017C639.737 73.6457 640.994 74.9082 640.994 76.479C640.994 78.0792 639.678 79.3857 638.081 79.3711Z" fill="#E31E24"/>
<path d="M560.235 156.71C558.623 156.739 557.293 155.433 557.293 153.833C557.293 152.232 558.609 150.926 560.205 150.941C561.787 150.941 563.059 152.203 563.103 153.759C563.148 155.359 561.847 156.681 560.235 156.71Z" fill="#E31E24"/>
<path d="M591.463 110.392C589.852 110.407 588.536 109.115 588.521 107.514C588.521 105.914 589.837 104.608 591.448 104.622C593.06 104.622 594.361 105.958 594.332 107.559C594.302 109.129 593.03 110.377 591.463 110.407V110.392Z" fill="#E31E24"/>
<path d="M778.245 320.894C779.828 320.894 781.099 322.156 781.143 323.712C781.188 325.312 779.887 326.634 778.275 326.663C776.663 326.692 775.333 325.386 775.333 323.786C775.333 322.186 776.649 320.879 778.245 320.894Z" fill="#E31E24"/>
<path d="M606.956 320.894C608.553 320.835 609.914 322.113 609.958 323.713C610.002 325.313 608.716 326.634 607.089 326.663C605.478 326.693 604.147 325.401 604.132 323.801C604.132 322.245 605.36 320.953 606.942 320.894H606.956Z" fill="#E31E24"/>
<path d="M809.45 125.616C807.853 125.616 806.626 124.369 806.641 122.783C806.641 121.198 807.898 119.979 809.494 119.994C811.091 119.994 812.318 121.242 812.304 122.827C812.304 124.413 811.047 125.631 809.45 125.616Z" fill="#E31E24"/>
<path d="M575.878 125.613C574.266 125.642 573.01 124.438 572.995 122.853C572.965 121.253 574.178 120.005 575.775 119.99C577.386 119.961 578.643 121.164 578.658 122.75C578.687 124.35 577.475 125.598 575.878 125.613Z" fill="#E31E24"/>
<path d="M778.247 94.8184C776.65 94.8184 775.408 93.5999 775.408 92.0144C775.408 90.429 776.636 89.1958 778.232 89.1958C779.829 89.1958 781.071 90.4143 781.071 91.9998C781.071 93.5852 779.844 94.8184 778.247 94.8184Z" fill="#E31E24"/>
<path d="M575.849 290.154C577.446 290.154 578.673 291.402 578.658 292.987C578.658 294.573 577.401 295.791 575.804 295.777C574.208 295.777 572.98 294.529 572.995 292.943C572.995 291.358 574.252 290.139 575.849 290.154Z" fill="#E31E24"/>
<path d="M607.002 94.8146C605.406 94.8 604.193 93.5521 604.208 91.952C604.223 90.3665 605.48 89.1627 607.091 89.1774C608.688 89.1921 609.9 90.4399 609.886 92.04C609.871 93.6255 608.614 94.8293 607.002 94.8146Z" fill="#E31E24"/>
<path d="M684.88 352.134C686.373 352.105 687.571 353.235 687.615 354.703C687.659 356.186 686.536 357.39 685.042 357.448C683.549 357.507 682.322 356.406 682.263 354.923C682.189 353.397 683.342 352.163 684.88 352.134Z" fill="#E31E24"/>
<path d="M840.542 202.79C839.019 202.79 837.806 201.6 837.836 200.088C837.866 198.606 839.048 197.461 840.542 197.475C842.035 197.475 843.188 198.65 843.203 200.132C843.203 201.615 842.05 202.775 840.557 202.79H840.542Z" fill="#E31E24"/>
<path d="M700.523 352.134C702.016 352.119 703.199 353.249 703.244 354.732C703.273 356.259 702.09 357.463 700.553 357.448C699.059 357.448 697.891 356.288 697.891 354.806C697.891 353.323 699.045 352.148 700.523 352.134Z" fill="#E31E24"/>
<path d="M544.769 212.98C546.262 212.98 547.445 214.125 547.46 215.608C547.475 217.12 546.277 218.323 544.739 218.294C543.246 218.279 542.093 217.105 542.107 215.622C542.107 214.139 543.276 212.98 544.769 212.98Z" fill="#E31E24"/>
<path d="M840.464 212.98C841.958 212.965 843.141 214.096 843.185 215.578C843.215 217.105 842.032 218.309 840.494 218.294C839.001 218.294 837.833 217.134 837.833 215.652C837.833 214.169 838.986 212.995 840.464 212.98Z" fill="#E31E24"/>
<path d="M715.913 352.189C717.406 352.16 718.589 353.29 718.589 354.773C718.589 356.212 717.48 357.357 716.031 357.386C714.538 357.416 713.355 356.285 713.355 354.802C713.355 353.364 714.464 352.219 715.913 352.189Z" fill="#E31E24"/>
<path d="M825.058 274.872C826.552 274.872 827.72 276.017 827.705 277.499C827.705 278.938 826.552 280.068 825.103 280.068C823.609 280.068 822.441 278.923 822.456 277.441C822.456 276.002 823.609 274.872 825.058 274.872Z" fill="#E31E24"/>
<path d="M684.774 63.5749C683.281 63.5896 682.112 62.4445 682.112 60.9618C682.112 59.5231 683.251 58.3927 684.7 58.3781C686.193 58.3634 687.361 59.5085 687.361 60.9912C687.361 62.4298 686.223 63.5602 684.774 63.5749Z" fill="#E31E24"/>
<path d="M544.742 202.732C543.293 202.717 542.169 201.572 542.169 200.134C542.169 198.651 543.337 197.506 544.831 197.535C546.28 197.55 547.403 198.695 547.403 200.134C547.403 201.616 546.235 202.761 544.742 202.732Z" fill="#E31E24"/>
<path d="M700.399 63.5769C698.935 63.5916 697.782 62.5052 697.737 61.0666C697.693 59.5692 698.831 58.3947 700.31 58.3654C701.774 58.3507 702.927 59.437 702.971 60.8757C703.016 62.3731 701.877 63.5475 700.399 63.5769Z" fill="#E31E24"/>
<path d="M840.535 187.229C839.042 187.229 837.874 186.084 837.889 184.601C837.889 183.162 839.027 182.032 840.476 182.017C841.97 182.017 843.138 183.162 843.123 184.645C843.123 186.084 841.984 187.214 840.535 187.229Z" fill="#E31E24"/>
<path d="M622.617 336.69C624.11 336.661 625.293 337.806 625.293 339.289C625.293 340.728 624.169 341.873 622.72 341.887C621.227 341.917 620.044 340.772 620.044 339.289C620.044 337.85 621.168 336.705 622.617 336.69Z" fill="#E31E24"/>
<path d="M669.275 352.193C670.739 352.178 671.892 353.279 671.936 354.703C671.981 356.186 670.842 357.375 669.349 357.39C667.885 357.405 666.732 356.304 666.687 354.88C666.643 353.397 667.782 352.208 669.275 352.193Z" fill="#E31E24"/>
<path d="M840.491 228.538C841.984 228.538 843.138 229.698 843.123 231.181C843.108 232.619 841.955 233.735 840.506 233.735C839.013 233.735 837.859 232.575 837.874 231.092C837.889 229.654 839.042 228.538 840.491 228.538Z" fill="#E31E24"/>
<path d="M762.752 336.691C764.246 336.661 765.443 337.792 765.443 339.26C765.443 340.698 764.334 341.858 762.9 341.887C761.407 341.917 760.209 340.786 760.209 339.318C760.209 337.88 761.318 336.72 762.752 336.691Z" fill="#E31E24"/>
<path d="M560.149 274.902C561.569 274.873 562.781 276.062 562.781 277.471C562.781 278.836 561.628 280.011 560.253 280.04C558.834 280.069 557.621 278.88 557.621 277.471C557.621 276.106 558.774 274.931 560.149 274.902Z" fill="#E31E24"/>
<path d="M544.802 187.392C543.383 187.392 542.185 186.203 542.2 184.794C542.215 183.414 543.383 182.269 544.773 182.254C546.192 182.254 547.39 183.443 547.375 184.852C547.36 186.232 546.192 187.377 544.802 187.392Z" fill="#E31E24"/>
<path d="M544.817 228.582C546.207 228.597 547.36 229.757 547.375 231.122C547.375 232.531 546.177 233.735 544.758 233.706C543.368 233.691 542.215 232.531 542.2 231.166C542.2 229.757 543.398 228.553 544.817 228.582Z" fill="#E31E24"/>
<path d="M762.618 79.0485C761.228 79.0485 760.06 77.9034 760.031 76.5382C760.001 75.1288 761.199 73.925 762.618 73.925C763.993 73.925 765.176 75.0701 765.206 76.4354C765.235 77.8447 764.037 79.0485 762.618 79.0485Z" fill="#E31E24"/>
<path d="M716.015 63.5464C714.64 63.5758 713.443 62.4601 713.383 61.0801C713.324 59.6708 714.492 58.4376 715.927 58.4083C717.302 58.3789 718.499 59.4946 718.558 60.8746C718.618 62.2839 717.449 63.517 716.015 63.5464Z" fill="#E31E24"/>
<path d="M825.221 140.883C823.816 140.956 822.56 139.811 822.501 138.402C822.456 137.036 823.565 135.833 824.955 135.759C826.36 135.686 827.616 136.831 827.675 138.24C827.72 139.605 826.611 140.809 825.221 140.883Z" fill="#E31E24"/>
<path d="M669.37 63.5464C667.995 63.5758 666.797 62.4601 666.738 61.0801C666.679 59.6708 667.847 58.4376 669.281 58.4083C670.656 58.3789 671.854 59.4946 671.913 60.8746C671.972 62.2839 670.804 63.517 669.37 63.5464Z" fill="#E31E24"/>
<path d="M622.484 78.9894C621.094 78.9894 619.926 77.815 619.956 76.4351C619.985 75.0845 621.124 73.9834 622.469 73.9688C623.859 73.9688 625.027 75.1432 624.997 76.5231C624.968 77.8737 623.829 78.9748 622.484 78.9894Z" fill="#E31E24"/>
<path d="M560.207 140.809C558.862 140.809 557.724 139.708 557.679 138.357C557.65 136.977 558.818 135.803 560.207 135.803C561.553 135.803 562.691 136.904 562.736 138.254C562.765 139.634 561.597 140.809 560.207 140.809Z" fill="#E31E24"/>
<path d="M731.584 352.381C732.974 352.381 734.023 353.438 734.023 354.833C734.023 356.169 732.988 357.211 731.628 357.226C730.224 357.241 729.159 356.213 729.144 354.833C729.144 353.438 730.194 352.396 731.584 352.396V352.381Z" fill="#E31E24"/>
<path d="M731.597 63.3557C730.282 63.3557 729.173 62.284 729.187 60.9628C729.187 59.7003 730.237 58.6286 731.509 58.5846C732.825 58.5405 733.948 59.6122 733.978 60.9187C734.008 62.2253 732.913 63.3263 731.597 63.341V63.3557Z" fill="#E31E24"/>
<path d="M840.553 171.506C839.237 171.535 838.114 170.464 838.099 169.157C838.084 167.851 839.178 166.75 840.494 166.75C841.766 166.75 842.845 167.792 842.889 169.054C842.934 170.361 841.869 171.477 840.538 171.506H840.553Z" fill="#E31E24"/>
<path d="M653.698 352.411C654.97 352.411 656.049 353.439 656.093 354.716C656.138 356.023 655.073 357.138 653.757 357.168C652.441 357.197 651.318 356.125 651.303 354.819C651.288 353.512 652.382 352.411 653.698 352.411Z" fill="#E31E24"/>
<path d="M840.689 244.071C841.961 244.071 843.055 245.098 843.099 246.361C843.144 247.667 842.079 248.798 840.763 248.827C839.447 248.857 838.324 247.8 838.294 246.493C838.264 245.186 839.359 244.085 840.674 244.071H840.689Z" fill="#E31E24"/>
<path d="M544.786 171.695C543.47 171.695 542.376 170.594 542.391 169.287C542.391 167.981 543.515 166.909 544.831 166.938C546.102 166.968 547.167 168.025 547.182 169.287C547.182 170.594 546.102 171.695 544.786 171.695Z" fill="#E31E24"/>
<path d="M544.831 244.277C546.102 244.306 547.167 245.348 547.181 246.626C547.196 247.932 546.117 249.033 544.786 249.033C543.47 249.033 542.376 247.947 542.376 246.64C542.376 245.334 543.5 244.247 544.816 244.277H544.831Z" fill="#E31E24"/>
<path d="M793.917 321.467C795.159 321.511 796.18 322.554 796.194 323.787C796.194 325.049 795.1 326.136 793.843 326.121C792.572 326.121 791.493 325.005 791.522 323.757C791.552 322.495 792.675 321.438 793.932 321.482L793.917 321.467Z" fill="#E31E24"/>
<path d="M809.371 305.965C810.627 305.892 811.766 306.934 811.81 308.211C811.855 309.459 810.805 310.575 809.518 310.619C808.291 310.648 807.212 309.665 807.123 308.417C807.034 307.169 808.069 306.038 809.356 305.965H809.371Z" fill="#E31E24"/>
<path d="M653.739 63.3115C652.468 63.3409 651.373 62.2545 651.359 60.992C651.359 59.7736 652.364 58.7166 653.606 58.6579C654.863 58.5991 655.987 59.6561 656.031 60.9186C656.075 62.1665 654.996 63.2822 653.724 63.2968L653.739 63.3115Z" fill="#E31E24"/>
<path d="M575.734 306.243C576.99 306.199 577.996 307.109 578.055 308.343C578.114 309.634 577.183 310.662 575.896 310.706C574.64 310.75 573.634 309.84 573.575 308.607C573.516 307.315 574.447 306.287 575.734 306.243Z" fill="#E31E24"/>
<path d="M575.911 109.731C574.61 109.775 573.604 108.821 573.589 107.529C573.589 106.281 574.506 105.312 575.748 105.268C577.049 105.224 578.055 106.178 578.069 107.47C578.069 108.718 577.153 109.687 575.911 109.731Z" fill="#E31E24"/>
<path d="M809.562 109.524C808.261 109.568 807.241 108.614 807.226 107.336C807.211 106.089 808.142 105.105 809.384 105.076C810.686 105.032 811.706 105.986 811.721 107.263C811.735 108.511 810.804 109.494 809.562 109.524Z" fill="#E31E24"/>
<path d="M793.86 94.2133C792.603 94.2133 791.642 93.2737 791.612 92.0406C791.583 90.7487 792.558 89.7651 793.845 89.7651C795.101 89.7651 796.063 90.7047 796.092 91.9378C796.122 93.2297 795.146 94.2133 793.86 94.2133Z" fill="#E31E24"/>
<path d="M591.432 321.76C592.688 321.76 593.664 322.685 593.679 323.933C593.709 325.225 592.733 326.209 591.446 326.223C590.19 326.223 589.214 325.298 589.199 324.051C589.169 322.759 590.145 321.76 591.432 321.76Z" fill="#E31E24"/>
<path d="M591.446 94.2123C590.19 94.2123 589.214 93.2875 589.184 92.0396C589.155 90.7478 590.116 89.7495 591.417 89.7495C592.674 89.7495 593.649 90.6744 593.679 91.9222C593.709 93.2141 592.748 94.2123 591.446 94.2123Z" fill="#E31E24"/>
<path d="M825.177 124.927C824.023 124.985 822.974 124.017 822.944 122.857C822.915 121.741 823.846 120.758 824.984 120.699C826.138 120.64 827.188 121.609 827.217 122.769C827.247 123.884 826.315 124.868 825.177 124.927Z" fill="#E31E24"/>
<path d="M747.225 352.678C748.364 352.692 749.325 353.647 749.34 354.777C749.354 355.937 748.349 356.935 747.181 356.92C746.043 356.906 745.081 355.951 745.067 354.821C745.052 353.661 746.057 352.663 747.225 352.678Z" fill="#E31E24"/>
<path d="M638.082 352.677C639.206 352.677 640.182 353.617 640.211 354.747C640.241 355.907 639.25 356.92 638.082 356.92C636.958 356.92 635.983 355.981 635.953 354.85C635.924 353.69 636.914 352.677 638.082 352.677Z" fill="#E31E24"/>
<path d="M824.984 290.858C826.138 290.799 827.188 291.768 827.217 292.927C827.247 294.043 826.315 295.027 825.177 295.1C824.023 295.159 822.974 294.19 822.944 293.03C822.915 291.914 823.846 290.931 824.984 290.858Z" fill="#E31E24"/>
<path d="M840.641 259.837C841.794 259.793 842.829 260.792 842.829 261.951C842.829 263.067 841.883 264.036 840.759 264.08C839.606 264.124 838.571 263.126 838.571 261.966C838.571 260.85 839.517 259.881 840.641 259.837Z" fill="#E31E24"/>
<path d="M606.998 337.176C608.166 337.147 609.187 338.145 609.172 339.305C609.172 340.421 608.211 341.39 607.087 341.419C605.919 341.448 604.899 340.45 604.913 339.29C604.913 338.175 605.875 337.206 606.998 337.176Z" fill="#E31E24"/>
<path d="M840.566 155.928C839.413 155.972 838.378 154.974 838.378 153.814C838.378 152.698 839.324 151.73 840.447 151.685C841.601 151.641 842.636 152.64 842.636 153.799C842.636 154.915 841.689 155.884 840.566 155.928Z" fill="#E31E24"/>
<path d="M778.244 337.176C779.368 337.176 780.344 338.13 780.373 339.246C780.403 340.406 779.398 341.419 778.229 341.404C777.106 341.404 776.13 340.45 776.1 339.334C776.071 338.174 777.076 337.161 778.244 337.176Z" fill="#E31E24"/>
<path d="M560.282 124.821C559.085 124.851 558.183 123.984 558.183 122.795C558.183 121.65 559.04 120.784 560.194 120.784C561.347 120.784 562.234 121.621 562.249 122.751C562.264 123.896 561.436 124.792 560.282 124.821Z" fill="#E31E24"/>
<path d="M747.301 63.0051C746.103 63.0491 745.186 62.183 745.172 60.9939C745.172 59.8488 746.014 58.9827 747.168 58.9533C748.321 58.9386 749.208 59.7754 749.238 60.9058C749.267 62.0509 748.439 62.9464 747.286 62.9904L747.301 63.0051Z" fill="#E31E24"/>
<path d="M638.022 63.0044C636.883 62.975 636.04 62.0942 636.055 60.9491C636.07 59.8041 636.957 58.9673 638.11 58.9673C639.264 58.9673 640.121 59.8334 640.121 60.9785C640.121 62.1676 639.219 63.0337 638.022 63.0044Z" fill="#E31E24"/>
<path d="M544.786 155.841C543.633 155.841 542.761 154.99 542.746 153.845C542.746 152.7 543.574 151.819 544.727 151.79C545.88 151.76 546.782 152.597 546.812 153.727C546.856 154.916 545.969 155.827 544.786 155.827V155.841Z" fill="#E31E24"/>
<path d="M560.147 290.946C561.344 290.917 562.246 291.798 562.231 292.987C562.231 294.132 561.344 294.983 560.206 294.983C559.052 294.983 558.18 294.132 558.165 292.987C558.165 291.842 558.993 290.961 560.147 290.946Z" fill="#E31E24"/>
<path d="M544.768 259.939C545.921 259.939 546.794 260.775 546.808 261.92C546.823 263.109 545.936 263.99 544.738 263.976C543.585 263.961 542.742 263.095 542.742 261.935C542.742 260.79 543.615 259.939 544.768 259.924V259.939Z" fill="#E31E24"/>
<path d="M778.217 78.5033C777.064 78.5033 776.206 77.6372 776.206 76.4921C776.206 75.3471 777.064 74.4809 778.202 74.4662C779.4 74.4516 780.287 75.3324 780.272 76.5215C780.257 77.6666 779.37 78.5033 778.217 78.5033Z" fill="#E31E24"/>
<path d="M607.166 78.5039C606.013 78.548 605.096 77.7405 605.022 76.6101C604.963 75.421 605.806 74.4815 606.989 74.4668C608.142 74.4375 609.044 75.2742 609.073 76.4046C609.118 77.5497 608.29 78.4599 607.151 78.5039H607.166Z" fill="#E31E24"/>
<path d="M840.521 140.048C839.604 140.048 838.791 139.27 838.762 138.36C838.732 137.45 839.516 136.628 840.432 136.584C841.334 136.54 842.192 137.303 842.236 138.228C842.295 139.167 841.467 140.033 840.506 140.048H840.521Z" fill="#E31E24"/>
<path d="M856.092 213.904C857.009 213.889 857.837 214.667 857.866 215.577C857.896 216.517 857.053 217.383 856.092 217.368C855.175 217.368 854.377 216.546 854.377 215.636C854.377 214.726 855.175 213.918 856.092 213.904Z" fill="#E31E24"/>
<path d="M622.635 353.055C623.552 353.026 624.38 353.804 624.424 354.729C624.468 355.668 623.626 356.534 622.665 356.52C621.748 356.52 620.935 355.712 620.935 354.802C620.935 353.892 621.718 353.084 622.635 353.055Z" fill="#E31E24"/>
<path d="M762.826 353.059C763.743 353.059 764.556 353.851 764.571 354.762C764.586 355.716 763.728 356.553 762.782 356.523C761.865 356.494 761.067 355.672 761.082 354.762C761.097 353.851 761.91 353.059 762.826 353.059Z" fill="#E31E24"/>
<path d="M840.683 275.737C841.6 275.737 842.413 276.515 842.443 277.425C842.472 278.365 841.615 279.216 840.668 279.202C839.752 279.187 838.953 278.365 838.953 277.455C838.953 276.544 839.766 275.737 840.683 275.737Z" fill="#E31E24"/>
<path d="M856.049 198.402C856.951 198.358 857.808 199.121 857.852 200.046C857.912 200.986 857.084 201.867 856.123 201.867C855.206 201.867 854.393 201.088 854.363 200.178C854.334 199.268 855.117 198.446 856.034 198.402H856.049Z" fill="#E31E24"/>
<path d="M856.177 186.246C855.231 186.275 854.506 185.6 854.491 184.66C854.477 183.721 855.172 183.016 856.103 183.016C857.005 183.016 857.7 183.662 857.729 184.543C857.774 185.482 857.094 186.216 856.162 186.246H856.177Z" fill="#E31E24"/>
<path d="M809.386 322.172C810.333 322.128 811.072 322.803 811.102 323.728C811.131 324.668 810.451 325.387 809.505 325.402C808.559 325.416 807.849 324.726 807.849 323.801C807.849 322.906 808.499 322.216 809.386 322.187V322.172Z" fill="#E31E24"/>
<path d="M700.383 47.0891C699.436 47.1037 698.727 46.4138 698.727 45.4889C698.727 44.5494 699.422 43.8594 700.368 43.8594C701.27 43.8594 701.95 44.52 701.98 45.4155C702.009 46.355 701.329 47.0744 700.383 47.0891Z" fill="#E31E24"/>
<path d="M684.744 47.09C683.812 47.09 683.103 46.3853 683.117 45.4458C683.117 44.5209 683.857 43.8309 684.788 43.8603C685.675 43.8896 686.355 44.5649 686.37 45.4458C686.37 46.3853 685.675 47.09 684.744 47.09Z" fill="#E31E24"/>
<path d="M856.165 229.539C857.097 229.568 857.777 230.288 857.747 231.227C857.718 232.108 857.023 232.769 856.121 232.769C855.189 232.769 854.48 232.064 854.494 231.124C854.494 230.2 855.234 229.51 856.165 229.539Z" fill="#E31E24"/>
<path d="M544.873 139.928C543.927 139.972 543.188 139.297 543.158 138.372C543.129 137.432 543.809 136.713 544.755 136.698C545.701 136.684 546.411 137.374 546.411 138.298C546.411 139.194 545.761 139.884 544.873 139.928Z" fill="#E31E24"/>
<path d="M529.183 201.748C528.237 201.748 527.542 201.058 527.542 200.133C527.542 199.208 528.266 198.504 529.198 198.533C530.1 198.548 530.765 199.223 530.795 200.104C530.809 201.043 530.129 201.748 529.183 201.763V201.748Z" fill="#E31E24"/>
<path d="M544.679 275.855C545.625 275.797 546.365 276.472 546.409 277.382C546.453 278.322 545.773 279.056 544.842 279.07C543.896 279.1 543.171 278.41 543.156 277.485C543.156 276.589 543.792 275.885 544.679 275.841V275.855Z" fill="#E31E24"/>
<path d="M622.527 62.5929C621.581 62.6222 620.857 61.9322 620.842 61.0074C620.842 60.1119 621.478 59.4072 622.365 59.3632C623.311 59.3045 624.05 59.9798 624.095 60.8899C624.139 61.8295 623.459 62.5635 622.527 62.5782V62.5929Z" fill="#E31E24"/>
<path d="M762.619 62.5937C761.687 62.5937 760.977 61.8743 761.007 60.9495C761.022 60.054 761.702 59.3934 762.589 59.364C763.535 59.3493 764.245 60.0246 764.26 60.9642C764.26 61.9037 763.565 62.5937 762.633 62.5937H762.619Z" fill="#E31E24"/>
<path d="M529.242 214.02C530.13 214.05 530.795 214.74 530.795 215.635C530.795 216.56 530.085 217.265 529.139 217.25C528.207 217.25 527.513 216.516 527.542 215.591C527.572 214.666 528.296 213.991 529.242 214.02Z" fill="#E31E24"/>
<path d="M716.014 47.033C715.215 47.0624 714.461 46.3724 714.417 45.5797C714.358 44.7576 715.097 43.9648 715.94 43.9355C716.738 43.9061 717.492 44.5961 717.537 45.3888C717.596 46.2109 716.857 47.0037 716.014 47.033Z" fill="#E31E24"/>
<path d="M575.822 322.433C576.62 322.433 577.359 323.123 577.389 323.931C577.418 324.753 576.679 325.531 575.836 325.546C575.038 325.546 574.299 324.856 574.269 324.048C574.239 323.226 574.979 322.448 575.822 322.433Z" fill="#E31E24"/>
<path d="M529.218 186.378C528.376 186.407 527.607 185.659 527.607 184.836C527.607 184.044 528.317 183.31 529.115 183.28C529.958 183.251 530.727 184 530.727 184.836C530.727 185.629 530.017 186.363 529.218 186.393V186.378Z" fill="#E31E24"/>
<path d="M809.476 93.5385C808.678 93.5385 807.938 92.8338 807.909 92.0411C807.879 91.2043 808.633 90.4409 809.461 90.4409C810.26 90.4409 810.999 91.1456 811.028 91.9383C811.058 92.7751 810.304 93.5385 809.476 93.5385Z" fill="#E31E24"/>
<path d="M575.879 93.5374C575.051 93.5814 574.267 92.8327 574.252 91.996C574.252 91.2032 574.947 90.4692 575.746 90.4398C576.574 90.3958 577.357 91.1445 577.372 91.9813C577.372 92.774 576.677 93.508 575.879 93.5374Z" fill="#E31E24"/>
<path d="M669.4 47.0298C668.602 47.0739 667.847 46.4132 667.774 45.6058C667.7 44.7837 668.409 43.9763 669.252 43.9323C670.051 43.8882 670.805 44.5488 670.878 45.3563C670.952 46.1784 670.243 46.9858 669.4 47.0298Z" fill="#E31E24"/>
<path d="M793.86 337.747C794.658 337.747 795.383 338.451 795.412 339.259C795.442 340.095 794.688 340.859 793.845 340.859C793.047 340.859 792.322 340.154 792.293 339.347C792.263 338.51 793.017 337.747 793.86 337.747Z" fill="#E31E24"/>
<path d="M825.128 306.729C825.927 306.758 826.651 307.477 826.651 308.27C826.651 309.107 825.883 309.856 825.055 309.826C824.256 309.797 823.532 309.077 823.532 308.285C823.532 307.448 824.3 306.699 825.128 306.729Z" fill="#E31E24"/>
<path d="M529.143 229.598C529.941 229.598 530.68 230.273 530.725 231.08C530.769 231.902 530.03 232.695 529.187 232.695C528.389 232.695 527.649 232.02 527.605 231.213C527.561 230.39 528.3 229.598 529.143 229.598Z" fill="#E31E24"/>
<path d="M591.444 337.866C592.242 337.866 592.834 338.438 592.863 339.216C592.893 340.038 592.301 340.684 591.473 340.714C590.645 340.743 590.01 340.141 589.995 339.319C589.995 338.497 590.601 337.88 591.429 337.88L591.444 337.866Z" fill="#E31E24"/>
<path d="M856.047 245.041C856.874 244.997 857.525 245.584 857.555 246.406C857.584 247.228 856.978 247.859 856.15 247.874C855.322 247.889 854.686 247.287 854.686 246.465C854.686 245.672 855.248 245.085 856.032 245.041H856.047Z" fill="#E31E24"/>
<path d="M560.263 108.924C559.435 108.953 558.8 108.351 558.77 107.529C558.755 106.707 559.361 106.076 560.189 106.076C560.988 106.076 561.594 106.634 561.624 107.412C561.668 108.234 561.077 108.88 560.249 108.909L560.263 108.924Z" fill="#E31E24"/>
<path d="M560.423 307.065C561.222 307.08 561.798 307.652 561.828 308.445C561.858 309.267 561.251 309.898 560.423 309.913C559.595 309.913 558.974 309.311 558.974 308.489C558.974 307.667 559.595 307.065 560.438 307.08L560.423 307.065Z" fill="#E31E24"/>
<path d="M825.083 108.719C824.255 108.719 823.649 108.088 823.664 107.266C823.679 106.444 824.314 105.842 825.157 105.871C825.941 105.901 826.517 106.488 826.532 107.266C826.532 108.088 825.926 108.705 825.098 108.705L825.083 108.719Z" fill="#E31E24"/>
<path d="M591.535 77.9039C590.707 77.948 590.042 77.3754 590.012 76.5533C589.983 75.7312 590.574 75.0853 591.402 75.0706C592.23 75.0412 592.866 75.6431 592.881 76.4652C592.881 77.258 592.334 77.8599 591.55 77.9039H591.535Z" fill="#E31E24"/>
<path d="M793.901 77.9029C793.073 77.9323 792.437 77.3304 792.423 76.5083C792.423 75.6862 793.029 75.0696 793.857 75.0696C794.655 75.0696 795.247 75.6421 795.276 76.4202C795.306 77.2423 794.714 77.8882 793.886 77.9176L793.901 77.9029Z" fill="#E31E24"/>
<path d="M529.187 245.317C529.897 245.317 530.518 245.949 530.518 246.653C530.518 247.387 529.837 248.048 529.098 248.004C528.388 247.96 527.782 247.314 527.812 246.624C527.841 245.919 528.477 245.317 529.172 245.317H529.187Z" fill="#E31E24"/>
<path d="M856.125 170.463C855.415 170.463 854.78 169.861 854.765 169.157C854.75 168.467 855.356 167.821 856.066 167.791C856.805 167.762 857.485 168.408 857.47 169.157C857.47 169.861 856.835 170.478 856.125 170.478V170.463Z" fill="#E31E24"/>
<path d="M529.17 170.67C528.46 170.67 527.839 170.068 527.81 169.364C527.795 168.659 528.401 168.028 529.111 167.998C529.806 167.969 530.471 168.556 530.515 169.261C530.56 169.995 529.909 170.685 529.17 170.685V170.67Z" fill="#E31E24"/>
<path d="M653.651 46.8093C652.941 46.7799 652.335 46.1487 652.35 45.444C652.35 44.7394 652.986 44.1228 653.695 44.1228C654.405 44.1228 655.026 44.7394 655.041 45.444C655.056 46.1781 654.375 46.8387 653.636 46.8093H653.651Z" fill="#E31E24"/>
<path d="M731.611 46.8095C730.901 46.8095 730.265 46.2223 730.236 45.5177C730.206 44.7837 730.871 44.1084 731.611 44.123C732.32 44.1377 732.941 44.769 732.941 45.459C732.941 46.1636 732.32 46.7802 731.611 46.7949V46.8095Z" fill="#E31E24"/>
<path d="M840.643 291.781C841.353 291.723 841.945 292.28 841.915 292.985C841.885 293.734 841.442 294.101 840.85 294.174C840.052 294.174 839.505 293.675 839.505 293.014C839.505 292.28 839.904 291.84 840.643 291.781Z" fill="#E31E24"/>
<path d="M544.74 291.782C545.45 291.738 546.027 292.296 545.997 293.001C545.953 293.75 545.509 294.117 544.785 294.19C544.06 294.117 543.602 293.735 543.587 293.001C543.587 292.267 544.001 291.841 544.74 291.782Z" fill="#E31E24"/>
<path d="M778.334 62.1948C777.58 62.1654 777.092 61.8278 777.032 61.0791C776.973 60.345 777.358 59.8899 778.097 59.7872C778.807 59.6844 779.428 60.2276 779.428 60.9176C779.428 61.6663 779.014 62.0626 778.319 62.1801L778.334 62.1948Z" fill="#E31E24"/>
<path d="M840.597 124.001C839.887 124.074 839.295 123.516 839.31 122.811C839.31 122.063 839.754 121.681 840.464 121.593C841.203 121.652 841.676 122.004 841.705 122.753C841.735 123.487 841.336 123.927 840.597 124.015V124.001Z" fill="#E31E24"/>
<path d="M778.455 353.587C779.179 353.675 779.638 354.042 779.638 354.791C779.638 355.525 779.224 355.95 778.47 355.994C777.76 356.039 777.183 355.466 777.228 354.761C777.272 354.013 777.716 353.646 778.44 353.587H778.455Z" fill="#E31E24"/>
<path d="M606.988 353.601C607.727 353.601 608.17 353.983 608.259 354.717C608.333 355.421 607.771 356.009 607.061 355.994C606.307 355.994 605.923 355.554 605.849 354.952C605.819 354.159 606.322 353.601 606.988 353.601Z" fill="#E31E24"/>
<path d="M529.173 154.844C528.729 154.771 528.345 154.33 527.931 154.037C527.931 153.875 527.931 153.729 527.931 153.567C528.345 153.288 528.729 152.848 529.173 152.789C529.823 152.686 530.223 153.156 530.223 153.817C530.223 154.477 529.809 154.947 529.158 154.83L529.173 154.844Z" fill="#E31E24"/>
<path d="M856.134 154.842C855.69 154.769 855.306 154.329 854.892 154.064C854.892 153.903 854.892 153.756 854.892 153.595C855.306 153.316 855.675 152.875 856.134 152.787C856.784 152.67 857.198 153.139 857.198 153.8C857.198 154.461 856.799 154.93 856.148 154.828L856.134 154.842Z" fill="#E31E24"/>
<path d="M544.875 124.013C544.712 124.013 544.564 124.013 544.401 124.028C544.106 123.631 543.633 123.264 543.544 122.824C543.411 122.193 543.854 121.752 544.535 121.738C545.2 121.708 545.703 122.09 545.614 122.736C545.555 123.176 545.126 123.587 544.875 123.998V124.013Z" fill="#E31E24"/>
<path d="M857.188 261.953C857.188 262.613 856.788 263.098 856.153 262.995C855.709 262.921 855.31 262.496 854.896 262.217C854.896 262.055 854.896 261.909 854.896 261.747C855.31 261.468 855.679 261.013 856.123 260.94C856.759 260.822 857.188 261.277 857.188 261.953Z" fill="#E31E24"/>
<path d="M528.918 260.734C529.08 260.734 529.228 260.734 529.391 260.734C529.672 261.145 530.13 261.512 530.204 261.953C530.322 262.584 529.864 263.01 529.184 263.01C528.519 263.01 528.031 262.613 528.134 261.982C528.208 261.542 528.637 261.145 528.918 260.734Z" fill="#E31E24"/>
<path d="M607.074 62.0345C606.408 62.0345 605.92 61.6381 606.024 61.0069C606.098 60.5665 606.526 60.1701 606.807 59.759C606.97 59.759 607.118 59.759 607.281 59.759C607.561 60.1701 608.02 60.5371 608.094 60.9775C608.212 61.6088 607.754 62.0345 607.074 62.0345Z" fill="#E31E24"/>
<path d="M638.111 46.5337C637.387 46.5337 636.914 46.0933 637.062 45.418C637.15 44.9923 637.653 44.6546 637.963 44.2729C638.111 44.2729 638.259 44.2729 638.407 44.2729C638.658 44.6693 639.058 45.0363 639.132 45.4621C639.235 46.108 638.791 46.519 638.111 46.5337Z" fill="#E31E24"/>
<path d="M747.391 46.709C747.228 46.709 747.08 46.709 746.917 46.709C746.651 46.2979 746.223 45.9016 746.163 45.4465C746.075 44.8005 746.563 44.4188 747.228 44.4335C747.893 44.4482 748.352 44.8886 748.233 45.5199C748.145 45.9603 747.686 46.3273 747.391 46.7237V46.709Z" fill="#E31E24"/>
</g>
<g filter="url(#filter0_f_70_13)">
<circle cx="709.952" cy="198.709" r="101.178" fill="#FE9000"/>
</g>
<defs>
<filter id="filter0_f_70_13" x="576.861" y="65.6185" width="266.182" height="266.182" filterUnits="userSpaceOnUse" color-interpolation-filters="sRGB">
<feFlood flood-opacity="0" result="BackgroundImageFix"/>
<feBlend mode="normal" in="SourceGraphic" in2="BackgroundImageFix" result="shape"/>
<feGaussianBlur stdDeviation="15.9564" result="effect1_foregroundBlur_70_13"/>
</filter>
</defs>
</svg>
