<svg width="318" height="276" viewBox="0 0 318 276" fill="none" xmlns="http://www.w3.org/2000/svg">
<path d="M244.742 193.487C232.45 187.041 219.392 183.75 213.785 183.562C208.177 183.374 202.163 185.461 199.123 190.171C197.194 193.149 196.652 196.796 196.272 200.32C194.984 212.121 194.912 224.054 196.062 235.866C195.223 231.317 188.375 218.5 184.162 211.998C181.881 208.475 179.295 204.817 175.4 203.241C171.448 201.636 166.834 202.554 163.112 204.637C159.389 206.72 156.388 209.852 153.45 212.94C153.896 207.244 155.023 201.019 153.468 195.52C151.914 190.022 148.438 184.83 143.268 182.395C137.538 179.694 130.604 180.778 124.984 183.7C119.364 186.621 114.793 191.172 110.317 195.65C105.859 200.107 101.402 204.574 96.9432 209.031C97.6002 204.533 99.5706 198.831 100.228 194.333C100.905 189.701 101.583 185.016 101.049 180.363C99.5926 167.61 88.952 157.296 76.8649 152.971C64.7779 148.647 49.4284 149.088 36.7384 150.985C43.2677 146.945 86.957 122.133 70.1521 110.52C60.7329 104.009 49.6842 99.8728 38.3067 98.5954C42.3188 99.048 81.1014 99.6229 89.7982 89.9097C91.7444 87.7407 93.2495 85.1394 93.6236 82.2471C94.299 77.101 92.311 72.0778 90.2293 67.4814C86.6502 59.5807 82.3971 51.9846 77.5436 44.7976C88.9567 52.8114 102.382 61.335 116.153 64.4684C119.953 65.3304 124.087 64.8581 125.982 60.9946C128.866 55.1054 129.443 48.1286 127.563 41.8419C129.477 47.5911 136.041 57.3912 142.05 58.2435C147.196 58.9722 151.67 54.8632 155.03 50.8935C167.556 36.1008 176.801 18.5395 181.909 -0.161035C179.325 15.9783 176.265 31.1257 185.494 42.8277C194.723 54.5297 211.833 59.2699 225.766 53.9817C218.705 60.3087 211.047 70.0695 210.706 78.7323C210.053 95.3943 224.856 105.029 239.605 107.595C259.399 111.045 279.241 112.961 299.354 112.077C276.535 117.565 251.308 127.715 232.479 141.961C222.197 149.739 220.949 162.439 226.834 173.476C231.068 181.419 237.976 187.534 244.745 193.463L244.742 193.487Z" fill="#272525"/>
<path d="M243.491 189.109C231.199 182.663 218.141 179.372 212.534 179.184C206.926 178.996 200.912 181.082 197.872 185.792C195.943 188.77 195.401 192.417 195.021 195.941C193.733 207.743 193.661 219.676 194.811 231.488C193.972 226.938 187.124 214.122 182.911 207.619C180.63 204.096 178.044 200.439 174.149 198.862C170.197 197.258 165.583 198.176 161.861 200.258C158.138 202.341 155.137 205.474 152.199 208.562C152.645 202.865 153.772 196.64 152.218 191.142C150.663 185.644 147.187 180.452 142.017 178.016C136.287 175.315 129.353 176.4 123.733 179.321C118.113 182.242 113.542 186.793 109.066 191.272C104.608 195.729 100.151 200.195 95.6922 204.653C96.3492 200.154 98.3195 194.453 98.9765 189.954C99.6543 185.322 100.332 180.637 99.7983 175.985C98.3416 163.232 87.701 152.918 75.6139 148.593C63.5312 144.263 48.1774 144.71 35.4874 146.607C42.0168 142.566 85.7061 117.754 68.9011 106.142C59.482 99.6304 48.4333 95.4944 37.0558 94.217C41.0678 94.6696 79.8504 95.2444 88.5472 85.5312C90.4934 83.3622 91.9986 80.761 92.3727 77.8687C93.0481 72.7226 91.06 67.6993 88.9783 63.1029C85.3992 55.2022 81.1462 47.6062 76.2926 40.4192C87.7058 48.433 101.131 56.9566 114.902 60.09C118.702 60.952 122.836 60.4796 124.731 56.6161C127.615 50.7269 128.192 43.7502 126.312 37.4634C128.226 43.2127 134.79 53.0128 140.799 53.865C145.945 54.5938 150.419 50.4847 153.779 46.515C166.305 31.7223 175.55 14.1611 180.658 -4.53948C178.074 11.5998 175.014 26.7472 184.243 38.4492C193.472 50.1512 210.582 54.8915 224.515 49.6033C217.454 55.9302 209.796 65.6911 209.455 74.3538C208.802 91.0158 223.605 100.651 238.354 103.217C258.148 106.667 277.99 108.582 298.102 107.698C275.284 113.186 250.057 123.336 231.228 137.583C220.946 145.36 219.698 158.06 225.583 169.098C229.817 177.041 236.725 183.155 243.494 189.084L243.491 189.109Z" fill="white"/>
<path d="M69.7138 110.097C69.5288 109.901 69.5977 109.957 69.7138 110.097V110.097Z" fill="#272525"/>
<path d="M70.1636 110.934C70.1636 110.934 70.1448 110.892 70.1279 110.87C70.1851 111.103 70.2173 111.182 70.2313 111.176C70.2294 111.157 70.2232 111.143 70.2213 111.123C70.2006 111.062 70.1843 110.996 70.1636 110.934Z" fill="#272525"/>
<path d="M70.3487 111.688C70.3487 111.688 70.3406 111.655 70.3387 111.636C70.3228 111.623 70.3198 111.691 70.3726 111.929C70.3751 111.905 70.3732 111.885 70.3756 111.861C70.3699 111.803 70.3641 111.745 70.3541 111.693L70.3487 111.688Z" fill="#272525"/>
<path d="M209.922 181.801C214.188 181.287 218.674 182.401 222.757 183.522C229.575 185.391 236.205 188.008 242.489 191.251C242.708 191.404 242.947 191.512 243.199 191.56C243.729 191.711 244.28 191.589 244.742 191.305C245.055 191.128 245.323 190.888 245.506 190.579C245.535 190.532 245.545 190.487 245.569 190.436C245.569 190.436 245.578 190.426 245.582 190.421C245.647 190.288 245.702 190.156 245.742 190.021C245.742 190.021 245.742 190.021 245.746 190.016C245.751 190.011 245.749 189.991 245.753 189.986C245.792 189.841 245.816 189.693 245.827 189.551C245.836 189.453 245.827 189.357 245.827 189.26C245.823 189.222 245.824 189.178 245.82 189.139C245.771 188.552 245.519 188.018 245.136 187.58C244.992 187.4 244.845 187.235 244.669 187.083C237.873 181.122 230.704 174.873 226.823 166.522C224.095 160.644 223.366 153.525 226.252 147.505C227.809 144.257 230.165 141.611 233.029 139.443C236.616 136.728 240.381 134.248 244.241 131.933C252.244 127.13 260.684 123.065 269.337 119.582C278.873 115.744 288.688 112.621 298.681 110.209C301.74 109.474 300.372 105.127 297.553 105.246C277.815 106.093 258.033 104.181 238.598 100.788C231.463 99.5418 224.49 96.7407 219.089 91.8708C216.625 89.6479 214.63 86.9076 213.296 83.7376C212.044 80.7489 211.398 76.7291 211.911 73.2258C212.489 69.2547 214.644 65.2684 216.956 61.888C219.56 58.0758 222.737 54.6535 226.16 51.5661C228.18 49.7492 225.736 46.4463 223.376 47.3306C213.337 51.0826 201.49 49.2884 192.72 43.2467C188.285 40.1943 184.704 36.1979 182.606 31.2875C180.658 26.7215 180.203 21.3377 180.393 16.1911C180.641 9.52851 181.851 2.95533 182.905 -3.61222C183.115 -4.92467 182.602 -6.32584 181.287 -6.85607C180.074 -7.33811 178.765 -6.67921 178.418 -5.42604C174.712 8.05174 168.877 20.871 161.164 32.5311C159.263 35.3998 157.259 38.2107 155.138 40.9166C153.267 43.3063 151.354 45.7148 149.132 47.7898C147.367 49.4358 145.265 50.9647 142.896 51.3643C142.385 51.4489 141.942 51.4927 141.434 51.4556C141.155 51.4395 140.879 51.3988 140.608 51.3529C140.608 51.3529 140.509 51.3335 140.439 51.3209C140.354 51.2954 140.195 51.2529 140.175 51.2452C139.017 50.8354 138.517 50.5401 137.552 49.8198C135.382 48.2088 133.574 45.9842 131.973 43.6467C131.36 42.746 130.589 41.4335 129.996 40.3025C129.678 39.6881 129.373 39.0579 129.097 38.4249C128.977 38.1502 128.858 37.8755 128.747 37.5903C128.701 37.4734 128.661 37.3609 128.615 37.244C128.609 37.23 128.604 37.2257 128.603 37.2161C128.595 37.1829 128.583 37.1646 128.569 37.1175C128.163 35.9097 127.162 34.7706 125.742 35.0033C124.476 35.2112 123.695 36.6385 124.047 37.8467C125.254 41.9907 125.404 46.3462 124.363 50.5476C123.894 52.4344 123.279 54.8019 121.996 56.3128C120.929 57.5595 119.35 57.9878 117.728 57.9833C115.586 57.9768 113.435 57.2914 111.402 56.6768C109.059 55.9667 106.756 55.1215 104.498 54.1797C99.9594 52.2884 95.5818 50.0073 91.3564 47.4975C86.5947 44.6717 81.9963 41.5821 77.4618 38.4036C76.5124 37.7401 75.1939 37.7638 74.464 38.7295C73.6648 39.7798 73.9555 40.999 74.6391 42.0191C77.5199 46.2984 80.1682 50.7319 82.5952 55.2844C84.8614 59.5372 87.1313 63.9256 88.7664 68.4739C90.1124 72.2108 90.9869 76.6305 89.1215 80.3503C88.3756 81.842 87.3885 83.2508 86.1392 84.3651C85.9385 84.5452 85.7272 84.7167 85.5203 84.8829C85.4395 84.9491 85.2942 85.0509 85.2124 85.1076C84.7562 85.4052 84.2896 85.6942 83.8104 85.9553C81.3996 87.2574 79.2299 87.9529 76.8881 88.5781C73.9264 89.3665 70.9034 89.928 67.8733 90.3688C61.7081 91.2704 55.4622 91.6994 49.2353 91.8787C47.5067 91.9285 46.8671 91.9432 45.1635 91.9516C43.9307 91.9571 42.6969 91.953 41.4569 91.935C40.0024 91.909 38.5358 91.9084 37.0926 91.7502C33.9363 91.4071 34.1539 96.4018 37.0222 96.7297C47.4795 97.933 57.6349 101.531 66.4384 107.317C67.1606 107.794 67.8914 108.261 68.5626 108.811C68.6577 108.889 68.7529 108.967 68.8437 109.05C69.0344 109.26 69.238 109.453 69.42 109.673C69.5694 109.858 69.6937 110.083 69.8551 110.242C69.796 110.185 69.7528 110.14 69.7201 110.105C69.7811 110.181 69.8589 110.28 69.9069 110.373C69.9957 110.534 70.0618 110.712 70.1463 110.878C70.131 110.822 70.121 110.769 70.0994 110.699C70.1176 110.784 70.1497 110.863 70.1775 110.948C70.1881 110.957 70.1847 110.972 70.1953 110.98C70.2413 111.054 70.2643 111.187 70.2451 111.189C70.2848 111.345 70.314 111.493 70.3485 111.645C70.3643 111.658 70.3912 111.733 70.3848 111.816C70.3815 111.831 70.3834 111.85 70.3843 111.86C70.3919 111.937 70.3986 112.004 70.4201 112.075C70.4048 112.018 70.3957 111.975 70.3814 111.928C70.3675 112.279 70.3633 112.629 70.3495 112.98C70.3364 113.093 70.3121 113.338 70.2885 113.443C70.2387 113.676 70.1784 113.9 70.1181 114.125C70.0491 114.36 69.9695 114.586 69.8952 114.817C69.8653 114.907 69.8215 115.004 69.7916 115.094C69.7829 115.105 69.7829 115.105 69.7839 115.115C69.7709 115.13 69.7665 115.136 69.7641 115.16C69.277 116.175 68.7519 117.149 68.1259 118.085C67.8172 118.548 67.4874 118.994 67.1523 119.435C67.0613 119.546 66.8066 119.867 66.7503 119.936C66.5294 120.205 66.304 120.48 66.0725 120.741C64.2067 122.887 62.1285 124.851 59.9768 126.71C57.6645 128.711 55.2522 130.587 52.7842 132.39C50.5381 134.03 48.4147 135.488 45.8252 137.192C42.0588 139.662 38.1825 141.954 34.3479 144.325C32.1468 145.684 33.4172 149.491 36.0539 149.099C43.2136 148.041 50.4708 147.478 57.7083 147.844C64.6622 148.19 71.6966 149.3 78.082 152.193C83.6744 154.728 88.6851 158.598 92.3725 163.521C96.1112 168.521 97.8849 174.42 97.6338 180.763C97.48 184.604 96.9741 188.52 96.1169 192.271C95.248 196.101 94.0383 199.872 93.4474 203.762C93.276 204.876 93.5624 206.003 94.5147 206.696C95.3359 207.29 96.5764 207.361 97.3272 206.607C102.068 201.86 106.807 197.103 111.563 192.368C115.758 188.19 120.097 183.953 125.475 181.328C129.644 179.293 134.685 178.221 139.234 179.539C144.369 181.026 147.969 185.516 149.628 190.445C151.573 196.211 150.343 202.378 149.869 208.282C149.719 210.156 152.32 212.103 153.838 210.511C157.181 207.004 160.638 203.316 165.236 201.501C168.993 200.013 173.038 200.253 176.206 202.877C179.301 205.441 181.396 209.341 183.406 212.775C185.363 216.111 187.211 219.517 188.923 222.98C189.797 224.748 190.639 226.534 191.393 228.363C191.541 228.732 191.69 229.101 191.833 229.475C191.854 229.536 191.88 229.602 191.905 229.657C191.886 229.616 192.019 229.981 192.04 230.042C192.236 230.644 192.416 231.243 192.541 231.867C192.767 233.015 193.873 234.037 195.062 233.987C196.16 233.941 197.24 232.98 197.122 231.787C196.477 225.072 196.212 218.325 196.345 211.576C196.414 208.204 196.576 204.838 196.841 201.476C197.094 198.246 197.3 194.933 198.046 191.771C198.738 188.857 200.091 186.28 202.559 184.487C204.698 182.935 207.308 182.123 209.914 181.812L209.922 181.801ZM194.84 186.217C193.382 189.538 192.946 193.087 192.577 196.663C192.21 200.215 191.951 203.786 191.805 207.359C191.656 211.055 191.629 214.753 191.713 218.445C190.367 215.839 188.947 213.27 187.463 210.737C185.063 206.648 182.576 202.373 179.013 199.196C175.232 195.831 170.107 194.784 165.258 196.129C161.345 197.215 158.099 199.45 155.155 202.082C155.446 198.396 155.508 194.71 154.569 191.112C152.942 184.883 149.096 179.043 143.309 176.013C138.136 173.301 132.028 173.551 126.611 175.34C120.527 177.35 115.444 181.534 110.885 185.909C107.183 189.466 103.557 193.112 99.9417 196.767C100.095 196.16 100.249 195.552 100.398 194.95C101.284 191.249 101.805 187.434 102.139 183.643C102.771 176.394 101.45 169.275 97.5332 163.068C93.7718 157.103 88.4788 152.393 82.3213 149.006C75.8755 145.453 68.5652 143.764 61.2832 143.096C56.2797 142.634 51.2387 142.628 46.209 142.932C51.8546 139.333 57.3711 135.558 62.5024 131.229C66.7238 127.664 71.2233 123.523 73.6195 118.445C74.695 116.163 75.2994 113.733 74.9134 111.208C74.5183 108.639 72.9794 106.485 71.0299 104.842C69.0582 103.173 66.6861 101.873 64.4438 100.609C61.7393 99.0902 58.9537 97.7344 56.0752 96.5674C60.0538 96.3386 64.0262 95.9988 67.9691 95.458C73.9625 94.6365 80.3341 93.5153 85.7612 90.7006C88.5 89.2787 90.6055 87.3464 92.291 84.7516C95.0846 80.4495 95.3181 75.3035 94.0978 70.4324C92.7367 65.0217 90.0747 59.8612 87.523 54.9326C86.3871 52.7288 85.1728 50.5667 83.9315 48.4267C90.0937 52.4007 96.4841 56.0315 103.246 58.8535C105.677 59.8657 108.161 60.7707 110.691 61.5108C113.156 62.2331 115.683 62.9881 118.274 62.9647C120.68 62.9402 123.048 62.2833 124.856 60.6282C126.703 58.9351 127.642 56.3463 128.382 54.0199C128.99 52.1145 129.386 50.1329 129.582 48.1371C130.658 49.5408 131.819 50.8633 133.072 52.0503C135.108 53.9756 137.412 55.6608 140.191 56.2694C143.001 56.8848 146.007 56.1065 148.448 54.6703C151.013 53.1587 153.181 51.0745 155.115 48.8339C157.59 45.9668 159.919 42.9634 162.13 39.8893C166.549 33.7559 170.455 27.246 173.779 20.4538C174.433 19.1168 175.062 17.7677 175.67 16.4109C175.564 21.5639 176.099 26.6775 177.867 31.5818C182.102 43.3168 193.413 51.2291 205.368 53.5807C209.082 54.3105 212.874 54.4499 216.607 54.0464C212.756 58.5065 209.518 63.576 207.941 69.1223C205.657 77.1565 208.084 86.0745 213.312 92.4281C218.406 98.6104 225.896 102.613 233.554 104.667C238.242 105.921 243.09 106.573 247.89 107.283C253 108.035 258.128 108.678 263.267 109.179C268.783 109.716 274.306 110.082 279.841 110.272C267.078 114.469 254.676 119.863 243.125 126.644C238.935 129.103 234.867 131.768 230.952 134.647C227.688 137.044 224.82 139.809 222.832 143.376C218.936 150.37 219.014 158.661 221.726 166.046C223.879 171.902 227.576 176.878 231.838 181.37C229.626 180.564 227.393 179.829 225.133 179.179C220.425 177.819 215.495 176.534 210.56 176.712C204.163 176.947 197.516 180.14 194.841 186.227L194.84 186.217Z" fill="#272525"/>
</svg>
