<svg width="234" height="164" viewBox="0 0 234 164" fill="none" xmlns="http://www.w3.org/2000/svg">
<path d="M43.225 28.6949L44.1648 29.1664L44.0558 28.0844C44.0404 27.8873 44.0452 27.9489 44.0433 27.9243L44.197 27.5156L44.5054 26.7106C44.6977 26.1627 44.9421 25.6477 45.16 25.1101C45.6213 24.0453 46.1101 23.0155 46.6491 21.9941C47.727 19.9514 48.9478 17.9966 50.3258 16.1534C53.0684 12.4556 56.3782 9.209 60.0906 6.52563C67.5136 1.13424 76.462 -1.98513 85.5352 -2.71009C94.6084 -3.43505 103.854 -1.79409 112.012 2.08859C120.193 5.95703 127.159 12.164 132.149 19.6788L133.285 21.3989L134.955 20.1276C139.38 16.7439 144.428 14.2159 149.733 12.7582C155.037 11.2883 160.631 10.9977 165.926 12.1185C168.567 12.6671 171.126 13.5939 173.51 14.8195C175.78 16.0167 177.816 17.691 179.58 19.6964C181.345 21.7018 182.872 23.9984 184.248 26.4185C184.936 27.6162 185.592 28.8907 186.22 30.1302C186.824 31.3716 187.379 32.6169 187.85 33.8936L189.161 37.3845L191.972 34.8835C195.016 32.1907 199.35 30.9827 203.603 31.2684C207.868 31.5407 212.07 33.2431 215.137 36.088C218.24 38.9178 220.036 42.9036 220.305 47.1579C220.588 51.4236 219.487 55.86 217.697 60.0406L216.798 62.1561L218.718 63.4552C225.627 68.1424 230.58 75.66 232.343 83.8372C234.154 91.9981 232.764 100.832 227.984 107.59C225.638 110.984 222.559 113.853 219.01 116.089C215.461 118.339 211.493 119.964 207.351 121.107C199.041 123.371 190.147 123.685 181.349 123.025L178.164 122.792L178.052 125.961C177.965 128.496 178.288 130.739 178.711 132.986C179.168 135.205 179.758 137.377 180.492 139.488C181.958 143.698 183.904 147.709 186.214 151.481C189.006 156.033 192.337 160.208 196.047 163.994C193.76 163.542 191.48 163.014 189.241 162.385C183.768 160.894 178.474 158.831 173.439 156.289C168.437 153.708 163.704 150.597 159.52 146.91C157.433 145.054 155.485 143.076 153.748 140.944C152.037 138.823 150.472 136.529 149.45 134.205L147.373 129.461L144.527 133.737C141.393 138.445 136.923 142.204 131.732 144.483C126.542 146.786 120.697 147.654 114.967 147.15C109.237 146.646 103.591 144.834 98.7366 141.757C93.8711 138.694 89.8461 134.351 87.3298 129.207L85.7114 125.901L83.4198 128.721C79.9542 132.984 74.4557 135.448 68.7566 136.292C63.0217 137.151 57.0098 136.521 51.3929 134.768C45.776 133.016 40.486 130.06 36.2485 126.006C31.9996 121.965 28.9214 116.754 27.5357 111.038L27.262 109.907L26.1476 109.734C20.5516 108.885 15.1903 106.443 10.8227 102.783C6.44374 99.1369 3.02064 94.2627 1.31932 88.7823C-0.416954 83.3295 -0.295223 77.2723 1.96321 71.9643C4.16956 66.6232 8.34066 62.206 13.2367 58.9959L13.7188 58.673L13.4931 58.1578C11.6551 53.9399 10.9649 49.2105 11.4714 44.5977C11.9778 39.985 13.8748 35.4366 17.1598 32.0308C20.5916 28.7622 25.0861 26.7486 29.7233 26.2481C34.3595 25.7353 39.0948 26.6523 43.2033 28.7338L43.225 28.6949Z" fill="white"/>
</svg>
