<svg xmlns="http://www.w3.org/2000/svg" width="40" height="38" fill="none"><path d="M25.968 30.796V25.49h7.55c1.319 0 2.612-.49 3.64-1.36l.002-.001c1.515-1.296 2.256-3.356 1.93-5.362L37.04 5.985c-.215-1.707-.926-3.093-2.089-4.047C33.791.985 32.23.5 30.386.5H14.469a5.685 5.685 0 00-3.787 1.46 2.388 2.388 0 00-1.452-.487H3.27A2.396 2.396 0 00.88 3.865v17.494a2.396 2.396 0 002.392 2.392h5.967c.734 0 1.397-.336 1.837-.862.413.136 1.696.602 2.943 1.51 1.436 1.044 2.762 2.624 2.762 4.918v6.503c0 .611.397 1.169.993 1.35.136.044 1.095.33 2.318.33 1.078 0 2.408-.218 3.552-1.062 1.584-1.163 2.325-3.108 2.325-5.642zm-17.177-9.93h-.007v.054H3.717V4.32h5.074v16.548zm13.171 13.288h0c-.682.504-1.613.56-2.351.496v-5.325c0-2.91-1.423-5.436-4.032-7.293l-.002-.001a14.233 14.233 0 00-3.833-1.899l-.024-.007-.007-.002h-.002l-.001-.001-.07-.021h-.01V5.9a1.42 1.42 0 00.032-.154 2.869 2.869 0 012.807-2.401h15.917c1.229 0 2.117.276 2.723.76.594.473.98 1.196 1.113 2.233a.563.563 0 00.022.126l2.051 12.743v.001c.166 1.053-.221 2.111-.982 2.767a2.771 2.771 0 01-1.794.683H24.54c-.781 0-1.419.638-1.419 1.42v6.724c0 1.764-.447 2.826-1.16 3.351z" fill="#474356" stroke="#474356"/></svg>