<svg xmlns="http://www.w3.org/2000/svg" width="24" height="19" fill="none"><path d="M14.68 7.9c1.003 2-.464 4.34-2.68 4.34a2.99 2.99 0 01-2.985-3c0-1.654 1.3-3 3.015-3V4.098c-3 0-5.158 2.307-5.158 5.142 0 2.836 2.292 5.143 5.128 5.143a5.149 5.149 0 005.143-5.143c0-.826-.2-1.605-.549-2.297L14.68 7.9zM12 .24c-6.446 0-12 6.037-12 9 0 2.964 5.554 9 12 9 6.445 0 12-6.036 12-9 0-2.963-5.555-9-12-9zm0 15.857c-5.548 0-9.857-5.469-9.857-6.857 0-1.387 4.31-6.857 9.857-6.857s9.857 5.47 9.857 6.857c0 1.388-4.31 6.857-9.857 6.857z" fill="#474356"/></svg>