<svg xmlns="http://www.w3.org/2000/svg" width="64" height="64"><path d="M31.536 33.03c9.123-.003 16.512-7.4 16.51-16.52C48.041 7.386 40.643-.004 31.523 0c-9.12.003-16.512 7.401-16.509 16.521.012 9.117 7.404 16.504 16.521 16.51zm0-23.348a6.84 6.84 0 110 13.681 6.842 6.842 0 01-6.842-6.842 6.85 6.85 0 016.842-6.84zm6.677 36.824a30.822 30.822 0 009.594-3.973 4.843 4.843 0 00-5.162-8.196 20.973 20.973 0 01-22.236 0 4.837 4.837 0 00-6.66 1.515 4.837 4.837 0 001.51 6.678 30.932 30.932 0 009.588 3.973l-9.235 9.234a4.845 4.845 0 006.848 6.848l9.07-9.075 9.076 9.075a4.836 4.836 0 006.836 0 4.836 4.836 0 000-6.836l-9.229-9.243z"/></svg>