<svg width="64" height="64" fill="none" xmlns="http://www.w3.org/2000/svg"><path d="M32 64c17.673 0 32-14.327 32-32C64 14.327 49.673 0 32 0 14.327 0 0 14.327 0 32c0 17.673 14.327 32 32 32z" fill="url(#paint0_linear_76_5295)"/><path class="telegram-white-bg" d="M32 64c17.673 0 32-14.327 32-32C64 14.327 49.673 0 32 0 14.327 0 0 14.327 0 32c0 17.673 14.327 32 32 32z" fill="#FFF"/><path class="telegram-icon" d="M13.318 31.723l21.55-8.88c2.126-.924 9.34-3.884 9.34-3.884s3.33-1.294 3.052 1.85c-.092 1.295-.832 5.827-1.572 10.729l-2.312 14.52s-.185 2.127-1.757 2.497c-1.573.37-4.162-1.295-4.625-1.665-.37-.277-6.936-4.44-9.34-6.474-.648-.555-1.388-1.665.092-2.96 3.33-3.051 7.306-6.843 9.71-9.248 1.11-1.11 2.22-3.7-2.404-.555l-13.04 8.786s-1.48.925-4.255.093c-2.774-.833-6.011-1.942-6.011-1.942s-2.22-1.388 1.572-2.868z" fill="#fff"/><defs><linearGradient id="paint0_linear_76_5295" x1="42.669" y1="10.669" x2="26.669" y2="48" gradientUnits="userSpaceOnUse"><stop stop-color="#37AEE2"/><stop offset="1" stop-color="#1E96C8"/></linearGradient></defs></svg>