<svg width="64" height="64" fill="none" xmlns="http://www.w3.org/2000/svg"><path clip-rule="evenodd" d="M41.813 0C59.733 0 64 4.267 64 22.187v19.626C64 59.733 59.733 64 41.813 64H22.187C4.267 64 0 59.733 0 41.813V22.187C0 4.267 4.267 0 22.187 0h19.626zm-24.48 20h-4.666c-1.334 0-1.6.64-1.6 1.307 0 1.253 1.573 7.386 7.36 15.493a18.266 18.266 0 0014.24 8.533c2.96 0 3.333-.666 3.333-1.813v-4.187c0-1.333.293-1.6 1.227-1.6.933 0 1.866.347 4.64 3.014 3.173 3.173 3.68 4.586 5.466 4.586H52c1.333 0 2-.666 1.627-1.973a19.816 19.816 0 00-3.947-5.467c-1.093-1.306-2.667-2.666-3.227-3.36-.56-.693-.48-1.306 0-2.08a58.212 58.212 0 006.294-10.666c.293-.987 0-1.707-1.414-1.707h-4.666a2.053 2.053 0 00-2.027 1.307 39.122 39.122 0 01-5.733 9.546c-1.094 1.094-1.6 1.44-2.187 1.44-.587 0-.72-.346-.72-1.333v-9.333C36 20.533 35.653 20 34.667 20h-7.334a1.146 1.146 0 00-1.2 1.067c0 1.12 1.707 1.386 1.867 4.56v6.853c0 1.52-.267 1.787-.853 1.787-1.6 0-5.334-5.814-7.734-12.454-.426-1.28-.746-1.813-2.08-1.813z"/></svg>