<svg width="160" height="46" fill="none" xmlns="http://www.w3.org/2000/svg"><path d="M51.052 10.585a6.467 6.467 0 00-4.55-4.55C42.465 4.93 26.309 4.93 26.309 4.93s-16.157 0-20.196 1.063c-2.168.596-3.954 2.381-4.55 4.592C.5 14.625.5 23 .5 23s0 8.418 1.063 12.415a6.467 6.467 0 004.55 4.55c4.08 1.104 20.195 1.104 20.195 1.104s16.156 0 20.195-1.062a6.467 6.467 0 004.55-4.55c1.062-4.039 1.062-12.415 1.062-12.415s.043-8.418-1.063-12.457z" fill="red"/><path d="M21.164 15.262v15.475L34.598 23l-13.434-7.738z" fill="#fff"/><g fill="#282828" class="youtube-text"><path d="M72.313 38.22c-1.02-.68-1.743-1.743-2.169-3.231-.425-1.445-.637-3.401-.637-5.782v-3.273c0-2.423.255-4.379.723-5.867.51-1.488 1.275-2.55 2.295-3.23 1.063-.681 2.423-1.021 4.124-1.021 1.658 0 3.018.34 4.039 1.02 1.02.68 1.743 1.786 2.21 3.231.468 1.445.723 3.401.723 5.867v3.273c0 2.424-.212 4.337-.68 5.825-.468 1.445-1.19 2.55-2.21 3.23-1.021.68-2.424 1.02-4.167 1.02-1.786-.042-3.231-.382-4.251-1.062zm5.739-3.571c.297-.723.425-1.956.425-3.614v-7.057c0-1.615-.127-2.806-.425-3.57-.298-.766-.765-1.106-1.488-1.106-.68 0-1.19.383-1.445 1.105-.298.765-.426 1.956-.426 3.571v7.057c0 1.658.128 2.891.425 3.614.256.723.766 1.105 1.489 1.105.68 0 1.147-.34 1.445-1.105zm72.747-5.399v1.148c0 1.445.043 2.55.128 3.273.085.723.255 1.276.552 1.573.255.34.681.51 1.276.51.765 0 1.275-.297 1.573-.892.297-.596.425-1.573.467-2.976l4.379.255c.043.212.043.467.043.808 0 2.083-.553 3.656-1.701 4.676-1.148 1.02-2.763 1.53-4.846 1.53-2.509 0-4.252-.807-5.272-2.38-1.02-1.573-1.53-3.996-1.53-7.313V25.51c0-3.401.51-5.867 1.573-7.44 1.062-1.573 2.848-2.338 5.356-2.338 1.743 0 3.104.34 4.039.978.935.637 1.573 1.658 1.956 2.976.382 1.36.552 3.23.552 5.611v3.869h-8.545v.085zm.638-9.523c-.255.34-.425.85-.51 1.573-.085.723-.128 1.828-.128 3.316v1.616h3.741v-1.616c0-1.445-.042-2.55-.127-3.316-.085-.765-.298-1.275-.553-1.573-.255-.298-.68-.468-1.19-.468-.595-.042-.978.128-1.233.468zm-91.539 9.099l-5.783-20.96h5.06l2.04 9.48c.51 2.339.893 4.337 1.148 5.995h.128c.17-1.19.553-3.146 1.148-5.952l2.126-9.524h5.06l-5.868 20.96V38.86H59.94V28.826h-.042zm40.179-12.585v22.66h-3.996l-.425-2.764h-.128c-1.063 2.083-2.72 3.146-4.889 3.146-1.488 0-2.593-.51-3.316-1.488-.723-.978-1.063-2.508-1.063-4.634v-16.92h5.102v16.623c0 1.02.127 1.742.34 2.168.212.425.595.637 1.105.637.425 0 .85-.127 1.276-.425a2.07 2.07 0 00.892-1.02V16.24h5.102zm26.146 0v22.66h-3.996l-.425-2.764h-.127c-1.063 2.083-2.721 3.146-4.889 3.146-1.488 0-2.594-.51-3.316-1.488-.723-.978-1.063-2.508-1.063-4.634v-16.92h5.101v16.623c0 1.02.128 1.742.34 2.168.213.425.596.637 1.106.637.425 0 .85-.127 1.275-.425.425-.255.723-.595.893-1.02V16.24h5.101z"/><path d="M113.938 11.99h-5.06v26.87h-4.974V11.99h-5.06V7.864h15.094v4.124zm29.167 7.865c-.297-1.446-.807-2.466-1.488-3.104-.68-.638-1.658-.978-2.848-.978a4.58 4.58 0 00-2.636.808 5.199 5.199 0 00-1.871 2.083h-.042V6.717h-4.932V38.86h4.209l.51-2.126h.127c.383.765.978 1.36 1.786 1.828.808.425 1.658.68 2.636.68 1.743 0 2.976-.808 3.784-2.38.808-1.574 1.233-4.082 1.233-7.441v-3.572c-.042-2.593-.17-4.591-.468-5.994zm-4.676 9.226c0 1.658-.085 2.933-.213 3.869-.127.935-.383 1.615-.68 1.998-.34.383-.765.595-1.276.595-.425 0-.807-.085-1.148-.297a2.459 2.459 0 01-.85-.893v-12.84c.17-.595.468-1.106.893-1.53.425-.383.893-.596 1.36-.596.511 0 .936.213 1.191.595.298.425.468 1.106.595 2.041.128.978.17 2.338.17 4.082v2.976h-.042z"/></g></svg>