<svg xmlns="http://www.w3.org/2000/svg" width="24" height="19" viewBox="0 0 24 19" fill="none">
  <path d="M14.68 7.9002C15.6829 9.89945 14.2155 12.2403 11.9998 12.2403C10.3455 12.2403 9.01484 10.8946 9.01484 9.24032C9.01484 7.58606 10.3155 6.24037 12.0298 6.24037V4.09755C9.02984 4.09755 6.87202 6.40451 6.87202 9.24032C6.87202 12.0761 9.16398 14.3831 11.9998 14.3831C14.8356 14.3831 17.1426 12.0761 17.1426 9.24032C17.1426 8.41405 16.9424 7.63535 16.5944 6.94322L14.68 7.9002ZM11.9998 0.240479C5.55419 0.240479 0 6.27723 0 9.24032C0 12.2038 5.55419 18.2402 11.9998 18.2402C18.4454 18.2402 24 12.2038 24 9.24032C24 6.27723 18.4454 0.240479 12.0002 0.240479H11.9998ZM11.9998 16.0973C6.45246 16.0973 2.14282 10.628 2.14282 9.24032C2.14282 7.85263 6.45246 2.3833 11.9998 2.3833C17.5471 2.3833 21.8568 7.85263 21.8568 9.24032C21.8568 10.628 17.5471 16.0973 11.9998 16.0973Z" fill="#474356"/>
</svg>