<svg width="64" height="64" viewBox="0 0 64 64" fill="none" xmlns="http://www.w3.org/2000/svg">

<path fill-rule="evenodd" clip-rule="evenodd" d="M41.8133 0C59.7333 0 64 4.26667 64 22.1867V41.8133C64 59.7333 59.7333 64 41.8133 64H22.1867C4.26667 64 0 59.7333 0 41.8133V22.1867C0 4.26667 4.26667 0 22.1867 0H41.8133ZM17.3333 20H12.6667C11.3333 20 11.0667 20.64 11.0667 21.3067C11.0667 22.56 12.64 28.6933 18.4267 36.8C19.9575 39.246 22.0461 41.2945 24.5213 42.7778C26.9964 44.261 29.7878 45.1368 32.6667 45.3333C35.6267 45.3333 36 44.6667 36 43.52V39.3333C36 38 36.2933 37.7333 37.2267 37.7333C38.16 37.7333 39.0933 38.08 41.8667 40.7467C45.04 43.92 45.5467 45.3333 47.3333 45.3333H52C53.3333 45.3333 54 44.6667 53.6267 43.36C52.6331 41.3257 51.2982 39.4767 49.68 37.8933C48.5867 36.5867 47.0133 35.2267 46.4533 34.5333C45.8933 33.84 45.9733 33.2267 46.4533 32.4533C48.9244 29.1317 51.0342 25.5559 52.7467 21.7867C53.04 20.8 52.7467 20.08 51.3333 20.08H46.6667C46.2342 20.0562 45.8053 20.1698 45.4413 20.4045C45.0773 20.6392 44.7968 20.983 44.64 21.3867C43.1939 24.826 41.2632 28.0408 38.9067 30.9333C37.8133 32.0267 37.3067 32.3733 36.72 32.3733C36.1333 32.3733 36 32.0267 36 31.04V21.7067C36 20.5333 35.6533 20 34.6667 20H27.3333C27.0335 19.9853 26.7399 20.0888 26.5155 20.2883C26.2911 20.4877 26.1539 20.7672 26.1333 21.0667C26.1333 22.1867 27.84 22.4533 28 25.6267V32.48C28 34 27.7333 34.2667 27.1467 34.2667C25.5467 34.2667 21.8133 28.4533 19.4133 21.8133C18.9867 20.5333 18.6667 20 17.3333 20Z"/>

</svg>
