<svg width="36" height="36" viewBox="0 0 36 36" fill="none" xmlns="http://www.w3.org/2000/svg">
<circle cx="18" cy="18" r="17" fill="#486EF4"/>
<path fill-rule="evenodd" clip-rule="evenodd" d="M25.3372 21.3374C24.8608 20.7657 24.3002 20.2779 23.7698 19.7599C23.2912 19.2929 23.2611 19.0221 23.6458 18.4831C24.0656 17.8949 24.5171 17.3293 24.9408 16.7438C25.3362 16.1965 25.7405 15.6508 25.9486 14.9956C26.0806 14.5787 25.9638 14.3946 25.5365 14.3216C25.4629 14.3089 25.3868 14.3082 25.3118 14.3082L22.7767 14.3052C22.4645 14.3006 22.2919 14.4368 22.1815 14.7136C22.0324 15.0878 21.8787 15.4617 21.7011 15.8228C21.2982 16.6416 20.8482 17.433 20.2172 18.1031C20.0781 18.2509 19.9242 18.4377 19.6918 18.3607C19.4009 18.2546 19.3152 17.7752 19.32 17.6131L19.3175 14.6859C19.2612 14.2677 19.1685 14.0813 18.7534 14L16.12 14.0005C15.7685 14.0005 15.5922 14.1363 15.4045 14.3563C15.2962 14.4834 15.2636 14.5658 15.4861 14.6079C15.9232 14.6909 16.1694 14.9739 16.2347 15.4123C16.3395 16.1128 16.3322 16.8161 16.2719 17.5194C16.2541 17.7247 16.2188 17.9296 16.1374 18.1214C16.0101 18.4227 15.8044 18.4841 15.5343 18.2987C15.2898 18.1308 15.118 17.8939 14.9498 17.6561C14.3183 16.7633 13.8144 15.8006 13.4035 14.7889C13.2847 14.4966 13.08 14.3195 12.7704 14.3147C12.0098 14.3026 11.2491 14.3006 10.4885 14.3153C10.0308 14.324 9.89436 14.5462 10.0807 14.9613C10.9091 16.8046 11.8312 18.5968 13.0349 20.2293C13.6529 21.0671 14.3624 21.8068 15.279 22.331C16.3178 22.9251 17.436 23.1039 18.6138 23.0489C19.1653 23.023 19.331 22.8795 19.3565 22.3296C19.3737 21.9534 19.4164 21.5794 19.6019 21.2413C19.784 20.9096 20.0597 20.8464 20.3776 21.0527C20.5366 21.1561 20.6706 21.2876 20.7971 21.4263C21.1075 21.766 21.4068 22.116 21.729 22.4442C22.133 22.8556 22.6117 23.0986 23.2136 23.049L25.5437 23.0495C25.9191 23.025 26.1137 22.5645 25.8982 22.1453C25.7468 21.8517 25.5481 21.5903 25.3372 21.3374Z" fill="white"/>
</svg>
