<svg width="273" height="40" viewBox="0 0 273 40" fill="none" xmlns="http://www.w3.org/2000/svg">
<path fill-rule="evenodd" clip-rule="evenodd" d="M29.8392 8.41726C29.4437 3.70391 25.4301 0 20.5371 0C15.6441 0 11.6305 3.70391 11.235 8.41726H3.42253C1.5321 8.41726 0 9.92463 0 11.7841V36.6332C0 38.492 1.53232 40 3.42253 40H37.6517C39.5421 40 41.0742 38.4926 41.0742 36.6332V11.7841C41.0742 9.92531 39.5419 8.41726 37.6517 8.41726H29.8392ZM20.5399 4.89857C22.6794 4.89923 24.4582 6.41735 24.8251 8.41823H16.252C16.619 6.41627 18.3994 4.89791 20.5399 4.89857Z" fill="black"/>
<path fill-rule="evenodd" clip-rule="evenodd" d="M27.5441 6.69884C26.474 3.63699 23.4626 1.62063 20.1467 1.79407C16.7078 1.97393 13.8484 4.4616 13.2463 7.79743C13.2088 8.08918 13.4105 8.3586 13.7049 8.40983C13.9992 8.46106 14.2827 8.27609 14.3491 7.98937C14.8787 5.03797 17.4831 2.88486 20.5294 2.87989C23.2217 2.8755 25.5745 4.5501 26.4574 6.97556L25.6272 7.18694L27.6033 9.16736L28.3653 6.48975L27.5441 6.69884ZM7.49979 37.476V23.8904H10.2127V21.6436H2.27926V23.8904H4.96962V37.476H7.49979ZM17.6833 37.478L15.5824 30.9843H14.1571V37.478H11.6269V21.6436H15.6953C18.6342 21.6436 19.8027 23.0438 19.8027 26.3129C19.8027 28.2708 19.392 29.671 17.9277 30.4488L20.3326 37.478H17.6833ZM24.4016 21.6443H21.8714V37.4767H24.4016V21.6443ZM30.5269 31.2961H29.0133V37.4787H26.4811V21.6443H30.5269C33.4432 21.6443 34.6631 23.1334 34.6631 26.4469C34.6631 29.6494 33.5787 31.2961 30.5269 31.2961ZM36.4911 37.1212C36.7882 37.4134 37.1917 37.5767 37.6119 37.5745C38.0324 37.5772 38.4365 37.4142 38.7341 37.1219C39.0316 36.8295 39.1978 36.4322 39.1956 36.0185C39.2165 35.4488 38.9195 34.9134 38.4212 34.6225C37.9229 34.3316 37.3029 34.3316 36.8047 34.6225C36.3064 34.9134 36.0094 35.4488 36.0302 36.0185C36.028 36.4318 36.194 36.8289 36.4911 37.1212ZM36.4183 21.6506H38.815V33.036H36.4183V21.6506ZM4.3255 19.1953C4.95404 19.2273 5.56169 18.9687 5.96847 18.4963C6.58499 17.8104 6.58482 16.6287 6.58459 15.0427L6.58459 14.9503L6.58459 14.8579C6.58482 13.272 6.58499 12.0922 5.96847 11.4044C5.56169 10.9319 4.95404 10.6734 4.3255 10.7053C3.69692 10.6731 3.08912 10.9317 2.68254 11.4044C2.06602 12.0902 2.06619 13.2719 2.06641 14.8579L2.06642 14.9503L2.06641 15.0427C2.06619 16.6287 2.06602 17.8104 2.68254 18.4963C3.08912 18.969 3.69692 19.2276 4.3255 19.1953ZM11.2121 19.1059L9.21999 14.1719V19.1059H7.89124V10.7998H9.07828L11.0581 15.7337V10.7998H12.3868V19.1059H11.2121ZM13.8166 10.8002V19.1063H17.3655V17.9284H15.1454V15.514H17.0574V14.334H15.1454V11.9781H17.3655V10.8002H13.8166ZM23.2607 11.979V19.1072H21.9319V11.979H20.521V10.8011H24.6839V11.979H23.2607ZM30.839 19.1066H32.2273L33.8148 10.8004H32.3567L31.5393 17.1002L30.3646 10.8004H28.8942L27.7318 17.1002L26.9021 10.8004H25.4439L27.0438 19.1066H28.4321L29.6294 12.7946L30.839 19.1066ZM38.3894 18.5003C37.9663 18.9473 37.3734 19.2012 36.7526 19.2012C36.1317 19.2012 35.5388 18.9473 35.1158 18.5003C34.4992 17.8145 34.4994 16.6328 34.4996 15.0468L34.4997 14.9544L34.4996 14.862C34.4994 13.276 34.4992 12.0943 35.1158 11.4085C35.5391 10.962 36.1319 10.7085 36.7526 10.7085C37.3732 10.7085 37.966 10.962 38.3894 11.4085C39.0059 12.0943 39.0057 13.276 39.0055 14.862L39.0055 14.9544L39.0055 15.0468C39.0057 16.6328 39.0059 17.8145 38.3894 18.5003ZM15.7198 23.8936H14.1608V28.7436H15.7198C17.0755 28.7436 17.2789 27.6322 17.2789 26.3186C17.2789 25.0051 17.0735 23.8936 15.7198 23.8936ZM29.0202 23.8908H30.5792V23.8888C31.9329 23.8888 32.1383 25.067 32.1383 26.4694C32.1383 27.8719 31.9349 29.0501 30.5792 29.0501H29.0202V23.8908ZM4.97924 12.1988C4.84055 11.9861 4.59459 11.8651 4.33836 11.8836C4.08335 11.8628 3.83806 11.9846 3.70365 12.1988C3.4551 12.603 3.40786 13.4356 3.40786 14.9532C3.40786 16.4709 3.46127 17.3095 3.70365 17.7056C3.83702 17.9178 4.07932 18.0393 4.3322 18.0209C4.58843 18.0394 4.83438 17.9184 4.97308 17.7056C5.22162 17.3015 5.2586 16.4689 5.2586 14.9512C5.2586 13.4336 5.22368 12.5949 4.97308 12.1968L4.97924 12.1988ZM36.7622 11.8831C37.0149 11.8684 37.2559 11.9889 37.3928 12.1984L37.4031 12.1964C37.6537 12.5945 37.6886 13.4331 37.6886 14.9508C37.6886 16.4684 37.6516 17.301 37.4031 17.7052C37.2644 17.9179 37.0184 18.0389 36.7622 18.0204C36.5098 18.0393 36.2676 17.9186 36.1337 17.7072C35.8851 17.3091 35.8379 16.4704 35.8379 14.9528C35.8379 13.4351 35.8851 12.6025 36.1337 12.1984C36.267 11.9862 36.5093 11.8647 36.7622 11.8831Z" fill="white"/>
<path d="M67.6944 28.8994H69.737V34.7048H67.345V31.1571H56.9169V34.7048H54.498V28.8994H55.9494C56.4152 28.3619 56.7646 27.7796 56.9976 27.1525C57.2484 26.5253 57.4276 25.6205 57.5351 24.4379L58.1264 17.8801H67.6944V28.8994ZM60.3571 20.0839L60.0077 24.6261C59.9361 25.6115 59.7748 26.4537 59.524 27.1525C59.291 27.8333 58.9596 28.4605 58.5295 29.0338H65.1949V20.0839H60.3571Z" fill="black"/>
<path d="M74.1318 17.8801H83.6729V31.1571H81.1734V20.1377H76.3357L75.9594 24.5186C75.834 26.0774 75.61 27.2958 75.2875 28.1738C74.9829 29.0517 74.526 29.7326 73.9168 30.2164C73.3076 30.7002 72.4475 31.1033 71.3366 31.4258L70.7453 29.2757C71.4441 29.0607 71.9727 28.7919 72.331 28.4694C72.6894 28.129 72.9582 27.6631 73.1373 27.0718C73.3165 26.4626 73.4599 25.5847 73.5674 24.4379L74.1318 17.8801Z" fill="black"/>
<path d="M97.7796 17.8801V31.1571H95.2532V26.6956H92.9418L89.3134 31.1571H86.3302L90.1735 26.5074C89.1343 26.2566 88.319 25.7638 87.7277 25.0292C87.1364 24.2767 86.8408 23.3808 86.8408 22.3416C86.8408 20.9619 87.2798 19.8779 88.1578 19.0895C89.0357 18.2832 90.2452 17.8801 91.7861 17.8801H97.7796ZM89.2597 22.2341C89.2597 22.9866 89.4837 23.56 89.9316 23.9542C90.3795 24.3304 91.0067 24.5186 91.813 24.5186H95.28V20.0571H91.813C90.9888 20.0571 90.3527 20.2631 89.9047 20.6752C89.4747 21.0694 89.2597 21.589 89.2597 22.2341Z" fill="black"/>
<path d="M114.258 31.4527C112.055 31.4527 110.334 30.736 109.098 29.3026C107.88 27.8513 107.271 25.8266 107.271 23.2285V22.5297C107.271 19.6091 107.933 17.3425 109.259 15.7299C110.585 14.1173 112.61 13.114 115.334 12.7198C116.409 12.5585 117.233 12.3972 117.806 12.236C118.397 12.0747 119.078 11.806 119.849 11.4297L120.789 13.5798C120.091 13.9919 119.347 14.3234 118.559 14.5742C117.788 14.8072 116.883 14.9863 115.844 15.1118C114.447 15.273 113.309 15.5687 112.431 15.9987C111.571 16.4287 110.908 17.0379 110.442 17.8263C109.994 18.5968 109.707 19.6181 109.582 20.8902L109.663 20.9171C110.254 19.9495 110.971 19.2597 111.813 18.8476C112.673 18.4176 113.685 18.2026 114.85 18.2026C116.158 18.2026 117.295 18.4713 118.263 19.0089C119.249 19.5464 120.001 20.3079 120.521 21.2934C121.058 22.2609 121.327 23.3987 121.327 24.7067C121.327 26.0684 121.04 27.26 120.467 28.2813C119.894 29.3026 119.069 30.091 117.994 30.6464C116.937 31.1839 115.692 31.4527 114.258 31.4527ZM114.393 29.1682C115.719 29.1682 116.785 28.774 117.591 27.9856C118.415 27.1793 118.827 26.1222 118.827 24.8142C118.827 23.4525 118.415 22.3684 117.591 21.5621C116.785 20.7558 115.71 20.3527 114.366 20.3527C113.022 20.3527 111.938 20.7558 111.114 21.5621C110.308 22.3505 109.904 23.3987 109.904 24.7067C109.904 26.0684 110.308 27.1525 111.114 27.9588C111.938 28.7651 113.031 29.1682 114.393 29.1682Z" fill="black"/>
<path d="M124.242 31.1571V17.8801H126.741V23.6854C126.741 25.1367 126.714 26.2835 126.66 27.1256L126.714 27.1525C127.198 26.4895 127.745 25.7907 128.354 25.0561L134.455 17.8801H136.444V31.1571H133.944V25.0561C133.944 23.7302 133.962 22.691 133.998 21.9384L133.944 21.9115C133.299 22.8253 132.699 23.5958 132.143 24.2229L126.311 31.1571H124.242Z" fill="black"/>
<path d="M144.488 31.5602C143.413 31.5602 142.446 31.4258 141.586 31.1571C140.726 30.8883 139.902 30.5031 139.113 30.0014L140.134 28.0125C140.977 28.4963 141.711 28.8457 142.338 29.0607C142.965 29.2578 143.682 29.3563 144.488 29.3563C145.402 29.3563 146.119 29.1682 146.639 28.7919C147.176 28.4157 147.445 27.905 147.445 27.26C147.445 26.6866 147.23 26.2297 146.8 25.8893C146.37 25.5488 145.814 25.3786 145.133 25.3786H142.258V23.2822H144.999C145.626 23.2822 146.128 23.1299 146.504 22.8253C146.898 22.5028 147.095 22.0728 147.095 21.5353C147.095 20.9619 146.854 20.505 146.37 20.1646C145.886 19.8241 145.25 19.6539 144.462 19.6539C143.817 19.6539 143.207 19.7525 142.634 19.9495C142.061 20.1466 141.389 20.4512 140.618 20.8634L139.516 19.0626C140.358 18.5072 141.165 18.104 141.935 17.8532C142.706 17.6023 143.575 17.4769 144.542 17.4769C146.065 17.4769 147.275 17.8263 148.171 18.5251C149.066 19.2239 149.514 20.1735 149.514 21.374C149.514 22.019 149.344 22.6014 149.004 23.121C148.681 23.6406 148.188 24.0348 147.526 24.3035V24.3573C148.278 24.644 148.86 25.074 149.272 25.6474C149.702 26.2028 149.918 26.821 149.918 27.5019C149.918 28.7561 149.434 29.7505 148.466 30.4852C147.499 31.2019 146.173 31.5602 144.488 31.5602Z" fill="black"/>
<path d="M162.593 23.121V17.8801H165.092V31.1571H162.593V25.3786H155.39V31.1571H152.89V17.8801H155.39V23.121H162.593Z" fill="black"/>
<path d="M181.119 24.3573C181.119 24.6261 181.102 24.9934 181.066 25.4592H170.557C170.629 26.606 171.068 27.5198 171.874 28.2006C172.68 28.8815 173.693 29.222 174.911 29.222C175.664 29.222 176.425 29.0965 177.196 28.8457C177.966 28.5769 178.647 28.1738 179.238 27.6362L180.501 29.3563C179.82 30.0551 178.969 30.5837 177.948 30.9421C176.927 31.2825 175.896 31.4527 174.857 31.4527C173.513 31.4527 172.322 31.166 171.283 30.5927C170.261 30.0014 169.464 29.1861 168.891 28.1469C168.317 27.0898 168.031 25.8803 168.031 24.5186C168.031 23.1747 168.317 21.9832 168.891 20.944C169.482 19.8868 170.297 19.0626 171.336 18.4713C172.376 17.8801 173.567 17.5844 174.911 17.5844C176.774 17.5844 178.271 18.1667 179.399 19.3314C180.546 20.496 181.119 22.1713 181.119 24.3573ZM174.804 19.8152C173.693 19.8152 172.752 20.1287 171.981 20.7558C171.229 21.365 170.763 22.252 170.584 23.4166H178.781C178.71 22.252 178.315 21.365 177.599 20.7558C176.9 20.1287 175.968 19.8152 174.804 19.8152Z" fill="black"/>
<path d="M189.682 31.4527C188.392 31.4527 187.219 31.1839 186.161 30.6464C185.122 30.1089 184.298 29.3205 183.689 28.2813C183.08 27.2241 182.775 25.9789 182.775 24.5454C182.775 23.112 183.08 21.8757 183.689 20.8365C184.316 19.7793 185.158 18.973 186.215 18.4176C187.29 17.8621 188.482 17.5844 189.79 17.5844C190.668 17.5844 191.492 17.7098 192.262 17.9607C193.051 18.2115 193.749 18.5788 194.359 19.0626L193.096 20.944C192.146 20.2273 191.035 19.8689 189.763 19.8689C188.921 19.8689 188.159 20.0571 187.478 20.4333C186.797 20.7917 186.26 21.3203 185.866 22.019C185.472 22.7178 185.274 23.542 185.274 24.4917C185.274 25.4772 185.472 26.3193 185.866 27.0181C186.26 27.7169 186.788 28.2544 187.451 28.6307C188.132 28.989 188.876 29.1682 189.682 29.1682C190.345 29.1682 190.972 29.0697 191.564 28.8726C192.173 28.6755 192.773 28.335 193.364 27.8513L194.52 29.8401C193.212 30.9152 191.599 31.4527 189.682 31.4527Z" fill="black"/>
<path d="M201.536 17.6382C203.507 17.6382 205.066 18.0413 206.213 18.8476C207.377 19.6539 207.96 20.9709 207.96 22.7985V31.1571H205.783C205.783 30.1178 205.8 29.3384 205.836 28.8188H205.783C205.335 29.643 204.654 30.2791 203.74 30.727C202.844 31.1571 201.885 31.3721 200.864 31.3721C199.431 31.3721 198.221 31.0137 197.236 30.297C196.25 29.5624 195.758 28.4963 195.758 27.0987C195.758 26.1491 195.999 25.3428 196.483 24.6798C196.967 24.0169 197.612 23.5241 198.418 23.2016C199.243 22.8612 200.129 22.691 201.079 22.691C202.835 22.691 204.295 23.0314 205.46 23.7123V22.7985C205.46 21.7592 205.084 21.0067 204.331 20.5408C203.579 20.0571 202.602 19.8152 201.402 19.8152C200.774 19.8152 200.103 19.8958 199.386 20.0571C198.669 20.2183 198.006 20.4244 197.397 20.6752L196.752 18.6595C198.329 17.9786 199.923 17.6382 201.536 17.6382ZM201.321 29.2757C202.414 29.2757 203.364 28.9711 204.17 28.3619C204.976 27.7527 205.433 26.9106 205.541 25.8355C205.021 25.513 204.385 25.2532 203.632 25.0561C202.88 24.8411 202.181 24.7336 201.536 24.7336C200.586 24.7336 199.798 24.9307 199.171 25.3249C198.562 25.7011 198.257 26.2566 198.257 26.9912C198.257 27.7258 198.562 28.2902 199.171 28.6844C199.78 29.0786 200.497 29.2757 201.321 29.2757Z" fill="black"/>
<rect x="216" y="9" width="56.4688" height="27.792" rx="8" fill="#486EF4"/>
<path d="M230.16 28.792C229.563 28.792 229.008 28.6907 228.496 28.488C227.995 28.2853 227.557 27.9813 227.184 27.576C226.811 27.16 226.517 26.6533 226.304 26.056C226.101 25.448 226 24.744 226 23.944V23.576C226 22.616 226.069 21.7627 226.208 21.016C226.357 20.2693 226.597 19.6347 226.928 19.112C227.269 18.5893 227.717 18.184 228.272 17.896C228.837 17.5973 229.541 17.4267 230.384 17.384C230.715 17.3733 231.04 17.3627 231.36 17.352C231.68 17.3413 231.984 17.3253 232.272 17.304C232.56 17.2827 232.821 17.2507 233.056 17.208C233.291 17.1547 233.499 17.0853 233.68 17V18.872C233.509 18.968 233.189 19.048 232.72 19.112C232.261 19.176 231.563 19.2133 230.624 19.224C230.144 19.2347 229.728 19.2933 229.376 19.4C229.035 19.496 228.747 19.656 228.512 19.88C228.288 20.0933 228.107 20.376 227.968 20.728C227.84 21.08 227.749 21.512 227.696 22.024C227.941 21.544 228.309 21.1547 228.8 20.856C229.291 20.5573 229.931 20.408 230.72 20.408C231.253 20.408 231.739 20.4933 232.176 20.664C232.613 20.824 232.992 21.064 233.312 21.384C233.632 21.704 233.877 22.0987 234.048 22.568C234.229 23.0373 234.32 23.5813 234.32 24.2V24.504C234.32 25.176 234.213 25.7787 234 26.312C233.797 26.8453 233.509 27.2987 233.136 27.672C232.763 28.0347 232.32 28.312 231.808 28.504C231.307 28.696 230.757 28.792 230.16 28.792ZM230.16 27C230.8 27 231.296 26.792 231.648 26.376C232 25.9493 232.176 25.3467 232.176 24.568V24.248C232.176 23.576 231.995 23.048 231.632 22.664C231.269 22.28 230.779 22.088 230.16 22.088C229.552 22.088 229.061 22.28 228.688 22.664C228.325 23.048 228.144 23.576 228.144 24.248V24.536C228.144 24.92 228.192 25.2667 228.288 25.576C228.395 25.8853 228.539 26.1467 228.72 26.36C228.901 26.5627 229.115 26.7227 229.36 26.84C229.605 26.9467 229.872 27 230.16 27Z" fill="white"/>
<path d="M236.239 28.792C236.154 28.792 236.047 28.7867 235.919 28.776C235.791 28.776 235.685 28.7653 235.599 28.744V26.84C235.653 26.8507 235.733 26.856 235.839 26.856C236.042 26.856 236.218 26.7973 236.367 26.68C236.517 26.552 236.639 26.3387 236.735 26.04C236.842 25.7413 236.917 25.3467 236.959 24.856C237.013 24.3547 237.039 23.736 237.039 23V20.12H243.759V28.6H241.647V21.88H238.991V23.32C238.991 24.4187 238.933 25.3253 238.815 26.04C238.709 26.744 238.538 27.2987 238.303 27.704C238.079 28.1093 237.791 28.392 237.439 28.552C237.098 28.712 236.698 28.792 236.239 28.792Z" fill="white"/>
<path d="M249.995 28.792C249.419 28.792 248.87 28.7067 248.347 28.536C247.835 28.3547 247.387 28.0827 247.003 27.72C246.619 27.3573 246.315 26.904 246.091 26.36C245.867 25.816 245.755 25.176 245.755 24.44V24.12C245.755 23.4267 245.867 22.8187 246.091 22.296C246.315 21.7733 246.619 21.336 247.003 20.984C247.387 20.632 247.835 20.3707 248.347 20.2C248.87 20.0187 249.419 19.928 249.995 19.928C250.571 19.928 251.115 20.0187 251.627 20.2C252.139 20.3707 252.587 20.632 252.971 20.984C253.366 21.336 253.675 21.7733 253.899 22.296C254.123 22.8187 254.235 23.4267 254.235 24.12V24.44C254.235 25.1653 254.123 25.8 253.899 26.344C253.675 26.888 253.366 27.3413 252.971 27.704C252.587 28.0667 252.139 28.3387 251.627 28.52C251.115 28.7013 250.571 28.792 249.995 28.792ZM249.995 27C250.592 27 251.088 26.7867 251.483 26.36C251.888 25.9333 252.091 25.2933 252.091 24.44V24.12C252.091 23.3413 251.888 22.7493 251.483 22.344C251.088 21.928 250.592 21.72 249.995 21.72C249.387 21.72 248.886 21.928 248.491 22.344C248.096 22.7493 247.899 23.3413 247.899 24.12V24.44C247.899 25.304 248.096 25.9493 248.491 26.376C248.886 26.792 249.387 27 249.995 27Z" fill="white"/>
<path d="M256.389 20.12H262.469V21.88H258.501V28.6H256.389V20.12Z" fill="white"/>
</svg>
