<svg width="273" height="40" fill="none" xmlns="http://www.w3.org/2000/svg"><path fill-rule="evenodd" clip-rule="evenodd" d="M29.84 8.417C29.443 3.704 25.43 0 20.536 0c-4.893 0-8.906 3.704-9.302 8.417H3.423C1.533 8.417 0 9.925 0 11.784v24.85C0 38.491 1.532 40 3.423 40h34.229c1.89 0 3.422-1.507 3.422-3.367V11.784c0-1.859-1.532-3.367-3.422-3.367h-7.813ZM20.54 4.9c2.14 0 3.918 1.518 4.285 3.52h-8.573c.367-2.003 2.147-3.521 4.288-3.52Z" fill="#000"/><path fill-rule="evenodd" clip-rule="evenodd" d="M27.544 6.699c-1.07-3.062-4.081-5.078-7.397-4.905-3.44.18-6.299 2.668-6.9 6.003a.553.553 0 0 0 .458.613.56.56 0 0 0 .644-.42c.53-2.952 3.134-5.105 6.18-5.11 2.693-.004 5.046 1.67 5.928 4.096l-.83.21 1.976 1.981.762-2.677-.82.209ZM7.5 37.476V23.89h2.713v-2.246H2.279v2.246h2.69v13.586H7.5Zm10.183.002-2.1-6.494h-1.426v6.494h-2.53V21.644h4.068c2.94 0 4.108 1.4 4.108 4.669 0 1.958-.411 3.358-1.875 4.136l2.405 7.029h-2.65Zm6.719-15.834h-2.53v15.833h2.53V21.644Zm6.125 9.652h-1.514v6.183h-2.532V21.644h4.046c2.916 0 4.136 1.49 4.136 4.803 0 3.202-1.084 4.85-4.136 4.85Zm5.964 5.825c.297.292.7.456 1.12.453.421.003.826-.16 1.123-.452.298-.292.464-.69.462-1.103a1.552 1.552 0 0 0-.775-1.396 1.606 1.606 0 0 0-1.616 0c-.499.29-.796.826-.775 1.396-.002.413.164.81.461 1.102Zm-.073-15.47h2.397v11.385h-2.397V21.651ZM4.325 19.195a2.032 2.032 0 0 0 1.643-.699c.617-.686.617-1.867.617-3.453v-.185c0-1.586 0-2.766-.617-3.454a2.032 2.032 0 0 0-1.643-.699 2.03 2.03 0 0 0-1.642.7c-.617.685-.617 1.867-.617 3.453v.185c0 1.586 0 2.767.617 3.453a2.03 2.03 0 0 0 1.643.7Zm6.887-.09L9.22 14.173v4.934H7.891V10.8h1.187l1.98 4.934V10.8h1.329v8.306h-1.175Zm2.605-8.305v8.306h3.549v-1.178h-2.22v-2.414h1.911v-1.18h-1.912v-2.356h2.22V10.8h-3.548Zm9.444 1.179v7.128h-1.33V11.98h-1.41v-1.178h4.163v1.178H23.26Zm7.578 7.128h1.388l1.588-8.307h-1.458l-.818 6.3-1.174-6.3h-1.47l-1.163 6.3-.83-6.3h-1.458l1.6 8.307h1.388l1.197-6.312 1.21 6.312Zm7.55-.607c-.423.447-1.016.701-1.636.701-.621 0-1.214-.254-1.637-.7-.617-.687-.617-1.868-.616-3.454v-.185c0-1.586 0-2.768.616-3.454a2.256 2.256 0 0 1 1.637-.7c.62 0 1.213.254 1.636.7.617.686.617 1.868.616 3.454v.185c0 1.586 0 2.767-.616 3.453Zm-22.67 5.394h-1.558v4.85h1.559c1.356 0 1.559-1.112 1.559-2.425 0-1.314-.206-2.425-1.56-2.425Zm13.301-.003h1.56v-.002c1.353 0 1.558 1.178 1.558 2.58 0 1.403-.203 2.581-1.559 2.581H29.02v-5.16ZM4.98 12.199a.704.704 0 0 0-.642-.315.683.683 0 0 0-.634.315c-.249.404-.296 1.237-.296 2.754 0 1.518.053 2.357.296 2.753a.683.683 0 0 0 .628.315.704.704 0 0 0 .641-.315c.249-.404.286-1.237.286-2.755 0-1.517-.035-2.356-.286-2.754l.006.002Zm31.782-.316a.704.704 0 0 1 .63.315l.011-.002c.25.399.286 1.237.286 2.755 0 1.517-.037 2.35-.286 2.754a.704.704 0 0 1-.64.315.683.683 0 0 1-.63-.313c-.248-.398-.295-1.237-.295-2.754 0-1.518.047-2.35.296-2.755a.683.683 0 0 1 .628-.315Z" fill="#fff"/><path d="M67.694 28.9h2.043v5.805h-2.392v-3.548H56.917v3.548h-2.419v-5.806h1.451a5.675 5.675 0 0 0 1.049-1.747c.25-.627.43-1.532.537-2.714l.591-6.558h9.568V28.9Zm-7.337-8.816-.35 4.542c-.07.985-.232 1.828-.483 2.526a6.766 6.766 0 0 1-.995 1.882h6.666v-8.95h-4.838ZM74.132 17.88h9.54v13.277h-2.499v-11.02h-4.837l-.377 4.382c-.125 1.558-.349 2.777-.672 3.655-.304.878-.761 1.559-1.37 2.042-.61.484-1.47.887-2.58 1.21l-.592-2.15c.7-.215 1.228-.484 1.586-.807.358-.34.627-.806.806-1.397.18-.61.323-1.487.43-2.634l.565-6.558ZM97.78 17.88v13.277h-2.527v-4.461h-2.311l-3.629 4.461H86.33l3.844-4.65c-1.04-.25-1.855-.743-2.446-1.478-.592-.752-.887-1.648-.887-2.687 0-1.38.439-2.464 1.317-3.252.878-.807 2.087-1.21 3.628-1.21h5.994Zm-8.52 4.354c0 .753.224 1.326.672 1.72.447.376 1.075.565 1.881.565h3.467v-4.462h-3.467c-.824 0-1.46.206-1.908.618-.43.394-.645.914-.645 1.56ZM114.258 31.453c-2.203 0-3.924-.717-5.16-2.15-1.218-1.452-1.827-3.476-1.827-6.075v-.698c0-2.92.662-5.188 1.988-6.8 1.326-1.613 3.351-2.616 6.075-3.01 1.075-.162 1.899-.323 2.472-.484.591-.161 1.272-.43 2.043-.806l.94 2.15c-.698.412-1.442.743-2.23.994-.771.233-1.676.412-2.715.538-1.397.161-2.535.457-3.413.887-.86.43-1.523 1.039-1.989 1.827-.448.77-.735 1.792-.86 3.064l.081.027c.591-.968 1.308-1.657 2.15-2.07.86-.43 1.872-.644 3.037-.644 1.308 0 2.445.268 3.413.806a5.442 5.442 0 0 1 2.258 2.284c.537.968.806 2.106.806 3.414 0 1.361-.287 2.553-.86 3.574-.573 1.022-1.398 1.81-2.473 2.365-1.057.538-2.302.807-3.736.807Zm.135-2.285c1.326 0 2.392-.394 3.198-1.182.824-.807 1.236-1.864 1.236-3.172 0-1.361-.412-2.446-1.236-3.252-.806-.806-1.881-1.21-3.225-1.21s-2.428.404-3.252 1.21c-.806.788-1.21 1.837-1.21 3.145 0 1.361.404 2.445 1.21 3.252.824.806 1.917 1.21 3.279 1.21ZM124.242 31.157V17.88h2.499v5.805c0 1.452-.027 2.599-.081 3.44l.054.027a43.41 43.41 0 0 1 1.64-2.096l6.101-7.176h1.989v13.277h-2.5v-6.1c0-1.327.018-2.366.054-3.119l-.054-.026a26.879 26.879 0 0 1-1.801 2.31l-5.832 6.935h-2.069ZM144.488 31.56c-1.075 0-2.042-.134-2.902-.403a10.348 10.348 0 0 1-2.473-1.156l1.021-1.989c.843.484 1.577.834 2.204 1.049.627.197 1.344.295 2.15.295.914 0 1.631-.188 2.151-.564.537-.376.806-.887.806-1.532 0-.573-.215-1.03-.645-1.37-.43-.341-.986-.511-1.667-.511h-2.875v-2.097h2.741c.627 0 1.129-.152 1.505-.457.394-.322.591-.752.591-1.29 0-.573-.241-1.03-.725-1.37-.484-.34-1.12-.511-1.908-.511-.645 0-1.255.099-1.828.296-.573.197-1.245.501-2.016.913l-1.102-1.8c.842-.556 1.649-.959 2.419-1.21.771-.25 1.64-.376 2.607-.376 1.523 0 2.733.35 3.629 1.048.895.699 1.343 1.649 1.343 2.849 0 .645-.17 1.227-.51 1.747-.323.52-.816.914-1.478 1.183v.053c.752.287 1.334.717 1.746 1.29.43.556.646 1.174.646 1.855 0 1.254-.484 2.248-1.452 2.983-.967.717-2.293 1.075-3.978 1.075ZM162.593 23.121v-5.24h2.499v13.276h-2.499V25.38h-7.203v5.778h-2.5V17.88h2.5v5.241h7.203ZM181.119 24.357c0 .27-.017.636-.053 1.102h-10.509c.072 1.147.511 2.06 1.317 2.742.806.68 1.819 1.021 3.037 1.021.753 0 1.514-.126 2.285-.376a5.882 5.882 0 0 0 2.042-1.21l1.263 1.72c-.681.7-1.532 1.228-2.553 1.586a9.72 9.72 0 0 1-3.091.51c-1.344 0-2.535-.286-3.574-.86a6.27 6.27 0 0 1-2.392-2.445c-.574-1.057-.86-2.267-.86-3.628 0-1.344.286-2.536.86-3.575a6.36 6.36 0 0 1 2.445-2.473c1.04-.59 2.231-.887 3.575-.887 1.863 0 3.36.583 4.488 1.747 1.147 1.165 1.72 2.84 1.72 5.026Zm-6.315-4.542c-1.111 0-2.052.314-2.823.94-.752.61-1.218 1.497-1.397 2.662h8.197c-.071-1.165-.466-2.052-1.182-2.661-.699-.627-1.631-.94-2.795-.94ZM189.682 31.453c-1.29 0-2.463-.27-3.521-.807a6.037 6.037 0 0 1-2.472-2.365c-.609-1.057-.914-2.302-.914-3.736 0-1.433.305-2.67.914-3.709a6.303 6.303 0 0 1 2.526-2.418c1.075-.556 2.267-.834 3.575-.834.878 0 1.702.126 2.472.377.789.25 1.487.618 2.097 1.102l-1.263 1.881c-.95-.717-2.061-1.075-3.333-1.075-.842 0-1.604.188-2.285.564a3.923 3.923 0 0 0-1.612 1.586c-.394.699-.592 1.523-.592 2.473 0 .985.198 1.827.592 2.526a4.156 4.156 0 0 0 1.585 1.613 4.719 4.719 0 0 0 2.231.537c.663 0 1.29-.098 1.882-.295.609-.198 1.209-.538 1.8-1.022l1.156 1.99c-1.308 1.074-2.921 1.612-4.838 1.612ZM201.536 17.638c1.971 0 3.53.403 4.677 1.21 1.164.806 1.747 2.123 1.747 3.95v8.36h-2.177c0-1.04.017-1.82.053-2.34h-.053c-.448.825-1.129 1.461-2.043 1.909a6.561 6.561 0 0 1-2.876.645c-1.433 0-2.643-.358-3.628-1.075-.986-.735-1.478-1.8-1.478-3.198 0-.95.241-1.756.725-2.42.484-.662 1.129-1.155 1.935-1.477a6.904 6.904 0 0 1 2.661-.511c1.756 0 3.216.34 4.381 1.021V22.8c0-1.04-.376-1.792-1.129-2.258-.752-.484-1.729-.726-2.929-.726-.628 0-1.299.08-2.016.242-.717.161-1.38.367-1.989.618l-.645-2.015c1.577-.681 3.171-1.022 4.784-1.022Zm-.215 11.638c1.093 0 2.043-.305 2.849-.914.806-.61 1.263-1.451 1.371-2.526-.52-.323-1.156-.583-1.909-.78-.752-.215-1.451-.322-2.096-.322-.95 0-1.738.197-2.365.59-.609.377-.914.933-.914 1.667 0 .735.305 1.3.914 1.693.609.395 1.326.592 2.15.592Z" fill="#000"/><rect x="216" y="9" width="56.469" height="27.792" rx="8" fill="#486EF4"/><path d="M230.16 28.792a4.481 4.481 0 0 1-1.664-.304 3.6 3.6 0 0 1-1.312-.912 4.523 4.523 0 0 1-.88-1.52c-.203-.608-.304-1.312-.304-2.112v-.368c0-.96.069-1.813.208-2.56.149-.747.389-1.381.72-1.904a3.507 3.507 0 0 1 1.344-1.216c.565-.299 1.269-.47 2.112-.512l.976-.032c.32-.01.624-.027.912-.048a7.5 7.5 0 0 0 .784-.096c.235-.053.443-.123.624-.208v1.872c-.171.096-.491.176-.96.24-.459.064-1.157.101-2.096.112-.48.01-.896.07-1.248.176a2.023 2.023 0 0 0-.864.48 2.332 2.332 0 0 0-.544.848 5.486 5.486 0 0 0-.272 1.296c.245-.48.613-.87 1.104-1.168.491-.299 1.131-.448 1.92-.448.533 0 1.019.085 1.456.256.437.16.816.4 1.136.72.32.32.565.715.736 1.184.181.47.272 1.013.272 1.632v.304c0 .672-.107 1.275-.32 1.808a3.816 3.816 0 0 1-.864 1.36c-.373.363-.816.64-1.328.832a4.572 4.572 0 0 1-1.648.288Zm0-1.792c.64 0 1.136-.208 1.488-.624.352-.427.528-1.03.528-1.808v-.32c0-.672-.181-1.2-.544-1.584-.363-.384-.853-.576-1.472-.576-.608 0-1.099.192-1.472.576-.363.384-.544.912-.544 1.584v.288c0 .384.048.73.144 1.04.107.31.251.57.432.784.181.203.395.363.64.48.245.107.512.16.8.16ZM236.239 28.792c-.085 0-.192-.005-.32-.016-.128 0-.234-.01-.32-.032V26.84c.054.01.134.016.24.016a.828.828 0 0 0 .528-.176c.15-.128.272-.341.368-.64.107-.299.182-.693.224-1.184.054-.501.08-1.12.08-1.856v-2.88h6.72v8.48h-2.112v-6.72h-2.656v1.44c0 1.099-.058 2.005-.176 2.72-.106.704-.277 1.259-.512 1.664-.224.405-.512.688-.864.848-.341.16-.741.24-1.2.24ZM249.995 28.792a5.276 5.276 0 0 1-1.648-.256 3.762 3.762 0 0 1-1.344-.816 3.863 3.863 0 0 1-.912-1.36c-.224-.544-.336-1.184-.336-1.92v-.32c0-.693.112-1.301.336-1.824a3.76 3.76 0 0 1 .912-1.312 3.691 3.691 0 0 1 1.344-.784 4.994 4.994 0 0 1 1.648-.272c.576 0 1.12.09 1.632.272.512.17.96.432 1.344.784.395.352.704.79.928 1.312.224.523.336 1.13.336 1.824v.32c0 .725-.112 1.36-.336 1.904a3.755 3.755 0 0 1-.928 1.36 3.762 3.762 0 0 1-1.344.816 4.853 4.853 0 0 1-1.632.272Zm0-1.792c.597 0 1.093-.213 1.488-.64.405-.427.608-1.067.608-1.92v-.32c0-.779-.203-1.37-.608-1.776-.395-.416-.891-.624-1.488-.624-.608 0-1.109.208-1.504.624-.395.405-.592.997-.592 1.776v.32c0 .864.197 1.51.592 1.936.395.416.896.624 1.504.624ZM256.389 20.12h6.08v1.76h-3.968v6.72h-2.112v-8.48Z" fill="#fff"/></svg>