<svg width="36" height="36" viewBox="0 0 36 36" fill="none" xmlns="http://www.w3.org/2000/svg">
<g filter="url(#filter0_b_564_56082)">
<circle cx="18" cy="18" r="17" fill="#06102E"/>
</g>
<path fill-rule="evenodd" clip-rule="evenodd" d="M10.2936 17.4657L22.6305 12.0819C23.1257 11.8658 23.7023 12.092 23.9183 12.5872C23.9929 12.7581 24.0171 12.9466 23.9881 13.1308L22.4503 22.8877C22.3557 23.4881 21.7923 23.8981 21.1919 23.8035C21.0268 23.7774 20.8698 23.7141 20.7328 23.6184L16.4028 20.5919C16.126 20.3985 16.0585 20.0173 16.2519 19.7405C16.2714 19.7127 16.2931 19.6865 16.3169 19.6623L20.5052 15.399C20.5998 15.3026 20.5985 15.1478 20.5021 15.0531C20.4189 14.9714 20.2895 14.9598 20.1931 15.0255L14.6683 18.7886C14.043 19.2145 13.2556 19.327 12.536 19.0932L10.3381 18.3792C10.0812 18.2957 9.9406 18.0198 10.0241 17.7629C10.0673 17.6298 10.1654 17.5217 10.2936 17.4657Z" fill="white"/>
<defs>
<filter id="filter0_b_564_56082" x="-19" y="-19" width="74" height="74" filterUnits="userSpaceOnUse" color-interpolation-filters="sRGB">
<feFlood flood-opacity="0" result="BackgroundImageFix"/>
<feGaussianBlur in="BackgroundImageFix" stdDeviation="10"/>
<feComposite in2="SourceAlpha" operator="in" result="effect1_backgroundBlur_564_56082"/>
<feBlend mode="normal" in="SourceGraphic" in2="effect1_backgroundBlur_564_56082" result="shape"/>
</filter>
</defs>
</svg>
