<svg width="160" height="59" viewBox="0 0 160 59" fill="none" xmlns="http://www.w3.org/2000/svg">
<path d="M43.75 8.16406L41.8359 9.99023C40.5339 8.61654 39.069 7.92969 37.4414 7.92969C36.0677 7.92969 34.9089 8.39844 33.9648 9.33594C33.0273 10.2734 32.5586 11.429 32.5586 12.8027C32.5586 13.7598 32.7669 14.6094 33.1836 15.3516C33.6003 16.0938 34.1895 16.6764 34.9512 17.0996C35.7129 17.5228 36.5592 17.7344 37.4902 17.7344C38.2845 17.7344 39.0104 17.5879 39.668 17.2949C40.3255 16.9954 41.0482 16.4551 41.8359 15.6738L43.6914 17.6074C42.6302 18.6426 41.6276 19.362 40.6836 19.7656C39.7396 20.1628 38.6621 20.3613 37.4512 20.3613C35.2181 20.3613 33.3887 19.6549 31.9629 18.2422C30.5436 16.8229 29.834 15.0065 29.834 12.793C29.834 11.3607 30.1562 10.0879 30.8008 8.97461C31.4518 7.86133 32.3796 6.96615 33.584 6.28906C34.7949 5.61198 36.097 5.27344 37.4902 5.27344C38.6751 5.27344 39.8145 5.52409 40.9082 6.02539C42.0085 6.52669 42.9557 7.23958 43.75 8.16406ZM56.6211 5.63477V20H53.8867V11.0059L48.5254 20H46.1426V5.63477H48.877V14.9219L54.3164 5.63477H56.6211ZM73.1055 8.16406L71.1914 9.99023C69.8893 8.61654 68.4245 7.92969 66.7969 7.92969C65.4232 7.92969 64.2643 8.39844 63.3203 9.33594C62.3828 10.2734 61.9141 11.429 61.9141 12.8027C61.9141 13.7598 62.1224 14.6094 62.5391 15.3516C62.9557 16.0938 63.5449 16.6764 64.3066 17.0996C65.0684 17.5228 65.9147 17.7344 66.8457 17.7344C67.64 17.7344 68.3659 17.5879 69.0234 17.2949C69.681 16.9954 70.4036 16.4551 71.1914 15.6738L73.0469 17.6074C71.9857 18.6426 70.9831 19.362 70.0391 19.7656C69.0951 20.1628 68.0176 20.3613 66.8066 20.3613C64.5736 20.3613 62.7441 19.6549 61.3184 18.2422C59.8991 16.8229 59.1895 15.0065 59.1895 12.793C59.1895 11.3607 59.5117 10.0879 60.1562 8.97461C60.8073 7.86133 61.735 6.96615 62.9395 6.28906C64.1504 5.61198 65.4525 5.27344 66.8457 5.27344C68.0306 5.27344 69.1699 5.52409 70.2637 6.02539C71.3639 6.52669 72.3112 7.23958 73.1055 8.16406ZM74.0918 5.63477H82.0312V8.33008H79.4141V20H76.6406V8.33008H74.0918V5.63477ZM83.916 5.63477H91.7578V8.31055H86.6309V10.9082H91.7578V13.5352H86.6309V17.3145H91.7578V20H83.916V5.63477ZM95.7031 5.63477H98.3789L101.699 15.6543L105.068 5.63477H107.705L110.127 20H107.49L105.947 10.9277L102.891 20H100.479L97.4609 10.9277L95.8887 20H93.2227L95.7031 5.63477ZM116.699 5.63477H119.473L125 20H122.158L121.035 17.041H115.176L114.004 20H111.162L116.699 5.63477ZM118.105 9.44336L116.191 14.375H120.01L118.105 9.44336ZM24.8438 30.6348H27.6172L33.1445 45H30.3027L29.1797 42.041H23.3203L22.1484 45H19.3066L24.8438 30.6348ZM26.25 34.4434L24.3359 39.375H28.1543L26.25 34.4434ZM39.9414 30.6348H42.7051L47.3242 42.4316H48.9258V47.1484H46.2793V45H36.3965V47.1484H33.75V42.4316H35.3418L39.9414 30.6348ZM41.3477 34.4434L38.2031 42.4316H44.4824L41.3477 34.4434ZM55.0781 30.6348H57.8516L63.3789 45H60.5371L59.4141 42.041H53.5547L52.3828 45H49.541L55.0781 30.6348ZM56.4844 34.4434L54.5703 39.375H58.3887L56.4844 34.4434ZM65.498 30.6348H75.8398V45H73.0762V33.1934H68.2715V45H65.498V30.6348ZM77.7051 30.6348H85.6445V33.3301H83.0273V45H80.2539V33.3301H77.7051V30.6348ZM91.8945 30.6348H94.668L100.195 45H97.3535L96.2305 42.041H90.3711L89.1992 45H86.3574L91.8945 30.6348ZM93.3008 34.4434L91.3867 39.375H95.2051L93.3008 34.4434ZM102.314 45V30.6348H105.088V42.5391H109.893V30.6348H112.656V42.5391H115.576V47.1484H113.018V45H102.314ZM127.793 30.6348V45H125.059V36.0059L119.697 45H117.314V30.6348H120.049V39.9219L125.488 30.6348H127.793ZM139.541 30.6348V45H136.807V39.2188H136.123L133.232 45H130.244L133.496 38.7695C131.608 38.2292 130.664 36.9727 130.664 35C130.664 34.2969 130.762 33.6849 130.957 33.1641C131.159 32.6432 131.442 32.2038 131.807 31.8457C132.178 31.4811 132.604 31.2142 133.086 31.0449C133.574 30.8691 133.962 30.7682 134.248 30.7422C134.535 30.7161 135.332 30.6803 136.641 30.6348H139.541ZM136.807 36.5527V33.3105H136.055C135.371 33.3105 134.88 33.3529 134.58 33.4375C134.281 33.5156 134.036 33.6914 133.848 33.9648C133.659 34.2318 133.564 34.5638 133.564 34.9609C133.564 35.5534 133.753 35.9668 134.131 36.2012C134.508 36.4355 135.114 36.5527 135.947 36.5527H136.807Z" fill="#024FA2"/>
<circle cx="3" cy="56" r="3" fill="#024FA2"/>
<circle cx="3" cy="22" r="3" fill="#024FA2"/>
<circle cx="157" cy="56" r="3" fill="#024FA2"/>
<path d="M2.5 20V56H158.5" stroke="#024FA2" stroke-width="2"/>
</svg>
