<svg width="161" height="55" viewBox="0 0 161 55" fill="none" xmlns="http://www.w3.org/2000/svg">
<path d="M156.5 12V52H4" stroke="#024FA2" stroke-width="2"/>
<path d="M9.30078 5.63477H12.0645L16.6836 17.4316H18.2852V22.1484H15.6387V20H5.75586V22.1484H3.10938V17.4316H4.70117L9.30078 5.63477ZM10.707 9.44336L7.5625 17.4316H13.8418L10.707 9.44336ZM19.5527 5.63477H22.4531C24.0221 5.63477 25.1517 5.78125 25.8418 6.07422C26.5384 6.36068 27.0853 6.82943 27.4824 7.48047C27.8861 8.125 28.0879 8.89974 28.0879 9.80469C28.0879 10.8073 27.8242 11.6406 27.2969 12.3047C26.776 12.9688 26.0664 13.431 25.168 13.6914C24.6406 13.8411 23.6803 13.916 22.2871 13.916V20H19.5527V5.63477ZM22.2871 11.25H23.1562C23.8398 11.25 24.3151 11.2012 24.582 11.1035C24.849 11.0059 25.0573 10.8464 25.207 10.625C25.3633 10.3971 25.4414 10.1237 25.4414 9.80469C25.4414 9.2513 25.2266 8.84766 24.7969 8.59375C24.4844 8.40495 23.9049 8.31055 23.0586 8.31055H22.2871V11.25ZM34.2871 16.7188L29.1895 5.63477H32.2754L35.6543 13.6426L38.4277 5.63477H41.2402L37.4121 15.9082C36.7546 17.666 36.0384 18.8444 35.2637 19.4434C34.4954 20.0358 33.6751 20.332 32.8027 20.332C31.3835 20.332 30.0749 19.6354 28.877 18.2422L30.6738 16.4355C31.39 17.2689 32.0964 17.6855 32.793 17.6855C33.1055 17.6855 33.3626 17.6107 33.5645 17.4609C33.7663 17.3112 34.0072 17.0638 34.2871 16.7188ZM48.9238 13.623L48.543 13.2129L44.5 20H41.2578L46.5605 11.6895L41.7461 5.63477H45.0371L48.9238 10.7715V5.63477H51.6973V10.7715L55.584 5.63477H58.8848L54.0605 11.6895L59.3633 20H56.1211L52.0781 13.2129L51.6973 13.623V20H48.9238V13.623ZM60.8262 5.63477H68.668V8.31055H63.541V10.9082H68.668V13.5352H63.541V17.3145H68.668V20H60.8262V5.63477ZM80.0234 20L76.0488 9.44336L72.0059 20H69.1055L74.6426 5.63477H77.416L82.9434 20H80.0234ZM86.8184 11.0547H88.6738C89.5332 8.8737 90.6139 7.36654 91.916 6.5332C93.2246 5.69336 94.6081 5.27344 96.0664 5.27344C98.0456 5.27344 99.7806 5.99935 101.271 7.45117C102.762 8.89648 103.508 10.6999 103.508 12.8613C103.508 14.9577 102.785 16.7318 101.34 18.1836C99.8945 19.6354 98.1465 20.3613 96.0957 20.3613C94.2663 20.3613 92.6094 19.7624 91.125 18.5645C89.6471 17.36 88.8301 15.7422 88.6738 13.7109H86.8184V20H84.1035V5.63477H86.8184V11.0547ZM100.764 12.8418C100.764 11.5332 100.318 10.3906 99.4258 9.41406C98.5339 8.4375 97.4076 7.94922 96.0469 7.94922C94.7643 7.94922 93.6576 8.40169 92.7266 9.30664C91.8021 10.2116 91.3398 11.3965 91.3398 12.8613C91.3398 14.3132 91.8151 15.485 92.7656 16.377C93.7161 17.2689 94.8262 17.7148 96.0957 17.7148C97.3913 17.7148 98.4915 17.2428 99.3965 16.2988C100.308 15.3548 100.764 14.2025 100.764 12.8418ZM105.596 20V5.63477H113.105V8.30078H108.33V11.0547H108.926C110.137 11.0547 111.126 11.1882 111.895 11.4551C112.663 11.722 113.301 12.2266 113.809 12.9688C114.323 13.7044 114.58 14.5768 114.58 15.5859C114.58 16.5885 114.388 17.3893 114.004 17.9883C113.62 18.5807 113.089 19.0658 112.412 19.4434C111.742 19.8145 110.811 20 109.619 20H105.596ZM108.33 13.4961V17.3926H109.014C110.264 17.3926 111.055 17.2298 111.387 16.9043C111.719 16.5788 111.885 16.1393 111.885 15.5859C111.885 14.1927 110.889 13.4961 108.896 13.4961H108.33ZM116.482 5.63477H119.256V11.0547H124.061V5.63477H126.824V20H124.061V13.7012H119.256V20H116.482V5.63477ZM133.98 5.63477H136.754L142.281 20H139.439L138.316 17.041H132.457L131.285 20H128.443L133.98 5.63477ZM135.387 9.44336L133.473 14.375H137.291L135.387 9.44336ZM152.377 5.63477V20H149.643V14.2188H148.959L146.068 20H143.08L146.332 13.7695C144.444 13.2292 143.5 11.9727 143.5 10C143.5 9.29688 143.598 8.6849 143.793 8.16406C143.995 7.64323 144.278 7.20378 144.643 6.8457C145.014 6.48112 145.44 6.21419 145.922 6.04492C146.41 5.86914 146.798 5.76823 147.084 5.74219C147.37 5.71615 148.168 5.68034 149.477 5.63477H152.377ZM149.643 11.5527V8.31055H148.891C148.207 8.31055 147.715 8.35286 147.416 8.4375C147.117 8.51562 146.872 8.69141 146.684 8.96484C146.495 9.23177 146.4 9.5638 146.4 9.96094C146.4 10.5534 146.589 10.9668 146.967 11.2012C147.344 11.4355 147.95 11.5527 148.783 11.5527H149.643ZM23.957 30.6348H26.7305L32.2578 45H29.416L28.293 42.041H22.4336L21.2617 45H18.4199L23.957 30.6348ZM25.3633 34.4434L23.4492 39.375H27.2676L25.3633 34.4434ZM32.4707 30.6348H40.4102V33.3301H37.793V45H35.0195V33.3301H32.4707V30.6348ZM43.1719 30.6348H45.8477L49.168 40.6543L52.5371 30.6348H55.1738L57.5957 45H54.959L53.416 35.9277L50.3594 45H47.9473L44.9297 35.9277L43.3574 45H40.6914L43.1719 30.6348ZM66.0801 30.2734C68.1113 30.2734 69.8561 31.0091 71.3145 32.4805C72.7793 33.9518 73.5117 35.7454 73.5117 37.8613C73.5117 39.9577 72.7891 41.7318 71.3438 43.1836C69.9049 44.6354 68.1569 45.3613 66.0996 45.3613C63.9447 45.3613 62.1543 44.6159 60.7285 43.125C59.3027 41.6341 58.5898 39.8633 58.5898 37.8125C58.5898 36.4388 58.9219 35.1758 59.5859 34.0234C60.25 32.8711 61.1615 31.9596 62.3203 31.2891C63.4857 30.612 64.7389 30.2734 66.0801 30.2734ZM66.0508 32.9492C64.7227 32.9492 63.6061 33.4115 62.7012 34.3359C61.7962 35.2604 61.3438 36.4355 61.3438 37.8613C61.3438 39.4499 61.9134 40.7064 63.0527 41.6309C63.9382 42.3535 64.9538 42.7148 66.0996 42.7148C67.3952 42.7148 68.4987 42.2461 69.4102 41.3086C70.3216 40.3711 70.7773 39.2155 70.7773 37.8418C70.7773 36.4746 70.3184 35.319 69.4004 34.375C68.4824 33.4245 67.3659 32.9492 66.0508 32.9492ZM88.793 33.1641L86.8789 34.9902C85.5768 33.6165 84.112 32.9297 82.4844 32.9297C81.1107 32.9297 79.9518 33.3984 79.0078 34.3359C78.0703 35.2734 77.6016 36.429 77.6016 37.8027C77.6016 38.7598 77.8099 39.6094 78.2266 40.3516C78.6432 41.0938 79.2324 41.6764 79.9941 42.0996C80.7559 42.5228 81.6022 42.7344 82.5332 42.7344C83.3275 42.7344 84.0534 42.5879 84.7109 42.2949C85.3685 41.9954 86.0911 41.4551 86.8789 40.6738L88.7344 42.6074C87.6732 43.6426 86.6706 44.362 85.7266 44.7656C84.7826 45.1628 83.7051 45.3613 82.4941 45.3613C80.2611 45.3613 78.4316 44.6549 77.0059 43.2422C75.5866 41.8229 74.877 40.0065 74.877 37.793C74.877 36.3607 75.1992 35.0879 75.8438 33.9746C76.4948 32.8613 77.4225 31.9661 78.627 31.2891C79.8379 30.612 81.14 30.2734 82.5332 30.2734C83.7181 30.2734 84.8574 30.5241 85.9512 31.0254C87.0514 31.5267 87.9987 32.2396 88.793 33.1641ZM97.8828 30.6348V32.4902H98.4883C101.939 32.4902 103.664 33.9128 103.664 36.7578C103.664 37.5651 103.527 38.252 103.254 38.8184C102.987 39.3783 102.59 39.8438 102.062 40.2148C101.542 40.5794 101.001 40.8203 100.441 40.9375C99.888 41.0482 99.0352 41.1035 97.8828 41.1035V45H95.1289V41.1035C93.9245 41.1035 92.9349 40.9831 92.1602 40.7422C91.3919 40.5013 90.7604 40.0456 90.2656 39.375C89.7708 38.6979 89.5234 37.8516 89.5234 36.8359C89.5234 35.8789 89.722 35.0716 90.1191 34.4141C90.5163 33.7565 91.0762 33.2715 91.7988 32.959C92.528 32.6465 93.638 32.4902 95.1289 32.4902V30.6348H97.8828ZM95.1289 35.0098H94.4941C93.5371 35.0098 92.8991 35.166 92.5801 35.4785C92.2611 35.7845 92.1016 36.2337 92.1016 36.8262C92.1016 37.5228 92.2936 38.0046 92.6777 38.2715C93.0684 38.5384 93.638 38.6719 94.3867 38.6719H95.1289V35.0098ZM97.8828 35.0098V38.6719H98.7812C99.7057 38.6719 100.318 38.4993 100.617 38.1543C100.917 37.8092 101.066 37.36 101.066 36.8066C101.066 36.2402 100.907 35.8008 100.588 35.4883C100.275 35.1693 99.6406 35.0098 98.6836 35.0098H97.8828ZM105.283 30.6348H113.125V33.3105H107.998V35.9082H113.125V38.5352H107.998V42.3145H113.125V45H105.283V30.6348ZM115.174 30.6348H118.074C119.643 30.6348 120.773 30.7812 121.463 31.0742C122.16 31.3607 122.706 31.8294 123.104 32.4805C123.507 33.125 123.709 33.8997 123.709 34.8047C123.709 35.8073 123.445 36.6406 122.918 37.3047C122.397 37.9688 121.688 38.431 120.789 38.6914C120.262 38.8411 119.301 38.916 117.908 38.916V45H115.174V30.6348ZM117.908 36.25H118.777C119.461 36.25 119.936 36.2012 120.203 36.1035C120.47 36.0059 120.678 35.8464 120.828 35.625C120.984 35.3971 121.062 35.1237 121.062 34.8047C121.062 34.2513 120.848 33.8477 120.418 33.5938C120.105 33.4049 119.526 33.3105 118.68 33.3105H117.908V36.25ZM130.27 30.6348H133.043L138.57 45H135.729L134.605 42.041H128.746L127.574 45H124.732L130.27 30.6348ZM131.676 34.4434L129.762 39.375H133.58L131.676 34.4434Z" fill="#024FA2"/>
<circle cx="3" cy="3" r="3" transform="matrix(0.370538 -0.928817 -0.928817 -0.370538 157.568 54.7969)" fill="#024FA2"/>
<path d="M3.913 48.899C2.25615 48.8929 0.908013 50.231 0.901841 51.8878C0.89567 53.5447 2.2338 54.8928 3.89065 54.899C5.54749 54.9052 6.89563 53.567 6.9018 51.9102C6.90797 50.2533 5.56984 48.9052 3.913 48.899Z" fill="#024FA2"/>
<circle cx="3" cy="3" r="3" transform="matrix(0.00903372 -0.999959 -0.999959 -0.00903372 160 14.0547)" fill="#024FA2"/>
</svg>
