<svg width="159" height="98" viewBox="0 0 159 98" fill="none" xmlns="http://www.w3.org/2000/svg">
<path d="M142.761 12.3398L142.761 34.3398L142.761 55.7857L8 55.7852" stroke="#024FA2" stroke-width="2"/>
<path d="M47.0293 5.63477V20H44.2949V11.0059L38.9336 20H36.5508V5.63477H39.2852V14.9219L44.7246 5.63477H47.0293ZM50.3008 5.63477H57.4297V8.31055H53.0059V20H50.3008V5.63477ZM59.5586 5.63477H62.459C64.028 5.63477 65.1576 5.78125 65.8477 6.07422C66.5443 6.36068 67.0911 6.82943 67.4883 7.48047C67.8919 8.125 68.0938 8.89974 68.0938 9.80469C68.0938 10.8073 67.8301 11.6406 67.3027 12.3047C66.7819 12.9688 66.0723 13.431 65.1738 13.6914C64.6465 13.8411 63.6862 13.916 62.293 13.916V20H59.5586V5.63477ZM62.293 11.25H63.1621C63.8457 11.25 64.321 11.2012 64.5879 11.1035C64.8548 11.0059 65.0632 10.8464 65.2129 10.625C65.3691 10.3971 65.4473 10.1237 65.4473 9.80469C65.4473 9.2513 65.2324 8.84766 64.8027 8.59375C64.4902 8.40495 63.9108 8.31055 63.0645 8.31055H62.293V11.25ZM77.5664 5.27344C79.5977 5.27344 81.3424 6.00911 82.8008 7.48047C84.2656 8.95182 84.998 10.7454 84.998 12.8613C84.998 14.9577 84.2754 16.7318 82.8301 18.1836C81.3913 19.6354 79.6432 20.3613 77.5859 20.3613C75.431 20.3613 73.6406 19.6159 72.2148 18.125C70.7891 16.6341 70.0762 14.8633 70.0762 12.8125C70.0762 11.4388 70.4082 10.1758 71.0723 9.02344C71.7363 7.87109 72.6478 6.95964 73.8066 6.28906C74.972 5.61198 76.2253 5.27344 77.5664 5.27344ZM77.5371 7.94922C76.209 7.94922 75.0924 8.41146 74.1875 9.33594C73.2826 10.2604 72.8301 11.4355 72.8301 12.8613C72.8301 14.4499 73.3997 15.7064 74.5391 16.6309C75.4245 17.3535 76.4401 17.7148 77.5859 17.7148C78.8815 17.7148 79.985 17.2461 80.8965 16.3086C81.8079 15.3711 82.2637 14.2155 82.2637 12.8418C82.2637 11.4746 81.8047 10.319 80.8867 9.375C79.9688 8.42448 78.8522 7.94922 77.5371 7.94922ZM87.5762 20V5.63477H89.832C91.1406 5.63477 92.0977 5.7194 92.7031 5.88867C93.5625 6.11654 94.2461 6.53971 94.7539 7.1582C95.2617 7.77669 95.5156 8.50586 95.5156 9.3457C95.5156 9.89258 95.3984 10.3906 95.1641 10.8398C94.9362 11.2826 94.5618 11.6992 94.041 12.0898C94.9134 12.5 95.5514 13.0143 95.9551 13.6328C96.3587 14.2448 96.5605 14.9707 96.5605 15.8105C96.5605 16.6178 96.3522 17.3535 95.9355 18.0176C95.5189 18.6816 94.9818 19.1797 94.3242 19.5117C93.6667 19.8372 92.7585 20 91.5996 20H87.5762ZM90.3105 8.24219V11.2695H90.9062C91.5703 11.2695 92.0618 11.1296 92.3809 10.8496C92.7064 10.5697 92.8691 10.1888 92.8691 9.70703C92.8691 9.25781 92.7161 8.90299 92.4102 8.64258C92.1042 8.37565 91.6387 8.24219 91.0137 8.24219H90.3105ZM90.3105 13.7109V17.3926H90.9941C92.127 17.3926 92.8887 17.2493 93.2793 16.9629C93.6764 16.6764 93.875 16.2598 93.875 15.7129C93.875 15.0944 93.6439 14.6061 93.1816 14.248C92.7194 13.89 91.9512 13.7109 90.877 13.7109H90.3105ZM103.553 5.63477H106.326L111.854 20H109.012L107.889 17.041H102.029L100.857 20H98.0156L103.553 5.63477ZM104.959 9.44336L103.045 14.375H106.863L104.959 9.44336ZM122.449 5.63477V20H119.715V14.2188H119.031L116.141 20H113.152L116.404 13.7695C114.516 13.2292 113.572 11.9727 113.572 10C113.572 9.29688 113.67 8.6849 113.865 8.16406C114.067 7.64323 114.35 7.20378 114.715 6.8457C115.086 6.48112 115.512 6.21419 115.994 6.04492C116.482 5.86914 116.87 5.76823 117.156 5.74219C117.443 5.71615 118.24 5.68034 119.549 5.63477H122.449ZM119.715 11.5527V8.31055H118.963C118.279 8.31055 117.788 8.35286 117.488 8.4375C117.189 8.51562 116.945 8.69141 116.756 8.96484C116.567 9.23177 116.473 9.5638 116.473 9.96094C116.473 10.5534 116.661 10.9668 117.039 11.2012C117.417 11.4355 118.022 11.5527 118.855 11.5527H119.715ZM31.7461 30.6348H34.5098V35.5762L38.4062 30.6348H41.6973L36.6777 37.041L42.1855 45H38.9434L34.5098 38.623V45H31.7461V30.6348ZM50.916 30.2734C52.9473 30.2734 54.6921 31.0091 56.1504 32.4805C57.6152 33.9518 58.3477 35.7454 58.3477 37.8613C58.3477 39.9577 57.625 41.7318 56.1797 43.1836C54.7409 44.6354 52.9928 45.3613 50.9355 45.3613C48.7806 45.3613 46.9902 44.6159 45.5645 43.125C44.1387 41.6341 43.4258 39.8633 43.4258 37.8125C43.4258 36.4388 43.7578 35.1758 44.4219 34.0234C45.0859 32.8711 45.9974 31.9596 47.1562 31.2891C48.3216 30.612 49.5749 30.2734 50.916 30.2734ZM50.8867 32.9492C49.5586 32.9492 48.4421 33.4115 47.5371 34.3359C46.6322 35.2604 46.1797 36.4355 46.1797 37.8613C46.1797 39.4499 46.7493 40.7064 47.8887 41.6309C48.7741 42.3535 49.7897 42.7148 50.9355 42.7148C52.2311 42.7148 53.3346 42.2461 54.2461 41.3086C55.1576 40.3711 55.6133 39.2155 55.6133 37.8418C55.6133 36.4746 55.1543 35.319 54.2363 34.375C53.3184 33.4245 52.2018 32.9492 50.8867 32.9492ZM62.3125 30.6348H64.9883L68.3086 40.6543L71.6777 30.6348H74.3145L76.7363 45H74.0996L72.5566 35.9277L69.5 45H67.0879L64.0703 35.9277L62.498 45H59.832L62.3125 30.6348ZM78.9238 30.6348H81.6973V36.0547H86.502V30.6348H89.2656V45H86.502V38.7012H81.6973V45H78.9238V30.6348ZM96.9219 30.6348H99.6953L105.223 45H102.381L101.258 42.041H95.3984L94.2266 45H91.3848L96.9219 30.6348ZM98.3281 34.4434L96.4141 39.375H100.232L98.3281 34.4434ZM105.936 30.6348H113.875V33.3301H111.258V45H108.484V33.3301H105.936V30.6348ZM120.125 30.6348H122.898L128.426 45H125.584L124.461 42.041H118.602L117.43 45H114.588L120.125 30.6348ZM121.531 34.4434L119.617 39.375H123.436L121.531 34.4434Z" fill="#024FA2"/>
<circle cx="142.468" cy="54.4741" r="3" transform="rotate(-99.9489 142.468 54.4741)" fill="#024FA2"/>
<circle cx="142.468" cy="11.4741" r="3" transform="rotate(-99.9489 142.468 11.4741)" fill="#024FA2"/>
<circle cx="7.46783" cy="55.4741" r="3" transform="rotate(-99.9489 7.46783 55.4741)" fill="#024FA2"/>
</svg>
