<svg width="140" height="83" viewBox="0 0 140 83" fill="none" xmlns="http://www.w3.org/2000/svg">
<path d="M22.627 28.6348H32.9688V43H30.2051V31.1934H25.4004V43H22.627V28.6348ZM43.0371 28.2734C45.0684 28.2734 46.8132 29.0091 48.2715 30.4805C49.7363 31.9518 50.4688 33.7454 50.4688 35.8613C50.4688 37.9577 49.7461 39.7318 48.3008 41.1836C46.862 42.6354 45.1139 43.3613 43.0566 43.3613C40.9017 43.3613 39.1113 42.6159 37.6855 41.125C36.2598 39.6341 35.5469 37.8633 35.5469 35.8125C35.5469 34.4388 35.8789 33.1758 36.543 32.0234C37.207 30.8711 38.1185 29.9596 39.2773 29.2891C40.4427 28.612 41.696 28.2734 43.0371 28.2734ZM43.0078 30.9492C41.6797 30.9492 40.5632 31.4115 39.6582 32.3359C38.7533 33.2604 38.3008 34.4355 38.3008 35.8613C38.3008 37.4499 38.8704 38.7064 40.0098 39.6309C40.8952 40.3535 41.9108 40.7148 43.0566 40.7148C44.3522 40.7148 45.4557 40.2461 46.3672 39.3086C47.2786 38.3711 47.7344 37.2155 47.7344 35.8418C47.7344 34.4746 47.2754 33.319 46.3574 32.375C45.4395 31.4245 44.3229 30.9492 43.0078 30.9492ZM57.7148 28.6348H60.4785L65.0977 40.4316H66.6992V45.1484H64.0527V43H54.1699V45.1484H51.5234V40.4316H53.1152L57.7148 28.6348ZM59.1211 32.4434L55.9766 40.4316H62.2559L59.1211 32.4434ZM72.8516 28.6348H75.625L81.1523 43H78.3105L77.1875 40.041H71.3281L70.1562 43H67.3145L72.8516 28.6348ZM74.2578 32.4434L72.3438 37.375H76.1621L74.2578 32.4434ZM83.2715 28.6348H86.1719C87.7409 28.6348 88.8704 28.7812 89.5605 29.0742C90.2572 29.3607 90.804 29.8294 91.2012 30.4805C91.6048 31.125 91.8066 31.8997 91.8066 32.8047C91.8066 33.8073 91.543 34.6406 91.0156 35.3047C90.4948 35.9688 89.7852 36.431 88.8867 36.6914C88.3594 36.8411 87.3991 36.916 86.0059 36.916V43H83.2715V28.6348ZM86.0059 34.25H86.875C87.5586 34.25 88.0339 34.2012 88.3008 34.1035C88.5677 34.0059 88.776 33.8464 88.9258 33.625C89.082 33.3971 89.1602 33.1237 89.1602 32.8047C89.1602 32.2513 88.9453 31.8477 88.5156 31.5938C88.2031 31.4049 87.6237 31.3105 86.7773 31.3105H86.0059V34.25ZM94.5117 28.6348H97.2754V33.5762L101.172 28.6348H104.463L99.4434 35.041L104.951 43H101.709L97.2754 36.623V43H94.5117V28.6348ZM117.363 28.6348V43H114.629V34.0059L109.268 43H106.885V28.6348H109.619V37.9219L115.059 28.6348H117.363ZM27.334 56.1641L25.4199 57.9902C24.1178 56.6165 22.653 55.9297 21.0254 55.9297C19.6517 55.9297 18.4928 56.3984 17.5488 57.3359C16.6113 58.2734 16.1426 59.429 16.1426 60.8027C16.1426 61.7598 16.3509 62.6094 16.7676 63.3516C17.1842 64.0938 17.7734 64.6764 18.5352 65.0996C19.2969 65.5228 20.1432 65.7344 21.0742 65.7344C21.8685 65.7344 22.5944 65.5879 23.252 65.2949C23.9095 64.9954 24.6322 64.4551 25.4199 63.6738L27.2754 65.6074C26.2142 66.6426 25.2116 67.362 24.2676 67.7656C23.3236 68.1628 22.2461 68.3613 21.0352 68.3613C18.8021 68.3613 16.9727 67.6549 15.5469 66.2422C14.1276 64.8229 13.418 63.0065 13.418 60.793C13.418 59.3607 13.7402 58.0879 14.3848 56.9746C15.0358 55.8613 15.9635 54.9661 17.168 54.2891C18.3789 53.612 19.681 53.2734 21.0742 53.2734C22.2591 53.2734 23.3984 53.5241 24.4922 54.0254C25.5924 54.5267 26.5397 55.2396 27.334 56.1641ZM32.4414 59.0547H34.2969C35.1562 56.8737 36.237 55.3665 37.5391 54.5332C38.8477 53.6934 40.2311 53.2734 41.6895 53.2734C43.6686 53.2734 45.4036 53.9993 46.8945 55.4512C48.3854 56.8965 49.1309 58.6999 49.1309 60.8613C49.1309 62.9577 48.4082 64.7318 46.9629 66.1836C45.5176 67.6354 43.7695 68.3613 41.7188 68.3613C39.8893 68.3613 38.2324 67.7624 36.748 66.5645C35.2702 65.36 34.4531 63.7422 34.2969 61.7109H32.4414V68H29.7266V53.6348H32.4414V59.0547ZM46.3867 60.8418C46.3867 59.5332 45.9408 58.3906 45.0488 57.4141C44.1569 56.4375 43.0306 55.9492 41.6699 55.9492C40.3874 55.9492 39.2806 56.4017 38.3496 57.3066C37.4251 58.2116 36.9629 59.3965 36.9629 60.8613C36.9629 62.3132 37.4382 63.485 38.3887 64.377C39.3392 65.2689 40.4492 65.7148 41.7188 65.7148C43.0143 65.7148 44.1146 65.2428 45.0195 64.2988C45.931 63.3548 46.3867 62.2025 46.3867 60.8418ZM51.7188 53.6348H54.6191C56.1882 53.6348 57.3177 53.7812 58.0078 54.0742C58.7044 54.3607 59.2513 54.8294 59.6484 55.4805C60.0521 56.125 60.2539 56.8997 60.2539 57.8047C60.2539 58.8073 59.9902 59.6406 59.4629 60.3047C58.9421 60.9688 58.2324 61.431 57.334 61.6914C56.8066 61.8411 55.8464 61.916 54.4531 61.916V68H51.7188V53.6348ZM54.4531 59.25H55.3223C56.0059 59.25 56.4811 59.2012 56.748 59.1035C57.015 59.0059 57.2233 58.8464 57.373 58.625C57.5293 58.3971 57.6074 58.1237 57.6074 57.8047C57.6074 57.2513 57.3926 56.8477 56.9629 56.5938C56.6504 56.4049 56.071 56.3105 55.2246 56.3105H54.4531V59.25ZM62.9297 53.6348H73.2715V68H70.5078V56.1934H65.7031V68H62.9297V53.6348ZM76.543 53.6348H79.4434C81.0124 53.6348 82.1419 53.7812 82.832 54.0742C83.5286 54.3607 84.0755 54.8294 84.4727 55.4805C84.8763 56.125 85.0781 56.8997 85.0781 57.8047C85.0781 58.8073 84.8145 59.6406 84.2871 60.3047C83.7663 60.9688 83.0566 61.431 82.1582 61.6914C81.6309 61.8411 80.6706 61.916 79.2773 61.916V68H76.543V53.6348ZM79.2773 59.25H80.1465C80.8301 59.25 81.3053 59.2012 81.5723 59.1035C81.8392 59.0059 82.0475 58.8464 82.1973 58.625C82.3535 58.3971 82.4316 58.1237 82.4316 57.8047C82.4316 57.2513 82.2168 56.8477 81.7871 56.5938C81.4746 56.4049 80.8952 56.3105 80.0488 56.3105H79.2773V59.25ZM98.2324 53.6348V68H95.498V59.0059L90.1367 68H87.7539V53.6348H90.4883V62.9219L95.9277 53.6348H98.2324ZM102.197 64.2598C102.92 65.2689 103.766 65.7734 104.736 65.7734C105.381 65.7734 105.902 65.5911 106.299 65.2266C106.696 64.862 106.895 64.377 106.895 63.7715C106.895 63.179 106.699 62.6875 106.309 62.2969C105.924 61.9062 105.124 61.7109 103.906 61.7109H103.32V59.2695H103.906C104.629 59.2695 105.176 59.1035 105.547 58.7715C105.924 58.4395 106.113 57.9935 106.113 57.4336C106.113 56.9193 105.957 56.5124 105.645 56.2129C105.332 55.9134 104.919 55.7637 104.404 55.7637C103.792 55.7637 103.164 56.0664 102.52 56.6719L100.908 54.875C101.774 54.0938 102.497 53.6283 103.076 53.4785C103.656 53.3223 104.189 53.2441 104.678 53.2441C105.85 53.2441 106.833 53.5859 107.627 54.2695C108.428 54.9531 108.828 55.8743 108.828 57.0332C108.828 57.5475 108.737 58.0488 108.555 58.5371C108.379 59.0254 107.881 59.543 107.061 60.0898C108.74 60.8385 109.58 62.1178 109.58 63.9277C109.58 65.2624 109.131 66.3366 108.232 67.1504C107.34 67.9577 106.191 68.3613 104.785 68.3613C103.9 68.3613 103.105 68.2018 102.402 67.8828C101.699 67.5573 100.934 66.8607 100.107 65.793L102.197 64.2598ZM123.154 53.6348H125.869V68H123.154V53.6348ZM112.188 68V53.6348H114.922V59.0547H115.518C116.657 59.0547 117.604 59.1882 118.359 59.4551C119.121 59.7155 119.779 60.2168 120.332 60.959C120.885 61.6947 121.162 62.5833 121.162 63.625C121.162 64.6081 120.924 65.4414 120.449 66.125C119.974 66.8086 119.421 67.2936 118.789 67.5801C118.164 67.86 117.305 68 116.211 68H112.188ZM114.922 61.4961V65.3926H115.605C116.738 65.3926 117.497 65.2526 117.881 64.9727C118.265 64.6927 118.457 64.2142 118.457 63.5371C118.457 62.1764 117.467 61.4961 115.488 61.4961H114.922Z" fill="#024FA2"/>
<circle cx="8" cy="80" r="3" fill="#024FA2"/>
<circle cx="131" cy="79" r="3" fill="#024FA2"/>
<circle cx="131" cy="3" r="3" fill="#024FA2"/>
<path d="M6.5 80.5H131.5V3" stroke="#024FA2" stroke-width="2"/>
</svg>
