<svg width="255" height="60" viewBox="0 0 255 60" fill="none" xmlns="http://www.w3.org/2000/svg">
<path d="M47.0898 20V5.63477H54.5996V8.30078H49.8242V11.0547H50.4199C51.6309 11.0547 52.6204 11.1882 53.3887 11.4551C54.1569 11.722 54.7949 12.2266 55.3027 12.9688C55.8171 13.7044 56.0742 14.5768 56.0742 15.5859C56.0742 16.5885 55.8822 17.3893 55.498 17.9883C55.1139 18.5807 54.5833 19.0658 53.9062 19.4434C53.2357 19.8145 52.3047 20 51.1133 20H47.0898ZM49.8242 13.4961V17.3926H50.5078C51.7578 17.3926 52.5488 17.2298 52.8809 16.9043C53.2129 16.5788 53.3789 16.1393 53.3789 15.5859C53.3789 14.1927 52.3828 13.4961 50.3906 13.4961H49.8242ZM58.4961 5.63477H66.3379V8.31055H61.2109V10.9082H66.3379V13.5352H61.2109V17.3145H66.3379V20H58.4961V5.63477ZM69.5801 16.2598C70.3027 17.2689 71.1491 17.7734 72.1191 17.7734C72.7637 17.7734 73.2845 17.5911 73.6816 17.2266C74.0788 16.862 74.2773 16.377 74.2773 15.7715C74.2773 15.179 74.082 14.6875 73.6914 14.2969C73.3073 13.9062 72.5065 13.7109 71.2891 13.7109H70.7031V11.2695H71.2891C72.0117 11.2695 72.5586 11.1035 72.9297 10.7715C73.3073 10.4395 73.4961 9.99349 73.4961 9.43359C73.4961 8.91927 73.3398 8.51237 73.0273 8.21289C72.7148 7.91341 72.3014 7.76367 71.7871 7.76367C71.1751 7.76367 70.5469 8.06641 69.9023 8.67188L68.291 6.875C69.1569 6.09375 69.8796 5.62826 70.459 5.47852C71.0384 5.32227 71.5723 5.24414 72.0605 5.24414C73.2324 5.24414 74.2155 5.58594 75.0098 6.26953C75.8105 6.95312 76.2109 7.87435 76.2109 9.0332C76.2109 9.54753 76.1198 10.0488 75.9375 10.5371C75.7617 11.0254 75.2637 11.543 74.4434 12.0898C76.123 12.8385 76.9629 14.1178 76.9629 15.9277C76.9629 17.2624 76.5137 18.3366 75.6152 19.1504C74.7233 19.9577 73.5742 20.3613 72.168 20.3613C71.2826 20.3613 70.4883 20.2018 69.7852 19.8828C69.082 19.5573 68.3171 18.8607 67.4902 17.793L69.5801 16.2598ZM86.3672 5.27344C88.3984 5.27344 90.1432 6.00911 91.6016 7.48047C93.0664 8.95182 93.7988 10.7454 93.7988 12.8613C93.7988 14.9577 93.0762 16.7318 91.6309 18.1836C90.1921 19.6354 88.444 20.3613 86.3867 20.3613C84.2318 20.3613 82.4414 19.6159 81.0156 18.125C79.5898 16.6341 78.877 14.8633 78.877 12.8125C78.877 11.4388 79.209 10.1758 79.873 9.02344C80.5371 7.87109 81.4486 6.95964 82.6074 6.28906C83.7728 5.61198 85.026 5.27344 86.3672 5.27344ZM86.3379 7.94922C85.0098 7.94922 83.8932 8.41146 82.9883 9.33594C82.0833 10.2604 81.6309 11.4355 81.6309 12.8613C81.6309 14.4499 82.2005 15.7064 83.3398 16.6309C84.2253 17.3535 85.2409 17.7148 86.3867 17.7148C87.6823 17.7148 88.7858 17.2461 89.6973 16.3086C90.6087 15.3711 91.0645 14.2155 91.0645 12.8418C91.0645 11.4746 90.6055 10.319 89.6875 9.375C88.7695 8.42448 87.653 7.94922 86.3379 7.94922ZM96.3672 5.63477H106.709V20H103.945V8.19336H99.1406V20H96.3672V5.63477ZM114.365 5.63477H117.139L122.666 20H119.824L118.701 17.041H112.842L111.67 20H108.828L114.365 5.63477ZM115.771 9.44336L113.857 14.375H117.676L115.771 9.44336ZM137.998 8.16406L136.084 9.99023C134.782 8.61654 133.317 7.92969 131.689 7.92969C130.316 7.92969 129.157 8.39844 128.213 9.33594C127.275 10.2734 126.807 11.429 126.807 12.8027C126.807 13.7598 127.015 14.6094 127.432 15.3516C127.848 16.0938 128.438 16.6764 129.199 17.0996C129.961 17.5228 130.807 17.7344 131.738 17.7344C132.533 17.7344 133.258 17.5879 133.916 17.2949C134.574 16.9954 135.296 16.4551 136.084 15.6738L137.939 17.6074C136.878 18.6426 135.876 19.362 134.932 19.7656C133.988 20.1628 132.91 20.3613 131.699 20.3613C129.466 20.3613 127.637 19.6549 126.211 18.2422C124.792 16.8229 124.082 15.0065 124.082 12.793C124.082 11.3607 124.404 10.0879 125.049 8.97461C125.7 7.86133 126.628 6.96615 127.832 6.28906C129.043 5.61198 130.345 5.27344 131.738 5.27344C132.923 5.27344 134.062 5.52409 135.156 6.02539C136.257 6.52669 137.204 7.23958 137.998 8.16406ZM140.391 5.63477H143.164V11.0547H147.969V5.63477H150.732V20H147.969V13.7012H143.164V20H140.391V5.63477ZM160.801 5.27344C162.832 5.27344 164.577 6.00911 166.035 7.48047C167.5 8.95182 168.232 10.7454 168.232 12.8613C168.232 14.9577 167.51 16.7318 166.064 18.1836C164.626 19.6354 162.878 20.3613 160.82 20.3613C158.665 20.3613 156.875 19.6159 155.449 18.125C154.023 16.6341 153.311 14.8633 153.311 12.8125C153.311 11.4388 153.643 10.1758 154.307 9.02344C154.971 7.87109 155.882 6.95964 157.041 6.28906C158.206 5.61198 159.46 5.27344 160.801 5.27344ZM160.771 7.94922C159.443 7.94922 158.327 8.41146 157.422 9.33594C156.517 10.2604 156.064 11.4355 156.064 12.8613C156.064 14.4499 156.634 15.7064 157.773 16.6309C158.659 17.3535 159.674 17.7148 160.82 17.7148C162.116 17.7148 163.219 17.2461 164.131 16.3086C165.042 15.3711 165.498 14.2155 165.498 12.8418C165.498 11.4746 165.039 10.319 164.121 9.375C163.203 8.42448 162.087 7.94922 160.771 7.94922ZM184.014 8.16406L182.1 9.99023C180.798 8.61654 179.333 7.92969 177.705 7.92969C176.331 7.92969 175.173 8.39844 174.229 9.33594C173.291 10.2734 172.822 11.429 172.822 12.8027C172.822 13.7598 173.031 14.6094 173.447 15.3516C173.864 16.0938 174.453 16.6764 175.215 17.0996C175.977 17.5228 176.823 17.7344 177.754 17.7344C178.548 17.7344 179.274 17.5879 179.932 17.2949C180.589 16.9954 181.312 16.4551 182.1 15.6738L183.955 17.6074C182.894 18.6426 181.891 19.362 180.947 19.7656C180.003 20.1628 178.926 20.3613 177.715 20.3613C175.482 20.3613 173.652 19.6549 172.227 18.2422C170.807 16.8229 170.098 15.0065 170.098 12.793C170.098 11.3607 170.42 10.0879 171.064 8.97461C171.715 7.86133 172.643 6.96615 173.848 6.28906C175.059 5.61198 176.361 5.27344 177.754 5.27344C178.939 5.27344 180.078 5.52409 181.172 6.02539C182.272 6.52669 183.219 7.23958 184.014 8.16406ZM185 5.63477H192.939V8.33008H190.322V20H187.549V8.33008H185V5.63477ZM194.805 20V5.63477H197.539V11.0547H198.135C199.274 11.0547 200.221 11.1882 200.977 11.4551C201.738 11.7155 202.396 12.2168 202.949 12.959C203.503 13.6947 203.779 14.5833 203.779 15.625C203.779 16.6081 203.542 17.4414 203.066 18.125C202.591 18.8086 202.038 19.2936 201.406 19.5801C200.781 19.86 199.922 20 198.828 20H194.805ZM197.539 13.4961V17.3926H198.223C199.355 17.3926 200.114 17.2526 200.498 16.9727C200.882 16.6927 201.074 16.2142 201.074 15.5371C201.074 14.1764 200.085 13.4961 198.105 13.4961H197.539ZM19.8242 30.6348H30.166V45H27.4023V33.1934H22.5977V45H19.8242V30.6348ZM33.4375 30.6348H36.3379C37.9069 30.6348 39.0365 30.7812 39.7266 31.0742C40.4232 31.3607 40.9701 31.8294 41.3672 32.4805C41.7708 33.125 41.9727 33.8997 41.9727 34.8047C41.9727 35.8073 41.709 36.6406 41.1816 37.3047C40.6608 37.9688 39.9512 38.431 39.0527 38.6914C38.5254 38.8411 37.5651 38.916 36.1719 38.916V45H33.4375V30.6348ZM36.1719 36.25H37.041C37.7246 36.25 38.1999 36.2012 38.4668 36.1035C38.7337 36.0059 38.9421 35.8464 39.0918 35.625C39.248 35.3971 39.3262 35.1237 39.3262 34.8047C39.3262 34.2513 39.1113 33.8477 38.6816 33.5938C38.3691 33.4049 37.7897 33.3105 36.9434 33.3105H36.1719V36.25ZM51.4453 30.2734C53.4766 30.2734 55.2214 31.0091 56.6797 32.4805C58.1445 33.9518 58.877 35.7454 58.877 37.8613C58.877 39.9577 58.1543 41.7318 56.709 43.1836C55.2702 44.6354 53.5221 45.3613 51.4648 45.3613C49.3099 45.3613 47.5195 44.6159 46.0938 43.125C44.668 41.6341 43.9551 39.8633 43.9551 37.8125C43.9551 36.4388 44.2871 35.1758 44.9512 34.0234C45.6152 32.8711 46.5267 31.9596 47.6855 31.2891C48.8509 30.612 50.1042 30.2734 51.4453 30.2734ZM51.416 32.9492C50.0879 32.9492 48.9714 33.4115 48.0664 34.3359C47.1615 35.2604 46.709 36.4355 46.709 37.8613C46.709 39.4499 47.2786 40.7064 48.418 41.6309C49.3034 42.3535 50.319 42.7148 51.4648 42.7148C52.7604 42.7148 53.8639 42.2461 54.7754 41.3086C55.6868 40.3711 56.1426 39.2155 56.1426 37.8418C56.1426 36.4746 55.6836 35.319 54.7656 34.375C53.8477 33.4245 52.7311 32.9492 51.416 32.9492ZM68.6426 30.6348V32.4902H69.248C72.6986 32.4902 74.4238 33.9128 74.4238 36.7578C74.4238 37.5651 74.2871 38.252 74.0137 38.8184C73.7467 39.3783 73.3496 39.8438 72.8223 40.2148C72.3014 40.5794 71.7611 40.8203 71.2012 40.9375C70.6478 41.0482 69.7949 41.1035 68.6426 41.1035V45H65.8887V41.1035C64.6842 41.1035 63.6947 40.9831 62.9199 40.7422C62.1517 40.5013 61.5202 40.0456 61.0254 39.375C60.5306 38.6979 60.2832 37.8516 60.2832 36.8359C60.2832 35.8789 60.4818 35.0716 60.8789 34.4141C61.276 33.7565 61.8359 33.2715 62.5586 32.959C63.2878 32.6465 64.3978 32.4902 65.8887 32.4902V30.6348H68.6426ZM65.8887 35.0098H65.2539C64.2969 35.0098 63.6589 35.166 63.3398 35.4785C63.0208 35.7845 62.8613 36.2337 62.8613 36.8262C62.8613 37.5228 63.0534 38.0046 63.4375 38.2715C63.8281 38.5384 64.3978 38.6719 65.1465 38.6719H65.8887V35.0098ZM68.6426 35.0098V38.6719H69.541C70.4655 38.6719 71.0775 38.4993 71.377 38.1543C71.6764 37.8092 71.8262 37.36 71.8262 36.8066C71.8262 36.2402 71.6667 35.8008 71.3477 35.4883C71.0352 35.1693 70.4004 35.0098 69.4434 35.0098H68.6426ZM76.543 30.6348H84.3848V33.3105H79.2578V35.9082H84.3848V38.5352H79.2578V42.3145H84.3848V45H76.543V30.6348ZM100.146 33.1641L98.2324 34.9902C96.9303 33.6165 95.4655 32.9297 93.8379 32.9297C92.4642 32.9297 91.3053 33.3984 90.3613 34.3359C89.4238 35.2734 88.9551 36.429 88.9551 37.8027C88.9551 38.7598 89.1634 39.6094 89.5801 40.3516C89.9967 41.0938 90.5859 41.6764 91.3477 42.0996C92.1094 42.5228 92.9557 42.7344 93.8867 42.7344C94.681 42.7344 95.4069 42.5879 96.0645 42.2949C96.722 41.9954 97.4447 41.4551 98.2324 40.6738L100.088 42.6074C99.0267 43.6426 98.0241 44.362 97.0801 44.7656C96.1361 45.1628 95.0586 45.3613 93.8477 45.3613C91.6146 45.3613 89.7852 44.6549 88.3594 43.2422C86.9401 41.8229 86.2305 40.0065 86.2305 37.793C86.2305 36.3607 86.5527 35.0879 87.1973 33.9746C87.8483 32.8613 88.776 31.9661 89.9805 31.2891C91.1914 30.612 92.4935 30.2734 93.8867 30.2734C95.0716 30.2734 96.2109 30.5241 97.3047 31.0254C98.4049 31.5267 99.3522 32.2396 100.146 33.1641ZM115.752 33.1641L113.838 34.9902C112.536 33.6165 111.071 32.9297 109.443 32.9297C108.07 32.9297 106.911 33.3984 105.967 34.3359C105.029 35.2734 104.561 36.429 104.561 37.8027C104.561 38.7598 104.769 39.6094 105.186 40.3516C105.602 41.0938 106.191 41.6764 106.953 42.0996C107.715 42.5228 108.561 42.7344 109.492 42.7344C110.286 42.7344 111.012 42.5879 111.67 42.2949C112.327 41.9954 113.05 41.4551 113.838 40.6738L115.693 42.6074C114.632 43.6426 113.63 44.362 112.686 44.7656C111.742 45.1628 110.664 45.3613 109.453 45.3613C107.22 45.3613 105.391 44.6549 103.965 43.2422C102.546 41.8229 101.836 40.0065 101.836 37.793C101.836 36.3607 102.158 35.0879 102.803 33.9746C103.454 32.8613 104.382 31.9661 105.586 31.2891C106.797 30.612 108.099 30.2734 109.492 30.2734C110.677 30.2734 111.816 30.5241 112.91 31.0254C114.01 31.5267 114.958 32.2396 115.752 33.1641ZM128.623 30.6348V45H125.889V36.0059L120.527 45H118.145V30.6348H120.879V39.9219L126.318 30.6348H128.623ZM138.691 30.2734C140.723 30.2734 142.467 31.0091 143.926 32.4805C145.391 33.9518 146.123 35.7454 146.123 37.8613C146.123 39.9577 145.4 41.7318 143.955 43.1836C142.516 44.6354 140.768 45.3613 138.711 45.3613C136.556 45.3613 134.766 44.6159 133.34 43.125C131.914 41.6341 131.201 39.8633 131.201 37.8125C131.201 36.4388 131.533 35.1758 132.197 34.0234C132.861 32.8711 133.773 31.9596 134.932 31.2891C136.097 30.612 137.35 30.2734 138.691 30.2734ZM138.662 32.9492C137.334 32.9492 136.217 33.4115 135.312 34.3359C134.408 35.2604 133.955 36.4355 133.955 37.8613C133.955 39.4499 134.525 40.7064 135.664 41.6309C136.549 42.3535 137.565 42.7148 138.711 42.7148C140.007 42.7148 141.11 42.2461 142.021 41.3086C142.933 40.3711 143.389 39.2155 143.389 37.8418C143.389 36.4746 142.93 35.319 142.012 34.375C141.094 33.4245 139.977 32.9492 138.662 32.9492ZM148.691 30.6348H151.465V36.0547H156.27V30.6348H159.033V45H156.27V38.7012H151.465V45H148.691V30.6348ZM166.689 30.6348H169.463L174.99 45H172.148L171.025 42.041H165.166L163.994 45H161.152L166.689 30.6348ZM168.096 34.4434L166.182 39.375H170L168.096 34.4434ZM186.416 45L182.441 34.4434L178.398 45H175.498L181.035 30.6348H183.809L189.336 45H186.416ZM201.475 30.6348V45H198.74V36.0059L193.379 45H190.996V30.6348H193.73V39.9219L199.17 30.6348H201.475ZM205.439 41.2598C206.162 42.2689 207.008 42.7734 207.979 42.7734C208.623 42.7734 209.144 42.5911 209.541 42.2266C209.938 41.862 210.137 41.377 210.137 40.7715C210.137 40.179 209.941 39.6875 209.551 39.2969C209.167 38.9062 208.366 38.7109 207.148 38.7109H206.562V36.2695H207.148C207.871 36.2695 208.418 36.1035 208.789 35.7715C209.167 35.4395 209.355 34.9935 209.355 34.4336C209.355 33.9193 209.199 33.5124 208.887 33.2129C208.574 32.9134 208.161 32.7637 207.646 32.7637C207.035 32.7637 206.406 33.0664 205.762 33.6719L204.15 31.875C205.016 31.0938 205.739 30.6283 206.318 30.4785C206.898 30.3223 207.432 30.2441 207.92 30.2441C209.092 30.2441 210.075 30.5859 210.869 31.2695C211.67 31.9531 212.07 32.8743 212.07 34.0332C212.07 34.5475 211.979 35.0488 211.797 35.5371C211.621 36.0254 211.123 36.543 210.303 37.0898C211.982 37.8385 212.822 39.1178 212.822 40.9277C212.822 42.2624 212.373 43.3366 211.475 44.1504C210.583 44.9577 209.434 45.3613 208.027 45.3613C207.142 45.3613 206.348 45.2018 205.645 44.8828C204.941 44.5573 204.176 43.8607 203.35 42.793L205.439 41.2598ZM216.826 30.6348H219.502L222.822 40.6543L226.191 30.6348H228.828L231.25 45H228.613L227.07 35.9277L224.014 45H221.602L218.584 35.9277L217.012 45H214.346L216.826 30.6348Z" fill="#024FA2"/>
<circle cx="3" cy="56" r="3" fill="#024FA2"/>
<circle cx="252" cy="57" r="3" fill="#024FA2"/>
<circle cx="3" cy="23" r="3" fill="#024FA2"/>
<path d="M3 22.5V57H251.5" stroke="#024FA2" stroke-width="2"/>
</svg>
