<svg width="495" height="397" viewBox="0 0 495 397" fill="none" xmlns="http://www.w3.org/2000/svg">
<path d="M362.461 27.0671C375.252 12.6655 397.748 12.6655 410.539 27.0671C421.237 39.1129 439.235 41.356 452.592 32.3475C468.541 21.5907 490.352 27.1494 499.141 44.2609C506.496 58.5787 523.399 65.2066 538.56 59.7988C556.657 53.3436 576.431 64.1246 580.67 82.8652C584.218 98.5515 598.954 109.165 614.969 107.685C634.085 105.918 650.573 121.267 650 140.457C649.521 156.522 661.145 170.461 677.017 172.993C695.97 176.017 708.116 194.983 702.774 213.417C698.301 228.851 706.064 245.232 720.81 251.618C738.428 259.248 745.445 280.636 735.672 297.161C727.49 310.996 730.897 328.77 743.599 338.619C758.785 350.395 760.214 372.844 746.623 386.429C735.252 397.794 734.112 415.848 743.968 428.55C755.743 443.724 751.484 465.818 734.952 475.595C721.12 483.776 715.49 500.991 721.868 515.742C729.486 533.36 719.825 553.699 701.397 559.066C685.968 563.56 676.195 578.842 678.691 594.717C681.673 613.678 667.239 630.972 648.056 631.605C631.987 632.135 618.7 644.51 617.154 660.512C615.307 679.628 597.03 692.794 578.277 688.653C562.567 685.183 546.619 693.87 541.125 708.992C534.559 727.061 513.602 735.293 496.443 726.621C482.071 719.357 464.481 723.825 455.383 737.112C444.507 752.995 422.183 755.799 407.697 743.121C395.569 732.507 377.431 732.507 365.303 743.121C350.817 755.799 328.493 752.995 317.617 737.112C308.519 723.825 290.929 719.357 276.557 726.621C259.398 735.293 238.441 727.061 231.875 708.992C226.381 693.87 210.433 685.183 194.723 688.653C175.97 692.794 157.693 679.628 155.846 660.512C154.3 644.51 141.013 632.135 124.944 631.605C105.761 630.972 91.3273 613.678 94.3086 594.717C96.8047 578.842 87.0324 563.56 71.6034 559.066C53.1748 553.699 43.5145 533.36 51.1322 515.742C57.51 500.991 51.8805 483.776 38.0483 475.595C21.5163 465.818 17.2571 443.724 29.0317 428.55C38.8875 415.848 37.7482 397.794 26.3775 386.429C12.7862 372.844 14.2149 350.395 29.401 338.619C42.1026 328.77 45.5096 310.996 37.3281 297.161C27.5551 280.636 34.5721 259.248 52.19 251.618C66.9357 245.232 74.6988 228.851 70.2261 213.417C64.8841 194.983 77.03 176.017 95.9828 172.993C111.855 170.461 123.479 156.522 123 140.457C122.427 121.267 138.915 105.918 158.031 107.685C174.046 109.165 188.782 98.5515 192.33 82.8652C196.569 64.1246 216.343 53.3435 234.44 59.7988C249.601 65.2066 266.504 58.5787 273.859 44.2609C282.648 27.1494 304.459 21.5907 320.408 32.3475C333.765 41.356 351.763 39.1129 362.461 27.0671Z" fill="white" fill-opacity="0.29"/>
</svg>
