<svg width="300" height="73" viewBox="0 0 300 73" fill="none" xmlns="http://www.w3.org/2000/svg">
<g clip-path="url(#clip0_264_16)">
<path fill-rule="evenodd" clip-rule="evenodd" d="M79.9844 38.7496H83.6724V31.9617H87.8215C92.4316 31.9617 96.1964 29.4792 96.1964 24.747C96.1964 20.4415 93.1231 17.6099 88.2441 17.6099H79.9844V38.7496ZM83.634 28.6258V21.0233H87.8983C90.6644 21.0233 92.3931 22.3033 92.3931 24.7858C92.3931 27.0355 90.6644 28.6258 87.8983 28.6258H83.634ZM103.073 38.7496H106.761V31.3798H111.294L116.481 38.7496H120.822L115.175 30.7592C118.094 29.9059 120.169 27.8501 120.169 24.3591C120.169 20.2863 117.287 17.6487 112.409 17.6487H103.073V38.7496ZM106.723 28.1216V21.0233H112.063C114.79 21.0233 116.404 22.2645 116.404 24.5143C116.404 26.7252 114.714 28.1216 112.101 28.1216H106.723ZM128.006 38.7496H131.694V17.6487H128.006V38.7496ZM140.415 38.7496H144.026V23.6609L150.557 33.552H150.672L157.28 23.5833V38.7109H160.968V17.6487H157.049L150.672 27.6173L144.295 17.6487H140.376V38.7496H140.415ZM169.458 38.7496H185.094V35.4138H173.108V29.7507H183.634V26.4149H173.146V20.9457H184.979V17.6099H169.458V38.7496ZM205.762 39.0599C210.142 39.0599 213.215 36.6939 213.215 32.7374C213.215 29.1689 210.91 27.5785 206.492 26.4925C202.497 25.5228 201.536 24.7858 201.536 23.1567C201.536 21.7215 202.804 20.5966 204.956 20.5966C206.876 20.5966 208.759 21.3336 210.641 22.7688L212.601 19.976C210.488 18.2693 208.067 17.3384 204.994 17.3384C200.845 17.3384 197.848 19.8596 197.848 23.467C197.848 27.4234 200.345 28.7422 204.802 29.7895C208.682 30.7204 209.527 31.535 209.527 33.0477C209.527 34.7156 208.106 35.7629 205.839 35.7629C203.227 35.7629 201.229 34.7544 199.231 33.0089L197.003 35.6466C199.539 37.9351 202.574 39.0599 205.762 39.0599ZM220.707 38.7496H224.318V23.6609L230.849 33.552H230.964L237.572 23.5833V38.7109H241.26V17.6487H237.341L230.964 27.6173L224.587 17.6487H220.668V38.7496H220.707ZM249.981 38.7496H253.669V17.6487H249.981V38.7496ZM262.389 38.7496H277.065V35.375H266.077V17.6487H262.389V38.7496ZM284.018 38.7496H299.654V35.4138H287.668V29.7507H298.156V26.4149H287.668V20.9457H299.5V17.6099H283.98V38.7496H284.018Z" fill="#485474"/>
<path fill-rule="evenodd" clip-rule="evenodd" d="M12.9471 11.8306C10.9494 12.8779 7.99123 12.9167 6.60821 15.3216C5.34044 17.5713 6.56979 19.7823 8.79799 21.1399C14.7142 24.6696 15.1368 22.2259 20.7842 29.4406C20.9762 27.4624 20.0927 26.4539 19.5932 24.3981C19.1706 22.6526 18.8249 21.3338 19.8237 19.9374C20.3616 19.2004 22.1672 20.4029 23.6655 20.2089C18.8633 17.804 18.6328 17.998 17.7492 23.2732C16.4046 22.8853 15.06 21.9932 13.677 21.4502C8.02965 19.2392 3.61167 16.1749 12.8318 12.5676C12.8702 13.3821 12.6013 14.3131 12.4476 15.0501C15.6363 12.0245 13.8306 6.51658 19.0554 7.60265C22.4361 8.30085 20.7073 15.4379 25.5863 20.9071C25.5863 20.7908 25.4326 20.4804 25.5095 20.5192L23.3965 14.5458C23.0508 12.9943 22.2824 3.76259 16.0973 6.36142C13.4081 7.48629 13.2928 10.1627 12.9471 11.8306Z" fill="#58CEEA"/>
<path fill-rule="evenodd" clip-rule="evenodd" d="M31.5026 2.7539C29.2744 2.44359 26.8541 0.698103 24.3186 1.90055C22.0135 2.98663 21.7062 5.50788 22.7819 7.91277C25.5863 14.2353 27.3151 12.4898 27.7761 21.6827C29.0439 20.1699 28.9286 18.8511 29.697 16.8729C30.3501 15.205 30.8111 13.925 32.4246 13.382C33.2698 13.0716 34.0765 15.1274 35.3827 15.8644C32.8472 11.0934 32.5783 11.1322 28.8134 14.9335C27.9682 13.8086 27.3535 12.3347 26.5467 11.0546C23.2429 5.89577 21.3988 0.814469 30.9647 3.29693C30.5037 3.99513 29.7738 4.57696 29.236 5.08121C33.5771 4.46059 35.229 -1.08617 38.9171 2.90905C41.299 5.46909 35.8053 10.2789 36.5736 17.5711C36.6505 17.4547 36.7273 17.1444 36.7273 17.1832L38.4177 11.0546C39.0323 9.61946 43.7577 1.62903 37.2267 0.116275C34.3839 -0.54313 32.7319 1.59024 31.5026 2.7539Z" fill="#485474"/>
<path fill-rule="evenodd" clip-rule="evenodd" d="M51.7859 6.59395C50.134 5.04241 49.1736 2.21084 46.4075 1.6678C43.872 1.20234 42.2201 3.10298 41.7206 5.66302C40.376 12.451 42.7963 12.0631 37.8789 19.8208C39.7998 19.3554 40.4529 18.1917 42.1816 17.0281C43.6799 16.0583 44.794 15.2826 46.4075 15.7868C47.2911 16.0583 46.7149 18.1917 47.4064 19.5493C48.0979 14.1577 47.829 14.0413 42.6042 14.9335C42.5274 13.5371 42.9116 11.9468 42.9884 10.434C43.2189 4.34421 44.6403 -0.892239 51.0176 6.71031C50.2493 6.98183 49.3272 7.05941 48.5589 7.13699C52.439 9.19278 56.9723 5.62423 57.7022 11.0158C58.1632 14.468 50.9408 15.1662 47.4064 21.6051C47.5216 21.5663 47.7521 21.3336 47.7521 21.4112L52.6311 17.4159C53.9757 16.6014 62.3891 12.8389 57.9327 7.79639C55.9734 5.62423 53.4379 6.4 51.7859 6.59395Z" fill="#485474"/>
<path fill-rule="evenodd" clip-rule="evenodd" d="M66.0777 21.6827C65.6551 19.433 66.5387 16.5626 64.6563 14.5068C62.9275 12.6062 60.4688 13.1492 58.5095 14.8947C53.4 19.5494 55.5898 20.6742 47.0996 23.9712C48.9052 24.747 50.1346 24.204 52.2091 24.3203C54.0147 24.4367 55.3209 24.4755 56.3582 25.8331C56.896 26.5701 55.2056 27.9665 54.9367 29.4404C58.6632 25.5228 58.5095 25.2513 53.7842 22.8464C54.5525 21.6827 55.7819 20.6354 56.7039 19.4718C60.4688 14.7008 64.6947 11.365 65.3478 21.2948C64.5794 21.0621 63.7727 20.5579 63.1196 20.17C65.0404 24.1652 70.7646 24.01 68.1907 28.781C66.5003 31.8453 60.3151 28.0828 53.669 31.1083C53.7842 31.1471 54.13 31.1083 54.0531 31.1471L60.3535 30.8756C61.8902 31.0308 70.8799 33.0478 70.2652 26.3373C70.0731 23.4282 67.5376 22.4973 66.0777 21.6827Z" fill="#485474"/>
<path fill-rule="evenodd" clip-rule="evenodd" d="M39.6468 70.4011C41.875 70.7889 44.2569 72.5732 46.7924 71.4871C49.1359 70.4786 49.4816 67.9574 48.5212 65.5137C45.9088 59.0748 44.1032 60.7815 43.9111 51.5886C42.5665 53.0626 42.6818 54.3814 41.8366 56.3208C41.1067 57.9887 40.6457 59.23 38.9937 59.7342C38.1101 60.0057 37.4186 57.9111 36.1124 57.1742C38.4943 62.0227 38.8017 61.9839 42.6434 58.3378C43.4501 59.4627 44.0264 60.9754 44.7947 62.2943C47.9449 67.4919 49.6353 72.6508 40.1463 69.8968C40.6073 69.2374 41.3756 68.6556 41.9519 68.1513C37.5723 68.6168 35.7667 74.1248 32.2323 70.052C29.9273 67.4143 35.5746 62.7985 34.9983 55.4675C34.9215 55.5838 34.8447 55.8941 34.8447 55.8166L32.9622 61.8676C32.2707 63.3028 27.3533 71.138 33.8458 72.8059C36.6887 73.5817 38.3791 71.5259 39.6468 70.4011Z" fill="#485474"/>
<path fill-rule="evenodd" clip-rule="evenodd" d="M19.4007 66.3284C21.0142 67.9187 21.8978 70.7891 24.6254 71.4097C27.1225 71.9528 28.8513 70.1297 29.4276 67.5696C31.0027 60.8204 28.544 61.1308 33.6535 53.5282C31.7326 53.9549 31.0411 55.0797 29.2355 56.2046C27.6988 57.1355 26.5847 57.8725 24.9712 57.3295C24.0876 57.058 24.7022 54.9246 24.0876 53.5282C23.2424 58.881 23.5113 59.0362 28.7745 58.2992C28.7745 59.6956 28.3903 61.2859 28.275 62.7599C27.8525 68.8497 26.3158 74.0473 20.1306 66.2508C20.8989 65.9793 21.8594 65.9793 22.5893 65.9017C18.7476 63.7296 14.1375 67.143 13.5613 61.7514C13.2155 58.2604 20.4379 57.7949 24.1644 51.4724C24.0492 51.5112 23.7802 51.7439 23.8186 51.6664L18.786 55.5064C17.4414 56.2822 8.91277 59.7732 13.2155 64.932C15.1748 67.2206 17.7487 66.5224 19.4007 66.3284Z" fill="#485474"/>
<path fill-rule="evenodd" clip-rule="evenodd" d="M5.57076 50.9294C5.95493 53.1791 5.03292 56.0495 6.91536 58.1053C8.64414 60.0059 11.1028 59.5405 13.0621 57.795C18.21 53.1791 16.0202 52.0543 24.5489 48.8348C22.7433 48.059 21.5139 48.5633 19.4394 48.4081C17.6338 48.2918 16.3276 48.2142 15.3287 46.8178C14.7909 46.0808 16.5197 44.7232 16.7886 43.2105C13.0237 47.0893 13.139 47.3609 17.8643 49.8433C17.0575 51.007 15.8282 52.0155 14.9061 53.1791C11.0644 57.9113 6.83853 61.2084 6.26227 51.2397C7.03061 51.4724 7.83738 52.0155 8.49047 52.4034C6.56961 48.4469 0.845443 48.4857 3.49623 43.7923C5.22501 40.7668 11.3718 44.6069 18.0564 41.6202C17.9411 41.5814 17.5953 41.6202 17.6722 41.5814L11.3718 41.7753C9.83507 41.5814 0.88386 39.4868 1.4217 46.1972C1.61379 49.1451 4.11091 50.0761 5.57076 50.9294Z" fill="#485474"/>
<path fill-rule="evenodd" clip-rule="evenodd" d="M3.15042 30.1776C2.15157 32.1946 -0.268713 33.9788 0.000206979 36.7716C0.269127 39.3316 2.53574 40.4177 5.14811 40.185C11.9864 39.5644 10.9107 37.3534 19.6698 39.8747C18.671 38.168 17.4032 37.8577 15.7897 36.4613C14.4451 35.2976 13.4078 34.4443 13.4078 32.6988C13.4078 31.7679 15.5976 31.7291 16.7117 30.6818C11.4101 31.5352 11.3333 31.8455 13.6767 36.6552C12.3705 37.1207 10.757 37.1983 9.29717 37.5862C3.41934 39.0989 -1.92065 39.2153 3.49617 30.8758C3.9956 31.5352 4.30293 32.4273 4.61027 33.1255C5.45545 28.7812 0.806968 25.4066 5.72437 23.1956C8.87458 21.7604 11.6022 28.5872 18.7094 30.1776C18.6326 30.0612 18.3636 29.906 18.4021 29.906L13.2157 26.2987C12.0632 25.2126 6.10854 18.1531 2.61258 23.8938C1.03747 26.3763 2.49733 28.626 3.15042 30.1776Z" fill="#485474"/>
<path fill-rule="evenodd" clip-rule="evenodd" d="M59.124 60.9368C61.0833 59.812 64.0798 59.7344 65.386 57.2519C66.5769 54.9634 65.3092 52.7912 63.0425 51.5112C57.011 48.1366 56.6653 50.6191 50.8259 43.5596C50.7106 45.5378 51.5942 46.5075 52.1705 48.5633C52.6315 50.3088 53.0541 51.5888 52.0936 53.024C51.5942 53.7997 49.7502 52.5973 48.2519 52.83C53.1309 55.1185 53.323 54.8858 54.0529 49.5718C55.3975 49.9209 56.7805 50.7742 58.1636 51.2785C63.8493 53.3343 68.3825 56.2822 59.2777 60.1223C59.2392 59.3077 59.4697 58.3768 59.6234 57.6398C56.5116 60.7817 58.5093 66.2121 53.2077 65.2811C49.7886 64.6605 51.3253 57.5234 46.3311 52.1706C46.3311 52.287 46.4847 52.5973 46.4079 52.5585L48.7129 58.4932C49.0587 60.0059 50.0959 69.2764 56.2043 66.4836C58.8167 65.2811 58.8551 62.6047 59.124 60.9368Z" fill="#485474"/>
<path fill-rule="evenodd" clip-rule="evenodd" d="M68.8824 42.396C69.8812 40.3402 72.2631 38.5559 71.9557 35.7631C71.6868 33.2031 69.3818 32.117 66.8078 32.3885C59.9696 33.0479 61.0453 35.2977 52.2861 32.8152C53.285 34.5219 54.5912 34.7934 56.2047 36.1898C57.5877 37.3534 58.625 38.2068 58.625 39.9135C58.625 40.8444 56.4352 40.922 55.3595 41.9693C60.6611 41.0384 60.6995 40.7668 58.3176 35.9571C59.6238 35.4916 61.2373 35.3752 62.6588 34.9873C68.4982 33.4358 73.8766 33.2806 68.5366 41.659C68.0372 40.9996 67.7298 40.1074 67.4225 39.4092C66.6158 43.7923 71.3026 47.1281 66.4237 49.3391C63.2735 50.7743 60.5074 44.0251 53.4002 42.4735C53.4771 42.5899 53.7844 42.745 53.7076 42.745L58.9323 46.3136C60.0848 47.3609 66.1163 54.3816 69.5739 48.6021C71.0337 46.1972 69.5739 43.9475 68.8824 42.396Z" fill="#485474"/>
<path fill-rule="evenodd" clip-rule="evenodd" d="M86.4772 59.5017C85.901 59.7732 85.2479 59.9284 84.4411 59.9284C83.1733 59.9284 82.0592 59.4241 81.2525 58.5708C80.4457 57.7174 79.9463 56.5538 79.9463 55.235C79.9463 53.9549 80.4457 52.7525 81.2525 51.8991C82.0592 51.0846 83.1733 50.5415 84.4795 50.5415C85.2863 50.5415 85.9394 50.6967 86.4772 50.9682C87.0151 51.2397 87.4761 51.5888 87.8987 52.0155L88.1291 52.2482L87.0535 53.4119L86.823 53.1792C86.5156 52.8689 86.1699 52.5973 85.7857 52.4034C85.4015 52.2095 84.9789 52.1319 84.4795 52.1319C83.6728 52.1319 82.9428 52.481 82.4434 53.024C81.9056 53.567 81.5982 54.3816 81.5982 55.2737C81.5982 56.1659 81.9056 56.9417 82.4434 57.5235C82.9428 58.0665 83.6728 58.4156 84.4795 58.4156C84.9789 58.4156 85.4015 58.2992 85.7857 58.1441C86.1699 57.9501 86.554 57.6786 86.8998 57.3295L87.1303 57.0968L88.206 58.2217L87.9755 58.4544C87.5529 58.8423 87.0535 59.2302 86.4772 59.5017ZM93.7765 59.7732H92.5087V52.2482H89.7427V50.7355H96.9267V52.2482H94.1222V59.7732H93.7765ZM106.646 58.5708C105.839 59.3853 104.725 59.8896 103.419 59.8896C102.113 59.8896 100.999 59.3853 100.192 58.5708C99.347 57.7174 98.886 56.515 98.886 55.235C98.886 53.9549 99.3854 52.7525 100.231 51.8991C101.037 51.0846 102.151 50.5803 103.458 50.5803C104.764 50.5803 105.878 51.0846 106.685 51.8991C107.53 52.7525 107.991 53.9549 107.991 55.235C107.991 56.515 107.491 57.7174 106.646 58.5708ZM101.345 57.4847C101.844 58.0277 102.574 58.3768 103.419 58.3768C104.264 58.3768 104.994 58.0277 105.494 57.4847C106.032 56.9029 106.339 56.1271 106.339 55.235C106.339 54.3428 106.032 53.567 105.494 52.9852C104.994 52.4422 104.264 52.0931 103.419 52.0931C102.574 52.0931 101.844 52.4422 101.345 52.9852C100.807 53.567 100.499 54.3428 100.499 55.235C100.499 56.1271 100.807 56.9029 101.345 57.4847ZM111.794 59.7732H110.565V50.7355H112.025L114.868 55.041L117.71 50.7355H119.17V59.7732H117.557V53.761L115.06 57.4847H114.675L112.178 53.761V59.7732H111.794ZM122.628 59.7732H121.168L125.24 50.6967H126.546C127.891 53.7222 129.274 56.7477 130.619 59.7732H128.89L127.929 57.5623H123.857L122.858 59.7732H122.628ZM125.893 52.9076L124.51 56.0107H127.276L125.893 52.9076ZM136.112 59.7732H134.844V52.2482H132.078V50.7355H139.262V52.2482H136.496V59.7732H136.112ZM148.982 58.5708C148.175 59.3853 147.061 59.8896 145.755 59.8896C144.449 59.8896 143.335 59.3853 142.528 58.5708C141.683 57.7174 141.222 56.515 141.222 55.235C141.222 53.9549 141.721 52.7525 142.566 51.8991C143.373 51.0846 144.487 50.5803 145.793 50.5803C147.1 50.5803 148.214 51.0846 149.02 51.8991C149.866 52.7525 150.327 53.9549 150.327 55.235C150.327 56.515 149.827 57.7174 148.982 58.5708ZM143.68 57.4847C144.18 58.0277 144.91 58.3768 145.755 58.3768C146.6 58.3768 147.33 58.0277 147.829 57.4847C148.367 56.9029 148.675 56.1271 148.675 55.235C148.675 54.3428 148.367 53.567 147.829 52.9852C147.33 52.4422 146.6 52.0931 145.755 52.0931C144.91 52.0931 144.18 52.4422 143.68 52.9852C143.143 53.567 142.835 54.3428 142.835 55.235C142.835 56.1271 143.143 56.9029 143.68 57.4847ZM155.052 58.532C154.514 59.6181 153.784 59.8508 153.054 59.8508C152.862 59.8508 152.67 59.812 152.478 59.7732C152.247 59.7344 152.017 59.6568 151.863 59.6181L151.594 59.5017L151.94 58.0665L152.286 58.2217C152.324 58.2605 152.401 58.2605 152.516 58.2992C152.632 58.2992 152.747 58.338 152.862 58.338C153.093 58.338 153.4 58.2605 153.669 57.6398C154.015 56.8641 154.245 55.3901 154.245 52.5973V50.7355H160.277V59.7732H158.663V52.2482H155.782V52.8301C155.859 55.8168 155.551 57.5235 155.052 58.532ZM170.649 58.5708C169.843 59.3853 168.728 59.8896 167.422 59.8896C166.116 59.8896 165.002 59.3853 164.195 58.5708C163.35 57.7174 162.889 56.515 162.889 55.235C162.889 53.9549 163.388 52.7525 164.234 51.8991C165.04 51.0846 166.155 50.5803 167.461 50.5803C168.767 50.5803 169.881 51.0846 170.688 51.8991C171.533 52.7525 171.994 53.9549 171.994 55.235C171.994 56.515 171.494 57.7174 170.649 58.5708ZM165.348 57.4847C165.847 58.0277 166.577 58.3768 167.422 58.3768C168.267 58.3768 168.997 58.0277 169.497 57.4847C170.035 56.9029 170.342 56.1271 170.342 55.235C170.342 54.3428 170.035 53.567 169.497 52.9852C168.997 52.4422 168.267 52.0931 167.422 52.0931C166.577 52.0931 165.847 52.4422 165.348 52.9852C164.81 53.567 164.503 54.3428 164.503 55.235C164.503 56.1271 164.81 56.9029 165.348 57.4847ZM175.797 59.7732H174.529V50.7355H180.484V52.2482H176.143V59.7732H175.797ZM184.019 59.7732H182.789V50.7355H184.403V56.9804L188.859 50.7355H190.242V59.7732H188.667V53.5283L184.211 59.7732H184.019ZM199.347 59.7732H198.079V56.3986C197.772 56.515 197.465 56.6701 197.119 56.7865C196.658 56.9416 196.197 57.0192 195.813 57.0192C194.891 57.0192 194.161 56.7865 193.623 56.2822C193.123 55.8168 192.816 55.1186 192.816 54.2265V50.7355H194.43V54.0713C194.43 54.498 194.545 54.8859 194.814 55.1186C195.044 55.3513 195.428 55.4677 195.928 55.4677C196.274 55.4677 196.658 55.3901 197.042 55.2737C197.426 55.1574 197.81 54.9634 198.118 54.8083V50.7355H199.731V59.7732H199.347ZM208.951 59.7732H202.574V50.7355H209.22V52.2482H204.149V54.4204H208.682V55.9331H204.149V58.1829H209.259V59.6956H208.951V59.7732ZM217.902 59.5017C217.326 59.7732 216.673 59.9284 215.866 59.9284C214.599 59.9284 213.484 59.4241 212.678 58.5708C211.871 57.7174 211.372 56.5538 211.372 55.235C211.372 53.9549 211.871 52.7525 212.678 51.8991C213.484 51.0846 214.599 50.5415 215.905 50.5415C216.712 50.5415 217.365 50.6967 217.902 50.9682C218.44 51.2397 218.901 51.5888 219.324 52.0155L219.554 52.2482L218.479 53.4119L218.248 53.1792C217.941 52.8689 217.595 52.5973 217.211 52.4034C216.827 52.2095 216.404 52.1319 215.905 52.1319C215.098 52.1319 214.368 52.481 213.869 53.024C213.331 53.567 213.023 54.3816 213.023 55.2737C213.023 56.1659 213.331 56.9417 213.869 57.5235C214.368 58.0665 215.098 58.4156 215.905 58.4156C216.404 58.4156 216.827 58.2992 217.211 58.1441C217.595 57.9501 217.979 57.6786 218.325 57.3295L218.556 57.0968L219.631 58.2217L219.401 58.4544C218.978 58.8423 218.479 59.2302 217.902 59.5017ZM223.012 59.7732H221.744V50.7355H223.358V55.235L227.66 50.7355H229.812L225.932 54.7307L229.889 59.7344H227.814L224.779 55.8556L223.358 57.2907V59.7344H223.012V59.7732ZM232.732 59.7732H231.502V50.7355H233.116V56.9804L237.572 50.7355H238.955V59.7732H237.38V53.5283L232.924 59.7732H232.732ZM243.104 59.7732H241.875V50.7355H243.488V56.9804L247.945 50.7355H249.328V59.7732H247.753V53.5283L243.296 59.7732H243.104ZM246.946 50.2312C246.6 50.5415 246.139 50.6967 245.601 50.6967C245.063 50.6967 244.641 50.5028 244.257 50.2312C243.911 49.9209 243.642 49.4943 243.565 48.9512L243.527 48.6409L244.795 48.3694L244.871 48.6797C244.91 48.8736 245.025 49.0288 245.14 49.1452C245.256 49.2227 245.409 49.3003 245.601 49.3003C245.793 49.3003 245.947 49.2615 246.062 49.1452C246.178 49.0288 246.293 48.8736 246.331 48.6797L246.408 48.3694L247.676 48.6409L247.637 48.9512C247.561 49.4555 247.33 49.9209 246.946 50.2312ZM262.39 61.6351H261.275V59.7732H254.514V50.7355H256.128V58.2605H260.2V50.7355H261.813V58.2605H262.889L262.697 61.6351H262.39ZM271.187 59.7732H264.81V50.7355H271.456V52.2482H266.385V54.4204H270.918V55.9331H266.385V58.1829H271.494V59.6956H271.187V59.7732ZM275.259 59.7732H273.992V50.7355H275.605V54.4592H279.716V50.7355H281.329V59.7732H279.716V56.0107H275.605V59.7732H275.259ZM287.707 59.7732H286.439V52.2482H283.673V50.7355H290.818V52.2482H288.052V59.7732H287.707ZM294.43 59.7732H293.162V50.7355H296.581C297.618 50.7355 298.463 51.007 299.078 51.55C299.693 52.0931 300.038 52.8301 300.038 53.761C300.038 54.7307 299.654 55.4677 299.04 56.0107C298.387 56.5538 297.465 56.8641 296.466 56.8641H294.775V59.812H294.43V59.7732ZM294.737 52.2482V55.2737H296.466C297.08 55.2737 297.58 55.1186 297.926 54.8471C298.233 54.5755 298.425 54.2265 298.425 53.761C298.425 53.2955 298.271 52.9076 297.964 52.6749C297.618 52.4034 297.157 52.287 296.543 52.287H294.737V52.2482Z" fill="#485474"/>
</g>
<defs>
<clipPath id="clip0_264_16">
<rect width="300" height="73" fill="white"/>
</clipPath>
</defs>
</svg>
