<svg width="807" height="918" viewBox="0 0 807 918" fill="none" xmlns="http://www.w3.org/2000/svg">
<g clip-path="url(#clip0_312_815)">
<path d="M429.317 24.7194C446.515 10.3978 471.485 10.3978 488.683 24.7194V24.7194C502.573 36.2876 521.92 38.7316 538.251 30.9813V30.9813C558.47 21.3864 582.656 27.5964 595.751 45.7448V45.7448C606.329 60.4042 624.459 67.5826 642.205 64.1373V64.1373C664.175 59.872 686.057 71.9018 694.227 92.7367V92.7367C700.827 109.566 716.603 121.028 734.648 122.104V122.104C756.988 123.436 775.191 140.53 777.923 162.742V162.742C780.13 180.684 792.56 195.709 809.771 201.239V201.239C831.077 208.085 844.457 229.169 841.58 251.363V251.363C839.256 269.29 847.558 286.934 862.853 296.57V296.57C881.788 308.5 889.504 332.249 881.198 353.03V353.03C874.488 369.816 878.142 388.97 890.56 402.107V402.107C905.933 418.371 907.501 443.293 894.287 461.355V461.355C883.614 475.945 882.39 495.407 891.15 511.219V511.219C901.996 530.795 897.317 555.324 880.026 569.533V569.533C866.06 581.01 860.034 599.556 864.587 617.05V617.05C870.223 638.708 859.591 661.303 839.311 670.765V670.765C822.929 678.409 812.48 694.873 812.539 712.95V712.95C812.612 735.33 796.695 754.57 774.699 758.692V758.692C756.931 762.021 742.716 775.37 738.277 792.893V792.893C732.783 814.588 712.581 829.266 690.25 827.787V827.787C672.212 826.593 655.124 835.988 646.467 851.857V851.857C635.75 871.504 612.533 880.696 591.271 873.711V873.711C574.097 868.068 555.21 872.918 542.878 886.136V886.136C527.612 902.5 502.838 905.63 483.981 893.576V893.576C468.75 883.84 449.25 883.84 434.019 893.576V893.576C415.162 905.63 390.388 902.5 375.122 886.136V886.136C362.79 872.918 343.903 868.068 326.729 873.711V873.711C305.467 880.696 282.25 871.504 271.533 851.857V851.857C262.876 835.988 245.788 826.593 227.75 827.787V827.787C205.419 829.266 185.217 814.588 179.723 792.893V792.893C175.284 775.37 161.069 762.021 143.301 758.692V758.692C121.305 754.57 105.388 735.33 105.461 712.95V712.95C105.52 694.873 95.0711 678.409 78.6894 670.765V670.765C58.4086 661.303 47.7765 638.708 53.4129 617.05V617.05C57.9657 599.556 51.9399 581.01 37.9736 569.533V569.533C20.6833 555.324 16.0042 530.795 26.8497 511.219V511.219C35.6102 495.407 34.3858 475.945 23.7125 461.355V461.355C10.499 443.293 12.067 418.371 27.4401 402.107V402.107C39.8578 388.97 43.5117 369.816 36.8022 353.03V353.03C28.4957 332.249 36.2121 308.5 55.147 296.57V296.57C70.4416 286.934 78.7443 269.29 76.42 251.363V251.363C73.5426 229.169 86.9227 208.085 108.229 201.239V201.239C125.44 195.709 137.87 180.684 140.077 162.742V162.742C142.809 140.53 161.012 123.436 183.352 122.104V122.104C201.397 121.028 217.173 109.566 223.773 92.7367V92.7367C231.943 71.9018 253.825 59.872 275.795 64.1373V64.1373C293.54 67.5827 311.671 60.4042 322.249 45.7448V45.7448C335.344 27.5964 359.53 21.3864 379.749 30.9813V30.9813C396.08 38.7316 415.427 36.2876 429.317 24.7194V24.7194Z" fill="url(#paint0_linear_312_815)"/>
<g style="mix-blend-mode:overlay" opacity="0.59">
<circle cx="285" cy="655" r="230" fill="url(#paint1_radial_312_815)"/>
</g>
</g>
<defs>
<linearGradient id="paint0_linear_312_815" x1="724.944" y1="107.845" x2="458.312" y2="917.774" gradientUnits="userSpaceOnUse">
<stop stop-color="#F8D1C5"/>
<stop offset="0.612303" stop-color="#EAE8E5"/>
</linearGradient>
<radialGradient id="paint1_radial_312_815" cx="0" cy="0" r="1" gradientUnits="userSpaceOnUse" gradientTransform="translate(285 655) rotate(90) scale(230)">
<stop stop-color="white"/>
<stop offset="1" stop-color="white" stop-opacity="0"/>
</radialGradient>
<clipPath id="clip0_312_815">
<rect width="807" height="918" fill="white"/>
</clipPath>
</defs>
</svg>
