<svg width="520" height="440" viewBox="0 0 520 440" fill="none" xmlns="http://www.w3.org/2000/svg">
<g clip-path="url(#clip0_313_820)">
<path d="M585.729 353.458C581.239 370.93 564.914 382.706 546.917 381.452V381.452C532.38 380.439 518.58 387.965 511.557 400.733V400.733C502.863 416.54 484.123 423.885 467.003 418.196V418.196C453.175 413.6 437.936 417.456 427.959 428.077V428.077C415.607 441.226 395.629 443.68 380.462 433.911V433.911C368.211 426.021 352.492 425.967 340.187 433.772V433.772C324.954 443.436 304.992 440.845 292.731 427.611V427.611C282.828 416.922 267.616 412.96 253.757 417.461V417.461C236.598 423.033 217.908 415.558 209.324 399.691V399.691C202.39 386.875 188.641 379.255 174.098 380.167V380.167C156.093 381.297 139.849 369.409 135.48 351.906V351.906C131.951 337.768 120.529 326.968 106.216 324.235V324.235C88.496 320.851 75.7188 305.298 75.8399 287.258V287.258C75.9378 272.686 67.5609 259.385 54.3769 253.178V253.178C38.055 245.494 29.5472 227.252 34.1509 209.809V209.809C37.8695 195.719 33.0636 180.753 21.8373 171.462V171.462C7.93913 159.961 4.23548 140.175 13.0324 124.425V124.425C20.138 111.703 19.2051 96.0117 10.642 84.2213V84.2213C0.0408266 69.6245 1.37396 49.5397 13.8114 36.4721V36.4721C23.8577 25.9168 26.8563 10.4865 21.4944 -3.06316V-3.06316C14.8563 -19.8377 21.1425 -38.96 36.4389 -48.524V-48.524C48.7946 -56.2492 55.5364 -70.4491 53.7126 -84.9065V-84.9065C51.4547 -102.805 62.2989 -119.763 79.4932 -125.223V-125.223C93.3819 -129.632 103.443 -141.709 105.272 -156.166V-156.166C107.536 -174.064 122.257 -187.792 140.269 -188.804V-188.804C154.818 -189.622 167.567 -198.817 172.934 -212.365V-212.365C179.578 -229.137 197.25 -238.773 214.948 -235.274V-235.274C229.243 -232.448 243.878 -238.184 252.445 -249.971V-249.971C263.052 -264.564 282.565 -269.503 298.837 -261.712V-261.712C311.98 -255.419 327.582 -257.336 338.811 -266.622V-266.622C352.713 -278.119 372.842 -278.05 386.665 -266.457V-266.457C397.83 -257.094 413.419 -255.07 426.605 -261.272V-261.272C442.929 -268.95 462.409 -263.877 472.914 -249.211V-249.211C481.4 -237.365 495.995 -231.528 510.31 -234.256V-234.256C528.031 -237.634 545.637 -227.876 552.165 -211.058V-211.058C557.438 -197.474 570.123 -188.19 584.666 -187.273V-187.273C602.671 -186.137 617.296 -172.307 619.437 -154.394V-154.394C621.166 -139.925 631.144 -127.779 645.002 -123.274V-123.274C662.159 -117.696 672.886 -100.663 670.505 -82.7811V-82.7811C668.581 -68.3366 675.225 -54.0906 687.527 -46.2804V-46.2804C702.757 -36.6112 708.911 -17.446 702.158 -0.717643V-0.717643C696.703 12.7947 699.595 28.2454 709.568 38.8696V38.8696C721.915 52.0226 723.11 72.1162 712.408 86.6395V86.6395C703.764 98.3707 702.723 114.055 709.741 126.826V126.826C718.429 142.636 714.589 162.396 700.612 173.801V173.801C689.322 183.014 684.413 197.947 688.035 212.062V212.062C692.518 229.536 683.885 247.72 667.51 255.291V255.291C654.284 261.407 645.815 274.65 645.813 289.222V289.222C645.81 307.262 632.925 322.727 615.183 325.989V325.989C600.851 328.623 589.355 339.344 585.729 353.458V353.458Z" fill="url(#paint0_linear_313_820)"/>
</g>
<defs>
<linearGradient id="paint0_linear_313_820" x1="353.255" y1="438.519" x2="145.641" y2="-216.729" gradientUnits="userSpaceOnUse">
<stop stop-color="#F8D1C5"/>
<stop offset="0.612303" stop-color="#EAE8E5"/>
</linearGradient>
<clipPath id="clip0_313_820">
<rect width="520" height="440" fill="white"/>
</clipPath>
</defs>
</svg>
