<svg width="476" height="336" viewBox="0 0 476 336" fill="none" xmlns="http://www.w3.org/2000/svg">
<g clip-path="url(#clip0_312_812)">
<path d="M327.869 -378.295C343.31 -400.118 375.69 -400.118 391.131 -378.295C403.405 -360.947 427.453 -356.785 444.921 -368.889C466.843 -384.08 497.327 -373.102 504.327 -347.366C509.896 -326.889 531.122 -314.786 551.64 -320.202C577.381 -326.996 602.337 -306.302 600.069 -279.776C598.264 -258.655 614.05 -240.035 635.163 -238.146C661.668 -235.775 678.03 -207.792 666.794 -183.67C657.846 -164.46 666.229 -141.597 685.432 -132.633C709.572 -121.364 715.281 -89.4841 696.439 -70.6497C681.44 -55.6571 681.44 -31.3429 696.439 -16.3503C715.281 2.48413 709.572 34.3644 685.432 45.6334C666.229 54.5974 657.846 77.4597 666.794 96.6702C678.03 120.792 661.668 148.775 635.163 151.146C614.05 153.035 598.264 171.655 600.069 192.776C602.337 219.302 577.381 239.996 551.64 233.202C531.122 227.786 509.896 239.889 504.327 260.366C497.327 286.102 466.843 297.08 444.921 281.889C427.453 269.785 403.405 273.947 391.131 291.295C375.69 313.118 343.31 313.118 327.869 291.295C315.595 273.947 291.547 269.785 274.079 281.889C252.157 297.08 221.673 286.102 214.673 260.366C209.104 239.889 187.878 227.786 167.36 233.202C141.619 239.996 116.663 219.302 118.931 192.776C120.736 171.655 104.95 153.035 83.8367 151.146C57.3319 148.775 40.9695 120.792 52.2056 96.6702C61.1538 77.4597 52.7712 54.5974 33.5681 45.6334C9.42752 34.3644 3.71925 2.48413 22.5613 -16.3503C37.5599 -31.3429 37.5599 -55.6571 22.5613 -70.6497C3.71925 -89.4841 9.42752 -121.364 33.5681 -132.633C52.7712 -141.597 61.1538 -164.46 52.2056 -183.67C40.9695 -207.792 57.3319 -235.775 83.8367 -238.146C104.95 -240.035 120.736 -258.655 118.931 -279.776C116.663 -306.302 141.619 -326.996 167.36 -320.202C187.878 -314.786 209.104 -326.889 214.673 -347.366C221.673 -373.102 252.157 -384.08 274.079 -368.889C291.547 -356.785 315.595 -360.947 327.869 -378.295Z" fill="#BCE1F7" fill-opacity="0.13"/>
</g>
<defs>
<clipPath id="clip0_312_812">
<rect width="476" height="336" fill="white"/>
</clipPath>
</defs>
</svg>
