<svg width="622" height="577" viewBox="0 0 622 577" fill="none" xmlns="http://www.w3.org/2000/svg">
<g clip-path="url(#clip0_359_2)">
<path d="M354.454 45.3546C370.088 23.2271 402.912 23.2271 418.546 45.3546C430.976 62.9469 455.333 67.1822 473.03 54.9021C495.251 39.4831 526.138 50.637 533.227 76.738C538.867 97.5037 560.344 109.79 581.147 104.291C607.261 97.3884 632.519 118.398 630.221 145.31C628.392 166.733 644.357 185.614 665.772 187.533C692.666 189.942 709.207 218.323 697.818 242.806C688.752 262.297 697.234 285.474 716.708 294.577C741.19 306.021 746.953 338.34 727.853 357.458C712.653 372.673 712.653 397.327 727.853 412.542C746.953 431.66 741.19 463.979 716.708 475.423C697.234 484.526 688.752 507.703 697.818 527.194C709.207 551.677 692.666 580.058 665.772 582.467C644.357 584.386 628.392 603.267 630.221 624.69C632.519 651.602 607.261 672.612 581.147 665.709C560.344 660.21 538.867 672.496 533.227 693.262C526.138 719.363 495.251 730.517 473.03 715.098C455.333 702.818 430.976 707.053 418.546 724.645C402.912 746.773 370.088 746.773 354.454 724.645C342.024 707.053 317.667 702.818 299.97 715.098C277.749 730.517 246.862 719.363 239.773 693.262C234.133 672.496 212.656 660.21 191.853 665.709C165.739 672.612 140.481 651.602 142.779 624.69C144.608 603.267 128.643 584.386 107.228 582.467C80.3343 580.058 63.7933 551.677 75.1816 527.194C84.248 507.703 75.7661 484.526 56.2923 475.423C31.8104 463.979 26.0466 431.66 45.1466 412.542C60.3472 397.327 60.3472 372.673 45.1466 357.458C26.0466 338.34 31.8104 306.021 56.2923 294.577C75.7661 285.474 84.248 262.297 75.1816 242.806C63.7933 218.323 80.3343 189.942 107.228 187.533C128.643 185.614 144.608 166.733 142.779 145.31C140.481 118.398 165.739 97.3884 191.853 104.291C212.656 109.79 234.133 97.5037 239.773 76.738C246.862 50.637 277.749 39.4831 299.97 54.9021C317.667 67.1822 342.024 62.9469 354.454 45.3546Z" fill="#EFDFDB" fill-opacity="0.46"/>
</g>
<defs>
<clipPath id="clip0_359_2">
<rect width="622" height="577" fill="white"/>
</clipPath>
</defs>
</svg>
