<svg width="135" height="40" viewBox="0 0 135 40" fill="none" xmlns="http://www.w3.org/2000/svg">
<path fill-rule="evenodd" clip-rule="evenodd" d="M130 40H5C2.25 40 0 37.75 0 35V5C0 2.25 2.25 0 5 0H130C132.75 0 135 2.25 135 5V35C135 37.75 132.75 40 130 40Z" fill="#858FA7"/>
<path fill-rule="evenodd" clip-rule="evenodd" d="M57.8029 6.90039C58.7358 6.90039 59.4995 7.23988 60.0826 7.91503L60.0765 8.05223L59.5395 8.57223L59.3919 8.56292C59.0046 8.07954 58.4768 7.83839 57.8029 7.83839C57.1741 7.83839 56.6476 8.04879 56.2179 8.47181C55.7878 8.89329 55.5729 9.44537 55.5729 10.1344C55.5729 10.8237 55.788 11.3766 56.218 11.798C56.6482 12.2206 57.1751 12.4314 57.8029 12.4314C58.4945 12.4314 59.0814 12.1542 59.5717 11.5945L59.7176 11.5897L60.2536 12.1257L60.2597 12.2605C59.9732 12.6033 59.6184 12.8733 59.1943 13.07C58.7687 13.2689 58.3034 13.3684 57.8029 13.3684C56.8942 13.3684 56.1286 13.0594 55.5112 12.4431C54.8946 11.8264 54.5859 11.0551 54.5859 10.1344C54.5859 9.21454 54.8947 8.44325 55.5112 7.82668C56.1283 7.20961 56.8939 6.90039 57.8029 6.90039ZM85.4799 6.90088C86.3786 6.90088 87.1355 7.21559 87.7476 7.84418C88.3579 8.47207 88.6639 9.23716 88.6639 10.1349C88.6639 11.0372 88.3592 11.8034 87.7516 12.4286C87.1427 13.055 86.3838 13.3689 85.4799 13.3689C84.5758 13.3689 83.8169 13.0549 83.2092 12.4286C82.6012 11.8041 82.2969 11.0382 82.2969 10.1349C82.2969 9.23135 82.6013 8.46448 83.2092 7.84018C83.8172 7.2146 84.5761 6.90088 85.4799 6.90088ZM46.4534 7.13439L46.3534 7.03439H42.3474L42.2474 7.13439V10.1014C42.2582 11.1589 42.0133 11.8969 41.5202 12.3216L40.9984 12.2974L40.8984 12.3974V14.4084L40.9984 14.5084H41.7354L41.8354 14.4084V13.2344H46.1864V14.4084L46.2864 14.5084H47.0234L47.1234 14.4084V12.3974L47.0234 12.2974H46.4534V7.13439ZM66.4902 7.09512L66.3983 7.03467H65.4933L65.4023 7.17613L67.4223 11.6091L67.2044 12.0042C67.127 12.1736 67.0457 12.2871 66.9642 12.3453C66.8868 12.4012 66.7683 12.4307 66.6073 12.4307C66.4857 12.4307 66.3684 12.3992 66.2541 12.3353L66.1091 12.3955L65.9081 13.1075L65.9658 13.2269C66.1913 13.3212 66.402 13.3687 66.6003 13.3687C67.2626 13.3687 67.7617 12.9856 68.0899 12.2368L70.3606 7.1756L70.2693 7.03467H69.3643L69.2722 7.09589L67.8975 10.3633L66.4902 7.09512ZM53.103 7.84418C52.491 7.21559 51.7341 6.90088 50.8353 6.90088C49.9316 6.90088 49.1727 7.2146 48.5646 7.84018C47.9568 8.46448 47.6523 9.23135 47.6523 10.1349C47.6523 11.0382 47.9567 11.8041 48.5647 12.4286C49.1724 13.0549 49.9313 13.3689 50.8353 13.3689C51.7393 13.3689 52.4981 13.055 53.1071 12.4286C53.7147 11.8034 54.0193 11.0372 54.0193 10.1349C54.0193 9.23716 53.7134 8.47207 53.103 7.84418ZM75.5801 7.13467L75.4801 7.03467H71.1391L71.0391 7.13467V13.1347L71.1391 13.2347H71.9101L72.0101 13.1347V7.97167H74.6081V13.1347L74.7081 13.2347H75.4801L75.5801 13.1347V7.13467ZM93.8833 7.03418C94.3767 7.03418 94.8068 7.19845 95.1703 7.525C95.5356 7.85518 95.7193 8.27123 95.7193 8.76818C95.7193 9.0736 95.6391 9.34522 95.4793 9.57791C95.3561 9.76144 95.1986 9.91011 95.0081 10.0238C95.2471 10.1346 95.4493 10.2964 95.6146 10.5093C95.8178 10.7737 95.9203 11.0804 95.9203 11.4252C95.9203 11.9446 95.7279 12.379 95.3462 12.7225C94.9677 13.0631 94.5179 13.2342 94.0013 13.2342H91.7133L91.6133 13.1342V7.13418L91.7133 7.03418H93.8833ZM77.7288 7.13467L77.6288 7.03467H76.8578L76.7578 7.13467V13.1347L76.8578 13.2347H77.6288L77.7288 13.1347V10.5277H80.5288V13.1347L80.6288 13.2347H81.3998L81.4998 13.1347V7.13467L81.3998 7.03467H80.6288L80.5288 7.13467V9.60667H77.7288V7.13467ZM64.9769 7.03467L65.0769 7.13467V7.87167L64.9769 7.97167H63.4009V13.1347L63.3009 13.2347H62.5299L62.4299 13.1347V7.97167H60.8539L60.7539 7.87167V7.13467L60.8539 7.03467H64.9769ZM49.2778 8.48302C49.703 8.05206 50.2204 7.83778 50.8366 7.83778C51.4522 7.83778 51.9705 8.05233 52.3954 8.48302C52.8206 8.91301 53.0336 9.46269 53.0336 10.1348C53.0336 10.8065 52.8209 11.3554 52.3954 11.7865C51.9709 12.2168 51.4529 12.4308 50.8366 12.4308C50.2198 12.4308 49.7026 12.2171 49.2778 11.7865C48.8532 11.3552 48.6406 10.8062 48.6406 10.1348C48.6406 9.46298 48.8534 8.91315 49.2778 8.48302ZM85.4812 7.83789C84.8649 7.83789 84.3475 8.05217 83.9223 8.48312C83.498 8.91326 83.2852 9.46309 83.2852 10.1349C83.2852 10.8063 83.4977 11.3553 83.9223 11.7867C84.3471 12.2172 84.8643 12.4309 85.4812 12.4309C86.0974 12.4309 86.6155 12.2169 87.04 11.7867C87.4654 11.3555 87.6782 10.8066 87.6782 10.1349C87.6782 9.4628 87.4652 8.91312 87.04 8.48313C86.615 8.05244 86.0968 7.83789 85.4812 7.83789ZM92.5861 10.5273H94.0031C94.2823 10.5273 94.505 10.6188 94.6761 10.8016C94.8495 10.9887 94.9341 11.1889 94.9341 11.4083C94.9341 11.6291 94.8515 11.8315 94.6827 12.0195C94.5175 12.2053 94.3048 12.2973 94.0371 12.2973H92.5861V10.5273ZM45.483 7.97217H43.219L43.219 10.0999C43.2289 10.8864 43.1015 11.5538 42.8363 12.0986L42.7305 12.2972H45.483V7.97217ZM92.5861 9.60729V7.97229H93.9201C94.1712 7.97229 94.368 8.05564 94.5186 8.22397C94.6734 8.39501 94.7491 8.58123 94.7491 8.78529C94.7491 8.98818 94.6712 9.17563 94.5121 9.35112C94.3561 9.52214 94.1493 9.60729 93.8851 9.60729H92.5861Z" fill="white"/>
<path fill-rule="evenodd" clip-rule="evenodd" d="M106.941 30H108.807V17.499H106.941V30ZM123.749 22.002L121.61 27.422H121.546L119.326 22.002H117.316L120.645 29.577L118.747 33.791H120.693L125.824 22.002H123.749ZM113.167 28.5801C112.555 28.5801 111.703 28.2741 111.703 27.5181C111.703 26.5531 112.764 26.1841 113.681 26.1841C114.501 26.1841 114.887 26.3611 115.386 26.6021C115.241 27.7601 114.244 28.5801 113.167 28.5801ZM113.391 21.7289C112.04 21.7289 110.64 22.3239 110.061 23.6419L111.718 24.3339C112.072 23.6419 112.731 23.4169 113.423 23.4169C114.388 23.4169 115.369 23.9959 115.385 25.0249V25.1539C115.047 24.9609 114.323 24.6719 113.439 24.6719C111.654 24.6719 109.836 25.6529 109.836 27.4859C109.836 29.1589 111.3 30.2359 112.94 30.2359C114.195 30.2359 114.886 29.6739 115.321 29.0139H115.385V29.9789H117.186V25.1859C117.186 22.9669 115.53 21.7289 113.391 21.7289ZM101.857 23.5238H99.2031V19.2378H101.857C103.252 19.2378 104.044 20.3938 104.044 21.3808C104.044 22.3498 103.252 23.5238 101.857 23.5238ZM101.811 17.4989H97.3399V29.9999H99.2049V25.2639H101.811C103.879 25.2639 105.912 23.7659 105.912 21.3809C105.912 18.9959 103.879 17.4989 101.811 17.4989ZM77.4305 28.5818C76.1415 28.5818 75.0625 27.5028 75.0625 26.0208C75.0625 24.5228 76.1415 23.4268 77.4305 23.4268C78.7035 23.4268 79.7015 24.5228 79.7015 26.0208C79.7015 27.5028 78.7035 28.5818 77.4305 28.5818ZM79.5704 22.702H79.5064C79.0874 22.203 78.2824 21.751 77.2674 21.751C75.1404 21.751 73.1914 23.62 73.1914 26.021C73.1914 28.405 75.1404 30.258 77.2674 30.258C78.2824 30.258 79.0874 29.807 79.5064 29.291H79.5704V29.903C79.5704 31.531 78.7014 32.4 77.2994 32.4C76.1554 32.4 75.4464 31.579 75.1564 30.886L73.5294 31.563C73.9964 32.691 75.2374 34.076 77.2994 34.076C79.4904 34.076 81.3434 32.787 81.3434 29.646V22.009H79.5704V22.702ZM82.6329 29.9999H84.5019V17.4979H82.6329V29.9999ZM87.2552 25.876C87.2072 24.232 88.5282 23.395 89.4782 23.395C90.2202 23.395 90.8482 23.765 91.0572 24.297L87.2552 25.876ZM93.0583 24.458C92.7033 23.507 91.6242 21.751 89.4173 21.751C87.2262 21.751 85.4062 23.475 85.4062 26.005C85.4062 28.389 87.2103 30.258 89.6263 30.258C91.5762 30.258 92.7033 29.066 93.1712 28.373L91.7212 27.406C91.2373 28.115 90.5773 28.582 89.6263 28.582C88.6763 28.582 87.9992 28.147 87.5643 27.294L93.2513 24.941L93.0583 24.458ZM47.7489 23.0569V24.8609H52.0659C51.9369 25.8759 51.5989 26.6169 51.0839 27.1319C50.4549 27.7609 49.4719 28.4529 47.7489 28.4529C45.0899 28.4529 43.0119 26.3109 43.0119 23.6519C43.0119 20.9939 45.0899 18.8519 47.7489 18.8519C49.1829 18.8519 50.2299 19.4149 51.0029 20.1399L52.2759 18.8679C51.1959 17.8369 49.7629 17.0469 47.7489 17.0469C44.1079 17.0469 41.0469 20.0119 41.0469 23.6519C41.0469 27.2939 44.1079 30.2579 47.7489 30.2579C49.7139 30.2579 51.1959 29.6129 52.3559 28.4049C53.5479 27.2129 53.9189 25.5379 53.9189 24.1839C53.9189 23.7649 53.8869 23.3789 53.8219 23.0569H47.7489ZM58.8258 28.5818C57.5378 28.5818 56.4258 27.5188 56.4258 26.0048C56.4258 24.4738 57.5378 23.4268 58.8258 23.4268C60.1148 23.4268 61.2268 24.4738 61.2268 26.0048C61.2268 27.5188 60.1148 28.5818 58.8258 28.5818ZM58.8276 21.751C56.4756 21.751 54.5586 23.54 54.5586 26.005C54.5586 28.453 56.4756 30.258 58.8276 30.258C61.1796 30.258 63.0976 28.453 63.0976 26.005C63.0976 23.54 61.1796 21.751 58.8276 21.751ZM68.1393 28.5818C66.8503 28.5818 65.7383 27.5188 65.7383 26.0048C65.7383 24.4738 66.8503 23.4268 68.1393 23.4268C69.4283 23.4268 70.5393 24.4738 70.5393 26.0048C70.5393 27.5188 69.4283 28.5818 68.1393 28.5818ZM68.1401 21.751C65.7881 21.751 63.8711 23.54 63.8711 26.005C63.8711 28.453 65.7881 30.258 68.1401 30.258C70.4921 30.258 72.4091 28.453 72.4091 26.005C72.4091 23.54 70.4921 21.751 68.1401 21.751Z" fill="white"/>
<path fill-rule="evenodd" clip-rule="evenodd" d="M10.9005 7.21265C10.6095 7.52065 10.4375 7.99865 10.4375 8.61765V30.7337C10.4375 31.3537 10.6095 31.8307 10.9005 32.1377L10.9735 32.2107L23.3635 19.8217V19.6757V19.5287L10.9735 7.13965L10.9005 7.21265Z" fill="white" stroke="#858FA7"/>
<path fill-rule="evenodd" clip-rule="evenodd" d="M23.3672 19.5284V19.6754V19.8214L27.4962 23.9534L27.5902 23.9004L32.4832 21.1204C33.8812 20.3254 33.8812 19.0254 32.4832 18.2314L27.5902 15.4514L27.4972 15.3984L23.3672 19.5284Z" fill="white" stroke="#858FA7"/>
<path fill-rule="evenodd" clip-rule="evenodd" d="M10.9062 32.1378C11.3663 32.6258 12.1273 32.6868 12.9843 32.1998L27.5923 23.8998L23.3693 19.6758L10.9062 32.1378Z" fill="white" stroke="#858FA7"/>
<path fill-rule="evenodd" clip-rule="evenodd" d="M10.9062 7.21245L23.3693 19.6755L27.5923 15.4515L12.9843 7.15145C12.5823 6.92245 12.2013 6.81445 11.8633 6.81445C11.4793 6.81445 11.1503 6.95345 10.9062 7.21245Z" fill="white"/>
<path d="M10.9062 7.21245L23.3693 19.6755L27.5923 15.4515L12.9843 7.15145C12.5823 6.92245 12.2013 6.81445 11.8633 6.81445V6.81445C11.4793 6.81445 11.1503 6.95345 10.9062 7.21245" stroke="#858FA7"/>
</svg>
