<svg width="273" height="40" viewBox="0 0 273 40" fill="none" xmlns="http://www.w3.org/2000/svg">
<path fill-rule="evenodd" clip-rule="evenodd" d="M29.8392 8.41726C29.4437 3.70391 25.4301 0 20.5371 0C15.6441 0 11.6305 3.70391 11.235 8.41726H3.42253C1.5321 8.41726 0 9.92463 0 11.7841V36.6332C0 38.492 1.53232 40 3.42253 40H37.6517C39.5421 40 41.0742 38.4926 41.0742 36.6332V11.7841C41.0742 9.92531 39.5419 8.41726 37.6517 8.41726H29.8392ZM20.5399 4.89857C22.6794 4.89923 24.4582 6.41735 24.8251 8.41823H16.252C16.619 6.41627 18.3994 4.89791 20.5399 4.89857Z" fill="black"/>
<path fill-rule="evenodd" clip-rule="evenodd" d="M27.5402 6.69884C26.47 3.63699 23.4587 1.62063 20.1428 1.79407C16.7039 1.97393 13.8445 4.4616 13.2424 7.79743C13.2049 8.08918 13.4066 8.3586 13.701 8.40983C13.9953 8.46106 14.2787 8.27609 14.3452 7.98937C14.8748 5.03797 17.4792 2.88486 20.5255 2.87989C23.2178 2.8755 25.5706 4.5501 26.4535 6.97556L25.6233 7.18694L27.5994 9.16736L28.3614 6.48975L27.5402 6.69884ZM7.49588 37.476V23.8904H10.2088V21.6436H2.27535V23.8904H4.96571V37.476H7.49588ZM17.6794 37.478L15.5785 30.9843H14.1532V37.478H11.623V21.6436H15.6914C18.6303 21.6436 19.7988 23.0438 19.7988 26.3129C19.7988 28.2708 19.3881 29.671 17.9238 30.4488L20.3287 37.478H17.6794ZM24.3976 21.6443H21.8675V37.4767H24.3976V21.6443ZM30.523 31.2961H29.0094V37.4787H26.4772V21.6443H30.523C33.4393 21.6443 34.6592 23.1334 34.6592 26.4469C34.6592 29.6494 33.5748 31.2961 30.523 31.2961ZM36.4872 37.1212C36.7843 37.4134 37.1878 37.5767 37.608 37.5745C38.0285 37.5772 38.4326 37.4142 38.7301 37.1219C39.0277 36.8295 39.1939 36.4322 39.1917 36.0185C39.2126 35.4488 38.9155 34.9134 38.4173 34.6225C37.919 34.3316 37.299 34.3316 36.8008 34.6225C36.3025 34.9134 36.0055 35.4488 36.0263 36.0185C36.0241 36.4318 36.1901 36.8289 36.4872 37.1212ZM36.4144 21.6506H38.8111V33.036H36.4144V21.6506ZM4.3216 19.1953C4.95013 19.2273 5.55779 18.9687 5.96457 18.4963C6.58109 17.8104 6.58092 16.6287 6.58069 15.0427L6.58068 14.9503L6.58069 14.8579C6.58092 13.272 6.58109 12.0922 5.96457 11.4044C5.55779 10.9319 4.95013 10.6734 4.3216 10.7053C3.69301 10.6731 3.08521 10.9317 2.67863 11.4044C2.06211 12.0902 2.06228 13.2719 2.06251 14.8579L2.06252 14.9503L2.06251 15.0427C2.06228 16.6287 2.06211 17.8104 2.67863 18.4963C3.08521 18.969 3.69301 19.2276 4.3216 19.1953ZM11.2082 19.1059L9.21608 14.1719V19.1059H7.88733V10.7998H9.07437L11.0541 15.7337V10.7998H12.3829V19.1059H11.2082ZM13.8127 10.8002V19.1063H17.3616V17.9284H15.1415V15.514H17.0535V14.334H15.1415V11.9781H17.3616V10.8002H13.8127ZM23.2568 11.979V19.1072H21.928V11.979H20.5171V10.8011H24.68V11.979H23.2568ZM30.8351 19.1066H32.2234L33.8109 10.8004H32.3528L31.5354 17.1002L30.3607 10.8004H28.8903L27.7279 17.1002L26.8982 10.8004H25.44L27.0399 19.1066H28.4282L29.6255 12.7946L30.8351 19.1066ZM38.3855 18.5003C37.9624 18.9473 37.3695 19.2012 36.7487 19.2012C36.1278 19.2012 35.5349 18.9473 35.1119 18.5003C34.4953 17.8145 34.4955 16.6328 34.4957 15.0468L34.4957 14.9544L34.4957 14.862C34.4955 13.276 34.4953 12.0943 35.1119 11.4085C35.5352 10.962 36.128 10.7085 36.7487 10.7085C37.3693 10.7085 37.9621 10.962 38.3855 11.4085C39.002 12.0943 39.0018 13.276 39.0016 14.862L39.0016 14.9544L39.0016 15.0468C39.0018 16.6328 39.002 17.8145 38.3855 18.5003ZM15.7159 23.8936H14.1569V28.7436H15.7159C17.0716 28.7436 17.275 27.6322 17.275 26.3186C17.275 25.0051 17.0696 23.8936 15.7159 23.8936ZM29.0163 23.8908H30.5753V23.8888C31.929 23.8888 32.1344 25.067 32.1344 26.4694C32.1344 27.8719 31.931 29.0501 30.5753 29.0501H29.0163V23.8908ZM4.97533 12.1988C4.83664 11.9861 4.59068 11.8651 4.33446 11.8836C4.07944 11.8628 3.83416 11.9846 3.69974 12.1988C3.4512 12.603 3.40395 13.4356 3.40395 14.9532C3.40395 16.4709 3.45736 17.3095 3.69974 17.7056C3.83311 17.9178 4.07541 18.0393 4.32829 18.0209C4.58452 18.0394 4.83048 17.9184 4.96917 17.7056C5.21772 17.3015 5.25469 16.4689 5.25469 14.9512C5.25469 13.4336 5.21977 12.5949 4.96917 12.1968L4.97533 12.1988ZM36.7583 11.8831C37.011 11.8684 37.252 11.9889 37.3889 12.1984L37.3992 12.1964C37.6498 12.5945 37.6847 13.4331 37.6847 14.9508C37.6847 16.4684 37.6477 17.301 37.3992 17.7052C37.2605 17.9179 37.0145 18.0389 36.7583 18.0204C36.5059 18.0393 36.2636 17.9186 36.1298 17.7072C35.8812 17.3091 35.834 16.4704 35.834 14.9528C35.834 13.4351 35.8812 12.6025 36.1298 12.1984C36.2631 11.9862 36.5054 11.8647 36.7583 11.8831Z" fill="white"/>
<path d="M67.6964 28.8994H69.739V34.7048H67.347V31.1571H56.9189V34.7048H54.5V28.8994H55.9513C56.4172 28.3619 56.7666 27.7796 56.9995 27.1525C57.2504 26.5253 57.4295 25.6205 57.537 24.4379L58.1283 17.8801H67.6964V28.8994ZM60.3591 20.0839L60.0097 24.6261C59.938 25.6115 59.7768 26.4537 59.5259 27.1525C59.293 27.8333 58.9615 28.4605 58.5315 29.0338H65.1969V20.0839H60.3591Z" fill="black"/>
<path d="M74.1337 17.8801H83.6749V31.1571H81.1754V20.1377H76.3376L75.9613 24.5186C75.8359 26.0774 75.6119 27.2958 75.2894 28.1738C74.9848 29.0517 74.5279 29.7326 73.9187 30.2164C73.3095 30.7002 72.4495 31.1033 71.3386 31.4258L70.7473 29.2757C71.4461 29.0607 71.9746 28.7919 72.333 28.4694C72.6914 28.129 72.9601 27.6631 73.1393 27.0718C73.3185 26.4626 73.4618 25.5847 73.5693 24.4379L74.1337 17.8801Z" fill="black"/>
<path d="M97.7815 17.8801V31.1571H95.2551V26.6956H92.9437L89.3154 31.1571H86.3321L90.1754 26.5074C89.1362 26.2566 88.321 25.7638 87.7297 25.0292C87.1384 24.2767 86.8428 23.3808 86.8428 22.3416C86.8428 20.9619 87.2817 19.8779 88.1597 19.0895C89.0377 18.2832 90.2471 17.8801 91.788 17.8801H97.7815ZM89.2616 22.2341C89.2616 22.9866 89.4856 23.56 89.9336 23.9542C90.3815 24.3304 91.0086 24.5186 91.8149 24.5186H95.282V20.0571H91.8149C90.9907 20.0571 90.3546 20.2631 89.9067 20.6752C89.4767 21.0694 89.2616 21.589 89.2616 22.2341Z" fill="black"/>
<path d="M114.26 31.4527C112.057 31.4527 110.336 30.736 109.1 29.3026C107.882 27.8513 107.272 25.8266 107.272 23.2285V22.5297C107.272 19.6091 107.935 17.3425 109.261 15.7299C110.587 14.1173 112.612 13.114 115.335 12.7198C116.411 12.5585 117.235 12.3972 117.808 12.236C118.399 12.0747 119.08 11.806 119.851 11.4297L120.791 13.5798C120.093 13.9919 119.349 14.3234 118.561 14.5742C117.79 14.8072 116.885 14.9863 115.846 15.1118C114.449 15.273 113.311 15.5687 112.433 15.9987C111.573 16.4287 110.91 17.0379 110.444 17.8263C109.996 18.5968 109.709 19.6181 109.584 20.8902L109.665 20.9171C110.256 19.9495 110.972 19.2597 111.815 18.8476C112.675 18.4176 113.687 18.2026 114.852 18.2026C116.16 18.2026 117.297 18.4713 118.265 19.0089C119.25 19.5464 120.003 20.3079 120.523 21.2934C121.06 22.2609 121.329 23.3987 121.329 24.7067C121.329 26.0684 121.042 27.26 120.469 28.2813C119.896 29.3026 119.071 30.091 117.996 30.6464C116.939 31.1839 115.694 31.4527 114.26 31.4527ZM114.395 29.1682C115.721 29.1682 116.787 28.774 117.593 27.9856C118.417 27.1793 118.829 26.1222 118.829 24.8142C118.829 23.4525 118.417 22.3684 117.593 21.5621C116.787 20.7558 115.712 20.3527 114.368 20.3527C113.024 20.3527 111.94 20.7558 111.116 21.5621C110.31 22.3505 109.906 23.3987 109.906 24.7067C109.906 26.0684 110.31 27.1525 111.116 27.9588C111.94 28.7651 113.033 29.1682 114.395 29.1682Z" fill="black"/>
<path d="M124.244 31.1571V17.8801H126.743V23.6854C126.743 25.1367 126.716 26.2835 126.662 27.1256L126.716 27.1525C127.2 26.4895 127.746 25.7907 128.356 25.0561L134.457 17.8801H136.445V31.1571H133.946V25.0561C133.946 23.7302 133.964 22.691 134 21.9384L133.946 21.9115C133.301 22.8253 132.701 23.5958 132.145 24.2229L126.313 31.1571H124.244Z" fill="black"/>
<path d="M144.49 31.5602C143.415 31.5602 142.448 31.4258 141.588 31.1571C140.728 30.8883 139.903 30.5031 139.115 30.0014L140.136 28.0125C140.979 28.4963 141.713 28.8457 142.34 29.0607C142.967 29.2578 143.684 29.3563 144.49 29.3563C145.404 29.3563 146.121 29.1682 146.641 28.7919C147.178 28.4157 147.447 27.905 147.447 27.26C147.447 26.6866 147.232 26.2297 146.802 25.8893C146.372 25.5488 145.816 25.3786 145.135 25.3786H142.26V23.2822H145.001C145.628 23.2822 146.13 23.1299 146.506 22.8253C146.9 22.5028 147.097 22.0728 147.097 21.5353C147.097 20.9619 146.856 20.505 146.372 20.1646C145.888 19.8241 145.252 19.6539 144.464 19.6539C143.818 19.6539 143.209 19.7525 142.636 19.9495C142.063 20.1466 141.391 20.4512 140.62 20.8634L139.518 19.0626C140.36 18.5072 141.167 18.104 141.937 17.8532C142.708 17.6023 143.577 17.4769 144.544 17.4769C146.067 17.4769 147.277 17.8263 148.173 18.5251C149.068 19.2239 149.516 20.1735 149.516 21.374C149.516 22.019 149.346 22.6014 149.006 23.121C148.683 23.6406 148.19 24.0348 147.527 24.3035V24.3573C148.28 24.644 148.862 25.074 149.274 25.6474C149.704 26.2028 149.919 26.821 149.919 27.5019C149.919 28.7561 149.436 29.7505 148.468 30.4852C147.501 31.2019 146.175 31.5602 144.49 31.5602Z" fill="black"/>
<path d="M162.595 23.121V17.8801H165.094V31.1571H162.595V25.3786H155.392V31.1571H152.892V17.8801H155.392V23.121H162.595Z" fill="black"/>
<path d="M181.121 24.3573C181.121 24.6261 181.104 24.9934 181.068 25.4592H170.559C170.631 26.606 171.07 27.5198 171.876 28.2006C172.682 28.8815 173.695 29.222 174.913 29.222C175.666 29.222 176.427 29.0965 177.197 28.8457C177.968 28.5769 178.649 28.1738 179.24 27.6362L180.503 29.3563C179.822 30.0551 178.971 30.5837 177.95 30.9421C176.929 31.2825 175.898 31.4527 174.859 31.4527C173.515 31.4527 172.324 31.166 171.285 30.5927C170.263 30.0014 169.466 29.1861 168.893 28.1469C168.319 27.0898 168.033 25.8803 168.033 24.5186C168.033 23.1747 168.319 21.9832 168.893 20.944C169.484 19.8868 170.299 19.0626 171.338 18.4713C172.378 17.8801 173.569 17.5844 174.913 17.5844C176.776 17.5844 178.273 18.1667 179.401 19.3314C180.548 20.496 181.121 22.1713 181.121 24.3573ZM174.805 19.8152C173.695 19.8152 172.754 20.1287 171.983 20.7558C171.231 21.365 170.765 22.252 170.586 23.4166H178.783C178.712 22.252 178.317 21.365 177.601 20.7558C176.902 20.1287 175.97 19.8152 174.805 19.8152Z" fill="black"/>
<path d="M189.684 31.4527C188.394 31.4527 187.22 31.1839 186.163 30.6464C185.124 30.1089 184.3 29.3205 183.691 28.2813C183.081 27.2241 182.777 25.9789 182.777 24.5454C182.777 23.112 183.081 21.8757 183.691 20.8365C184.318 19.7793 185.16 18.973 186.217 18.4176C187.292 17.8621 188.484 17.5844 189.792 17.5844C190.67 17.5844 191.494 17.7098 192.264 17.9607C193.053 18.2115 193.751 18.5788 194.361 19.0626L193.097 20.944C192.148 20.2273 191.037 19.8689 189.765 19.8689C188.923 19.8689 188.161 20.0571 187.48 20.4333C186.799 20.7917 186.262 21.3203 185.868 22.019C185.473 22.7178 185.276 23.542 185.276 24.4917C185.276 25.4772 185.473 26.3193 185.868 27.0181C186.262 27.7169 186.79 28.2544 187.453 28.6307C188.134 28.989 188.878 29.1682 189.684 29.1682C190.347 29.1682 190.974 29.0697 191.565 28.8726C192.175 28.6755 192.775 28.335 193.366 27.8513L194.522 29.8401C193.214 30.9152 191.601 31.4527 189.684 31.4527Z" fill="black"/>
<path d="M201.538 17.6382C203.509 17.6382 205.068 18.0413 206.214 18.8476C207.379 19.6539 207.961 20.9709 207.961 22.7985V31.1571H205.784C205.784 30.1178 205.802 29.3384 205.838 28.8188H205.784C205.337 29.643 204.656 30.2791 203.742 30.727C202.846 31.1571 201.887 31.3721 200.866 31.3721C199.433 31.3721 198.223 31.0137 197.238 30.297C196.252 29.5624 195.759 28.4963 195.759 27.0987C195.759 26.1491 196.001 25.3428 196.485 24.6798C196.969 24.0169 197.614 23.5241 198.42 23.2016C199.244 22.8612 200.131 22.691 201.081 22.691C202.837 22.691 204.297 23.0314 205.462 23.7123V22.7985C205.462 21.7592 205.086 21.0067 204.333 20.5408C203.581 20.0571 202.604 19.8152 201.404 19.8152C200.776 19.8152 200.105 19.8958 199.388 20.0571C198.671 20.2183 198.008 20.4244 197.399 20.6752L196.754 18.6595C198.331 17.9786 199.925 17.6382 201.538 17.6382ZM201.323 29.2757C202.416 29.2757 203.366 28.9711 204.172 28.3619C204.978 27.7527 205.435 26.9106 205.543 25.8355C205.023 25.513 204.387 25.2532 203.634 25.0561C202.882 24.8411 202.183 24.7336 201.538 24.7336C200.588 24.7336 199.8 24.9307 199.173 25.3249C198.564 25.7011 198.259 26.2566 198.259 26.9912C198.259 27.7258 198.564 28.2902 199.173 28.6844C199.782 29.0786 200.499 29.2757 201.323 29.2757Z" fill="black"/>
<rect x="216" y="9" width="56.4688" height="27.792" rx="8" fill="#486EF4"/>
<path d="M230.16 28.792C229.563 28.792 229.008 28.6907 228.496 28.488C227.995 28.2853 227.557 27.9813 227.184 27.576C226.811 27.16 226.517 26.6533 226.304 26.056C226.101 25.448 226 24.744 226 23.944V23.576C226 22.616 226.069 21.7627 226.208 21.016C226.357 20.2693 226.597 19.6347 226.928 19.112C227.269 18.5893 227.717 18.184 228.272 17.896C228.837 17.5973 229.541 17.4267 230.384 17.384C230.715 17.3733 231.04 17.3627 231.36 17.352C231.68 17.3413 231.984 17.3253 232.272 17.304C232.56 17.2827 232.821 17.2507 233.056 17.208C233.291 17.1547 233.499 17.0853 233.68 17V18.872C233.509 18.968 233.189 19.048 232.72 19.112C232.261 19.176 231.563 19.2133 230.624 19.224C230.144 19.2347 229.728 19.2933 229.376 19.4C229.035 19.496 228.747 19.656 228.512 19.88C228.288 20.0933 228.107 20.376 227.968 20.728C227.84 21.08 227.749 21.512 227.696 22.024C227.941 21.544 228.309 21.1547 228.8 20.856C229.291 20.5573 229.931 20.408 230.72 20.408C231.253 20.408 231.739 20.4933 232.176 20.664C232.613 20.824 232.992 21.064 233.312 21.384C233.632 21.704 233.877 22.0987 234.048 22.568C234.229 23.0373 234.32 23.5813 234.32 24.2V24.504C234.32 25.176 234.213 25.7787 234 26.312C233.797 26.8453 233.509 27.2987 233.136 27.672C232.763 28.0347 232.32 28.312 231.808 28.504C231.307 28.696 230.757 28.792 230.16 28.792ZM230.16 27C230.8 27 231.296 26.792 231.648 26.376C232 25.9493 232.176 25.3467 232.176 24.568V24.248C232.176 23.576 231.995 23.048 231.632 22.664C231.269 22.28 230.779 22.088 230.16 22.088C229.552 22.088 229.061 22.28 228.688 22.664C228.325 23.048 228.144 23.576 228.144 24.248V24.536C228.144 24.92 228.192 25.2667 228.288 25.576C228.395 25.8853 228.539 26.1467 228.72 26.36C228.901 26.5627 229.115 26.7227 229.36 26.84C229.605 26.9467 229.872 27 230.16 27Z" fill="white"/>
<path d="M236.239 28.792C236.154 28.792 236.047 28.7867 235.919 28.776C235.791 28.776 235.685 28.7653 235.599 28.744V26.84C235.653 26.8507 235.733 26.856 235.839 26.856C236.042 26.856 236.218 26.7973 236.367 26.68C236.517 26.552 236.639 26.3387 236.735 26.04C236.842 25.7413 236.917 25.3467 236.959 24.856C237.013 24.3547 237.039 23.736 237.039 23V20.12H243.759V28.6H241.647V21.88H238.991V23.32C238.991 24.4187 238.933 25.3253 238.815 26.04C238.709 26.744 238.538 27.2987 238.303 27.704C238.079 28.1093 237.791 28.392 237.439 28.552C237.098 28.712 236.698 28.792 236.239 28.792Z" fill="white"/>
<path d="M249.995 28.792C249.419 28.792 248.87 28.7067 248.347 28.536C247.835 28.3547 247.387 28.0827 247.003 27.72C246.619 27.3573 246.315 26.904 246.091 26.36C245.867 25.816 245.755 25.176 245.755 24.44V24.12C245.755 23.4267 245.867 22.8187 246.091 22.296C246.315 21.7733 246.619 21.336 247.003 20.984C247.387 20.632 247.835 20.3707 248.347 20.2C248.87 20.0187 249.419 19.928 249.995 19.928C250.571 19.928 251.115 20.0187 251.627 20.2C252.139 20.3707 252.587 20.632 252.971 20.984C253.366 21.336 253.675 21.7733 253.899 22.296C254.123 22.8187 254.235 23.4267 254.235 24.12V24.44C254.235 25.1653 254.123 25.8 253.899 26.344C253.675 26.888 253.366 27.3413 252.971 27.704C252.587 28.0667 252.139 28.3387 251.627 28.52C251.115 28.7013 250.571 28.792 249.995 28.792ZM249.995 27C250.592 27 251.088 26.7867 251.483 26.36C251.888 25.9333 252.091 25.2933 252.091 24.44V24.12C252.091 23.3413 251.888 22.7493 251.483 22.344C251.088 21.928 250.592 21.72 249.995 21.72C249.387 21.72 248.886 21.928 248.491 22.344C248.096 22.7493 247.899 23.3413 247.899 24.12V24.44C247.899 25.304 248.096 25.9493 248.491 26.376C248.886 26.792 249.387 27 249.995 27Z" fill="white"/>
<path d="M256.389 20.12H262.469V21.88H258.501V28.6H256.389V20.12Z" fill="white"/>
</svg>
