<svg width="77" height="36" viewBox="0 0 77 36" fill="none" xmlns="http://www.w3.org/2000/svg">
<path fill-rule="evenodd" clip-rule="evenodd" d="M40.5294 15.3532L36.3881 6.12695L6.07031 7.84846L14.4695 30.7669L30.6377 25.6706C30.1834 25.0158 29.856 24.3063 29.7354 23.6444L29.7106 23.6444C29.689 23.6444 29.6329 23.6459 29.5525 23.648H29.5524C29.2056 23.6572 28.4059 23.6783 27.9568 23.6444C22.2858 23.2862 22.2858 19.2412 22.2858 19.1239V18.1636C22.2858 17.9827 22.4881 14.0265 27.9568 13.588C28.3192 13.5369 29.6297 13.5435 29.7106 13.588C31.2153 13.6775 31.7088 13.999 31.7088 13.999C31.7363 14.0139 31.759 14.0517 31.759 14.0834V16.5706C31.759 16.6015 31.7363 16.6144 31.7104 16.5987L31.704 16.5995C31.704 16.5995 30.8254 16.0575 29.7301 15.9103H28.803C26.3226 16.1206 26.1527 18.1075 26.1527 18.1075C26.1495 18.1382 26.1463 18.1884 26.1463 18.2191V18.9261C26.1463 18.9569 26.1495 19.007 26.1527 19.0378C26.1527 19.0378 26.2741 20.892 28.8046 21.3175C28.9874 21.3482 29.2269 21.3741 29.7333 21.3175C31.5179 21.1444 31.924 20.8175 31.924 20.8175C31.9515 20.8012 31.9725 20.8125 31.9725 20.8442V21.2544C32.4993 21.3426 33.0465 21.5902 33.567 21.9428V13.7336V13.7333H37.3272V19.8548C38.6528 17.9458 40.0601 16.0009 40.5299 15.3537L40.5294 15.3532ZM41.249 22.3266L43.3609 21.661L42.6771 20.1377C42.1684 20.7638 41.6675 21.576 41.2485 22.3252L41.249 22.3266ZM37.7449 10.626C37.7449 11.823 36.7161 12.7933 35.4471 12.7933L35.4466 12.7942C34.177 12.7942 33.1485 11.8241 33.1485 10.6268C33.1485 9.42969 34.177 8.4594 35.4465 8.4594C36.7149 8.4594 37.7449 9.42905 37.7449 10.626ZM11.9128 23.5689C11.8814 23.5689 11.8566 23.5436 11.8566 23.5123L11.8568 23.5127V13.7856C11.8568 13.7553 11.8827 13.7286 11.9134 13.7286C11.9134 13.7286 16.6349 13.7302 16.6592 13.7286C17.8669 13.672 21.5353 14.0114 21.5353 17.1085C21.5353 21.0335 15.6884 20.6108 15.6884 20.6108C15.6569 20.6096 15.6318 20.6336 15.6318 20.6637V23.5134C15.6318 23.5436 15.6066 23.5689 15.5755 23.5689H11.9128ZM15.5671 18.4335V15.8664H16.4631C16.4631 15.8664 17.7672 15.9253 17.8691 16.8121C17.8934 16.8817 17.8869 17.3153 17.8691 17.3396C17.7025 18.3828 16.5699 18.434 16.5699 18.434L15.57 18.4323L15.5671 18.4335ZM51.2504 19.0066C51.0357 19.2212 50.9284 19.5211 50.9284 19.9061L50.9354 19.9078C50.9354 20.1839 50.9893 20.4136 51.0972 20.597C51.2061 20.7812 51.3469 20.9154 51.5194 20.9996C51.6942 21.0837 51.9142 21.1258 52.1796 21.1258C52.4406 21.1258 52.6585 21.0769 52.8332 20.9792C53.009 20.8799 53.1428 20.7424 53.2345 20.5666C53.3279 20.3899 53.3746 20.1636 53.3746 19.8877C53.3746 19.5074 53.2681 19.212 53.0552 19.0017C52.8424 18.7903 52.5396 18.6846 52.1467 18.6846C51.7636 18.6846 51.4648 18.7919 51.2504 19.0066ZM50.6676 20.3135L50.0285 20.1204L50.0327 20.1251C50.0006 20.2739 49.9483 20.3872 49.8761 20.4648C49.8054 20.5425 49.7003 20.5813 49.5606 20.5813C49.4167 20.5813 49.3047 20.5328 49.2247 20.4357C49.1449 20.3386 49.105 20.159 49.105 19.8969C49.105 19.6855 49.1382 19.5302 49.2048 19.4309C49.293 19.2983 49.4197 19.2319 49.5847 19.2319C49.6578 19.2319 49.7239 19.247 49.7829 19.2772C49.8417 19.3064 49.8913 19.349 49.9317 19.4051C49.957 19.4374 49.9805 19.4897 50.0023 19.562L50.6462 19.4196C50.5636 19.1715 50.4369 18.9871 50.266 18.8663C50.0961 18.7455 49.8626 18.6851 49.5654 18.6851C49.1862 18.6851 48.8923 18.7902 48.6836 19.0006C48.4765 19.2098 48.373 19.5097 48.373 19.9002C48.373 20.1935 48.4319 20.4341 48.5497 20.6218C48.6683 20.8094 48.8084 20.941 48.97 21.0165C49.1331 21.0899 49.343 21.1266 49.5997 21.1266C49.8109 21.1266 49.9847 21.0964 50.121 21.036C50.2589 20.9745 50.3737 20.8833 50.4653 20.7625C50.557 20.6423 50.6244 20.4926 50.6676 20.3135ZM51.6573 19.9094C51.6573 20.1475 51.7013 20.3187 51.7893 20.4229C51.8778 20.527 51.998 20.5791 52.1501 20.5791C52.3065 20.5791 52.4279 20.5277 52.5142 20.425C52.5994 20.3223 52.642 20.1393 52.642 19.876C52.642 19.6538 52.5967 19.4919 52.5061 19.3902C52.4165 19.2866 52.2952 19.2349 52.142 19.2349C51.9943 19.2349 51.8761 19.2866 51.7877 19.3902C51.6982 19.4926 51.6534 19.6647 51.6534 19.9063L51.6573 19.9094ZM54.7202 18.7247H53.7611L53.7619 18.7249V21.0843H54.3606V19.2852L54.8201 21.0843H55.3589L55.82 19.2852V21.0843H56.4154V18.7247H55.4592L55.0908 20.1605L54.7202 18.7247ZM56.8754 18.7247H56.8755V21.0826H57.608V20.2066H58.0073C58.3011 20.2066 58.5194 20.1397 58.6622 20.006C58.8061 19.8722 58.8781 19.6863 58.8781 19.4483C58.8781 19.2169 58.812 19.0385 58.6799 18.913C58.549 18.7875 58.3517 18.7247 58.0877 18.7247H56.8755V18.7221L56.8754 18.7247ZM57.7866 19.7306H57.608L57.6073 19.7299V19.2041H57.8157C57.952 19.2041 58.0447 19.23 58.094 19.2818C58.1434 19.3332 58.1681 19.396 58.1681 19.4701C58.1681 19.5463 58.1396 19.609 58.0827 19.6583C58.0258 19.7065 57.9272 19.7306 57.7866 19.7306ZM59.2611 18.7247H59.9891V20.5035H61.1266V21.0843H59.2594V18.7249L59.2611 18.7247ZM62.2203 18.7247H61.4906L61.489 18.7249V21.0843H62.2203V18.7247ZM64.1942 20.6949H63.3626L63.2477 21.0845H62.5018L63.3885 18.7255H64.1829L65.0695 21.0861H64.3075L64.191 20.6978L64.1942 20.6949ZM63.7784 19.3366L64.0405 20.1848H64.0373H63.5179L63.7784 19.3366ZM65.309 18.7247H65.9901L66.8784 20.0301V18.7247H67.566V21.0843H66.8784L65.995 19.7887V21.0847H65.309V18.7247ZM70.103 18.7247H67.8864V18.725V19.3078H68.6307V21.0843H69.3587V19.3075H70.103V18.7247ZM58.2191 14.7194L55.9717 14.8602L55.9591 14.8727C56.0249 15.645 56.3086 16.2814 56.8102 16.7819C57.3114 17.2824 58.2124 17.5326 59.5133 17.5326C60.2538 17.5326 60.8667 17.4274 61.3521 17.2171C61.8386 17.0017 62.2177 16.6869 62.4895 16.2727C62.7613 15.8585 62.8973 15.406 62.8973 14.9152C62.8973 14.4978 62.7942 14.1203 62.5882 13.7827C62.3865 13.445 62.0613 13.163 61.6126 12.9365C61.1678 12.7067 60.4287 12.4802 59.3953 12.2569C58.9779 12.1695 58.7136 12.0752 58.6025 11.9738C58.4882 11.8767 58.431 11.7672 58.431 11.6453C58.431 11.4792 58.5011 11.3385 58.6414 11.223C58.7805 11.1044 58.9876 11.0451 59.2627 11.0451C59.596 11.0451 59.857 11.1233 60.0458 11.2797C60.2378 11.4361 60.3634 11.6863 60.4227 12.0304L62.6507 11.8993C62.5525 11.1065 62.2467 10.5289 61.7333 10.1665C61.222 9.80085 60.4783 9.61802 59.5021 9.61802C58.7061 9.61802 58.0783 9.71888 57.6188 9.92058C57.1626 10.1191 56.8201 10.3936 56.5914 10.7441C56.3649 11.0914 56.2516 11.4614 56.2516 11.854C56.2516 12.4527 56.4744 12.9445 56.9199 13.3296C57.3621 13.7158 58.1015 14.0253 59.1381 14.2583C59.7702 14.3964 60.1736 14.5436 60.3483 14.7C60.5231 14.8564 60.6104 15.0333 60.6104 15.2307C60.6104 15.44 60.5187 15.6244 60.3354 15.7841C60.1552 15.9405 59.8964 16.0187 59.5588 16.0187C59.1057 16.0187 58.7579 15.8639 58.5152 15.5543C58.3663 15.3634 58.2676 15.0851 58.2191 14.7194ZM48.2911 9.7418H48.2913V17.3855H51.8023C52.2231 17.3855 52.6927 17.3165 53.211 17.1784C53.5902 17.0781 53.9449 16.8769 54.2753 16.5749C54.6058 16.2686 54.8632 15.8911 55.0474 15.4424C55.2351 14.9893 55.3289 14.3545 55.3289 13.538C55.3289 13.017 55.2664 12.5236 55.1412 12.0576C55.0161 11.5913 54.8144 11.1829 54.5361 10.8323C54.2579 10.4809 53.9049 10.2112 53.477 10.0233C53.0529 9.83564 52.4946 9.7418 51.8021 9.7418H48.2913V9.73921L48.2911 9.7418ZM50.6546 11.4738V11.4771H50.6508L50.6546 11.4738ZM50.6546 11.4771H51.2402C51.8526 11.4771 52.291 11.6265 52.5553 11.9252C52.8203 12.224 52.9528 12.7784 52.9528 13.5885C52.9528 14.2001 52.8939 14.6434 52.7761 14.9185C52.6583 15.1892 52.4951 15.3801 52.2865 15.4912C52.0779 15.5991 51.7266 15.653 51.2326 15.653H50.6546V11.4771ZM63.5098 14.8602L65.7572 14.7194C65.8057 15.0851 65.9044 15.3634 66.0532 15.5543C66.2959 15.8639 66.6438 16.0187 67.0968 16.0187C67.4344 16.0187 67.6933 15.9405 67.8734 15.7841C68.0579 15.6244 68.1501 15.44 68.1501 15.2307C68.1501 15.0333 68.0627 14.8564 67.888 14.7C67.7133 14.5436 67.3099 14.3964 66.6778 14.2583C65.6412 14.0253 64.9018 13.7158 64.4596 13.3296C64.0141 12.9445 63.7913 12.4527 63.7913 11.854C63.7913 11.4614 63.9041 11.0914 64.1295 10.7441C64.3592 10.3936 64.7017 10.1191 65.1569 9.92058C65.6153 9.71888 66.2431 9.61802 67.0402 9.61802C68.0164 9.61802 68.7601 9.80085 69.2714 10.1665C69.7859 10.5289 70.0917 11.1065 70.1888 11.8993L67.9624 12.0288C67.902 11.6847 67.7764 11.4345 67.5854 11.2781C67.3978 11.1216 67.1367 11.0434 66.8024 11.0434C66.5273 11.0434 66.3202 11.1028 66.1811 11.2214C66.0408 11.3368 65.9707 11.4781 65.9707 11.6453C65.9707 11.7672 66.0279 11.8767 66.1422 11.9738C66.2533 12.0752 66.5176 12.1695 66.935 12.2569C67.9684 12.4791 68.7078 12.7051 69.1533 12.9348C69.6009 13.1614 69.9261 13.4434 70.1289 13.781C70.3338 14.1186 70.4363 14.4962 70.4363 14.9136C70.4363 15.4044 70.3009 15.8569 70.0302 16.2711C69.7584 16.6853 69.3787 17.0002 68.8911 17.216C68.4058 17.4274 67.7931 17.5331 67.0531 17.5331C65.7523 17.5331 64.8511 17.2823 64.3495 16.7807C63.849 16.2802 63.5654 15.6438 63.4985 14.8715L63.5098 14.8602Z" fill="#212121"/>
<path d="M35.5519 28.2919C35.8577 28.2919 36.0915 28.2919 36.4778 28.1204C37.8131 27.4186 42.3069 16.4439 47.0467 13.0682C47.0742 13.0465 47.1135 13.0152 47.1361 12.983C47.1666 12.9385 47.1677 12.893 47.1677 12.893C47.1677 12.893 47.1677 12.6681 46.4648 12.6681C42.2452 12.5532 37.8573 21.3986 35.5517 24.8983C35.5226 24.9371 35.364 24.8983 35.364 24.8983C35.364 24.8983 33.8189 23.0748 32.476 22.3759C32.4485 22.3613 32.2948 22.3144 32.1362 22.3257C32.031 22.3257 31.4065 22.4503 31.1153 22.7593C30.7723 23.1217 30.7787 23.3256 30.782 23.7673C30.7836 23.8029 30.8062 23.9501 30.8483 24.0246C31.1768 24.5989 32.6766 26.6602 33.9046 27.7976C34.0955 27.9335 34.3852 28.2944 35.5533 28.2944L35.5519 28.2919Z" fill="#2BBC5D"/>
</svg>
