<svg width="281" height="262" viewBox="0 0 281 262" fill="none" xmlns="http://www.w3.org/2000/svg">
<g clip-path="url(#clip0_312_818)">
<path d="M37.3446 26.3878C46.4483 13.5107 65.5517 13.5107 74.6554 26.3878C81.8929 36.6251 96.0735 39.0859 106.376 31.9413C119.309 22.9722 137.289 29.4578 141.416 44.6456C144.7 56.7296 157.209 63.8758 169.316 60.6775C184.509 56.6639 199.22 68.884 197.882 84.5415C196.817 97.0066 206.118 107.994 218.578 109.11C234.225 110.511 243.863 127.025 237.234 141.267C231.956 152.607 236.897 166.096 248.229 171.39C262.475 178.045 265.835 196.855 254.718 207.975C245.871 216.827 245.871 231.173 254.718 240.025C265.835 251.145 262.475 269.955 248.229 276.61C236.897 281.904 231.956 295.393 237.234 306.733C243.863 320.975 234.225 337.489 218.578 338.89C206.118 340.006 196.817 350.993 197.882 363.458C199.22 379.116 184.509 391.336 169.316 387.322C157.209 384.124 144.7 391.27 141.416 403.354C137.289 418.542 119.309 425.028 106.376 416.059C96.0735 408.914 81.8928 411.375 74.6554 421.612C65.5517 434.489 46.4483 434.489 37.3446 421.612C30.1071 411.375 15.9265 408.914 5.62421 416.059C-7.30881 425.028 -25.2888 418.542 -29.4162 403.354C-32.7001 391.27 -45.2093 384.124 -57.3162 387.322C-72.5095 391.336 -87.2196 379.116 -85.8821 363.458C-84.8172 350.993 -94.1178 340.006 -106.578 338.89C-122.225 337.489 -131.863 320.975 -125.234 306.733C-119.956 295.393 -124.897 281.904 -136.229 276.61C-150.475 269.955 -153.835 251.145 -142.718 240.025C-133.871 231.173 -133.871 216.827 -142.718 207.975C-153.835 196.855 -150.475 178.045 -136.229 171.39C-124.897 166.096 -119.956 152.607 -125.234 141.267C-131.863 127.025 -122.225 110.511 -106.578 109.11C-94.1178 107.994 -84.8172 97.0066 -85.8821 84.5415C-87.2196 68.884 -72.5095 56.6639 -57.3162 60.6775C-45.2093 63.8758 -32.7001 56.7296 -29.4162 44.6456C-25.2888 29.4578 -7.30881 22.9722 5.62421 31.9413C15.9265 39.0859 30.1071 36.6251 37.3446 26.3878Z" fill="#FFAE64" fill-opacity="0.15"/>
</g>
<defs>
<clipPath id="clip0_312_818">
<rect width="281" height="262" fill="white"/>
</clipPath>
</defs>
</svg>
