<svg width="281" height="246" viewBox="0 0 281 246" fill="none" xmlns="http://www.w3.org/2000/svg">
<g clip-path="url(#clip0_312_817)">
<path d="M206.345 -175.612C215.448 -188.489 234.552 -188.489 243.655 -175.612C250.893 -165.375 265.074 -162.914 275.376 -170.059C288.309 -179.028 306.289 -172.542 310.416 -157.354C313.7 -145.27 326.209 -138.124 338.316 -141.322C353.509 -145.336 368.22 -133.116 366.882 -117.459C365.817 -104.993 375.118 -94.0056 387.578 -92.8899C403.225 -91.4891 412.863 -74.9747 406.234 -60.7329C400.956 -49.3933 405.897 -35.9044 417.229 -30.6104C431.475 -23.9549 434.835 -5.14549 423.718 5.9753C414.871 14.8265 414.871 29.1735 423.718 38.0247C434.835 49.1455 431.475 67.9549 417.229 74.6104C405.897 79.9044 400.956 93.3933 406.234 104.733C412.863 118.975 403.225 135.489 387.578 136.89C375.118 138.006 365.817 148.993 366.882 161.458C368.22 177.116 353.509 189.336 338.316 185.322C326.209 182.124 313.7 189.27 310.416 201.354C306.289 216.542 288.309 223.028 275.376 214.059C265.074 206.914 250.893 209.375 243.655 219.612C234.552 232.489 215.448 232.489 206.345 219.612C199.107 209.375 184.926 206.914 174.624 214.059C161.691 223.028 143.711 216.542 139.584 201.354C136.3 189.27 123.791 182.124 111.684 185.322C96.4905 189.336 81.7804 177.116 83.1179 161.458C84.1828 148.993 74.8822 138.006 62.4216 136.89C46.7754 135.489 37.1375 118.975 43.766 104.733C49.0437 93.3933 44.1034 79.9044 32.7714 74.6104C18.5253 67.9549 15.1653 49.1455 26.2817 38.0247C35.1294 29.1735 35.1294 14.8265 26.2817 5.9753C15.1653 -5.14549 18.5253 -23.9549 32.7714 -30.6104C44.1034 -35.9044 49.0437 -49.3933 43.766 -60.7329C37.1375 -74.9747 46.7754 -91.4891 62.4216 -92.8899C74.8822 -94.0056 84.1828 -104.993 83.1179 -117.459C81.7804 -133.116 96.4905 -145.336 111.684 -141.322C123.791 -138.124 136.3 -145.27 139.584 -157.354C143.711 -172.542 161.691 -179.028 174.624 -170.059C184.926 -162.914 199.107 -165.375 206.345 -175.612Z" fill="#FF9960" fill-opacity="0.35"/>
</g>
<defs>
<clipPath id="clip0_312_817">
<rect width="281" height="246" fill="white"/>
</clipPath>
</defs>
</svg>
