<svg width="707" height="418" viewBox="0 0 707 418" fill="none" xmlns="http://www.w3.org/2000/svg">
<g clip-path="url(#clip0_444_12)">
<path d="M334.899 18.795C347.998 7.90218 367.002 7.90218 380.101 18.795C390.681 27.593 405.416 29.4465 417.85 23.5541C433.238 16.2621 451.653 20.978 461.626 34.7798C469.682 45.9292 483.502 51.3834 497.006 48.7654C513.716 45.5259 530.388 54.666 536.609 70.5083C541.636 83.3078 553.669 92.0246 567.395 92.842C584.38 93.8534 598.259 106.849 600.34 123.736C602.02 137.381 611.504 148.813 624.594 153.013C640.793 158.21 651.002 174.249 648.811 191.119C647.042 204.751 653.375 218.177 665.01 225.497C679.411 234.557 685.301 252.628 678.978 268.424C673.87 281.185 676.655 295.757 686.104 305.74C697.804 318.1 699.001 337.063 688.943 350.792C680.819 361.882 679.887 376.685 686.556 388.706C694.811 403.585 691.239 422.25 678.085 433.044C667.459 441.764 662.864 455.875 666.33 469.176C670.621 485.639 662.506 502.83 647.085 510.014C634.625 515.82 626.653 528.349 626.698 542.095C626.754 559.108 614.613 573.74 597.89 576.869C584.376 579.398 573.532 589.553 570.151 602.88C565.968 619.374 550.569 630.53 533.59 629.407C519.866 628.5 506.837 635.642 500.243 647.711C492.082 662.651 474.399 669.634 458.223 664.327C445.15 660.038 430.759 663.72 421.367 673.773C409.739 686.219 390.883 688.596 376.526 679.432C364.926 672.028 350.074 672.028 338.474 679.432C324.117 688.596 305.261 686.219 293.633 673.773C284.241 663.72 269.85 660.038 256.777 664.327C240.601 669.634 222.918 662.651 214.757 647.711C208.163 635.642 195.134 628.5 181.41 629.407C164.431 630.53 149.032 619.374 144.849 602.88C141.468 589.553 130.624 579.398 117.11 576.869C100.387 573.74 88.2461 559.108 88.3018 542.095C88.3467 528.349 80.3749 515.82 67.9146 510.014C52.4938 502.83 44.3794 485.639 48.6698 469.176C52.1364 455.875 47.5411 441.764 36.9152 433.044C23.7611 422.25 20.1885 403.585 28.4439 388.706C35.1132 376.685 34.1807 361.882 26.0565 350.792C15.9985 337.063 17.196 318.1 28.8957 305.74C38.3454 295.757 41.1301 281.185 36.0217 268.424C29.6991 252.628 35.5894 234.557 49.9902 225.497C61.6248 218.177 67.9585 204.751 66.1886 191.119C63.9982 174.249 74.2072 158.21 90.406 153.013C103.496 148.813 112.98 137.381 114.66 123.736C116.741 106.849 130.62 93.8534 147.605 92.842C161.331 92.0246 173.364 83.3078 178.391 70.5083C184.612 54.666 201.284 45.5259 217.994 48.7654C231.498 51.3834 245.318 45.9292 253.374 34.7798C263.347 20.978 281.762 16.2621 297.15 23.5541C309.584 29.4465 324.319 27.593 334.899 18.795Z" fill="url(#paint0_linear_444_12)"/>
<g style="mix-blend-mode:overlay" opacity="0.59">
<circle cx="230" cy="357" r="230" fill="url(#paint1_radial_444_12)"/>
</g>
<path d="M335.984 117.452C346.481 102.596 368.519 102.596 379.016 117.452C387.362 129.264 403.715 132.108 415.597 123.863C430.517 113.51 451.254 120.999 456.014 138.524C459.801 152.467 474.22 160.716 488.188 157.024C505.721 152.389 522.68 166.496 521.137 184.566C519.909 198.949 530.627 211.627 545.006 212.915C563.063 214.533 574.169 233.589 566.522 250.027C560.435 263.114 566.13 278.675 579.205 284.787C595.643 292.471 599.512 314.171 586.688 327.008C576.482 337.224 576.482 353.776 586.688 363.992C599.512 376.829 595.643 398.529 579.205 406.213C566.13 412.325 560.435 427.886 566.522 440.973C574.169 457.411 563.063 476.467 545.006 478.085C530.627 479.373 519.909 492.051 521.137 506.434C522.68 524.504 505.721 538.611 488.188 533.976C474.22 530.284 459.801 538.533 456.014 552.476C451.254 570.001 430.517 577.49 415.597 567.137C403.715 558.892 387.362 561.736 379.016 573.548C368.519 588.404 346.481 588.404 335.984 573.548C327.638 561.736 311.285 558.892 299.403 567.137C284.483 577.49 263.746 570.001 258.986 552.476C255.199 538.533 240.78 530.284 226.812 533.976C209.279 538.611 192.32 524.504 193.863 506.434C195.091 492.051 184.373 479.373 169.994 478.085C151.937 476.467 140.831 457.411 148.478 440.973C154.565 427.886 148.87 412.325 135.795 406.213C119.357 398.529 115.488 376.829 128.312 363.992C138.518 353.776 138.518 337.224 128.312 327.008C115.488 314.171 119.357 292.471 135.795 284.787C148.87 278.675 154.565 263.114 148.478 250.027C140.831 233.589 151.937 214.533 169.994 212.915C184.373 211.627 195.091 198.949 193.863 184.566C192.32 166.496 209.279 152.389 226.812 157.024C240.78 160.716 255.199 152.467 258.986 138.524C263.746 120.999 284.483 113.51 299.403 123.863C311.285 132.108 327.638 129.264 335.984 117.452Z" fill="white" fill-opacity="0.56"/>
</g>
<defs>
<linearGradient id="paint0_linear_444_12" x1="560" y1="82" x2="357.5" y2="698" gradientUnits="userSpaceOnUse">
<stop stop-color="#F8D1C5"/>
<stop offset="0.612303" stop-color="#EAE8E5"/>
</linearGradient>
<radialGradient id="paint1_radial_444_12" cx="0" cy="0" r="1" gradientUnits="userSpaceOnUse" gradientTransform="translate(230 357) rotate(90) scale(230)">
<stop stop-color="white"/>
<stop offset="1" stop-color="white" stop-opacity="0"/>
</radialGradient>
<clipPath id="clip0_444_12">
<rect width="707" height="418" fill="white"/>
</clipPath>
</defs>
</svg>
