<svg width="318" height="465" viewBox="0 0 318 465" fill="none" xmlns="http://www.w3.org/2000/svg">
<g clip-path="url(#clip0_446_14)">
<path d="M80.0162 -21.5476C69.519 -36.4045 47.481 -36.4045 36.9838 -21.5476C28.6382 -9.73574 12.2852 -6.89182 0.403015 -15.1371C-14.5165 -25.4899 -35.2543 -18.0006 -40.014 -0.475792C-43.8008 13.4668 -58.2202 21.7159 -72.1881 18.0238C-89.7214 13.3893 -106.68 27.4958 -105.137 45.5655C-103.909 59.9492 -114.627 72.6268 -129.006 73.9149C-147.063 75.5326 -158.169 94.5885 -150.522 111.027C-144.435 124.114 -150.13 139.675 -163.205 145.787C-179.643 153.471 -183.512 175.171 -170.688 188.008C-160.482 198.224 -160.482 214.776 -170.688 224.992C-183.512 237.829 -179.643 259.529 -163.205 267.213C-150.13 273.325 -144.435 288.886 -150.522 301.973C-158.169 318.411 -147.063 337.467 -129.006 339.085C-114.627 340.373 -103.909 353.051 -105.137 367.434C-106.68 385.504 -89.7214 399.611 -72.1881 394.976C-58.2202 391.284 -43.8008 399.533 -40.014 413.476C-35.2543 431.001 -14.5165 438.49 0.402985 428.137C12.2852 419.892 28.6381 422.736 36.9838 434.548C47.481 449.404 69.519 449.404 80.0162 434.548C88.3619 422.736 104.715 419.892 116.597 428.137C131.517 438.49 152.254 431.001 157.014 413.476C160.801 399.533 175.22 391.284 189.188 394.976C206.721 399.611 223.68 385.504 222.137 367.434C220.909 353.051 231.627 340.373 246.006 339.085C264.063 337.467 275.169 318.411 267.522 301.973C261.435 288.886 267.13 273.325 280.205 267.213C296.643 259.529 300.512 237.829 287.688 224.992C277.482 214.776 277.482 198.224 287.688 188.008C300.512 175.171 296.643 153.471 280.205 145.787C267.13 139.675 261.435 124.114 267.522 111.027C275.169 94.5886 264.063 75.5326 246.006 73.9149C231.627 72.6268 220.909 59.9492 222.137 45.5655C223.68 27.4958 206.721 13.3893 189.188 18.0238C175.22 21.7159 160.801 13.4668 157.014 -0.475796C152.254 -18.0006 131.517 -25.4899 116.597 -15.1371C104.715 -6.89182 88.3619 -9.73573 80.0162 -21.5476Z" fill="#F0CCC4"/>
</g>
<defs>
<clipPath id="clip0_446_14">
<rect width="318" height="465" fill="white" transform="matrix(-1 0 0 1 318 0)"/>
</clipPath>
</defs>
</svg>
