<svg width="218" height="192" viewBox="0 0 218 192" fill="none" xmlns="http://www.w3.org/2000/svg">
<path d="M64.9559 198L118.993 194.52C108.753 178.922 98.5133 163.324 88.2733 147.727C78.0334 132 67.7317 116.338 57.3684 100.74V95.9063C67.7317 80.4375 78.0334 64.9688 88.2733 49.5C98.5133 33.9024 108.753 18.3692 118.993 2.90042L64.9559 0C54.099 16.5 43.3039 33 32.5705 49.5C21.7137 66 10.8568 82.5 1.52588e-05 99C10.8568 115.5 21.7137 132 32.5705 148.5C43.3039 165 54.099 181.5 64.9559 198ZM163.963 198L218 194.52C207.76 178.922 197.52 163.324 187.28 147.727C177.04 132 166.8 116.338 156.56 100.74V95.9063C166.8 80.4375 177.04 64.9688 187.28 49.5C197.52 33.9024 207.76 18.3692 218 2.90042L163.963 0C153.106 16.5 142.311 33 131.577 49.5C120.72 66 109.925 82.5 99.1918 99C109.925 115.5 120.72 132 131.577 148.5C142.311 165 153.106 181.5 163.963 198Z" fill="white" fill-opacity="0.63"/>
</svg>
