<svg width="149" height="215" viewBox="0 0 149 215" fill="none" xmlns="http://www.w3.org/2000/svg">
<g clip-path="url(#clip0_624_533)">
<path d="M-9.4519 13.0421C-13.832 6.72861 -23.168 6.72861 -27.5481 13.0421V13.0421C-31.346 18.5165 -39.1168 19.373 -44.0385 14.8818V14.8818C-49.7054 9.71064 -58.817 11.7669 -61.6725 18.8873V18.8873C-64.1495 25.0641 -71.5501 27.6137 -77.3395 24.3319V24.3319C-84.0029 20.5546 -92.4449 24.5681 -93.6338 32.1348V32.1348C-94.6655 38.7014 -101.323 42.8266 -107.688 40.9117V40.9117C-115.014 38.7079 -122.363 44.4899 -121.829 52.1213V52.1213C-121.365 58.7463 -126.937 64.2467 -133.562 63.7884V63.7884C-141.189 63.2608 -147.069 70.5313 -144.842 77.845V77.845C-142.909 84.1954 -147.106 90.7954 -153.665 91.8137V91.8137C-161.221 92.9866 -165.324 101.384 -161.52 108.016V108.016C-158.216 113.774 -160.819 121.136 -166.991 123.582V123.582C-174.104 126.401 -176.215 135.498 -171.024 141.119V141.119C-166.517 145.999 -167.393 153.745 -172.872 157.501V157.501C-179.192 161.833 -179.192 171.167 -172.872 175.499V175.499C-167.393 179.255 -166.517 187.001 -171.024 191.881V191.881C-176.215 197.502 -174.104 206.599 -166.991 209.418V209.418C-160.819 211.864 -158.216 219.226 -161.52 224.984V224.984C-165.324 231.616 -161.221 240.013 -153.665 241.186V241.186C-147.106 242.205 -142.909 248.805 -144.842 255.155V255.155C-147.069 262.469 -141.189 269.739 -133.562 269.212V269.212C-126.937 268.753 -121.365 274.254 -121.829 280.879V280.879C-122.363 288.51 -115.014 294.292 -107.688 292.088V292.088C-101.323 290.173 -94.6655 294.299 -93.6338 300.865V300.865C-92.4449 308.432 -84.0029 312.445 -77.3395 308.668V308.668C-71.5501 305.386 -64.1495 307.936 -61.6725 314.113V314.113C-58.817 321.233 -49.7054 323.289 -44.0385 318.118V318.118C-39.1168 313.627 -31.346 314.483 -27.5481 319.958V319.958C-23.168 326.271 -13.832 326.271 -9.4519 319.958V319.958C-5.65396 314.483 2.11682 313.627 7.03852 318.118V318.118C12.7054 323.289 21.817 321.233 24.6725 314.113V314.113C27.1495 307.936 34.5501 305.386 40.3395 308.668V308.668C47.0029 312.445 55.4449 308.432 56.6338 300.865V300.865C57.6655 294.299 64.3226 290.173 70.688 292.088V292.088C78.0137 294.292 85.363 288.51 84.8287 280.879V280.879C84.365 274.254 89.9368 268.753 96.5621 269.212V269.212C104.189 269.739 110.069 262.469 107.842 255.155V255.155C105.909 248.805 110.106 242.205 116.665 241.186V241.186C124.221 240.013 128.324 231.616 124.52 224.984V224.984C121.216 219.226 123.819 211.864 129.991 209.418V209.418C137.104 206.599 139.215 197.502 134.024 191.881V191.881C129.517 187.001 130.393 179.255 135.872 175.499V175.499C142.192 171.167 142.192 161.833 135.872 157.501V157.501C130.393 153.745 129.517 145.999 134.024 141.119V141.119C139.215 135.498 137.104 126.401 129.991 123.582V123.582C123.819 121.136 121.216 113.774 124.52 108.016V108.016C128.324 101.384 124.221 92.9866 116.665 91.8137V91.8137C110.106 90.7954 105.909 84.1954 107.842 77.845V77.845C110.069 70.5313 104.189 63.2608 96.5621 63.7884V63.7884C89.9368 64.2467 84.365 58.7463 84.8287 52.1213V52.1213C85.363 44.4899 78.0137 38.7079 70.688 40.9117V40.9117C64.3226 42.8266 57.6655 38.7014 56.6338 32.1348V32.1348C55.4449 24.5681 47.0029 20.5546 40.3395 24.3319V24.3319C34.5501 27.6137 27.1495 25.0641 24.6725 18.8873V18.8873C21.817 11.7669 12.7054 9.71064 7.03851 14.8818V14.8818C2.11681 19.373 -5.65396 18.5165 -9.4519 13.0421V13.0421Z" fill="#F0CCC4"/>
</g>
<defs>
<clipPath id="clip0_624_533">
<rect width="149" height="215" fill="white"/>
</clipPath>
</defs>
</svg>
