<svg width="338" height="365" viewBox="0 0 338 365" fill="none" xmlns="http://www.w3.org/2000/svg">
<path d="M256.02 19.1228C265.054 8.94885 280.946 8.94885 289.98 19.1228C297.536 27.6326 310.249 29.2182 319.683 22.8537C330.948 15.2537 346.355 19.1818 352.563 31.2704C357.758 41.3852 369.695 46.0686 380.405 42.2477C393.19 37.6864 407.156 45.3044 410.15 58.5442C412.656 69.626 423.062 77.1248 434.376 76.0787C447.881 74.83 459.525 85.6749 459.121 99.2323C458.782 110.582 466.99 120.429 478.203 122.219C491.594 124.355 500.17 137.754 496.396 150.778C493.237 161.683 498.719 173.254 509.136 177.767C521.583 183.158 526.537 198.267 519.634 209.943C513.854 219.717 516.261 232.274 525.233 239.233C535.961 247.553 536.969 263.411 527.369 273.009C519.336 281.039 518.532 293.794 525.494 302.768C533.811 313.489 530.804 329.096 519.125 336.005C509.354 341.785 505.378 353.947 509.883 364.368C515.264 376.816 508.443 391.184 495.424 394.977C484.523 398.152 477.623 408.948 479.386 420.163C481.492 433.559 471.3 445.777 457.746 446.225C446.395 446.6 437.012 455.342 435.92 466.647C434.615 480.152 421.707 489.455 408.459 486.528C397.36 484.077 386.099 490.215 382.217 500.898C377.58 513.663 362.777 519.48 350.657 513.353C340.504 508.221 328.081 511.378 321.655 520.765C313.973 531.985 298.204 533.966 287.972 525.01C279.406 517.512 266.594 517.512 258.028 525.01C247.796 533.966 232.027 531.985 224.345 520.765C217.919 511.378 205.496 508.221 195.343 513.353C183.223 519.48 168.42 513.663 163.783 500.898C159.901 490.215 148.64 484.077 137.541 486.528C124.293 489.455 111.385 480.152 110.08 466.647C108.988 455.342 99.6053 446.6 88.2536 446.225C74.7004 445.777 64.508 433.559 66.6139 420.163C68.377 408.948 61.4766 398.152 50.5764 394.977C37.5566 391.184 30.7358 376.816 36.1168 364.368C40.6218 353.947 36.6465 341.785 26.8748 336.005C15.1958 329.096 12.1889 313.489 20.5063 302.768C27.4682 293.794 26.6635 281.039 18.6313 273.009C9.03053 263.411 10.0391 247.553 20.7667 239.233C29.7394 232.274 32.1456 219.717 26.3665 209.943C19.4629 198.267 24.4171 183.158 36.8638 177.767C47.2811 173.254 52.7629 161.683 49.6036 150.778C45.8301 137.754 54.4063 124.355 67.7968 122.219C79.01 120.429 87.2178 110.582 86.8794 99.2323C86.4751 85.6749 98.1187 74.83 111.624 76.0787C122.938 77.1248 133.344 69.626 135.85 58.5442C138.844 45.3044 152.81 37.6864 165.595 42.2477C176.305 46.0686 188.242 41.3852 193.437 31.2704C199.645 19.1818 215.052 15.2537 226.317 22.8537C235.751 29.2182 248.464 27.6326 256.02 19.1228Z" fill="white" fill-opacity="0.58"/>
</svg>
