<svg width="355" height="204" viewBox="0 0 355 204" fill="none" xmlns="http://www.w3.org/2000/svg">
<g clip-path="url(#clip0_312_808)">
<path d="M65.0204 -320.877C74.0541 -331.051 89.9459 -331.051 98.9796 -320.877C106.536 -312.367 119.249 -310.782 128.683 -317.146C139.948 -324.746 155.355 -320.818 161.563 -308.73C166.758 -298.615 178.695 -293.931 189.405 -297.752C202.19 -302.314 216.156 -294.696 219.15 -281.456C221.656 -270.374 232.062 -262.875 243.376 -263.921C256.881 -265.17 268.525 -254.325 268.121 -240.768C267.782 -229.418 275.99 -219.571 287.203 -217.781C300.594 -215.645 309.17 -202.246 305.396 -189.222C302.237 -178.317 307.719 -166.746 318.136 -162.233C330.583 -156.842 335.537 -141.733 328.634 -130.057C322.854 -120.283 325.261 -107.726 334.233 -100.767C344.961 -92.4474 345.969 -76.5892 336.369 -66.9908C328.336 -58.9605 327.532 -46.2064 334.494 -37.2323C342.811 -26.5109 339.804 -10.9038 328.125 -3.99518C318.354 1.78513 314.378 13.9466 318.883 24.3678C324.264 36.8156 317.443 51.1838 304.424 54.9767C293.523 58.1521 286.623 68.9477 288.386 80.1633C290.492 93.5594 280.3 105.777 266.746 106.225C255.395 106.6 246.012 115.342 244.92 126.647C243.615 140.152 230.707 149.455 217.459 146.528C206.36 144.077 195.099 150.215 191.217 160.898C186.58 173.663 171.777 179.48 159.657 173.353C149.504 168.221 137.081 171.378 130.655 180.765C122.973 191.985 107.204 193.966 96.9721 185.01C88.406 177.512 75.594 177.512 67.0279 185.01C56.7963 193.966 41.0269 191.985 33.3453 180.765C26.919 171.378 14.4956 168.221 4.3434 173.353C-7.77747 179.48 -22.58 173.663 -27.2175 160.898C-31.0985 150.215 -42.3604 144.077 -53.4589 146.528C-66.7075 149.455 -79.6151 140.152 -80.9199 126.647C-82.0121 115.342 -91.3947 106.6 -102.746 106.225C-116.3 105.777 -126.492 93.5594 -124.386 80.1633C-122.623 68.9477 -129.523 58.1521 -140.424 54.9767C-153.443 51.1838 -160.264 36.8156 -154.883 24.3678C-150.378 13.9466 -154.354 1.78513 -164.125 -3.99518C-175.804 -10.9038 -178.811 -26.5109 -170.494 -37.2323C-163.532 -46.2064 -164.337 -58.9605 -172.369 -66.9908C-181.969 -76.5892 -180.961 -92.4474 -170.233 -100.767C-161.261 -107.726 -158.854 -120.283 -164.634 -130.057C-171.537 -141.733 -166.583 -156.842 -154.136 -162.233C-143.719 -166.746 -138.237 -178.317 -141.396 -189.222C-145.17 -202.246 -136.594 -215.645 -123.203 -217.781C-111.99 -219.571 -103.782 -229.418 -104.121 -240.768C-104.525 -254.325 -92.8813 -265.17 -79.3755 -263.921C-68.0621 -262.875 -57.6562 -270.374 -55.15 -281.456C-52.1557 -294.696 -38.19 -302.314 -25.4051 -297.752C-14.6955 -293.931 -2.75787 -298.615 2.43681 -308.73C8.64514 -320.818 24.0516 -324.746 35.3173 -317.146C44.7515 -310.782 57.4644 -312.367 65.0204 -320.877Z" fill="white" fill-opacity="0.72"/>
</g>
<defs>
<clipPath id="clip0_312_808">
<rect width="355" height="204" fill="white"/>
</clipPath>
</defs>
</svg>
