<svg width="323" height="336" viewBox="0 0 323 336" fill="none" xmlns="http://www.w3.org/2000/svg">
<g clip-path="url(#clip0_312_810)">
<path d="M11.1216 33.7498C22.7779 17.2747 47.2221 17.2747 58.8784 33.7498C68.1446 46.8465 86.2988 49.9883 99.4854 40.8504C116.035 29.3823 139.048 37.6705 144.332 57.0992C148.536 72.5583 164.559 81.6953 180.049 77.6064C199.482 72.4769 218.321 88.1005 216.609 108.126C215.246 124.071 227.163 138.128 243.102 139.554C263.112 141.344 275.463 162.469 266.981 180.68C260.226 195.183 266.554 212.442 281.051 219.21C299.275 227.717 303.584 251.785 289.36 266.004C278.037 277.322 278.037 295.678 289.36 306.996C303.584 321.215 299.275 345.283 281.051 353.79C266.554 360.558 260.226 377.817 266.981 392.32C275.463 410.531 263.112 431.656 243.102 433.446C227.163 434.872 215.246 448.929 216.609 464.874C218.321 484.9 199.482 500.523 180.049 495.394C164.559 491.305 148.536 500.442 144.332 515.901C139.048 535.33 116.035 543.618 99.4854 532.15C86.2989 523.012 68.1446 526.153 58.8784 539.25C47.2221 555.725 22.7779 555.725 11.1216 539.25C1.85542 526.153 -16.2988 523.012 -29.4854 532.15C-46.0347 543.618 -69.0479 535.33 -74.3318 515.901C-78.5362 500.442 -94.5592 491.305 -110.049 495.394C-129.482 500.523 -148.321 484.9 -146.609 464.874C-145.246 448.929 -157.163 434.872 -173.102 433.446C-193.112 431.656 -205.463 410.531 -196.981 392.32C-190.226 377.817 -196.554 360.558 -211.051 353.79C-229.275 345.283 -233.584 321.215 -219.36 306.996C-208.037 295.678 -208.037 277.322 -219.36 266.004C-233.584 251.785 -229.275 227.717 -211.051 219.21C-196.554 212.442 -190.226 195.183 -196.981 180.68C-205.463 162.469 -193.112 141.344 -173.102 139.554C-157.163 138.128 -145.246 124.071 -146.609 108.126C-148.321 88.1005 -129.482 72.4769 -110.049 77.6064C-94.5592 81.6953 -78.5362 72.5583 -74.3318 57.0992C-69.0479 37.6705 -46.0347 29.3823 -29.4854 40.8504C-16.2988 49.9883 1.85542 46.8465 11.1216 33.7498Z" fill="#BCE1F7" fill-opacity="0.13"/>
</g>
<defs>
<clipPath id="clip0_312_810">
<rect width="323" height="336" fill="white"/>
</clipPath>
</defs>
</svg>
