<svg width="223" height="40" viewBox="0 0 223 40" fill="none" xmlns="http://www.w3.org/2000/svg">
<path d="M20.5 0L25.9311 12.5247L39.5211 13.8197L29.2878 22.8553L32.2557 36.1803L20.5 29.24L8.7443 36.1803L11.7122 22.8553L1.47887 13.8197L15.0689 12.5247L20.5 0Z" fill="#FFA763"/>
<path d="M65.9541 0L71.3852 12.5247L84.9752 13.8197L74.7419 22.8553L77.7098 36.1803L65.9541 29.24L54.1984 36.1803L57.1663 22.8553L46.933 13.8197L60.523 12.5247L65.9541 0Z" fill="#FFA763"/>
<path d="M111.409 0L116.84 12.5247L130.43 13.8197L120.197 22.8553L123.165 36.1803L111.409 29.24L99.6535 36.1803L102.621 22.8553L92.3881 13.8197L105.978 12.5247L111.409 0Z" fill="#FFA763"/>
<path d="M156.863 0L162.294 12.5247L175.884 13.8197L165.651 22.8553L168.619 36.1803L156.863 29.24L145.108 36.1803L148.076 22.8553L137.842 13.8197L151.432 12.5247L156.863 0Z" fill="#FFA763"/>
<path d="M202.318 0L207.749 12.5247L221.339 13.8197L211.106 22.8553L214.074 36.1803L202.318 29.24L190.563 36.1803L193.531 22.8553L183.297 13.8197L196.887 12.5247L202.318 0Z" fill="#FFA763"/>
</svg>
