<svg width="47" height="33" viewBox="0 0 47 33" fill="none" xmlns="http://www.w3.org/2000/svg">
<path d="M1.32449 16.7881C1.29546 16.6968 1.27059 16.6054 1.24157 16.5186C1.18767 16.5004 1.12963 16.4912 1.07574 16.4684C0.814545 16.3588 0.727477 15.8837 1.02598 15.7558C0.598954 14.0246 0.462141 12.1746 0.0102393 10.4526C-0.0643867 10.1739 0.288013 10.0141 0.449703 10.1831C6.1503 5.84363 12.3028 2.39492 18.8948 0.0242169C19.2803 -0.112818 19.7239 0.357668 19.6659 0.782476C19.384 2.85627 19.1021 4.93006 18.8284 7.00386C18.7372 7.6799 17.7961 7.62508 17.8541 6.92621C17.9993 5.21327 18.1361 3.50033 18.2729 1.7874C12.4313 4.10786 6.92973 7.10892 1.78883 10.9687C5.66524 16.039 9.89404 20.9631 14.666 25.0285C14.8815 23.7861 15.1137 22.5436 15.3293 21.2966C15.292 21.2372 15.2505 21.1824 15.2132 21.123C15.0142 20.817 15.2713 20.3328 15.5698 20.4196C15.6568 20.2917 15.7729 20.1957 15.9346 20.182C25.6733 19.3553 35.3871 19.6704 45.1175 20.3511C45.1673 16.9983 45.2419 13.6409 45.3372 10.2881C41.038 8.75334 36.5811 9.22839 32.1243 9.5253C27.4768 9.83591 22.8209 9.76739 18.1775 9.4111C17.1618 9.33345 17.2737 7.59768 18.2895 7.67533C23.6625 8.08643 29.0024 8.00878 34.3755 7.62965C38.4634 7.34188 42.5346 7.26423 46.4442 8.77618C46.809 8.91778 47.008 9.28777 46.9998 9.69888C46.9251 13.5815 46.8298 17.4596 46.6971 21.3423C46.6888 21.6437 46.5064 21.895 46.2742 22.0411C46.2618 22.0686 46.2452 22.096 46.2245 22.1188C45.557 22.7446 45.018 23.4709 44.4749 24.1789L44.4791 24.1835C44.6863 24.6585 44.2386 25.0696 43.8613 24.9463C43.3555 25.5538 42.8083 26.1157 42.12 26.5496C40.7312 27.4266 38.1649 26.8648 36.6931 26.8465C31.1749 26.778 25.6235 26.8922 20.1095 26.5953C20.0556 26.7049 19.9686 26.7826 19.8359 26.8237C19.8152 26.8328 19.7903 26.8374 19.7695 26.8465C19.7322 26.8556 19.6991 26.8602 19.6659 26.8556L19.7281 26.9972C19.6452 27.18 19.5664 27.3627 19.4835 27.5408C19.1974 28.1757 18.8906 28.8015 18.6087 29.441C18.2397 30.2769 17.9329 31.1494 17.5515 31.9762C17.0996 32.9537 15.9263 32.3553 16.0092 31.428C11.9753 29.103 8.33519 25.5766 4.99775 22.2421C3.40158 20.6571 2.08318 19.0081 1.32449 16.7881ZM43.2477 23.1192C43.426 23.279 43.7079 23.448 43.9608 23.6353C44.45 23.0963 44.931 22.5436 45.4492 22.1234C44.2842 22 43.1192 21.8995 41.9501 21.8036C42.3978 22.2284 42.7917 22.7081 43.2477 23.1192ZM19.4669 25.7457C19.5042 25.732 19.5415 25.7228 19.583 25.7137C19.67 25.4944 19.8566 25.3163 20.1344 25.3117C21.4859 25.2797 22.8417 25.2843 24.1974 25.298C23.0158 24.4986 21.8591 23.6673 20.7314 22.7674C20.0266 22.2056 20.7811 20.9586 21.4777 21.5296C22.8665 22.6715 24.1849 23.8728 25.4743 25.1473C25.5282 25.2021 25.5572 25.2615 25.5738 25.3208C28.2686 25.3711 30.9635 25.4625 33.65 25.5127C34.1641 25.5218 34.6865 25.5401 35.2047 25.5584C33.9195 24.727 32.742 23.5485 31.5729 22.5984C31.2744 22.3563 31.5853 21.8356 31.8921 22.0686C33.3556 23.1694 35.1218 24.1698 36.3365 25.6041C37.9327 25.668 39.5371 25.7137 41.1126 25.5767C41.3116 25.5584 41.5064 25.5173 41.6889 25.4533C41.6516 25.4533 41.6101 25.4488 41.5645 25.4305C40.8638 25.1701 40.2793 24.6677 39.674 24.2109C38.907 23.6353 38.1275 23.0872 37.3357 22.5527C36.7884 22.1828 37.3357 21.3012 37.8829 21.6483C39.2262 22.4979 41.0131 23.375 41.9832 24.7362C42.1283 24.9372 42.0786 25.2021 41.9335 25.3483C42.4268 25.1199 42.8746 24.7499 43.3058 24.3251C43.2519 24.2748 43.1938 24.2246 43.1399 24.1743C42.9409 23.9916 42.7544 23.7906 42.5719 23.5896C42.1905 23.1648 41.8215 22.6898 41.5811 22.1553C41.5189 22.0183 41.5935 21.8539 41.7055 21.7854C37.4559 21.4519 33.1898 21.3149 28.9361 21.2829C27.2156 21.2692 25.495 21.2875 23.7786 21.3149C25.4121 22.2924 27.1492 23.2516 28.4676 24.6585C28.733 24.9417 28.4013 25.4168 28.0821 25.2934C26.0423 24.5123 24.2471 22.8679 22.4602 21.5707C22.3732 21.5067 22.3276 21.4291 22.2985 21.3468C21.8591 21.356 21.4155 21.3605 20.976 21.3742C19.6493 21.4108 18.3226 21.4747 17.0001 21.5387C16.9213 21.5433 16.8508 21.5844 16.7804 21.6392C17.1825 22.1142 17.5639 22.6121 17.9329 23.1237C18.5092 23.9185 19.1974 24.7727 19.4089 25.7822C19.4296 25.7731 19.4503 25.7548 19.4669 25.7457ZM1.1089 12.2614C1.31205 13.0791 1.48203 13.9104 1.66031 14.7463C1.71835 15.025 1.79712 15.2899 1.87589 15.5548C2.25317 15.5137 2.63873 15.5183 3.00772 15.5366C3.32281 15.5548 3.70837 15.5229 4.06077 15.5777C3.06162 14.4905 2.0749 13.3897 1.1089 12.2614ZM4.75728 16.3314C4.74899 16.3405 4.74485 16.3542 4.73655 16.3633C4.35513 16.7973 3.63375 16.6694 3.1321 16.6831C2.85432 16.6922 2.55996 16.6968 2.26975 16.6877C2.47704 17.1856 2.72165 17.6606 2.98699 18.1128C3.02845 18.0808 3.0782 18.058 3.1321 18.058C4.46293 18.0397 5.78961 18.3686 7.07484 18.7889C6.29955 17.9758 5.52427 17.1581 4.75728 16.3314ZM16.2538 22.6395C16.0714 23.2242 15.9346 23.9459 15.8268 24.6083C16.5026 24.6311 17.2406 24.8321 17.8583 25.1655C17.6054 24.7499 17.3732 24.3114 17.1162 23.9094C16.8426 23.4754 16.5482 23.0552 16.2538 22.6395ZM18.816 26.3486C18.7538 26.2938 18.6958 26.239 18.6336 26.1796C18.588 26.207 18.5258 26.2161 18.4553 26.1887C17.9205 25.9969 17.4147 25.7183 16.8716 25.5447C16.4943 25.4213 16.1087 25.362 15.719 25.2934C15.6817 25.5401 15.6485 25.7594 15.6195 25.9421C15.69 26.1385 15.7563 26.3349 15.8185 26.5359C15.8475 26.5268 15.8766 26.5176 15.9097 26.5222C16.7721 26.5496 17.6137 26.778 18.4512 26.9972C18.5672 26.7643 18.6833 26.5405 18.816 26.3486ZM17.9537 28.0753C17.9993 27.9885 18.0449 27.8788 18.0946 27.7738C17.4064 27.6779 16.7182 27.5682 16.0548 27.3581C16.1668 27.7966 16.2704 28.2351 16.3824 28.6691C16.5316 29.2629 16.6974 29.8476 16.8218 30.446C16.9959 29.6146 17.6593 28.6691 17.9537 28.0753ZM15.69 30.1399C15.6237 29.8521 15.5656 29.5598 15.4993 29.272C15.3127 28.4178 15.0847 27.5545 14.9479 26.6866C14.8277 26.6592 14.7074 26.5998 14.6204 26.5085C14.0524 25.9284 13.4885 25.3528 12.9247 24.7773C12.8542 24.896 12.734 24.9783 12.5806 24.9417C11.0425 24.5763 9.5292 24.1835 8.01181 23.7221C10.5035 25.9649 13.1527 27.9611 15.69 30.1399ZM5.72328 21.5387C6.33272 22.1645 6.9629 22.7629 7.60136 23.343C7.61795 23.2059 7.7133 23.0826 7.85841 23.11C9.37166 23.4115 10.8517 23.7815 12.3443 24.1835C11.7929 23.6216 11.2415 23.0598 10.6942 22.5025C10.6403 22.5071 10.5781 22.4979 10.5118 22.466C9.63285 22.0503 8.73319 21.7534 7.79208 21.5661C7.01679 21.4108 6.22493 21.4017 5.44965 21.2463C5.54086 21.3468 5.62792 21.4428 5.72328 21.5387ZM5.10968 20.8946C5.13041 20.753 5.22163 20.6114 5.35429 20.5749C6.53587 20.2232 7.88743 20.4652 9.12705 20.9038C8.80367 20.5749 8.48029 20.246 8.16106 19.9125C8.14448 19.908 8.12789 19.9125 8.10716 19.908C6.53587 19.4421 4.91898 19.1771 3.35598 18.7021C3.87007 19.474 4.46707 20.1912 5.10968 20.8946Z" fill="#131313"/>
</svg>
