<svg width="47" height="33" viewBox="0 0 47 33" fill="none" xmlns="http://www.w3.org/2000/svg">
<path d="M45.6755 16.7881C45.7045 16.6968 45.7294 16.6054 45.7584 16.5186C45.8123 16.5004 45.8704 16.4912 45.9243 16.4684C46.1855 16.3588 46.2725 15.8837 45.974 15.7558C46.401 14.0246 46.5379 12.1746 46.9898 10.4526C47.0644 10.1739 46.712 10.0141 46.5503 10.1831C40.8497 5.84363 34.6972 2.39492 28.1052 0.0242169C27.7197 -0.112818 27.2761 0.357668 27.3341 0.782476C27.616 2.85627 27.8979 4.93006 28.1716 7.00386C28.2628 7.6799 29.2039 7.62508 29.1459 6.92621C29.0007 5.21327 28.8639 3.50033 28.7271 1.7874C34.5687 4.10786 40.0703 7.10892 45.2112 10.9687C41.3348 16.039 37.106 20.9631 32.334 25.0285C32.1185 23.7861 31.8863 22.5436 31.6707 21.2966C31.708 21.2372 31.7495 21.1824 31.7868 21.123C31.9858 20.817 31.7287 20.3328 31.4302 20.4196C31.3432 20.2917 31.2271 20.1957 31.0654 20.182C21.3267 19.3553 11.6129 19.6704 1.88248 20.3511C1.83273 16.9983 1.75811 13.6409 1.66275 10.2881C5.96204 8.75334 10.4189 9.22839 14.8757 9.5253C19.5232 9.83591 24.1791 9.7674 28.8225 9.4111C29.8382 9.33345 29.7263 7.59768 28.7105 7.67533C23.3375 8.08643 17.9976 8.00878 12.6245 7.62965C8.53664 7.34188 4.46537 7.26423 0.555798 8.77618C0.19096 8.91778 -0.00804269 9.28777 0.000249086 9.69888C0.0748751 13.5815 0.17023 17.4596 0.302899 21.3423C0.311191 21.6437 0.49361 21.895 0.72578 22.0411C0.738217 22.0686 0.754801 22.096 0.775531 22.1188C1.44302 22.7446 1.98198 23.4709 2.5251 24.1789L2.52095 24.1835C2.31366 24.6585 2.76141 25.0696 3.13869 24.9463C3.64449 25.5538 4.19174 26.1157 4.87996 26.5496C6.26883 27.4266 8.83514 26.8648 10.3069 26.8465C15.8251 26.778 21.3765 26.8922 26.8905 26.5953C26.9444 26.7049 27.0314 26.7826 27.1641 26.8237C27.1848 26.8328 27.2097 26.8374 27.2305 26.8465C27.2678 26.8556 27.3009 26.8602 27.3341 26.8556L27.2719 26.9972C27.3548 27.18 27.4336 27.3627 27.5165 27.5408C27.8026 28.1757 28.1094 28.8015 28.3913 29.441C28.7603 30.2769 29.0671 31.1494 29.4485 31.9762C29.9004 32.9537 31.0737 32.3553 30.9908 31.428C35.0247 29.103 38.6648 25.5766 42.0023 22.2421C43.5984 20.6571 44.9168 19.0081 45.6755 16.7881ZM3.75228 23.1192C3.57401 23.279 3.29209 23.448 3.03919 23.6353C2.54997 23.0963 2.06905 22.5436 1.55081 22.1234C2.71581 22 3.8808 21.8995 5.04994 21.8036C4.60219 22.2284 4.20833 22.7081 3.75228 23.1192ZM27.5331 25.7457C27.4958 25.732 27.4585 25.7228 27.417 25.7137C27.33 25.4944 27.1434 25.3163 26.8656 25.3117C25.5141 25.2797 24.1583 25.2843 22.8026 25.298C23.9842 24.4986 25.1409 23.6673 26.2686 22.7674C26.9734 22.2056 26.2189 20.9586 25.5223 21.5296C24.1335 22.6715 22.8151 23.8729 21.5257 25.1473C21.4718 25.2021 21.4428 25.2615 21.4262 25.3209C18.7314 25.3711 16.0365 25.4625 13.35 25.5127C12.8359 25.5218 12.3135 25.5401 11.7953 25.5584C13.0805 24.727 14.258 23.5485 15.4271 22.5984C15.7256 22.3563 15.4147 21.8356 15.1079 22.0686C13.6444 23.1694 11.8782 24.1698 10.6635 25.6041C9.06731 25.668 7.46285 25.7137 5.88741 25.5767C5.68841 25.5584 5.49355 25.5173 5.31113 25.4533C5.34845 25.4533 5.38991 25.4488 5.43551 25.4305C6.13617 25.1701 6.72074 24.6677 7.32604 24.2109C8.09303 23.6353 8.87245 23.0872 9.66432 22.5527C10.2116 22.1828 9.66432 21.3012 9.11706 21.6483C7.77379 22.4979 5.98691 23.375 5.01677 24.7362C4.87167 24.9372 4.92142 25.2021 5.06653 25.3483C4.57317 25.1199 4.12541 24.7499 3.69424 24.3251C3.74813 24.2748 3.80618 24.2246 3.86007 24.1743C4.05907 23.9916 4.24564 23.7906 4.42806 23.5896C4.80948 23.1648 5.17846 22.6898 5.41893 22.1553C5.48111 22.0183 5.40649 21.8539 5.29455 21.7854C9.54409 21.4519 13.8102 21.3149 18.0639 21.2829C19.7844 21.2692 21.505 21.2875 23.2214 21.3149C21.5879 22.2924 19.8508 23.2516 18.5324 24.6585C18.267 24.9417 18.5987 25.4168 18.9179 25.2934C20.9577 24.5123 22.7529 22.8679 24.5398 21.5707C24.6268 21.5067 24.6724 21.4291 24.7015 21.3468C25.1409 21.356 25.5845 21.3605 26.024 21.3742C27.3507 21.4108 28.6774 21.4747 29.9999 21.5387C30.0787 21.5433 30.1492 21.5844 30.2196 21.6392C29.8175 22.1142 29.4361 22.6121 29.0671 23.1237C28.4908 23.9185 27.8026 24.7727 27.5911 25.7822C27.5704 25.7731 27.5497 25.7548 27.5331 25.7457ZM45.8911 12.2614C45.6879 13.0791 45.518 13.9104 45.3397 14.7463C45.2817 15.025 45.2029 15.2899 45.1241 15.5548C44.7468 15.5137 44.3613 15.5183 43.9923 15.5366C43.6772 15.5548 43.2916 15.5229 42.9392 15.5777C43.9384 14.4905 44.9251 13.3897 45.8911 12.2614ZM42.2427 16.3314C42.251 16.3405 42.2552 16.3542 42.2634 16.3633C42.6449 16.7973 43.3662 16.6694 43.8679 16.6831C44.1457 16.6922 44.44 16.6968 44.7303 16.6877C44.523 17.1856 44.2784 17.6606 44.013 18.1128C43.9716 18.0808 43.9218 18.058 43.8679 18.058C42.5371 18.0397 41.2104 18.3686 39.9252 18.7889C40.7004 17.9758 41.4757 17.1581 42.2427 16.3314ZM30.7462 22.6395C30.9286 23.2242 31.0654 23.9459 31.1732 24.6083C30.4974 24.6311 29.7594 24.8321 29.1417 25.1655C29.3946 24.7499 29.6268 24.3114 29.8838 23.9094C30.1574 23.4754 30.4518 23.0552 30.7462 22.6395ZM28.184 26.3486C28.2462 26.2938 28.3042 26.239 28.3664 26.1796C28.412 26.207 28.4742 26.2161 28.5447 26.1887C29.0795 25.9969 29.5853 25.7183 30.1284 25.5447C30.5057 25.4213 30.8913 25.362 31.281 25.2934C31.3183 25.5401 31.3515 25.7594 31.3805 25.9421C31.31 26.1385 31.2437 26.3349 31.1815 26.5359C31.1525 26.5268 31.1234 26.5176 31.0903 26.5222C30.2279 26.5496 29.3863 26.778 28.5488 26.9972C28.4328 26.7643 28.3167 26.5405 28.184 26.3486ZM29.0463 28.0753C29.0007 27.9885 28.9551 27.8788 28.9054 27.7738C29.5936 27.6779 30.2818 27.5682 30.9452 27.3581C30.8332 27.7966 30.7296 28.2351 30.6176 28.6691C30.4684 29.2629 30.3026 29.8476 30.1782 30.446C30.0041 29.6146 29.3407 28.6691 29.0463 28.0753ZM31.31 30.1399C31.3763 29.8521 31.4344 29.5598 31.5007 29.272C31.6873 28.4178 31.9153 27.5545 32.0521 26.6866C32.1723 26.6592 32.2926 26.5998 32.3796 26.5085C32.9476 25.9284 33.5115 25.3528 34.0753 24.7773C34.1458 24.896 34.266 24.9783 34.4194 24.9417C35.9575 24.5763 37.4708 24.1835 38.9882 23.7221C36.4965 25.9649 33.8473 27.9611 31.31 30.1399ZM41.2767 21.5387C40.6673 22.1645 40.0371 22.7629 39.3986 23.343C39.3821 23.2059 39.2867 23.0826 39.1416 23.11C37.6283 23.4115 36.1483 23.7815 34.6557 24.1835C35.2071 23.6216 35.7585 23.0598 36.3058 22.5025C36.3597 22.5071 36.4219 22.4979 36.4882 22.466C37.3671 22.0503 38.2668 21.7534 39.2079 21.5661C39.9832 21.4108 40.7751 21.4017 41.5504 21.2463C41.4591 21.3468 41.3721 21.4428 41.2767 21.5387ZM41.8903 20.8946C41.8696 20.753 41.7784 20.6114 41.6457 20.5749C40.4641 20.2232 39.1126 20.4653 37.8729 20.9038C38.1963 20.5749 38.5197 20.246 38.8389 19.9125C38.8555 19.908 38.8721 19.9125 38.8928 19.908C40.4641 19.4421 42.081 19.1771 43.644 18.7021C43.1299 19.474 42.5329 20.1912 41.8903 20.8946Z" fill="#131313"/>
<path d="M11.2477 22.0309C10.1863 22.9262 9.05038 23.7622 8.14657 24.8584C7.80246 25.2741 8.29997 25.7766 8.70212 25.5527C9.85882 24.8995 10.8538 23.9449 11.882 23.0815C12.4666 22.5882 11.8364 21.5376 11.2477 22.0309Z" fill="#131313"/>
<path d="M19.3757 21.554C18.1858 22.3763 16.9877 23.1802 15.8766 24.1303C15.5698 24.3952 15.7978 25.053 16.1958 24.8474C17.5018 24.176 18.7331 23.3538 19.9727 22.5453C20.5697 22.1524 19.9644 21.1475 19.3757 21.554Z" fill="#131313"/>
<path d="M28.5087 22.0808C27.5717 22.8345 26.6265 23.5654 25.76 24.4104C25.4283 24.7347 25.9092 25.2646 26.2533 25.0317C27.211 24.383 28.0858 23.6156 28.9813 22.8711C29.4249 22.5057 28.9606 21.72 28.5087 22.0808Z" fill="#131313"/>
<path d="M35.5083 25.8413C34.7828 26.0971 34.0573 26.3575 33.3317 26.6133C32.9089 26.764 33.1493 27.5086 33.5515 27.3213C34.2563 26.9924 34.9569 26.6636 35.6617 26.3347C35.9395 26.2068 35.8027 25.7363 35.5083 25.8413Z" fill="#131313"/>
</svg>
