<svg xmlns="http://www.w3.org/2000/svg" width="40" height="38" viewBox="0 0 40 38" fill="none"><path d="M25.9683 30.7957V25.4898H27.95H32.3083H33.5185C34.8369 25.4898 36.1297 25.0001 37.1579 24.1308L37.1601 24.1289C38.6746 22.8332 39.4164 20.7731 39.0903 18.7666L37.0391 5.98476C36.8253 4.27767 36.1136 2.89241 34.9512 1.93777C33.791 0.984825 32.2297 0.5 30.3857 0.5H20.0376H19.5168H14.4691C13.0303 0.5 11.6955 1.0535 10.6815 1.96028C10.2767 1.65126 9.7703 1.47277 9.22997 1.47277H3.27082C1.95298 1.47277 0.878906 2.54684 0.878906 3.86468V21.3591C0.878906 22.677 1.95298 23.7511 3.27082 23.7511H9.23763C9.97177 23.7511 10.6352 23.4154 11.075 22.8892C11.4881 23.0248 12.7705 23.4906 14.0179 24.3983C15.4537 25.4432 16.7802 27.0232 16.7802 29.3174V35.8204C16.7802 36.4313 17.1769 36.9885 17.7734 37.1706C17.9093 37.2145 18.8684 37.5 20.0912 37.5C21.1695 37.5 22.4991 37.2823 23.6427 36.4377C25.2267 35.2753 25.9683 33.33 25.9683 30.7957ZM8.79125 20.8668H8.78359V20.9204H3.7172V4.31872H8.79125V20.8668ZM21.9622 34.1542L21.9619 34.1544C21.2796 34.6583 20.3493 34.7144 19.6108 34.6501V29.3251C19.6108 26.4141 18.188 23.8888 15.5786 22.0318L15.5774 22.0309C14.6256 21.3579 13.6809 20.8879 12.9656 20.5832C12.6073 20.4306 12.3049 20.3187 12.0857 20.2431C11.9761 20.2053 11.8872 20.1765 11.8225 20.1562C11.7901 20.1461 11.7639 20.1381 11.7443 20.1322L11.7203 20.1251L11.7128 20.1228L11.7106 20.1222L11.7098 20.1219L11.6395 20.1009H11.6295V5.90164C11.6412 5.85764 11.6539 5.80371 11.6622 5.74722C11.8781 4.38224 13.0857 3.34596 14.4691 3.34596H19.5168H20.0376H30.3857C31.6148 3.34596 32.503 3.62185 33.109 4.10525C33.7027 4.57881 34.0894 5.30243 34.2219 6.33901C34.2229 6.35639 34.2252 6.38407 34.2317 6.41668C34.235 6.43307 34.239 6.44932 34.2439 6.46539L36.2952 19.2079C36.2952 19.2082 36.2953 19.2086 36.2954 19.209C36.4605 20.2619 36.0739 21.32 35.3134 21.9764C34.796 22.4215 34.1528 22.6591 33.5185 22.6591H32.3083H27.95H24.5415C23.7598 22.6591 23.1223 23.2966 23.1223 24.0783V30.8034C23.1223 32.5669 22.6751 33.6285 21.9622 34.1542Z" fill="#474356" stroke="#474356"/></svg>