<svg xmlns="http://www.w3.org/2000/svg" width="64" height="64" viewBox="0 0 64 64">
  <path d="M31.536 33.0304C40.6588 33.0274 48.0483 25.6291 48.0453 16.5093C48.0424 7.38651 40.6441 -0.00294195 31.5242 8.78677e-07C22.4044 0.00294371 15.012 7.40123 15.015 16.5211C15.0267 25.638 22.4191 33.0245 31.536 33.0304ZM31.536 9.68192C35.3146 9.68192 38.3781 12.7454 38.3781 16.524C38.3781 20.3026 35.3146 23.3632 31.536 23.3632C27.7574 23.3632 24.6939 20.2997 24.6939 16.5211C24.6998 12.7454 27.7604 9.68486 31.536 9.68192ZM38.2133 46.5056C41.6123 45.7346 44.8553 44.3897 47.8069 42.5328C50.0553 41.082 50.7027 38.0862 49.2519 35.8378C47.8246 33.6248 44.8877 32.9568 42.6452 34.337C35.8443 38.5894 27.2101 38.5894 20.4092 34.337C18.152 32.9215 15.1709 33.5983 13.7495 35.8525C12.3223 38.1097 12.9932 41.0996 15.2533 42.5269C15.2563 42.5269 15.2592 42.5298 15.2592 42.5298C18.2079 44.3838 21.4509 45.7287 24.847 46.5027L15.6123 55.7373C13.7731 57.6795 13.8584 60.746 15.8036 62.5852C17.6723 64.3509 20.5916 64.3509 22.4603 62.5852L31.5301 53.5095L40.6058 62.5852C42.4951 64.4716 45.5527 64.4716 47.442 62.5852C49.3284 60.6959 49.3284 57.6383 47.442 55.749L38.2133 46.5056Z"/>
</svg>