<svg width="64" height="64" viewBox="0 0 64 64" fill="none" xmlns="http://www.w3.org/2000/svg">
<path d="M32 64C49.6731 64 64 49.6731 64 32C64 14.3269 49.6731 0 32 0C14.3269 0 0 14.3269 0 32C0 49.6731 14.3269 64 32 64Z" fill="url(#paint0_linear_76_5295)"/>
<path class="telegram-white-bg" d="M32 64C49.6731 64 64 49.6731 64 32C64 14.3269 49.6731 0 32 0C14.3269 0 0 14.3269 0 32C0 49.6731 14.3269 64 32 64Z" fill="#FFF"/>
<path class="telegram-icon" d="M13.318 31.7225L34.8671 22.8439C36.9943 21.9191 44.2082 18.9595 44.2082 18.9595C44.2082 18.9595 47.5376 17.6647 47.2602 20.8092C47.1677 22.104 46.4278 26.6358 45.6879 31.5375L43.3758 46.0578C43.3758 46.0578 43.1908 48.1849 41.6186 48.5549C40.0463 48.9248 37.4567 47.2601 36.9943 46.8902C36.6243 46.6127 30.0579 42.4508 27.6532 40.4162C27.0059 39.8612 26.266 38.7514 27.7457 37.4566C31.0752 34.4046 35.0521 30.6127 37.4567 28.2081C38.5665 27.0982 39.6764 24.5086 35.0521 27.6532L22.0116 36.4393C22.0116 36.4393 20.5319 37.3641 17.7573 36.5318C14.9827 35.6994 11.7457 34.5896 11.7457 34.5896C11.7457 34.5896 9.52608 33.2023 13.318 31.7225Z" fill="white"/>
<defs>
<linearGradient id="paint0_linear_76_5295" x1="42.6691" y1="10.6691" x2="26.6691" y2="48" gradientUnits="userSpaceOnUse">
<stop stop-color="#37AEE2"/>
<stop offset="1" stop-color="#1E96C8"/>
</linearGradient>
</defs>
</svg>
