<svg width="160" height="46" viewBox="0 0 160 46" fill="none" xmlns="http://www.w3.org/2000/svg">
<path d="M51.0522 10.5851C50.457 8.37426 48.7138 6.63108 46.5029 6.03585C42.4639 4.93042 26.3076 4.93042 26.3076 4.93042C26.3076 4.93042 10.1513 4.93042 6.11219 5.99333C3.94384 6.58857 2.15815 8.37426 1.56291 10.5851C0.5 14.6242 0.5 23 0.5 23C0.5 23 0.5 31.4183 1.56291 35.4148C2.15815 37.6257 3.90133 39.3689 6.11219 39.9641C10.1938 41.0695 26.3076 41.0695 26.3076 41.0695C26.3076 41.0695 42.4639 41.0695 46.5029 40.0066C48.7138 39.4114 50.457 37.6682 51.0522 35.4573C52.1151 31.4183 52.1151 23.0425 52.1151 23.0425C52.1151 23.0425 52.1577 14.6242 51.0522 10.5851Z" fill="#FF0000"/>
<path d="M21.1641 15.2623V30.737L34.5981 22.9997L21.1641 15.2623Z" fill="white"/>
<g fill="#282828" class="youtube-text">
<path d="M72.3127 38.22C71.2924 37.5398 70.5697 36.477 70.1445 34.989C69.7194 33.5436 69.5068 31.588 69.5068 29.2073V25.9338C69.5068 23.5106 69.7619 21.555 70.2296 20.0671C70.7397 18.5791 71.5049 17.5163 72.5252 16.8361C73.5881 16.1559 74.9485 15.8158 76.649 15.8158C78.307 15.8158 79.6674 16.1559 80.6877 16.8361C81.708 17.5163 82.4307 18.6216 82.8984 20.0671C83.366 21.5125 83.6211 23.4681 83.6211 25.9338V29.2073C83.6211 31.6305 83.4085 33.5436 82.9409 35.0316C82.4732 36.477 81.7505 37.5823 80.7302 38.2625C79.7099 38.9427 78.307 39.2828 76.564 39.2828C74.7784 39.2403 73.333 38.9002 72.3127 38.22ZM78.0519 34.6489C78.3495 33.9262 78.477 32.6934 78.477 31.0354V23.9782C78.477 22.3628 78.3495 21.1724 78.0519 20.4072C77.7543 19.6419 77.2867 19.3018 76.564 19.3018C75.8838 19.3018 75.3736 19.6845 75.1185 20.4072C74.8209 21.1724 74.6934 22.3628 74.6934 23.9782V31.0354C74.6934 32.6934 74.8209 33.9262 75.1185 34.6489C75.3736 35.3717 75.8837 35.7543 76.6065 35.7543C77.2867 35.7543 77.7543 35.4142 78.0519 34.6489Z" />
<path d="M150.799 29.2499V30.3977C150.799 31.8432 150.842 32.9485 150.927 33.6712C151.012 34.3939 151.182 34.9466 151.479 35.2442C151.734 35.5843 152.16 35.7543 152.755 35.7543C153.52 35.7543 154.03 35.4568 154.328 34.8616C154.625 34.2664 154.753 33.2886 154.795 31.8857L159.174 32.1408C159.217 32.3533 159.217 32.6084 159.217 32.9485C159.217 35.0316 158.664 36.6046 157.516 37.6249C156.368 38.6452 154.753 39.1554 152.67 39.1554C150.161 39.1554 148.418 38.3476 147.398 36.7747C146.378 35.2017 145.868 32.7785 145.868 29.4625V25.5088C145.868 22.1077 146.378 19.642 147.441 18.069C148.503 16.4961 150.289 15.7308 152.797 15.7308C154.54 15.7308 155.901 16.0709 156.836 16.7086C157.771 17.3463 158.409 18.3666 158.792 19.6845C159.174 21.0449 159.344 22.9155 159.344 25.2962V29.1649H150.799V29.2499ZM151.437 19.727C151.182 20.0671 151.012 20.5773 150.927 21.3C150.842 22.0227 150.799 23.1281 150.799 24.616V26.2315H154.54V24.616C154.54 23.1706 154.498 22.0652 154.413 21.3C154.328 20.5348 154.115 20.0246 153.86 19.727C153.605 19.4294 153.18 19.2594 152.67 19.2594C152.075 19.2169 151.692 19.3869 151.437 19.727Z" />
<path d="M59.8975 28.8258L54.1152 7.86511H59.1747L61.2155 17.3463C61.7257 19.6847 62.1084 21.683 62.3635 23.3412H62.491C62.6611 22.1507 63.0437 20.1949 63.6389 17.3888L65.7648 7.86511H70.8243L64.957 28.8258V38.8597H59.94V28.8258H59.8975Z" />
<path d="M100.077 16.241V38.9003H96.0807L95.6556 36.1369H95.528C94.4652 38.2201 92.8072 39.2829 90.6391 39.2829C89.1511 39.2829 88.0458 38.7727 87.3231 37.7949C86.6004 36.8171 86.2603 35.2867 86.2603 33.161V16.241H91.3618V32.8635C91.3618 33.8838 91.4893 34.6065 91.7019 35.0316C91.9144 35.4567 92.2971 35.6693 92.8072 35.6693C93.2323 35.6693 93.6575 35.5418 94.0826 35.2442C94.5077 34.9891 94.8053 34.649 94.9754 34.2239V16.241H100.077Z" />
<path d="M126.223 16.241V38.9003H122.227L121.802 36.1369H121.675C120.612 38.2201 118.954 39.2829 116.786 39.2829C115.298 39.2829 114.192 38.7727 113.47 37.7949C112.747 36.8171 112.407 35.2867 112.407 33.161V16.241H117.508V32.8635C117.508 33.8838 117.636 34.6065 117.848 35.0316C118.061 35.4567 118.444 35.6693 118.954 35.6693C119.379 35.6693 119.804 35.5418 120.229 35.2442C120.654 34.9891 120.952 34.649 121.122 34.2239V16.241H126.223Z" />
<path d="M113.938 11.9892H108.878V38.8597H103.904V11.9892H98.8442V7.86511H113.938V11.9892Z" />
<path d="M143.105 19.8547C142.808 18.4091 142.298 17.3887 141.617 16.751C140.937 16.1132 139.959 15.7731 138.769 15.7731C137.833 15.7731 136.941 16.0282 136.133 16.5809C135.325 17.0911 134.687 17.8139 134.262 18.6642H134.22V6.71704H129.288V38.8596H133.497L134.007 36.7338H134.134C134.517 37.4991 135.112 38.0943 135.92 38.562C136.728 38.9871 137.578 39.2422 138.556 39.2422C140.299 39.2422 141.532 38.4344 142.34 36.8613C143.148 35.2882 143.573 32.7797 143.573 29.4209V25.8495C143.531 23.256 143.403 21.2577 143.105 19.8547ZM138.429 29.0808C138.429 30.7389 138.344 32.0144 138.216 32.9498C138.089 33.8851 137.833 34.5654 137.536 34.9481C137.196 35.3307 136.771 35.5433 136.26 35.5433C135.835 35.5433 135.453 35.4583 135.112 35.2457C134.772 35.0331 134.475 34.7355 134.262 34.3528V21.5128C134.432 20.9176 134.73 20.4074 135.155 19.9822C135.58 19.5996 136.048 19.387 136.515 19.387C137.026 19.387 137.451 19.5996 137.706 19.9822C138.004 20.4074 138.174 21.0876 138.301 22.023C138.429 23.0009 138.471 24.3614 138.471 26.1046V29.0808H138.429Z" />

</g>
</svg>
