<svg width="38" height="40" viewBox="0 0 38 40" fill="none" xmlns="http://www.w3.org/2000/svg">
<path d="M26.5378 18.72L20.0685 11.8686C19.6213 11.395 18.8975 11.395 18.4515 11.8686C18.0043 12.3421 18.0043 13.1088 18.4515 13.5811L23.1642 18.5735H11.058C10.4268 18.5735 9.91444 19.1161 9.91444 19.7846C9.91444 20.4532 10.4268 20.9958 11.058 20.9958H23.1642L18.4514 25.9869C18.0043 26.4605 18.0043 27.2271 18.4514 27.6994C18.8986 28.1731 19.6225 28.1731 20.0684 27.6994L26.5378 20.848C26.8122 20.5574 26.8968 20.1601 26.8351 19.7834C26.8969 19.4092 26.8112 19.0107 26.5378 18.72ZM19.0632 0.40625C8.95722 0.40625 0.765625 9.08169 0.765625 19.7846C0.765625 30.4876 8.95722 39.163 19.0632 39.163C29.1693 39.163 37.3609 30.4863 37.3609 19.7846C37.3609 9.08296 29.1693 0.40625 19.0632 0.40625ZM19.0632 36.7407C10.2209 36.7407 3.05283 29.1493 3.05283 19.7846C3.05283 10.42 10.2209 2.82855 19.0632 2.82855C27.9056 2.82855 35.0737 10.42 35.0737 19.7846C35.0737 29.1493 27.9056 36.7407 19.0632 36.7407Z" fill="#323232"/>
</svg>
