<svg width="38" height="40" viewBox="0 0 38 40" fill="none" xmlns="http://www.w3.org/2000/svg">
<path d="M11.4622 18.72L17.9315 11.8686C18.3787 11.395 19.1025 11.395 19.5485 11.8686C19.9957 12.3421 19.9957 13.1088 19.5485 13.5811L14.8358 18.5735H26.942C27.5732 18.5735 28.0856 19.1161 28.0856 19.7846C28.0856 20.4532 27.5732 20.9958 26.942 20.9958H14.8358L19.5486 25.9869C19.9957 26.4605 19.9957 27.2271 19.5486 27.6994C19.1014 28.1731 18.3775 28.1731 17.9316 27.6994L11.4622 20.848C11.1878 20.5574 11.1032 20.1601 11.1649 19.7834C11.1031 19.4092 11.1888 19.0107 11.4622 18.72ZM18.9368 0.40625C29.0428 0.40625 37.2344 9.08169 37.2344 19.7846C37.2344 30.4876 29.0428 39.163 18.9368 39.163C8.83072 39.163 0.63913 30.4863 0.63913 19.7846C0.63913 9.08296 8.83072 0.40625 18.9368 0.40625ZM18.9368 36.7407C27.7791 36.7407 34.9472 29.1493 34.9472 19.7846C34.9472 10.42 27.7791 2.82855 18.9368 2.82855C10.0944 2.82855 2.92633 10.42 2.92633 19.7846C2.92633 29.1493 10.0944 36.7407 18.9368 36.7407Z" fill="#323232"/>
</svg>
