<svg width="375" height="371" viewBox="0 0 375 371" fill="none" xmlns="http://www.w3.org/2000/svg">
<g opacity="0.16">
<path d="M152.076 175.907C152.211 172.282 154.896 168.971 158.539 167.961C162.802 166.786 166.058 168.375 169.483 173.358C170.59 170.428 172.638 168.441 175.626 167.316C170.842 164.485 169.08 161.191 170.02 157.053C170.859 153.362 173.964 150.581 177.657 150.216C182.088 149.769 185.227 151.888 187.46 156.854C189.256 152.236 192.327 150.018 196.658 150.183C200.384 150.316 203.708 152.898 204.782 156.474C206.024 160.678 204.446 163.906 199.612 167.217C200.737 167.995 202.012 168.673 203.003 169.65C204.01 170.643 204.732 171.934 205.554 173.06C208.676 168.475 211.865 166.869 216.011 167.862C219.62 168.739 222.373 171.702 222.809 175.162C223.095 177.43 222.658 179.549 221.332 181.452C220.023 183.323 218.193 184.481 215.894 185.127C221.08 187.494 223.313 190.408 222.876 194.447C222.725 195.82 222.306 197.261 221.617 198.436C220.946 199.578 219.872 200.621 218.747 201.366C217.623 202.111 216.229 202.442 215.071 202.905C220.359 204.511 222.91 207.573 222.591 212.059C222.306 215.999 219.284 219.21 215.189 219.839C212.788 220.203 210.606 219.574 208.676 218.134C206.712 216.661 205.739 214.608 205.269 212.059C204.446 216.843 201.71 219.491 196.994 220.319C202.549 222.074 205.151 225.302 204.58 229.556C204.027 233.661 200.787 236.707 196.691 236.939C192.73 237.17 189.021 234.472 188.097 230.665C187.627 228.745 187.812 226.874 188.685 225.103C190.044 222.339 192.411 220.899 195.416 220.319C191.387 219.69 188.802 217.472 187.51 213.731C184.942 218.747 182.172 220.567 177.707 220.187C174.266 219.889 171.027 217.34 170.171 213.946C168.895 208.964 170.943 205.405 175.576 203.038C172.588 201.929 170.658 199.909 169.483 197.078C166.763 201.564 163.44 203.369 159.428 202.624C155.685 201.929 152.63 199.015 152.211 195.34C151.606 190.076 154.225 186.799 159.294 185.177C154.242 183.356 151.959 180.376 152.127 175.94L152.076 175.907ZM205.453 179.482C204.429 182.032 202.852 183.836 200.317 185.127C202.768 186.402 204.413 188.173 205.437 190.722C206.813 187.858 208.844 186.004 211.882 185.16C208.894 184.25 206.763 182.445 205.437 179.482H205.453ZM205.185 210.553C206.041 206.216 208.642 203.617 213.376 202.789C209.532 202.276 207.065 200.439 205.487 197.095C204.262 199.926 202.382 201.879 199.427 203.021C202.717 204.61 204.715 206.994 205.201 210.553H205.185ZM187.409 209.245C188.366 206.299 190.128 204.296 192.999 203.054C190.447 202.044 188.668 200.505 187.409 198.221C186.1 200.538 184.338 202.078 181.753 203.021C184.606 204.263 186.469 206.216 187.409 209.245ZM191.505 185.127C190.179 183.819 188.718 182.396 187.409 181.121C186.134 182.363 184.656 183.803 183.28 185.16C184.572 186.402 186.083 187.842 187.409 189.116C188.702 187.858 190.162 186.435 191.505 185.144V185.127ZM187.392 172.133C189.239 169.352 190.095 168.607 193.083 167.233C190.212 165.992 188.332 163.972 187.443 160.81C186.503 163.972 184.656 166.025 181.618 167.266C184.287 168.243 186.15 169.848 187.392 172.133ZM169.399 190.904C170.439 188.239 172.084 186.418 174.619 185.127C172.118 183.836 170.406 181.999 169.415 179.3C168.089 182.412 165.891 184.283 162.382 185.127C165.79 185.988 168.022 187.759 169.382 190.904H169.399Z" fill="#E31E24"/>
<path d="M160.891 202.871C165.725 202.954 169.603 206.331 169.586 211.396C169.569 216.792 165.289 219.838 160.975 219.871C156.258 219.904 152.364 216.064 152.331 211.412C152.314 206.777 156.191 202.788 160.891 202.854V202.871Z" fill="#E31E24"/>
<path d="M213.895 167.449C208.826 167.449 205.418 163.725 205.284 158.958C205.15 154.356 209.178 150.466 213.878 150.449C218.595 150.433 222.522 154.24 222.539 158.891C222.539 163.195 219.4 167.466 213.911 167.449H213.895Z" fill="#E31E24"/>
<path d="M160.968 167.449C156.302 167.466 152.358 163.592 152.341 158.958C152.341 154.323 156.218 150.466 160.918 150.449C165.601 150.449 169.546 154.29 169.562 158.908C169.579 163.493 165.635 167.416 160.952 167.433L160.968 167.449Z" fill="#E31E24"/>
<path d="M231.655 185.648C236.255 185.648 240.048 189.39 240.031 193.925C240.031 198.461 236.238 202.202 231.639 202.185C227.039 202.185 223.246 198.444 223.263 193.909C223.263 189.373 227.056 185.632 231.655 185.648Z" fill="#E31E24"/>
<path d="M178.679 220.373C183.983 220.373 187.021 224.462 187.054 228.65C187.088 233.185 183.278 236.926 178.662 236.926C174.063 236.926 170.269 233.185 170.269 228.65C170.336 224.462 173.358 220.373 178.662 220.373H178.679Z" fill="#E31E24"/>
<path d="M231.689 184.682C227.106 184.715 223.279 180.974 223.279 176.439C223.279 171.92 227.073 168.162 231.672 168.162C236.271 168.162 240.065 171.936 240.031 176.455C239.997 180.941 236.254 184.649 231.706 184.666L231.689 184.682Z" fill="#E31E24"/>
<path d="M178.646 149.935C174.098 149.885 170.355 146.177 170.338 141.691C170.338 137.205 174.047 133.497 178.613 133.448C183.178 133.398 187.022 137.139 187.039 141.675C187.039 146.177 183.195 149.984 178.646 149.935Z" fill="#E31E24"/>
<path d="M143.194 168.192C147.777 168.159 151.604 171.933 151.57 176.452C151.553 180.938 147.81 184.629 143.261 184.662C138.679 184.695 134.852 180.921 134.886 176.402C134.902 171.916 138.645 168.225 143.194 168.192Z" fill="#E31E24"/>
<path d="M196.286 149.952C191.821 150.068 187.876 146.228 187.843 141.725C187.809 137.256 191.519 133.531 196.101 133.449C200.616 133.366 204.427 137.008 204.544 141.527C204.662 145.979 200.902 149.82 196.303 149.952H196.286Z" fill="#E31E24"/>
<path d="M143.211 185.678C147.793 185.678 151.604 189.452 151.57 193.954C151.537 198.457 147.777 202.132 143.228 202.148C138.645 202.148 134.835 198.374 134.869 193.872C134.902 189.369 138.662 185.694 143.211 185.678Z" fill="#E31E24"/>
<path d="M213.964 220.603C218.396 220.637 222.055 224.245 222.055 228.615C222.055 233.035 218.379 236.693 213.897 236.693C209.415 236.693 205.723 233.035 205.739 228.615C205.756 224.196 209.483 220.57 213.947 220.603H213.964Z" fill="#E31E24"/>
<path d="M231.589 203.356C236.071 203.323 239.78 206.964 239.797 211.384C239.797 215.754 236.188 219.396 231.74 219.445C227.275 219.512 223.515 215.903 223.482 211.483C223.431 207.08 227.107 203.389 231.589 203.356Z" fill="#E31E24"/>
<path d="M160.971 220.854C165.402 220.87 169.061 224.479 169.078 228.849C169.095 233.252 165.385 236.927 160.92 236.91C156.489 236.894 152.83 233.285 152.813 228.915C152.796 224.512 156.506 220.837 160.971 220.854Z" fill="#E31E24"/>
<path d="M143.133 203.37C147.581 203.304 151.341 206.929 151.375 211.349C151.408 215.702 147.783 219.344 143.335 219.41C138.887 219.476 135.127 215.851 135.093 211.431C135.06 207.078 138.685 203.436 143.133 203.37Z" fill="#E31E24"/>
<path d="M231.657 166.977C227.225 166.977 223.566 163.401 223.516 159.014C223.466 154.628 227.175 150.936 231.64 150.92C236.071 150.92 239.73 154.495 239.781 158.882C239.831 163.269 236.122 166.96 231.657 166.977Z" fill="#E31E24"/>
<path d="M213.998 149.705C209.55 149.771 205.807 146.113 205.79 141.71C205.773 137.356 209.399 133.715 213.847 133.665C218.295 133.599 222.038 137.257 222.055 141.66C222.071 146.014 218.446 149.655 213.998 149.705Z" fill="#E31E24"/>
<path d="M143.178 166.94C138.73 166.907 135.071 163.265 135.121 158.895C135.154 154.509 138.847 150.9 143.279 150.95C147.727 150.983 151.386 154.625 151.335 158.995C151.302 163.381 147.609 166.99 143.178 166.94Z" fill="#E31E24"/>
<path d="M160.921 149.674C156.473 149.658 152.814 146.033 152.848 141.646C152.865 137.259 156.541 133.651 160.989 133.684C165.437 133.7 169.096 137.326 169.062 141.712C169.045 146.099 165.37 149.707 160.921 149.674Z" fill="#E31E24"/>
<path d="M249.364 168.789C253.644 168.789 257.102 172.166 257.102 176.387C257.102 180.625 253.694 184.035 249.431 184.051C245.134 184.068 241.659 180.707 241.626 176.503C241.592 172.216 245.033 168.789 249.364 168.789Z" fill="#E31E24"/>
<path d="M231.586 221.02C235.883 221.003 239.358 224.363 239.375 228.568C239.408 232.805 236.018 236.249 231.754 236.282C227.44 236.315 223.949 232.988 223.899 228.783C223.848 224.479 227.256 221.036 231.586 221.02Z" fill="#E31E24"/>
<path d="M249.313 186.272C253.61 186.255 257.085 189.615 257.101 193.82C257.135 198.057 253.727 201.5 249.481 201.534C245.167 201.567 241.676 198.239 241.625 194.035C241.575 189.731 244.982 186.288 249.313 186.272Z" fill="#E31E24"/>
<path d="M178.649 238.516C182.946 238.516 186.404 241.859 186.437 246.08C186.454 250.318 183.064 253.745 178.8 253.778C174.453 253.811 170.961 250.434 170.961 246.163C170.961 241.942 174.386 238.532 178.666 238.516H178.649Z" fill="#E31E24"/>
<path d="M196.066 238.516C200.414 238.483 203.905 241.86 203.922 246.114C203.922 250.351 200.514 253.761 196.234 253.778C191.937 253.794 188.463 250.434 188.446 246.23C188.412 241.992 191.803 238.549 196.066 238.516Z" fill="#E31E24"/>
<path d="M231.655 149.309C227.392 149.309 223.917 145.899 223.917 141.711C223.917 137.507 227.375 134.08 231.621 134.08C235.885 134.08 239.359 137.49 239.359 141.678C239.359 145.882 235.902 149.309 231.655 149.309Z" fill="#E31E24"/>
<path d="M143.215 221.266C147.479 221.266 150.953 224.676 150.953 228.88C150.953 233.085 147.495 236.511 143.232 236.511C138.968 236.511 135.494 233.101 135.494 228.897C135.494 224.692 138.952 221.266 143.215 221.266Z" fill="#E31E24"/>
<path d="M143.232 149.293C139.002 149.293 135.511 145.849 135.528 141.661C135.528 137.49 139.052 134.064 143.299 134.08C147.495 134.113 150.936 137.523 150.953 141.661C150.953 145.833 147.479 149.293 143.249 149.293H143.232Z" fill="#E31E24"/>
<path d="M125.465 168.825C129.695 168.825 133.203 172.252 133.203 176.423C133.203 180.561 129.762 183.988 125.583 184.021C121.336 184.071 117.811 180.661 117.778 176.473C117.744 172.285 121.218 168.825 125.465 168.809V168.825Z" fill="#E31E24"/>
<path d="M125.516 186.299C129.713 186.299 133.17 189.709 133.187 193.847C133.221 198.035 129.746 201.495 125.5 201.511C121.27 201.511 117.762 198.085 117.762 193.897C117.762 189.725 121.27 186.282 125.5 186.299H125.516Z" fill="#E31E24"/>
<path d="M178.662 131.797C174.432 131.797 170.957 128.321 170.974 124.133C171.008 119.961 174.532 116.535 178.762 116.585C182.959 116.634 186.383 120.044 186.383 124.182C186.383 128.354 182.891 131.797 178.645 131.78L178.662 131.797Z" fill="#E31E24"/>
<path d="M196.22 131.796C191.99 131.813 188.482 128.386 188.465 124.198C188.465 120.027 191.956 116.584 196.203 116.584C200.399 116.584 203.857 119.994 203.89 124.116C203.924 128.304 200.449 131.763 196.22 131.78V131.796Z" fill="#E31E24"/>
<path d="M249.435 203.951C253.614 203.967 256.921 207.245 256.938 211.367C256.938 215.538 253.614 218.849 249.384 218.849C245.154 218.849 241.814 215.538 241.831 211.383C241.831 207.228 245.205 203.934 249.435 203.967V203.951Z" fill="#E31E24"/>
<path d="M213.958 238.695C218.171 238.712 221.494 242.056 221.461 246.227C221.427 250.332 218.087 253.593 213.907 253.593C209.677 253.593 206.337 250.283 206.354 246.128C206.354 241.973 209.728 238.679 213.958 238.712V238.695Z" fill="#E31E24"/>
<path d="M160.937 238.695C165.117 238.695 168.457 241.923 168.507 246.045C168.558 250.216 165.251 253.56 161.038 253.593C156.808 253.626 153.434 250.349 153.417 246.194C153.401 242.023 156.724 238.712 160.954 238.695H160.937Z" fill="#E31E24"/>
<path d="M125.285 203.966C129.532 203.883 132.973 207.111 133.023 211.233C133.073 215.371 129.834 218.732 125.705 218.814C121.458 218.897 118.017 215.669 117.967 211.548C117.916 207.409 121.156 204.049 125.285 203.966Z" fill="#E31E24"/>
<path d="M249.429 166.356C245.199 166.373 241.842 163.079 241.842 158.924C241.842 154.819 245.149 151.524 249.312 151.508C253.541 151.491 256.898 154.769 256.898 158.94C256.898 163.045 253.592 166.34 249.429 166.356Z" fill="#E31E24"/>
<path d="M213.893 131.628C209.73 131.628 206.39 128.35 206.373 124.245C206.373 120.073 209.697 116.779 213.91 116.779C218.073 116.779 221.413 120.057 221.43 124.162C221.43 128.333 218.106 131.628 213.893 131.628Z" fill="#E31E24"/>
<path d="M125.471 166.34C121.325 166.34 117.985 163.03 117.985 158.925C117.985 154.836 121.325 151.525 125.471 151.525C129.634 151.525 132.991 154.803 133.008 158.875C133.025 163.03 129.667 166.34 125.471 166.34Z" fill="#E31E24"/>
<path d="M160.866 131.592C156.737 131.558 153.414 128.248 153.43 124.143C153.43 120.054 156.804 116.776 160.967 116.793C165.113 116.793 168.453 120.104 168.453 124.192C168.453 128.331 165.079 131.625 160.866 131.608V131.592Z" fill="#E31E24"/>
<path d="M249.365 221.492C253.326 221.492 256.616 224.67 256.633 228.577C256.666 232.533 253.393 235.794 249.381 235.811C245.42 235.811 242.13 232.632 242.113 228.726C242.08 224.77 245.353 221.509 249.365 221.492Z" fill="#E31E24"/>
<path d="M231.587 238.975C235.565 238.958 238.855 242.12 238.906 246.026C238.956 249.999 235.7 253.277 231.705 253.293C227.727 253.31 224.437 250.148 224.386 246.242C224.336 242.269 227.592 238.991 231.587 238.975Z" fill="#E31E24"/>
<path d="M125.474 221.727C129.469 221.727 132.776 225.004 132.742 228.927C132.708 232.834 129.402 236.028 125.457 236.012C121.513 235.995 118.24 232.751 118.256 228.861C118.256 224.971 121.529 221.743 125.474 221.727Z" fill="#E31E24"/>
<path d="M231.654 131.348C227.71 131.348 224.42 128.137 224.403 124.247C224.386 120.357 227.626 117.112 231.587 117.063C235.531 117.03 238.838 120.208 238.905 124.114C238.972 128.038 235.666 131.348 231.671 131.348H231.654Z" fill="#E31E24"/>
<path d="M249.433 148.83C245.438 148.863 242.115 145.586 242.132 141.663C242.148 137.773 245.421 134.545 249.383 134.545C253.327 134.545 256.6 137.773 256.617 141.663C256.617 145.553 253.378 148.797 249.433 148.83Z" fill="#E31E24"/>
<path d="M143.216 238.99C147.161 238.99 150.451 242.185 150.484 246.092C150.518 249.982 147.261 253.243 143.317 253.276C139.322 253.325 135.998 250.064 135.998 246.125C135.998 242.235 139.272 239.007 143.233 238.99H143.216Z" fill="#E31E24"/>
<path d="M125.484 148.797C121.54 148.797 118.25 145.536 118.267 141.646C118.284 137.739 121.607 134.511 125.535 134.561C129.496 134.611 132.769 137.888 132.702 141.761C132.635 145.635 129.395 148.797 125.484 148.797Z" fill="#E31E24"/>
<path d="M143.366 131.317C139.488 131.416 136.198 128.337 136.014 124.414C135.846 120.574 139.035 117.23 143.03 117.081C146.941 116.932 150.315 120.094 150.449 124.034C150.583 127.89 147.361 131.201 143.366 131.317Z" fill="#E31E24"/>
<path d="M196.292 256.643C200.236 256.594 203.426 259.623 203.476 263.48C203.526 267.419 200.421 270.581 196.46 270.597C192.515 270.614 189.36 267.568 189.326 263.711C189.292 259.821 192.381 256.693 196.275 256.643H196.292Z" fill="#E31E24"/>
<path d="M178.549 256.638C182.544 256.588 185.733 259.65 185.75 263.557C185.767 267.447 182.678 270.559 178.751 270.575C174.806 270.609 171.634 267.563 171.6 263.706C171.566 259.816 174.638 256.671 178.532 256.621L178.549 256.638Z" fill="#E31E24"/>
<path d="M267.004 169.451C270.949 169.418 274.121 172.448 274.171 176.304C274.222 180.244 271.1 183.389 267.138 183.406C263.194 183.406 260.055 180.36 260.021 176.503C260.005 172.613 263.093 169.501 267.004 169.468V169.451Z" fill="#E31E24"/>
<path d="M267.055 186.934C270.999 186.934 274.138 189.979 274.172 193.836C274.205 197.726 271.117 200.838 267.189 200.888C263.194 200.921 260.022 197.842 260.022 193.919C260.022 190.046 263.127 186.95 267.055 186.934Z" fill="#E31E24"/>
<path d="M108.064 186.95C111.925 186.967 115.047 190.079 115.047 193.886C115.047 197.759 111.908 200.871 107.98 200.855C104.053 200.855 100.931 197.726 100.931 193.853C100.931 189.996 104.12 186.917 108.047 186.934L108.064 186.95Z" fill="#E31E24"/>
<path d="M196.186 113.673C192.258 113.673 189.119 110.561 189.119 106.688C189.119 102.831 192.292 99.7355 196.219 99.752C200.08 99.7686 203.219 102.864 203.219 106.671C203.219 110.545 200.097 113.657 196.169 113.657L196.186 113.673Z" fill="#E31E24"/>
<path d="M107.797 169.484C111.641 169.484 114.797 172.613 114.797 176.404C114.797 180.244 111.624 183.389 107.73 183.373C103.887 183.373 100.731 180.244 100.731 176.453C100.731 172.613 103.903 169.468 107.797 169.484Z" fill="#E31E24"/>
<path d="M178.736 113.654C174.825 113.67 171.636 110.558 171.636 106.701C171.636 102.911 174.775 99.7822 178.619 99.7657C182.53 99.7491 185.719 102.861 185.719 106.718C185.719 110.509 182.58 113.637 178.736 113.654Z" fill="#E31E24"/>
<path d="M160.955 256.752C164.799 256.752 167.988 259.93 167.921 263.704C167.854 267.478 164.681 270.541 160.905 270.491C157.078 270.441 153.972 267.346 153.989 263.588C154.006 259.831 157.145 256.752 160.955 256.752Z" fill="#E31E24"/>
<path d="M267.036 204.532C270.812 204.482 273.985 207.528 274.069 211.302C274.153 215.06 270.963 218.254 267.12 218.271C263.326 218.271 260.171 215.209 260.137 211.435C260.103 207.694 263.209 204.582 267.036 204.532Z" fill="#E31E24"/>
<path d="M213.892 256.752C217.686 256.752 220.841 259.814 220.875 263.588C220.908 267.329 217.803 270.441 213.976 270.491C210.149 270.557 206.926 267.396 206.943 263.605C206.943 259.847 210.082 256.769 213.892 256.752Z" fill="#E31E24"/>
<path d="M107.949 204.581C111.776 204.548 114.881 207.577 114.898 211.351C114.932 215.125 111.86 218.188 108.016 218.204C104.189 218.237 101.084 215.208 101.067 211.417C101.034 207.643 104.105 204.581 107.932 204.564L107.949 204.581Z" fill="#E31E24"/>
<path d="M267.134 165.761C263.307 165.778 260.201 162.765 260.185 158.974C260.168 155.2 263.223 152.138 267.066 152.121C270.894 152.105 273.999 155.117 274.016 158.908C274.032 162.682 270.977 165.744 267.134 165.761Z" fill="#E31E24"/>
<path d="M107.725 165.73C103.915 165.713 100.894 162.734 100.894 158.96C100.894 155.152 103.948 152.14 107.809 152.156C111.619 152.173 114.641 155.152 114.641 158.927C114.641 162.734 111.586 165.746 107.725 165.73Z" fill="#E31E24"/>
<path d="M214.016 113.487C210.138 113.537 207.067 110.557 207.05 106.75C207.033 102.976 210.021 99.98 213.831 99.9303C217.708 99.8806 220.78 102.86 220.797 106.667C220.814 110.442 217.826 113.438 214.016 113.487Z" fill="#E31E24"/>
<path d="M160.92 113.486C157.11 113.469 154.089 110.49 154.089 106.716C154.089 102.908 157.144 99.8956 161.004 99.9122C164.815 99.9287 167.836 102.908 167.836 106.682C167.836 110.49 164.781 113.502 160.92 113.486Z" fill="#E31E24"/>
<path d="M249.206 239.423C253.016 239.357 256.138 242.336 256.172 246.077C256.205 249.769 253.184 252.831 249.458 252.864C245.698 252.914 242.592 249.951 242.542 246.276C242.492 242.568 245.479 239.506 249.206 239.423Z" fill="#E31E24"/>
<path d="M125.557 239.442C129.283 239.475 132.338 242.537 132.304 246.195C132.271 249.87 129.166 252.883 125.456 252.85C121.73 252.817 118.675 249.754 118.708 246.096C118.742 242.421 121.847 239.409 125.557 239.442Z" fill="#E31E24"/>
<path d="M249.332 130.896C245.606 130.88 242.551 127.834 242.568 124.159C242.585 120.484 245.673 117.472 249.4 117.488C253.126 117.505 256.181 120.551 256.164 124.225C256.147 127.9 253.059 130.913 249.332 130.896Z" fill="#E31E24"/>
<path d="M125.508 130.866C121.832 130.866 118.778 127.903 118.727 124.262C118.677 120.62 121.765 117.524 125.492 117.508C129.168 117.508 132.222 120.471 132.273 124.113C132.323 127.754 129.235 130.85 125.508 130.866Z" fill="#E31E24"/>
<path d="M143.009 257.065C146.786 256.966 149.807 259.813 149.874 263.488C149.925 267.146 147.071 270.093 143.378 270.159C139.652 270.225 136.664 267.428 136.58 263.786C136.497 260.111 139.333 257.148 143.009 257.049V257.065Z" fill="#E31E24"/>
<path d="M231.583 257.067C235.292 257.034 238.246 259.881 238.297 263.539C238.33 267.247 235.41 270.177 231.65 270.177C227.94 270.177 225.019 267.313 225.003 263.655C225.003 259.997 227.89 257.1 231.583 257.067Z" fill="#E31E24"/>
<path d="M267.019 222.093C270.779 222.06 273.75 224.956 273.75 228.648C273.75 232.306 270.829 235.186 267.12 235.186C263.41 235.186 260.473 232.323 260.456 228.681C260.439 225.023 263.326 222.109 267.019 222.076V222.093Z" fill="#E31E24"/>
<path d="M266.92 148.018C263.16 148.035 260.206 145.122 260.223 141.43C260.24 137.788 263.177 134.908 266.87 134.908C270.579 134.908 273.5 137.788 273.5 141.447C273.5 145.105 270.596 148.002 266.903 148.018H266.92Z" fill="#E31E24"/>
<path d="M231.602 113.24C227.909 113.24 225.005 110.327 225.022 106.669C225.022 103.027 227.976 100.163 231.686 100.18C235.379 100.18 238.282 103.093 238.266 106.751C238.266 110.393 235.311 113.257 231.602 113.24Z" fill="#E31E24"/>
<path d="M107.979 222.355C111.672 222.355 114.609 225.219 114.609 228.861C114.609 232.503 111.706 235.399 108.013 235.399C104.32 235.399 101.383 232.536 101.383 228.894C101.383 225.252 104.286 222.355 107.979 222.355Z" fill="#E31E24"/>
<path d="M143.315 113.22C139.623 113.253 136.635 110.373 136.635 106.748C136.635 103.156 139.522 100.242 143.148 100.209C146.84 100.176 149.828 103.056 149.828 106.682C149.828 110.274 146.941 113.187 143.315 113.22Z" fill="#E31E24"/>
<path d="M107.897 148.185C104.187 148.235 101.183 145.371 101.166 141.763C101.132 138.154 104.019 135.224 107.628 135.174C111.338 135.125 114.342 137.989 114.359 141.597C114.393 145.206 111.506 148.136 107.897 148.185Z" fill="#E31E24"/>
<path d="M178.683 274.814C182.208 274.814 185.044 277.579 185.078 281.038C185.095 284.581 182.275 287.395 178.7 287.395C175.175 287.395 172.338 284.63 172.305 281.171C172.288 277.628 175.108 274.814 178.683 274.814Z" fill="#E31E24"/>
<path d="M196.403 274.814C199.928 274.814 202.764 277.579 202.781 281.055C202.798 284.597 199.978 287.411 196.403 287.411C192.878 287.411 190.041 284.647 190.024 281.171C190.008 277.628 192.828 274.814 196.403 274.814Z" fill="#E31E24"/>
<path d="M284.615 170.131C288.14 170.131 290.977 172.912 290.977 176.388C290.977 179.931 288.157 182.728 284.581 182.728C281.057 182.728 278.22 179.947 278.22 176.471C278.22 172.929 281.04 170.131 284.615 170.131Z" fill="#E31E24"/>
<path d="M284.598 187.611C288.123 187.611 290.96 190.376 290.976 193.852C290.993 197.394 288.173 200.208 284.598 200.208C281.073 200.208 278.237 197.444 278.22 193.968C278.203 190.425 281.023 187.611 284.598 187.611Z" fill="#E31E24"/>
<path d="M90.2622 187.627C93.7704 187.627 96.6238 190.408 96.6406 193.867C96.6406 197.327 93.8375 200.158 90.3462 200.174C86.7877 200.207 83.9007 197.393 83.9174 193.884C83.9174 190.424 86.7709 187.627 90.279 187.627H90.2622Z" fill="#E31E24"/>
<path d="M90.1783 170.145C93.7536 170.112 96.6406 172.909 96.6406 176.402C96.6406 179.862 93.8207 182.676 90.3126 182.692C86.8045 182.692 83.9342 179.928 83.9174 176.485C83.8839 173.009 86.7038 170.178 90.1783 170.145Z" fill="#E31E24"/>
<path d="M178.668 95.5072C175.16 95.5072 172.323 92.6932 172.323 89.2336C172.323 85.774 175.143 82.9599 178.651 82.9434C182.16 82.9434 185.03 85.7077 185.047 89.1508C185.08 92.6601 182.227 95.5072 178.668 95.4907V95.5072Z" fill="#E31E24"/>
<path d="M196.186 95.5073C192.628 95.5073 189.774 92.6767 189.808 89.1509C189.842 85.7078 192.695 82.9269 196.22 82.9434C199.711 82.96 202.548 85.774 202.531 89.2336C202.531 92.6933 199.678 95.4907 196.186 95.4907V95.5073Z" fill="#E31E24"/>
<path d="M266.829 130.404C263.388 130.371 260.552 127.557 260.568 124.18C260.602 120.787 263.455 117.989 266.88 118.006C270.321 118.039 273.157 120.853 273.141 124.23C273.107 127.623 270.253 130.421 266.829 130.404Z" fill="#E31E24"/>
<path d="M267.037 239.94C270.462 239.89 273.332 242.671 273.382 246.081C273.433 249.458 270.613 252.289 267.155 252.338C263.731 252.388 260.86 249.607 260.81 246.197C260.76 242.82 263.58 239.99 267.037 239.94Z" fill="#E31E24"/>
<path d="M160.956 274.898C164.397 274.898 167.25 277.712 167.25 281.089C167.25 284.483 164.397 287.297 160.972 287.297C157.531 287.297 154.678 284.483 154.678 281.106C154.678 277.712 157.531 274.898 160.956 274.898Z" fill="#E31E24"/>
<path d="M213.892 274.899C217.316 274.882 220.186 277.679 220.203 281.073C220.22 284.45 217.383 287.28 213.942 287.297C210.518 287.313 207.648 284.516 207.631 281.122C207.614 277.746 210.451 274.915 213.892 274.899Z" fill="#E31E24"/>
<path d="M284.646 165.153C281.222 165.186 278.352 162.388 278.318 158.995C278.285 155.618 281.121 152.787 284.562 152.754C287.986 152.721 290.857 155.519 290.89 158.912C290.924 162.289 288.087 165.119 284.646 165.153Z" fill="#E31E24"/>
<path d="M284.63 205.195C288.071 205.228 290.907 208.043 290.891 211.419C290.857 214.813 288.003 217.61 284.579 217.594C281.138 217.561 278.302 214.747 278.318 211.37C278.352 207.976 281.205 205.179 284.63 205.195Z" fill="#E31E24"/>
<path d="M249.379 257.416C252.819 257.416 255.673 260.23 255.656 263.624C255.656 267.017 252.803 269.831 249.362 269.814C245.921 269.814 243.067 267 243.084 263.607C243.084 260.214 245.938 257.4 249.379 257.416Z" fill="#E31E24"/>
<path d="M125.453 257.416C128.877 257.383 131.747 260.181 131.781 263.574C131.815 266.951 128.978 269.782 125.537 269.815C122.113 269.848 119.242 267.05 119.209 263.657C119.175 260.28 122.012 257.449 125.453 257.416Z" fill="#E31E24"/>
<path d="M107.851 239.989C111.275 239.89 114.095 242.522 114.23 245.932C114.364 249.342 111.645 252.189 108.153 252.288C104.729 252.387 101.909 249.755 101.775 246.345C101.641 242.936 104.36 240.088 107.851 239.989Z" fill="#E31E24"/>
<path d="M90.2391 205.242C93.7136 205.226 96.5167 207.99 96.4999 211.417C96.4831 214.843 93.6465 217.591 90.1887 217.541C86.7477 217.492 84.0285 214.744 84.0453 211.367C84.0621 207.974 86.8149 205.259 90.2558 205.242H90.2391Z" fill="#E31E24"/>
<path d="M107.776 130.307C104.318 130.307 101.582 127.626 101.582 124.216C101.582 120.806 104.302 118.107 107.759 118.107C111.217 118.107 113.953 120.789 113.953 124.199C113.953 127.609 111.234 130.307 107.776 130.307Z" fill="#E31E24"/>
<path d="M125.503 112.825C122.045 112.825 119.309 110.144 119.292 106.734C119.292 103.324 122.011 100.626 125.469 100.609C128.927 100.609 131.663 103.291 131.68 106.701C131.68 110.111 128.96 112.809 125.503 112.825Z" fill="#E31E24"/>
<path d="M249.529 112.856C246.105 112.956 243.269 110.34 243.134 106.93C243 103.52 245.702 100.673 249.194 100.557C252.618 100.458 255.455 103.074 255.589 106.483C255.723 109.893 253.021 112.741 249.529 112.856Z" fill="#E31E24"/>
<path d="M214.129 95.3809C210.671 95.5134 207.784 92.8483 207.683 89.4052C207.583 86.0284 210.235 83.2309 213.692 83.0985C217.15 82.9661 220.037 85.6311 220.138 89.0742C220.239 92.451 217.587 95.2485 214.129 95.3809Z" fill="#E31E24"/>
<path d="M161.005 95.3296C157.53 95.3462 154.794 92.6811 154.761 89.2711C154.744 85.8446 157.447 83.1465 160.904 83.1134C164.379 83.0968 167.115 85.7619 167.148 89.1718C167.165 92.5983 164.463 95.2965 161.005 95.3296Z" fill="#E31E24"/>
<path d="M90.2414 165.052C86.7836 165.052 84.0644 162.338 84.0812 158.911C84.0812 155.501 86.834 152.819 90.3085 152.836C93.7663 152.836 96.4855 155.551 96.4687 158.977C96.4687 162.387 93.7159 165.069 90.2414 165.052Z" fill="#E31E24"/>
<path d="M284.545 222.676C287.852 222.627 290.638 225.358 290.672 228.636C290.689 231.897 287.919 234.644 284.596 234.644C281.272 234.644 278.503 231.897 278.536 228.636C278.57 225.391 281.255 222.726 284.545 222.676Z" fill="#E31E24"/>
<path d="M231.555 275.176C234.896 275.127 237.632 277.775 237.648 281.086C237.665 284.347 235.03 286.995 231.723 287.045C228.383 287.095 225.647 284.446 225.63 281.136C225.613 277.875 228.249 275.226 231.555 275.176Z" fill="#E31E24"/>
<path d="M143.273 275.175C146.63 275.208 149.316 277.906 149.249 281.2C149.182 284.478 146.496 287.06 143.189 287.027C139.866 286.994 137.231 284.379 137.214 281.101C137.214 277.79 139.916 275.125 143.273 275.159V275.175Z" fill="#E31E24"/>
<path d="M90.1574 222.987C93.5145 222.937 96.1833 225.487 96.2337 228.764C96.284 232.075 93.6991 234.707 90.3756 234.756C87.0186 234.806 84.3497 232.257 84.2994 228.979C84.249 225.669 86.8339 223.037 90.1574 222.987Z" fill="#E31E24"/>
<path d="M90.2252 147.574C86.8849 147.558 84.2832 144.942 84.3 141.648C84.3168 138.354 86.9689 135.788 90.3091 135.805C93.6494 135.821 96.2511 138.437 96.2343 141.731C96.2175 145.025 93.5654 147.591 90.2252 147.574Z" fill="#E31E24"/>
<path d="M284.507 147.385C281.184 147.319 278.565 144.687 278.582 141.426C278.599 138.149 281.251 135.55 284.574 135.533C287.931 135.517 290.634 138.198 290.617 141.492C290.6 144.803 287.864 147.452 284.507 147.385Z" fill="#E31E24"/>
<path d="M231.608 95.1151C228.268 95.0985 225.666 92.4831 225.683 89.1891C225.7 85.895 228.352 83.3292 231.692 83.3458C235.032 83.3623 237.634 85.9777 237.617 89.2718C237.6 92.5659 234.948 95.1317 231.608 95.1151Z" fill="#E31E24"/>
<path d="M143.248 95.0803C139.958 95.0803 137.322 92.5311 137.289 89.3032C137.255 85.9926 139.874 83.3772 143.197 83.3772C146.487 83.3772 149.122 85.9264 149.156 89.1543C149.19 92.4649 146.571 95.0803 143.248 95.0803Z" fill="#E31E24"/>
<path d="M267.041 257.917C270.23 257.884 272.815 260.383 272.882 263.528C272.932 266.723 270.331 269.306 267.091 269.306C263.902 269.306 261.334 266.789 261.317 263.628C261.3 260.483 263.835 257.933 267.041 257.9V257.917Z" fill="#E31E24"/>
<path d="M266.92 112.362C263.697 112.379 261.146 109.913 261.129 106.734C261.129 103.556 263.647 101.057 266.87 101.057C270.042 101.057 272.56 103.507 272.593 106.635C272.627 109.83 270.126 112.346 266.903 112.362H266.92Z" fill="#E31E24"/>
<path d="M107.96 257.965C111.183 257.965 113.734 260.431 113.734 263.609C113.734 266.738 111.267 269.238 108.095 269.271C104.855 269.304 102.304 266.854 102.27 263.676C102.237 260.497 104.754 257.965 107.96 257.965Z" fill="#E31E24"/>
<path d="M107.83 112.346C104.607 112.363 102.056 109.88 102.056 106.701C102.056 103.573 104.574 101.09 107.746 101.09C110.919 101.09 113.453 103.556 113.453 106.685C113.453 109.813 110.969 112.329 107.813 112.346H107.83Z" fill="#E31E24"/>
<path d="M284.591 240.528C287.747 240.528 290.281 243.044 290.281 246.156C290.281 249.268 287.713 251.751 284.541 251.735C281.385 251.718 278.884 249.169 278.918 246.04C278.951 242.978 281.486 240.512 284.591 240.512V240.528Z" fill="#E31E24"/>
<path d="M249.407 275.496C252.512 275.513 255.03 277.996 255.047 281.058C255.064 284.187 252.529 286.703 249.373 286.703C246.218 286.703 243.666 284.203 243.666 281.091C243.666 277.979 246.235 275.48 249.39 275.496H249.407Z" fill="#E31E24"/>
<path d="M196.472 293.008C199.56 293.041 202.095 295.574 202.078 298.62C202.078 301.665 199.51 304.182 196.421 304.182C193.283 304.182 190.714 301.599 190.748 298.52C190.798 295.475 193.383 292.992 196.472 293.008Z" fill="#E31E24"/>
<path d="M178.61 293.008C181.699 292.975 184.284 295.458 184.351 298.504C184.401 301.583 181.833 304.182 178.694 304.182C175.606 304.182 173.038 301.682 173.021 298.636C173.004 295.591 175.522 293.041 178.61 293.008Z" fill="#E31E24"/>
<path d="M302.369 170.842C305.458 170.875 307.992 173.408 307.992 176.454C307.992 179.5 305.424 182.016 302.336 182.016C299.197 182.016 296.612 179.45 296.662 176.355C296.696 173.309 299.281 170.809 302.369 170.842Z" fill="#E31E24"/>
<path d="M284.592 129.795C281.503 129.795 278.952 127.279 278.935 124.233C278.935 121.187 281.469 118.655 284.558 118.621C287.646 118.588 290.231 121.088 290.265 124.134C290.315 127.213 287.714 129.795 284.592 129.795Z" fill="#E31E24"/>
<path d="M90.171 240.552C93.2595 240.502 95.8612 242.968 95.9284 246.014C95.9955 249.06 93.5113 251.642 90.4228 251.725C87.3008 251.808 84.6487 249.292 84.5983 246.213C84.5648 243.167 87.0825 240.618 90.171 240.552Z" fill="#E31E24"/>
<path d="M125.474 275.523C128.562 275.523 131.13 278.023 131.164 281.068C131.197 284.114 128.663 286.663 125.574 286.697C122.452 286.746 119.834 284.197 119.834 281.102C119.834 278.056 122.385 275.54 125.474 275.523Z" fill="#E31E24"/>
<path d="M302.336 188.322C305.424 188.322 307.975 190.838 307.992 193.884C307.992 196.98 305.407 199.529 302.268 199.496C299.18 199.463 296.645 196.93 296.662 193.884C296.679 190.838 299.247 188.322 302.336 188.322Z" fill="#E31E24"/>
<path d="M90.234 129.762C87.1455 129.745 84.5774 127.163 84.6277 124.15C84.6781 121.154 87.1959 118.671 90.234 118.654C93.3057 118.638 95.8906 121.187 95.8906 124.216C95.8906 127.245 93.2889 129.795 90.2172 129.778L90.234 129.762Z" fill="#E31E24"/>
<path d="M72.5132 170.857C75.5514 170.857 78.0859 173.307 78.1699 176.32C78.2538 179.333 75.7024 181.932 72.614 181.981C69.5591 182.031 66.9406 179.515 66.907 176.469C66.8734 173.44 69.4416 170.874 72.53 170.857H72.5132Z" fill="#E31E24"/>
<path d="M72.5637 188.355C75.6019 188.355 78.1364 190.838 78.1868 193.851C78.2371 196.864 75.669 199.446 72.5805 199.479C69.5088 199.512 66.9071 196.963 66.9071 193.934C66.9071 190.905 69.4921 188.355 72.5637 188.372V188.355Z" fill="#E31E24"/>
<path d="M125.484 94.7778C122.396 94.7778 119.827 92.2121 119.861 89.1829C119.895 86.1371 122.496 83.621 125.568 83.6706C128.623 83.7203 131.124 86.2198 131.141 89.216C131.141 92.2452 128.556 94.7944 125.501 94.7944L125.484 94.7778Z" fill="#E31E24"/>
<path d="M178.714 77.3018C175.643 77.3349 173.041 74.7857 173.041 71.7565C173.041 68.7604 175.525 66.2608 178.58 66.1946C181.635 66.1284 184.254 68.6445 184.304 71.6903C184.354 74.703 181.786 77.2853 178.698 77.3184L178.714 77.3018Z" fill="#E31E24"/>
<path d="M196.257 77.3015C193.185 77.3511 190.583 74.8185 190.55 71.7727C190.516 68.7435 193.101 66.1777 196.173 66.1777C199.244 66.1777 201.829 68.7269 201.812 71.7562C201.812 74.7523 199.295 77.2518 196.24 77.3015H196.257Z" fill="#E31E24"/>
<path d="M249.393 94.7784C246.322 94.7784 243.737 92.2457 243.737 89.2165C243.737 86.2204 246.238 83.7209 249.293 83.6712C252.348 83.605 254.966 86.1376 255 89.1834C255.033 92.2126 252.465 94.7784 249.393 94.7949V94.7784Z" fill="#E31E24"/>
<path d="M213.947 293.14C217.002 293.14 219.419 295.523 219.453 298.536C219.486 301.598 217.053 304.032 213.947 304.048C210.842 304.048 208.391 301.648 208.391 298.586C208.391 295.523 210.842 293.123 213.947 293.123V293.14Z" fill="#E31E24"/>
<path d="M160.819 293.14C163.924 293.073 166.425 295.441 166.476 298.486C166.526 301.499 164.176 303.949 161.138 304.032C158.033 304.131 155.498 301.797 155.414 298.735C155.33 295.672 157.714 293.189 160.819 293.123V293.14Z" fill="#E31E24"/>
<path d="M302.503 164.39C299.398 164.473 296.88 162.139 296.796 159.077C296.712 156.014 299.112 153.548 302.201 153.482C305.256 153.416 307.74 155.733 307.841 158.729C307.941 161.792 305.575 164.291 302.486 164.374L302.503 164.39Z" fill="#E31E24"/>
<path d="M302.303 205.939C305.409 205.939 307.859 208.34 307.859 211.402C307.859 214.464 305.392 216.865 302.287 216.848C299.232 216.831 296.815 214.464 296.781 211.452C296.748 208.389 299.181 205.956 302.287 205.939H302.303Z" fill="#E31E24"/>
<path d="M72.5097 164.356C69.438 164.356 67.0377 161.972 67.0377 158.943C67.0377 155.914 69.438 153.53 72.4929 153.514C75.5646 153.514 77.9985 155.848 78.0153 158.86C78.0489 161.939 75.615 164.356 72.5097 164.339V164.356Z" fill="#E31E24"/>
<path d="M213.876 77.1773C210.821 77.1773 208.421 74.7771 208.421 71.7479C208.421 68.7187 210.838 66.3516 213.893 66.3516C216.964 66.3516 219.382 68.7021 219.398 71.7313C219.415 74.8102 216.981 77.2105 213.859 77.1939L213.876 77.1773Z" fill="#E31E24"/>
<path d="M72.4582 205.969C75.5299 205.936 77.9805 208.27 78.0309 211.283C78.0645 214.362 75.6642 216.795 72.5589 216.795C69.4872 216.795 67.0702 214.444 67.0534 211.432C67.0366 208.402 69.4201 206.002 72.475 205.969H72.4582Z" fill="#E31E24"/>
<path d="M160.882 77.1417C157.861 77.1086 155.461 74.6918 155.494 71.6791C155.528 68.6996 157.979 66.3325 161.033 66.3656C164.055 66.3987 166.455 68.8154 166.422 71.8281C166.388 74.8077 163.937 77.1748 160.882 77.1417Z" fill="#E31E24"/>
<path d="M231.655 293.34C234.592 293.34 236.925 295.624 236.976 298.505C237.026 301.434 234.676 303.802 231.705 303.835C228.734 303.868 226.351 301.534 226.334 298.604C226.334 295.674 228.701 293.323 231.672 293.34H231.655Z" fill="#E31E24"/>
<path d="M143.226 293.34C146.147 293.34 148.497 295.624 148.53 298.521C148.581 301.451 146.231 303.818 143.26 303.851C140.289 303.884 137.905 301.55 137.889 298.62C137.889 295.69 140.255 293.34 143.226 293.356V293.34Z" fill="#E31E24"/>
<path d="M302.319 223.398C305.24 223.398 307.589 225.666 307.64 228.563C307.69 231.493 305.357 233.86 302.386 233.893C299.415 233.926 297.015 231.609 296.998 228.679C296.981 225.749 299.348 223.398 302.319 223.398Z" fill="#E31E24"/>
<path d="M231.675 76.9524C228.721 76.9524 226.405 74.7012 226.371 71.8044C226.354 68.891 228.637 66.5901 231.574 66.557C234.529 66.5239 236.879 68.7586 236.929 71.6554C236.979 74.6184 234.663 76.9524 231.675 76.969V76.9524Z" fill="#E31E24"/>
<path d="M302.256 146.656C299.319 146.623 297.036 144.322 297.053 141.409C297.069 138.512 299.403 136.244 302.34 136.244C305.277 136.244 307.594 138.528 307.594 141.442C307.594 144.388 305.244 146.689 302.239 146.656H302.256Z" fill="#E31E24"/>
<path d="M72.5666 223.681C75.504 223.681 77.8203 225.982 77.8203 228.878C77.8203 231.775 75.5208 234.076 72.5666 234.076C69.5788 234.076 67.2456 231.775 67.2624 228.812C67.2792 225.915 69.6124 223.648 72.5666 223.664V223.681Z" fill="#E31E24"/>
<path d="M143.358 76.9223C140.404 76.9719 138.02 74.7372 137.97 71.857C137.937 68.9436 140.219 66.6096 143.14 66.5765C146.094 66.5434 148.444 68.8112 148.461 71.6915C148.478 74.5552 146.212 76.8726 143.358 76.9223Z" fill="#E31E24"/>
<path d="M72.5957 146.859C69.6415 146.876 67.3083 144.608 67.2916 141.711C67.2916 138.815 69.5911 136.514 72.5286 136.514C75.466 136.514 77.7823 138.815 77.7655 141.711C77.7655 144.559 75.4492 146.843 72.5789 146.859H72.5957Z" fill="#E31E24"/>
<path d="M267.125 275.957C269.978 275.957 272.311 278.275 272.328 281.089C272.328 283.952 269.978 286.286 267.074 286.27C264.221 286.27 261.888 283.952 261.871 281.138C261.871 278.275 264.221 275.941 267.125 275.957Z" fill="#E31E24"/>
<path d="M107.981 275.957C110.835 275.957 113.185 278.225 113.218 281.039C113.252 283.903 110.919 286.253 108.015 286.27C105.162 286.27 102.812 284.002 102.778 281.188C102.744 278.324 105.078 275.974 107.981 275.957Z" fill="#E31E24"/>
<path d="M284.574 258.455C287.478 258.455 289.845 260.773 289.828 263.636C289.828 266.45 287.478 268.751 284.625 268.768C281.721 268.768 279.354 266.45 279.371 263.587C279.371 260.773 281.721 258.472 284.574 258.455Z" fill="#E31E24"/>
<path d="M90.3075 258.493C93.1442 258.526 95.4942 260.876 95.4606 263.657C95.427 266.455 93.0435 268.772 90.2236 268.739C87.3869 268.706 85.037 266.355 85.0705 263.574C85.1041 260.777 87.4876 258.459 90.3075 258.493Z" fill="#E31E24"/>
<path d="M266.858 94.3483C264.021 94.3318 261.671 91.9812 261.688 89.2003C261.705 86.4028 264.088 84.0853 266.908 84.1019C269.745 84.1184 272.095 86.469 272.078 89.2499C272.061 92.0474 269.678 94.3649 266.858 94.3483Z" fill="#E31E24"/>
<path d="M284.56 111.844C281.723 111.811 279.373 109.461 279.406 106.68C279.44 103.882 281.824 101.565 284.643 101.598C287.48 101.631 289.83 103.982 289.797 106.763C289.763 109.56 287.379 111.878 284.56 111.844Z" fill="#E31E24"/>
<path d="M107.693 94.3192C104.873 94.253 102.573 91.9356 102.607 89.1877C102.64 86.4233 104.99 84.1225 107.793 84.139C110.597 84.139 112.93 86.4565 112.93 89.2208C112.93 92.0183 110.513 94.3854 107.693 94.3192Z" fill="#E31E24"/>
<path d="M90.2345 111.796C87.4313 111.796 85.0982 109.478 85.0982 106.714C85.0982 103.95 87.4145 101.649 90.2177 101.616C93.004 101.582 95.3707 103.867 95.4211 106.648C95.4715 109.429 93.0712 111.812 90.2345 111.796Z" fill="#E31E24"/>
<path d="M302.317 241.208C305.104 241.208 307.37 243.459 307.319 246.207C307.286 248.905 305.02 251.09 302.284 251.057C299.548 251.041 297.332 248.806 297.332 246.108C297.332 243.41 299.582 241.208 302.317 241.191V241.208Z" fill="#E31E24"/>
<path d="M302.368 129.129C299.632 129.129 297.366 126.961 297.332 124.263C297.299 121.564 299.514 119.313 302.234 119.28C304.97 119.23 307.269 121.399 307.319 124.097C307.37 126.845 305.137 129.129 302.351 129.146L302.368 129.129Z" fill="#E31E24"/>
<path d="M125.457 293.673C128.243 293.656 130.509 295.891 130.492 298.639C130.475 301.337 128.226 303.538 125.473 303.522C122.737 303.522 120.505 301.304 120.488 298.606C120.488 295.907 122.704 293.689 125.44 293.656L125.457 293.673Z" fill="#E31E24"/>
<path d="M249.33 293.673C252.066 293.656 254.332 295.825 254.382 298.523C254.416 301.221 252.217 303.472 249.498 303.522C246.712 303.572 244.412 301.353 244.395 298.606C244.395 295.907 246.611 293.689 249.347 293.656L249.33 293.673Z" fill="#E31E24"/>
<path d="M72.6323 129.099C69.9299 129.165 67.6135 126.947 67.5632 124.265C67.5128 121.6 69.7788 119.316 72.498 119.299C75.2004 119.266 77.5 121.517 77.5 124.182C77.5 126.814 75.3011 129.032 72.6323 129.099Z" fill="#E31E24"/>
<path d="M249.359 76.6377C246.639 76.6377 244.373 74.3699 244.407 71.7049C244.44 69.0729 246.656 66.8714 249.325 66.8383C252.027 66.8051 254.327 69.0398 254.344 71.7214C254.344 74.4031 252.078 76.6543 249.359 76.6377Z" fill="#E31E24"/>
<path d="M125.475 76.8745C122.755 76.8745 120.489 74.5902 120.523 71.9251C120.556 69.2435 122.873 67.0254 125.575 67.075C128.261 67.1247 130.46 69.3263 130.477 71.9748C130.477 74.6564 128.194 76.8911 125.491 76.8911L125.475 76.8745Z" fill="#E31E24"/>
<path d="M72.48 241.227C75.1824 241.194 77.482 243.412 77.5155 246.094C77.5323 248.725 75.3502 250.944 72.6646 251.026C69.9622 251.109 67.6458 248.891 67.5787 246.209C67.5283 243.544 69.7608 241.26 72.4967 241.227H72.48Z" fill="#E31E24"/>
<path d="M196.323 310.982C198.992 310.916 201.275 313.084 201.342 315.749C201.409 318.381 199.211 320.632 196.508 320.699C193.839 320.765 191.556 318.596 191.489 315.931C191.422 313.299 193.621 311.048 196.323 310.982Z" fill="#E31E24"/>
<path d="M178.732 310.981C181.435 311.014 183.65 313.265 183.617 315.897C183.583 318.562 181.3 320.747 178.632 320.714C175.929 320.681 173.714 318.43 173.747 315.798C173.781 313.133 176.063 310.948 178.732 310.981Z" fill="#E31E24"/>
<path d="M319.842 171.639C322.578 171.524 324.828 173.576 324.912 176.274C324.995 178.923 322.948 181.091 320.262 181.207C317.526 181.323 315.277 179.27 315.193 176.572C315.109 173.924 317.157 171.755 319.842 171.639Z" fill="#E31E24"/>
<path d="M319.925 189.117C322.611 189.051 324.81 191.07 324.911 193.735C325.011 196.433 322.913 198.635 320.177 198.701C317.492 198.767 315.293 196.748 315.192 194.083C315.091 191.385 317.189 189.183 319.925 189.117Z" fill="#E31E24"/>
<path d="M54.774 189.166C57.4764 189.15 59.6081 191.219 59.6249 193.867C59.6417 196.532 57.5435 198.635 54.8579 198.651C52.1555 198.668 50.0238 196.598 50.007 193.95C49.9902 191.285 52.0883 189.183 54.774 189.166Z" fill="#E31E24"/>
<path d="M54.774 171.668C57.4764 171.652 59.6081 173.721 59.6249 176.369C59.6417 179.034 57.5435 181.136 54.8579 181.153C52.1555 181.17 50.0238 179.1 50.007 176.452C49.9902 173.787 52.0883 171.685 54.774 171.668Z" fill="#E31E24"/>
<path d="M196.217 59.2273C193.515 59.2438 191.383 57.1747 191.366 54.5262C191.35 51.8611 193.448 49.7588 196.133 49.7423C198.836 49.7257 200.967 51.7949 200.984 54.4434C201.001 57.1084 198.903 59.2107 196.217 59.2273Z" fill="#E31E24"/>
<path d="M178.499 59.2272C175.796 59.2272 173.664 57.1746 173.648 54.5261C173.648 51.861 175.729 49.7587 178.415 49.7422C181.117 49.7422 183.249 51.7948 183.266 54.4433C183.266 57.1084 181.184 59.2106 178.499 59.2272Z" fill="#E31E24"/>
<path d="M213.87 311.127C216.505 311.127 218.654 313.18 218.687 315.762C218.721 318.427 216.606 320.546 213.937 320.562C211.302 320.562 209.153 318.51 209.12 315.927C209.086 313.262 211.201 311.144 213.87 311.127Z" fill="#E31E24"/>
<path d="M161.001 311.127C163.636 311.144 165.734 313.246 165.734 315.845C165.734 318.493 163.586 320.579 160.9 320.562C158.265 320.546 156.167 318.444 156.167 315.845C156.167 313.196 158.315 311.11 161.001 311.127Z" fill="#E31E24"/>
<path d="M320.01 206.684C322.695 206.667 324.844 208.769 324.844 211.401C324.844 214 322.746 216.086 320.11 216.119C317.425 216.136 315.276 214.033 315.276 211.401C315.276 208.802 317.374 206.717 320.01 206.684Z" fill="#E31E24"/>
<path d="M213.963 59.178C211.361 59.2111 209.179 57.1088 209.145 54.5265C209.112 51.9608 211.243 49.8089 213.862 49.7758C216.464 49.7427 218.646 51.8449 218.679 54.4272C218.713 56.993 216.581 59.1449 213.963 59.178Z" fill="#E31E24"/>
<path d="M320.079 163.642C317.477 163.642 315.312 161.539 315.295 158.974C315.295 156.408 317.427 154.272 320.029 154.256C322.63 154.256 324.796 156.358 324.812 158.924C324.812 161.49 322.681 163.625 320.079 163.642Z" fill="#E31E24"/>
<path d="M54.8446 206.699C57.4463 206.699 59.5948 208.851 59.578 211.417C59.578 213.983 57.3959 216.102 54.7942 216.085C52.1925 216.085 50.044 213.933 50.0608 211.367C50.0608 208.802 52.2429 206.683 54.8446 206.699Z" fill="#E31E24"/>
<path d="M54.8056 163.608C52.2038 163.608 50.005 161.406 50.0721 158.857C50.1225 156.324 52.3046 154.239 54.8559 154.272C57.424 154.305 59.5557 156.44 59.539 158.956C59.5222 161.473 57.3737 163.591 54.8056 163.591V163.608Z" fill="#E31E24"/>
<path d="M160.921 59.1603C158.37 59.1438 156.221 57.0084 156.221 54.4923C156.221 51.9762 158.37 49.8409 160.921 49.8243C163.473 49.8078 165.638 51.91 165.671 54.4261C165.705 56.9753 163.506 59.1603 160.921 59.1438V59.1603Z" fill="#E31E24"/>
<path d="M90.0546 276.499C92.5892 276.35 94.8048 278.353 94.9391 280.919C95.0733 283.418 93.0256 285.587 90.4239 285.703C87.8725 285.818 85.6904 283.782 85.5897 281.217C85.5058 278.734 87.4865 276.631 90.0546 276.482V276.499Z" fill="#E31E24"/>
<path d="M284.598 276.485C287.166 276.485 289.298 278.588 289.281 281.12C289.264 283.669 287.116 285.739 284.548 285.705C281.963 285.672 279.865 283.537 279.932 281.004C279.999 278.488 282.08 276.469 284.615 276.469L284.598 276.485Z" fill="#E31E24"/>
<path d="M90.268 93.775C87.6831 93.775 85.6521 91.7886 85.6521 89.2394C85.6521 86.6902 87.6663 84.6873 90.2513 84.6873C92.8362 84.6873 94.8672 86.6736 94.8672 89.2228C94.8672 91.772 92.853 93.775 90.268 93.775Z" fill="#E31E24"/>
<path d="M284.578 93.7751C281.993 93.7751 279.979 91.7556 279.996 89.2064C279.996 86.6572 282.044 84.6708 284.628 84.6874C287.213 84.6874 289.228 86.7069 289.211 89.256C289.211 91.8052 287.163 93.7916 284.578 93.7751Z" fill="#E31E24"/>
<path d="M319.906 224.144C322.474 224.094 324.538 225.981 324.622 228.447C324.706 231.03 322.759 233.099 320.208 233.148C317.64 233.198 315.575 231.311 315.491 228.845C315.407 226.262 317.354 224.193 319.906 224.144Z" fill="#E31E24"/>
<path d="M267.09 294.088C269.675 294.088 271.689 296.091 271.656 298.64C271.639 301.14 269.625 303.093 267.09 303.093C264.505 303.093 262.491 301.09 262.525 298.541C262.541 296.041 264.556 294.088 267.09 294.088Z" fill="#E31E24"/>
<path d="M231.586 311.344C234.171 311.327 236.219 313.297 236.219 315.846C236.219 318.346 234.238 320.332 231.704 320.349C229.119 320.365 227.071 318.395 227.071 315.846C227.071 313.347 229.051 311.36 231.586 311.344Z" fill="#E31E24"/>
<path d="M302.283 259.121C304.867 259.121 306.898 261.091 306.898 263.64C306.898 266.14 304.901 268.109 302.366 268.126C299.782 268.126 297.751 266.156 297.751 263.607C297.751 261.107 299.748 259.138 302.283 259.121Z" fill="#E31E24"/>
<path d="M320.028 145.932C317.527 145.932 315.496 143.896 315.513 141.429C315.513 138.963 317.577 136.96 320.078 136.977C322.579 136.977 324.61 139.013 324.594 141.479C324.594 143.946 322.529 145.948 320.028 145.932Z" fill="#E31E24"/>
<path d="M143.234 311.359C145.735 311.359 147.766 313.379 147.766 315.862C147.766 318.328 145.718 320.331 143.2 320.331C140.699 320.331 138.668 318.312 138.668 315.829C138.668 313.362 140.716 311.359 143.234 311.359Z" fill="#E31E24"/>
<path d="M54.786 224.391C57.287 224.391 59.3348 226.377 59.3516 228.86C59.3516 231.326 57.3373 233.346 54.8196 233.362C52.3186 233.362 50.2708 231.376 50.254 228.893C50.254 226.427 52.2682 224.407 54.786 224.391Z" fill="#E31E24"/>
<path d="M302.369 111.204C299.851 111.221 297.803 109.235 297.77 106.768C297.753 104.285 299.767 102.266 302.268 102.233C304.786 102.216 306.834 104.202 306.867 106.669C306.884 109.152 304.87 111.171 302.369 111.204Z" fill="#E31E24"/>
<path d="M266.907 76.2258C264.389 76.2424 262.341 74.256 262.324 71.773C262.307 69.29 264.322 67.2706 266.839 67.254C269.357 67.2375 271.405 69.2238 271.422 71.7068C271.439 74.1898 269.424 76.2093 266.907 76.2258Z" fill="#E31E24"/>
<path d="M107.981 294.117C110.482 294.117 112.53 296.12 112.547 298.587C112.547 301.053 110.516 303.072 108.015 303.089C105.514 303.089 103.466 301.086 103.449 298.62C103.449 296.153 105.48 294.134 107.981 294.117Z" fill="#E31E24"/>
<path d="M72.5796 259.135C75.0806 259.151 77.0948 261.187 77.078 263.654C77.0612 266.12 74.9967 268.107 72.4957 268.09C69.9947 268.074 67.9805 266.038 67.9972 263.571C68.014 261.105 70.0786 259.118 72.5796 259.135Z" fill="#E31E24"/>
<path d="M72.5804 111.166C70.1633 111.199 68.082 109.229 68.0148 106.812C67.9477 104.379 69.9955 102.293 72.4797 102.26C74.8968 102.227 76.9781 104.197 77.0453 106.614C77.1124 109.047 75.0646 111.133 72.5804 111.166Z" fill="#E31E24"/>
<path d="M54.821 146.134C52.3871 146.134 50.3394 144.164 50.289 141.748C50.2386 139.314 52.32 137.229 54.7874 137.229C57.2213 137.229 59.2691 139.198 59.3194 141.615C59.3698 144.048 57.2884 146.134 54.821 146.134Z" fill="#E31E24"/>
<path d="M107.766 76.4251C105.332 76.4251 103.284 74.4222 103.25 72.022C103.217 69.5887 105.298 67.5195 107.766 67.5195C110.199 67.5195 112.247 69.5225 112.281 71.9227C112.314 74.356 110.233 76.4251 107.766 76.4251Z" fill="#E31E24"/>
<path d="M231.649 58.9466C229.215 58.9466 227.167 56.9768 227.117 54.56C227.067 52.1267 229.131 50.041 231.616 50.041C234.049 50.041 236.097 52.0108 236.148 54.4276C236.198 56.8609 234.133 58.9466 231.649 58.9466Z" fill="#E31E24"/>
<path d="M143.243 58.9454C140.809 58.9454 138.761 56.9755 138.711 54.5588C138.66 52.1255 140.725 50.0397 143.209 50.0232C145.643 50.0232 147.691 51.993 147.741 54.4098C147.792 56.8431 145.727 58.9288 143.243 58.9454Z" fill="#E31E24"/>
<path d="M249.316 311.614C251.632 311.581 253.613 313.468 253.663 315.769C253.713 318.086 251.733 320.089 249.366 320.089C246.999 320.089 245.086 318.185 245.069 315.884C245.052 313.6 246.983 311.663 249.299 311.63L249.316 311.614Z" fill="#E31E24"/>
<path d="M54.8505 241.957C57.1333 241.991 59.0132 243.861 59.0468 246.112C59.0636 248.397 57.1165 250.333 54.8001 250.333C52.4838 250.333 50.5367 248.397 50.5535 246.129C50.5702 243.845 52.5509 241.924 54.8505 241.957Z" fill="#E31E24"/>
<path d="M319.948 241.956C322.247 241.873 324.245 243.76 324.295 246.061C324.362 248.329 322.432 250.282 320.099 250.332C317.799 250.365 315.819 248.461 315.802 246.16C315.802 243.926 317.648 242.039 319.948 241.956Z" fill="#E31E24"/>
<path d="M125.386 311.661C127.686 311.578 129.683 313.465 129.733 315.766C129.784 318.034 127.853 319.987 125.537 320.02C123.238 320.054 121.257 318.15 121.24 315.849C121.24 313.614 123.086 311.727 125.386 311.645V311.661Z" fill="#E31E24"/>
<path d="M320.067 128.386C317.75 128.386 315.803 126.466 315.803 124.182C315.803 121.897 317.784 119.977 320.1 120.01C322.383 120.043 324.263 121.914 324.296 124.165C324.33 126.449 322.383 128.386 320.067 128.386Z" fill="#E31E24"/>
<path d="M249.344 58.5933C247.011 58.5933 245.181 56.7725 245.198 54.4716C245.198 52.1707 247.044 50.3664 249.377 50.3829C251.711 50.3829 253.54 52.2038 253.523 54.5047C253.523 56.8056 251.677 58.6099 249.344 58.5933Z" fill="#E31E24"/>
<path d="M125.459 58.5962C123.126 58.5796 121.313 56.7422 121.33 54.4413C121.346 52.1404 123.209 50.3527 125.543 50.3693C127.876 50.3858 129.689 52.2232 129.672 54.5241C129.655 56.825 127.792 58.6127 125.459 58.5962Z" fill="#E31E24"/>
<path d="M54.7723 128.3C52.4392 128.284 50.6264 126.463 50.6432 124.162C50.6599 121.861 52.5063 120.073 54.8395 120.09C57.1726 120.107 58.9854 121.927 58.9686 124.228C58.9518 126.529 57.1055 128.317 54.7723 128.3Z" fill="#E31E24"/>
<path d="M178.646 329.323C180.845 329.29 182.725 331.11 182.742 333.279C182.775 335.447 180.929 337.301 178.73 337.318C176.531 337.351 174.651 335.53 174.634 333.362C174.601 331.193 176.447 329.339 178.646 329.323Z" fill="#E31E24"/>
<path d="M196.44 329.322C198.639 329.339 200.485 331.193 200.469 333.361C200.452 335.53 198.572 337.351 196.373 337.334C194.174 337.318 192.328 335.464 192.345 333.295C192.361 331.127 194.241 329.306 196.44 329.322Z" fill="#E31E24"/>
<path d="M337.79 189.912C339.988 189.912 341.852 191.75 341.852 193.918C341.852 196.086 339.988 197.924 337.79 197.924C335.591 197.924 333.728 196.086 333.728 193.918C333.728 191.75 335.591 189.912 337.79 189.912Z" fill="#E31E24"/>
<path d="M337.756 172.416C339.954 172.383 341.834 174.204 341.851 176.373C341.885 178.541 340.038 180.395 337.839 180.412C335.641 180.445 333.761 178.624 333.744 176.455C333.71 174.287 335.557 172.433 337.756 172.416Z" fill="#E31E24"/>
<path d="M284.628 294.576C286.827 294.593 288.673 296.447 288.656 298.615C288.639 300.784 286.759 302.605 284.561 302.588C282.362 302.571 280.515 300.718 280.532 298.549C280.549 296.381 282.429 294.56 284.628 294.576Z" fill="#E31E24"/>
<path d="M302.353 277.102C304.552 277.102 306.398 278.956 306.398 281.124C306.398 283.293 304.518 285.114 302.32 285.114C300.121 285.114 298.274 283.26 298.274 281.091C298.274 278.923 300.154 277.085 302.353 277.102Z" fill="#E31E24"/>
<path d="M36.9966 189.97C39.1451 189.92 41.0082 191.658 41.0754 193.81C41.1593 195.979 39.3129 197.849 37.0973 197.866C34.932 197.882 33.1024 196.128 33.0688 193.976C33.0353 191.84 34.7977 190.036 36.9966 189.97Z" fill="#E31E24"/>
<path d="M90.2194 294.645C92.3847 294.612 94.2143 296.383 94.2646 298.535C94.315 300.703 92.4518 302.557 90.2362 302.541C88.0541 302.541 86.2581 300.737 86.2581 298.601C86.2581 296.466 88.0541 294.662 90.2194 294.645Z" fill="#E31E24"/>
<path d="M37.0832 172.481C39.2485 172.481 41.0613 174.268 41.0781 176.404C41.0781 178.589 39.215 180.426 37.0161 180.376C34.834 180.327 33.0548 178.522 33.0716 176.387C33.1051 174.235 34.9179 172.464 37.0832 172.481Z" fill="#E31E24"/>
<path d="M284.713 75.6971C282.514 75.7799 280.617 73.959 280.601 71.774C280.601 69.6386 282.38 67.8343 284.562 67.8012C286.727 67.7681 288.557 69.5228 288.624 71.6747C288.674 73.7935 286.912 75.6309 284.73 75.6971H284.713Z" fill="#E31E24"/>
<path d="M90.3704 75.9148C88.1715 75.981 86.2748 74.1767 86.258 71.9752C86.258 69.8398 88.0373 68.0355 90.2193 68.0024C92.3846 67.9693 94.2142 69.7239 94.2646 71.8759C94.3149 74.0112 92.5525 75.8321 90.3536 75.8983L90.3704 75.9148Z" fill="#E31E24"/>
<path d="M196.133 40.9495C193.951 40.9164 192.155 39.1287 192.172 36.9768C192.172 34.8249 193.985 33.0537 196.167 33.0371C198.383 33.0371 200.229 34.8911 200.179 37.0595C200.128 39.2114 198.299 40.9661 196.133 40.933V40.9495Z" fill="#E31E24"/>
<path d="M178.492 40.9468C176.276 40.9799 174.413 39.1259 174.447 36.9574C174.48 34.8055 176.293 33.0343 178.458 33.0509C180.64 33.0509 182.436 34.8386 182.453 36.9906C182.453 39.1259 180.674 40.9302 178.492 40.9468Z" fill="#E31E24"/>
<path d="M302.349 93.1811C300.184 93.1977 298.354 91.4265 298.32 89.2911C298.287 87.1227 300.15 85.2687 302.366 85.2853C304.548 85.3018 306.344 87.1061 306.344 89.2415C306.344 91.3768 304.548 93.1646 302.366 93.1811H302.349Z" fill="#E31E24"/>
<path d="M72.5442 277.147C74.7263 277.147 76.5223 278.934 76.5391 281.07C76.5391 283.205 74.7598 285.009 72.5778 285.042C70.3621 285.076 68.4989 283.238 68.5325 281.053C68.5661 278.901 70.3789 277.13 72.5442 277.147Z" fill="#E31E24"/>
<path d="M72.6172 93.0926C70.3848 93.1257 68.6391 91.4538 68.6055 89.2688C68.5887 87.0672 70.284 85.3623 72.4997 85.3457C74.6818 85.3457 76.3939 86.9679 76.4442 89.1033C76.4946 91.3049 74.816 93.0429 72.6004 93.076L72.6172 93.0926Z" fill="#E31E24"/>
<path d="M337.807 207.525C339.989 207.525 341.685 209.197 341.718 211.333C341.752 213.534 340.057 215.256 337.824 215.272C335.592 215.289 333.863 213.6 333.863 211.415C333.863 209.23 335.575 207.525 337.807 207.525Z" fill="#E31E24"/>
<path d="M160.964 329.459C163.146 329.459 164.841 331.114 164.875 333.266C164.908 335.468 163.213 337.189 160.997 337.206C158.765 337.222 157.036 335.534 157.019 333.349C157.019 331.164 158.731 329.459 160.964 329.459Z" fill="#E31E24"/>
<path d="M213.949 329.459C216.165 329.476 217.86 331.197 217.844 333.399C217.81 335.534 216.115 337.189 213.933 337.206C211.717 337.206 209.988 335.518 209.988 333.316C209.988 331.131 211.734 329.443 213.949 329.459Z" fill="#E31E24"/>
<path d="M213.878 40.8371C211.713 40.8371 210.017 39.1322 210.034 36.9803C210.034 34.8449 211.763 33.173 213.945 33.1896C216.11 33.1896 217.806 34.8946 217.789 37.0465C217.789 39.1818 216.06 40.8537 213.878 40.8371Z" fill="#E31E24"/>
<path d="M37.0422 207.559C39.2242 207.559 40.9363 209.214 40.9531 211.366C40.9531 213.518 39.2746 215.206 37.0925 215.223C34.9104 215.223 33.1984 213.567 33.1816 211.415C33.1816 209.264 34.8601 207.575 37.0422 207.559Z" fill="#E31E24"/>
<path d="M337.803 162.766C335.621 162.766 333.909 161.11 333.893 158.958C333.893 156.807 335.571 155.118 337.753 155.102C339.935 155.102 341.647 156.757 341.664 158.909C341.664 161.061 339.986 162.749 337.803 162.766Z" fill="#E31E24"/>
<path d="M320.061 259.816C322.159 259.816 323.905 261.521 323.922 263.591C323.939 265.693 322.159 267.447 320.011 267.414C317.913 267.381 316.201 265.66 316.217 263.591C316.217 261.521 317.98 259.816 320.061 259.816Z" fill="#E31E24"/>
<path d="M267.066 312.039C269.164 312.023 270.927 313.711 270.96 315.78C270.994 317.882 269.232 319.654 267.083 319.637C264.985 319.637 263.256 317.916 263.256 315.846C263.256 313.777 264.985 312.056 267.066 312.039Z" fill="#E31E24"/>
<path d="M37.0779 162.968C34.9798 162.968 33.2341 161.263 33.2174 159.193C33.2006 157.124 34.9127 155.403 37.0108 155.37C39.1425 155.336 40.9385 157.091 40.9218 159.193C40.9218 161.263 39.1593 162.968 37.0779 162.968Z" fill="#E31E24"/>
<path d="M160.886 40.807C158.788 40.7739 157.076 39.0358 157.092 36.9667C157.109 34.8975 158.855 33.1926 160.953 33.2091C163.051 33.2091 164.78 34.9306 164.797 36.9832C164.797 39.0855 163.018 40.8401 160.869 40.807H160.886Z" fill="#E31E24"/>
<path d="M54.8051 259.867C56.8361 259.867 58.565 261.523 58.6153 263.542C58.6825 265.561 56.9368 267.349 54.8722 267.382C52.8076 267.432 51.0284 265.71 50.9948 263.658C50.9781 261.622 52.7237 259.867 54.8051 259.867Z" fill="#E31E24"/>
<path d="M107.978 312.095C110.042 312.095 111.821 313.833 111.805 315.869C111.805 317.872 110.109 319.56 108.061 319.61C105.997 319.659 104.201 317.938 104.184 315.885C104.151 313.849 105.896 312.095 107.978 312.078V312.095Z" fill="#E31E24"/>
<path d="M266.852 58.2492C264.77 58.2492 263.024 56.478 263.058 54.4419C263.092 52.3893 264.888 50.6678 266.952 50.734C269 50.7837 270.679 52.4887 270.695 54.4916C270.695 56.5276 268.933 58.2657 266.868 58.2657L266.852 58.2492Z" fill="#E31E24"/>
<path d="M320.065 110.471C318 110.471 316.238 108.716 316.254 106.68C316.271 104.677 317.966 102.989 320.014 102.956C322.079 102.922 323.858 104.644 323.875 106.68C323.892 108.716 322.129 110.471 320.065 110.471Z" fill="#E31E24"/>
<path d="M54.9359 110.387C52.8881 110.454 51.1928 108.947 51.0753 106.928C50.9578 104.859 52.502 103.137 54.6002 103.038C56.6983 102.938 58.4272 104.478 58.5111 106.547C58.6118 108.616 57.0172 110.305 54.9191 110.387H54.9359Z" fill="#E31E24"/>
<path d="M337.567 224.975C339.665 224.859 341.394 226.398 341.511 228.468C341.612 230.537 340.034 232.242 337.936 232.324C335.838 232.407 334.126 230.835 334.042 228.766C333.975 226.746 335.502 225.091 337.567 224.975Z" fill="#E31E24"/>
<path d="M107.968 58.1701C105.87 58.2694 104.141 56.7299 104.057 54.6608C103.956 52.5917 105.551 50.9032 107.649 50.8205C109.697 50.7542 111.392 52.2606 111.509 54.2801C111.627 56.3492 110.083 58.0708 107.984 58.1701H107.968Z" fill="#E31E24"/>
<path d="M231.434 329.66C233.532 329.545 235.261 331.084 235.378 333.153C235.479 335.222 233.901 336.927 231.803 337.01C229.705 337.093 227.993 335.52 227.909 333.451C227.842 331.432 229.369 329.776 231.434 329.66Z" fill="#E31E24"/>
<path d="M36.9811 225.251C39.0961 225.201 40.741 226.791 40.7578 228.86C40.7578 230.896 39.18 232.485 37.1322 232.501C35.0677 232.518 33.4395 230.962 33.4227 228.959C33.3891 226.923 34.9502 225.301 36.9979 225.268L36.9811 225.251Z" fill="#E31E24"/>
<path d="M337.784 145.073C335.736 145.073 334.125 143.5 334.125 141.464C334.125 139.428 335.702 137.839 337.75 137.822C339.848 137.806 341.477 139.395 341.477 141.481C341.477 143.5 339.848 145.073 337.801 145.073H337.784Z" fill="#E31E24"/>
<path d="M231.602 40.6231C229.555 40.6065 227.977 39.0174 227.977 36.9814C227.977 34.9619 229.588 33.3894 231.636 33.3728C233.734 33.3728 235.346 34.9785 235.312 37.0642C235.278 39.0836 233.667 40.6231 231.602 40.6065V40.6231Z" fill="#E31E24"/>
<path d="M143.146 329.706C145.211 329.673 146.856 331.212 146.889 333.215C146.94 335.301 145.345 336.923 143.247 336.94C141.182 336.94 139.571 335.384 139.554 333.364C139.538 331.328 141.099 329.723 143.146 329.689V329.706Z" fill="#E31E24"/>
<path d="M143.4 40.5887C141.369 40.6714 139.657 39.1154 139.59 37.1125C139.54 35.1427 141.084 33.5039 143.048 33.4211C145.079 33.3384 146.791 34.8944 146.858 36.8973C146.909 38.8671 145.364 40.5059 143.4 40.5887Z" fill="#E31E24"/>
<path d="M37.1613 145.272C35.1303 145.322 33.4518 143.716 33.435 141.73C33.4182 139.777 34.996 138.154 36.9767 138.105C39.0077 138.055 40.6862 139.661 40.703 141.647C40.7198 143.6 39.142 145.222 37.1613 145.272Z" fill="#E31E24"/>
<path d="M337.753 242.773C339.633 242.773 341.161 244.214 341.194 246.051C341.244 247.938 339.734 249.494 337.82 249.511C335.94 249.511 334.413 248.07 334.379 246.233C334.329 244.346 335.84 242.79 337.753 242.773Z" fill="#E31E24"/>
<path d="M302.291 294.992C304.171 294.976 305.698 296.416 305.749 298.253C305.799 300.14 304.288 301.696 302.375 301.713C300.495 301.729 298.968 300.289 298.917 298.452C298.867 296.565 300.378 295.009 302.291 294.992Z" fill="#E31E24"/>
<path d="M125.483 329.969C127.396 329.969 128.924 331.492 128.89 333.395C128.857 335.233 127.346 336.706 125.483 336.706C123.569 336.706 122.042 335.183 122.075 333.279C122.109 331.442 123.62 329.969 125.483 329.969Z" fill="#E31E24"/>
<path d="M249.366 329.969C251.279 329.969 252.806 331.492 252.773 333.395C252.739 335.233 251.229 336.706 249.366 336.706C247.452 336.706 245.925 335.183 245.958 333.279C245.992 331.442 247.502 329.969 249.366 329.969Z" fill="#E31E24"/>
<path d="M37.062 242.818C38.9084 242.818 40.4862 244.374 40.4526 246.195C40.419 247.966 38.8916 249.473 37.0956 249.489C35.2492 249.489 33.6714 247.933 33.7049 246.112C33.7385 244.341 35.266 242.835 37.062 242.818Z" fill="#E31E24"/>
<path d="M72.5984 295.256C74.4112 295.289 75.9219 296.812 75.9219 298.584C75.9219 300.404 74.3273 301.944 72.4977 301.911C70.6849 301.878 69.1742 300.355 69.1742 298.584C69.1742 296.763 70.7688 295.223 72.5984 295.256Z" fill="#E31E24"/>
<path d="M249.434 40.3365C247.605 40.3697 246.01 38.8302 245.993 37.0094C245.993 35.2382 247.504 33.7153 249.317 33.6822C251.146 33.6491 252.741 35.1885 252.758 37.0094C252.758 38.7805 251.247 40.3034 249.434 40.3365Z" fill="#E31E24"/>
<path d="M337.806 127.524C336.01 127.524 334.466 126.05 334.415 124.263C334.365 122.458 335.926 120.869 337.772 120.869C339.568 120.869 341.113 122.342 341.163 124.13C341.213 125.934 339.652 127.524 337.806 127.524Z" fill="#E31E24"/>
<path d="M302.372 75.064C300.542 75.0971 298.948 73.5411 298.948 71.7203C298.948 69.9491 300.475 68.4262 302.271 68.3931C304.101 68.36 305.695 69.916 305.695 71.7368C305.695 73.508 304.168 75.0309 302.372 75.064Z" fill="#E31E24"/>
<path d="M320.094 277.846C321.924 277.879 323.401 279.369 323.35 281.173C323.3 282.944 321.856 284.351 320.06 284.351C318.231 284.351 316.737 282.878 316.754 281.09C316.754 279.286 318.264 277.829 320.094 277.846Z" fill="#E31E24"/>
<path d="M125.49 40.2527C123.661 40.2527 122.183 38.7629 122.2 36.9586C122.234 35.1543 123.745 33.6977 125.574 33.7473C127.37 33.797 128.797 35.2206 128.797 36.9917C128.797 38.796 127.303 40.2693 125.49 40.2527Z" fill="#E31E24"/>
<path d="M37.1174 127.461C35.2878 127.494 33.7772 126.02 33.7772 124.216C33.7772 122.412 35.271 120.939 37.0838 120.955C38.8799 120.955 40.3234 122.379 40.3737 124.133C40.4241 125.938 38.947 127.428 37.1174 127.461Z" fill="#E31E24"/>
<path d="M72.5634 75.2341C70.7339 75.2506 69.24 73.7939 69.2232 71.9896C69.2232 70.1853 70.7171 68.7121 72.5466 68.7287C74.3762 68.7287 75.8533 70.235 75.8198 72.0393C75.7862 73.8105 74.3427 75.2175 72.5634 75.2506V75.2341Z" fill="#E31E24"/>
<path d="M284.607 312.59C286.403 312.59 287.847 314.014 287.897 315.768C287.948 317.572 286.47 319.062 284.641 319.095C282.811 319.128 281.301 317.655 281.301 315.851C281.301 314.047 282.794 312.573 284.607 312.59Z" fill="#E31E24"/>
<path d="M90.1538 312.59C91.9666 312.524 93.5109 313.964 93.5612 315.768C93.6116 317.573 92.1513 319.062 90.3049 319.095C88.4753 319.129 86.9646 317.672 86.9479 315.868C86.9479 314.113 88.341 312.656 90.137 312.59H90.1538Z" fill="#E31E24"/>
<path d="M320.026 92.4025C318.213 92.4025 316.82 90.9955 316.837 89.2077C316.837 87.42 318.263 86.0461 320.076 86.0626C321.889 86.0626 323.282 87.4697 323.265 89.2574C323.265 91.0452 321.839 92.4191 320.026 92.4025Z" fill="#E31E24"/>
<path d="M54.875 92.3951C53.0454 92.4283 51.6187 91.0709 51.6019 89.2832C51.5683 87.4789 52.9447 86.0718 54.7575 86.0553C56.5871 86.0222 58.0139 87.3795 58.0306 89.1673C58.0642 90.9716 56.6878 92.3786 54.875 92.3951Z" fill="#E31E24"/>
<path d="M284.607 57.6739C282.794 57.6739 281.384 56.2999 281.384 54.5122C281.384 52.7245 282.777 51.334 284.59 51.334C286.403 51.334 287.812 52.7079 287.812 54.4956C287.812 56.2834 286.419 57.6739 284.607 57.6739Z" fill="#E31E24"/>
<path d="M54.8419 277.928C56.6547 277.928 58.0479 279.335 58.0311 281.123C58.0311 282.91 56.6043 284.284 54.7915 284.268C52.9787 284.268 51.5856 282.861 51.6024 281.073C51.6024 279.285 53.0291 277.911 54.8419 277.928Z" fill="#E31E24"/>
<path d="M90.2033 57.6691C88.3905 57.6525 87.0141 56.2455 87.0309 54.4412C87.0477 52.6535 88.4744 51.2961 90.304 51.3126C92.1168 51.3292 93.4932 52.7362 93.4764 54.5405C93.4596 56.3283 92.0329 57.6856 90.2033 57.6691Z" fill="#E31E24"/>
<path d="M178.612 347.815C180.307 347.782 181.667 349.057 181.717 350.712C181.768 352.384 180.492 353.741 178.797 353.807C177.101 353.874 175.708 352.632 175.641 350.96C175.557 349.239 176.866 347.848 178.612 347.815Z" fill="#E31E24"/>
<path d="M355.33 179.422C353.601 179.422 352.225 178.081 352.259 176.376C352.292 174.704 353.635 173.413 355.33 173.43C357.026 173.43 358.335 174.754 358.352 176.426C358.352 178.098 357.042 179.406 355.347 179.422H355.33Z" fill="#E31E24"/>
<path d="M196.372 347.815C198.067 347.798 199.41 349.073 199.46 350.745C199.494 352.466 198.151 353.823 196.405 353.807C194.71 353.807 193.384 352.499 193.384 350.827C193.384 349.155 194.693 347.831 196.372 347.815Z" fill="#E31E24"/>
<path d="M19.5543 190.908C21.2496 190.908 22.5924 192.199 22.6092 193.871C22.626 195.576 21.2664 196.934 19.5208 196.9C17.8254 196.884 16.5162 195.56 16.533 193.888C16.533 192.216 17.859 190.908 19.5543 190.908Z" fill="#E31E24"/>
<path d="M355.239 190.908C356.934 190.892 358.277 192.166 358.328 193.838C358.361 195.56 357.018 196.917 355.273 196.901C353.577 196.901 352.251 195.593 352.251 193.921C352.251 192.249 353.561 190.925 355.239 190.908Z" fill="#E31E24"/>
<path d="M213.845 347.878C215.54 347.844 216.883 349.119 216.883 350.791C216.883 352.413 215.624 353.704 213.979 353.737C212.284 353.771 210.941 352.496 210.941 350.824C210.941 349.202 212.2 347.911 213.845 347.878Z" fill="#E31E24"/>
<path d="M337.753 260.693C339.448 260.693 340.774 261.984 340.758 263.656C340.758 265.279 339.448 266.553 337.803 266.553C336.108 266.553 334.782 265.262 334.799 263.59C334.799 261.968 336.108 260.693 337.753 260.693Z" fill="#E31E24"/>
<path d="M178.492 22.4479C176.797 22.4644 175.471 21.1733 175.471 19.5014C175.471 17.8792 176.763 16.6046 178.408 16.588C180.104 16.5715 181.43 17.8626 181.43 19.5345C181.43 21.1567 180.137 22.4313 178.492 22.4479Z" fill="#E31E24"/>
<path d="M19.5255 179.357C17.8806 179.34 16.6049 178.049 16.6049 176.427C16.6049 174.755 17.9309 173.464 19.6262 173.497C21.2712 173.513 22.5469 174.804 22.5469 176.427C22.5469 178.098 21.2208 179.39 19.5255 179.357Z" fill="#E31E24"/>
<path d="M196.234 22.4508C194.572 22.4673 193.263 21.2424 193.213 19.6202C193.163 17.9317 194.455 16.6075 196.133 16.5744C197.795 16.5578 199.104 17.7828 199.155 19.405C199.205 21.0934 197.913 22.4177 196.234 22.4508Z" fill="#E31E24"/>
<path d="M355.328 161.878C353.633 161.878 352.307 160.587 352.324 158.915C352.324 157.293 353.616 156.019 355.261 156.002C356.956 156.002 358.282 157.293 358.265 158.965C358.265 160.587 356.973 161.862 355.328 161.878Z" fill="#E31E24"/>
<path d="M107.931 330.401C109.626 330.368 110.969 331.659 110.969 333.331C110.969 334.953 109.693 336.244 108.048 336.261C106.353 336.294 105.01 335.003 105.01 333.331C105.01 331.709 106.286 330.418 107.931 330.401Z" fill="#E31E24"/>
<path d="M160.899 347.881C162.561 347.864 163.87 349.106 163.92 350.712C163.971 352.383 162.678 353.724 160.983 353.741C159.321 353.757 158.012 352.516 157.962 350.91C157.911 349.238 159.204 347.898 160.899 347.881Z" fill="#E31E24"/>
<path d="M355.278 208.449C356.973 208.449 358.282 209.757 358.265 211.429C358.249 213.051 356.939 214.309 355.294 214.309C353.599 214.309 352.29 213.002 352.307 211.33C352.324 209.708 353.633 208.449 355.278 208.449Z" fill="#E31E24"/>
<path d="M267.023 330.401C268.719 330.368 270.078 331.643 270.078 333.298C270.078 334.92 268.819 336.228 267.191 336.261C265.496 336.294 264.136 335.019 264.136 333.364C264.136 331.742 265.395 330.434 267.023 330.401Z" fill="#E31E24"/>
<path d="M37.0122 260.727C38.6236 260.694 40 262.035 40 263.624C40 265.163 38.6908 266.488 37.1297 266.521C35.5184 266.554 34.142 265.213 34.142 263.624C34.142 262.085 35.4512 260.76 37.0122 260.727Z" fill="#E31E24"/>
<path d="M19.5948 162.057C17.9835 162.057 16.6239 160.716 16.6407 159.127C16.6574 157.571 17.9835 156.28 19.5613 156.263C21.1727 156.263 22.5323 157.604 22.5155 159.193C22.4987 160.749 21.1726 162.04 19.5948 162.057Z" fill="#E31E24"/>
<path d="M19.6118 208.501C21.1896 208.517 22.4988 209.825 22.5156 211.364C22.5156 212.953 21.156 214.311 19.5446 214.278C17.9668 214.261 16.6576 212.953 16.6408 211.414C16.6408 209.825 18.0004 208.467 19.6118 208.501Z" fill="#E31E24"/>
<path d="M266.867 39.8881C265.289 39.8881 263.963 38.597 263.929 37.0576C263.896 35.4684 265.255 34.1111 266.867 34.1111C268.428 34.1111 269.771 35.4022 269.804 36.9417C269.838 38.5308 268.478 39.8881 266.867 39.8881Z" fill="#E31E24"/>
<path d="M213.962 22.4134C212.401 22.4465 211.041 21.1885 210.974 19.6325C210.907 18.0434 212.233 16.6529 213.861 16.6198C215.422 16.5867 216.782 17.8447 216.849 19.4007C216.916 20.9898 215.59 22.3803 213.962 22.4134Z" fill="#E31E24"/>
<path d="M337.931 109.611C336.336 109.694 334.91 108.403 334.842 106.813C334.792 105.274 336.051 103.917 337.629 103.834C339.223 103.751 340.65 105.042 340.717 106.631C340.768 108.171 339.509 109.528 337.931 109.611Z" fill="#E31E24"/>
<path d="M161.001 22.4134C159.44 22.4465 158.08 21.1885 158.013 19.6325C157.946 18.0434 159.272 16.6529 160.9 16.6198C162.461 16.5867 163.821 17.8447 163.888 19.4007C163.955 20.9898 162.629 22.3803 161.001 22.4134Z" fill="#E31E24"/>
<path d="M107.779 39.8272C106.201 39.8272 104.875 38.503 104.908 36.947C104.942 35.4241 106.234 34.1826 107.762 34.166C109.34 34.166 110.666 35.4903 110.632 37.0463C110.599 38.5692 109.306 39.8107 107.779 39.8272Z" fill="#E31E24"/>
<path d="M37.0822 109.527C35.5548 109.527 34.2623 108.286 34.212 106.763C34.1784 105.207 35.5044 103.883 37.0822 103.883C38.6097 103.883 39.9021 105.124 39.9525 106.647C39.9861 108.203 38.66 109.527 37.0822 109.527Z" fill="#E31E24"/>
<path d="M231.637 348.092C233.214 348.092 234.406 349.284 234.406 350.856C234.406 352.363 233.231 353.538 231.687 353.554C230.092 353.571 228.884 352.412 228.867 350.856C228.867 349.284 230.059 348.108 231.637 348.108V348.092Z" fill="#E31E24"/>
<path d="M231.656 22.1957C230.162 22.1957 228.904 20.9873 228.92 19.4975C228.92 18.074 230.112 16.8656 231.556 16.8159C233.049 16.7663 234.325 17.9747 234.359 19.4479C234.392 20.9211 233.15 22.1626 231.656 22.1792V22.1957Z" fill="#E31E24"/>
<path d="M355.346 144.143C353.853 144.176 352.577 142.967 352.56 141.494C352.543 140.021 353.785 138.779 355.279 138.779C356.723 138.779 357.948 139.955 357.998 141.378C358.049 142.851 356.84 144.109 355.33 144.143H355.346Z" fill="#E31E24"/>
<path d="M143.217 348.125C144.66 348.125 145.886 349.284 145.936 350.724C145.986 352.197 144.778 353.455 143.284 353.488C141.79 353.521 140.514 352.313 140.498 350.84C140.481 349.367 141.723 348.125 143.217 348.125Z" fill="#E31E24"/>
<path d="M355.497 225.965C356.94 225.965 358.183 227.124 358.233 228.547C358.283 230.02 357.075 231.295 355.581 231.328C354.087 231.361 352.811 230.169 352.778 228.696C352.744 227.223 353.986 225.981 355.48 225.965H355.497Z" fill="#E31E24"/>
<path d="M19.5699 144.356C18.076 144.356 16.8339 143.115 16.8507 141.641C16.8507 140.168 18.1263 138.96 19.6202 138.993C21.0637 139.026 22.2723 140.218 22.2891 141.641C22.2891 143.115 21.0638 144.356 19.5699 144.356Z" fill="#E31E24"/>
<path d="M19.6201 226.2C21.0636 226.233 22.2721 227.408 22.2889 228.848C22.3057 230.322 21.0804 231.563 19.5697 231.563C18.0758 231.563 16.8337 230.338 16.8337 228.865C16.8337 227.392 18.1094 226.167 19.6033 226.2H19.6201Z" fill="#E31E24"/>
<path d="M302.399 313.236C303.809 313.286 304.968 314.461 304.984 315.852C304.984 317.275 303.742 318.5 302.316 318.484C300.872 318.484 299.647 317.226 299.68 315.819C299.714 314.395 300.989 313.203 302.416 313.253L302.399 313.236Z" fill="#E31E24"/>
<path d="M319.94 295.754C321.367 295.671 322.659 296.846 322.709 298.287C322.76 299.694 321.568 300.952 320.108 301.001C318.715 301.034 317.489 299.925 317.388 298.518C317.288 297.111 318.463 295.837 319.923 295.754H319.94Z" fill="#E31E24"/>
<path d="M143.264 22.1448C141.82 22.1779 140.578 20.9529 140.562 19.5294C140.562 18.1555 141.703 16.9636 143.113 16.8974C144.54 16.8312 145.815 18.023 145.866 19.4466C145.916 20.8536 144.691 22.1117 143.247 22.1282L143.264 22.1448Z" fill="#E31E24"/>
<path d="M54.7054 296.066C56.1322 296.017 57.2736 297.043 57.3407 298.433C57.4079 299.89 56.3504 301.049 54.8901 301.098C53.4633 301.148 52.322 300.122 52.2548 298.731C52.1877 297.275 53.2451 296.116 54.7054 296.066Z" fill="#E31E24"/>
<path d="M54.9088 74.4889C53.4317 74.5386 52.2902 73.4626 52.2735 72.0059C52.2735 70.5989 53.3142 69.5064 54.7241 69.4567C56.2012 69.4071 57.3426 70.483 57.3594 71.9397C57.3594 73.3467 56.3187 74.4392 54.9088 74.4889Z" fill="#E31E24"/>
<path d="M320.159 74.2575C318.681 74.3072 317.523 73.2312 317.506 71.7911C317.49 70.3841 318.547 69.275 319.957 69.2419C321.434 69.1922 322.592 70.2682 322.609 71.7083C322.626 73.1153 321.568 74.2244 320.159 74.2575Z" fill="#E31E24"/>
<path d="M302.34 56.9941C300.913 56.9941 299.822 55.9347 299.788 54.5443C299.755 53.0876 300.863 51.9785 302.323 51.9785C303.75 51.9785 304.841 53.0379 304.874 54.4284C304.908 55.8851 303.8 56.9941 302.34 56.9941Z" fill="#E31E24"/>
<path d="M72.5338 313.566C73.9606 313.566 75.0684 314.609 75.0852 316.016C75.1188 317.473 74.0109 318.582 72.5506 318.599C71.1239 318.599 70.016 317.556 69.9993 316.149C69.9657 314.692 71.0735 313.566 72.5338 313.566Z" fill="#E31E24"/>
<path d="M72.5506 56.9912C71.1239 56.9912 70.016 55.9483 69.9825 54.5413C69.9489 53.0846 71.0399 51.959 72.517 51.959C73.9438 51.959 75.0516 53.0018 75.0852 54.4089C75.1188 55.8655 74.0277 56.9912 72.5506 56.9912Z" fill="#E31E24"/>
<path d="M337.886 91.6237C336.577 91.6899 335.385 90.5974 335.351 89.2897C335.318 88.0317 336.375 86.9226 337.668 86.8564C338.977 86.7902 340.169 87.8827 340.202 89.1904C340.236 90.4484 339.178 91.5575 337.886 91.6237Z" fill="#E31E24"/>
<path d="M249.396 348.432C250.689 348.448 251.78 349.524 251.797 350.799C251.813 352.107 250.672 353.232 249.346 353.216C248.054 353.199 246.963 352.123 246.946 350.849C246.929 349.541 248.07 348.415 249.396 348.432Z" fill="#E31E24"/>
<path d="M125.488 348.432C126.764 348.432 127.872 349.491 127.906 350.766C127.939 352.073 126.815 353.216 125.488 353.216C124.213 353.216 123.105 352.156 123.071 350.882C123.038 349.574 124.162 348.432 125.488 348.432Z" fill="#E31E24"/>
<path d="M337.668 278.718C338.977 278.651 340.169 279.744 340.202 281.052C340.236 282.31 339.178 283.419 337.886 283.502C336.577 283.568 335.385 282.475 335.351 281.168C335.318 279.91 336.375 278.8 337.668 278.718Z" fill="#E31E24"/>
<path d="M355.445 243.746C356.755 243.696 357.93 244.822 357.93 246.129C357.93 247.387 356.855 248.48 355.58 248.53C354.271 248.579 353.096 247.454 353.096 246.146C353.096 244.888 354.17 243.795 355.445 243.746Z" fill="#E31E24"/>
<path d="M90.2043 330.952C91.5303 330.919 92.6885 332.044 92.6717 333.352C92.6717 334.61 91.5807 335.703 90.305 335.736C88.9789 335.769 87.8208 334.643 87.8376 333.336C87.8376 332.078 88.9286 330.985 90.2043 330.952Z" fill="#E31E24"/>
<path d="M355.361 126.576C354.052 126.626 352.877 125.501 352.877 124.193C352.877 122.935 353.951 121.842 355.227 121.793C356.536 121.743 357.711 122.869 357.711 124.176C357.711 125.434 356.637 126.527 355.361 126.576Z" fill="#E31E24"/>
<path d="M284.613 330.951C285.889 330.951 286.997 332.027 287.031 333.285C287.064 334.593 285.923 335.735 284.597 335.719C283.321 335.719 282.213 334.643 282.18 333.385C282.146 332.077 283.287 330.935 284.613 330.951Z" fill="#E31E24"/>
<path d="M37.1658 91.5033C35.8062 91.5364 34.7823 90.5598 34.7823 89.219C34.7823 87.9278 35.7558 86.9512 37.0651 86.9512C38.3743 86.9512 39.3814 87.8947 39.3982 89.1693C39.415 90.4604 38.475 91.4702 37.1658 91.5033Z" fill="#E31E24"/>
<path d="M249.48 21.8033C248.12 21.8529 247.08 20.8763 247.063 19.5355C247.063 18.2443 248.02 17.2677 249.329 17.2346C250.638 17.218 251.645 18.1616 251.679 19.4362C251.712 20.7273 250.772 21.7371 249.463 21.7867L249.48 21.8033Z" fill="#E31E24"/>
<path d="M125.421 21.8002C124.129 21.7671 123.172 20.7739 123.189 19.4827C123.206 18.1916 124.213 17.248 125.522 17.248C126.831 17.248 127.805 18.2247 127.805 19.5158C127.805 20.8566 126.781 21.8333 125.421 21.8002Z" fill="#E31E24"/>
<path d="M19.5736 126.478C18.2644 126.478 17.274 125.518 17.2573 124.226C17.2573 122.935 18.1973 121.942 19.5065 121.909C20.8157 121.876 21.8396 122.819 21.8732 124.094C21.9235 125.435 20.9164 126.461 19.5736 126.461V126.478Z" fill="#E31E24"/>
<path d="M37.0081 278.817C38.3677 278.784 39.3916 279.777 39.3748 281.118C39.3748 282.409 38.3677 283.369 37.0752 283.369C35.766 283.369 34.7757 282.409 34.7589 281.118C34.7589 279.827 35.6988 278.834 37.0081 278.817Z" fill="#E31E24"/>
<path d="M19.5585 243.857C20.8677 243.857 21.858 244.8 21.8748 246.091C21.8916 247.432 20.8845 248.425 19.5249 248.409C18.2156 248.392 17.2589 247.416 17.2589 246.108C17.2589 244.817 18.2492 243.857 19.5585 243.84V243.857Z" fill="#E31E24"/>
<path d="M284.573 39.275C283.264 39.275 282.29 38.2983 282.29 37.0072C282.29 35.716 283.264 34.7394 284.556 34.7229C285.916 34.7063 286.923 35.6995 286.906 37.0403C286.889 38.3315 285.882 39.275 284.573 39.275Z" fill="#E31E24"/>
<path d="M90.3953 39.2756C89.086 39.3253 88.0454 38.4149 87.9614 37.1403C87.8943 35.7995 88.8511 34.7401 90.1939 34.7235C91.5031 34.6904 92.527 35.6339 92.5606 36.9085C92.6109 38.1997 91.6709 39.226 90.3785 39.2756H90.3953Z" fill="#E31E24"/>
<path d="M355.307 108.674C354.267 108.674 353.343 107.797 353.31 106.771C353.276 105.744 354.166 104.817 355.207 104.768C356.231 104.718 357.204 105.579 357.254 106.622C357.322 107.681 356.382 108.658 355.291 108.674H355.307Z" fill="#E31E24"/>
<path d="M196.391 366.357C197.482 366.357 198.439 367.318 198.389 368.377C198.338 369.403 197.398 370.281 196.375 370.264C195.334 370.247 194.427 369.32 194.427 368.294C194.427 367.268 195.351 366.357 196.391 366.357Z" fill="#E31E24"/>
<path d="M178.608 366.355C179.682 366.306 180.673 367.249 180.656 368.325C180.656 369.352 179.733 370.262 178.692 370.262C177.651 370.262 176.728 369.385 176.695 368.342C176.678 367.315 177.568 366.388 178.608 366.355Z" fill="#E31E24"/>
<path d="M372.985 191.947C374.026 191.931 374.966 192.808 374.999 193.835C375.033 194.894 374.076 195.871 372.985 195.854C371.944 195.854 371.038 194.927 371.038 193.901C371.038 192.874 371.944 191.964 372.985 191.947Z" fill="#E31E24"/>
<path d="M107.951 348.851C108.992 348.817 109.932 349.695 109.982 350.738C110.033 351.797 109.076 352.774 107.985 352.757C106.944 352.757 106.021 351.847 106.021 350.82C106.021 349.794 106.911 348.884 107.951 348.851Z" fill="#E31E24"/>
<path d="M267.105 348.857C268.146 348.857 269.069 349.751 269.086 350.778C269.103 351.854 268.129 352.797 267.055 352.764C266.014 352.731 265.108 351.804 265.124 350.778C265.141 349.751 266.064 348.857 267.105 348.857Z" fill="#E31E24"/>
<path d="M355.494 261.672C356.535 261.672 357.458 262.549 357.491 263.576C357.525 264.635 356.551 265.595 355.477 265.578C354.436 265.562 353.53 264.635 353.53 263.609C353.53 262.582 354.453 261.672 355.494 261.672Z" fill="#E31E24"/>
<path d="M372.933 174.471C373.957 174.421 374.931 175.282 374.981 176.325C375.048 177.384 374.108 178.377 373.017 178.377C371.976 178.377 371.053 177.5 371.02 176.474C370.986 175.447 371.876 174.52 372.916 174.471H372.933Z" fill="#E31E24"/>
<path d="M373.087 160.763C372.013 160.796 371.19 160.035 371.173 158.975C371.156 157.916 371.945 157.121 373.003 157.121C374.027 157.121 374.816 157.85 374.849 158.843C374.9 159.902 374.127 160.73 373.07 160.763H373.087Z" fill="#E31E24"/>
<path d="M319.958 314.032C321.032 313.982 321.872 314.743 321.905 315.786C321.939 316.846 321.167 317.657 320.092 317.673C319.018 317.69 318.212 316.912 318.212 315.869C318.212 314.859 318.951 314.081 319.958 314.048V314.032Z" fill="#E31E24"/>
<path d="M196.217 3.85459C195.143 3.87114 194.337 3.09314 194.337 2.05029C194.337 0.99089 195.126 0.212891 196.201 0.212891C197.225 0.212891 197.997 0.957784 198.03 1.96753C198.064 3.02693 197.292 3.83804 196.217 3.85459Z" fill="#E31E24"/>
<path d="M178.466 3.85561C177.409 3.85561 176.603 3.06106 176.62 2.00165C176.62 0.958802 177.459 0.180802 178.516 0.213909C179.524 0.247015 180.296 1.00846 180.312 2.00165C180.312 3.06106 179.524 3.85561 178.466 3.85561Z" fill="#E31E24"/>
<path d="M213.995 366.486C215.002 366.519 215.758 367.297 215.758 368.291C215.758 369.35 214.952 370.128 213.895 370.112C212.837 370.112 212.048 369.3 212.065 368.241C212.082 367.198 212.921 366.437 213.995 366.47V366.486Z" fill="#E31E24"/>
<path d="M373.07 209.581C374.128 209.614 374.9 210.425 374.866 211.485C374.833 212.478 374.044 213.223 373.02 213.223C371.962 213.223 371.157 212.428 371.173 211.369C371.173 210.326 372.013 209.548 373.07 209.581Z" fill="#E31E24"/>
<path d="M19.6762 108.54C18.6019 108.59 17.7627 107.829 17.7291 106.786C17.6955 105.726 18.4677 104.915 19.5419 104.899C20.6162 104.882 21.4219 105.66 21.4219 106.703C21.4219 107.713 20.6833 108.491 19.6762 108.54Z" fill="#E31E24"/>
<path d="M1.86546 178.241C0.791211 178.241 0.00230527 177.463 0.00230527 176.421C0.00230527 175.378 0.824797 174.583 1.88226 174.616C2.90616 174.633 3.66147 175.394 3.69504 176.387C3.71183 177.447 2.93972 178.241 1.86546 178.258V178.241Z" fill="#E31E24"/>
<path d="M160.983 366.483C162.007 366.483 162.779 367.244 162.796 368.254C162.829 369.313 162.041 370.124 160.983 370.124C159.909 370.124 159.103 369.346 159.103 368.304C159.103 367.261 159.909 366.466 160.983 366.483Z" fill="#E31E24"/>
<path d="M19.4557 261.805C20.5299 261.739 21.3692 262.501 21.4195 263.527C21.4699 264.586 20.6978 265.414 19.6403 265.431C18.566 265.464 17.7436 264.686 17.7268 263.643C17.7268 262.633 18.4485 261.838 19.4557 261.789V261.805Z" fill="#E31E24"/>
<path d="M107.828 21.3352C106.754 21.3683 105.931 20.5903 105.914 19.5474C105.914 18.5377 106.636 17.7431 107.643 17.6935C108.717 17.6272 109.557 18.3887 109.607 19.415C109.657 20.4744 108.885 21.3021 107.828 21.3186V21.3352Z" fill="#E31E24"/>
<path d="M266.871 21.3353C265.814 21.3353 265.008 20.5242 265.042 19.4814C265.058 18.4716 265.831 17.7267 266.838 17.6936C267.912 17.6771 268.718 18.4385 268.734 19.4979C268.734 20.5573 267.945 21.3353 266.888 21.3353H266.871Z" fill="#E31E24"/>
<path d="M1.93289 192.079C2.94 192.112 3.69531 192.89 3.69531 193.9C3.69531 194.943 2.88963 195.737 1.81538 195.721C0.757911 195.721 -0.0309968 194.893 0.00257373 193.85C0.036144 192.808 0.858634 192.046 1.93289 192.079Z" fill="#E31E24"/>
<path d="M213.963 3.78866C213.056 3.82177 212.2 3.04377 212.15 2.1499C212.083 1.22292 212.922 0.329048 213.879 0.295941C214.785 0.262835 215.641 1.04083 215.692 1.93471C215.759 2.86168 214.919 3.75556 213.963 3.78866Z" fill="#E31E24"/>
<path d="M54.8057 314.328C55.7121 314.328 56.5514 315.106 56.585 316.017C56.6185 316.944 55.7793 317.821 54.8225 317.837C53.9161 317.837 53.0769 317.059 53.0433 316.149C53.0097 315.222 53.849 314.345 54.8057 314.328Z" fill="#E31E24"/>
<path d="M1.89728 160.916C0.940521 160.949 0.0676973 160.104 0.0676973 159.177C0.0676973 158.284 0.873368 157.456 1.77977 157.423C2.73653 157.39 3.60938 158.234 3.60938 159.177C3.60938 160.071 2.80368 160.899 1.89728 160.932V160.916Z" fill="#E31E24"/>
<path d="M320.065 56.2291C319.158 56.2291 318.319 55.4345 318.285 54.5406C318.252 53.5971 319.108 52.7363 320.048 52.7363C320.954 52.7363 321.794 53.5309 321.827 54.4248C321.861 55.3683 321.005 56.2291 320.065 56.2291Z" fill="#E31E24"/>
<path d="M54.8672 56.2292C53.9272 56.2788 53.0376 55.4346 53.0208 54.4911C53.0208 53.5972 53.8097 52.7696 54.7161 52.7365C55.6561 52.6868 56.5457 53.531 56.5625 54.4745C56.5625 55.3684 55.7736 56.1961 54.8672 56.2292Z" fill="#E31E24"/>
<path d="M161.034 3.78804C160.128 3.8377 159.272 3.0928 159.188 2.18238C159.104 1.2554 159.91 0.344976 160.866 0.295316C161.773 0.245657 162.629 0.99055 162.713 1.90097C162.797 2.82795 161.991 3.73838 161.034 3.78804Z" fill="#E31E24"/>
<path d="M302.33 331.586C303.237 331.586 304.059 332.38 304.093 333.291C304.126 334.234 303.27 335.095 302.314 335.095C301.407 335.095 300.585 334.301 300.551 333.39C300.518 332.447 301.374 331.586 302.33 331.586Z" fill="#E31E24"/>
<path d="M337.834 296.616C338.74 296.65 339.562 297.461 339.562 298.355C339.562 299.298 338.69 300.142 337.75 300.109C336.843 300.076 336.021 299.265 336.021 298.371C336.021 297.428 336.894 296.583 337.834 296.616Z" fill="#E31E24"/>
<path d="M1.81119 209.646C2.71759 209.646 3.55686 210.408 3.60722 211.318C3.65758 212.245 2.8183 213.139 1.86154 213.139C0.955143 213.139 0.115897 212.378 0.0655415 211.467C0.0151858 210.54 0.854434 209.646 1.81119 209.646Z" fill="#E31E24"/>
<path d="M143.13 366.704C144.07 366.654 144.809 367.317 144.843 368.244C144.876 369.17 144.188 369.882 143.248 369.899C142.342 369.915 141.653 369.286 141.586 368.409C141.519 367.482 142.191 366.737 143.114 366.688L143.13 366.704Z" fill="#E31E24"/>
<path d="M231.67 366.703C232.61 366.703 233.298 367.415 233.264 368.359C233.248 369.286 232.509 369.948 231.569 369.915C230.68 369.882 230.025 369.203 230.025 368.326C230.025 367.399 230.73 366.703 231.67 366.72V366.703Z" fill="#E31E24"/>
<path d="M72.5437 331.729C73.4501 331.729 74.1215 332.374 74.155 333.251C74.1886 334.178 73.5172 334.907 72.5772 334.94C71.6373 334.973 70.9155 334.294 70.8987 333.367C70.8987 332.44 71.5869 331.745 72.5269 331.745L72.5437 331.729Z" fill="#E31E24"/>
<path d="M372.935 227.061C373.875 227.012 374.614 227.674 374.647 228.601C374.681 229.528 373.993 230.239 373.053 230.256C372.113 230.273 371.391 229.594 371.391 228.667C371.391 227.773 372.029 227.111 372.918 227.061H372.935Z" fill="#E31E24"/>
<path d="M37.1484 73.5787C36.2085 73.6119 35.4867 72.9332 35.4531 72.0062C35.4363 71.0792 36.1245 70.3674 37.0645 70.3674C37.9709 70.3674 38.6591 70.9965 38.6927 71.8738C38.743 72.8007 38.0716 73.5291 37.1316 73.5622L37.1484 73.5787Z" fill="#E31E24"/>
<path d="M37.3261 297C38.2325 297.017 38.8871 297.662 38.9207 298.556C38.9543 299.483 38.2661 300.195 37.3261 300.211C36.3861 300.211 35.6812 299.533 35.6812 298.606C35.6812 297.679 36.3861 297 37.3429 297.017L37.3261 297Z" fill="#E31E24"/>
<path d="M337.785 73.3492C336.845 73.3492 336.157 72.6374 336.173 71.7104C336.19 70.7834 336.912 70.1048 337.869 70.1379C338.758 70.171 339.413 70.8331 339.43 71.7104C339.43 72.6374 338.741 73.3326 337.802 73.3326L337.785 73.3492Z" fill="#E31E24"/>
<path d="M72.6522 38.6041C71.7123 38.6538 70.9569 38.0082 70.9234 37.0812C70.8898 36.1543 71.5612 35.4259 72.5012 35.4094C73.4411 35.3763 74.1629 36.0549 74.1797 36.9819C74.1797 37.8758 73.5586 38.5545 72.669 38.6041H72.6522Z" fill="#E31E24"/>
<path d="M302.383 38.603C301.443 38.6361 300.721 37.9574 300.705 37.0304C300.705 36.1034 301.393 35.4082 302.333 35.4082C303.239 35.4082 303.911 36.0538 303.944 36.9311C303.978 37.8581 303.306 38.5864 302.366 38.6195L302.383 38.603Z" fill="#E31E24"/>
<path d="M1.86432 227.371C2.67001 227.371 3.375 228.083 3.375 228.877C3.375 229.705 2.60287 230.45 1.76361 230.4C0.95792 230.351 0.269735 229.622 0.303306 228.844C0.336876 228.05 1.05864 227.371 1.84754 227.371H1.86432Z" fill="#E31E24"/>
<path d="M373.019 142.965C372.213 142.965 371.492 142.286 371.475 141.492C371.458 140.714 372.146 139.985 372.952 139.952C373.791 139.919 374.563 140.647 374.547 141.492C374.547 142.286 373.825 142.981 373.019 142.981V142.965Z" fill="#E31E24"/>
<path d="M1.84511 143.205C1.03942 143.205 0.334443 142.527 0.300872 141.732C0.284087 140.937 0.972263 140.226 1.77795 140.193C2.56686 140.159 3.32221 140.822 3.37257 141.616C3.42292 142.444 2.68437 143.222 1.84511 143.222V143.205Z" fill="#E31E24"/>
<path d="M143.164 3.53705C142.358 3.50394 141.67 2.79215 141.687 1.9976C141.687 1.20305 142.409 0.507812 143.214 0.507812C144.02 0.507812 144.725 1.20305 144.742 1.9976C144.759 2.82526 143.987 3.57015 143.147 3.53705H143.164Z" fill="#E31E24"/>
<path d="M231.669 3.53731C230.863 3.53731 230.142 2.87518 230.108 2.08063C230.074 1.25297 230.83 0.491524 231.669 0.508078C232.475 0.524631 233.18 1.23642 233.18 2.01442C233.18 2.80897 232.475 3.5042 231.669 3.52076V3.53731Z" fill="#E31E24"/>
<path d="M355.446 279.765C356.252 279.698 356.923 280.327 356.889 281.122C356.856 281.966 356.352 282.38 355.681 282.463C354.774 282.463 354.153 281.9 354.153 281.155C354.153 280.327 354.607 279.831 355.446 279.765Z" fill="#E31E24"/>
<path d="M19.5251 279.764C20.3308 279.715 20.9855 280.344 20.9519 281.138C20.9015 281.983 20.398 282.396 19.5755 282.479C18.753 282.396 18.2327 281.966 18.2159 281.138C18.2159 280.311 18.6859 279.831 19.5251 279.764Z" fill="#E31E24"/>
<path d="M284.711 20.887C283.855 20.8539 283.301 20.4732 283.234 19.629C283.167 18.8013 283.603 18.2882 284.442 18.1723C285.248 18.0565 285.953 18.6689 285.953 19.4469C285.953 20.2911 285.483 20.7381 284.694 20.8705L284.711 20.887Z" fill="#E31E24"/>
<path d="M355.396 90.578C354.59 90.6608 353.919 90.0317 353.935 89.2372C353.935 88.393 354.439 87.9626 355.245 87.8633C356.084 87.9295 356.621 88.3268 356.655 89.171C356.688 89.9986 356.235 90.4952 355.396 90.5946V90.578Z" fill="#E31E24"/>
<path d="M284.845 349.449C285.667 349.549 286.188 349.962 286.188 350.807C286.188 351.634 285.718 352.114 284.861 352.164C284.056 352.214 283.401 351.568 283.452 350.773C283.502 349.929 284.005 349.515 284.828 349.449H284.845Z" fill="#E31E24"/>
<path d="M90.1897 349.469C91.029 349.469 91.5325 349.899 91.6332 350.727C91.7171 351.521 91.0793 352.183 90.2736 352.167C89.4176 352.167 88.9811 351.67 88.8972 350.992C88.8637 350.098 89.4344 349.469 90.1897 349.469Z" fill="#E31E24"/>
<path d="M249.396 367.117C250.151 367.117 250.688 367.614 250.537 368.326C250.436 368.822 249.933 369.236 249.597 369.7C249.412 369.7 249.245 369.7 249.06 369.7C248.758 369.236 248.254 368.789 248.187 368.292C248.086 367.564 248.623 367.117 249.379 367.134L249.396 367.117Z" fill="#E31E24"/>
<path d="M126.694 368.274C126.694 369.019 126.258 369.565 125.519 369.45C125.016 369.383 124.562 368.887 124.092 368.589C124.092 368.407 124.092 368.241 124.092 368.059C124.546 367.728 124.982 367.231 125.486 367.132C126.207 367 126.694 367.513 126.711 368.258L126.694 368.274Z" fill="#E31E24"/>
<path d="M1.85514 125.357C1.35158 125.274 0.915175 124.777 0.445189 124.446C0.445189 124.264 0.445189 124.099 0.445189 123.916C0.915175 123.602 1.35158 123.105 1.85514 123.039C2.59369 122.923 3.04688 123.453 3.04688 124.198C3.04688 124.943 2.57689 125.472 1.83834 125.34L1.85514 125.357Z" fill="#E31E24"/>
<path d="M373.034 125.353C372.53 125.27 372.094 124.774 371.624 124.476C371.624 124.294 371.624 124.128 371.624 123.946C372.094 123.632 372.513 123.135 373.034 123.036C373.772 122.903 374.242 123.433 374.242 124.178C374.242 124.923 373.789 125.452 373.05 125.337L373.034 125.353Z" fill="#E31E24"/>
<path d="M19.6726 90.591C19.488 90.591 19.3202 90.591 19.1355 90.6075C18.7998 90.1606 18.2627 89.7468 18.162 89.2502C18.0109 88.5384 18.5145 88.0418 19.2866 88.0252C20.0419 87.9921 20.6126 88.4225 20.5119 89.1508C20.4448 89.6474 19.958 90.1109 19.6726 90.5744V90.591Z" fill="#E31E24"/>
<path d="M374.227 246.13C374.227 246.875 373.773 247.421 373.052 247.305C372.548 247.222 372.095 246.742 371.625 246.428C371.625 246.246 371.625 246.08 371.625 245.898C372.095 245.584 372.514 245.07 373.018 244.988C373.74 244.855 374.227 245.368 374.227 246.13Z" fill="#E31E24"/>
<path d="M1.56546 244.754C1.75009 244.754 1.91793 244.754 2.10257 244.754C2.42149 245.217 2.94183 245.631 3.02576 246.128C3.16004 246.84 2.6397 247.32 1.86758 247.32C1.11224 247.32 0.558346 246.873 0.675842 246.161C0.759768 245.664 1.24654 245.217 1.56546 244.754Z" fill="#E31E24"/>
<path d="M90.2895 20.7083C89.5341 20.7083 88.9802 20.2614 89.0977 19.5496C89.1816 19.053 89.6684 18.6061 89.9873 18.1426C90.1719 18.1426 90.3398 18.1426 90.5244 18.1426C90.8434 18.6061 91.3637 19.0199 91.4476 19.5165C91.5819 20.2283 91.0616 20.7083 90.2895 20.7083Z" fill="#E31E24"/>
<path d="M125.52 3.23083C124.698 3.23083 124.161 2.73424 124.328 1.97279C124.429 1.49275 125 1.11202 125.352 0.681641C125.52 0.681641 125.688 0.681641 125.856 0.681641C126.141 1.12858 126.594 1.54241 126.678 2.02245C126.796 2.75079 126.292 3.21428 125.52 3.23083Z" fill="#E31E24"/>
<path d="M249.577 3.42533C249.392 3.42533 249.224 3.42533 249.04 3.42533C248.738 2.96185 248.251 2.51491 248.184 2.00176C248.083 1.27342 248.637 0.843038 249.392 0.859592C250.147 0.876145 250.668 1.37274 250.534 2.08453C250.433 2.58112 249.913 2.99495 249.577 3.44189V3.42533Z" fill="#E31E24"/>
</g>
</svg>
