<svg width="234" height="174" viewBox="0 0 234 174" fill="none" xmlns="http://www.w3.org/2000/svg">
<path d="M120.665 128.491C128.088 144.313 151.185 152.026 166.955 151.02C157.303 150.819 146.398 137.673 145.224 127.546C157.051 130.613 171.173 128.339 180.861 121.534C186.284 117.73 190.999 112.261 192.107 105.657C199.345 105.438 206.517 103.292 212.718 99.4932C220.189 94.9143 226.576 86.8478 225.72 78.0131C224.881 69.3369 217.625 62.9716 210.909 57.5634C214.773 55.5819 217.883 51.4968 219.231 47.3142C219.794 45.5583 219.776 43.6499 219.422 41.839C218.194 35.498 211.418 28.7851 202.712 28.5961C203.803 23.0904 201.658 17.2616 197.967 13.0851C194.276 8.90858 189.201 6.21976 183.959 4.4577C166.152 -1.54795 145.314 2.92733 131.413 15.7495C130.191 10.6097 123.972 6.39048 118.819 5.68931C113.667 4.98814 108.226 7.78671 105.722 12.4266C93.5532 4.88449 76.2498 7.69526 64.2788 14.463C59.5215 17.1519 55.2376 20.865 52.4456 25.6207C49.6535 30.3704 48.4672 36.2175 49.8333 41.5768C40.912 36.2968 28.6654 39.4307 21.0262 46.4911C19.6122 47.7959 18.3181 49.2531 17.3475 50.9176C14.0701 56.5452 14.3158 66.2884 19.9118 70.032C14.4296 77.7144 20.493 86.6161 26.6523 91.5304C34.8606 98.0787 45.825 99.1152 55.8068 96.9934C54.7403 97.219 54.0333 102.377 53.9315 103.292C53.6678 105.627 53.8177 108.005 54.279 110.309C55.2137 114.955 57.4246 119.15 60.5042 122.687C74.752 139.063 100.497 141.417 118.55 129.96C119.269 129.503 119.976 129.015 120.653 128.497L120.665 128.491Z" fill="#272525"/>
<path d="M123.205 125.05C129.49 141.378 151.976 150.762 167.782 150.914C158.171 150.006 148.225 136.092 147.77 125.91C159.346 129.837 173.593 128.605 183.743 122.532C189.423 119.136 194.51 114.027 196.085 107.521C203.317 107.832 210.627 106.223 217.08 102.887C224.856 98.8695 231.795 91.2908 231.573 82.4195C231.351 73.7068 224.569 66.8232 218.248 60.9334C222.244 59.2384 225.635 55.3972 227.271 51.3182C227.96 49.611 228.074 47.7026 227.852 45.8735C227.073 39.4533 220.794 32.2709 212.125 31.4356C213.604 26.0214 211.879 20.0523 208.494 15.6136C205.109 11.1749 200.237 8.12637 195.133 5.98019C177.799 -1.31804 156.697 1.61467 141.928 13.3821C141.071 8.16295 135.17 3.49867 130.077 2.42558C124.99 1.35249 119.364 3.74255 116.542 8.18124C104.943 -0.232754 87.4836 1.29762 75.0632 7.17522C70.1322 9.51041 65.5907 12.9004 62.4691 17.4305C59.3475 21.9668 57.7478 27.7103 58.7304 33.155C50.2105 27.2286 37.7722 29.4601 29.6477 35.9413C28.1499 37.1364 26.7538 38.496 25.6634 40.0874C21.9906 45.465 21.5532 55.196 26.8677 59.342C20.8522 66.6037 26.2745 75.9261 32.0682 81.2794C39.7913 88.413 50.6539 90.2482 60.7615 88.8703C59.683 89.0166 58.6105 94.1077 58.4428 95.0161C58.0114 97.3269 57.9934 99.7109 58.293 102.04C58.8981 106.747 60.8035 111.088 63.6194 114.844C76.6689 132.227 102.181 136.464 121 126.361C121.755 125.959 122.486 125.52 123.199 125.057L123.205 125.05Z" fill="white"/>
<path d="M23.2225 39.7721C25.5831 35.8517 29.4716 32.9129 33.4979 30.9374C37.4403 29.0046 41.7482 27.8157 46.1339 27.7059C49.639 27.6206 53.0841 28.2425 56.2656 29.6143C56.2596 19.3468 63.6591 10.6097 72.4965 6.05513C81.4958 1.41524 92.0647 -0.596808 102.083 0.683583C106.936 1.29939 111.657 2.85415 115.845 5.40274C119.518 1.11648 125.707 -0.846789 131.105 0.659195C135.803 1.97007 140.674 5.31738 142.956 9.9024C151.992 3.57361 162.956 0.171427 173.909 0.00680487C179.84 -0.0846516 185.796 0.744555 191.458 2.56759C197.581 4.53695 203.477 7.50014 208.084 12.1339C212.608 16.6763 215.567 23.3648 214.693 29.8765C219.678 31.041 224.267 34.1628 227.125 38.4795C228.575 40.6745 229.695 43.1438 230.025 45.7899C230.486 49.5092 229.432 52.7528 227.419 55.8258C225.909 58.1305 223.967 60.0511 221.697 61.4961C228.197 67.7761 234.752 75.4889 233.662 85.1467C232.517 95.2557 223.8 102.469 215.136 106.145C209.678 108.462 203.722 109.596 197.803 109.547C195.49 116.474 189.912 121.742 183.603 125.095C176.593 128.82 168.498 130.43 160.619 130.149C157.108 130.027 153.663 129.534 150.284 128.662C151.123 133.058 153.298 137.216 155.964 140.71C157.624 142.886 159.523 144.85 161.746 146.435C163.657 147.794 165.646 148.703 167.995 148.947C170.26 149.185 170.739 152.959 168.133 152.922C160.817 152.831 153.543 151.136 146.749 148.41C139.733 145.599 133.088 141.521 127.846 135.96C125.653 133.631 123.748 130.985 122.304 128.107C111.699 133.984 98.4936 135.186 86.9001 132.186C80.7049 130.582 74.7973 127.802 69.7165 123.833C64.2402 119.559 59.4531 113.834 57.2782 107.09C55.9361 102.926 55.4627 98.4018 56.3555 94.0912C56.5532 93.1339 56.7809 92.1828 57.0505 91.2377C50.5198 91.5548 43.8572 90.5244 37.9556 87.6221C31.0594 84.2261 24.8402 77.9826 22.6413 70.3734C21.5389 66.5506 22.0602 62.6667 24.0913 59.3926C19.5617 54.2283 19.7714 45.4973 23.2165 39.7721H23.2225ZM28.6388 60.7217C24.1332 66.3189 27.5304 73.3671 31.6586 78.0314C36.1462 83.1042 42.3413 85.9393 48.908 86.9027C52.7246 87.4636 56.6071 87.36 60.4177 86.8539C62.4428 86.5856 63.9766 89.7378 62.0534 90.6463C62.0174 90.7195 61.9755 90.7926 61.9395 90.8719C61.6999 91.3902 61.5141 91.9389 61.3464 92.4876C61.1067 93.262 60.879 94.207 60.6873 95.1643C59.9983 98.6335 60.2499 102.188 61.2026 105.584C62.8802 111.572 67.0682 116.663 71.7776 120.473C80.5671 127.589 92.0947 130.601 103.335 129.528C109.806 128.912 116.33 126.894 121.836 123.351C122.364 123.01 122.957 122.979 123.508 123.132C124.227 123.248 124.904 123.674 125.216 124.467C127.696 130.814 132.429 135.661 137.954 139.429C143.58 143.27 150.212 145.996 156.827 147.538C156.851 147.538 156.875 147.551 156.905 147.557C156.431 147.136 155.976 146.703 155.533 146.264C152.004 142.746 149.146 138.35 147.366 133.661C146.438 131.21 145.748 128.643 145.611 126.009C145.551 124.857 146.228 123.967 147.426 123.912C148.217 123.876 149.11 124.321 149.865 124.54C150.811 124.808 151.77 125.046 152.735 125.253C154.484 125.619 156.258 125.894 158.037 126.04C161.638 126.339 165.323 126.192 168.888 125.613C175.784 124.497 182.674 121.668 187.827 116.778C190.601 114.151 192.955 110.889 193.908 107.102C194.124 106.243 194.783 105.487 195.742 105.523C205.148 105.889 215.364 103.115 222.434 96.5422C225.411 93.7741 228 90.2744 228.958 86.2198C229.983 81.8909 228.988 77.6168 226.843 73.8122C224.357 69.4101 220.588 65.8128 216.951 62.4167C215.747 61.2949 215.795 59.7157 217.365 59.0267C221.787 57.0879 226.058 51.7773 225.765 46.7106C225.513 42.3817 222.805 38.5649 219.348 36.1199C217.173 34.5835 214.591 33.6994 211.919 33.4189C210.96 33.3153 209.672 32.0958 209.953 31.0167C211.427 25.3768 209.462 19.6212 205.705 15.3776C201.973 11.1523 196.724 8.50616 191.517 6.68313C181.296 3.10413 169.876 3.23217 159.589 6.46973C153.693 8.32935 148.181 11.2499 143.304 15.1093C142.064 16.091 140.021 14.8898 139.769 13.4875C138.972 9.09148 134.389 5.55517 130.41 4.53695C125.743 3.34192 120.932 5.57956 118.313 9.57925C117.654 10.5853 116.013 10.2134 115.246 9.66461C107.918 4.41501 98.3857 3.57971 89.74 4.88449C80.8187 6.23195 71.3222 9.97556 65.4505 17.2128C61.8916 21.6027 59.9384 27.4011 60.909 33.0836C61.2685 35.1871 58.74 35.5224 57.4399 34.6322C51.5263 30.596 43.6595 31.1813 37.3265 33.8762C33.8634 35.3517 30.4602 37.6198 28.0876 40.6135C26.2122 42.9731 25.2656 46.168 25.1098 49.2653C25.0319 50.8566 25.1997 52.5638 25.6671 54.0454C26.1823 55.655 27.0271 56.972 28.1835 57.8988C29.0522 58.5939 29.3878 59.8194 28.6448 60.7461L28.6388 60.7217Z" fill="#272525"/>
<path d="M54.6348 62.7188L49.5371 51.6348H52.623L56.002 59.6426L58.7754 51.6348H61.5879L57.7598 61.9082C57.1022 63.666 56.3861 64.8444 55.6113 65.4434C54.8431 66.0358 54.0228 66.332 53.1504 66.332C51.7311 66.332 50.4225 65.6354 49.2246 64.2422L51.0215 62.4355C51.7376 63.2689 52.444 63.6855 53.1406 63.6855C53.4531 63.6855 53.7103 63.6107 53.9121 63.4609C54.1139 63.3112 54.3548 63.0638 54.6348 62.7188ZM64.1367 62.2598C64.8594 63.2689 65.7057 63.7734 66.6758 63.7734C67.3203 63.7734 67.8411 63.5911 68.2383 63.2266C68.6354 62.862 68.834 62.377 68.834 61.7715C68.834 61.179 68.6387 60.6875 68.248 60.2969C67.8639 59.9062 67.0632 59.7109 65.8457 59.7109H65.2598V57.2695H65.8457C66.5684 57.2695 67.1152 57.1035 67.4863 56.7715C67.8639 56.4395 68.0527 55.9935 68.0527 55.4336C68.0527 54.9193 67.8965 54.5124 67.584 54.2129C67.2715 53.9134 66.8581 53.7637 66.3438 53.7637C65.7318 53.7637 65.1035 54.0664 64.459 54.6719L62.8477 52.875C63.7135 52.0938 64.4362 51.6283 65.0156 51.4785C65.5951 51.3223 66.1289 51.2441 66.6172 51.2441C67.7891 51.2441 68.7721 51.5859 69.5664 52.2695C70.3672 52.9531 70.7676 53.8743 70.7676 55.0332C70.7676 55.5475 70.6764 56.0488 70.4941 56.5371C70.3184 57.0254 69.8203 57.543 69 58.0898C70.6797 58.8385 71.5195 60.1178 71.5195 61.9277C71.5195 63.2624 71.0703 64.3366 70.1719 65.1504C69.2799 65.9577 68.1309 66.3613 66.7246 66.3613C65.8392 66.3613 65.0449 66.2018 64.3418 65.8828C63.6387 65.5573 62.8737 64.8607 62.0469 63.793L64.1367 62.2598ZM74.127 51.6348H76.9004V57.0547H81.7051V51.6348H84.4688V66H81.7051V59.7012H76.9004V66H74.127V51.6348ZM92.125 51.6348H94.8984L100.426 66H97.584L96.4609 63.041H90.6016L89.4297 66H86.5879L92.125 51.6348ZM93.5312 55.4434L91.6172 60.375H95.4355L93.5312 55.4434ZM113.023 51.6348V66H110.289V57.0059L104.928 66H102.545V51.6348H105.279V60.9219L110.719 51.6348H113.023ZM103.902 47.7871H106.061C106.23 48.054 106.464 48.2559 106.764 48.3926C107.07 48.5228 107.441 48.5879 107.877 48.5879C108.32 48.5879 108.72 48.5098 109.078 48.3535C109.312 48.2493 109.518 48.0605 109.693 47.7871H111.852C111.728 48.6139 111.331 49.278 110.66 49.7793C109.996 50.2806 109.065 50.5312 107.867 50.5312C107.06 50.5312 106.383 50.4206 105.836 50.1992C105.296 49.9714 104.859 49.6491 104.527 49.2324C104.195 48.8158 103.987 48.334 103.902 47.7871ZM121.9 66V51.6348H129.41V54.3008H124.635V57.0547H125.23C126.441 57.0547 127.431 57.1882 128.199 57.4551C128.967 57.722 129.605 58.2266 130.113 58.9688C130.628 59.7044 130.885 60.5768 130.885 61.5859C130.885 62.5885 130.693 63.3893 130.309 63.9883C129.924 64.5807 129.394 65.0658 128.717 65.4434C128.046 65.8145 127.115 66 125.924 66H121.9ZM124.635 59.4961V63.3926H125.318C126.568 63.3926 127.359 63.2298 127.691 62.9043C128.023 62.5788 128.189 62.1393 128.189 61.5859C128.189 60.1927 127.193 59.4961 125.201 59.4961H124.635ZM140.084 51.2734C142.115 51.2734 143.86 52.0091 145.318 53.4805C146.783 54.9518 147.516 56.7454 147.516 58.8613C147.516 60.9577 146.793 62.7318 145.348 64.1836C143.909 65.6354 142.161 66.3613 140.104 66.3613C137.949 66.3613 136.158 65.6159 134.732 64.125C133.307 62.6341 132.594 60.8633 132.594 58.8125C132.594 57.4388 132.926 56.1758 133.59 55.0234C134.254 53.8711 135.165 52.9596 136.324 52.2891C137.49 51.612 138.743 51.2734 140.084 51.2734ZM140.055 53.9492C138.727 53.9492 137.61 54.4115 136.705 55.3359C135.8 56.2604 135.348 57.4355 135.348 58.8613C135.348 60.4499 135.917 61.7064 137.057 62.6309C137.942 63.3535 138.958 63.7148 140.104 63.7148C141.399 63.7148 142.503 63.2461 143.414 62.3086C144.326 61.3711 144.781 60.2155 144.781 58.8418C144.781 57.4746 144.322 56.319 143.404 55.375C142.486 54.4245 141.37 53.9492 140.055 53.9492ZM159.391 66L155.416 55.4434L151.373 66H148.473L154.01 51.6348H156.783L162.311 66H159.391ZM163.971 66V51.6348H166.705V57.0547H167.301C168.44 57.0547 169.387 57.1882 170.143 57.4551C170.904 57.7155 171.562 58.2168 172.115 58.959C172.669 59.6947 172.945 60.5833 172.945 61.625C172.945 62.6081 172.708 63.4414 172.232 64.125C171.757 64.8086 171.204 65.2936 170.572 65.5801C169.947 65.86 169.088 66 167.994 66H163.971ZM166.705 59.4961V63.3926H167.389C168.521 63.3926 169.28 63.2526 169.664 62.9727C170.048 62.6927 170.24 62.2142 170.24 61.5371C170.24 60.1764 169.251 59.4961 167.271 59.4961H166.705ZM181.949 63.5391V51.6348H184.703V63.5391H188.609V51.6348H191.383V66H175.338V51.6348H178.111V63.5391H181.949ZM194.654 51.6348H202.496V54.3105H197.369V56.9082H202.496V59.5352H197.369V63.3145H202.496V66H194.654V51.6348ZM101.412 76.2734C103.443 76.2734 105.188 77.0091 106.646 78.4805C108.111 79.9518 108.844 81.7454 108.844 83.8613C108.844 85.9577 108.121 87.7318 106.676 89.1836C105.237 90.6354 103.489 91.3613 101.432 91.3613C99.2767 91.3613 97.4863 90.6159 96.0605 89.125C94.6348 87.6341 93.9219 85.8633 93.9219 83.8125C93.9219 82.4388 94.2539 81.1758 94.918 80.0234C95.582 78.8711 96.4935 77.9596 97.6523 77.2891C98.8177 76.612 100.071 76.2734 101.412 76.2734ZM101.383 78.9492C100.055 78.9492 98.9382 79.4115 98.0332 80.3359C97.1283 81.2604 96.6758 82.4355 96.6758 83.8613C96.6758 85.4499 97.2454 86.7064 98.3848 87.6309C99.2702 88.3535 100.286 88.7148 101.432 88.7148C102.727 88.7148 103.831 88.2461 104.742 87.3086C105.654 86.3711 106.109 85.2155 106.109 83.8418C106.109 82.4746 105.65 81.319 104.732 80.375C103.814 79.4245 102.698 78.9492 101.383 78.9492ZM117.018 76.6348H119.791V82.0547H124.596V76.6348H127.359V91H124.596V84.7012H119.791V91H117.018V76.6348ZM135.016 76.6348H137.789L143.316 91H140.475L139.352 88.041H133.492L132.32 91H129.479L135.016 76.6348ZM136.422 80.4434L134.508 85.375H138.326L136.422 80.4434ZM158.648 79.1641L156.734 80.9902C155.432 79.6165 153.967 78.9297 152.34 78.9297C150.966 78.9297 149.807 79.3984 148.863 80.3359C147.926 81.2734 147.457 82.429 147.457 83.8027C147.457 84.7598 147.665 85.6094 148.082 86.3516C148.499 87.0938 149.088 87.6764 149.85 88.0996C150.611 88.5228 151.458 88.7344 152.389 88.7344C153.183 88.7344 153.909 88.5879 154.566 88.2949C155.224 87.9954 155.947 87.4551 156.734 86.6738L158.59 88.6074C157.529 89.6426 156.526 90.362 155.582 90.7656C154.638 91.1628 153.561 91.3613 152.35 91.3613C150.117 91.3613 148.287 90.6549 146.861 89.2422C145.442 87.8229 144.732 86.0065 144.732 83.793C144.732 82.3607 145.055 81.0879 145.699 79.9746C146.35 78.8613 147.278 77.9661 148.482 77.2891C149.693 76.612 150.995 76.2734 152.389 76.2734C153.574 76.2734 154.713 76.5241 155.807 77.0254C156.907 77.5267 157.854 78.2396 158.648 79.1641ZM160.855 76.2734H163.551V86.7715H160.855V76.2734ZM162.203 87.9336C162.665 87.9336 163.059 88.0964 163.385 88.4219C163.717 88.7474 163.883 89.1413 163.883 89.6035C163.883 90.0592 163.717 90.4531 163.385 90.7852C163.059 91.1107 162.665 91.2734 162.203 91.2734C161.741 91.2734 161.347 91.1107 161.021 90.7852C160.696 90.4596 160.533 90.0658 160.533 89.6035C160.533 89.1413 160.696 88.7474 161.021 88.4219C161.347 88.0964 161.741 87.9336 162.203 87.9336Z" fill="#E32E16"/>
</svg>
