<svg width="635" height="474" viewBox="0 0 635 474" fill="none" xmlns="http://www.w3.org/2000/svg">
<path d="M1.03125 34.672L1.03125 439.591C1.03125 458.151 15.6435 473.197 33.6685 473.197L602.361 473.197C620.386 473.197 634.998 458.151 634.998 439.591V34.672C634.998 16.1119 620.386 1.06604 602.361 1.06604L33.6685 1.06604C15.6435 1.06604 1.03125 16.1119 1.03125 34.672Z" fill="#EDEDED"/>
<path d="M602.37 2.50781H33.677C16.4239 2.50781 2.4375 16.9093 2.4375 34.6745V439.594C2.4375 457.359 16.4239 471.761 33.677 471.761H602.37C619.623 471.761 633.609 457.359 633.609 439.594V34.6745C633.609 16.9093 619.623 2.50781 602.37 2.50781Z" fill="url(#paint0_linear_245_3)"/>
<path d="M602.362 3.94336H33.6699C17.1888 3.94336 3.82812 17.7005 3.82812 34.6709V439.59C3.82812 456.561 17.1888 470.318 33.6699 470.318H602.362C618.844 470.318 632.204 456.561 632.204 439.59V34.6709C632.204 17.7005 618.844 3.94336 602.362 3.94336Z" fill="#202020"/>
<path d="M602.364 24.092H33.6718C27.998 24.092 23.3984 28.8281 23.3984 34.6704V439.59C23.3984 445.432 27.998 450.168 33.6718 450.168H602.364C608.038 450.168 612.638 445.432 612.638 439.59V34.6704C612.638 28.8281 608.038 24.092 602.364 24.092Z" fill="black"/>
<path d="M1.03498 394.105C0.97204 394.141 0.902109 394.163 0.839171 394.213C0.342662 394.58 0 395.314 0 396.192V422.976C0 423.948 0.433572 424.768 1.03498 425.07V394.105Z" fill="url(#paint1_radial_245_3)"/>
<path d="M1.03498 393C0.433572 393.302 0 394.123 0 395.094V421.878C0 422.85 0.433572 424.08 1.03498 424.569V393Z" fill="url(#paint2_linear_245_3)"/>
<path d="M1.03344 393.751C0.956515 393.895 0.893577 394.054 0.837633 394.226C0.760709 394.493 0.71875 394.788 0.71875 395.097V422.55C0.71875 423.054 0.837633 423.515 1.03344 423.889V393.744V393.751Z" fill="url(#paint3_linear_245_3)"/>
<path d="M76.1706 1.06503C76.1357 1.00026 76.1147 0.928301 76.0658 0.863536C75.7093 0.352611 74.9965 0 74.1439 0H53.7368C52.7934 0 51.9967 0.44616 51.7031 1.06503H76.1706Z" fill="url(#paint4_radial_245_3)"/>
<path d="M77.2577 1.06503C76.9641 0.44616 76.1674 0 75.2239 0H54.8169C53.8734 0 52.6784 0.44616 52.2031 1.06503H77.2577Z" fill="url(#paint5_linear_245_3)"/>
<path d="M76.5301 1.06591C76.3904 0.987258 76.2366 0.922903 76.0689 0.865699C75.8103 0.787044 75.5238 0.744141 75.2233 0.744141H54.1593C53.6701 0.744141 53.2228 0.865699 52.8594 1.06591H76.5301Z" fill="url(#paint6_linear_245_3)"/>
<path d="M106.749 1.06503C106.714 1.00026 106.693 0.928301 106.644 0.863536C106.287 0.352611 105.575 0 104.722 0H84.315C83.3715 0 82.5748 0.44616 82.2812 1.06503H106.749Z" fill="url(#paint7_radial_245_3)"/>
<path d="M107.836 1.06503C107.542 0.44616 106.746 0 105.802 0H85.395C84.4516 0 83.2565 0.44616 82.7812 1.06503H107.836Z" fill="url(#paint8_linear_245_3)"/>
<path d="M107.108 1.06591C106.968 0.987258 106.815 0.922903 106.647 0.865699C106.388 0.787044 106.102 0.744141 105.801 0.744141H84.7374C84.2482 0.744141 83.8009 0.865699 83.4375 1.06591H107.108Z" fill="url(#paint9_linear_245_3)"/>
<path d="M13.6227 246.266C14.7549 246.266 15.7473 246.899 16.2784 247.842C16.537 248.309 16.6908 248.842 16.6908 249.418C16.6908 251.166 15.321 252.577 13.6227 252.577C11.9245 252.577 10.5547 251.166 10.5547 249.418C10.5547 248.842 10.7084 248.302 10.967 247.842C11.4982 246.892 12.4836 246.266 13.6227 246.266Z" fill="#121212"/>
<path d="M13.63 234.52C14.231 234.52 14.7482 234.851 15.0278 235.354C15.1675 235.599 15.2444 235.88 15.2444 236.189C15.2444 237.11 14.5176 237.851 13.63 237.851C12.7425 237.851 12.0156 237.103 12.0156 236.189C12.0156 235.887 12.0995 235.599 12.2323 235.354C12.5118 234.858 13.036 234.52 13.63 234.52Z" fill="url(#paint10_linear_245_3)"/>
<path d="M15.5329 236.19C15.5329 237.277 14.6733 238.162 13.618 238.162C12.5627 238.162 11.7031 237.277 11.7031 236.19C11.7031 235.104 12.5627 234.219 13.618 234.219C14.6733 234.219 15.5329 235.104 15.5329 236.19ZM12.0036 236.19C12.0036 237.112 12.7305 237.853 13.618 237.853C14.5056 237.853 15.2324 237.104 15.2324 236.19C15.2324 235.277 14.5056 234.528 13.618 234.528C12.7305 234.528 12.0036 235.277 12.0036 236.19Z" fill="url(#paint11_radial_245_3)"/>
<path d="M13.6222 261.002C14.2232 261.002 14.7404 261.333 15.0199 261.837C15.1597 262.081 15.2366 262.362 15.2366 262.671C15.2366 263.593 14.5098 264.334 13.6222 264.334C12.7346 264.334 12.0078 263.585 12.0078 262.671C12.0078 262.369 12.0917 262.081 12.2245 261.837C12.504 261.34 13.0282 261.002 13.6222 261.002Z" fill="#121212"/>
<path d="M13.6227 208.861C14.7549 208.861 15.7473 209.495 16.2784 210.437C16.537 210.905 16.6908 211.438 16.6908 212.013C16.6908 213.762 15.321 215.172 13.6227 215.172C11.9245 215.172 10.5547 213.762 10.5547 212.013C10.5547 211.438 10.7084 210.898 10.967 210.437C11.4982 209.487 12.4836 208.861 13.6227 208.861Z" fill="#121212"/>
<path d="M34.5637 40.4512H30.8388C30.6689 40.4512 30.5312 40.5929 30.5312 40.7678V53.1092C30.5312 53.284 30.6689 53.4258 30.8388 53.4258H34.5637C34.7336 53.4258 34.8712 53.284 34.8712 53.1092V40.7678C34.8712 40.5929 34.7336 40.4512 34.5637 40.4512Z" fill="white"/>
<path d="M32.7013 38.6074C32.0863 38.6074 31.5901 39.1112 31.5622 39.7372H30.8423C30.2902 39.7372 29.8359 40.205 29.8359 40.7735V53.1148C29.8359 53.6833 30.2902 54.1511 30.8423 54.1511H34.5603C35.1124 54.1511 35.5667 53.6833 35.5667 53.1148V40.7735C35.5667 40.205 35.1124 39.7372 34.5603 39.7372H33.8405C33.8125 39.1112 33.3163 38.6074 32.7013 38.6074ZM34.5603 39.8955C35.0286 39.8955 35.4129 40.2913 35.4129 40.7735V53.1148C35.4129 53.597 35.0286 53.9928 34.5603 53.9928H30.8423C30.3741 53.9928 29.9897 53.597 29.9897 53.1148V40.7735C29.9897 40.2913 30.3741 39.8955 30.8423 39.8955H34.5603Z" fill="white"/>
<path d="M32.6974 430.123C33.8575 430.123 34.801 431.123 34.801 432.354C34.801 433.584 33.8575 434.585 32.6974 434.585C31.5372 434.585 30.5938 433.584 30.5938 432.354C30.5938 431.123 31.5372 430.123 32.6974 430.123Z" fill="white"/>
<path d="M32.6974 424.51C33.8575 424.51 34.801 425.51 34.801 426.741C34.801 427.971 33.8575 428.971 32.6974 428.971C31.5372 428.971 30.5938 427.971 30.5938 426.741C30.5938 425.51 31.5372 424.51 32.6974 424.51Z" fill="white"/>
<path d="M32.6974 418.896C33.8575 418.896 34.801 419.897 34.801 421.127C34.801 422.358 33.8575 423.358 32.6974 423.358C31.5372 423.358 30.5938 422.358 30.5938 421.127C30.5938 419.897 31.5372 418.896 32.6974 418.896Z" fill="white"/>
<path d="M32.6974 413.283C33.8575 413.283 34.801 414.283 34.801 415.514C34.801 416.745 33.8575 417.745 32.6974 417.745C31.5372 417.745 30.5938 416.745 30.5938 415.514C30.5938 414.283 31.5372 413.283 32.6974 413.283Z" fill="white"/>
<path d="M32.6974 407.672C33.8575 407.672 34.801 408.672 34.801 409.903C34.801 411.133 33.8575 412.133 32.6974 412.133C31.5372 412.133 30.5938 411.133 30.5938 409.903C30.5938 408.672 31.5372 407.672 32.6974 407.672Z" fill="white"/>
<path d="M35.3366 397.866C35.6443 398.204 35.6443 398.729 35.3366 399.068C34.8261 399.622 33.889 399.276 33.875 398.514C33.875 398.499 33.875 398.485 33.875 398.47C33.875 398.456 33.875 398.442 33.875 398.42C33.889 397.657 34.8261 397.312 35.3366 397.866Z" fill="white"/>
<path d="M31.9679 398.472C31.9679 399.4 32.2754 400.256 32.7926 400.94C32.9883 401.199 33.3517 401.221 33.5683 400.983L33.5963 400.954C33.778 400.76 33.778 400.465 33.6173 400.256C33.2469 399.76 33.0302 399.141 33.0302 398.472C33.0302 397.803 33.2469 397.184 33.6173 396.687C33.778 396.478 33.771 396.183 33.5963 395.989L33.5683 395.96C33.3517 395.723 32.9813 395.744 32.7856 396.004C32.2684 396.687 31.9609 397.543 31.9609 398.472H31.9679Z" fill="white"/>
<path d="M29.8359 398.467C29.8359 400.036 30.402 401.475 31.3385 402.569C31.5342 402.799 31.8836 402.799 32.0933 402.583L32.1212 402.548C32.303 402.353 32.3099 402.044 32.1352 401.842C31.3665 400.943 30.8982 399.763 30.8982 398.467C30.8982 397.172 31.3665 395.992 32.1352 395.085C32.3099 394.884 32.303 394.574 32.1212 394.38L32.0933 394.351C31.8906 394.128 31.5342 394.128 31.3385 394.365C30.402 395.459 29.8359 396.899 29.8359 398.467Z" fill="white"/>
<path d="M30.6468 244.018C29.857 244.126 29.3329 244.615 29.3329 245.5C29.3329 247.378 31.4644 247.544 32.6106 247.601C31.8558 247.119 31.4994 246.335 31.4994 245.421C31.4994 243.787 32.5896 242.694 34.211 242.694C35.8324 242.694 37.0903 243.795 37.0903 245.579C37.0903 248.119 34.854 248.638 32.8831 248.638C30.9123 248.638 28.4453 248.04 28.4453 245.457C28.4453 243.982 29.256 243.046 30.6468 242.931V244.01V244.018ZM34.2599 247.407C35.434 247.407 36.1818 246.666 36.1818 245.586C36.1818 244.507 35.455 243.816 34.3019 243.816C33.1487 243.816 32.38 244.507 32.38 245.608C32.38 246.709 33.1347 247.4 34.2599 247.4V247.407Z" fill="white"/>
<path d="M32.0779 239.842V241.217H30.75V239.842H32.0779ZM36.921 239.842V241.217H35.5932V239.842H36.921Z" fill="white"/>
<path d="M29.5023 232.972V236.527L32.0252 237.045C31.522 236.563 31.3543 235.994 31.3543 235.275C31.3543 233.627 32.4795 232.504 34.1288 232.504C35.7781 232.504 37.092 233.72 37.092 235.534C37.092 237.203 36.1206 238.319 34.639 238.369V237.304C35.5825 237.218 36.2324 236.498 36.2324 235.519C36.2324 234.433 35.3728 233.612 34.2336 233.612C33.0945 233.612 32.2349 234.39 32.2349 235.534C32.2349 236.253 32.5074 236.822 33.0595 237.218L32.9966 238.124L28.5938 237.311V232.979H29.4883L29.5023 232.972Z" fill="white"/>
<path d="M29.5023 226.087V229.642L32.0252 230.16C31.522 229.678 31.3543 229.11 31.3543 228.39C31.3543 226.742 32.4795 225.619 34.1288 225.619C35.7781 225.619 37.092 226.836 37.092 228.649C37.092 230.318 36.1206 231.434 34.639 231.484V230.419C35.5825 230.333 36.2324 229.613 36.2324 228.635C36.2324 227.548 35.3728 226.728 34.2336 226.728C33.0945 226.728 32.2349 227.505 32.2349 228.649C32.2349 229.369 32.5074 229.937 33.0595 230.333L32.9966 231.24L28.5938 230.426V226.094H29.4883L29.5023 226.087Z" fill="white"/>
<path d="M601.329 25.9062H32.637C27.3492 25.9062 23.0625 30.3201 23.0625 35.765V440.684C23.0625 446.129 27.3492 450.543 32.637 450.543H601.329C606.617 450.543 610.904 446.129 610.904 440.684V35.765C610.904 30.3201 606.617 25.9062 601.329 25.9062Z" fill="#F1F1F2"/>
<defs>
<linearGradient id="paint0_linear_245_3" x1="318.013" y1="471.761" x2="318.013" y2="2.50781" gradientUnits="userSpaceOnUse">
<stop offset="0.21" stop-color="#E4E4E4"/>
<stop offset="0.49" stop-color="#504E4E"/>
<stop offset="0.57" stop-color="#545252"/>
<stop offset="0.65" stop-color="#615F5F"/>
<stop offset="0.74" stop-color="#767575"/>
<stop offset="0.83" stop-color="#949393"/>
<stop offset="0.92" stop-color="#BAB9B9"/>
<stop offset="1" stop-color="#E4E4E4"/>
</linearGradient>
<radialGradient id="paint1_radial_245_3" cx="0" cy="0" r="1" gradientUnits="userSpaceOnUse" gradientTransform="translate(-3.15081 409.592) scale(7.70087 11.1612)">
<stop/>
<stop offset="0.57" stop-color="#010101"/>
<stop offset="0.78" stop-color="#080808"/>
<stop offset="0.93" stop-color="#141313"/>
<stop offset="1" stop-color="#1E1D1D"/>
</radialGradient>
<linearGradient id="paint2_linear_245_3" x1="0" y1="408.781" x2="3.05598" y2="408.781" gradientUnits="userSpaceOnUse">
<stop offset="0.21" stop-color="#E4E4E4"/>
<stop offset="0.49" stop-color="#CACACA"/>
<stop offset="0.69" stop-color="#CECECE"/>
<stop offset="0.9" stop-color="#DBDBDB"/>
<stop offset="1" stop-color="#E4E4E4"/>
</linearGradient>
<linearGradient id="paint3_linear_245_3" x1="0.872598" y1="392.866" x2="0.872598" y2="424.781" gradientUnits="userSpaceOnUse">
<stop stop-color="#E4E4E4"/>
<stop offset="0.04" stop-color="#C6C6C6"/>
<stop offset="0.11" stop-color="#A1A1A1"/>
<stop offset="0.17" stop-color="#828282"/>
<stop offset="0.24" stop-color="#6B6B6B"/>
<stop offset="0.32" stop-color="#5A5A5A"/>
<stop offset="0.4" stop-color="#505050"/>
<stop offset="0.5" stop-color="#4D4D4D"/>
</linearGradient>
<radialGradient id="paint4_radial_245_3" cx="0" cy="0" r="1" gradientUnits="userSpaceOnUse" gradientTransform="translate(63.9334 9.57367) rotate(90) scale(6.45299 8.82674)">
<stop/>
<stop offset="0.57" stop-color="#010101"/>
<stop offset="0.78" stop-color="#080808"/>
<stop offset="0.93" stop-color="#141313"/>
<stop offset="1" stop-color="#1E1D1D"/>
</radialGradient>
<linearGradient id="paint5_linear_245_3" x1="64.7269" y1="0" x2="64.7269" y2="3.14471" gradientUnits="userSpaceOnUse">
<stop offset="0.21" stop-color="#E4E4E4"/>
<stop offset="0.49" stop-color="#CACACA"/>
<stop offset="0.69" stop-color="#CECECE"/>
<stop offset="0.9" stop-color="#DBDBDB"/>
<stop offset="1" stop-color="#E4E4E4"/>
</linearGradient>
<linearGradient id="paint6_linear_245_3" x1="77.222" y1="0.901452" x2="52.1535" y2="0.901452" gradientUnits="userSpaceOnUse">
<stop stop-color="#E4E4E4"/>
<stop offset="0.04" stop-color="#C6C6C6"/>
<stop offset="0.11" stop-color="#A1A1A1"/>
<stop offset="0.17" stop-color="#828282"/>
<stop offset="0.24" stop-color="#6B6B6B"/>
<stop offset="0.32" stop-color="#5A5A5A"/>
<stop offset="0.4" stop-color="#505050"/>
<stop offset="0.5" stop-color="#4D4D4D"/>
</linearGradient>
<radialGradient id="paint7_radial_245_3" cx="0" cy="0" r="1" gradientUnits="userSpaceOnUse" gradientTransform="translate(94.5115 9.57367) rotate(90) scale(6.45299 8.82674)">
<stop/>
<stop offset="0.57" stop-color="#010101"/>
<stop offset="0.78" stop-color="#080808"/>
<stop offset="0.93" stop-color="#141313"/>
<stop offset="1" stop-color="#1E1D1D"/>
</radialGradient>
<linearGradient id="paint8_linear_245_3" x1="95.305" y1="0" x2="95.305" y2="3.14471" gradientUnits="userSpaceOnUse">
<stop offset="0.21" stop-color="#E4E4E4"/>
<stop offset="0.49" stop-color="#CACACA"/>
<stop offset="0.69" stop-color="#CECECE"/>
<stop offset="0.9" stop-color="#DBDBDB"/>
<stop offset="1" stop-color="#E4E4E4"/>
</linearGradient>
<linearGradient id="paint9_linear_245_3" x1="107.8" y1="0.901452" x2="82.7316" y2="0.901452" gradientUnits="userSpaceOnUse">
<stop stop-color="#E4E4E4"/>
<stop offset="0.04" stop-color="#C6C6C6"/>
<stop offset="0.11" stop-color="#A1A1A1"/>
<stop offset="0.17" stop-color="#828282"/>
<stop offset="0.24" stop-color="#6B6B6B"/>
<stop offset="0.32" stop-color="#5A5A5A"/>
<stop offset="0.4" stop-color="#505050"/>
<stop offset="0.5" stop-color="#4D4D4D"/>
</linearGradient>
<linearGradient id="paint10_linear_245_3" x1="13.623" y1="237.859" x2="13.623" y2="234.527" gradientUnits="userSpaceOnUse">
<stop stop-color="#1F1B62"/>
<stop offset="0.18" stop-color="#1E1A5F"/>
<stop offset="0.28" stop-color="#1C1857"/>
<stop offset="0.35" stop-color="#19144A"/>
<stop offset="0.42" stop-color="#140F37"/>
<stop offset="0.46" stop-color="#100B25"/>
<stop offset="0.56" stop-color="#110C29"/>
<stop offset="0.67" stop-color="#151136"/>
<stop offset="0.78" stop-color="#1C1A4B"/>
<stop offset="0.89" stop-color="#262569"/>
<stop offset="1" stop-color="#32348D"/>
</linearGradient>
<radialGradient id="paint11_radial_245_3" cx="0" cy="0" r="1" gradientUnits="userSpaceOnUse" gradientTransform="translate(13.618 236.19) rotate(-90) scale(1.97174 1.91491)">
<stop stop-color="#110B24"/>
<stop offset="0.46" stop-color="#0F0A21"/>
<stop offset="0.7" stop-color="#0C0719"/>
<stop offset="0.89" stop-color="#05030C"/>
<stop offset="1"/>
</radialGradient>
</defs>
</svg>
