<svg width="116" height="121" viewBox="0 0 116 121" fill="none" xmlns="http://www.w3.org/2000/svg">
<path fill-rule="evenodd" clip-rule="evenodd" d="M34.5502 19.9479L57.6384 20.0428L80.7435 20.1423L103.996 60.4053L92.5236 80.4481L81.0616 100.485L57.9734 100.39L34.8852 100.295L11.6325 60.0319L34.5502 19.9479Z" fill="#039BE5"/>
<path d="M28.3431 55.9739L74.4587 37.213C76.5991 36.3971 78.4684 37.7639 77.7749 41.1788L77.7788 41.1746L69.9268 80.2062C69.3449 82.9735 67.7865 83.6464 65.6063 82.3426L53.6489 73.0442L47.8815 78.9067C47.2437 79.5796 46.7057 80.1473 45.4701 80.1473L46.319 67.3078L68.48 46.1834C69.4446 45.2876 68.2648 44.783 66.9933 45.6746L39.607 63.8677L27.8011 59.9818C25.2382 59.1239 25.1824 57.2776 28.3431 55.9739Z" fill="white"/>
</svg>
