<svg width="135" height="40" viewBox="0 0 135 40" fill="none" xmlns="http://www.w3.org/2000/svg">
<path d="M130.197 40H4.729C2.122 40 0 37.872 0 35.267V4.726C0 2.12 2.122 0 4.729 0H130.197C132.803 0 135 2.12 135 4.726V35.267C135 37.872 132.803 40 130.197 40Z" fill="#858FA7"/>
<path d="M28.133 19.7842C28.104 16.5612 30.772 14.9932 30.894 14.9202C29.383 12.7172 27.041 12.4162 26.218 12.3922C24.251 12.1852 22.343 13.5692 21.341 13.5692C20.319 13.5692 18.776 12.4122 17.113 12.4462C14.973 12.4792 12.971 13.7182 11.873 15.6422C9.60697 19.5652 11.297 25.3302 13.468 28.5012C14.554 30.0542 15.823 31.7882 17.484 31.7272C19.109 31.6602 19.716 30.6912 21.677 30.6912C23.62 30.6912 24.19 31.7272 25.884 31.6882C27.628 31.6602 28.726 30.1282 29.774 28.5612C31.029 26.7812 31.533 25.0282 31.553 24.9382C31.512 24.9242 28.166 23.6472 28.133 19.7842Z" fill="white"/>
<path d="M24.931 10.3058C25.805 9.2128 26.403 7.7258 26.237 6.2168C24.972 6.2728 23.39 7.0918 22.479 8.1608C21.673 9.1028 20.953 10.6468 21.139 12.0988C22.56 12.2048 24.019 11.3818 24.931 10.3058Z" fill="white"/>
<path fill-rule="evenodd" clip-rule="evenodd" d="M50.3702 31.5043H52.6412L48.3362 18.1963H45.6902L41.4062 31.5043H43.6172L44.8022 27.5953H49.1262L50.3702 31.5043ZM47.6277 22.4801L48.7527 25.9551H45.1797L46.2847 22.4801C46.5747 21.3751 46.7857 20.5391 46.9167 19.9731H46.9567C47.2857 21.2891 47.5087 22.1251 47.6277 22.4801Z" fill="white"/>
<path fill-rule="evenodd" clip-rule="evenodd" d="M62.3399 30.4569C63.2219 29.5099 63.6629 28.2199 63.6629 26.5879C63.6629 25.1269 63.2849 23.9489 62.5269 23.0529C61.7709 22.1579 60.8259 21.7109 59.6939 21.7109C58.2459 21.7109 57.1669 22.2829 56.4559 23.4289H56.4159L56.2969 21.9079H54.4219C54.4739 22.9879 54.5009 24.0409 54.5009 25.0669V35.4139H56.6329V30.3589H56.6729C57.2259 31.2669 58.1339 31.7209 59.3979 31.7209C60.5689 31.7209 61.5499 31.2999 62.3399 30.4569ZM60.8578 24.3557C61.2798 24.9617 61.4898 25.7317 61.4898 26.6657C61.4898 27.6797 61.2658 28.4957 60.8178 29.1147C60.3708 29.7327 59.7458 30.0427 58.9428 30.0427C58.2588 30.0427 57.7028 29.8027 57.2748 29.3217C56.8468 28.8407 56.6328 28.2517 56.6328 27.5537V25.9537C56.6328 25.7837 56.6658 25.5677 56.7318 25.3037C56.8628 24.7377 57.1428 24.2807 57.5708 23.9307C57.9978 23.5837 58.4758 23.4077 59.0018 23.4077C59.7778 23.4077 60.3968 23.7237 60.8578 24.3557Z" fill="white"/>
<path fill-rule="evenodd" clip-rule="evenodd" d="M73.3691 30.4569C74.2521 29.5099 74.6931 28.2199 74.6931 26.5879C74.6931 25.1269 74.3141 23.9489 73.5591 23.0529C72.8011 22.1579 71.8561 21.7109 70.7251 21.7109C69.2761 21.7109 68.1971 22.2829 67.4871 23.4289H67.4471L67.3281 21.9079H65.4531C65.5051 22.9879 65.5321 24.0409 65.5321 25.0669V35.4139H67.6641V30.3589H67.7041C68.2561 31.2669 69.1641 31.7209 70.4281 31.7209C71.5991 31.7209 72.5801 31.2999 73.3691 30.4569ZM71.8881 24.3559C72.3101 24.9619 72.5211 25.7319 72.5211 26.6659C72.5211 27.6799 72.2971 28.4959 71.8491 29.1149C71.4021 29.7329 70.7771 30.0429 69.9741 30.0429C69.2881 30.0429 68.7321 29.8019 68.3041 29.3219C67.8781 28.8409 67.6641 28.2519 67.6641 27.5539V25.9539C67.6641 25.7839 67.6981 25.5679 67.7631 25.3039C67.8941 24.7379 68.1731 24.2809 68.6011 23.9309C69.0291 23.5839 69.5061 23.4079 70.0331 23.4079C70.8101 23.4079 71.4271 23.7239 71.8881 24.3559Z" fill="white"/>
<path d="M87.0372 27.772C87.0372 28.904 86.6442 29.825 85.8552 30.536C84.9882 31.313 83.7812 31.701 82.2302 31.701C80.7982 31.701 79.6503 31.425 78.7812 30.872L79.2752 29.095C80.2112 29.661 81.2383 29.945 82.3572 29.945C83.1602 29.945 83.7853 29.763 84.2343 29.401C84.6813 29.039 84.9043 28.553 84.9043 27.947C84.9043 27.407 84.7203 26.952 84.3513 26.583C83.9843 26.214 83.3713 25.871 82.5152 25.554C80.1853 24.685 79.0212 23.412 79.0212 21.738C79.0212 20.644 79.4293 19.747 80.2463 19.049C81.0603 18.35 82.1463 18.001 83.5043 18.001C84.7153 18.001 85.7213 18.212 86.5243 18.633L85.9913 20.371C85.2413 19.963 84.3932 19.759 83.4443 19.759C82.6943 19.759 82.1083 19.944 81.6883 20.312C81.3333 20.641 81.1553 21.042 81.1553 21.517C81.1553 22.043 81.3582 22.478 81.7662 22.82C82.1212 23.136 82.7663 23.478 83.7023 23.847C84.8472 24.308 85.6883 24.847 86.2292 25.465C86.7682 26.081 87.0372 26.852 87.0372 27.772Z" fill="white"/>
<path d="M94.0862 23.5086H91.7362V28.1676C91.7362 29.3526 92.1502 29.9446 92.9802 29.9446C93.3612 29.9446 93.6772 29.9116 93.9272 29.8456L93.9862 31.4646C93.5662 31.6216 93.0132 31.7006 92.3282 31.7006C91.4862 31.7006 90.8282 31.4436 90.3532 30.9306C89.8802 30.4166 89.6422 29.5546 89.6422 28.3436V23.5066H88.2422V21.9066H89.6422V20.1496L91.7362 19.5176V21.9066H94.0862V23.5086Z" fill="white"/>
<path fill-rule="evenodd" clip-rule="evenodd" d="M103.424 30.2599C104.266 29.3129 104.688 28.1019 104.688 26.6269C104.688 25.1919 104.28 24.0209 103.462 23.1139C102.607 22.1789 101.474 21.7119 100.066 21.7119C98.6051 21.7119 97.4431 22.1859 96.5821 23.1339C95.7191 24.0809 95.2891 25.2989 95.2891 26.7859C95.2891 28.2069 95.7071 29.3859 96.5431 30.3199C97.3791 31.2539 98.5001 31.7209 99.9081 31.7209C101.369 31.7209 102.541 31.2349 103.424 30.2599ZM101.906 24.419C102.289 25.052 102.478 25.811 102.478 26.696C102.478 27.58 102.28 28.347 101.887 28.992C101.426 29.77 100.787 30.16 99.9728 30.16C99.1418 30.16 98.4978 29.778 98.0368 29.012C97.6538 28.38 97.4648 27.621 97.4648 26.736C97.4648 25.824 97.6538 25.053 98.0368 24.419C98.4838 23.654 99.1348 23.271 99.9918 23.271C100.82 23.271 101.459 23.653 101.906 24.419Z" fill="white"/>
<path d="M111.618 23.7829C111.407 23.7439 111.182 23.7239 110.946 23.7239C110.196 23.7239 109.616 24.0069 109.208 24.5739C108.853 25.0739 108.675 25.7059 108.675 26.4689V31.5039H106.544L106.564 24.9299C106.564 23.8239 106.537 22.8169 106.484 21.9089H108.341L108.419 23.7449H108.478C108.703 23.1139 109.058 22.6059 109.544 22.2249C110.019 21.8819 110.532 21.7109 111.085 21.7109C111.282 21.7109 111.46 21.7249 111.618 21.7499V23.7829Z" fill="white"/>
<path fill-rule="evenodd" clip-rule="evenodd" d="M121.075 27.2194C121.128 26.9564 121.153 26.6344 121.153 26.2524C121.153 25.0554 120.87 24.0474 120.307 23.2324C119.596 22.2064 118.549 21.6934 117.166 21.6934C115.758 21.6934 114.639 22.2064 113.811 23.2324C113.02 24.1934 112.625 25.3984 112.625 26.8454C112.625 28.3194 113.05 29.4944 113.898 30.3694C114.748 31.2444 115.916 31.6824 117.404 31.6824C118.641 31.6824 119.713 31.4854 120.621 31.0894L120.287 29.6094C119.51 29.9124 118.646 30.0634 117.699 30.0634C116.843 30.0634 116.146 29.8394 115.607 29.3924C115.013 28.8924 114.704 28.1674 114.679 27.2194H121.075ZM118.707 24.0604C118.996 24.5214 119.135 25.0674 119.121 25.6994V25.6984H114.68C114.745 25.0544 114.956 24.5014 115.311 24.0404C115.744 23.4604 116.311 23.1714 117.008 23.1714C117.771 23.1714 118.338 23.4674 118.707 24.0604Z" fill="white"/>
<path fill-rule="evenodd" clip-rule="evenodd" d="M44.4546 13.1538C45.8696 13.1538 46.9111 12.3188 47.0869 11.0664H46.1069C45.9312 11.7827 45.2939 12.2354 44.4546 12.2354C43.312 12.2354 42.6001 11.3081 42.6001 9.83154C42.6001 8.35059 43.312 7.42334 44.4502 7.42334C45.2852 7.42334 45.9224 7.92432 46.1069 8.70215H47.0869C46.9287 7.41016 45.8477 6.50488 44.4502 6.50488C42.688 6.50488 41.5938 7.7749 41.5938 9.83154C41.5938 11.8838 42.6924 13.1538 44.4546 13.1538ZM49.3784 10.1567V8.21436H48.4336V13H49.3784V10.9082H49.5938L51.3384 13H52.5161L50.3672 10.438L52.4282 8.21436H51.3164L49.5894 10.1567H49.3784ZM54.9385 12.2837C55.6504 12.2837 56.1777 11.8311 56.1777 11.2378V10.8379L55.0088 10.9126C54.3496 10.9565 54.0508 11.1807 54.0508 11.6025C54.0508 12.0332 54.4243 12.2837 54.9385 12.2837ZM54.7007 13.0791C53.7778 13.0791 53.1055 12.521 53.1055 11.6465C53.1055 10.7852 53.7471 10.2886 54.8853 10.2183L56.1816 10.1436V9.73047C56.1816 9.2251 55.8477 8.93945 55.2017 8.93945C54.6743 8.93945 54.3096 9.13281 54.2041 9.47119H53.29C53.3867 8.64941 54.1602 8.12207 55.2456 8.12207C56.4453 8.12207 57.1221 8.71973 57.1221 9.73047V13H56.2124V12.3276H56.1377C55.8521 12.8066 55.3291 13.0791 54.7007 13.0791ZM62.437 13V8.21436H61.4922V9.97656C61.3779 10.1479 61.0308 10.5215 60.3408 10.5215C59.7783 10.5215 59.4487 10.1523 59.4487 9.55908V8.21436H58.5039V9.64258C58.5039 10.6929 59.1235 11.3828 60.1606 11.3828C60.7671 11.3828 61.167 11.1455 61.4175 10.8994H61.4922V13H62.437ZM65.4541 12.2837C66.166 12.2837 66.6934 11.8311 66.6934 11.2378V10.8379L65.5244 10.9126C64.8652 10.9565 64.5664 11.1807 64.5664 11.6025C64.5664 12.0332 64.9399 12.2837 65.4541 12.2837ZM65.2085 13.0791C64.2856 13.0791 63.6133 12.521 63.6133 11.6465C63.6133 10.7852 64.2549 10.2886 65.3931 10.2183L66.6895 10.1436V9.73047C66.6895 9.2251 66.3555 8.93945 65.7095 8.93945C65.1821 8.93945 64.8174 9.13281 64.7119 9.47119H63.7979C63.8945 8.64941 64.668 8.12207 65.7534 8.12207C66.9531 8.12207 67.6299 8.71973 67.6299 9.73047V13H66.7202V12.3276H66.6455C66.3599 12.8066 65.8369 13.0791 65.2085 13.0791ZM72.5962 8.21436H68.6367V9.00977H70.144V13H71.0889V9.00977H72.5962V8.21436ZM75.437 10.4731H74.5977V12.2046H75.437C76.0083 12.2046 76.3774 11.8574 76.3774 11.3389C76.3774 10.8159 76.0083 10.4731 75.437 10.4731ZM73.9961 12.7856V8H74.9409V9.46777H75.8506C76.958 9.46777 77.6655 10.1138 77.6655 11.1245C77.6655 12.1396 76.958 12.7856 75.8506 12.7856H73.9961ZM82.9146 8.93945H81.8555V10.1787H82.8091C83.3804 10.1787 83.6528 9.95898 83.6528 9.55469C83.6528 9.18115 83.4155 8.93945 82.9146 8.93945ZM82.875 10.873H81.8555V12.2749H82.9937C83.5518 12.2749 83.8506 12.0288 83.8506 11.5762C83.8506 11.0972 83.5122 10.873 82.875 10.873ZM80.918 13V8.21436H83.0933C84.0293 8.21436 84.5786 8.68896 84.5786 9.43164C84.5786 9.91504 84.2358 10.3545 83.77 10.4424V10.5171C84.3896 10.5874 84.7939 11.04 84.7939 11.6201C84.7939 12.4551 84.1655 13 83.1152 13H80.918Z" fill="white"/>
</svg>
