<svg width="36" height="36" viewBox="0 0 36 36" fill="none" xmlns="http://www.w3.org/2000/svg">
<path fill-rule="evenodd" clip-rule="evenodd" d="M18 36C27.9411 36 36 27.9411 36 18C36 8.05887 27.9411 0 18 0C8.05887 0 0 8.05887 0 18C0 27.9411 8.05887 36 18 36Z" fill="#486EF4"/>
<path fill-rule="evenodd" clip-rule="evenodd" d="M12.3807 10.6074C11.2956 10.6074 10.5859 11.2988 10.5859 12.2079C10.5859 13.0972 11.2751 13.8096 12.3386 13.8096H12.3598C13.4658 13.8096 14.1537 13.0974 14.1537 12.2079C14.1329 11.2988 13.4658 10.6074 12.3807 10.6074ZM25.3787 19.0263V24.3389H22.2081V19.3821C22.2081 18.1369 21.7495 17.2871 20.6018 17.2871C19.7257 17.2871 19.2043 17.8598 18.975 18.4138C18.8913 18.6118 18.8698 18.8875 18.8698 19.1647V24.3389H15.6981C15.6981 24.3389 15.7408 15.9436 15.6981 15.0738H18.8695V16.3871C18.8664 16.3918 18.863 16.3966 18.8595 16.4014C18.8557 16.4067 18.8518 16.412 18.8486 16.417H18.8695V16.3871C19.2908 15.7567 20.0433 14.8562 21.7276 14.8562C23.8144 14.8561 25.3787 16.1804 25.3787 19.0263ZM13.9446 24.3389H10.7741V15.0738H13.9446V24.3389Z" fill="white"/>
</svg>
