<svg width="810" height="500" viewBox="0 0 810 500" fill="none" xmlns="http://www.w3.org/2000/svg">
<path d="M890 500H374.999L1 0H890V500Z" fill="#FFB80C"/>
<path d="M477.687 -46.6471L593.633 220.531L576.314 229.703L425.547 -19.0352L477.687 -46.6471Z" fill="#FFC82A"/>
<path d="M746.985 -28.0134L656.611 249.39L632.609 244.079L674.727 -44L746.985 -28.0134Z" fill="#FFC82A"/>
<path d="M158.701 -158.163L545.991 358.735L493.303 410.33L0.0859375 -2.83984L158.701 -158.163Z" fill="#FFC82A"/>
<path d="M934 330L669 273.321L934 241V330Z" fill="#FEC41B" stroke="#FFC728"/>
<path d="M984.107 78.5019L688.681 259.051L919.027 5.66514L984.107 78.5019Z" fill="#FEC41B" stroke="#FFC728"/>
<path d="M895.773 466.518L690.782 292.788L926.834 417.536L895.773 466.518Z" fill="#FEC41B" stroke="#FFC728"/>
<path d="M755.819 555.965L627.206 256.25L834.656 502.958L755.819 555.965Z" fill="#FEC41B" stroke="#FFC728"/>
<path d="M229.501 304.381L521.188 158.473L287.024 379.986L229.501 304.381Z" fill="#FEC41B" stroke="#FFC728"/>
<g opacity="0.24">
<path d="M506.653 294.252C506.841 288.861 510.592 283.939 515.679 282.437C521.633 280.69 526.181 283.053 530.963 290.461C532.511 286.105 535.371 283.151 539.543 281.477C532.862 277.268 530.401 272.37 531.713 266.217C532.886 260.728 537.223 256.593 542.38 256.051C548.569 255.387 552.953 258.537 556.071 265.921C558.579 259.054 562.869 255.756 568.917 256.002C574.121 256.199 578.763 260.039 580.263 265.355C581.998 271.607 579.795 276.407 573.043 281.33C574.614 282.486 576.395 283.496 577.779 284.948C579.185 286.425 580.193 288.344 581.342 290.018C585.702 283.2 590.156 280.813 595.947 282.29C600.987 283.594 604.832 288 605.441 293.144C605.84 296.516 605.23 299.667 603.378 302.497C601.55 305.279 598.994 307.002 595.783 307.962C603.026 311.481 606.144 315.813 605.535 321.819C605.324 323.862 604.738 326.003 603.777 327.751C602.839 329.449 601.339 331 599.768 332.108C598.197 333.215 596.251 333.707 594.634 334.397C602.018 336.784 605.582 341.338 605.136 348.008C604.738 353.866 600.518 358.641 594.798 359.576C591.446 360.118 588.398 359.183 585.702 357.041C582.959 354.851 581.6 351.799 580.943 348.008C579.795 355.121 575.973 359.06 569.386 360.29C577.146 362.899 580.779 367.699 579.982 374.025C579.209 380.129 574.684 384.658 568.964 385.002C563.432 385.347 558.251 381.335 556.961 375.674C556.305 372.819 556.563 370.037 557.782 367.404C559.681 363.293 562.986 361.152 567.182 360.29C561.556 359.355 557.946 356.057 556.141 350.494C552.554 357.952 548.686 360.659 542.45 360.093C537.645 359.65 533.12 355.86 531.924 350.814C530.143 343.405 533.003 338.113 539.473 334.594C535.3 332.944 532.604 329.942 530.963 325.733C527.166 332.403 522.524 335.086 516.921 333.978C511.693 332.944 507.427 328.612 506.841 323.148C505.997 315.321 509.654 310.448 516.734 308.035C509.677 305.328 506.489 300.897 506.723 294.301L506.653 294.252ZM581.201 299.568C579.771 303.359 577.568 306.042 574.028 307.962C577.45 309.857 579.748 312.49 581.178 316.281C583.1 312.023 585.937 309.266 590.18 308.011C586.007 306.657 583.03 303.974 581.178 299.568H581.201ZM580.826 345.768C582.022 339.319 585.655 335.455 592.266 334.224C586.898 333.461 583.452 330.729 581.248 325.757C579.537 329.966 576.911 332.871 572.785 334.569C577.38 336.932 580.17 340.476 580.85 345.768H580.826ZM556 343.824C557.336 339.442 559.798 336.464 563.807 334.618C560.243 333.117 557.758 330.828 556 327.431C554.172 330.877 551.71 333.166 548.1 334.569C552.085 336.415 554.687 339.319 556 343.824ZM561.72 307.962C559.868 306.017 557.829 303.9 556 302.005C554.219 303.851 552.156 305.992 550.233 308.011C552.038 309.857 554.148 311.998 556 313.893C557.805 312.023 559.845 309.906 561.72 307.986V307.962ZM555.977 288.64C558.555 284.505 559.751 283.397 563.924 281.354C559.915 279.508 557.29 276.505 556.047 271.804C554.734 276.505 552.156 279.557 547.912 281.403C551.64 282.856 554.242 285.243 555.977 288.64ZM530.846 316.552C532.3 312.589 534.597 309.881 538.137 307.962C534.644 306.042 532.253 303.31 530.87 299.298C529.018 303.925 525.947 306.706 521.047 307.962C525.806 309.241 528.924 311.875 530.823 316.552H530.846Z" fill="#E31E24"/>
<path d="M518.958 334.348C525.71 334.471 531.125 339.492 531.101 347.024C531.078 355.048 525.1 359.577 519.075 359.626C512.488 359.676 507.049 353.965 507.002 347.049C506.979 340.157 512.394 334.225 518.958 334.323V334.348Z" fill="#E31E24"/>
<path d="M592.997 281.671C585.918 281.671 581.159 276.133 580.971 269.044C580.784 262.201 586.41 256.417 592.974 256.393C599.561 256.368 605.047 262.029 605.07 268.946C605.07 275.345 600.687 281.695 593.021 281.671H592.997Z" fill="#E31E24"/>
<path d="M519.075 281.671C512.558 281.695 507.049 275.936 507.026 269.044C507.026 262.152 512.441 256.417 519.005 256.393C525.546 256.393 531.055 262.103 531.078 268.97C531.101 275.788 525.592 281.622 519.052 281.646L519.075 281.671Z" fill="#E31E24"/>
<path d="M617.802 308.727C624.225 308.727 629.523 314.289 629.5 321.033C629.5 327.778 624.202 333.34 617.779 333.316C611.355 333.316 606.057 327.753 606.081 321.009C606.081 314.265 611.379 308.702 617.802 308.727Z" fill="#E31E24"/>
<path d="M543.81 360.363C551.217 360.363 555.461 366.443 555.508 372.67C555.554 379.414 550.233 384.977 543.786 384.977C537.363 384.977 532.065 379.414 532.065 372.67C532.158 366.443 536.378 360.363 543.786 360.363H543.81Z" fill="#E31E24"/>
<path d="M617.849 307.297C611.449 307.346 606.104 301.783 606.104 295.039C606.104 288.32 611.402 282.732 617.825 282.732C624.249 282.732 629.547 288.344 629.5 295.064C629.453 301.734 624.225 307.248 617.872 307.272L617.849 307.297Z" fill="#E31E24"/>
<path d="M543.763 255.633C537.41 255.559 532.182 250.046 532.159 243.376C532.159 236.705 537.34 231.192 543.716 231.118C550.093 231.044 555.461 236.607 555.484 243.351C555.484 250.046 550.116 255.707 543.763 255.633Z" fill="#E31E24"/>
<path d="M494.247 282.78C500.647 282.73 505.992 288.342 505.945 295.062C505.922 301.732 500.694 307.221 494.341 307.27C487.941 307.319 482.596 301.708 482.643 294.988C482.666 288.318 487.894 282.829 494.247 282.78Z" fill="#E31E24"/>
<path d="M568.408 255.659C562.172 255.831 556.663 250.121 556.616 243.426C556.569 236.78 561.75 231.242 568.15 231.119C574.456 230.996 579.777 236.411 579.942 243.131C580.106 249.752 574.854 255.462 568.431 255.659H568.408Z" fill="#E31E24"/>
<path d="M494.271 308.773C500.67 308.773 505.992 314.385 505.945 321.08C505.898 327.775 500.647 333.239 494.294 333.264C487.894 333.264 482.573 327.652 482.619 320.957C482.666 314.262 487.918 308.798 494.271 308.773Z" fill="#E31E24"/>
<path d="M593.083 360.707C599.272 360.757 604.383 366.122 604.383 372.62C604.383 379.192 599.249 384.632 592.99 384.632C586.73 384.632 581.573 379.192 581.596 372.62C581.62 366.049 586.824 360.658 593.06 360.707H593.083Z" fill="#E31E24"/>
<path d="M617.708 335.061C623.968 335.012 629.148 340.427 629.172 346.998C629.172 353.497 624.132 358.912 617.919 358.985C611.684 359.084 606.432 353.718 606.385 347.146C606.315 340.599 611.449 335.11 617.708 335.061Z" fill="#E31E24"/>
<path d="M519.083 361.078C525.272 361.103 530.383 366.469 530.406 372.967C530.43 379.514 525.249 384.978 519.013 384.953C512.824 384.929 507.714 379.563 507.69 373.065C507.667 366.518 512.848 361.054 519.083 361.078Z" fill="#E31E24"/>
<path d="M494.161 335.085C500.373 334.987 505.625 340.377 505.672 346.949C505.718 353.422 500.655 358.837 494.442 358.936C488.23 359.034 482.979 353.644 482.932 347.072C482.885 340.599 487.949 335.184 494.161 335.085Z" fill="#E31E24"/>
<path d="M617.801 280.961C611.613 280.961 606.502 275.645 606.432 269.122C606.361 262.599 611.542 257.111 617.778 257.086C623.967 257.086 629.077 262.402 629.148 268.925C629.218 275.448 624.037 280.937 617.801 280.961Z" fill="#E31E24"/>
<path d="M593.13 255.284C586.918 255.382 581.69 249.942 581.667 243.395C581.643 236.922 586.707 231.507 592.919 231.433C599.132 231.335 604.359 236.774 604.383 243.321C604.406 249.795 599.343 255.21 593.13 255.284Z" fill="#E31E24"/>
<path d="M494.231 280.91C488.019 280.861 482.908 275.446 482.979 268.948C483.025 262.426 488.183 257.06 494.372 257.134C500.584 257.183 505.695 262.598 505.624 269.096C505.577 275.618 500.42 280.984 494.231 280.91Z" fill="#E31E24"/>
<path d="M519.013 255.238C512.8 255.213 507.69 249.823 507.737 243.3C507.76 236.778 512.894 231.412 519.107 231.461C525.319 231.486 530.429 236.876 530.382 243.399C530.359 249.922 525.225 255.287 519.013 255.238Z" fill="#E31E24"/>
<path d="M642.529 283.664C648.507 283.664 653.336 288.685 653.336 294.962C653.336 301.263 648.577 306.333 642.623 306.358C636.621 306.382 631.769 301.386 631.722 295.134C631.675 288.759 636.481 283.664 642.529 283.664Z" fill="#E31E24"/>
<path d="M617.7 361.324C623.702 361.3 628.554 366.296 628.578 372.548C628.625 378.849 623.889 383.969 617.935 384.018C611.91 384.067 607.034 379.12 606.964 372.868C606.893 366.469 611.652 361.349 617.7 361.324Z" fill="#E31E24"/>
<path d="M642.458 309.66C648.459 309.636 653.312 314.632 653.336 320.884C653.382 327.185 648.624 332.305 642.693 332.354C636.668 332.403 631.792 327.456 631.721 321.204C631.651 314.804 636.41 309.685 642.458 309.66Z" fill="#E31E24"/>
<path d="M543.771 387.34C549.772 387.34 554.601 392.312 554.648 398.588C554.672 404.889 549.936 409.984 543.982 410.034C537.91 410.083 533.034 405.062 533.034 398.711C533.034 392.435 537.816 387.364 543.794 387.34H543.771Z" fill="#E31E24"/>
<path d="M568.099 387.34C574.171 387.291 579.047 392.312 579.07 398.638C579.07 404.939 574.311 410.009 568.334 410.034C562.332 410.059 557.479 405.062 557.456 398.81C557.409 392.509 562.145 387.389 568.099 387.34Z" fill="#E31E24"/>
<path d="M617.802 254.699C611.848 254.699 606.995 249.629 606.995 243.402C606.995 237.15 611.824 232.055 617.755 232.055C623.71 232.055 628.562 237.125 628.562 243.352C628.562 249.604 623.733 254.699 617.802 254.699Z" fill="#E31E24"/>
<path d="M494.279 361.693C500.233 361.693 505.086 366.764 505.086 373.016C505.086 379.268 500.257 384.363 494.302 384.363C488.348 384.363 483.495 379.292 483.495 373.04C483.495 366.788 488.324 361.693 494.279 361.693Z" fill="#E31E24"/>
<path d="M494.302 254.675C488.395 254.675 483.519 249.555 483.542 243.328C483.542 237.125 488.465 232.03 494.396 232.055C500.257 232.104 505.062 237.174 505.086 243.328C505.086 249.53 500.233 254.675 494.326 254.675H494.302Z" fill="#E31E24"/>
<path d="M469.498 283.718C475.405 283.718 480.305 288.813 480.305 295.016C480.305 301.169 475.499 306.264 469.662 306.313C463.731 306.387 458.808 301.317 458.761 295.089C458.714 288.862 463.567 283.718 469.498 283.693V283.718Z" fill="#E31E24"/>
<path d="M469.568 309.705C475.428 309.705 480.257 314.776 480.281 320.929C480.328 327.156 475.475 332.301 469.544 332.325C463.637 332.325 458.737 327.23 458.737 321.003C458.737 314.8 463.637 309.681 469.544 309.705H469.568Z" fill="#E31E24"/>
<path d="M543.787 228.658C537.879 228.658 533.026 223.489 533.05 217.262C533.097 211.059 538.02 205.964 543.927 206.038C549.788 206.112 554.57 211.182 554.57 217.336C554.57 223.538 549.694 228.658 543.763 228.633L543.787 228.658Z" fill="#E31E24"/>
<path d="M568.318 228.657C562.41 228.682 557.51 223.587 557.487 217.359C557.487 211.157 562.363 206.037 568.294 206.037C574.155 206.037 578.984 211.108 579.031 217.236C579.078 223.464 574.225 228.608 568.318 228.632V228.657Z" fill="#E31E24"/>
<path d="M642.63 335.943C648.468 335.968 653.086 340.841 653.109 346.97C653.109 353.173 648.468 358.096 642.56 358.096C636.653 358.096 631.987 353.173 632.011 346.995C632.011 340.817 636.723 335.919 642.63 335.968V335.943Z" fill="#E31E24"/>
<path d="M593.091 387.609C598.975 387.634 603.617 392.606 603.57 398.809C603.523 404.913 598.858 409.762 593.021 409.762C587.113 409.762 582.448 404.839 582.471 398.661C582.471 392.483 587.183 387.585 593.091 387.634V387.609Z" fill="#E31E24"/>
<path d="M519.028 387.609C524.865 387.609 529.53 392.409 529.601 398.538C529.671 404.74 525.053 409.712 519.169 409.762C513.261 409.811 508.549 404.937 508.526 398.759C508.502 392.557 513.144 387.634 519.052 387.609H519.028Z" fill="#E31E24"/>
<path d="M469.239 335.969C475.17 335.846 479.976 340.646 480.046 346.775C480.116 352.928 475.592 357.924 469.825 358.048C463.894 358.171 459.088 353.371 459.018 347.242C458.948 341.089 463.472 336.092 469.239 335.969Z" fill="#E31E24"/>
<path d="M642.623 280.049C636.715 280.074 632.027 275.176 632.027 268.998C632.027 262.894 636.645 257.995 642.459 257.971C648.366 257.946 653.055 262.82 653.055 269.022C653.055 275.127 648.436 280.025 642.623 280.049Z" fill="#E31E24"/>
<path d="M592.998 228.409C587.184 228.409 582.519 223.535 582.495 217.431C582.495 211.228 587.137 206.33 593.021 206.33C598.835 206.33 603.5 211.204 603.523 217.308C603.523 223.51 598.882 228.409 592.998 228.409Z" fill="#E31E24"/>
<path d="M469.498 280.023C463.707 280.023 459.042 275.101 459.042 268.996C459.042 262.917 463.707 257.994 469.498 257.994C475.311 257.994 480 262.868 480.023 268.923C480.047 275.101 475.358 280.023 469.498 280.023Z" fill="#E31E24"/>
<path d="M518.935 228.356C513.168 228.307 508.527 223.384 508.55 217.28C508.55 211.201 513.262 206.327 519.076 206.352C524.866 206.352 529.531 211.274 529.531 217.354C529.531 223.507 524.819 228.405 518.935 228.381V228.356Z" fill="#E31E24"/>
<path d="M642.529 362.033C648.061 362.033 652.656 366.759 652.679 372.568C652.726 378.451 648.155 383.299 642.552 383.324C637.02 383.324 632.425 378.598 632.401 372.789C632.354 366.907 636.926 362.058 642.529 362.033Z" fill="#E31E24"/>
<path d="M617.708 388.027C623.264 388.003 627.859 392.704 627.929 398.513C627.999 404.42 623.451 409.294 617.872 409.318C612.316 409.343 607.721 404.642 607.651 398.833C607.581 392.926 612.128 388.052 617.708 388.027Z" fill="#E31E24"/>
<path d="M469.505 362.383C475.085 362.383 479.703 367.256 479.656 373.09C479.609 378.899 474.991 383.649 469.482 383.624C463.973 383.6 459.401 378.775 459.425 372.991C459.425 367.207 463.996 362.407 469.505 362.383Z" fill="#E31E24"/>
<path d="M617.801 227.99C612.292 227.99 607.697 223.215 607.674 217.431C607.65 211.647 612.175 206.822 617.707 206.748C623.216 206.699 627.835 211.425 627.928 217.234C628.022 223.067 623.404 227.99 617.824 227.99H617.801Z" fill="#E31E24"/>
<path d="M642.623 253.984C637.043 254.033 632.402 249.159 632.425 243.326C632.449 237.542 637.02 232.742 642.552 232.742C648.061 232.742 652.633 237.542 652.656 243.326C652.656 249.11 648.132 253.935 642.623 253.984Z" fill="#E31E24"/>
<path d="M494.279 388.051C499.788 388.051 504.382 392.801 504.429 398.61C504.476 404.394 499.928 409.243 494.419 409.292C488.84 409.366 484.198 404.517 484.198 398.659C484.198 392.875 488.77 388.075 494.302 388.051H494.279Z" fill="#E31E24"/>
<path d="M469.52 253.936C464.011 253.936 459.416 249.087 459.439 243.303C459.463 237.494 464.104 232.695 469.59 232.768C475.123 232.842 479.694 237.716 479.6 243.475C479.506 249.235 474.982 253.936 469.52 253.936Z" fill="#E31E24"/>
<path d="M494.492 227.941C489.077 228.089 484.482 223.51 484.224 217.677C483.99 211.967 488.444 206.995 494.023 206.773C499.485 206.552 504.197 211.253 504.385 217.111C504.573 222.846 500.071 227.769 494.492 227.941Z" fill="#E31E24"/>
<path d="M568.411 414.292C573.92 414.218 578.374 418.722 578.444 424.457C578.515 430.315 574.178 435.017 568.645 435.041C563.136 435.066 558.729 430.537 558.682 424.802C558.635 419.018 562.949 414.366 568.388 414.292H568.411Z" fill="#E31E24"/>
<path d="M543.623 414.29C549.202 414.216 553.656 418.77 553.68 424.579C553.703 430.363 549.39 434.99 543.904 435.015C538.395 435.064 533.964 430.535 533.917 424.8C533.87 419.016 538.16 414.339 543.599 414.266L543.623 414.29Z" fill="#E31E24"/>
<path d="M667.169 284.651C672.678 284.602 677.109 289.106 677.179 294.841C677.249 300.699 672.889 305.375 667.356 305.4C661.847 305.4 657.463 300.871 657.417 295.136C657.393 289.352 661.707 284.725 667.169 284.675V284.651Z" fill="#E31E24"/>
<path d="M667.24 310.643C672.749 310.643 677.132 315.171 677.179 320.906C677.226 326.691 672.913 331.318 667.427 331.392C661.848 331.441 657.417 326.863 657.417 321.03C657.417 315.27 661.754 310.667 667.24 310.643Z" fill="#E31E24"/>
<path d="M445.185 310.667C450.577 310.692 454.938 315.319 454.938 320.98C454.938 326.74 450.554 331.367 445.068 331.343C439.582 331.343 435.222 326.691 435.222 320.931C435.222 315.196 439.676 310.618 445.162 310.643L445.185 310.667Z" fill="#E31E24"/>
<path d="M568.263 201.704C562.778 201.704 558.394 197.077 558.394 191.317C558.394 185.582 562.825 180.979 568.31 181.004C573.702 181.029 578.086 185.631 578.086 191.293C578.086 197.052 573.726 201.679 568.24 201.679L568.263 201.704Z" fill="#E31E24"/>
<path d="M444.81 284.697C450.179 284.697 454.586 289.349 454.586 294.986C454.586 300.696 450.155 305.373 444.717 305.348C439.348 305.348 434.941 300.696 434.941 295.06C434.941 289.349 439.372 284.673 444.81 284.697Z" fill="#E31E24"/>
<path d="M543.881 201.678C538.418 201.703 533.964 197.076 533.964 191.341C533.964 185.704 538.348 181.052 543.717 181.027C549.179 181.003 553.633 185.63 553.633 191.365C553.633 197.002 549.249 201.654 543.881 201.678Z" fill="#E31E24"/>
<path d="M519.059 414.461C524.427 414.461 528.881 419.187 528.788 424.799C528.694 430.411 524.263 434.964 518.989 434.89C513.644 434.816 509.307 430.214 509.33 424.626C509.354 419.039 513.737 414.461 519.059 414.461Z" fill="#E31E24"/>
<path d="M667.222 336.806C672.497 336.732 676.927 341.261 677.045 346.873C677.162 352.46 672.708 357.21 667.339 357.235C662.041 357.235 657.634 352.681 657.587 347.069C657.54 341.507 661.877 336.879 667.222 336.806Z" fill="#E31E24"/>
<path d="M592.99 414.461C598.288 414.461 602.695 419.014 602.742 424.626C602.789 430.189 598.452 434.816 593.107 434.89C587.762 434.989 583.261 430.288 583.284 424.651C583.284 419.064 587.668 414.486 592.99 414.461Z" fill="#E31E24"/>
<path d="M445.021 336.882C450.366 336.833 454.703 341.337 454.726 346.949C454.773 352.561 450.483 357.114 445.115 357.139C439.77 357.188 435.433 352.684 435.409 347.047C435.362 341.436 439.652 336.882 444.997 336.857L445.021 336.882Z" fill="#E31E24"/>
<path d="M667.357 279.165C662.012 279.189 657.675 274.71 657.652 269.073C657.628 263.461 661.895 258.908 667.263 258.883C672.608 258.858 676.945 263.338 676.969 268.975C676.992 274.586 672.726 279.14 667.357 279.165Z" fill="#E31E24"/>
<path d="M444.717 279.115C439.395 279.09 435.175 274.66 435.175 269.048C435.175 263.387 439.442 258.907 444.834 258.932C450.155 258.956 454.375 263.387 454.375 268.999C454.375 274.66 450.108 279.14 444.717 279.115Z" fill="#E31E24"/>
<path d="M593.162 201.433C587.747 201.507 583.457 197.076 583.433 191.415C583.41 185.803 587.582 181.348 592.904 181.274C598.319 181.201 602.609 185.631 602.633 191.292C602.656 196.904 598.483 201.359 593.162 201.433Z" fill="#E31E24"/>
<path d="M519.006 201.431C513.684 201.407 509.464 196.976 509.464 191.364C509.464 185.703 513.731 181.224 519.123 181.248C524.444 181.273 528.664 185.703 528.664 191.315C528.664 196.976 524.397 201.456 519.006 201.431Z" fill="#E31E24"/>
<path d="M642.318 388.693C647.639 388.595 652 393.025 652.046 398.588C652.093 404.077 647.874 408.63 642.669 408.679C637.418 408.753 633.081 404.347 633.011 398.883C632.941 393.37 637.113 388.816 642.318 388.693Z" fill="#E31E24"/>
<path d="M469.615 388.717C474.819 388.766 479.086 393.32 479.039 398.76C478.992 404.224 474.655 408.703 469.474 408.654C464.27 408.605 460.003 404.051 460.05 398.612C460.097 393.148 464.434 388.668 469.615 388.717Z" fill="#E31E24"/>
<path d="M642.482 227.322C637.278 227.297 633.011 222.768 633.035 217.304C633.058 211.84 637.372 207.36 642.576 207.385C647.78 207.409 652.047 211.938 652.023 217.403C652 222.867 647.686 227.347 642.482 227.322Z" fill="#E31E24"/>
<path d="M469.544 227.279C464.41 227.279 460.143 222.873 460.073 217.458C460.003 212.043 464.316 207.441 469.52 207.416C474.654 207.416 478.921 211.822 478.991 217.237C479.062 222.652 474.748 227.255 469.544 227.279Z" fill="#E31E24"/>
<path d="M493.997 414.931C499.272 414.783 503.491 419.017 503.585 424.481C503.655 429.921 499.67 434.302 494.513 434.4C489.308 434.499 485.136 430.339 485.018 424.924C484.901 419.46 488.863 415.054 493.997 414.906V414.931Z" fill="#E31E24"/>
<path d="M617.708 414.932C622.889 414.883 627.015 419.116 627.086 424.556C627.132 430.069 623.053 434.426 617.802 434.426C612.621 434.426 608.542 430.168 608.519 424.728C608.519 419.289 612.551 414.981 617.708 414.932Z" fill="#E31E24"/>
<path d="M667.193 362.923C672.444 362.874 676.594 367.181 676.594 372.67C676.594 378.11 672.515 382.392 667.334 382.392C662.153 382.392 658.051 378.134 658.027 372.719C658.004 367.28 662.036 362.948 667.193 362.898V362.923Z" fill="#E31E24"/>
<path d="M667.053 252.779C661.801 252.804 657.676 248.472 657.699 242.983C657.722 237.568 661.825 233.285 666.982 233.285C672.163 233.285 676.242 237.568 676.242 243.008C676.242 248.447 672.187 252.755 667.029 252.779H667.053Z" fill="#E31E24"/>
<path d="M617.732 201.065C612.575 201.065 608.519 196.733 608.543 191.293C608.543 185.878 612.669 181.62 617.849 181.645C623.007 181.645 627.062 185.977 627.039 191.416C627.039 196.831 622.913 201.089 617.732 201.065Z" fill="#E31E24"/>
<path d="M445.076 363.32C450.233 363.32 454.336 367.578 454.336 372.993C454.336 378.409 450.28 382.716 445.123 382.716C439.966 382.716 435.863 378.458 435.863 373.043C435.863 367.628 439.919 363.32 445.076 363.32Z" fill="#E31E24"/>
<path d="M494.42 201.04C489.262 201.089 485.09 196.807 485.09 191.416C485.09 186.075 489.122 181.743 494.185 181.694C499.343 181.645 503.516 185.927 503.516 191.318C503.516 196.659 499.483 200.991 494.42 201.04Z" fill="#E31E24"/>
<path d="M444.951 253.023C439.77 253.097 435.574 248.839 435.55 243.473C435.503 238.107 439.535 233.751 444.576 233.677C449.756 233.603 453.953 237.861 453.976 243.227C454.023 248.593 449.991 252.949 444.951 253.023Z" fill="#E31E24"/>
<path d="M543.81 441.316C548.733 441.316 552.695 445.427 552.742 450.571C552.766 455.838 548.827 460.023 543.834 460.023C538.911 460.023 534.949 455.912 534.902 450.768C534.879 445.501 538.817 441.316 543.81 441.316Z" fill="#E31E24"/>
<path d="M568.568 441.316C573.491 441.316 577.453 445.427 577.476 450.596C577.5 455.863 573.562 460.047 568.568 460.047C563.645 460.047 559.683 455.937 559.66 450.768C559.636 445.501 563.575 441.316 568.568 441.316Z" fill="#E31E24"/>
<path d="M691.764 285.658C696.687 285.658 700.648 289.793 700.648 294.962C700.648 300.229 696.71 304.389 691.717 304.389C686.794 304.389 682.832 300.254 682.832 295.085C682.832 289.818 686.77 285.658 691.764 285.658Z" fill="#E31E24"/>
<path d="M691.74 311.652C696.663 311.652 700.625 315.763 700.648 320.932C700.672 326.199 696.733 330.383 691.74 330.383C686.817 330.383 682.855 326.273 682.832 321.104C682.808 315.837 686.747 311.652 691.74 311.652Z" fill="#E31E24"/>
<path d="M420.318 311.676C425.218 311.676 429.203 315.811 429.227 320.955C429.227 326.099 425.312 330.308 420.436 330.333C415.466 330.382 411.433 326.198 411.457 320.98C411.457 315.835 415.442 311.676 420.342 311.676H420.318Z" fill="#E31E24"/>
<path d="M420.201 285.682C425.194 285.633 429.227 289.793 429.227 294.986C429.227 300.13 425.288 304.315 420.389 304.339C415.489 304.339 411.48 300.229 411.457 295.109C411.41 289.94 415.348 285.731 420.201 285.682Z" fill="#E31E24"/>
<path d="M543.787 174.699C538.887 174.699 534.925 170.515 534.925 165.371C534.925 160.227 538.864 156.042 543.763 156.018C548.663 156.018 552.671 160.128 552.695 165.248C552.742 170.466 548.757 174.699 543.787 174.675V174.699Z" fill="#E31E24"/>
<path d="M568.264 174.699C563.294 174.699 559.308 170.491 559.355 165.248C559.402 160.128 563.387 155.993 568.31 156.018C573.187 156.042 577.148 160.227 577.125 165.371C577.125 170.515 573.14 174.675 568.264 174.675V174.699Z" fill="#E31E24"/>
<path d="M666.935 226.586C662.13 226.537 658.168 222.353 658.191 217.331C658.238 212.286 662.223 208.126 667.006 208.15C671.811 208.2 675.773 212.384 675.75 217.405C675.703 222.451 671.718 226.611 666.935 226.586Z" fill="#E31E24"/>
<path d="M667.216 389.458C671.998 389.384 676.007 393.519 676.077 398.59C676.148 403.611 672.209 407.82 667.38 407.894C662.598 407.967 658.589 403.832 658.519 398.762C658.448 393.741 662.387 389.532 667.216 389.458Z" fill="#E31E24"/>
<path d="M519.061 441.441C523.866 441.441 527.852 445.626 527.852 450.647C527.852 455.693 523.866 459.877 519.084 459.877C514.278 459.877 510.293 455.693 510.293 450.672C510.293 445.626 514.278 441.441 519.061 441.441Z" fill="#E31E24"/>
<path d="M592.99 441.442C597.772 441.417 601.781 445.577 601.805 450.622C601.828 455.644 597.866 459.853 593.06 459.877C588.278 459.902 584.269 455.742 584.246 450.696C584.222 445.675 588.184 441.466 592.99 441.442Z" fill="#E31E24"/>
<path d="M691.81 278.254C687.028 278.304 683.019 274.144 682.972 269.098C682.925 264.077 686.887 259.868 691.693 259.819C696.475 259.77 700.484 263.929 700.531 268.975C700.578 273.996 696.616 278.205 691.81 278.254Z" fill="#E31E24"/>
<path d="M691.779 337.791C696.585 337.84 700.547 342.025 700.523 347.046C700.476 352.092 696.491 356.251 691.709 356.227C686.903 356.178 682.941 351.993 682.965 346.972C683.012 341.926 686.997 337.767 691.779 337.791Z" fill="#E31E24"/>
<path d="M642.553 415.447C647.358 415.447 651.344 419.632 651.32 424.677C651.32 429.723 647.335 433.908 642.529 433.883C637.723 433.883 633.738 429.699 633.762 424.653C633.762 419.607 637.747 415.423 642.553 415.447Z" fill="#E31E24"/>
<path d="M469.474 415.448C474.256 415.398 478.265 419.558 478.312 424.604C478.359 429.625 474.397 433.834 469.591 433.883C464.809 433.933 460.8 429.773 460.753 424.727C460.707 419.706 464.668 415.497 469.474 415.448Z" fill="#E31E24"/>
<path d="M444.882 389.533C449.664 389.386 453.603 393.299 453.79 398.37C453.978 403.44 450.18 407.674 445.304 407.821C440.522 407.969 436.583 404.055 436.396 398.985C436.208 393.915 440.006 389.681 444.882 389.533Z" fill="#E31E24"/>
<path d="M420.295 337.867C425.147 337.843 429.062 341.953 429.039 347.048C429.016 352.143 425.054 356.229 420.224 356.155C415.419 356.081 411.621 351.996 411.644 346.974C411.668 341.929 415.512 337.892 420.318 337.867H420.295Z" fill="#E31E24"/>
<path d="M444.795 226.441C439.966 226.441 436.145 222.454 436.145 217.383C436.145 212.313 439.942 208.301 444.771 208.301C449.601 208.301 453.422 212.288 453.422 217.359C453.422 222.429 449.624 226.441 444.795 226.441Z" fill="#E31E24"/>
<path d="M469.545 200.448C464.716 200.448 460.895 196.461 460.871 191.39C460.871 186.32 464.669 182.308 469.498 182.283C474.327 182.283 478.148 186.271 478.172 191.341C478.172 196.411 474.374 200.423 469.545 200.448Z" fill="#E31E24"/>
<path d="M642.765 200.495C637.982 200.643 634.021 196.754 633.833 191.683C633.646 186.613 637.42 182.379 642.296 182.207C647.078 182.06 651.04 185.948 651.228 191.019C651.415 196.089 647.641 200.323 642.765 200.495Z" fill="#E31E24"/>
<path d="M593.322 174.507C588.493 174.704 584.461 170.741 584.32 165.621C584.18 160.6 587.884 156.44 592.713 156.243C597.542 156.046 601.574 160.009 601.715 165.129C601.856 170.15 598.152 174.31 593.322 174.507Z" fill="#E31E24"/>
<path d="M519.123 174.429C514.27 174.453 510.449 170.49 510.402 165.42C510.379 160.325 514.153 156.313 518.982 156.264C523.835 156.239 527.656 160.202 527.703 165.272C527.726 170.367 523.952 174.379 519.123 174.429Z" fill="#E31E24"/>
<path d="M420.287 278.106C415.458 278.106 411.66 274.07 411.683 268.975C411.683 263.904 415.528 259.917 420.381 259.942C425.21 259.942 429.008 263.978 428.984 269.073C428.984 274.144 425.14 278.131 420.287 278.106Z" fill="#E31E24"/>
<path d="M691.662 363.786C696.28 363.712 700.172 367.774 700.219 372.647C700.242 377.496 696.374 381.582 691.732 381.582C687.091 381.582 683.223 377.496 683.27 372.647C683.316 367.823 687.067 363.86 691.662 363.786Z" fill="#E31E24"/>
<path d="M617.654 441.858C622.319 441.785 626.141 445.723 626.164 450.645C626.187 455.494 622.507 459.433 617.889 459.506C613.224 459.58 609.402 455.642 609.379 450.719C609.355 445.87 613.036 441.932 617.654 441.858Z" fill="#E31E24"/>
<path d="M494.348 441.857C499.037 441.906 502.787 445.918 502.694 450.816C502.6 455.69 498.849 459.53 494.231 459.48C489.589 459.431 485.909 455.542 485.885 450.669C485.885 445.746 489.659 441.783 494.348 441.832V441.857Z" fill="#E31E24"/>
<path d="M420.177 364.253C424.865 364.179 428.593 367.97 428.663 372.843C428.733 377.766 425.123 381.679 420.482 381.753C415.793 381.827 412.066 378.037 411.995 373.163C411.925 368.24 415.535 364.327 420.177 364.253Z" fill="#E31E24"/>
<path d="M420.271 252.114C415.606 252.089 411.973 248.2 411.996 243.302C412.02 238.404 415.724 234.589 420.389 234.613C425.054 234.638 428.687 238.527 428.664 243.425C428.641 248.323 424.937 252.138 420.271 252.114Z" fill="#E31E24"/>
<path d="M691.623 251.84C686.981 251.742 683.324 247.828 683.348 242.979C683.371 238.106 687.075 234.242 691.717 234.217C696.405 234.192 700.18 238.18 700.156 243.078C700.133 248.001 696.312 251.939 691.623 251.84Z" fill="#E31E24"/>
<path d="M617.732 174.114C613.067 174.089 609.434 170.2 609.457 165.302C609.481 160.404 613.184 156.589 617.85 156.613C622.515 156.638 626.148 160.527 626.125 165.425C626.101 170.323 622.397 174.138 617.732 174.114Z" fill="#E31E24"/>
<path d="M494.326 174.06C489.731 174.06 486.051 170.27 486.004 165.47C485.957 160.547 489.614 156.658 494.255 156.658C498.85 156.658 502.531 160.449 502.578 165.248C502.625 170.171 498.967 174.06 494.326 174.06Z" fill="#E31E24"/>
<path d="M667.216 416.187C671.67 416.137 675.28 419.854 675.374 424.531C675.444 429.281 671.811 433.121 667.286 433.121C662.832 433.121 659.245 429.38 659.222 424.678C659.198 420.002 662.738 416.211 667.216 416.162V416.187Z" fill="#E31E24"/>
<path d="M667.052 199.756C662.551 199.781 658.988 196.114 658.965 191.388C658.965 186.662 662.481 182.945 666.982 182.945C671.413 182.945 674.929 186.588 674.976 191.24C675.023 195.991 671.53 199.732 667.029 199.756H667.052Z" fill="#E31E24"/>
<path d="M445.053 416.262C449.554 416.262 453.117 419.929 453.117 424.655C453.117 429.307 449.671 433.024 445.24 433.073C440.716 433.122 437.153 429.479 437.106 424.753C437.059 420.028 440.575 416.262 445.053 416.262Z" fill="#E31E24"/>
<path d="M444.858 199.735C440.357 199.76 436.793 196.068 436.793 191.342C436.793 186.69 440.31 182.998 444.74 182.998C449.171 182.998 452.711 186.665 452.711 191.317C452.711 195.969 449.241 199.711 444.834 199.735H444.858Z" fill="#E31E24"/>
<path d="M691.74 390.341C696.148 390.341 699.688 394.082 699.688 398.71C699.688 403.337 696.101 407.029 691.67 407.004C687.263 406.98 683.77 403.189 683.817 398.537C683.864 393.984 687.403 390.316 691.74 390.316V390.341Z" fill="#E31E24"/>
<path d="M642.6 442.326C646.937 442.351 650.453 446.043 650.476 450.596C650.5 455.248 646.96 458.99 642.553 458.99C638.146 458.99 634.582 455.273 634.582 450.646C634.582 446.018 638.169 442.302 642.576 442.326H642.6Z" fill="#E31E24"/>
<path d="M568.662 468.367C572.976 468.417 576.516 472.182 576.492 476.711C576.492 481.24 572.905 484.982 568.592 484.982C564.208 484.982 560.621 481.142 560.668 476.564C560.739 472.035 564.349 468.343 568.662 468.367Z" fill="#E31E24"/>
<path d="M543.716 468.368C548.029 468.318 551.64 472.01 551.733 476.539C551.804 481.118 548.217 484.982 543.833 484.982C539.52 484.982 535.933 481.265 535.909 476.736C535.886 472.207 539.402 468.417 543.716 468.368Z" fill="#E31E24"/>
<path d="M716.561 286.715C720.874 286.765 724.414 290.53 724.414 295.059C724.414 299.588 720.827 303.33 716.514 303.33C712.13 303.33 708.52 299.514 708.59 294.912C708.637 290.383 712.247 286.666 716.561 286.715Z" fill="#E31E24"/>
<path d="M691.732 225.679C687.418 225.679 683.855 221.938 683.831 217.409C683.831 212.88 687.371 209.114 691.685 209.065C695.998 209.016 699.608 212.732 699.655 217.261C699.726 221.839 696.092 225.679 691.732 225.679Z" fill="#E31E24"/>
<path d="M420.199 390.366C424.513 390.292 428.147 393.96 428.24 398.489C428.334 403.018 424.865 406.857 420.551 406.981C416.191 407.104 412.487 403.362 412.416 398.784C412.37 394.255 415.886 390.465 420.199 390.366Z" fill="#E31E24"/>
<path d="M469.498 442.373C473.811 442.373 477.398 446.09 477.445 450.619C477.492 455.148 473.952 458.938 469.638 458.987C465.278 459.061 461.621 455.271 461.621 450.668C461.621 446.139 465.184 442.398 469.498 442.373Z" fill="#E31E24"/>
<path d="M716.514 312.709C720.827 312.709 724.391 316.45 724.414 320.979C724.414 325.582 720.804 329.372 716.42 329.323C712.107 329.274 708.567 325.508 708.59 320.979C708.614 316.45 712.2 312.709 716.514 312.709Z" fill="#E31E24"/>
<path d="M420.287 225.627C415.974 225.603 412.387 221.763 412.457 217.283C412.528 212.828 416.044 209.136 420.287 209.111C424.577 209.087 428.188 212.877 428.188 217.382C428.188 221.886 424.554 225.676 420.264 225.652L420.287 225.627Z" fill="#E31E24"/>
<path d="M395.534 286.742C399.778 286.742 403.317 290.385 403.435 294.865C403.552 299.344 399.989 303.209 395.675 303.283C391.409 303.356 387.751 299.615 387.705 295.086C387.658 290.582 391.244 286.767 395.558 286.742H395.534Z" fill="#E31E24"/>
<path d="M395.607 312.758C399.85 312.758 403.39 316.45 403.46 320.93C403.53 325.409 399.944 329.249 395.63 329.298C391.34 329.347 387.706 325.557 387.706 321.053C387.706 316.548 391.317 312.758 395.607 312.782V312.758Z" fill="#E31E24"/>
<path d="M469.514 173.618C465.2 173.618 461.614 169.803 461.661 165.299C461.707 160.77 465.341 157.029 469.631 157.103C473.898 157.176 477.391 160.893 477.414 165.348C477.414 169.853 473.804 173.643 469.537 173.643L469.514 173.618Z" fill="#E31E24"/>
<path d="M543.864 147.627C539.574 147.676 535.941 143.886 535.941 139.381C535.941 134.926 539.41 131.21 543.677 131.111C547.943 131.013 551.601 134.754 551.671 139.283C551.741 143.763 548.154 147.602 543.841 147.652L543.864 147.627Z" fill="#E31E24"/>
<path d="M568.358 147.628C564.067 147.702 560.434 143.936 560.387 139.407C560.34 134.903 563.95 131.088 568.24 131.088C572.53 131.088 576.141 134.878 576.117 139.383C576.117 143.838 572.601 147.554 568.334 147.628H568.358Z" fill="#E31E24"/>
<path d="M642.576 173.619C638.286 173.619 634.676 169.853 634.676 165.349C634.676 160.894 638.169 157.177 642.435 157.103C646.702 157.005 650.359 160.771 650.406 165.3C650.453 169.804 646.866 173.619 642.576 173.644V173.619Z" fill="#E31E24"/>
<path d="M593.06 468.566C597.327 468.566 600.703 472.11 600.75 476.59C600.796 481.143 597.397 484.761 593.06 484.786C588.723 484.786 585.301 481.217 585.301 476.664C585.301 472.11 588.723 468.541 593.06 468.541V468.566Z" fill="#E31E24"/>
<path d="M518.864 468.566C523.201 468.467 526.694 471.987 526.765 476.516C526.835 480.996 523.553 484.638 519.31 484.761C514.973 484.909 511.433 481.439 511.316 476.885C511.198 472.332 514.527 468.639 518.864 468.541V468.566Z" fill="#E31E24"/>
<path d="M716.752 277.119C712.415 277.242 708.898 273.771 708.781 269.218C708.664 264.664 712.016 260.997 716.33 260.899C720.596 260.8 724.066 264.246 724.207 268.701C724.347 273.255 721.042 276.971 716.728 277.094L716.752 277.119Z" fill="#E31E24"/>
<path d="M716.467 338.9C720.804 338.9 724.227 342.469 724.227 347.023C724.227 351.576 720.78 355.145 716.444 355.121C712.177 355.096 708.801 351.576 708.754 347.097C708.707 342.543 712.107 338.925 716.444 338.9H716.467Z" fill="#E31E24"/>
<path d="M395.537 277.071C391.247 277.071 387.894 273.527 387.894 269.022C387.894 264.518 391.247 260.974 395.513 260.949C399.803 260.949 403.203 264.42 403.226 268.899C403.273 273.478 399.874 277.071 395.537 277.047V277.071Z" fill="#E31E24"/>
<path d="M592.967 147.433C588.7 147.433 585.348 143.864 585.348 139.36C585.348 134.856 588.724 131.336 592.99 131.336C597.28 131.336 600.656 134.831 600.68 139.335C600.703 143.914 597.304 147.482 592.943 147.458L592.967 147.433Z" fill="#E31E24"/>
<path d="M395.466 338.95C399.757 338.901 403.179 342.371 403.25 346.851C403.296 351.429 399.944 355.047 395.607 355.047C391.317 355.047 387.941 351.552 387.918 347.072C387.894 342.568 391.223 338.999 395.49 338.95H395.466Z" fill="#E31E24"/>
<path d="M518.967 147.383C514.747 147.334 511.394 143.741 511.441 139.261C511.488 134.83 514.911 131.311 519.178 131.36C523.397 131.409 526.75 135.003 526.703 139.482C526.656 143.913 523.233 147.433 518.967 147.383Z" fill="#E31E24"/>
<path d="M617.794 468.861C621.897 468.861 625.155 472.258 625.225 476.541C625.296 480.898 622.014 484.417 617.864 484.467C613.715 484.516 610.386 481.045 610.363 476.689C610.363 472.332 613.668 468.837 617.818 468.861H617.794Z" fill="#E31E24"/>
<path d="M494.302 468.861C498.381 468.861 501.663 472.258 501.71 476.565C501.78 480.922 498.498 484.442 494.349 484.491C490.199 484.54 486.871 481.07 486.847 476.713C486.847 472.356 490.153 468.861 494.302 468.886V468.861Z" fill="#E31E24"/>
<path d="M716.489 364.865C720.568 364.865 723.85 368.237 723.921 372.545C723.991 376.901 720.733 380.421 716.583 380.47C712.434 380.52 709.081 377.074 709.058 372.717C709.035 368.36 712.34 364.865 716.489 364.865Z" fill="#E31E24"/>
<path d="M617.825 147.11C613.699 147.11 610.464 143.763 610.417 139.455C610.394 135.123 613.582 131.702 617.685 131.653C621.811 131.604 625.093 134.926 625.163 139.234C625.233 143.64 621.998 147.11 617.825 147.135V147.11Z" fill="#E31E24"/>
<path d="M716.397 250.755C712.294 250.706 709.106 247.285 709.129 242.953C709.153 238.646 712.411 235.273 716.514 235.273C720.616 235.273 723.852 238.67 723.852 243.002C723.852 247.383 720.57 250.805 716.373 250.755H716.397Z" fill="#E31E24"/>
<path d="M395.608 365.286C399.71 365.286 402.945 368.708 402.945 373.015C402.945 377.323 399.734 380.744 395.608 380.744C391.435 380.744 388.176 377.323 388.2 372.917C388.223 368.609 391.482 365.237 395.608 365.262V365.286Z" fill="#E31E24"/>
<path d="M494.49 147.058C490.365 147.132 487.036 143.809 486.965 139.526C486.918 135.194 490.107 131.724 494.186 131.674C498.312 131.625 501.594 134.997 501.617 139.28C501.641 143.538 498.476 146.984 494.49 147.058Z" fill="#E31E24"/>
<path d="M395.654 251.053C391.529 251.078 388.27 247.706 388.247 243.399C388.247 239.091 391.458 235.67 395.561 235.67C399.663 235.67 402.898 239.091 402.875 243.399C402.875 247.632 399.64 251.029 395.631 251.053H395.654Z" fill="#E31E24"/>
<path d="M667.334 443.014C671.32 443.014 674.578 446.46 674.602 450.644C674.602 454.902 671.32 458.373 667.264 458.348C663.279 458.348 660.02 454.902 659.997 450.718C659.997 446.46 663.279 442.989 667.334 443.014Z" fill="#E31E24"/>
<path d="M445.068 443.014C449.053 443.014 452.335 446.386 452.382 450.57C452.429 454.828 449.171 458.323 445.115 458.348C441.13 458.348 437.848 454.976 437.801 450.792C437.754 446.533 441.013 443.038 445.068 443.014Z" fill="#E31E24"/>
<path d="M691.709 416.996C695.765 416.996 699.07 420.442 699.047 424.7C699.047 428.885 695.765 432.306 691.779 432.33C687.724 432.33 684.418 428.885 684.442 424.626C684.442 420.442 687.724 417.021 691.709 416.996Z" fill="#E31E24"/>
<path d="M420.381 417.049C424.343 417.099 427.625 420.594 427.578 424.729C427.531 428.889 424.202 432.334 420.263 432.285C416.302 432.236 413.02 428.741 413.067 424.606C413.113 420.446 416.442 417 420.381 417.049Z" fill="#E31E24"/>
<path d="M666.959 172.978C662.997 172.954 659.715 169.458 659.739 165.323C659.762 161.164 663.091 157.718 667.029 157.742C670.991 157.767 674.273 161.262 674.25 165.397C674.226 169.557 670.898 173.003 666.959 172.978Z" fill="#E31E24"/>
<path d="M691.693 198.994C687.731 198.945 684.449 195.45 684.496 191.315C684.543 187.155 687.872 183.709 691.81 183.758C695.772 183.808 699.054 187.303 699.007 191.438C698.96 195.598 695.632 199.043 691.693 198.994Z" fill="#E31E24"/>
<path d="M444.67 172.932C440.732 172.834 437.52 169.388 437.567 165.302C437.614 161.192 440.896 157.77 444.811 157.795C448.726 157.795 451.984 161.241 451.984 165.351C451.984 169.511 448.609 173.031 444.67 172.932Z" fill="#E31E24"/>
<path d="M420.294 198.921C416.379 198.921 413.121 195.475 413.121 191.365C413.121 187.254 416.356 183.833 420.271 183.784C424.162 183.735 427.468 187.131 427.538 191.266C427.608 195.401 424.256 198.946 420.294 198.921Z" fill="#E31E24"/>
<path d="M716.497 391.351C720.389 391.351 723.554 394.698 723.483 398.784C723.436 402.796 720.272 406.045 716.45 405.996C712.629 405.971 709.535 402.648 709.535 398.636C709.535 394.624 712.676 391.351 716.497 391.326V391.351Z" fill="#E31E24"/>
<path d="M716.568 224.691C712.746 224.691 709.582 221.467 709.535 217.455C709.488 213.443 712.582 210.095 716.38 210.046C720.201 209.972 723.413 213.197 723.483 217.209C723.554 221.295 720.436 224.691 716.544 224.716L716.568 224.691Z" fill="#E31E24"/>
<path d="M469.475 469.355C473.366 469.33 476.531 472.653 476.508 476.739C476.484 480.751 473.343 484.024 469.498 484C465.677 484 462.559 480.702 462.536 476.69C462.536 472.678 465.63 469.379 469.451 469.33L469.475 469.355Z" fill="#E31E24"/>
<path d="M642.482 469.355C646.303 469.33 649.468 472.554 649.539 476.566C649.585 480.579 646.514 483.926 642.717 484C638.825 484.074 635.614 480.775 635.59 476.69C635.59 472.678 638.685 469.379 642.506 469.33L642.482 469.355Z" fill="#E31E24"/>
<path d="M395.702 224.64C391.927 224.739 388.692 221.44 388.622 217.453C388.552 213.49 391.716 210.094 395.514 210.069C399.288 210.02 402.5 213.367 402.5 217.33C402.5 221.243 399.429 224.542 395.702 224.64Z" fill="#E31E24"/>
<path d="M642.53 146.64C638.732 146.64 635.567 143.268 635.614 139.305C635.661 135.392 638.755 132.118 642.483 132.069C646.257 132.02 649.469 135.343 649.492 139.33C649.492 143.317 646.327 146.665 642.53 146.64Z" fill="#E31E24"/>
<path d="M469.498 146.989C465.701 146.989 462.536 143.592 462.583 139.629C462.63 135.642 465.865 132.343 469.639 132.417C473.39 132.491 476.461 135.765 476.484 139.703C476.484 143.69 473.296 147.013 469.522 147.013L469.498 146.989Z" fill="#E31E24"/>
<path d="M395.49 391.376C399.265 391.326 402.476 394.625 402.523 398.612C402.547 402.525 399.499 405.824 395.748 405.947C391.974 406.07 388.739 402.772 388.645 398.784C388.575 394.821 391.693 391.425 395.514 391.376H395.49Z" fill="#E31E24"/>
<path d="M568.449 495.098C572.177 494.999 575.365 498.224 575.459 502.187C575.553 506.1 572.482 509.448 568.707 509.546C564.98 509.645 561.792 506.42 561.698 502.457C561.604 498.544 564.675 495.196 568.449 495.098Z" fill="#E31E24"/>
<path d="M543.889 495.096C547.663 495.145 550.757 498.493 550.71 502.407C550.664 506.369 547.475 509.618 543.748 509.569C539.974 509.52 536.879 506.172 536.926 502.259C536.973 498.296 540.161 495.047 543.889 495.096Z" fill="#E31E24"/>
<path d="M740.964 287.903C744.785 287.731 747.926 290.783 748.043 294.795C748.161 298.733 745.301 301.958 741.55 302.13C737.729 302.302 734.587 299.25 734.47 295.238C734.353 291.3 737.213 288.076 740.964 287.903Z" fill="#E31E24"/>
<path d="M741.087 313.893C744.838 313.795 747.909 316.797 748.05 320.76C748.19 324.772 745.26 328.046 741.439 328.144C737.688 328.243 734.617 325.24 734.476 321.277C734.336 317.265 737.266 313.991 741.087 313.893Z" fill="#E31E24"/>
<path d="M370.764 313.967C374.538 313.942 377.515 317.019 377.539 320.957C377.562 324.92 374.632 328.046 370.881 328.071C367.107 328.095 364.13 325.018 364.106 321.08C364.083 317.117 367.013 313.992 370.764 313.967Z" fill="#E31E24"/>
<path d="M370.764 287.949C374.538 287.925 377.515 291.001 377.539 294.94C377.562 298.902 374.632 302.028 370.881 302.053C367.107 302.078 364.13 299.001 364.106 295.063C364.083 291.1 367.013 287.974 370.764 287.949Z" fill="#E31E24"/>
<path d="M568.311 120.748C564.537 120.773 561.559 117.696 561.536 113.758C561.512 109.795 564.443 106.669 568.194 106.645C571.968 106.62 574.945 109.697 574.969 113.635C574.992 117.598 572.062 120.724 568.311 120.748Z" fill="#E31E24"/>
<path d="M543.553 120.748C539.779 120.748 536.802 117.696 536.778 113.758C536.778 109.795 539.685 106.669 543.436 106.645C547.21 106.645 550.187 109.697 550.211 113.635C550.211 117.598 547.304 120.724 543.553 120.748Z" fill="#E31E24"/>
<path d="M592.967 495.316C596.647 495.316 599.648 498.369 599.695 502.208C599.742 506.171 596.788 509.322 593.06 509.346C589.38 509.346 586.379 506.294 586.332 502.454C586.285 498.492 589.239 495.341 592.967 495.316Z" fill="#E31E24"/>
<path d="M519.131 495.317C522.812 495.341 525.742 498.467 525.742 502.331C525.742 506.27 522.741 509.371 518.991 509.346C515.31 509.322 512.38 506.196 512.38 502.331C512.38 498.393 515.38 495.292 519.131 495.317Z" fill="#E31E24"/>
<path d="M741.194 340.008C744.945 339.983 747.945 343.109 747.945 347.023C747.945 350.887 745.015 353.988 741.334 354.038C737.584 354.062 734.583 350.936 734.583 347.023C734.583 343.159 737.513 340.057 741.194 340.008Z" fill="#E31E24"/>
<path d="M593.084 120.673C589.45 120.722 586.403 117.596 586.356 113.756C586.309 109.941 589.286 106.741 592.943 106.692C596.577 106.643 599.624 109.769 599.671 113.608C599.718 117.424 596.741 120.623 593.084 120.673Z" fill="#E31E24"/>
<path d="M741.295 276.013C737.662 276.013 734.638 272.887 734.614 269.072C734.614 265.256 737.591 262.081 741.225 262.057C744.859 262.057 747.883 265.183 747.906 268.998C747.906 272.813 744.929 275.988 741.295 276.013Z" fill="#E31E24"/>
<path d="M370.85 340.033C374.484 340.033 377.484 343.233 377.461 347.048C377.461 350.863 374.413 354.014 370.78 353.989C367.146 353.989 364.145 350.79 364.169 346.974C364.169 343.159 367.216 340.009 370.85 340.033Z" fill="#E31E24"/>
<path d="M370.803 275.961C367.169 275.961 364.098 272.687 364.192 268.897C364.263 265.131 367.31 262.029 370.873 262.079C374.46 262.128 377.437 265.303 377.414 269.044C377.39 272.786 374.39 275.936 370.803 275.936V275.961Z" fill="#E31E24"/>
<path d="M519.014 120.65C515.45 120.625 512.45 117.45 512.45 113.709C512.45 109.968 515.45 106.792 519.014 106.768C522.577 106.743 525.601 109.869 525.648 113.61C525.695 117.401 522.624 120.65 519.014 120.625V120.65Z" fill="#E31E24"/>
<path d="M420.029 443.827C423.569 443.606 426.663 446.584 426.851 450.399C427.038 454.116 424.178 457.34 420.545 457.513C416.981 457.685 413.934 454.657 413.793 450.842C413.676 447.15 416.442 444.024 420.029 443.803V443.827Z" fill="#E31E24"/>
<path d="M691.733 443.804C695.32 443.804 698.297 446.93 698.273 450.696C698.25 454.486 695.249 457.563 691.662 457.514C688.052 457.464 685.122 454.289 685.216 450.523C685.309 446.782 688.216 443.779 691.756 443.779L691.733 443.804Z" fill="#E31E24"/>
<path d="M420.342 172.118C416.732 172.118 413.896 169.165 413.896 165.374C413.896 161.584 416.709 158.605 420.319 158.605C423.929 158.605 426.766 161.559 426.766 165.35C426.766 169.14 423.952 172.118 420.342 172.118Z" fill="#E31E24"/>
<path d="M691.709 172.119C688.099 172.119 685.286 169.116 685.309 165.325C685.309 161.535 688.169 158.581 691.78 158.606C695.39 158.606 698.203 161.608 698.18 165.399C698.18 169.189 695.32 172.143 691.709 172.119Z" fill="#E31E24"/>
<path d="M741.057 365.972C744.644 365.898 747.528 368.704 747.645 372.372C747.762 376.211 745.043 379.288 741.479 379.362C737.893 379.436 735.009 376.63 734.892 372.962C734.775 369.123 737.494 366.046 741.057 365.972Z" fill="#E31E24"/>
<path d="M667.287 469.971C670.897 469.971 673.71 472.949 673.663 476.739C673.64 480.456 670.827 483.361 667.287 483.361C663.677 483.361 660.864 480.382 660.911 476.592C660.934 472.875 663.747 469.971 667.287 469.971Z" fill="#E31E24"/>
<path d="M617.702 495.639C621.312 495.614 624.172 498.543 624.172 502.334C624.172 506.05 621.406 509.004 617.866 509.029C614.256 509.053 611.396 506.124 611.396 502.334C611.396 498.617 614.162 495.663 617.702 495.639Z" fill="#E31E24"/>
<path d="M716.452 417.982C720.062 417.982 722.898 420.911 722.898 424.702C722.898 428.419 720.109 431.348 716.569 431.372C712.959 431.372 710.122 428.443 710.122 424.653C710.122 420.936 712.912 418.007 716.452 417.982Z" fill="#E31E24"/>
<path d="M741.225 249.676C737.732 249.676 734.895 246.648 734.919 242.981C734.919 239.313 737.802 236.335 741.295 236.36C744.788 236.36 747.625 239.387 747.601 243.054C747.601 246.722 744.718 249.7 741.225 249.676Z" fill="#E31E24"/>
<path d="M494.303 495.664C497.796 495.664 500.633 498.667 500.633 502.359C500.633 506.026 497.773 509.005 494.256 509.005C490.763 509.005 487.927 506.002 487.927 502.31C487.927 498.642 490.787 495.664 494.303 495.664Z" fill="#E31E24"/>
<path d="M370.78 366.342C374.273 366.342 377.133 369.295 377.156 372.988C377.156 376.655 374.343 379.658 370.827 379.682C367.334 379.682 364.474 376.729 364.45 373.037C364.45 369.369 367.263 366.366 370.78 366.342Z" fill="#E31E24"/>
<path d="M716.561 198.036C713.045 198.061 710.185 195.107 710.138 191.44C710.114 187.748 712.927 184.745 716.42 184.695C719.937 184.671 722.797 187.624 722.844 191.292C722.867 194.984 720.054 197.987 716.561 198.036Z" fill="#E31E24"/>
<path d="M667.022 146.026C663.505 146.051 660.645 143.097 660.622 139.405C660.599 135.713 663.412 132.71 666.928 132.686C670.445 132.661 673.305 135.615 673.328 139.307C673.351 142.999 670.538 146.002 667.022 146.026Z" fill="#E31E24"/>
<path d="M445.069 470.018C448.562 470.018 451.422 472.996 451.445 476.663C451.445 480.331 448.609 483.334 445.116 483.358C441.623 483.358 438.763 480.38 438.739 476.712C438.739 473.045 441.576 470.042 445.069 470.018Z" fill="#E31E24"/>
<path d="M395.631 418.006C399.124 418.031 401.937 421.058 401.914 424.726C401.89 428.393 399.007 431.347 395.514 431.322C392.021 431.297 389.208 428.27 389.231 424.602C389.255 420.935 392.138 417.981 395.631 418.006Z" fill="#E31E24"/>
<path d="M395.629 197.987C392.253 198.036 389.346 195.107 389.253 191.514C389.159 187.895 392.019 184.794 395.489 184.745C398.864 184.696 401.771 187.625 401.865 191.218C401.959 194.836 399.099 197.938 395.629 197.987Z" fill="#E31E24"/>
<path d="M370.825 249.975C367.426 249.975 364.566 247.046 364.496 243.452C364.426 239.834 367.332 236.732 370.779 236.732C374.178 236.732 377.038 239.661 377.108 243.255C377.178 246.873 374.272 249.975 370.825 249.975Z" fill="#E31E24"/>
<path d="M444.764 146.322C441.364 146.322 438.504 143.344 438.458 139.775C438.411 136.157 441.318 133.08 444.764 133.08C448.163 133.08 451.023 136.058 451.07 139.627C451.117 143.246 448.21 146.322 444.764 146.322Z" fill="#E31E24"/>
<path d="M617.794 120.332C614.395 120.332 611.535 117.403 611.465 113.809C611.394 110.191 614.278 107.09 617.747 107.09C621.147 107.09 624.007 110.019 624.077 113.612C624.147 117.231 621.264 120.332 617.794 120.332Z" fill="#E31E24"/>
<path d="M494.318 120.331C490.918 120.331 488.058 117.402 487.988 113.809C487.918 110.19 490.801 107.089 494.271 107.064C497.67 107.064 500.53 109.993 500.6 113.587C500.671 117.205 497.787 120.307 494.318 120.331Z" fill="#E31E24"/>
<path d="M642.458 496.036C645.693 495.987 648.46 498.793 648.53 502.214C648.6 505.66 645.834 508.638 642.529 508.638C639.223 508.638 636.551 505.807 636.527 502.386C636.504 498.989 639.2 496.11 642.435 496.06L642.458 496.036Z" fill="#E31E24"/>
<path d="M370.881 392.462C374.07 392.511 376.695 395.292 376.742 398.64C376.765 402.036 374.046 404.916 370.811 404.916C367.576 404.916 364.857 402.036 364.88 398.664C364.903 395.268 367.67 392.412 370.881 392.462Z" fill="#E31E24"/>
<path d="M741.106 392.461C744.317 392.338 747.107 395.144 747.177 398.565C747.271 401.937 744.575 404.842 741.317 404.915C738.105 404.965 735.339 402.134 735.315 398.713C735.315 395.39 737.894 392.584 741.106 392.461Z" fill="#E31E24"/>
<path d="M469.38 496.109C472.592 495.986 475.381 498.791 475.452 502.213C475.522 505.585 472.826 508.489 469.591 508.538C466.379 508.588 463.613 505.757 463.59 502.336C463.59 499.013 466.168 496.207 469.38 496.084V496.109Z" fill="#E31E24"/>
<path d="M741.272 223.586C738.036 223.586 735.317 220.731 735.317 217.334C735.317 213.937 738.083 211.082 741.318 211.131C744.507 211.181 747.132 213.962 747.179 217.31C747.226 220.706 744.507 223.586 741.272 223.586Z" fill="#E31E24"/>
<path d="M642.506 119.814C639.248 119.814 636.693 117.107 636.716 113.685C636.716 110.264 639.295 107.581 642.553 107.606C645.812 107.606 648.367 110.313 648.344 113.734C648.344 117.156 645.765 119.839 642.506 119.814Z" fill="#E31E24"/>
<path d="M469.475 119.813C466.217 119.789 463.685 117.057 463.708 113.635C463.732 110.214 466.334 107.556 469.592 107.58C472.851 107.605 475.383 110.337 475.359 113.758C475.336 117.18 472.734 119.838 469.475 119.813Z" fill="#E31E24"/>
<path d="M370.756 223.46C367.498 223.436 364.966 220.728 364.989 217.307C365.013 213.886 367.592 211.228 370.85 211.252C374.109 211.277 376.64 213.984 376.617 217.406C376.594 220.827 374.015 223.485 370.756 223.46Z" fill="#E31E24"/>
<path d="M766.022 315.078C769.093 315.078 771.695 317.81 771.695 321.035C771.695 324.259 769.093 326.991 766.022 326.991C762.951 326.991 760.349 324.259 760.349 321.035C760.349 317.81 762.951 315.078 766.022 315.078Z" fill="#E31E24"/>
<path d="M765.982 289.059C769.053 289.01 771.679 291.718 771.702 294.942C771.749 298.166 769.171 300.923 766.1 300.948C763.029 300.997 760.403 298.289 760.38 295.065C760.333 291.841 762.911 289.084 765.982 289.059Z" fill="#E31E24"/>
<path d="M691.78 470.705C694.851 470.73 697.43 473.487 697.406 476.711C697.383 479.935 694.757 482.643 691.686 482.618C688.615 482.594 686.036 479.837 686.06 476.613C686.083 473.388 688.709 470.681 691.78 470.705Z" fill="#E31E24"/>
<path d="M716.538 444.719C719.609 444.719 722.188 447.476 722.188 450.7C722.188 453.924 719.562 456.632 716.491 456.632C713.42 456.632 710.841 453.875 710.841 450.651C710.841 447.426 713.467 444.694 716.538 444.719Z" fill="#E31E24"/>
<path d="M345.932 315.152C348.933 315.078 351.535 317.663 351.629 320.862C351.746 324.087 349.167 326.868 346.073 326.893C343.049 326.917 340.494 324.308 340.447 321.108C340.4 317.933 342.861 315.25 345.932 315.152Z" fill="#E31E24"/>
<path d="M420.263 470.807C423.287 470.758 425.842 473.392 425.913 476.592C425.983 479.816 423.381 482.573 420.286 482.548C417.239 482.548 414.73 479.865 414.73 476.69C414.73 473.515 417.239 470.832 420.263 470.807Z" fill="#E31E24"/>
<path d="M346.046 289.156C349.07 289.156 351.602 291.815 351.625 294.99C351.625 298.239 349.023 300.971 345.952 300.897C342.904 300.823 340.419 298.14 340.443 294.965C340.49 291.765 343.021 289.132 346.046 289.156Z" fill="#E31E24"/>
<path d="M691.904 145.239C688.833 145.363 686.184 142.655 686.16 139.406C686.16 136.231 688.645 133.548 691.693 133.499C694.717 133.45 697.272 136.059 697.366 139.258C697.436 142.409 694.975 145.141 691.927 145.239H691.904Z" fill="#E31E24"/>
<path d="M420.474 145.563C417.403 145.661 414.754 142.978 414.73 139.705C414.73 136.53 417.215 133.847 420.263 133.798C423.287 133.748 425.842 136.357 425.913 139.557C425.983 142.732 423.521 145.44 420.45 145.538L420.474 145.563Z" fill="#E31E24"/>
<path d="M568.193 93.572C565.145 93.5227 562.637 90.8645 562.66 87.6647C562.66 84.4649 565.192 81.8313 568.24 81.8066C571.334 81.8066 573.913 84.5634 573.842 87.7878C573.772 90.9875 571.217 93.5966 568.193 93.5474V93.572Z" fill="#E31E24"/>
<path d="M543.553 93.5749C540.459 93.6241 537.857 90.8674 537.904 87.643C537.951 84.4432 540.482 81.8095 543.507 81.8342C546.554 81.8342 549.062 84.4924 549.086 87.6922C549.086 90.8674 546.601 93.5503 543.553 93.5749Z" fill="#E31E24"/>
<path d="M716.538 171.233C713.514 171.258 710.958 168.624 710.912 165.449C710.865 162.224 713.467 159.468 716.561 159.492C719.609 159.517 722.117 162.2 722.117 165.375C722.117 168.55 719.609 171.208 716.561 171.233H716.538Z" fill="#E31E24"/>
<path d="M395.585 444.787C398.632 444.787 401.141 447.446 401.164 450.621C401.164 453.796 398.679 456.479 395.632 456.528C392.537 456.577 389.935 453.845 389.982 450.596C390.029 447.396 392.561 444.763 395.585 444.787Z" fill="#E31E24"/>
<path d="M395.677 171.107C392.559 171.156 390.121 168.67 390.074 165.421C390.051 162.148 392.418 159.613 395.513 159.588C398.56 159.588 400.952 162 401.022 165.175C401.092 168.449 398.748 171.033 395.653 171.082L395.677 171.107Z" fill="#E31E24"/>
<path d="M766.053 341.262C769.1 341.262 771.468 343.748 771.515 346.923C771.562 350.196 769.194 352.756 766.076 352.781C762.958 352.806 760.544 350.295 760.544 347.046C760.544 343.797 762.935 341.262 766.053 341.262Z" fill="#E31E24"/>
<path d="M592.967 93.4029C589.943 93.4029 587.576 90.8677 587.599 87.668C587.599 84.4928 590.014 82.0068 593.061 82.0314C596.085 82.0314 598.453 84.5666 598.43 87.7664C598.43 90.9416 596.015 93.4276 592.967 93.4029Z" fill="#E31E24"/>
<path d="M346.007 341.311C349.054 341.311 351.445 343.772 351.469 346.972C351.469 350.171 349.124 352.682 346.077 352.707C343.029 352.707 340.638 350.245 340.615 347.046C340.615 343.846 342.959 341.335 346.007 341.311Z" fill="#E31E24"/>
<path d="M766.046 274.707C762.998 274.707 760.607 272.245 760.583 269.046C760.583 265.846 762.928 263.335 765.975 263.311C769.023 263.311 771.414 265.772 771.438 268.972C771.438 272.171 769.093 274.682 766.046 274.707Z" fill="#E31E24"/>
<path d="M741.28 419.016C744.21 419.016 746.648 421.551 746.672 424.628C746.695 427.753 744.21 430.363 741.21 430.313C738.279 430.264 735.888 427.704 735.911 424.628C735.911 421.551 738.373 419.016 741.28 419.016Z" fill="#E31E24"/>
<path d="M667.264 496.674C670.194 496.649 672.656 499.16 672.702 502.237C672.749 505.363 670.288 507.996 667.287 507.972C664.357 507.972 661.942 505.412 661.942 502.335C661.942 499.258 664.357 496.699 667.264 496.674Z" fill="#E31E24"/>
<path d="M346.045 275.003C343.115 275.003 340.677 272.468 340.654 269.392C340.63 266.315 343.021 263.755 345.952 263.706C348.929 263.657 351.437 266.266 351.414 269.392C351.414 272.468 348.952 275.003 346.045 275.003Z" fill="#E31E24"/>
<path d="M518.968 93.3525C516.037 93.3033 513.646 90.7189 513.669 87.6422C513.693 84.5655 516.131 82.0303 519.061 82.0549C521.992 82.0549 524.406 84.6147 524.43 87.6668C524.43 90.7927 521.945 93.4018 518.944 93.3525H518.968Z" fill="#E31E24"/>
<path d="M370.801 419.094C373.637 419.094 376.052 421.555 376.122 424.558C376.216 427.561 373.778 430.219 370.895 430.268C368.011 430.342 365.526 427.782 365.479 424.73C365.456 421.703 367.894 419.094 370.801 419.094Z" fill="#E31E24"/>
<path d="M445.069 496.747C447.952 496.747 450.437 499.332 450.414 502.359C450.414 505.337 448.046 507.848 445.186 507.922C442.303 507.996 439.794 505.436 439.771 502.384C439.724 499.356 442.162 496.747 445.069 496.723V496.747Z" fill="#E31E24"/>
<path d="M666.96 119.296C664.053 119.296 661.615 116.663 661.662 113.635C661.709 110.583 664.217 108.023 667.1 108.122C669.96 108.196 672.305 110.731 672.328 113.709C672.328 116.737 669.867 119.321 666.983 119.321L666.96 119.296Z" fill="#E31E24"/>
<path d="M741.264 196.953C738.381 196.953 735.919 194.344 735.943 191.316C735.966 188.338 738.334 185.827 741.194 185.778C744.077 185.729 746.562 188.289 746.586 191.316C746.609 194.344 744.148 196.953 741.264 196.953Z" fill="#E31E24"/>
<path d="M370.993 196.828C368.133 196.926 365.765 194.686 365.601 191.684C365.437 188.607 367.593 186.047 370.524 185.899C373.454 185.752 375.869 188.041 375.986 191.117C376.127 194.194 373.899 196.705 370.969 196.828H370.993Z" fill="#E31E24"/>
<path d="M765.719 367.208C768.649 367.036 771.064 369.325 771.228 372.402C771.369 375.479 769.165 378.014 766.235 378.137C763.304 378.26 760.913 375.922 760.796 372.845C760.702 369.842 762.835 367.381 765.719 367.208Z" fill="#E31E24"/>
<path d="M445.045 119.178C442.114 119.325 439.7 117.036 439.583 113.96C439.442 110.883 441.669 108.372 444.599 108.249C447.459 108.151 449.827 110.391 449.991 113.393C450.155 116.47 447.999 119.03 445.068 119.178H445.045Z" fill="#E31E24"/>
<path d="M345.905 367.623C348.859 367.549 351.156 369.912 351.18 372.989C351.18 376.016 348.976 378.379 346.116 378.404C343.233 378.428 340.959 376.115 340.935 373.136C340.888 370.109 343.069 367.697 345.929 367.647L345.905 367.623Z" fill="#E31E24"/>
<path d="M766.03 248.4C763.17 248.4 760.92 246.062 760.92 243.034C760.92 240.007 763.123 237.644 765.983 237.619C768.914 237.595 771.188 239.958 771.188 243.059C771.188 246.062 768.914 248.4 766.054 248.4H766.03Z" fill="#E31E24"/>
<path d="M617.725 93.0855C614.865 93.0609 612.661 90.6979 612.661 87.6705C612.661 84.6676 614.912 82.3293 617.772 82.3047C620.702 82.3047 622.952 84.6922 622.906 87.7935C622.859 90.7964 620.608 93.0855 617.725 93.0609V93.0855Z" fill="#E31E24"/>
<path d="M494.536 93.0335C491.7 93.1566 489.309 90.8429 489.215 87.8646C489.144 84.9356 491.301 82.4989 494.044 82.3758C496.881 82.2527 499.272 84.5664 499.366 87.5447C499.436 90.4737 497.279 92.9104 494.536 93.0335Z" fill="#E31E24"/>
<path d="M346.163 248.693C343.326 248.766 340.982 246.379 340.958 243.425C340.935 240.521 343.139 238.109 345.905 238.035C348.741 237.961 351.086 240.349 351.109 243.302C351.133 246.207 348.929 248.619 346.163 248.693Z" fill="#E31E24"/>
<path d="M765.974 393.668C768.599 393.668 770.733 395.809 770.78 398.541C770.85 401.347 768.74 403.661 766.068 403.686C763.442 403.686 761.309 401.544 761.262 398.812C761.191 396.006 763.301 393.693 765.974 393.668Z" fill="#E31E24"/>
<path d="M716.443 471.319C719.068 471.294 721.201 473.435 721.272 476.167C721.342 478.973 719.232 481.287 716.56 481.312C713.934 481.336 711.801 479.195 711.731 476.463C711.66 473.657 713.77 471.343 716.443 471.319Z" fill="#E31E24"/>
<path d="M346.022 393.738C348.6 393.738 350.804 396.052 350.757 398.759C350.71 401.393 348.577 403.633 346.069 403.658C343.49 403.658 341.286 401.344 341.333 398.636C341.38 396.003 343.513 393.763 346.022 393.738Z" fill="#E31E24"/>
<path d="M395.655 471.716C398.187 471.765 400.297 474.029 400.297 476.663C400.297 479.37 398.07 481.66 395.515 481.61C392.983 481.561 390.873 479.297 390.873 476.663C390.873 473.955 393.1 471.666 395.655 471.716Z" fill="#E31E24"/>
<path d="M642.632 92.665C640.077 92.7142 637.849 90.4252 637.826 87.7177C637.826 85.084 639.936 82.8195 642.468 82.7703C645.023 82.7211 647.25 85.0102 647.273 87.7177C647.273 90.3513 645.164 92.6158 642.632 92.665Z" fill="#E31E24"/>
<path d="M766.052 222.303C763.544 222.303 761.387 220.112 761.317 217.454C761.246 214.771 763.426 212.408 766.005 212.408C768.513 212.408 770.67 214.599 770.741 217.257C770.811 219.94 768.631 222.303 766.052 222.303Z" fill="#E31E24"/>
<path d="M716.561 144.303C714.006 144.352 711.779 142.038 711.779 139.331C711.779 136.697 713.912 134.433 716.421 134.384C718.976 134.334 721.203 136.648 721.203 139.356C721.203 141.989 719.07 144.254 716.561 144.303Z" fill="#E31E24"/>
<path d="M741.318 445.822C743.873 445.872 745.936 448.087 745.865 450.77C745.795 453.403 743.779 455.496 741.271 455.496C738.715 455.496 736.629 453.305 736.652 450.647C736.652 447.964 738.762 445.798 741.318 445.822Z" fill="#E31E24"/>
<path d="M469.522 92.5402C466.967 92.5402 464.904 90.325 464.928 87.6421C464.974 84.9592 467.084 82.7932 469.64 82.8671C472.148 82.9409 474.141 85.0577 474.141 87.6913C474.141 90.3742 472.054 92.5648 469.522 92.5402Z" fill="#E31E24"/>
<path d="M346.091 222.21C343.536 222.26 341.426 220.069 341.426 217.386C341.426 214.703 343.512 212.513 346.044 212.537C348.552 212.537 350.569 214.654 350.639 217.263C350.709 219.946 348.646 222.161 346.091 222.21Z" fill="#E31E24"/>
<path d="M395.6 144.55C393.045 144.575 390.958 142.409 390.935 139.726C390.935 137.043 393.021 134.853 395.576 134.877C398.132 134.877 400.195 137.117 400.148 139.8C400.101 142.434 398.085 144.526 395.6 144.575V144.55Z" fill="#E31E24"/>
<path d="M691.763 497.487C694.271 497.487 696.287 499.603 696.358 502.212C696.428 504.895 694.365 507.11 691.81 507.16C689.254 507.209 687.145 505.018 687.145 502.335C687.145 499.653 689.231 497.462 691.763 497.487Z" fill="#E31E24"/>
<path d="M420.177 497.486C422.709 497.387 424.865 499.529 424.936 502.212C425.006 504.894 422.967 507.11 420.388 507.159C417.833 507.208 415.723 505.042 415.699 502.359C415.699 499.75 417.645 497.584 420.153 497.486H420.177Z" fill="#E31E24"/>
<path d="M741.233 170.078C738.701 170.078 736.756 167.985 736.779 165.327C736.779 162.669 738.772 160.626 741.303 160.651C743.835 160.651 745.781 162.743 745.758 165.401C745.758 168.059 743.765 170.102 741.233 170.078Z" fill="#E31E24"/>
<path d="M370.897 170.072C368.341 170.122 366.349 168.103 366.325 165.445C366.278 162.762 368.201 160.67 370.733 160.645C373.288 160.596 375.28 162.615 375.304 165.273C375.351 167.956 373.428 170.048 370.897 170.072Z" fill="#E31E24"/>
<path d="M691.757 118.439C689.225 118.439 687.256 116.396 687.256 113.738C687.256 111.079 689.202 109.012 691.733 109.012C694.265 109.012 696.234 111.055 696.234 113.713C696.234 116.371 694.289 118.439 691.757 118.439Z" fill="#E31E24"/>
<path d="M370.85 445.947C373.382 445.947 375.328 448.04 375.304 450.698C375.304 453.356 373.312 455.399 370.78 455.375C368.248 455.375 366.302 453.282 366.326 450.624C366.326 447.966 368.319 445.923 370.85 445.947Z" fill="#E31E24"/>
<path d="M420.241 118.434C417.709 118.41 415.787 116.318 415.81 113.635C415.834 110.976 417.826 108.958 420.382 108.983C422.913 109.007 424.836 111.099 424.812 113.782C424.789 116.441 422.796 118.459 420.241 118.434Z" fill="#E31E24"/>
<path d="M790.522 299.469C788.108 299.469 786.186 297.475 786.232 294.94C786.279 292.454 788.155 290.534 790.522 290.559C792.89 290.559 794.719 292.528 794.742 295.014C794.742 297.5 792.914 299.444 790.546 299.469H790.522Z" fill="#E31E24"/>
<path d="M321.577 316.553C323.945 316.553 325.82 318.473 325.844 320.959C325.867 323.494 323.968 325.512 321.53 325.463C319.162 325.438 317.334 323.469 317.357 320.983C317.357 318.497 319.209 316.553 321.577 316.553Z" fill="#E31E24"/>
<path d="M790.404 316.553C792.772 316.528 794.648 318.424 794.718 320.91C794.765 323.469 792.889 325.488 790.451 325.463C788.084 325.463 786.232 323.519 786.232 321.033C786.232 318.547 788.06 316.578 790.404 316.553Z" fill="#E31E24"/>
<path d="M765.975 420.324C768.343 420.324 770.195 422.244 770.172 424.73C770.172 427.142 768.343 429.037 766.046 429.037C763.678 429.037 761.826 427.118 761.849 424.632C761.849 422.219 763.678 420.324 765.975 420.324Z" fill="#E31E24"/>
<path d="M543.554 66.0572C541.186 66.0818 539.334 64.162 539.334 61.676C539.334 59.2638 541.139 57.3686 543.437 57.344C545.804 57.3194 547.656 59.2392 547.656 61.7252C547.656 64.1374 545.851 66.0326 543.554 66.0572Z" fill="#E31E24"/>
<path d="M321.522 299.37C319.225 299.346 317.443 297.426 317.443 295.014C317.443 292.528 319.295 290.608 321.663 290.657C323.961 290.682 325.742 292.602 325.742 295.014C325.742 297.5 323.89 299.42 321.522 299.37Z" fill="#E31E24"/>
<path d="M568.333 66.0584C566.012 66.083 564.184 64.2616 564.113 61.8495C564.043 59.3389 565.848 57.3698 568.192 57.3206C570.513 57.2959 572.342 59.1174 572.412 61.5295C572.482 64.0401 570.677 66.0092 568.333 66.0584Z" fill="#E31E24"/>
<path d="M790.53 273.38C788.162 273.38 786.31 271.461 786.334 268.975C786.334 266.562 788.139 264.667 790.436 264.643C792.804 264.643 794.656 266.562 794.633 269.048C794.633 271.461 792.827 273.356 790.53 273.38Z" fill="#E31E24"/>
<path d="M790.46 342.641C792.827 342.641 794.656 344.585 794.633 347.071C794.609 349.483 792.781 351.354 790.483 351.354C788.115 351.354 786.287 349.409 786.31 346.923C786.334 344.511 788.162 342.641 790.46 342.641Z" fill="#E31E24"/>
<path d="M345.96 420.374C348.211 420.325 350.133 422.318 350.133 424.681C350.133 426.97 348.304 428.939 346.124 428.989C343.874 429.038 341.951 427.044 341.951 424.681C341.951 422.392 343.78 420.423 345.96 420.374Z" fill="#E31E24"/>
<path d="M321.624 273.652C319.373 273.652 317.474 271.658 317.498 269.295C317.521 266.982 319.373 265.062 321.577 265.037C323.827 265.037 325.726 267.031 325.703 269.394C325.679 271.707 323.827 273.627 321.624 273.652Z" fill="#E31E24"/>
<path d="M321.648 342.714C323.851 342.738 325.68 344.683 325.703 346.972C325.703 349.335 323.804 351.353 321.554 351.304C319.35 351.279 317.522 349.335 317.498 347.046C317.498 344.683 319.397 342.665 321.648 342.714Z" fill="#E31E24"/>
<path d="M666.983 91.9984C664.779 91.9984 662.927 90.0785 662.88 87.7894C662.833 85.4265 664.732 83.4082 666.983 83.4082C669.163 83.4082 671.038 85.3281 671.085 87.6171C671.132 89.9801 669.233 91.9984 666.983 91.9984Z" fill="#E31E24"/>
<path d="M593.089 66.0083C590.909 66.0575 589.01 64.1869 588.917 61.8732C588.823 59.5103 590.675 57.4428 592.949 57.3935C595.129 57.3443 597.028 59.2149 597.122 61.5286C597.215 63.8915 595.363 65.9591 593.089 66.0083Z" fill="#E31E24"/>
<path d="M766.239 195.674C764.012 195.797 762.02 193.877 761.926 191.514C761.855 189.225 763.614 187.207 765.817 187.084C768.044 186.961 770.037 188.881 770.131 191.243C770.201 193.533 768.443 195.551 766.239 195.674Z" fill="#E31E24"/>
<path d="M519.121 66.0083C516.94 66.0575 515.042 64.1869 514.948 61.8732C514.854 59.5103 516.706 57.4428 518.98 57.3935C521.16 57.3443 523.059 59.2149 523.153 61.5286C523.247 63.8915 521.395 65.9591 519.121 66.0083Z" fill="#E31E24"/>
<path d="M444.787 91.9003C442.584 91.9003 440.732 89.9312 440.779 87.6175C440.825 85.3531 442.631 83.507 444.764 83.4824C446.967 83.4824 448.819 85.4515 448.773 87.7652C448.726 90.0297 446.921 91.8757 444.787 91.9003Z" fill="#E31E24"/>
<path d="M346.053 195.548C343.92 195.548 342.115 193.702 342.044 191.437C341.997 189.123 343.849 187.154 346.053 187.154C348.186 187.154 349.991 189 350.062 191.265C350.109 193.578 348.257 195.548 346.053 195.548Z" fill="#E31E24"/>
<path d="M617.795 65.6872C615.709 65.6872 613.95 63.8904 613.974 61.6752C613.974 59.5584 615.638 57.7616 617.654 57.6877C619.741 57.6139 621.522 59.4107 621.569 61.6013C621.616 63.7919 619.882 65.638 617.795 65.6626V65.6872Z" fill="#E31E24"/>
<path d="M790.544 247.018C788.458 247.067 786.676 245.27 786.652 243.08C786.629 240.889 788.364 239.043 790.45 239.043C792.466 239.043 794.178 240.791 794.248 242.907C794.318 245.098 792.63 246.969 790.52 247.018H790.544Z" fill="#E31E24"/>
<path d="M790.755 368.684C792.771 368.684 794.506 370.407 794.576 372.523C794.646 374.714 792.958 376.609 790.872 376.658C788.786 376.708 787.004 374.935 786.957 372.745C786.91 370.554 788.645 368.708 790.731 368.684H790.755Z" fill="#E31E24"/>
<path d="M321.593 247.335C319.506 247.335 317.772 245.489 317.795 243.299C317.795 241.108 319.577 239.311 321.663 239.36C323.679 239.41 325.367 241.182 325.391 243.299C325.391 245.489 323.679 247.335 321.593 247.335Z" fill="#E31E24"/>
<path d="M321.663 369.026C323.679 369.076 325.367 370.823 325.39 372.965C325.414 375.155 323.703 377.001 321.593 377.001C319.506 377.001 317.771 375.18 317.771 372.989C317.771 370.799 319.553 368.977 321.64 369.026H321.663Z" fill="#E31E24"/>
<path d="M716.609 498.447C718.578 498.521 720.195 500.269 720.219 502.336C720.219 504.453 718.484 506.274 716.491 506.25C714.475 506.25 712.764 504.379 712.811 502.287C712.858 500.17 714.639 498.398 716.632 498.472L716.609 498.447Z" fill="#E31E24"/>
<path d="M741.106 472.457C743.099 472.334 744.904 474.082 744.974 476.223C745.045 478.315 743.38 480.186 741.341 480.26C739.395 480.309 737.684 478.66 737.543 476.568C737.402 474.476 739.043 472.58 741.083 472.457H741.106Z" fill="#E31E24"/>
<path d="M494.349 65.6131C492.333 65.6623 490.598 63.8409 490.574 61.7241C490.574 59.6812 492.168 57.909 494.138 57.8106C496.13 57.7121 497.912 59.4843 497.982 61.6011C498.053 63.6932 496.341 65.5639 494.325 65.5885L494.349 65.6131Z" fill="#E31E24"/>
<path d="M370.667 472.922C372.659 472.849 374.254 474.375 374.347 476.442C374.441 478.608 372.964 480.331 370.925 480.405C368.932 480.479 367.338 478.953 367.244 476.885C367.15 474.719 368.627 472.996 370.667 472.922Z" fill="#E31E24"/>
<path d="M370.945 143.442C368.882 143.516 367.287 141.916 367.264 139.75C367.264 137.658 368.717 136.033 370.687 135.959C372.75 135.886 374.344 137.486 374.367 139.652C374.367 141.744 372.914 143.368 370.945 143.442Z" fill="#E31E24"/>
<path d="M741.413 143.097C739.35 143.171 737.732 141.571 737.709 139.43C737.686 137.338 739.163 135.688 741.132 135.639C743.195 135.565 744.812 137.165 744.836 139.307C744.859 141.399 743.382 143.048 741.413 143.097Z" fill="#E31E24"/>
<path d="M716.514 117.427C714.521 117.427 712.997 115.851 712.95 113.784C712.904 111.618 714.451 109.969 716.49 109.969C718.483 109.969 720.007 111.544 720.054 113.612C720.101 115.778 718.553 117.427 716.514 117.427Z" fill="#E31E24"/>
<path d="M395.561 498.939C397.553 498.939 399.101 500.49 399.124 502.582C399.171 504.748 397.624 506.397 395.584 506.422C393.591 506.422 392.044 504.871 392.021 502.779C391.974 500.613 393.521 498.939 395.561 498.939Z" fill="#E31E24"/>
<path d="M395.584 117.424C393.591 117.424 392.044 115.873 391.997 113.781C391.95 111.615 393.474 109.941 395.537 109.941C397.53 109.941 399.077 111.492 399.124 113.584C399.171 115.75 397.647 117.424 395.584 117.424Z" fill="#E31E24"/>
<path d="M766.162 168.921C764.334 169.02 762.669 167.395 762.622 165.451C762.575 163.58 764.052 161.931 765.857 161.832C767.686 161.734 769.35 163.358 769.397 165.303C769.444 167.174 767.967 168.823 766.162 168.921Z" fill="#E31E24"/>
<path d="M765.857 447.125C767.686 447.027 769.35 448.651 769.397 450.596C769.444 452.467 767.967 454.116 766.162 454.239C764.334 454.337 762.669 452.713 762.622 450.768C762.575 448.898 764.052 447.248 765.857 447.125Z" fill="#E31E24"/>
<path d="M790.687 395.118C792.515 395.044 794.156 396.717 794.156 398.662C794.156 400.533 792.656 402.157 790.874 402.231C789.046 402.305 787.405 400.631 787.405 398.687C787.405 396.816 788.905 395.191 790.687 395.118Z" fill="#E31E24"/>
<path d="M790.57 220.899C788.741 220.973 787.1 219.299 787.1 217.355C787.1 215.484 788.6 213.859 790.382 213.786C792.211 213.712 793.852 215.385 793.852 217.33C793.852 219.201 792.351 220.825 790.57 220.899Z" fill="#E31E24"/>
<path d="M346.171 168.745C344.272 168.795 342.842 167.342 342.842 165.349C342.842 163.429 344.202 161.977 346.03 161.977C347.859 161.977 349.265 163.38 349.289 165.275C349.312 167.195 347.999 168.696 346.171 168.745Z" fill="#E31E24"/>
<path d="M642.693 65.1003C640.795 65.1742 639.341 63.722 639.318 61.7283C639.318 59.8084 640.654 58.3562 642.482 58.307C644.311 58.2823 645.718 59.6853 645.764 61.5806C645.811 63.5004 644.498 65.0019 642.67 65.0757L642.693 65.1003Z" fill="#E31E24"/>
<path d="M469.437 65.0969C467.632 65.0477 466.295 63.5708 466.319 61.651C466.342 59.7311 467.749 58.3281 469.577 58.3281C471.406 58.3281 472.766 59.7803 472.766 61.7002C472.766 63.6939 471.336 65.1461 469.437 65.0969Z" fill="#E31E24"/>
<path d="M321.598 220.752C319.77 220.752 318.387 219.324 318.363 217.404C318.363 215.484 319.676 214.008 321.505 213.958C323.333 213.909 324.763 215.312 324.81 217.207C324.88 219.201 323.474 220.727 321.598 220.727V220.752Z" fill="#E31E24"/>
<path d="M345.952 447.275C347.851 447.225 349.281 448.702 349.258 450.696C349.258 452.616 347.851 454.043 346.046 454.043C344.217 454.043 342.834 452.616 342.811 450.696C342.811 448.776 344.124 447.299 345.952 447.275Z" fill="#E31E24"/>
<path d="M321.577 395.286C323.406 395.286 324.789 396.689 324.812 398.609C324.836 400.603 323.429 402.08 321.53 402.055C319.702 402.03 318.365 400.578 318.365 398.634C318.365 396.714 319.749 395.286 321.577 395.262V395.286Z" fill="#E31E24"/>
<path d="M691.71 91.0855C689.881 91.0855 688.522 89.6333 688.522 87.7134C688.522 85.7935 689.881 84.3413 691.686 84.3167C693.585 84.2921 694.992 85.7689 694.968 87.7626C694.945 89.6825 693.538 91.0855 691.71 91.0855Z" fill="#E31E24"/>
<path d="M420.504 91.0864C418.676 91.1603 417.222 89.8065 417.105 87.9113C417.011 85.9175 418.348 84.3423 420.223 84.3177C422.052 84.2684 423.482 85.6714 423.529 87.5667C423.599 89.4865 422.286 91.0126 420.481 91.0864H420.504Z" fill="#E31E24"/>
<path d="M790.495 194.273C789.041 194.273 787.752 192.968 787.705 191.442C787.658 189.916 788.901 188.538 790.354 188.464C791.784 188.39 793.144 189.67 793.214 191.221C793.308 192.796 791.995 194.248 790.471 194.273H790.495Z" fill="#E31E24"/>
<path d="M790.764 421.775C792.217 421.775 793.507 423.08 793.554 424.606C793.6 426.181 792.241 427.609 790.74 427.584C789.287 427.56 788.021 426.181 788.021 424.655C788.021 423.129 789.31 421.775 790.764 421.775Z" fill="#E31E24"/>
<path d="M741.131 499.63C742.631 499.557 743.803 500.689 743.85 502.239C743.897 503.815 742.819 505.021 741.318 505.045C739.818 505.07 738.693 503.913 738.693 502.362C738.693 500.861 739.724 499.704 741.131 499.655V499.63Z" fill="#E31E24"/>
<path d="M568.31 38.415C566.81 38.4396 565.685 37.2828 565.685 35.7321C565.685 34.1568 566.787 33 568.287 33C569.717 33 570.795 34.1076 570.842 35.609C570.889 37.1843 569.811 38.3904 568.31 38.415Z" fill="#E31E24"/>
<path d="M543.507 38.4165C542.03 38.4165 540.905 37.2351 540.929 35.6598C540.929 34.1091 542.101 32.9523 543.578 33.0015C544.984 33.0507 546.062 34.183 546.086 35.6598C546.086 37.2351 544.984 38.4165 543.507 38.4165Z" fill="#E31E24"/>
<path d="M321.742 194.074C320.241 194.147 319.069 193.015 319.022 191.465C318.975 189.889 320.054 188.683 321.554 188.659C323.054 188.634 324.18 189.791 324.18 191.341C324.18 192.843 323.148 194 321.742 194.074Z" fill="#E31E24"/>
<path d="M296.866 297.72C295.366 297.72 294.264 296.563 294.264 295.012C294.264 293.462 295.413 292.28 296.89 292.33C298.32 292.354 299.375 293.486 299.422 294.963C299.445 296.539 298.367 297.72 296.866 297.745V297.72Z" fill="#E31E24"/>
<path d="M321.434 421.974C322.934 421.875 324.106 423.008 324.176 424.534C324.247 426.109 323.168 427.34 321.691 427.364C320.191 427.413 319.042 426.257 319.019 424.706C319.019 423.205 320.027 422.023 321.434 421.949V421.974Z" fill="#E31E24"/>
<path d="M444.856 64.4112C443.355 64.4604 442.207 63.3036 442.183 61.7529C442.183 60.2515 443.191 59.07 444.598 58.9962C446.098 58.8977 447.27 60.03 447.34 61.556C447.411 63.1313 446.332 64.362 444.856 64.3866V64.4112Z" fill="#E31E24"/>
<path d="M666.984 64.4095C665.507 64.4095 664.382 63.2035 664.429 61.6528C664.452 60.1514 665.53 59.0438 666.937 58.9945C668.437 58.9699 669.562 60.1021 669.586 61.6774C669.586 63.2527 668.484 64.4095 667.007 64.4095H666.984Z" fill="#E31E24"/>
<path d="M296.96 318.298C298.367 318.348 299.422 319.504 299.422 321.006C299.422 322.557 298.297 323.738 296.796 323.713C295.319 323.713 294.218 322.483 294.264 320.932C294.311 319.381 295.46 318.249 296.96 318.298Z" fill="#E31E24"/>
<path d="M593.088 38.32C591.822 38.3692 590.626 37.2124 590.556 35.8832C590.462 34.5049 591.634 33.1757 592.971 33.1265C594.237 33.0773 595.432 34.2341 595.503 35.5633C595.596 36.9416 594.424 38.2708 593.088 38.32Z" fill="#E31E24"/>
<path d="M296.921 271.953C295.585 272.002 294.366 270.747 294.366 269.368C294.366 268.039 295.491 266.808 296.757 266.759C298.093 266.71 299.312 267.965 299.312 269.368C299.312 270.697 298.187 271.928 296.921 271.977V271.953Z" fill="#E31E24"/>
<path d="M741.272 116.293C740.006 116.293 738.833 115.112 738.787 113.782C738.74 112.38 739.935 111.1 741.248 111.1C742.514 111.1 743.686 112.281 743.733 113.61C743.78 115.013 742.584 116.293 741.272 116.293Z" fill="#E31E24"/>
<path d="M370.898 116.292C369.585 116.366 368.343 115.111 368.319 113.708C368.319 112.379 369.421 111.148 370.687 111.099C372 111.025 373.242 112.28 373.266 113.683C373.266 115.012 372.164 116.243 370.898 116.292Z" fill="#E31E24"/>
<path d="M519.171 38.3161C517.905 38.39 516.709 37.2823 516.592 35.9286C516.475 34.5502 517.6 33.1965 518.936 33.1226C520.202 33.0488 521.398 34.1564 521.515 35.5102C521.632 36.8885 520.507 38.2423 519.171 38.3161Z" fill="#E31E24"/>
<path d="M766.093 473.736C767.359 473.785 768.508 474.991 768.508 476.32C768.508 477.723 767.289 478.978 765.976 478.929C764.71 478.88 763.561 477.674 763.561 476.345C763.561 474.942 764.78 473.687 766.093 473.736Z" fill="#E31E24"/>
<path d="M296.801 344.416C298.067 344.416 299.239 345.548 299.309 346.902C299.38 348.28 298.208 349.61 296.871 349.61C295.606 349.61 294.433 348.477 294.363 347.124C294.293 345.745 295.465 344.416 296.801 344.416Z" fill="#E31E24"/>
<path d="M346.144 142.089C344.831 142.139 343.823 141.13 343.777 139.751C343.753 138.373 344.714 137.314 346.027 137.314C347.293 137.314 348.254 138.25 348.301 139.554C348.371 140.933 347.434 142.016 346.121 142.065L346.144 142.089Z" fill="#E31E24"/>
<path d="M346.396 474.299C347.662 474.323 348.576 475.283 348.623 476.613C348.67 477.991 347.709 479.049 346.396 479.074C345.084 479.074 344.099 478.065 344.099 476.686C344.099 475.308 345.083 474.299 346.42 474.323L346.396 474.299Z" fill="#E31E24"/>
<path d="M766.023 141.747C764.71 141.747 763.749 140.689 763.772 139.311C763.796 137.932 764.804 136.923 766.14 136.972C767.383 137.022 768.297 138.006 768.32 139.311C768.32 140.689 767.359 141.723 766.046 141.723L766.023 141.747Z" fill="#E31E24"/>
<path d="M395.718 90.0783C394.405 90.1522 393.351 89.1922 393.304 87.8139C393.257 86.4355 394.194 85.3525 395.507 85.3279C396.82 85.2787 397.828 86.2878 397.852 87.6662C397.852 88.9953 396.984 90.0045 395.742 90.0783H395.718Z" fill="#E31E24"/>
<path d="M716.584 90.0766C715.271 90.1258 714.263 89.1167 714.239 87.7383C714.239 86.3599 715.201 85.3262 716.513 85.3262C717.779 85.3262 718.717 86.2861 718.764 87.5906C718.811 88.969 717.873 90.052 716.56 90.1012L716.584 90.0766Z" fill="#E31E24"/>
<path d="M296.867 370.773C297.992 370.773 298.977 371.832 298.977 373.013C298.977 374.244 297.898 375.352 296.726 375.278C295.601 375.204 294.64 374.121 294.687 372.964C294.733 371.783 295.741 370.773 296.843 370.773H296.867Z" fill="#E31E24"/>
<path d="M296.84 245.616C295.715 245.616 294.73 244.607 294.683 243.426C294.66 242.244 295.621 241.186 296.746 241.137C297.848 241.087 298.903 242.072 298.973 243.253C299.043 244.484 298.012 245.641 296.84 245.641V245.616Z" fill="#E31E24"/>
<path d="M494.21 37.9457C493.085 37.8965 492.124 36.8381 492.147 35.6566C492.147 34.4752 493.155 33.4414 494.28 33.4414C495.406 33.4414 496.39 34.4752 496.414 35.6566C496.437 36.8873 495.359 37.9949 494.187 37.9457H494.21Z" fill="#E31E24"/>
<path d="M617.82 37.9461C616.695 37.9461 615.687 36.9616 615.64 35.7801C615.593 34.5494 616.648 33.4172 617.82 33.4418C618.945 33.4664 619.93 34.5248 619.93 35.6816C619.93 36.8631 618.945 37.8969 617.82 37.9215V37.9461Z" fill="#E31E24"/>
<path d="M790.685 448.675C791.811 448.577 792.748 449.512 792.701 450.693C792.655 451.949 791.951 452.564 791.014 452.687C789.748 452.687 788.88 451.85 788.88 450.743C788.88 449.512 789.513 448.774 790.685 448.675Z" fill="#E31E24"/>
<path d="M321.529 448.676C322.654 448.602 323.569 449.537 323.522 450.719C323.451 451.974 322.748 452.59 321.599 452.713C320.451 452.59 319.724 451.95 319.701 450.719C319.701 449.488 320.357 448.774 321.529 448.676Z" fill="#E31E24"/>
<path d="M691.898 63.7432C690.702 63.694 689.929 63.1278 689.835 61.8725C689.741 60.6419 690.351 59.8788 691.523 59.7065C692.648 59.5343 693.633 60.445 693.633 61.6018C693.633 62.8571 692.976 63.5217 691.875 63.7186L691.898 63.7432Z" fill="#E31E24"/>
<path d="M790.614 167.369C789.489 167.492 788.551 166.556 788.575 165.375C788.575 164.12 789.278 163.48 790.403 163.332C791.576 163.43 792.326 164.021 792.373 165.277C792.419 166.507 791.786 167.246 790.614 167.393V167.369Z" fill="#E31E24"/>
<path d="M296.843 219.081C296.14 218.958 295.531 218.219 294.874 217.727C294.874 217.456 294.874 217.21 294.874 216.94C295.531 216.472 296.14 215.733 296.843 215.635C297.875 215.463 298.508 216.25 298.508 217.358C298.508 218.466 297.851 219.253 296.82 219.056L296.843 219.081Z" fill="#E31E24"/>
<path d="M321.741 167.39C321.484 167.39 321.249 167.39 320.991 167.415C320.522 166.75 319.772 166.135 319.632 165.396C319.421 164.338 320.124 163.6 321.202 163.575C322.257 163.526 323.054 164.166 322.914 165.249C322.82 165.987 322.14 166.676 321.741 167.365V167.39Z" fill="#E31E24"/>
<path d="M296.447 396.619C296.704 396.619 296.939 396.619 297.197 396.619C297.642 397.308 298.369 397.924 298.486 398.662C298.674 399.72 297.947 400.434 296.869 400.434C295.814 400.434 295.04 399.77 295.204 398.711C295.321 397.973 296.001 397.308 296.447 396.619Z" fill="#E31E24"/>
<path d="M420.369 63.4733C419.314 63.4733 418.54 62.8088 418.704 61.7504C418.821 61.012 419.501 60.3474 419.947 59.6582C420.204 59.6582 420.439 59.6582 420.697 59.6582C421.142 60.3474 421.869 60.9627 421.986 61.7011C422.174 62.7595 421.447 63.4733 420.369 63.4733Z" fill="#E31E24"/>
<path d="M469.57 37.4839C468.421 37.4839 467.671 36.7455 467.905 35.6132C468.046 34.8994 468.843 34.3333 469.335 33.6934C469.57 33.6934 469.804 33.6934 470.039 33.6934C470.437 34.3579 471.07 34.9733 471.187 35.6871C471.351 36.7701 470.648 37.4592 469.57 37.4839Z" fill="#E31E24"/>
<path d="M642.837 37.7767C642.579 37.7767 642.345 37.7767 642.087 37.7767C641.665 37.0876 640.985 36.423 640.892 35.66C640.751 34.577 641.525 33.937 642.579 33.9616C643.634 33.9862 644.361 34.7246 644.174 35.783C644.033 36.5214 643.306 37.1368 642.837 37.8014V37.7767Z" fill="#E31E24"/>
</g>
<g filter="url(#filter0_f_70_3)">
<circle cx="620.5" cy="253.5" r="163.5" fill="#FE9100"/>
</g>
<defs>
<filter id="filter0_f_70_3" x="413" y="46" width="415" height="415" filterUnits="userSpaceOnUse" color-interpolation-filters="sRGB">
<feFlood flood-opacity="0" result="BackgroundImageFix"/>
<feBlend mode="normal" in="SourceGraphic" in2="BackgroundImageFix" result="shape"/>
<feGaussianBlur stdDeviation="22" result="effect1_foregroundBlur_70_3"/>
</filter>
</defs>
</svg>
