<svg width="25" height="19" viewBox="0 0 25 19" fill="none" xmlns="http://www.w3.org/2000/svg">
<path d="M12.7893 0.439453C6.1619 0.439453 0.789062 5.89124 0.789062 12.6164C0.789062 16.263 2.3547 18.6412 2.3547 18.6412L23.2189 18.6423C23.2189 18.6423 24.7891 16.0431 24.7891 12.6162C24.7891 5.89124 19.4162 0.439453 12.7893 0.439453ZM22.3388 17.1588L3.27783 17.1505C3.27783 17.1505 2.26216 15.2171 2.26216 12.578C2.26216 6.68365 6.99325 1.90496 12.8295 1.90496C18.6656 1.90496 23.3969 6.6834 23.3969 12.578C23.3972 15.2469 22.3388 17.1588 22.3388 17.1588Z" fill="#0BE2C8"/>
<path d="M16.1806 3.67302L16.03 3.67277L12.829 9.97737L9.51295 3.61893L4.97272 15.1056H3.79937V16.0282H10.2274V15.1056H8.95193L10.2274 11.5157L12.829 16.0282L15.3289 11.5157L16.6041 15.1056H15.3289V16.0282H21.7056V15.1056H20.6009L16.1806 3.67302Z" fill="#0BE2C8"/>
</svg>
