<svg width="24" height="31" viewBox="0 0 24 31" fill="none" xmlns="http://www.w3.org/2000/svg">
<path fill-rule="evenodd" clip-rule="evenodd" d="M3.13311 1.19088C3.13311 1.19088 0.338888 2.2947 0.0854193 3.57588C-0.168723 4.85637 0.0854193 6.84492 1.65477 10.8512C2.89447 14.0111 4.49011 16.6736 6.01901 18.9744C7.75756 21.5924 9.64779 24.1743 12.3706 26.8194C15.4196 29.7796 17.3968 30.7457 18.6486 30.9363C19.9018 31.129 21.8635 28.7975 21.8635 28.7975C21.8635 28.7975 23.474 27.2332 22.8807 25.8352C22.2862 24.4358 19.5587 21.2871 19.1704 21.3239C18.7828 21.3594 16.9566 22.9585 16.7186 23.1296C16.4813 23.3021 15.518 23.4481 14.1496 21.694C10.2896 16.741 10.1709 16.5692 6.96143 11.0995C5.83228 9.17427 6.29742 8.29094 6.53404 8.11845C6.77133 7.94734 8.74447 6.79275 8.91031 6.42968C9.07614 6.06661 7.14209 2.34339 6.07294 1.28826C5.00244 0.23382 3.13311 1.19088 3.13311 1.19088Z" fill="#E32E16"/>
</svg>
