<svg width="48" height="40" viewBox="0 0 48 40" fill="none" xmlns="http://www.w3.org/2000/svg">
<path d="M13.8281 19.082H37.9207C42.9466 19.082 47.0209 23.1563 47.0209 28.1822C47.0209 33.2081 42.9466 37.2824 37.9207 37.2824H13.8281V19.082Z" fill="#E4181F"/>
<path d="M25.7487 21.983C25.7487 21.7578 25.8546 21.5509 26.0665 21.3623C26.19 21.2539 26.3293 21.1788 26.4844 21.1371C26.6413 21.0937 26.8306 21.072 27.0525 21.072C27.4363 21.072 27.7474 21.1646 27.986 21.3498C28.2246 21.5334 28.3439 21.7778 28.3439 22.0831C28.3439 22.2383 28.3038 22.3809 28.2237 22.511C28.1453 22.6412 28.0419 22.7454 27.9134 22.8239C28.0586 22.8973 28.1745 23.0024 28.2613 23.1392C28.3497 23.2743 28.3939 23.4295 28.3939 23.6047C28.3939 23.9333 28.2688 24.1978 28.0185 24.398C27.7699 24.5965 27.4446 24.6958 27.0425 24.6958C26.8123 24.6958 26.6187 24.6749 26.4619 24.6332C26.3051 24.5899 26.1649 24.5139 26.0415 24.4055C25.8279 24.2153 25.7211 24.0084 25.7211 23.7849C25.7211 23.6464 25.7612 23.5396 25.8413 23.4645C25.923 23.3878 26.0206 23.3494 26.1341 23.3494C26.2408 23.3494 26.3401 23.3803 26.4319 23.442C26.4969 23.487 26.562 23.5705 26.6271 23.6923C26.6738 23.779 26.7305 23.8416 26.7973 23.88C26.864 23.9167 26.9549 23.935 27.07 23.935C27.2119 23.935 27.3211 23.9016 27.3979 23.8349C27.4746 23.7682 27.513 23.6814 27.513 23.5746C27.513 23.4595 27.4771 23.3686 27.4054 23.3019C27.3353 23.2335 27.2277 23.1992 27.0826 23.1992H27.0175C26.8707 23.1992 26.7681 23.1851 26.7097 23.1567C26.6579 23.1317 26.6162 23.0916 26.5845 23.0366C26.5528 22.9799 26.537 22.9156 26.537 22.8439C26.537 22.7721 26.5528 22.7087 26.5845 22.6537C26.6162 22.597 26.6579 22.5561 26.7097 22.5311C26.7681 22.5027 26.8707 22.4885 27.0175 22.4885H27.0826C27.2027 22.4885 27.2978 22.4585 27.3679 22.3984C27.4379 22.3367 27.473 22.2533 27.473 22.1482C27.473 22.0497 27.4371 21.9713 27.3653 21.9129C27.2936 21.8529 27.1977 21.8228 27.0776 21.8228C26.9658 21.8228 26.8765 21.842 26.8098 21.8804C26.7447 21.9171 26.6888 21.9788 26.6421 22.0656C26.577 22.1874 26.512 22.2708 26.4469 22.3158C26.3551 22.3776 26.2584 22.4084 26.1566 22.4084C26.0465 22.4084 25.9505 22.3701 25.8688 22.2933C25.7887 22.2182 25.7487 22.1148 25.7487 21.983ZM29.377 24.6658H29.307C29.2119 24.6658 29.1426 24.6633 29.0993 24.6583C29.0559 24.6516 29.0133 24.6382 28.9716 24.6182C28.9149 24.5915 28.869 24.5473 28.834 24.4856C28.7989 24.4222 28.7814 24.3521 28.7814 24.2754C28.7814 24.1986 28.7989 24.1294 28.834 24.0677C28.869 24.0043 28.9149 23.9592 28.9716 23.9325C29.0367 23.9008 29.1393 23.885 29.2794 23.885C29.3795 23.885 29.4513 23.8449 29.4947 23.7648L28.7389 21.7728C28.7055 21.6827 28.6822 21.6126 28.6688 21.5626C28.6571 21.5108 28.6571 21.4533 28.6688 21.3899C28.6822 21.3248 28.7155 21.2656 28.7689 21.2122C28.8557 21.1254 28.9608 21.0821 29.0842 21.0821C29.1843 21.0821 29.2669 21.1121 29.332 21.1721C29.367 21.2038 29.3954 21.2405 29.4171 21.2823C29.4388 21.3223 29.468 21.3907 29.5047 21.4875L29.9276 22.6362L30.3506 21.4875C30.3873 21.3907 30.4165 21.3223 30.4381 21.2823C30.4598 21.2405 30.4882 21.2038 30.5232 21.1721C30.5883 21.1121 30.6709 21.0821 30.771 21.0821C30.8945 21.0821 30.9996 21.1254 31.0863 21.2122C31.1397 21.2656 31.1722 21.3248 31.1839 21.3899C31.1973 21.4533 31.1973 21.5108 31.1839 21.5626C31.1722 21.6126 31.1497 21.6827 31.1164 21.7728L30.308 23.935C30.2229 24.1619 30.1028 24.3404 29.9476 24.4706C29.7925 24.6007 29.6023 24.6658 29.377 24.6658ZM33.123 24.6658H32.1846C32.1245 24.6658 32.077 24.6649 32.0419 24.6633C32.0069 24.6599 31.9618 24.6491 31.9068 24.6307C31.8534 24.6107 31.8075 24.5815 31.7691 24.5431C31.7308 24.5048 31.7016 24.4589 31.6815 24.4055C31.6632 24.3504 31.6524 24.3054 31.649 24.2704C31.6473 24.2353 31.6465 24.1878 31.6465 24.1277V21.6401C31.6465 21.5801 31.6473 21.5325 31.649 21.4975C31.6524 21.4624 31.6632 21.4182 31.6815 21.3648C31.7016 21.3098 31.7308 21.2631 31.7691 21.2247C31.8075 21.1863 31.8534 21.158 31.9068 21.1396C31.9618 21.1196 32.0069 21.1087 32.0419 21.1071C32.077 21.1037 32.1245 21.1021 32.1846 21.1021H33.5785C33.6736 21.1021 33.7429 21.1054 33.7862 21.1121C33.8296 21.1171 33.8722 21.1296 33.9139 21.1496C33.9706 21.1763 34.0165 21.2214 34.0515 21.2848C34.0865 21.3465 34.1041 21.4157 34.1041 21.4925C34.1041 21.5692 34.0865 21.6393 34.0515 21.7027C34.0165 21.7644 33.9706 21.8086 33.9139 21.8353C33.8722 21.8554 33.8296 21.8687 33.7862 21.8754C33.7429 21.8804 33.6736 21.8829 33.5785 21.8829H32.5274V22.3734H33.123C33.4901 22.3734 33.7804 22.4802 33.9939 22.6937C34.2075 22.9056 34.3143 23.1809 34.3143 23.5196C34.3143 23.8599 34.2075 24.1361 33.9939 24.3479C33.7821 24.5598 33.4918 24.6658 33.123 24.6658ZM32.5274 23.885H33.083C33.1914 23.885 33.2774 23.8508 33.3408 23.7824C33.4058 23.714 33.4384 23.6264 33.4384 23.5196C33.4384 23.4145 33.4058 23.3286 33.3408 23.2618C33.2774 23.1934 33.1914 23.1592 33.083 23.1592H32.5274V23.885ZM37.7743 24.0952V21.6727C37.7743 21.5642 37.7768 21.4875 37.7818 21.4424C37.7885 21.3957 37.8043 21.3473 37.8294 21.2973C37.8611 21.2339 37.9111 21.1822 37.9795 21.1421C38.0496 21.1021 38.128 21.0821 38.2148 21.0821C38.3015 21.0821 38.3791 21.1021 38.4475 21.1421C38.5176 21.1822 38.5685 21.2339 38.6002 21.2973C38.6252 21.3473 38.6402 21.3957 38.6452 21.4424C38.6519 21.4875 38.6552 21.5642 38.6552 21.6727V24.0952C38.6552 24.2036 38.6519 24.2812 38.6452 24.3279C38.6402 24.373 38.6252 24.4205 38.6002 24.4706C38.5685 24.534 38.5176 24.5857 38.4475 24.6257C38.3791 24.6658 38.3015 24.6858 38.2148 24.6858C38.128 24.6858 38.0496 24.6658 37.9795 24.6257C37.9111 24.5857 37.8611 24.534 37.8294 24.4706C37.8043 24.4205 37.7885 24.373 37.7818 24.3279C37.7768 24.2812 37.7743 24.2036 37.7743 24.0952ZM36.2352 24.6658H35.3568C35.2967 24.6658 35.2492 24.6649 35.2142 24.6633C35.1791 24.6599 35.1341 24.6491 35.079 24.6307C35.0256 24.6107 34.9797 24.5815 34.9414 24.5431C34.903 24.5048 34.8738 24.4589 34.8538 24.4055C34.8354 24.3504 34.8246 24.3054 34.8213 24.2704C34.8196 24.2353 34.8187 24.1878 34.8187 24.1277V21.6727C34.8187 21.5642 34.8213 21.4875 34.8263 21.4424C34.8329 21.3957 34.8488 21.3473 34.8738 21.2973C34.9055 21.2339 34.9556 21.1822 35.024 21.1421C35.094 21.1021 35.1724 21.0821 35.2592 21.0821C35.346 21.0821 35.4235 21.1021 35.4919 21.1421C35.562 21.1822 35.6129 21.2339 35.6446 21.2973C35.6696 21.3473 35.6846 21.3957 35.6897 21.4424C35.6963 21.4875 35.6997 21.5642 35.6997 21.6727V22.3734H36.2352C36.4271 22.3734 36.6014 22.4059 36.7583 22.471C36.9151 22.5344 37.0427 22.6203 37.1412 22.7288C37.2413 22.8355 37.318 22.9573 37.3714 23.0941C37.4248 23.2293 37.4515 23.3711 37.4515 23.5196C37.4515 23.6681 37.4248 23.8107 37.3714 23.9475C37.318 24.0827 37.2413 24.2045 37.1412 24.3129C37.0427 24.4197 36.9151 24.5056 36.7583 24.5707C36.6014 24.6341 36.4271 24.6658 36.2352 24.6658ZM35.6997 23.885H36.1952C36.3103 23.885 36.4021 23.8491 36.4705 23.7773C36.5405 23.7039 36.5756 23.618 36.5756 23.5196C36.5756 23.4211 36.5405 23.3361 36.4705 23.2643C36.4021 23.1909 36.3103 23.1542 36.1952 23.1542H35.6997V23.885ZM27.971 29.0952V26.8829H27.3503V27.8138C27.3503 28.1108 27.3345 28.3661 27.3028 28.5796C27.2728 28.7932 27.2285 28.97 27.1701 29.1102C27.1134 29.2503 27.0367 29.3613 26.9399 29.443C26.8448 29.5248 26.7389 29.5824 26.6221 29.6157C26.5053 29.6491 26.366 29.6658 26.2041 29.6658C26.0924 29.6658 26.0131 29.6633 25.9664 29.6583C25.9197 29.6516 25.8755 29.6382 25.8338 29.6182C25.7787 29.5915 25.7328 29.5465 25.6961 29.4831C25.6611 29.4197 25.6436 29.3496 25.6436 29.2729C25.6436 29.1561 25.6803 29.061 25.7537 28.9876C25.8187 28.9225 25.9147 28.8875 26.0415 28.8825C26.1049 28.8791 26.1608 28.8649 26.2091 28.8399C26.2575 28.8132 26.2976 28.7815 26.3293 28.7448C26.3626 28.7064 26.3902 28.6556 26.4119 28.5922C26.4352 28.5288 26.4527 28.4695 26.4644 28.4145C26.4761 28.3594 26.4853 28.2885 26.4919 28.2018C26.4986 28.115 26.502 28.0416 26.502 27.9815C26.5036 27.9215 26.5045 27.8439 26.5045 27.7488V26.6401C26.5045 26.5801 26.5053 26.5325 26.507 26.4975C26.5103 26.4624 26.5211 26.4182 26.5395 26.3648C26.5595 26.3098 26.5887 26.2631 26.6271 26.2247C26.6655 26.1863 26.7113 26.158 26.7647 26.1396C26.8198 26.1196 26.8648 26.1087 26.8999 26.1071C26.9349 26.1037 26.9825 26.1021 27.0425 26.1021H28.3138C28.3739 26.1021 28.4214 26.1037 28.4565 26.1071C28.4915 26.1087 28.5357 26.1196 28.5891 26.1396C28.6442 26.158 28.6909 26.1863 28.7293 26.2247C28.7676 26.2631 28.796 26.3098 28.8144 26.3648C28.8344 26.4182 28.8452 26.4624 28.8469 26.4975C28.8502 26.5325 28.8519 26.5801 28.8519 26.6401V29.0952C28.8519 29.2036 28.8486 29.2812 28.8419 29.3279C28.8369 29.373 28.8219 29.4205 28.7968 29.4706C28.7651 29.534 28.7142 29.5857 28.6442 29.6257C28.5758 29.6658 28.4982 29.6858 28.4114 29.6858C28.3247 29.6858 28.2463 29.6658 28.1762 29.6257C28.1078 29.5857 28.0577 29.534 28.026 29.4706C28.001 29.4205 27.9852 29.373 27.9785 29.3279C27.9735 29.2812 27.971 29.2036 27.971 29.0952ZM31.4913 29.6658H30.1023C30.0423 29.6658 29.9947 29.6649 29.9597 29.6633C29.9246 29.6599 29.8796 29.6491 29.8245 29.6307C29.7712 29.6107 29.7253 29.5815 29.6869 29.5431C29.6485 29.5048 29.6193 29.4589 29.5993 29.4055C29.581 29.3504 29.5701 29.3054 29.5668 29.2704C29.5651 29.2353 29.5643 29.1878 29.5643 29.1277V26.6401C29.5643 26.5801 29.5651 26.5325 29.5668 26.4975C29.5701 26.4624 29.581 26.4182 29.5993 26.3648C29.6193 26.3098 29.6485 26.2631 29.6869 26.2247C29.7253 26.1863 29.7712 26.158 29.8245 26.1396C29.8796 26.1196 29.9246 26.1087 29.9597 26.1071C29.9947 26.1037 30.0423 26.1021 30.1023 26.1021H31.4913C31.5864 26.1021 31.6556 26.1054 31.699 26.1121C31.7424 26.1171 31.7849 26.1296 31.8266 26.1496C31.8833 26.1763 31.9292 26.2214 31.9643 26.2848C31.9993 26.3465 32.0168 26.4157 32.0168 26.4925C32.0168 26.5692 31.9993 26.6393 31.9643 26.7027C31.9292 26.7644 31.8833 26.8086 31.8266 26.8353C31.7849 26.8554 31.7424 26.8687 31.699 26.8754C31.6556 26.8804 31.5864 26.8829 31.4913 26.8829H30.4452V27.4785H31.266C31.3611 27.4785 31.4304 27.4818 31.4738 27.4885C31.5171 27.4935 31.5597 27.506 31.6014 27.5261C31.6581 27.5527 31.704 27.5978 31.739 27.6612C31.7741 27.7229 31.7916 27.7922 31.7916 27.8689C31.7916 27.9457 31.7741 28.0157 31.739 28.0791C31.704 28.1409 31.6581 28.1851 31.6014 28.2118C31.5597 28.2318 31.5171 28.2451 31.4738 28.2518C31.4304 28.2568 31.3611 28.2593 31.266 28.2593H30.4452V28.885H31.4913C31.5864 28.885 31.6556 28.8883 31.699 28.895C31.7424 28.9 31.7849 28.9125 31.8266 28.9325C31.8833 28.9592 31.9292 29.0043 31.9643 29.0677C31.9993 29.1294 32.0168 29.1986 32.0168 29.2754C32.0168 29.3521 31.9993 29.4222 31.9643 29.4856C31.9292 29.5473 31.8833 29.5915 31.8266 29.6182C31.7849 29.6382 31.7424 29.6516 31.699 29.6583C31.6556 29.6633 31.5864 29.6658 31.4913 29.6658ZM34.2664 29.0952V28.3995C33.9811 28.4495 33.7116 28.4745 33.458 28.4745C33.2912 28.4745 33.1377 28.442 32.9976 28.3769C32.8591 28.3119 32.7456 28.2134 32.6572 28.0816C32.5688 27.9482 32.5246 27.7938 32.5246 27.6186V26.6727C32.5246 26.5642 32.5271 26.4875 32.5321 26.4424C32.5388 26.3957 32.5546 26.3473 32.5796 26.2973C32.6113 26.2339 32.6614 26.1822 32.7298 26.1421C32.7999 26.1021 32.8783 26.0821 32.965 26.0821C33.0518 26.0821 33.1294 26.1021 33.1978 26.1421C33.2678 26.1822 33.3187 26.2339 33.3504 26.2973C33.3755 26.3473 33.3905 26.3957 33.3955 26.4424C33.4021 26.4875 33.4055 26.5642 33.4055 26.6727V27.3734C33.4055 27.4735 33.4338 27.5511 33.4906 27.6061C33.549 27.6612 33.6316 27.6887 33.7383 27.6887C33.9235 27.6887 34.0995 27.6737 34.2664 27.6437V26.6727C34.2664 26.5642 34.2689 26.4875 34.2739 26.4424C34.2806 26.3957 34.2964 26.3473 34.3214 26.2973C34.3531 26.2339 34.4032 26.1822 34.4716 26.1421C34.5417 26.1021 34.6201 26.0821 34.7068 26.0821C34.7936 26.0821 34.8712 26.1021 34.9396 26.1421C35.0097 26.1822 35.0605 26.2339 35.0922 26.2973C35.1173 26.3473 35.1323 26.3957 35.1373 26.4424C35.144 26.4875 35.1473 26.5642 35.1473 26.6727V29.0952C35.1473 29.2036 35.144 29.2812 35.1373 29.3279C35.1323 29.373 35.1173 29.4205 35.0922 29.4706C35.0605 29.534 35.0097 29.5857 34.9396 29.6257C34.8712 29.6658 34.7936 29.6858 34.7068 29.6858C34.6201 29.6858 34.5417 29.6658 34.4716 29.6257C34.4032 29.5857 34.3531 29.534 34.3214 29.4706C34.2964 29.4205 34.2806 29.373 34.2739 29.3279C34.2689 29.2812 34.2664 29.2036 34.2664 29.0952ZM35.6797 28.9951L36.6307 26.47C36.6841 26.3298 36.745 26.233 36.8134 26.1797C36.8951 26.1146 36.9986 26.0821 37.1237 26.0821C37.2488 26.0821 37.3523 26.1146 37.434 26.1797C37.5024 26.233 37.5633 26.3298 37.6167 26.47L38.5677 28.9951C38.601 29.0852 38.6236 29.1561 38.6352 29.2078C38.6486 29.2578 38.6486 29.3154 38.6352 29.3805C38.6236 29.4439 38.591 29.5023 38.5376 29.5557C38.4509 29.6424 38.3458 29.6858 38.2223 29.6858C38.1222 29.6858 38.0396 29.6558 37.9746 29.5957C37.9379 29.5623 37.9078 29.5248 37.8845 29.4831C37.8628 29.4414 37.8353 29.3738 37.8019 29.2804L37.7493 29.1352H36.498L36.4455 29.2804C36.4121 29.3738 36.3837 29.4414 36.3604 29.4831C36.3387 29.5248 36.3095 29.5623 36.2728 29.5957C36.2077 29.6558 36.1251 29.6858 36.025 29.6858C35.9016 29.6858 35.7965 29.6424 35.7097 29.5557C35.6563 29.5023 35.623 29.4439 35.6096 29.3805C35.5979 29.3154 35.5979 29.2578 35.6096 29.2078C35.623 29.1561 35.6463 29.0852 35.6797 28.9951ZM37.4841 28.4045L37.1237 27.4134L36.7633 28.4045H37.4841ZM39.4068 29.0952V26.8829H39.0389C38.9438 26.8829 38.8746 26.8804 38.8312 26.8754C38.7878 26.8687 38.7453 26.8554 38.7036 26.8353C38.6468 26.8086 38.601 26.7644 38.5659 26.7027C38.5309 26.6393 38.5134 26.5692 38.5134 26.4925C38.5134 26.4157 38.5309 26.3465 38.5659 26.2848C38.601 26.2214 38.6468 26.1763 38.7036 26.1496C38.7453 26.1296 38.7878 26.1171 38.8312 26.1121C38.8746 26.1054 38.9438 26.1021 39.0389 26.1021H40.6556C40.7507 26.1021 40.8199 26.1054 40.8633 26.1121C40.9067 26.1171 40.9492 26.1296 40.9909 26.1496C41.0477 26.1763 41.0935 26.2214 41.1286 26.2848C41.1636 26.3465 41.1811 26.4157 41.1811 26.4925C41.1811 26.5692 41.1636 26.6393 41.1286 26.7027C41.0935 26.7644 41.0477 26.8086 40.9909 26.8353C40.9492 26.8554 40.9067 26.8687 40.8633 26.8754C40.8199 26.8804 40.7507 26.8829 40.6556 26.8829H40.2877V29.0952C40.2877 29.2036 40.2844 29.2812 40.2777 29.3279C40.2727 29.373 40.2577 29.4205 40.2326 29.4706C40.2009 29.534 40.1501 29.5857 40.08 29.6257C40.0116 29.6658 39.934 29.6858 39.8472 29.6858C39.7605 29.6858 39.6821 29.6658 39.612 29.6257C39.5436 29.5857 39.4935 29.534 39.4618 29.4706C39.4368 29.4205 39.421 29.373 39.4143 29.3279C39.4093 29.2812 39.4068 29.2036 39.4068 29.0952ZM25.7487 31.983C25.7487 31.7578 25.8546 31.5509 26.0665 31.3623C26.19 31.2539 26.3293 31.1788 26.4844 31.1371C26.6413 31.0937 26.8306 31.072 27.0525 31.072C27.4363 31.072 27.7474 31.1646 27.986 31.3498C28.2246 31.5334 28.3439 31.7778 28.3439 32.0831C28.3439 32.2383 28.3038 32.3809 28.2237 32.511C28.1453 32.6412 28.0419 32.7454 27.9134 32.8239C28.0586 32.8973 28.1745 33.0024 28.2613 33.1392C28.3497 33.2743 28.3939 33.4295 28.3939 33.6047C28.3939 33.9333 28.2688 34.1978 28.0185 34.398C27.7699 34.5965 27.4446 34.6958 27.0425 34.6958C26.8123 34.6958 26.6187 34.6749 26.4619 34.6332C26.3051 34.5899 26.1649 34.5139 26.0415 34.4055C25.8279 34.2153 25.7211 34.0084 25.7211 33.7849C25.7211 33.6464 25.7612 33.5396 25.8413 33.4645C25.923 33.3878 26.0206 33.3494 26.1341 33.3494C26.2408 33.3494 26.3401 33.3803 26.4319 33.442C26.4969 33.487 26.562 33.5705 26.6271 33.6923C26.6738 33.779 26.7305 33.8416 26.7973 33.88C26.864 33.9167 26.9549 33.935 27.07 33.935C27.2119 33.935 27.3211 33.9016 27.3979 33.8349C27.4746 33.7682 27.513 33.6814 27.513 33.5746C27.513 33.4595 27.4771 33.3686 27.4054 33.3019C27.3353 33.2335 27.2277 33.1992 27.0826 33.1992H27.0175C26.8707 33.1992 26.7681 33.1851 26.7097 33.1567C26.6579 33.1317 26.6162 33.0916 26.5845 33.0366C26.5528 32.9799 26.537 32.9156 26.537 32.8439C26.537 32.7721 26.5528 32.7087 26.5845 32.6537C26.6162 32.597 26.6579 32.5561 26.7097 32.5311C26.7681 32.5027 26.8707 32.4885 27.0175 32.4885H27.0826C27.2027 32.4885 27.2978 32.4585 27.3679 32.3984C27.4379 32.3367 27.473 32.2533 27.473 32.1482C27.473 32.0497 27.4371 31.9713 27.3653 31.9129C27.2936 31.8529 27.1977 31.8228 27.0776 31.8228C26.9658 31.8228 26.8765 31.842 26.8098 31.8804C26.7447 31.9171 26.6888 31.9788 26.6421 32.0656C26.577 32.1874 26.512 32.2708 26.4469 32.3158C26.3551 32.3776 26.2584 32.4084 26.1566 32.4084C26.0465 32.4084 25.9505 32.3701 25.8688 32.2933C25.7887 32.2182 25.7487 32.1148 25.7487 31.983ZM32.0404 34.4405V34.851C32.0404 34.9544 32.0371 35.0286 32.0304 35.0737C32.0254 35.1187 32.012 35.163 31.9903 35.2063C31.9603 35.2664 31.9128 35.3148 31.8477 35.3515C31.7843 35.3882 31.7117 35.4065 31.63 35.4065C31.5482 35.4065 31.4748 35.3882 31.4097 35.3515C31.3463 35.3148 31.2996 35.2664 31.2696 35.2063C31.2479 35.163 31.2337 35.1187 31.2271 35.0737C31.222 35.0286 31.2195 34.9544 31.2195 34.851V34.6658H29.4502V34.851C29.4502 34.9544 29.4469 35.0286 29.4402 35.0737C29.4352 35.1187 29.4218 35.163 29.4002 35.2063C29.3701 35.2664 29.3226 35.3148 29.2575 35.3515C29.1941 35.3882 29.1215 35.4065 29.0398 35.4065C28.958 35.4065 28.8846 35.3882 28.8196 35.3515C28.7562 35.3148 28.7094 35.2664 28.6794 35.2063C28.6577 35.163 28.6435 35.1187 28.6369 35.0737C28.6319 35.0286 28.6294 34.9544 28.6294 34.851V34.4405C28.6294 34.3371 28.6319 34.2629 28.6369 34.2178C28.6435 34.1728 28.6577 34.1285 28.6794 34.0852C28.7044 34.0334 28.7436 33.9901 28.797 33.955C28.8504 33.92 28.9113 33.8983 28.9797 33.89C29.0948 33.588 29.1824 33.2393 29.2425 32.8439C29.3042 32.4468 29.3351 32.0447 29.3351 31.6376V31.6026C29.3351 31.4224 29.3751 31.2923 29.4552 31.2122C29.4886 31.1788 29.5295 31.1538 29.5778 31.1371C29.6262 31.1188 29.6663 31.1087 29.698 31.1071C29.7313 31.1037 29.7772 31.1021 29.8356 31.1021H31.0944C31.1545 31.1021 31.202 31.1037 31.2371 31.1071C31.2721 31.1087 31.3163 31.1196 31.3697 31.1396C31.4248 31.158 31.4715 31.1863 31.5098 31.2247C31.5482 31.2631 31.5766 31.3098 31.5949 31.3648C31.615 31.4182 31.6258 31.4624 31.6275 31.4975C31.6308 31.5325 31.6325 31.5801 31.6325 31.6401V33.885C31.7126 33.8866 31.7851 33.9058 31.8502 33.9425C31.9153 33.9776 31.962 34.0251 31.9903 34.0852C32.012 34.1285 32.0254 34.1728 32.0304 34.2178C32.0371 34.2629 32.0404 34.3371 32.0404 34.4405ZM30.7516 33.885V31.8829H30.191V31.978C30.191 32.3717 30.1634 32.7146 30.1084 33.0065C30.055 33.2969 29.9758 33.5897 29.8706 33.885H30.7516ZM34.4436 34.6658H33.0546C32.9946 34.6658 32.947 34.6649 32.912 34.6633C32.8769 34.6599 32.8319 34.6491 32.7768 34.6307C32.7234 34.6107 32.6776 34.5815 32.6392 34.5431C32.6008 34.5048 32.5716 34.4589 32.5516 34.4055C32.5332 34.3504 32.5224 34.3054 32.5191 34.2704C32.5174 34.2353 32.5166 34.1878 32.5166 34.1277V31.6401C32.5166 31.5801 32.5174 31.5325 32.5191 31.4975C32.5224 31.4624 32.5332 31.4182 32.5516 31.3648C32.5716 31.3098 32.6008 31.2631 32.6392 31.2247C32.6776 31.1863 32.7234 31.158 32.7768 31.1396C32.8319 31.1196 32.8769 31.1087 32.912 31.1071C32.947 31.1037 32.9946 31.1021 33.0546 31.1021H34.4436C34.5387 31.1021 34.6079 31.1054 34.6513 31.1121C34.6946 31.1171 34.7372 31.1296 34.7789 31.1496C34.8356 31.1763 34.8815 31.2214 34.9165 31.2848C34.9516 31.3465 34.9691 31.4157 34.9691 31.4925C34.9691 31.5692 34.9516 31.6393 34.9165 31.7027C34.8815 31.7644 34.8356 31.8086 34.7789 31.8353C34.7372 31.8554 34.6946 31.8687 34.6513 31.8754C34.6079 31.8804 34.5387 31.8829 34.4436 31.8829H33.3975V32.4785H34.2183C34.3134 32.4785 34.3827 32.4818 34.426 32.4885C34.4694 32.4935 34.512 32.506 34.5537 32.5261C34.6104 32.5527 34.6563 32.5978 34.6913 32.6612C34.7263 32.7229 34.7439 32.7922 34.7439 32.8689C34.7439 32.9457 34.7263 33.0157 34.6913 33.0791C34.6563 33.1409 34.6104 33.1851 34.5537 33.2118C34.512 33.2318 34.4694 33.2451 34.426 33.2518C34.3827 33.2568 34.3134 33.2593 34.2183 33.2593H33.3975V33.885H34.4436C34.5387 33.885 34.6079 33.8883 34.6513 33.895C34.6946 33.9 34.7372 33.9125 34.7789 33.9325C34.8356 33.9592 34.8815 34.0043 34.9165 34.0677C34.9516 34.1294 34.9691 34.1986 34.9691 34.2754C34.9691 34.3521 34.9516 34.4222 34.9165 34.4856C34.8815 34.5473 34.8356 34.5915 34.7789 34.6182C34.7372 34.6382 34.6946 34.6516 34.6513 34.6583C34.6079 34.6633 34.5387 34.6658 34.4436 34.6658ZM35.4393 33.2343C35.4376 33.1525 35.4368 33.0357 35.4368 32.8839C35.4368 32.7321 35.4376 32.6161 35.4393 32.5361C35.4427 32.4543 35.4502 32.3542 35.4618 32.2357C35.4752 32.1156 35.4935 32.018 35.5169 31.9429C35.5419 31.8662 35.5786 31.7844 35.627 31.6977C35.6754 31.6109 35.7346 31.5325 35.8047 31.4624C36.065 31.2022 36.3928 31.072 36.7882 31.072C37.0068 31.072 37.1836 31.0929 37.3188 31.1346C37.4539 31.1746 37.5765 31.2439 37.6866 31.3423C37.8084 31.4524 37.8952 31.5667 37.9469 31.6852C37.9986 31.802 38.0245 31.9079 38.0245 32.003C38.0245 32.1432 37.9836 32.2541 37.9019 32.3359C37.8201 32.4176 37.7192 32.4585 37.5991 32.4585C37.5056 32.4585 37.4272 32.436 37.3638 32.3909C37.2904 32.3409 37.2128 32.2433 37.1311 32.0981C37.081 32.0097 37.0276 31.9471 36.9709 31.9104C36.9158 31.872 36.8483 31.8529 36.7682 31.8529C36.6364 31.8529 36.5313 31.9046 36.4529 32.008C36.3995 32.0781 36.3636 32.1707 36.3453 32.2858C36.3269 32.3993 36.3177 32.5986 36.3177 32.8839C36.3177 33.1692 36.3269 33.3694 36.3453 33.4845C36.3636 33.598 36.3995 33.6898 36.4529 33.7598C36.5313 33.8633 36.6364 33.915 36.7682 33.915C36.8483 33.915 36.9158 33.8966 36.9709 33.8599C37.0276 33.8216 37.081 33.7582 37.1311 33.6697C37.2128 33.5246 37.2904 33.427 37.3638 33.3769C37.4272 33.3319 37.5056 33.3094 37.5991 33.3094C37.7192 33.3094 37.8201 33.3502 37.9019 33.432C37.9836 33.5137 38.0245 33.6247 38.0245 33.7648C38.0245 33.8599 37.9986 33.9667 37.9469 34.0852C37.8952 34.202 37.8084 34.3154 37.6866 34.4255C37.5765 34.524 37.4539 34.594 37.3188 34.6357C37.1836 34.6758 37.0068 34.6958 36.7882 34.6958C36.3928 34.6958 36.065 34.5657 35.8047 34.3054C35.7346 34.2353 35.6754 34.1569 35.627 34.0702C35.5786 33.9834 35.5419 33.9025 35.5169 33.8274C35.4935 33.7507 35.4752 33.6531 35.4618 33.5346C35.4502 33.4145 35.4427 33.3144 35.4393 33.2343ZM39.994 34.6658H39.1156C39.0555 34.6658 39.008 34.6649 38.9729 34.6633C38.9379 34.6599 38.8929 34.6491 38.8378 34.6307C38.7844 34.6107 38.7385 34.5815 38.7002 34.5431C38.6618 34.5048 38.6326 34.4589 38.6126 34.4055C38.5942 34.3504 38.5834 34.3054 38.58 34.2704C38.5784 34.2353 38.5775 34.1878 38.5775 34.1277V31.6727C38.5775 31.5642 38.58 31.4875 38.585 31.4424C38.5917 31.3957 38.6076 31.3473 38.6326 31.2973C38.6643 31.2339 38.7143 31.1822 38.7827 31.1421C38.8528 31.1021 38.9312 31.0821 39.018 31.0821C39.1047 31.0821 39.1823 31.1021 39.2507 31.1421C39.3208 31.1822 39.3717 31.2339 39.4034 31.2973C39.4284 31.3473 39.4434 31.3957 39.4484 31.4424C39.4551 31.4875 39.4584 31.5642 39.4584 31.6727V32.3734H39.994C40.1859 32.3734 40.3602 32.4059 40.517 32.471C40.6739 32.5344 40.8015 32.6203 40.8999 32.7288C41 32.8355 41.0768 32.9573 41.1302 33.0941C41.1836 33.2293 41.2103 33.3711 41.2103 33.5196C41.2103 33.6681 41.1836 33.8107 41.1302 33.9475C41.0768 34.0827 41 34.2045 40.8999 34.3129C40.8015 34.4197 40.6739 34.5056 40.517 34.5707C40.3602 34.6341 40.1859 34.6658 39.994 34.6658ZM39.4584 33.885H39.954C40.0691 33.885 40.1608 33.8491 40.2292 33.7773C40.2993 33.7039 40.3344 33.618 40.3344 33.5196C40.3344 33.4211 40.2993 33.3361 40.2292 33.2643C40.1608 33.1909 40.0691 33.1542 39.954 33.1542H39.4584V33.885Z" fill="white"/>
<path fill-rule="evenodd" clip-rule="evenodd" d="M25.8166 13.4849C25.8166 16.009 25.1096 18.366 23.8851 20.364L12.9042 39.6172L1.72528 20.0168H1.72601C0.628256 18.0952 0 15.8643 0 13.4849C0 6.26823 5.77924 0.417969 12.9083 0.417969C20.0374 0.417969 25.8166 6.26823 25.8166 13.4849ZM12.9071 19.0889C15.9624 19.0889 18.4393 16.5816 18.4393 13.4888C18.4393 10.3959 15.9624 7.88867 12.9071 7.88867C9.85182 7.88867 7.375 10.3959 7.375 13.4888C7.375 16.5816 9.85182 19.0889 12.9071 19.0889Z" fill="#4D4D4D"/>
</svg>
