<svg width="36" height="36" viewBox="0 0 36 36" fill="none" xmlns="http://www.w3.org/2000/svg">
<g filter="url(#filter0_b_564_56083)">
<circle cx="18" cy="18" r="17" fill="#06102E"/>
</g>
<path fill-rule="evenodd" clip-rule="evenodd" d="M23.6894 12.3351C22.2071 10.8216 20.158 10 18.0654 10C13.6185 10 10.0436 13.5892 10.0872 17.9568C10.0872 19.3405 10.4796 20.6811 11.1335 21.8919L10 26L14.2289 24.9189C15.406 25.5676 16.7139 25.8703 18.0218 25.8703C22.4251 25.8703 26 22.2811 26 17.9135C26 15.7946 25.1717 13.8054 23.6894 12.3351ZM18.0654 24.5297C16.8883 24.5297 15.7112 24.227 14.7084 23.6216L14.4469 23.4919L11.9183 24.1405L12.5722 21.6757L12.3978 21.4162C10.4796 18.3459 11.3951 14.2811 14.5341 12.3784C17.673 10.4757 21.7275 11.3838 23.6458 14.4973C25.564 17.6108 24.6485 21.6324 21.5095 23.5351C20.5068 24.1838 19.2861 24.5297 18.0654 24.5297ZM21.9019 19.7297L21.4223 19.5135C21.4223 19.5135 20.7248 19.2108 20.2888 18.9946C20.2452 18.9946 20.2016 18.9514 20.158 18.9514C20.0272 18.9514 19.9401 18.9946 19.8529 19.0378C19.8529 19.0378 19.8093 19.0811 19.1989 19.773C19.1553 19.8595 19.0681 19.9027 18.9809 19.9027H18.9373C18.8937 19.9027 18.8065 19.8595 18.7629 19.8162L18.545 19.7297C18.0654 19.5135 17.6294 19.2541 17.2807 18.9081C17.1935 18.8216 17.0627 18.7351 16.9755 18.6486C16.6703 18.3459 16.3651 18 16.1471 17.6108L16.1035 17.5243C16.0599 17.4811 16.0599 17.4378 16.0163 17.3514C16.0163 17.2649 16.0163 17.1784 16.0599 17.1351C16.0599 17.1351 16.2343 16.9189 16.3651 16.7892C16.4523 16.7027 16.4959 16.573 16.5831 16.4865C16.6703 16.3568 16.7139 16.1838 16.6703 16.0541C16.6267 15.8378 16.1035 14.6703 15.9728 14.4108C15.8856 14.2811 15.7984 14.2378 15.6676 14.1946H15.5368C15.4496 14.1946 15.3188 14.1946 15.188 14.1946C15.1008 14.1946 15.0136 14.2378 14.9264 14.2378L14.8828 14.2811C14.7956 14.3243 14.7084 14.4108 14.6213 14.4541C14.5341 14.5405 14.4905 14.627 14.4033 14.7135C14.0981 15.1027 13.9237 15.5784 13.9237 16.0541C13.9237 16.4 14.0109 16.7459 14.1417 17.0486L14.1853 17.1784C14.5777 18 15.1008 18.7351 15.7984 19.3838L15.9728 19.5568C16.1035 19.6865 16.2343 19.773 16.3215 19.9027C17.2371 20.6811 18.2834 21.2432 19.4605 21.5459C19.5913 21.5892 19.7657 21.5892 19.8965 21.6324C20.0272 21.6324 20.2016 21.6324 20.3324 21.6324C20.5504 21.6324 20.812 21.5459 20.9864 21.4595C21.1172 21.373 21.2044 21.373 21.2916 21.2865L21.3787 21.2C21.4659 21.1135 21.5531 21.0703 21.6403 20.9838C21.7275 20.8973 21.8147 20.8108 21.8583 20.7243C21.9455 20.5514 21.9891 20.3351 22.0327 20.1189C22.0327 20.0324 22.0327 19.9027 22.0327 19.8162C22.0327 19.8162 21.9891 19.773 21.9019 19.7297Z" fill="white"/>
<defs>
<filter id="filter0_b_564_56083" x="-19" y="-19" width="74" height="74" filterUnits="userSpaceOnUse" color-interpolation-filters="sRGB">
<feFlood flood-opacity="0" result="BackgroundImageFix"/>
<feGaussianBlur in="BackgroundImageFix" stdDeviation="10"/>
<feComposite in2="SourceAlpha" operator="in" result="effect1_backgroundBlur_564_56083"/>
<feBlend mode="normal" in="SourceGraphic" in2="effect1_backgroundBlur_564_56083" result="shape"/>
</filter>
</defs>
</svg>
