<svg width="44" height="28" viewBox="0 0 44 28" fill="none" xmlns="http://www.w3.org/2000/svg">
<path fill-rule="evenodd" clip-rule="evenodd" d="M6.21999 28L8.00144 19.1129H10.9001L9.12868 28H6.21999ZM14.9662 25.0913H16.8081L16.335 21.8303L14.9662 25.0913ZM10.9001 28L15.2883 19.1129H18.1467L19.9482 28H17.261L17.0999 26.9432H14.2416L13.7886 28H10.9001ZM22.6154 28L23.6118 21.317H21.0755L21.5083 19.0726H29.2983L28.8656 21.317H26.45L25.4738 28H22.6154ZM32.358 25.0913H34.1999L33.7268 21.8303L32.358 25.0913ZM28.3019 28L32.6801 19.1129H35.5385L37.34 28H34.6326L34.5018 26.9432H31.6434L31.1905 28H28.3019ZM43.6707 9.0683H30.0331C29.5298 11.5643 27.7987 13.6477 24.3465 15.087C24.739 16.2746 26.0776 17.3717 27.4666 17.3717H34.8641C35.9914 17.3717 36.8871 16.4256 37.2495 15.6607H29.7311C29.2682 15.5802 29.248 15.2078 29.711 15.1675H37.0985C38.0546 15.1675 38.9202 14.3523 39.4234 13.4666H30.8181C30.3853 13.3961 30.3853 13.0338 30.8181 12.9633H39.4939C40.3695 12.9633 41.1646 11.9468 41.4968 11.2624H31.9756C31.5025 11.202 31.5025 10.7592 31.9756 10.7491H41.6679C42.4227 10.7491 43.1574 9.9238 43.6707 9.0683ZM0 9.0683H13.6377C14.1308 11.5643 15.872 13.6477 19.3142 15.087C18.9216 16.2746 17.583 17.3717 16.1941 17.3717H8.80661C7.67937 17.3717 6.78361 16.4256 6.42128 15.6607H13.9396C14.3925 15.5802 14.4227 15.2078 13.9597 15.1675H6.56219C5.60604 15.1675 4.74047 14.3523 4.2473 13.4666H12.8627C13.2955 13.3961 13.2955 13.0338 12.8627 12.9633H4.18692C3.31129 12.9633 2.51618 11.9468 2.18404 11.2624H11.7052C12.1783 11.202 12.1783 10.7592 11.7052 10.7491H2.01294C1.24802 10.7491 0.5133 9.9238 0 9.0683ZM17.4119 1.58016C17.9152 2.01294 18.4788 2.3954 19.0827 2.63695C19.596 1.63048 20.3106 0.764917 21.1359 0C19.7771 0.181165 18.4989 0.694464 17.4119 1.58016ZM14.9964 6.54206H18.0359C18.1064 5.29403 18.3681 4.19698 18.8613 3.06973C18.1869 2.76779 17.6032 2.40546 17.0395 1.92236C15.7815 3.18045 15.087 4.80086 14.9964 6.54206ZM21.5988 3.69375V6.54206H18.5593C18.5794 5.42487 18.8411 4.2775 19.3142 3.24083C20.0388 3.50252 20.8239 3.67362 21.5988 3.69375ZM26.2588 1.58016C25.7656 2.01294 25.1819 2.3954 24.5881 2.63695C24.0446 1.61035 23.3702 0.785047 22.5248 0.0100647C23.8936 0.181165 25.1718 0.694465 26.2588 1.58016ZM28.6643 6.54206H25.6348C25.5945 5.31416 25.3127 4.16679 24.8296 3.06973C25.4738 2.76779 26.0877 2.38533 26.6211 1.92236C27.9295 3.23077 28.6039 4.84112 28.6643 6.54206ZM22.092 3.69375V6.54206H25.1114C25.1114 5.39468 24.8296 4.29763 24.3566 3.24083C23.6319 3.50252 22.8569 3.67362 22.092 3.69375ZM17.4119 12.0072C17.9152 11.6147 18.4989 11.1819 19.0827 10.9705C19.6262 11.9871 20.3005 12.8224 21.1359 13.5773C19.7771 13.3961 18.4788 12.8828 17.4119 12.0072ZM14.9964 7.03523H18.0359C18.1064 8.29331 18.3681 9.40043 18.8613 10.5377C18.1869 10.8397 17.6032 11.202 17.0395 11.6751C15.8016 10.427 15.087 8.80661 14.9964 7.03523ZM21.5988 9.8936V7.03523H18.5593C18.5794 8.1826 18.8411 9.31991 19.3142 10.3364C20.0388 10.0748 20.8239 9.91373 21.5988 9.8936ZM26.2588 12.0072C25.7858 11.5945 25.1819 11.2121 24.5881 10.9705C24.0446 11.9871 23.3702 12.8224 22.5248 13.5773C23.8936 13.3961 25.1718 12.8828 26.2588 12.0072ZM28.6643 7.03523H25.6348C25.5945 8.29331 25.3228 9.4105 24.8296 10.5377C25.4738 10.8397 26.0575 11.202 26.6211 11.6751C27.8692 10.427 28.6039 8.76636 28.6643 7.03523ZM22.092 9.8936V7.03523H25.1114C25.1114 8.1826 24.8296 9.29978 24.3566 10.3364C23.652 10.0748 22.8368 9.91373 22.092 9.8936ZM21.5989 0.291876C20.7735 0.956147 20.0388 1.86197 19.5557 2.80805C20.2099 3.02948 20.9044 3.21064 21.5989 3.21064V0.291876ZM22.092 0.291876C22.8972 0.956147 23.6319 1.83178 24.115 2.80805C23.4608 3.0496 22.7664 3.21064 22.092 3.21064V0.291876ZM21.5989 13.2955C20.7735 12.6413 20.0388 11.7354 19.5557 10.7692C20.2099 10.5377 20.9044 10.4069 21.5989 10.4069V13.2955ZM22.092 13.3156C22.8972 12.6413 23.6319 11.7354 24.115 10.7692C23.4608 10.5579 22.7664 10.4069 22.092 10.4069V13.3156Z" fill="#212121"/>
</svg>
