<svg width="191" height="36" viewBox="0 0 191 36" fill="none" xmlns="http://www.w3.org/2000/svg">
<rect x="19.3438" y="10.1768" width="9.56138" height="15.6166" fill="#FF5F00"/>
<path d="M20.3291 17.9865C20.3267 14.9396 21.7254 12.0608 24.1222 10.1796C20.0504 6.97957 14.2032 7.44567 10.6898 11.2503C7.17633 15.0549 7.17633 20.9207 10.6898 24.7254C14.2032 28.53 20.0504 28.9961 24.1222 25.7961C21.7246 23.9143 20.3258 21.0343 20.3291 17.9865Z" fill="#EB001B"/>
<path d="M40.194 17.9864C40.1939 21.7887 38.0228 25.2572 34.6027 26.9188C31.1827 28.5803 27.1141 28.1433 24.125 25.7933C26.5208 23.9105 27.9196 21.0321 27.9196 17.985C27.9196 14.9379 26.5208 12.0595 24.125 10.1767C27.1141 7.82668 31.1827 7.38965 34.6027 9.05124C38.0228 10.7128 40.1939 14.1813 40.194 17.9836V17.9864Z" fill="#F79E1B"/>
<path fill-rule="evenodd" clip-rule="evenodd" d="M84.8245 14.7147C84.7971 16.9435 86.7487 18.1873 88.2188 18.9267C89.7294 19.6855 90.2367 20.172 90.231 20.8505C90.2194 21.889 89.026 22.3472 87.909 22.3651C86.0129 22.3955 84.8891 21.8526 84 21.4231L83.9265 21.3876L83.2246 24.7783C84.1283 25.2083 85.8017 25.5832 87.5371 25.5996C91.6104 25.5996 94.2754 23.5241 94.2898 20.306C94.2993 17.8627 92.3388 16.8002 90.77 15.9499C89.7164 15.3789 88.8394 14.9036 88.8545 14.1702C88.8675 13.6167 89.3791 13.0261 90.5005 12.8758C91.0554 12.7999 92.5876 12.7419 94.3244 13.5676L95.0062 10.287C94.0722 9.93586 92.8715 9.59961 91.3769 9.59961C87.5428 9.59961 84.8461 11.7034 84.8245 14.7147ZM101.557 9.88229C100.813 9.88229 100.186 10.3301 99.9068 11.0175L94.088 25.3586H98.1584L98.9685 23.048L103.943 23.048L104.412 25.3586H108L104.869 9.88229H101.557ZM103.301 19.8745L102.126 14.0631L100.084 19.8745H103.301ZM79.8893 9.88229L76.6808 25.3586H80.5595L83.7665 9.88229L79.8893 9.88229ZM70.114 20.416L74.1512 9.88229H78.2245L71.9402 25.3586H67.841L64.7478 13.0082C64.5604 12.2479 64.3976 11.9682 63.8268 11.6483C62.8942 11.1246 61.3549 10.6351 60 10.3316L60.0922 9.88229H66.6922C67.5325 9.88229 68.2892 10.4596 68.4809 11.4594L70.114 20.416Z" fill="#005198"/>
<path fill-rule="evenodd" clip-rule="evenodd" d="M177.178 9.59961H166.664C167.229 13.1008 170.621 16.3761 174.351 16.3761H182.717C182.83 16.0373 182.83 15.5855 182.83 15.2467C182.83 12.0843 180.343 9.59961 177.178 9.59961Z" fill="url(#paint0_linear_363_47374)"/>
<path fill-rule="evenodd" clip-rule="evenodd" d="M167.57 16.9404V25.411H172.658V20.8934H177.18C179.667 20.8934 181.815 19.1993 182.493 16.9404H167.57Z" fill="#4DB45F"/>
<path fill-rule="evenodd" clip-rule="evenodd" d="M149.477 9.59961V25.4114H153.999C153.999 25.4114 155.129 25.4114 155.694 24.282C158.747 18.1831 159.651 16.3761 159.651 16.3761H160.216V25.4114H165.303V9.59961H160.781C160.781 9.59961 159.651 9.71255 159.086 10.729C156.486 15.9243 155.129 18.6349 155.129 18.6349H154.564V9.59961H149.477Z" fill="#4DB45F"/>
<path fill-rule="evenodd" clip-rule="evenodd" d="M128 25.4114V9.59961H133.087C133.087 9.59961 134.557 9.59961 135.348 11.8584C137.383 17.8443 137.609 18.6349 137.609 18.6349C137.609 18.6349 138.061 17.1667 139.87 11.8584C140.662 9.59961 142.131 9.59961 142.131 9.59961H147.218V25.4114H142.131V16.9408H141.566L138.74 25.4114H136.479L133.652 16.9408H133.087V25.4114H128Z" fill="#4DB45F"/>
<defs>
<linearGradient id="paint0_linear_363_47374" x1="166.635" y1="16.3822" x2="182.83" y2="16.3822" gradientUnits="userSpaceOnUse">
<stop stop-color="#00B4E6"/>
<stop offset="1" stop-color="#088CCB"/>
</linearGradient>
</defs>
</svg>
