<svg width="92" height="93" viewBox="0 0 92 93" fill="none" xmlns="http://www.w3.org/2000/svg">
<path fill-rule="evenodd" clip-rule="evenodd" d="M64.1496 83.4667C70.7272 83.4294 72.6981 53.9157 72.8162 47.3095C72.8582 44.9469 72.9203 42.602 72.9239 40.2774C72.926 38.9754 72.9469 33.893 72.6593 32.9208L62.6536 34.0816C62.442 35.61 63.3409 38.567 63.2691 40.1705C63.2205 41.2343 62.39 41.318 61.3762 41.4325L30.1405 45.1657C29.0772 45.2995 28.104 45.5658 27.7199 44.5582C27.1938 43.1738 27.4123 39.9132 26.8437 38.3998L16.8407 39.5647C16.746 41.0904 18.3229 46.608 18.7096 48.4094C20.7432 57.8584 27.832 80.3544 34.6935 85.9133C37.715 88.3615 37.986 85.2758 38.5838 81.8334C39.9168 74.1559 39.4882 53.5947 44.9662 50.4298C51.9742 46.3796 56.8846 63.6804 58.1346 67.9711C58.5285 69.3243 59.0078 70.7321 59.4086 72.1045C60.189 74.7871 62.3367 82.1378 64.1499 83.4689L64.1496 83.4667Z" fill="white"/>
<path fill-rule="evenodd" clip-rule="evenodd" d="M28.9804 35.1728L33.8318 34.6262C34.6568 40.5827 33.6978 40.326 37.8657 39.8298C42.0781 39.3283 41.1428 39.7041 40.5548 33.7886L46.8272 33.0833C47.01 34.3856 47.0865 36.2689 47.3631 37.4705C47.721 39.0315 49.3593 38.4106 50.8589 38.2313C52.4851 38.0368 54.0518 38.1738 54.0795 36.6718C54.1 35.6001 53.6863 33.4597 53.5577 32.2337L59.8315 31.5214L60.7339 39.0859L29.8739 42.7383L28.9762 35.1755L28.9804 35.1728ZM72.9274 40.2783C72.9235 42.6007 72.8616 44.9478 72.8197 47.3105C72.7019 53.9188 70.7309 83.4325 64.1531 83.4676C62.3399 82.1365 60.1947 74.7878 59.4118 72.1032C59.011 70.7308 58.5317 69.323 58.1378 67.9698C56.8878 63.6791 51.9774 46.3783 44.9694 50.4285C39.4914 53.5934 39.9222 74.1544 38.587 81.8321C37.9892 85.2745 37.7182 88.3602 34.6967 85.912C27.8352 80.3531 20.7464 57.8571 18.7128 48.4081C18.3236 46.6047 16.7469 41.0893 16.8439 39.5634L26.8469 38.3985C27.4157 39.9141 27.197 43.1725 27.7231 44.5569C28.1072 45.5645 29.0804 45.2982 30.1437 45.1644L61.3794 41.4312C62.3932 41.3167 63.2237 41.233 63.2723 40.1692C63.3464 38.5654 62.4477 35.6107 62.6568 34.0803L72.6626 32.9195C72.9501 33.8917 72.9292 38.9741 72.9271 40.2761L72.9274 40.2783ZM35.4423 28.421L37.648 28.1549L38.7761 37.4752L36.5655 37.7194L35.4442 28.4185L35.4423 28.421ZM48.6078 27.1328C49.212 26.9286 49.7657 26.8288 50.3933 26.9708L51.4183 35.6166C50.855 35.8808 50.2858 35.9265 49.626 35.8735L48.6078 27.1328ZM5.55755 35.066C6.21421 34.7347 24.584 32.5155 26.3382 32.4869L26.7477 35.9297C24.9511 36.3011 6.66398 38.4768 5.90433 38.3239L5.55781 35.0682L5.55755 35.066ZM61.7477 28.2121L82.5122 25.7804L82.9111 28.607C82.9096 29.4237 82.8149 29.2538 81.9618 29.3558C77.0344 29.9451 66.4718 31.4051 62.1681 31.6894L61.8542 29.027L61.7499 28.2119L61.7477 28.2121ZM27.7583 25.0854L58.6319 21.4336L59.5303 29.003L53.2598 29.7238C52.5334 24.61 53.5605 23.834 49.202 24.3574C44.7969 24.8865 46.0181 25.0737 46.5294 30.5555L40.2553 31.2655C39.4502 25.9084 40.5598 25.3887 36.2011 25.91C31.8645 26.4285 33.0261 26.7392 33.5309 32.1099L28.6681 32.6557L27.758 25.0832L27.7583 25.0854ZM15.735 31.2139C14.7602 25.4185 17.0329 16.291 21.6313 12.0638C28.8184 5.46004 34.7375 12.7109 41.9177 11.8522C45.41 11.4346 48.6693 8.82362 51.3768 7.30759C58.2621 3.45551 64.7415 8.11842 68.1706 14.1057C69.6287 16.6514 71.5074 21.2247 71.7617 24.5384L61.5816 25.7111C60.5316 19.739 61.9048 18.5212 58.3684 18.9665L30.3057 22.3247C28.7017 22.5165 25.4225 22.3606 25.2424 23.8697C25.115 24.934 25.8208 28.556 25.908 30.0197L15.735 31.2139ZM46.3069 52.738C51.2141 51.5271 55.6039 69.0535 56.9362 73.1844C58.0967 76.7834 59.3567 81.6858 61.3845 84.4541C64.5484 88.7708 68.3978 84.3669 69.8258 81.5164C73.9586 73.2648 75.4613 56.1343 75.469 45.911C75.4701 44.8081 75.4879 32.7471 75.4984 32.7213C76.5524 32.1702 81.1362 31.9106 82.7249 31.7229C84.0092 31.5715 85.0554 31.6142 85.4394 30.6422C85.6711 30.0553 84.9435 24.2348 84.6284 23.7669C83.5375 22.1437 77.1962 24.6848 74.6207 24.0824C73.9226 22.5598 73.8223 18.4426 70.4605 12.7157C68.5844 9.51992 66.03 6.72065 63.2459 5.12767C60.273 3.4253 55.8375 2.36309 51.6046 4.20022C48.5951 5.50854 44.6878 8.97542 41.1452 9.21788C37.2232 9.34019 33.8301 7.11992 30.0543 6.61855C21.9852 5.54575 16.4075 12.1158 14.1852 19.3851C12.3204 25.4799 13.0749 30.2816 12.8238 31.4413L12.5647 31.555C12.3562 31.6202 12.377 31.6244 12.1303 31.6718C11.8702 31.7208 11.4502 31.7509 11.1722 31.7819L5.78243 32.4242C2.38092 32.8288 2.77901 32.9355 3.26401 36.9911C3.96948 42.8903 3.59216 40.7903 13.1374 40.0559L14.0128 40.1212C14.4205 40.9493 15.1405 45.2742 15.4841 46.6401C18.2879 57.8 24.1848 78.3 30.7807 85.9531C33.3552 88.9401 37.5898 91.6011 39.79 87.4637C41.0777 85.0416 41.7847 79.233 42.0093 75.9671C42.2846 71.9571 42.6213 67.5371 43.1188 63.5385C43.5649 59.9577 44.0906 54.5554 46.3066 52.7358L46.3069 52.738Z" fill="#4D4D4D"/>
<path fill-rule="evenodd" clip-rule="evenodd" d="M15.7334 31.217L25.9064 30.0228C25.8192 28.5592 25.1134 24.9371 25.2408 23.8728C25.4208 22.3638 28.7001 22.5196 30.3041 22.3278L58.3668 18.9696C61.9034 18.5266 60.5303 19.7443 61.58 25.7142L71.7601 24.5415C71.5058 21.2278 69.6271 16.6545 68.169 14.1089C64.7402 8.12375 58.2627 3.45837 51.3752 7.31072C48.6697 8.82427 45.4084 11.4377 41.9161 11.8553C34.7359 12.714 28.8168 5.46317 21.6297 12.0669C17.0313 16.2942 14.7586 25.4216 15.7334 31.217Z" fill="white"/>
<path fill-rule="evenodd" clip-rule="evenodd" d="M29.8811 42.7361L60.7412 39.0836L59.8388 31.5192L53.565 32.2314C53.6914 33.4577 54.1051 35.5981 54.0867 36.6695C54.0591 38.1715 52.4924 38.0345 50.8662 38.229C49.3644 38.4086 47.7283 39.0293 47.3704 37.4683C47.0937 36.2666 47.0175 34.3856 46.8345 33.081L40.5621 33.7864C41.1501 39.7019 42.0831 39.3263 37.873 39.8276C33.705 40.3238 34.6644 40.5826 33.8391 34.6239L28.9877 35.1705L29.8853 42.7333L29.8811 42.7361Z" fill="#B2B2B2"/>
<path fill-rule="evenodd" clip-rule="evenodd" d="M28.6676 32.6543L33.5305 32.1085C33.0279 26.7376 31.8641 26.4271 36.2006 25.9085C40.5593 25.3873 39.4497 25.907 40.2549 31.2641L46.5289 30.5541C46.0176 25.0723 44.7964 24.8851 49.2015 24.356C53.56 23.8326 52.5326 24.6064 53.2594 29.7223L59.5299 29.0015L58.6314 21.4321L27.7578 25.084L28.6679 32.6565L28.6676 32.6543Z" fill="#B2B2B2"/>
<path fill-rule="evenodd" clip-rule="evenodd" d="M5.90624 38.3197C6.66837 38.4747 24.953 36.297 26.7496 35.9256L26.3401 32.4821C24.5861 32.5128 6.21602 34.7298 5.55936 35.0611L5.90597 38.3175L5.90624 38.3197Z" fill="#E32E16"/>
<path fill-rule="evenodd" clip-rule="evenodd" d="M61.8565 29.028L62.1704 31.6909C66.4744 31.4089 77.037 29.9488 81.9642 29.3574C82.8195 29.2551 82.9123 29.4274 82.9135 28.6084L82.5145 25.7812L61.75 28.2129L61.8543 29.0282L61.8565 29.028Z" fill="#E32E16"/>
<path fill-rule="evenodd" clip-rule="evenodd" d="M36.5688 37.7206L38.7758 37.4768L37.65 28.1563L35.4456 28.4221L36.5688 37.7206Z" fill="white"/>
<path fill-rule="evenodd" clip-rule="evenodd" d="M49.6274 35.8727C50.2868 35.9258 50.8556 35.8802 51.4185 35.616L50.3936 26.9701C49.7666 26.8304 49.2133 26.9301 48.6092 27.1321L49.6274 35.8727Z" fill="white"/>
</svg>
