<svg width="53" height="70" viewBox="0 0 53 70" fill="none" xmlns="http://www.w3.org/2000/svg">
<path fill-rule="evenodd" clip-rule="evenodd" d="M41.0553 11.3116C44.2221 6.47762 33.6401 3.78307 31.8353 7.37768C31.5696 7.90783 29.1565 7.06776 27.0172 8.45238C19.7517 13.1546 7.70466 -3.57081 1.63326 16.6404C-1.65802 27.5971 1.42816 38.4007 4.06205 50.026C5.24019 55.2258 10.6626 77.7155 15.6101 62.1248C17.3473 56.6513 18.8419 47.093 21.8306 42.2864C24.1112 38.6183 29.7291 45.3138 29.406 51.6512C29.3476 52.8014 33.7239 67.8173 35.1028 67.8173C39.748 67.8173 44.151 50.6614 44.6512 46.3944C45.3611 40.3407 52.2532 10.8926 42.0881 10.4515C41.3555 10.4198 41.4313 10.7373 41.055 11.3113L41.0553 11.3116Z" fill="#FEFEFE"/>
<path fill-rule="evenodd" clip-rule="evenodd" d="M33.6595 11.2792C34.1739 10.6101 37.7581 9.17957 38.5215 8.4191C39.4157 7.52761 40.5267 4.24367 41.3775 3.56162C41.835 4.36616 43.7023 8.08248 44.1035 8.47079C44.5188 8.8735 48.4097 10.6873 48.9664 11.2275C47.9977 11.8578 44.6651 13.4076 44.0897 13.9959C43.4982 14.6016 42.1025 17.8353 41.3385 18.8046C41.3121 18.7811 41.2795 18.7453 41.2651 18.728L40.5539 17.5748C38.2514 13.1509 39.0682 14.0391 33.6595 11.2786V11.2792ZM37.7868 5.12223C37.3771 4.92543 35.6057 4.69544 34.9458 4.69544C30.7815 4.69544 27.7106 8.02285 24.2854 8.10539C22.3465 8.15209 20.5765 7.11609 18.94 6.35591C15.9471 4.96597 13.4818 3.9943 10.0853 5.26381C9.6237 5.43624 9.07908 5.60101 8.66936 5.83776C7.44551 6.54449 6.24775 7.38839 5.2899 8.4282L4.38131 9.51003C1.69047 12.865 0 18.5861 0 23.0488L0.143117 30.4459C0.170099 31.0275 0.275391 31.2742 0.31557 31.9659L0.827049 36.5902C1.17517 39.7287 1.75822 44.1265 2.46356 46.9023C2.59436 47.4169 2.64832 47.9121 2.7583 48.457L5.20455 58.243C5.92192 60.431 6.65042 62.6866 7.67104 64.7357C7.87047 65.1358 8.02708 65.4542 8.26464 65.849C9.67473 68.1912 10.949 70 13.7798 70C16.8569 70 18.2995 60.8182 18.7635 58.4874C19.5064 54.7538 22.4075 36.0074 26.5392 44.7005C28.1954 48.185 28.7148 52.136 29.4876 55.9754L30.5531 62.0216C30.8871 63.6915 31.8728 69.9997 34.52 69.9997C36.9545 69.9997 38.1256 68.739 39.3767 66.8964C40.4416 65.3282 41.171 63.7729 41.8646 61.9899L43.6923 56.5646C44.2595 54.5687 44.7291 52.6436 45.1364 50.6124L46.8172 41.6321C46.9999 40.5288 47.0759 39.334 47.2665 38.3761C47.6795 36.2973 47.7109 34.0191 48.0232 31.8781C48.3053 29.9456 48.4414 27.0626 48.4414 24.8984C48.4414 23.7872 48.2974 23.1545 48.2995 22.1946C48.3024 21.0253 48.1602 20.4733 47.2683 20.2234C45.0883 19.6127 46.026 22.6757 46.026 23.9021L45.7629 29.4715C45.6476 30.5516 45.6904 31.4836 45.5781 32.559C45.3758 34.5009 45.1335 36.4004 44.8458 38.3705C44.2528 42.4367 43.4636 46.5098 42.6544 50.5455C41.8458 54.5796 38.4807 67.5805 35.0878 67.5805C34.3079 67.5805 33.8179 65.2101 33.585 64.3906C33.3888 63.7006 33.2592 63.0497 33.1354 62.4223C31.9693 56.505 31.3508 50.4077 29.2034 44.7342C28.4039 42.6214 26.8346 39.979 24.1493 39.979C19.5762 39.979 18.5045 48.9881 17.4889 52.658C16.7249 55.4205 16.2081 59.1659 15.4046 62.3794C15.2013 63.1927 14.2716 67.5805 13.3531 67.5805C12.5178 67.5805 11.777 66.7857 11.3813 66.2828L10.0777 64.1744C7.53173 59.5875 6.44366 53.5266 5.25558 48.5158C4.3294 44.607 2.81696 35.2355 2.69877 31.3006C2.66475 30.1686 2.40079 29.5089 2.41428 28.1703C2.42718 26.9507 2.27234 26.1991 2.27234 24.8981C2.27234 18.1381 5.35647 7.11375 13.3528 7.11375C18.0488 7.11375 21.4667 12.413 27.4595 9.86015C30.6094 8.51838 32.5594 7.11375 35.7975 7.11375L32.623 8.91374C32.0077 9.22598 31.5702 9.50679 30.9631 9.81256C29.2107 10.6944 29.675 11.9457 31.2018 12.712L33.0492 13.7075C33.8475 14.1102 36.1533 15.2296 36.6876 15.7548C37.2745 16.3311 39.6876 21.4468 40.278 22.1179C40.5061 22.3776 40.9018 22.6217 41.3379 22.6217C42.4999 22.6217 43.2242 20.4219 43.7592 19.4978C44.0701 18.9603 44.459 18.3458 44.749 17.7863C44.9171 17.4608 45.0435 17.2123 45.2347 16.8501C45.452 16.4386 45.396 16.2729 45.6819 15.8749C46.0787 15.3221 46.7483 15.1791 47.3498 14.8422L51.0255 12.8324C51.8913 12.3081 52.5605 12.1519 52.5605 11.0974C52.5605 10.0937 50.8616 9.51707 49.4292 8.68522L47.6839 7.7297C45.4224 6.51394 45.491 6.5301 43.8472 3.17772C43.3809 2.22661 42.9981 1.34834 42.401 0.500628C42.0344 -0.0201608 41.5394 0.000105674 40.912 0.000105674C40.2586 0.000105674 37.8681 4.77269 37.7865 5.12194L37.7868 5.12223Z" fill="black"/>
<path fill-rule="evenodd" clip-rule="evenodd" d="M33.6626 11.2841C39.0713 14.0446 38.2545 13.1564 40.557 17.5803L41.2682 18.7335C41.2823 18.7505 41.3152 18.7866 41.3416 18.8101C42.1056 17.8408 43.5013 14.6068 44.0928 14.0014C44.6682 13.4131 48.0011 11.8633 48.9695 11.233C48.4128 10.6925 44.5219 8.87872 44.1066 8.47631C43.7057 8.08799 41.8381 4.37167 41.3806 3.56714C40.5298 4.24919 39.4188 7.53313 38.5246 8.42461C37.7612 9.18509 34.1767 10.6153 33.6626 11.2847V11.2841Z" fill="#9D9E9E"/>
<path fill-rule="evenodd" clip-rule="evenodd" d="M22.7204 24.4737C23.3255 24.0942 24.8385 23.3719 25.13 23.0409C25.5174 22.6003 26.0418 21.2896 26.4753 20.6986C27.493 21.8542 26.9504 23.28 30.2941 24.4097C29.9838 24.8106 29.5544 24.9945 29.0465 25.2559C27.7549 25.9209 27.8244 25.9321 27.1583 27.2078C26.9633 27.5817 26.7319 28.0608 26.3958 28.3375C26.1923 27.8246 25.338 26.2343 24.9907 25.9036C24.383 25.3246 23.1994 25.0955 22.7201 24.474L22.7204 24.4737ZM19.0312 24.4737C19.0312 25.0973 19.3632 25.3716 19.7433 25.6104L23.3079 27.5893C24.8282 29.0133 25.7415 35.135 28.2191 30.1184C28.474 29.6023 28.6186 29.399 28.8787 28.9296C29.7207 27.4101 29.436 27.5658 31.9588 26.323C32.8946 25.8625 33.9475 25.4095 33.9475 24.4737C33.9475 23.0608 30.61 22.3985 29.6242 21.4054C28.7207 20.4954 27.9115 17.0754 26.5606 17.0754C24.9743 17.0754 24.4998 20.0427 23.4017 21.3099L19.88 23.3317C19.4052 23.5784 19.0315 23.7517 19.0315 24.4737H19.0312Z" fill="black"/>
<path fill-rule="evenodd" clip-rule="evenodd" d="M5.54102 18.7809C5.54102 19.6771 5.7947 20.8972 7.0083 20.5451C8.83807 20.0143 6.87427 18.0187 9.57597 14.5699C13.0053 10.1927 16.9053 12.6774 16.9053 10.3863C16.9053 8.03143 11.1958 9.4863 8.48731 12.1989C7.15435 13.5339 5.54102 16.1884 5.54102 18.7806V18.7809Z" fill="black"/>
<path fill-rule="evenodd" clip-rule="evenodd" d="M22.7256 24.4724C23.2048 25.0939 24.3885 25.3233 24.9962 25.902C25.3434 26.2327 26.1974 27.823 26.4013 28.3359C26.7371 28.0592 26.9685 27.5801 27.1638 27.2062C27.8298 25.9302 27.7603 25.9193 29.0519 25.2543C29.5599 24.9929 29.9893 24.809 30.2996 24.408C26.9559 23.2783 27.4984 21.8529 26.4807 20.697C26.047 21.288 25.5229 22.5983 25.1355 23.0392C24.844 23.3703 23.3309 24.0926 22.7259 24.4721L22.7256 24.4724Z" fill="#9D9E9E"/>
</svg>
