<svg width="74" height="73" viewBox="0 0 74 73" fill="none" xmlns="http://www.w3.org/2000/svg">
<path fill-rule="evenodd" clip-rule="evenodd" d="M66.9287 46.7353L66.9501 64.554L47.6616 64.5721L49.4683 56.7108C49.6487 55.7369 50.6693 48.4863 50.739 48.3561C51.23 47.4403 56.7145 46.4576 58.2436 46.2572C60.1234 46.0102 65.5232 45.8925 66.9287 46.7357V46.7353ZM38.2307 64.5698L31.6569 64.5517C31.6523 63.6582 33.3925 54.2794 34.898 54.3105C36.4849 54.3431 38.2372 62.6532 38.2307 64.5698ZM2.27356 46.6622C4.46065 45.9293 8.8841 45.9734 11.1949 46.2851C14.3155 46.706 16.4808 47.3589 19.0194 48.3896C19.1914 51.101 19.6944 54.0333 20.1789 56.6606L21.9396 64.5512L2.29634 64.5503L2.2731 46.6618L2.27356 46.6622ZM41.9284 70.3596L41.2077 67.9989C40.0193 62.9481 39.3075 52.3576 34.8669 52.1228C33.2275 52.0367 32.1842 53.9115 31.682 55.1454C29.9682 59.3539 29.3569 67.2724 27.724 70.3596C24.3057 69.5625 21.8378 54.1105 21.3389 50.7261C20.4988 45.0219 19.7242 37.0001 24.0844 32.6521C27.843 28.9035 30.9409 33.2116 35.0831 33.2116C36.4068 33.2116 37.4268 32.6949 38.3921 32.2419C40.8479 31.0894 43.0549 30.3969 45.3945 32.4833C51.224 37.681 48.3543 51.3126 47.0483 57.848C46.6276 59.9515 44.5511 69.7476 41.9284 70.3592V70.3596ZM18.4828 41.5998L18.6539 45.7084C17.1131 45.3493 16.6017 44.9349 14.1054 44.4377C12.2545 44.0689 11.0186 43.8824 8.88921 43.8271C8.38242 43.8141 8.0737 43.7401 7.76777 43.7206C7.40186 43.6969 7.24657 43.7745 6.67609 43.8127C5.54442 43.888 4.94837 43.8652 3.94503 44.0052C3.14812 44.1164 2.27449 44.235 1.47526 44.4447C0.621625 44.668 0 44.8749 0 45.879V65.5655C0 67.4566 2.77895 66.9352 4.62059 66.9352H22.7612C23.6799 68.8495 25.0417 72.5841 27.8951 72.5841C28.9789 72.5841 29.8167 71.2679 30.1728 70.4117C30.4964 69.6355 31.0729 67.824 31.1464 66.9352L37.3199 66.9357C38.3702 66.9059 38.4762 66.6129 38.7138 67.2287C38.9435 67.8249 38.9151 68.81 39.6018 70.4596C41.4146 74.8156 44.6069 71.6912 46.0938 68.7053C46.1868 68.5198 47.0135 66.5799 47.1432 66.9203L47.4524 66.9027C47.623 66.905 47.8787 66.9264 48.0721 66.9315C52.9387 67.064 59.505 66.9347 64.5176 66.9347C65.4804 66.9347 66.4796 66.9622 67.4369 66.945C68.0265 66.9338 68.3012 66.9157 68.6909 66.6585C68.9703 66.4743 69.3092 66.1032 69.3092 65.7362V45.707C69.3092 44.0792 64.2972 43.8699 62.7982 43.8187C60.3531 43.7345 57.7522 43.8657 55.4582 44.348C53.3985 44.7814 52.4914 45.1879 50.998 45.5363L51.1691 41.9412C51.1691 36.4453 48.5157 30.5578 44.2196 29.2063C41.7796 28.4384 40.157 28.9877 37.9945 29.9611C35.0203 31.2991 34.7204 31.3894 31.7741 30.0141C30.8242 29.5709 29.9083 29.1691 28.8761 28.9742C26.3538 28.498 24.5907 29.396 23.0267 30.5666C20.092 32.7637 18.4823 37.9401 18.4823 41.5989L18.4828 41.5998Z" fill="#010101"/>
<path fill-rule="evenodd" clip-rule="evenodd" d="M34.1671 24.3555C35.7135 23.5355 36.4034 25.9093 35.1537 26.4749C34.3847 26.8232 33.7082 26.4242 33.5055 25.8796C33.1484 24.9215 33.6807 24.6136 34.1671 24.3555ZM42.5527 5.77075C47.4151 5.814 52.2928 5.77819 57.1565 5.77819C59.6668 5.77819 69.995 5.45449 71.6315 5.88097L71.5939 8.15756L42.5718 8.16128L42.5527 5.77075ZM28.8602 2.30402L40.3224 2.30728C40.6623 3.34255 40.4466 9.23237 40.4517 10.7848C40.4619 13.7562 39.4809 15.3738 37.7132 16.4998C33.0587 19.4642 27.683 14.6631 28.8686 10.3937C31.8084 10.0081 35.7265 11.1564 35.7014 9.25236C35.6777 7.46365 31.82 8.36964 28.7728 8.13198L28.8607 2.30448L28.8602 2.30402ZM26.5234 1.0269V12.154C26.5234 15.5398 30.0719 19.5154 33.3692 19.5154C33.3692 23.5723 33.3167 21.4543 31.966 23.076C30.037 25.3917 31.6931 28.93 34.5669 28.93C37.364 28.93 39.3502 25.5093 37.3519 23.2342C35.6735 21.3241 35.7646 23.4425 35.7646 20.0288C35.7646 18.914 37.2394 20.3223 40.5154 17.0769C42.3626 15.2477 42.781 13.2553 42.781 10.442H72.9008C74.3998 10.442 73.9274 6.65348 73.9274 4.79314C73.9274 3.77275 73.237 3.42348 72.216 3.42348H42.781C42.781 1.82266 43.1274 0 41.4122 0H27.5505C27.1381 0 26.5234 0.614838 26.5234 1.0269Z" fill="#010101"/>
<path fill-rule="evenodd" clip-rule="evenodd" d="M2.29622 64.5508L21.9395 64.5518L20.1788 56.6612C19.6943 54.0339 19.1908 51.1011 19.0192 48.3901C16.4806 47.359 14.3154 46.7065 11.1947 46.2856C8.88397 45.974 4.46052 45.9298 2.27344 46.6628L2.29668 64.5513L2.29622 64.5508Z" fill="white"/>
<path fill-rule="evenodd" clip-rule="evenodd" d="M66.9312 46.734C65.5257 45.8908 60.1259 46.0085 58.2461 46.2555C56.7169 46.4559 51.2325 47.4386 50.7415 48.3544C50.6718 48.4846 49.6512 55.7348 49.4708 56.7091L47.6641 64.5704L66.9526 64.5523L66.9312 46.7336V46.734Z" fill="white"/>
<path fill-rule="evenodd" clip-rule="evenodd" d="M28.7738 8.13069C31.8211 8.36835 35.6787 7.46283 35.7024 9.25107C35.727 11.1551 31.8094 10.0068 28.8696 10.3924C27.684 14.6623 33.0597 19.4629 37.7142 16.4985C39.4819 15.372 40.4629 13.7549 40.4527 10.7835C40.4476 9.23108 40.6633 3.34126 40.3235 2.30599L28.8613 2.30273L28.7734 8.13022L28.7738 8.13069Z" fill="#B3B3B3"/>
<path fill-rule="evenodd" clip-rule="evenodd" d="M42.5816 8.16534L71.6036 8.16162L71.6413 5.88435C70.0047 5.45821 59.6765 5.78154 57.1663 5.78154C52.3021 5.78154 47.4249 5.81783 42.5625 5.7741L42.5816 8.16534Z" fill="#575556"/>
<path fill-rule="evenodd" clip-rule="evenodd" d="M38.2312 64.5699C38.2381 62.6533 36.485 54.3432 34.8979 54.3106C33.3922 54.2795 31.6516 63.6583 31.6563 64.5518L38.2312 64.5699Z" fill="white"/>
<path fill-rule="evenodd" clip-rule="evenodd" d="M23.2709 40.2302C23.733 40.2302 23.7423 40.1483 24.1268 40.059C24.5983 39.0754 24.3509 38.2819 24.8624 37.1997C25.2524 36.3732 25.8508 35.6398 26.6305 35.2026C27.0406 34.9729 27.5069 34.825 28.0207 34.7101C28.408 34.6231 30.5053 34.6706 30.1934 33.2814C29.6508 30.8611 23.2871 33.0874 22.3368 37.5857C22.082 38.7931 21.89 40.2311 23.2709 40.2311V40.2302Z" fill="#010101"/>
<path fill-rule="evenodd" clip-rule="evenodd" d="M34.169 24.3561C33.6826 24.6143 33.1501 24.9223 33.5073 25.8806C33.71 26.4254 34.3866 26.8245 35.1558 26.4761C36.4057 25.9104 35.7152 23.5359 34.169 24.3561Z" fill="#B3B3B3"/>
</svg>
