<svg width="1280" height="166" viewBox="0 0 1280 166" fill="none" xmlns="http://www.w3.org/2000/svg">
<path d="M1496.04 31.2566C955.278 209.85 372.765 209.85 -168 31.2566C-164.67 20.8305 -161.339 10.4261 -158.009 0C376.27 176.46 951.774 176.46 1486.05 0C1489.38 10.4261 1492.71 20.8305 1496.04 31.2566Z" fill="#C7B773"/>
<path d="M470.715 125.201C466.688 124.897 462.662 124.592 458.635 124.287C446.076 134.278 433.364 144.203 420.5 154.02C424.57 154.39 428.641 154.76 432.711 155.108C445.51 145.226 458.178 135.279 470.693 125.201H470.715Z" fill="#A67C52"/>
<path d="M430.097 121.872C426.071 121.524 422.044 121.154 418.039 120.762C405.305 130.557 392.463 140.264 379.469 149.885C383.539 150.321 387.609 150.756 391.68 151.169C404.631 141.505 417.451 131.732 430.119 121.872H430.097Z" fill="#A67C52"/>
<path d="M348.984 113.314C344.979 112.835 340.952 112.335 336.947 111.834C323.931 121.237 310.762 130.531 297.484 139.739C301.533 140.304 305.603 140.87 309.652 141.415C322.908 132.142 336.011 122.782 348.984 113.336V113.314Z" fill="#A67C52"/>
<path d="M389.508 117.911C385.481 117.476 381.476 117.063 377.449 116.605C364.585 126.204 351.569 135.716 338.422 145.119C342.492 145.62 346.541 146.121 350.611 146.6C363.714 137.131 376.665 127.554 389.508 117.911Z" fill="#A67C52"/>
<path d="M633.5 132.164C629.473 132.121 625.424 132.056 621.397 131.99C609.469 142.743 597.389 153.43 585.156 164.03C589.227 164.161 593.319 164.27 597.389 164.379C609.556 153.713 621.593 142.982 633.478 132.164H633.5Z" fill="#A67C52"/>
<path d="M511.4 127.879C507.374 127.639 503.347 127.4 499.32 127.139C486.913 137.325 474.354 147.447 461.664 157.459C465.734 157.764 469.805 158.069 473.897 158.374C486.543 148.296 499.059 138.131 511.422 127.879H511.4Z" fill="#A67C52"/>
<path d="M592.775 131.36C588.748 131.251 584.7 131.142 580.673 131.012C568.571 141.59 556.338 152.082 543.953 162.486C548.023 162.66 552.116 162.834 556.186 163.008C568.527 152.539 580.717 142.004 592.753 131.36H592.775Z" fill="#A67C52"/>
<path d="M308.491 108.09C304.486 107.546 300.481 106.98 296.476 106.414C283.307 115.599 270.008 124.698 256.578 133.687C260.627 134.319 264.675 134.95 268.724 135.559C282.11 126.504 295.366 117.341 308.491 108.09Z" fill="#A67C52"/>
<path d="M552.076 129.945C548.049 129.77 544.001 129.596 539.974 129.4C527.719 139.783 515.313 150.079 502.797 160.309C506.867 160.548 510.959 160.788 515.03 161.027C527.524 150.753 539.865 140.392 552.076 129.966V129.945Z" fill="#A67C52"/>
<path d="M268.076 102.216C264.071 101.606 260.088 100.975 256.083 100.344C242.762 109.333 229.332 118.214 215.75 127.008C219.799 127.704 223.825 128.379 227.874 129.054C241.413 120.217 254.799 111.27 268.076 102.216Z" fill="#A67C52"/>
<path d="M67.1577 63.4055C63.1962 62.4913 59.2565 61.5554 55.295 60.5977C41.2992 68.4989 27.1945 76.313 12.9375 83.9966C16.9208 85.0196 20.9258 86.0208 24.909 87.0003C39.1225 79.2515 53.2054 71.3938 67.1577 63.4055Z" fill="#A67C52"/>
<path d="M674.257 132.316C670.23 132.316 666.181 132.338 662.155 132.316C650.379 143.265 638.473 154.126 626.414 164.923C630.506 164.988 634.576 165.031 638.669 165.075C650.684 154.235 662.546 143.308 674.278 132.316H674.257Z" fill="#A67C52"/>
<path d="M27.2933 53.744C23.3536 52.7645 19.4139 51.7633 15.4524 50.7402C1.32598 58.4238 -12.9093 65.9985 -27.2969 73.4426C-23.3136 74.5092 -19.3304 75.5757 -15.3471 76.6423C-1.00303 69.1111 13.2105 61.4711 27.2933 53.7222V53.744Z" fill="#A67C52"/>
<path d="M227.718 95.728C223.735 95.0532 219.73 94.3567 215.747 93.6602C202.295 102.432 188.713 111.117 175 119.671C179.027 120.433 183.075 121.173 187.102 121.913C200.771 113.293 214.31 104.543 227.74 95.7062L227.718 95.728Z" fill="#A67C52"/>
<path d="M187.454 88.5896C183.471 87.8495 179.487 87.1095 175.504 86.3477C161.9 94.9236 148.187 103.369 134.344 111.727C138.371 112.554 142.397 113.36 146.424 114.165C160.224 105.742 173.915 97.2309 187.476 88.6114L187.454 88.5896Z" fill="#A67C52"/>
<path d="M107.17 72.4401C103.209 71.5694 99.2475 70.6988 95.286 69.8281C81.4208 77.9688 67.425 85.9788 53.3203 93.88C57.3253 94.816 61.3304 95.7519 65.3354 96.6879C79.4183 88.7214 93.3705 80.6243 107.192 72.4401H107.17Z" fill="#A67C52"/>
<path d="M147.267 80.8402C143.284 80.0348 139.323 79.2295 135.34 78.4023C121.605 86.7389 107.761 94.9884 93.7656 103.129C97.7706 104.021 101.797 104.892 105.802 105.741C119.755 97.5568 133.555 89.242 147.246 80.8402H147.267Z" fill="#A67C52"/>
<path d="M796.381 128.988C792.355 129.184 788.328 129.38 784.301 129.576C773.026 141.069 761.62 152.474 750.062 163.815C754.155 163.684 758.225 163.532 762.295 163.401C773.81 152.017 785.172 140.546 796.381 129.01V128.988Z" fill="#A67C52"/>
<path d="M1280.89 58.6387C1276.92 59.5964 1272.98 60.5541 1269.02 61.4901C1259.95 74.8982 1250.72 88.2628 1241.34 101.562C1245.34 100.67 1249.35 99.7555 1253.37 98.8413C1262.71 85.4767 1271.87 72.0903 1280.91 58.6387H1280.89Z" fill="#A67C52"/>
<path d="M1240.94 68C1236.98 68.8924 1233.02 69.7848 1229.06 70.6555C1219.78 83.9113 1210.36 97.1235 1200.78 110.292C1204.81 109.465 1208.81 108.616 1212.84 107.767C1222.35 94.555 1231.73 81.2993 1240.94 68Z" fill="#A67C52"/>
<path d="M1160.75 84.7793C1156.77 85.5411 1152.79 86.3029 1148.8 87.0648C1139.16 100.016 1129.35 112.923 1119.4 125.787C1123.45 125.091 1127.47 124.372 1131.52 123.654C1141.43 110.747 1151.16 97.7956 1160.75 84.8011V84.7793Z" fill="#A67C52"/>
<path d="M1200.89 76.707C1196.91 77.5342 1192.95 78.3613 1188.97 79.1666C1179.5 92.27 1169.9 105.33 1160.12 118.346C1164.15 117.584 1168.18 116.801 1172.21 116.017C1181.91 102.957 1191.47 89.854 1200.87 76.707H1200.89Z" fill="#A67C52"/>
<path d="M714.957 131.842C710.931 131.929 706.904 131.994 702.855 132.059C691.254 143.182 679.5 154.239 667.594 165.21C671.686 165.21 675.756 165.188 679.848 165.166C691.689 154.152 703.4 143.03 714.936 131.864L714.957 131.842Z" fill="#A67C52"/>
<path d="M918.324 119.955C914.297 120.347 910.27 120.739 906.265 121.109C895.513 133.102 884.629 145.03 873.594 156.893C877.664 156.567 881.734 156.24 885.805 155.892C896.797 143.986 907.636 131.992 918.324 119.934V119.955Z" fill="#A67C52"/>
<path d="M837.068 126.617C833.042 126.878 829.015 127.14 824.988 127.401C813.887 139.068 802.656 150.647 791.25 162.162C795.32 161.966 799.412 161.77 803.483 161.552C814.823 149.994 826.011 138.349 837.047 126.639L837.068 126.617Z" fill="#A67C52"/>
<path d="M877.704 123.611C873.677 123.938 869.65 124.264 865.645 124.569C854.719 136.388 843.661 148.164 832.43 159.852C836.522 159.591 840.592 159.33 844.662 159.047C855.829 147.315 866.842 135.496 877.704 123.611Z" fill="#A67C52"/>
<path d="M755.685 130.73C751.658 130.861 747.61 131.013 743.583 131.122C732.156 142.419 720.576 153.672 708.844 164.817C712.936 164.751 717.006 164.664 721.098 164.577C732.765 153.368 744.301 142.071 755.685 130.73Z" fill="#A67C52"/>
<path d="M1039.84 105.219C1035.84 105.806 1031.83 106.372 1027.83 106.938C1017.62 119.432 1007.26 131.861 996.766 144.224C1000.81 143.702 1004.88 143.179 1008.95 142.657C1019.4 130.228 1029.7 117.756 1039.86 105.219H1039.84Z" fill="#A67C52"/>
<path d="M1080.21 99.0393C1076.21 99.6923 1072.22 100.324 1068.22 100.933C1058.21 113.579 1048.02 126.182 1037.7 138.698C1041.75 138.132 1045.8 137.544 1049.85 136.935C1060.12 124.354 1070.24 111.707 1080.21 99.0176V99.0393Z" fill="#A67C52"/>
<path d="M1120.53 92.2249C1116.55 92.9432 1112.54 93.6179 1108.56 94.3145C1098.72 107.113 1088.73 119.868 1078.59 132.558C1082.63 131.905 1086.68 131.252 1090.73 130.599C1100.81 117.866 1110.76 105.067 1120.53 92.2031V92.2249Z" fill="#A67C52"/>
<path d="M958.873 115.686C954.868 116.143 950.842 116.578 946.836 117.014C936.258 129.181 925.549 141.283 914.688 153.32C918.758 152.928 922.828 152.536 926.898 152.123C937.716 140.042 948.382 127.897 958.895 115.664L958.873 115.686Z" fill="#A67C52"/>
<path d="M999.407 110.768C995.402 111.29 991.375 111.791 987.37 112.291C976.988 124.611 966.453 136.887 955.766 149.098C959.836 148.641 963.884 148.184 967.955 147.727C978.599 135.472 989.068 123.153 999.407 110.768Z" fill="#A67C52"/>
<g style="mix-blend-mode:multiply" opacity="0.5">
<path d="M1496.04 31.2556C955.278 209.849 372.765 209.849 -168 31.2556C-166.89 27.7948 -165.78 24.3339 -164.67 20.873C373.941 198.748 954.125 198.748 1492.73 20.873C1493.85 24.3339 1494.96 27.7948 1496.07 31.2556H1496.04Z" fill="#A67C52"/>
</g>
</svg>
