<svg width="84" height="81" viewBox="0 0 84 81" fill="none" xmlns="http://www.w3.org/2000/svg">
<path fill-rule="evenodd" clip-rule="evenodd" d="M46.0721 6.62572C45.0531 8.65102 43.924 7.32875 41.9329 6.41556C35.6037 3.51297 28.8004 6.8045 27.8312 13.6241C27.424 16.4898 26.6255 17.6674 26.2295 21.8629C26.0725 23.5259 26.8726 39.1865 27.1228 39.6614C27.8881 41.1116 30.9707 59.5896 35.4465 49.3011C36.8596 46.0518 38.684 41.9406 39.7728 38.5964C41.1133 34.4793 45.137 30.6527 46.6119 36.5833C47.0656 38.4118 48.6015 53.221 49.616 53.5812C50.943 54.0524 56.7147 45.7312 57.0043 42.9535C57.2314 40.7827 59.3293 37.1013 59.8036 32.0769C60.3131 26.6789 61.2961 26.7401 61.8054 23.9105C62.4937 20.0873 61.761 12.3098 59.3847 9.00331C56.1735 4.53298 52.4876 5.37426 48.0642 6.84784C47.4196 7.0622 45.8169 7.13312 46.0722 6.6251L46.0721 6.62572Z" fill="#FEFEFE"/>
<path fill-rule="evenodd" clip-rule="evenodd" d="M2.69207 71.3762L75.1562 78.1762L77.2247 55.7836C69.1385 52.9109 59.9066 54.5098 52.0506 56.9842C49.2878 57.8547 47.5041 58.6823 45.3088 59.8578C44.7597 63.5762 45.3343 65.6198 43.8283 67.5713C40.1724 72.3096 39.5692 74.1505 37.6666 70.4446C34.5017 64.2813 35.3986 66.7371 35.7987 60.2C34.7367 59.3269 34.6057 58.9676 32.9875 57.8164C32.0227 57.1294 30.8217 56.4403 29.7035 55.8108C27.36 54.4913 25.0288 53.3808 22.4843 52.3501C19.8763 51.2944 17.1259 50.3529 14.1881 49.8494C12.2054 49.5099 6.45849 49.0977 4.72753 49.6389L2.69014 71.3766L2.69207 71.3762Z" fill="white"/>
<path fill-rule="evenodd" clip-rule="evenodd" d="M4.73646 49.6389C6.46804 49.0977 12.2143 49.5099 14.197 49.8494C17.1348 50.3535 19.8846 51.2943 22.4932 52.3501C25.0377 53.3808 27.3683 54.4912 29.7125 55.8108C30.8301 56.4402 32.031 57.1293 32.9964 57.8163C34.6146 58.9676 34.7457 59.3269 35.8076 60.2C35.4069 66.7376 34.5107 64.2813 37.6755 70.4446C39.5781 74.1504 40.1814 72.3096 43.8373 67.5713C45.3433 65.6191 44.7687 63.5761 45.3178 59.8577C47.5125 58.6816 49.2967 57.8547 52.0595 56.9842C59.9155 54.5098 69.1474 52.9108 77.2336 55.7835L75.1651 78.1762L2.701 71.3762L4.73839 49.6384L4.73646 49.6389ZM38.4541 61.1127C38.982 61.2535 41.8146 63.2979 42.167 63.7426C42.0928 65.2795 42.0917 65.2977 41.3193 66.2795C40.9167 66.7913 40.2328 67.9117 39.691 68.2239C37.6637 63.5349 38.0402 66.9261 38.4541 61.1127ZM39.1128 54.3277C39.8445 54.7462 40.4253 55.2099 41.1606 55.7501C43.2558 57.2895 42.783 56.4922 42.4758 60.8029C41.7736 60.5236 39.5025 58.682 38.7448 58.1264L39.1134 54.3277L39.1128 54.3277ZM39.7375 47.6228C40.3022 47.7848 42.9258 49.8241 43.4394 50.3421L43.0838 54.1362C42.69 53.9632 39.7001 51.7384 39.3685 51.412L39.7375 47.6228ZM40.6436 38.0692C40.7433 37.0131 41.8246 34.0212 43.1411 33.6392C44.9193 34.6969 44.6613 37.4765 44.453 39.6832C44.2694 41.6281 44.1071 45.7065 43.6738 47.3669C43.0083 47.0032 42.3478 46.448 41.6005 45.9016C39.4702 44.3431 39.968 45.2274 40.6436 38.0692ZM25.21 16.3596C24.8039 20.6615 24.7701 21.399 24.8263 25.706C24.8329 26.2204 24.8592 26.5199 24.858 26.825L25.1995 34.2075C25.4782 38.3636 26.4614 44.223 27.56 47.9503C28.8659 52.3765 32.6495 57.8847 36.1279 50.6549C36.3113 50.2734 36.312 50.2198 36.4484 49.8573C36.5477 49.5955 36.4721 49.7318 36.606 49.4557L36.1293 57.2109C35.9317 58.58 35.6691 57.8942 34.5216 57.037C34.1497 56.7592 33.8852 56.5712 33.4791 56.27C29.8672 53.594 24.1253 50.432 19.5679 49.2156C18.5349 48.9399 17.7294 48.7843 16.776 48.4352C15.7238 48.0496 15.1206 47.956 13.9242 47.704C11.8369 47.2637 6.76411 47.1104 4.66856 47.3954C3.66996 47.5318 2.71655 47.402 2.59984 48.6384L0.319415 72.7982C1.18083 72.8795 0.980514 73.0553 1.55771 73.238L67.6207 79.5091C69.9165 79.7258 75.4656 80.606 76.9962 80.0357L79.4107 54.4547C78.811 54.2312 79.1621 54.2385 78.6815 54.0819L70.858 52.7513C63.3706 52.0445 57.7703 52.8032 50.9793 55.4749L45.4754 57.8826L46.0119 52.1983C46.3153 52.625 46.2231 52.6581 46.3549 53.2216C46.7634 54.9721 48.0022 56.0647 50.1361 55.4389C51.1242 55.1486 52.7223 53.6027 53.3096 52.7683C55.4882 49.6701 57.1402 45.19 58.3322 41.4558C58.8865 39.7223 59.9314 36.6245 60.0953 34.8875C60.1697 34.0996 57.9913 32.2332 57.1646 35.4773C56.0899 39.6953 54.2915 45.057 52.377 48.8582C51.7776 50.046 50.5643 52.4378 49.1692 52.6751C47.936 49.6707 48.5779 40.2855 47.0325 34.9816C46.1229 31.863 45.1136 31.1434 42.8625 30.9309C38.1402 30.4852 35.6949 46.5133 32.5829 51.289C27.9012 48.1948 27.1499 24.0604 27.7023 18.2082C28.1622 13.3363 31.29 5.28347 36.8756 5.81068C38.3355 5.94849 39.9247 6.98259 41.0252 7.58634C42.0947 8.17389 43.7851 9.15119 45.2606 9.29046C48.5223 9.59833 50.8708 7.13169 53.2686 7.35801C58.2438 7.82762 60.5698 14.7869 60.0769 20.009L59.2698 26.5538C59.2579 26.6272 58.2963 29.2671 60.2291 29.418C61.7336 29.5353 61.8618 27.8917 62.0774 26.803C63.4232 19.9994 63.6342 12.0965 58.7604 7.03209C58.1557 6.4031 57.7625 6.18398 57.013 5.70752C55.4609 4.71988 54.6451 4.7996 52.8153 4.6269C50.3286 4.39218 47.6763 6.65067 45.7054 6.46465C44.2244 6.32485 42.9377 5.428 41.9418 4.85814C36.9541 2.003 32.5006 2.31696 28.6914 7.33153C27.0115 9.54405 25.4794 13.4926 25.2087 16.3601L25.21 16.3596Z" fill="#010101"/>
<path fill-rule="evenodd" clip-rule="evenodd" d="M40.6479 38.0685C39.9722 45.2266 39.4744 44.3423 41.6047 45.9008C42.352 46.4478 43.0126 47.0025 43.678 47.3661C44.1113 45.7058 44.2737 41.6273 44.4572 39.6824C44.6655 37.4757 44.9235 34.6961 43.1453 33.6385C41.8288 34.0204 40.7475 37.0124 40.6479 38.0685Z" fill="#808080"/>
<path fill-rule="evenodd" clip-rule="evenodd" d="M29.466 14.6132C29.4075 15.2327 30.128 16.1096 30.7421 16.1675C33.5488 16.4325 31.2028 11.12 36.8179 10.0992C38.4256 9.80733 39.4476 10.6122 39.6559 8.40551C39.7876 7.00995 37.6444 6.96311 36.5027 7.14036C35.0575 7.36417 34.2511 7.7639 33.1717 8.43048C31.3964 9.52808 29.7346 11.7676 29.466 14.6132Z" fill="#010101"/>
<path fill-rule="evenodd" clip-rule="evenodd" d="M38.4604 61.1108C38.0472 66.9243 37.67 63.5331 39.6974 68.222C40.2391 67.9104 40.9229 66.7901 41.3256 66.2776C42.0974 65.2958 42.0985 65.2775 42.1733 63.7407C41.8208 63.2961 38.9883 61.2517 38.4604 61.1108Z" fill="#808080"/>
<path fill-rule="evenodd" clip-rule="evenodd" d="M39.3722 51.413C39.7039 51.7394 42.6931 53.9642 43.0875 54.1373L43.4431 50.3431C42.9295 49.8251 40.3059 47.7859 39.7412 47.6239L39.3722 51.413Z" fill="#808080"/>
<path fill-rule="evenodd" clip-rule="evenodd" d="M38.7455 58.1226C39.5032 58.6782 41.7742 60.5199 42.4765 60.7991C42.7837 56.4885 43.2565 57.2858 41.1613 55.7464C40.4266 55.2062 39.8459 54.7419 39.1134 54.3239L38.7449 58.1226L38.7455 58.1226Z" fill="#808080"/>
</svg>
