<svg width="74" height="70" viewBox="0 0 74 70" fill="none" xmlns="http://www.w3.org/2000/svg">
<path fill-rule="evenodd" clip-rule="evenodd" d="M50.2102 10.6744C55.2984 10.4429 57.6205 5.91537 64.0195 7.90965C67.9954 9.14867 70.8551 12.8597 72.3926 16.9878C74.2829 22.0623 74.1641 26.7857 73.7388 32.5146C73.3583 37.6366 72.5273 43.0545 71.5571 47.8447C70.5755 52.6928 69.5455 57.128 67.9006 61.5923C67.0908 63.7905 66.1694 65.6092 64.9905 67.3352C64.142 68.5779 61.5171 71.1883 59.267 69.3839C55.3395 66.2341 54.6477 43.8358 50.2477 43.4331C47.7697 44.0125 46.7149 49.0801 46.1183 51.6673C45.3219 55.1201 44.8421 58.5789 44.1271 62.0805C43.5602 64.8564 42.8476 70.1607 39.6249 69.9568C36.7587 69.7757 34.6999 65.9067 33.5946 63.449C30.0537 55.5767 27.9078 42.0318 27.0638 32.8736C27.0317 32.5234 26.9999 32.1696 26.9702 31.8129L29.2508 32.3827C29.3326 33.3594 29.425 34.2754 29.5153 35.0562C30.2267 41.1842 34.2507 68.0961 40.0335 67.7011C43.2956 62.0257 42.9599 41.1762 50.3718 41.2406C57.2021 41.2993 57.1427 62.7666 60.7056 67.6955C66.2984 68.0173 70.1262 43.2372 70.943 37.4863C71.9734 30.2305 72.806 20.954 68.675 14.5278C67.2251 12.2716 64.2229 9.02713 59.9198 9.72001C56.4228 10.2829 53.7426 13.2955 49.4818 12.8142C46.8695 12.5187 45.0985 11.2181 42.9632 10.3845L41.2332 7.56861C44.6968 7.97162 45.7675 10.0099 50.2102 10.6756V10.6744ZM60.6311 11.9626C62.2122 12.3612 63.2735 12.6858 64.4614 13.5934C65.5614 14.4338 66.296 15.1451 67.0692 16.3677C67.7647 17.468 68.3023 18.8534 68.4724 20.3091C68.8293 23.3657 66.5064 22.8623 66.3367 21.4362C66.1006 19.4523 66.038 18.7666 65.0645 17.3017C64.4219 16.3349 63.3012 15.3106 62.2105 14.7497C59.969 13.597 58.6432 14.2075 57.9208 13.6278C57.3246 13.1496 56.9441 11.033 60.6311 11.9626ZM44.6117 13.0677C44.816 13.4003 44.8376 13.7921 44.5238 14.2599C44.5116 14.2783 44.4937 14.2987 44.4713 14.3211L44.6117 13.0677Z" fill="#4D4D4D"/>
<path fill-rule="evenodd" clip-rule="evenodd" d="M28.965 3.74204C36.8408 3.1779 43.2622 9.21829 43.7749 16.3002C44.3357 24.0458 38.1402 30.4069 30.931 30.8418C22.8533 31.3288 16.8275 25.4867 16.1666 18.2157C15.4642 10.4849 21.827 4.2534 28.965 3.74204ZM37.9656 32.7062C44.5266 29.4281 48.575 22.1871 47.3423 14.6678C46.5329 9.73045 43.3822 5.26853 39.1857 2.54619C37.5139 1.4619 35.1296 0.587502 32.8046 0.22647C18.6137 -1.97771 7.80737 12.3244 14.2938 24.9974C15.0618 26.4979 15.5143 26.8309 16.0018 27.7277C16.0018 27.7277 1.07551 41.8967 0.907434 42.029C0.500886 42.5036 0.185902 42.7715 0.048758 43.4928C-0.367151 45.6746 1.97447 46.2839 3.39475 44.8293C3.80903 44.4047 4.13826 44.1673 4.50858 43.801C7.43867 40.9048 18.8705 30.6403 18.7109 30.5352C24.6549 34.4738 31.1007 36.1358 37.9656 32.7058V32.7062Z" fill="#FFDC0A"/>
</svg>
