<svg width="35" height="34" viewBox="0 0 35 34" fill="none" xmlns="http://www.w3.org/2000/svg">
<path d="M20.9433 27.0471C21.6302 27.7402 22.0156 28.6766 22.0156 29.6524C22.0156 30.6282 21.6302 31.5645 20.9433 32.2576L20.7647 32.4118C20.0945 33.008 19.227 33.3348 18.3299 33.3289C17.3544 33.3283 16.4185 32.9434 15.7247 32.2576L0.710123 17.243C0.634052 17.1676 0.573675 17.0778 0.532471 16.9789C0.491266 16.88 0.470053 16.7739 0.470053 16.6668C0.470053 16.5596 0.491266 16.4536 0.532471 16.3547C0.573675 16.2558 0.634052 16.166 0.710123 16.0906L15.7247 1.07596C16.3879 0.414478 17.278 0.0303692 18.2142 0.00172506C19.1504 -0.026919 20.0624 0.302052 20.7647 0.921756L20.9433 1.07596C21.6302 1.76904 22.0156 2.70537 22.0156 3.68119C22.0156 4.65702 21.6302 5.59335 20.9433 6.28643L10.5467 16.6668L20.9433 27.0471Z" fill="#E32E16"/>
<path d="M33.9277 27.0471C34.6146 27.7402 35 28.6766 35 29.6524C35 30.6282 34.6146 31.5645 33.9277 32.2576L33.7491 32.4118C33.0788 33.008 32.2114 33.3348 31.3143 33.3289C30.3388 33.3283 29.4028 32.9434 28.7091 32.2576L13.6945 17.243C13.6184 17.1676 13.558 17.0778 13.5168 16.9789C13.4756 16.88 13.4544 16.7739 13.4544 16.6668C13.4544 16.5596 13.4756 16.4536 13.5168 16.3547C13.558 16.2558 13.6184 16.166 13.6945 16.0906L26.8262 2.9751L28.7091 1.07596C29.3722 0.414478 30.2624 0.0303692 31.1986 0.00172506C32.1348 -0.026919 33.0468 0.302052 33.7491 0.921756L33.9277 1.07596C34.6146 1.76904 35 2.70537 35 3.68119C35 4.65702 34.6146 5.59335 33.9277 6.28643L23.5311 16.6668L33.9277 27.0471Z" fill="#E32E16"/>
<path d="M20.9433 27.0473C21.6302 27.7403 22.0156 28.6767 22.0156 29.6525C22.0156 30.6283 21.6302 31.5647 20.9433 32.2577L20.7647 32.4119L20.5943 32.2577L5.57972 17.2431C5.50365 17.1677 5.44327 17.0779 5.40207 16.979C5.36086 16.8801 5.33965 16.774 5.33965 16.6669C5.33965 16.5598 5.36086 16.4537 5.40207 16.3548C5.44327 16.2559 5.50365 16.1661 5.57972 16.0907L20.5943 1.07608L20.7647 0.921875L20.9433 1.07608C21.6302 1.76916 22.0156 2.70549 22.0156 3.68131C22.0156 4.65714 21.6302 5.59347 20.9433 6.28655L10.5467 16.6669L20.9433 27.0473Z" fill="#E30016"/>
<path d="M33.9277 27.0473C34.6146 27.7403 35 28.6767 35 29.6525C35 30.6283 34.6146 31.5647 33.9277 32.2577L33.7491 32.4119L33.5787 32.2577L18.5641 17.2431C18.488 17.1677 18.4276 17.0779 18.3864 16.979C18.3452 16.8801 18.324 16.774 18.324 16.6669C18.324 16.5598 18.3452 16.4537 18.3864 16.3548C18.4276 16.2559 18.488 16.1661 18.5641 16.0907L33.5787 1.07608L33.7491 0.921875L33.9277 1.07608C34.6146 1.76916 35 2.70549 35 3.68131C35 4.65714 34.6146 5.59347 33.9277 6.28655L23.5311 16.6669L33.9277 27.0473Z" fill="#E30016"/>
</svg>
