<svg width="35" height="34" viewBox="0 0 35 34" fill="none" xmlns="http://www.w3.org/2000/svg">
<path d="M14.0567 27.0471C13.3698 27.7402 12.9844 28.6766 12.9844 29.6524C12.9844 30.6282 13.3698 31.5645 14.0567 32.2576L14.2353 32.4118C14.9055 33.008 15.773 33.3348 16.6701 33.3289C17.6456 33.3283 18.5815 32.9434 19.2753 32.2576L34.2899 17.243C34.3659 17.1676 34.4263 17.0778 34.4675 16.9789C34.5087 16.88 34.5299 16.7739 34.5299 16.6668C34.5299 16.5596 34.5087 16.4536 34.4675 16.3547C34.4263 16.2558 34.3659 16.166 34.2899 16.0906L19.2753 1.07596C18.6121 0.414478 17.722 0.0303692 16.7858 0.00172506C15.8496 -0.026919 14.9376 0.302052 14.2353 0.921756L14.0567 1.07596C13.3698 1.76904 12.9844 2.70537 12.9844 3.68119C12.9844 4.65702 13.3698 5.59335 14.0567 6.28643L24.4533 16.6668L14.0567 27.0471Z" fill="#E32E16"/>
<path d="M1.07233 27.0471C0.385399 27.7402 0 28.6766 0 29.6524C0 30.6282 0.385399 31.5645 1.07233 32.2576L1.25088 32.4118C1.92117 33.008 2.7886 33.3348 3.68568 33.3289C4.66118 33.3283 5.59717 32.9434 6.29091 32.2576L21.3055 17.243C21.3816 17.1676 21.442 17.0778 21.4832 16.9789C21.5244 16.88 21.5456 16.7739 21.5456 16.6668C21.5456 16.5596 21.5244 16.4536 21.4832 16.3547C21.442 16.2558 21.3816 16.166 21.3055 16.0906L8.17382 2.9751L6.29091 1.07596C5.62777 0.414478 4.73761 0.0303692 3.8014 0.00172506C2.86519 -0.026919 1.95321 0.302052 1.25088 0.921756L1.07233 1.07596C0.385399 1.76904 0 2.70537 0 3.68119C0 4.65702 0.385399 5.59335 1.07233 6.28643L11.4689 16.6668L1.07233 27.0471Z" fill="#E32E16"/>
<path d="M14.0567 27.0473C13.3698 27.7403 12.9844 28.6767 12.9844 29.6525C12.9844 30.6283 13.3698 31.5647 14.0567 32.2577L14.2353 32.4119L14.4057 32.2577L29.4203 17.2431C29.4963 17.1677 29.5567 17.0779 29.5979 16.979C29.6391 16.8801 29.6604 16.774 29.6604 16.6669C29.6604 16.5598 29.6391 16.4537 29.5979 16.3548C29.5567 16.2559 29.4963 16.1661 29.4203 16.0907L14.4057 1.07608L14.2353 0.921875L14.0567 1.07608C13.3698 1.76916 12.9844 2.70549 12.9844 3.68131C12.9844 4.65714 13.3698 5.59347 14.0567 6.28655L24.4533 16.6669L14.0567 27.0473Z" fill="#E30016"/>
<path d="M1.07233 27.0473C0.385399 27.7403 0 28.6767 0 29.6525C0 30.6283 0.385399 31.5647 1.07233 32.2577L1.25088 32.4119L1.42131 32.2577L16.4359 17.2431C16.512 17.1677 16.5724 17.0779 16.6136 16.979C16.6548 16.8801 16.676 16.774 16.676 16.6669C16.676 16.5598 16.6548 16.4537 16.6136 16.3548C16.5724 16.2559 16.512 16.1661 16.4359 16.0907L1.42131 1.07608L1.25088 0.921875L1.07233 1.07608C0.385399 1.76916 0 2.70549 0 3.68131C0 4.65714 0.385399 5.59347 1.07233 6.28655L11.4689 16.6669L1.07233 27.0473Z" fill="#E30016"/>
</svg>
