<svg width="46" height="142" viewBox="0 0 46 142" fill="none" xmlns="http://www.w3.org/2000/svg">
<path d="M23.5957 0.000338347L0.015625 137.66L22.3371 141.484L45.9171 3.82383L23.5957 0.000338347Z" fill="#E9C0A6"/>
<path d="M8.83793 86.1732L7.5625 93.6191L29.8839 97.4426L31.1594 89.9967L8.83793 86.1732Z" fill="#D5B396"/>
<path d="M6.09329 91.3872C5.11371 91.2212 4.43298 90.2748 4.61562 89.2953L10.7587 53.4161C10.9248 52.4199 11.8711 51.7558 12.8507 51.9384C13.8303 52.1045 14.511 53.0508 14.3284 54.0304L8.18526 89.9096C8.01923 90.9058 7.07287 91.5533 6.09329 91.3872Z" fill="#A3A3A3"/>
<path d="M31.9917 95.8189C31.0121 95.6529 30.3314 94.7065 30.5141 93.7269L36.6572 57.8477C36.8232 56.8516 37.7696 56.1874 38.7492 56.3701C39.7454 56.5361 40.4095 57.4825 40.2268 58.4621L34.0837 94.3412C33.9177 95.3374 32.9713 95.9849 31.9917 95.8189Z" fill="#A3A3A3"/>
<path d="M31.994 95.818L6.09329 91.385C5.11371 91.219 4.43298 90.2726 4.61562 89.293C4.78165 88.2969 5.72801 87.6327 6.70759 87.8154L32.6083 92.2484C33.5879 92.4144 34.2686 93.3608 34.086 94.3404C33.92 95.3366 32.9736 95.9841 31.994 95.818Z" fill="#CCCCCC"/>
<path style="mix-blend-mode:multiply" opacity="0.8" d="M1.56066 128.544L0 137.659L22.3311 141.478L26.6977 115.959C20.4051 120.807 10.9912 126.884 1.56066 128.544Z" fill="url(#paint0_linear_17_1780)"/>
<defs>
<linearGradient id="paint0_linear_17_1780" x1="2.20327" y1="124.889" x2="24.5247" y2="128.713" gradientUnits="userSpaceOnUse">
<stop stop-color="white"/>
<stop offset="1" stop-color="#E8C47B"/>
</linearGradient>
</defs>
</svg>
