<svg width="31" height="41" viewBox="0 0 31 41" fill="none" xmlns="http://www.w3.org/2000/svg">
<path fill-rule="evenodd" clip-rule="evenodd" d="M28.5487 3.97728C26.3251 -0.363072 23.7327 0.150625 19.0042 0.00662308C14.6124 -0.12584 15.3275 1.79141 9.09151 0.156163C6.18022 -0.608153 2.32938 2.25065 1.39263 4.6696C-0.0385758 8.36702 0.571803 6.53746 0.285935 10.5238C-0.0488196 15.2052 -0.432927 18.6124 1.32093 23.1059C1.61983 23.8721 6.28637 44.3402 8.85267 40.5269C11.8897 36.0139 10.6875 30.1089 14.1948 24.0641C16.0874 20.8019 16.4975 22.8844 17.58 25.4866C18.5196 27.7458 18.1797 29.7019 19.9396 33.0813C20.1808 33.5433 21.6748 39.5304 22.3718 39.9347C22.7108 42.0652 24.7621 39.0061 25.2412 37.6049C26.4359 34.1133 29.2499 28.0408 29.6847 24.3798C30.0688 21.1481 31 19.3338 31 15.3728C31 13.8478 28.7443 4.35852 28.5487 3.97728Z" fill="#FEFEFE"/>
</svg>
