<svg width="81" height="34" viewBox="0 0 81 34" fill="none" xmlns="http://www.w3.org/2000/svg">
<path d="M17.2776 20.5676L18.6571 28.0533C18.676 28.1419 18.6713 28.2342 18.6435 28.3202C18.6156 28.4062 18.5656 28.4828 18.4989 28.5416C18.4322 28.6005 18.3513 28.6394 18.2648 28.6542C18.1784 28.6691 18.0896 28.6592 18.0082 28.6258L1.05887 16.8005C0.989845 16.7528 0.933112 16.6884 0.893614 16.6129C0.854109 16.5373 0.83303 16.453 0.832214 16.3671C0.831397 16.2812 0.850867 16.1964 0.888927 16.12C0.926979 16.0437 0.982477 15.9781 1.05058 15.9291L18.1807 0.795334C18.2439 0.744037 18.3201 0.712829 18.4001 0.705498C18.4801 0.698167 18.5604 0.715029 18.6313 0.754033C18.7023 0.793039 18.7607 0.852515 18.7997 0.925247C18.8386 0.997978 18.8563 1.08084 18.8506 1.16379L17.0625 9.67449C17.0541 9.81129 17.0774 9.9482 17.1305 10.0738C17.1836 10.1994 17.2649 10.31 17.3677 10.3963C17.4705 10.4827 17.5918 10.5424 17.7214 10.5703C17.851 10.5983 17.9852 10.5937 18.1127 10.557L54.217 1.16541C54.5808 0.952037 54.8658 1.38112 54.6753 1.77167L45.5599 20.4678C45.3605 20.8767 45.681 21.3162 46.0643 21.1597L80.1499 7.25223C80.2316 7.22307 80.3199 7.21976 80.4034 7.24274C80.487 7.26571 80.562 7.31393 80.619 7.38124C80.676 7.44854 80.7123 7.53189 80.7234 7.62066C80.7345 7.70944 80.7198 7.79962 80.6812 7.8797L73.3548 28.9288C73.3253 29.0215 73.271 29.1035 73.1982 29.1655C73.1254 29.2275 73.0372 29.2668 72.9437 29.279L30.8935 33.0205C30.8118 33.0208 30.7316 32.9983 30.6613 32.9553C30.591 32.9124 30.5332 32.8506 30.494 32.7764C30.4548 32.7023 30.4356 32.6186 30.4385 32.5341C30.4414 32.4497 30.4663 32.3676 30.5105 32.2965L36.7719 19.6164C36.8127 19.5489 36.8365 19.472 36.8411 19.3925C36.8458 19.3131 36.8312 19.2337 36.7986 19.1616C36.766 19.0895 36.7165 19.027 36.6546 18.9798C36.5927 18.9326 36.5203 18.9022 36.4442 18.8914L18.2729 19.4718C18.1376 19.4747 18.0043 19.5054 17.8806 19.5623C17.757 19.6192 17.6455 19.7011 17.5528 19.8031C17.4601 19.9052 17.3881 20.0254 17.3408 20.1566C17.2935 20.2879 17.272 20.4276 17.2776 20.5676Z" fill="#FFDC0A"/>
</svg>
