<svg width="81" height="33" viewBox="0 0 81 33" fill="none" xmlns="http://www.w3.org/2000/svg">
<path d="M63.5706 20.2278L62.1911 27.7134C62.1721 27.802 62.1768 27.8943 62.2047 27.9803C62.2325 28.0664 62.2825 28.1429 62.3492 28.2018C62.4159 28.2606 62.4968 28.2996 62.5833 28.3144C62.6698 28.3292 62.7585 28.3194 62.84 28.2859L79.7893 16.4606C79.8583 16.413 79.915 16.3486 79.9545 16.273C79.994 16.1975 80.0151 16.1131 80.0159 16.0272C80.0167 15.9413 79.9973 15.8565 79.9592 15.7802C79.9212 15.7038 79.8657 15.6383 79.7976 15.5892L62.6675 0.45549C62.6043 0.404193 62.5281 0.372985 62.4481 0.365654C62.3681 0.358324 62.2877 0.375185 62.2168 0.41419C62.1459 0.453195 62.0874 0.512671 62.0485 0.585403C62.0096 0.658134 61.9918 0.740995 61.9975 0.823943L63.7856 9.33464C63.7941 9.47145 63.7708 9.60836 63.7177 9.73394C63.6646 9.85951 63.5832 9.97011 63.4804 10.0565C63.3776 10.1429 63.2564 10.2025 63.1268 10.2305C62.9972 10.2584 62.863 10.2538 62.7354 10.2171L26.6311 0.825565C26.2674 0.612193 25.9824 1.04128 26.1728 1.43183L35.2883 20.128C35.4876 20.5368 35.1672 20.9763 34.7838 20.8199L0.698258 6.91239C0.61653 6.88323 0.528264 6.87992 0.444715 6.9029C0.361165 6.92587 0.286116 6.97409 0.229129 7.04139C0.172141 7.1087 0.135796 7.19205 0.12473 7.28082C0.113664 7.3696 0.128376 7.45977 0.16699 7.53986L7.49334 28.589C7.52286 28.6816 7.57716 28.7637 7.64993 28.8257C7.7227 28.8877 7.81095 28.927 7.90445 28.9391L49.9547 32.6807C50.0363 32.681 50.1165 32.6584 50.1868 32.6155C50.2571 32.5725 50.3149 32.5107 50.3541 32.4366C50.3933 32.3625 50.4125 32.2787 50.4096 32.1943C50.4067 32.1098 50.3819 32.0277 50.3377 31.9566L44.0762 19.2766C44.0355 19.2091 44.0117 19.1321 44.007 19.0527C44.0023 18.9732 44.017 18.8938 44.0496 18.8217C44.0822 18.7496 44.1317 18.6871 44.1936 18.6399C44.2555 18.5928 44.3278 18.5624 44.404 18.5516L62.5752 19.132C62.7105 19.1348 62.8439 19.1656 62.9675 19.2225C63.0912 19.2794 63.2026 19.3612 63.2953 19.4633C63.388 19.5653 63.4601 19.6855 63.5074 19.8168C63.5546 19.9481 63.5761 20.0878 63.5706 20.2278Z" fill="#FFDC0A"/>
</svg>
