<svg width="326" height="197" viewBox="0 0 326 197" fill="none" xmlns="http://www.w3.org/2000/svg">
<path fill-rule="evenodd" clip-rule="evenodd" d="M248.71 154.647C250.145 155.19 251.613 155.68 253.113 156.113C283.344 164.854 314.937 147.433 323.678 117.202C332.419 86.9711 314.998 55.3781 284.766 46.6371C282.425 45.9601 280.075 45.4401 277.729 45.0707C273.448 25.2416 258.69 8.33851 237.837 2.30901C221.122 -2.52391 203.99 0.641094 190.536 9.54714C186.762 7.42132 182.686 5.695 178.345 4.43987C158.109 -1.41095 137.264 4.45996 123.069 18.0482C120.637 16.9545 118.098 16.0185 115.462 15.2563C89.2547 7.67882 62.0241 19.7623 49.5447 42.8081C28.1325 45.9555 9.4644 61.2276 3.06085 83.3746C-5.68007 113.606 11.7411 145.199 41.9722 153.94C54.8042 157.65 67.8815 156.646 79.3524 151.951C86.5568 162.573 97.3736 170.836 110.668 174.68C123.358 178.349 136.289 177.408 147.669 172.844C154.857 182.776 165.29 190.472 177.98 194.141C208.211 202.882 239.804 185.461 248.545 155.23C248.601 155.035 248.656 154.841 248.71 154.647Z" fill="#323232"/>
</svg>
