<svg width="326" height="197" viewBox="0 0 326 197" fill="none" xmlns="http://www.w3.org/2000/svg">
<mask id="path-1-inside-1_17_1670" fill="white">
<path fill-rule="evenodd" clip-rule="evenodd" d="M248.296 154.727C249.731 155.27 251.199 155.76 252.699 156.194C282.93 164.935 314.523 147.513 323.264 117.282C332.005 87.0512 314.584 55.4581 284.352 46.7172C282.011 46.0402 279.661 45.5201 277.315 45.1508C273.034 25.3217 258.276 8.41859 237.423 2.38909C220.708 -2.44383 203.576 0.721172 190.122 9.62722C186.348 7.5014 182.272 5.77508 177.931 4.51994C157.695 -1.33088 136.849 4.54004 122.655 18.1283C120.223 17.0346 117.684 16.0986 115.048 15.3364C88.8406 7.7589 61.61 19.8424 49.1307 42.8882C27.7184 46.0355 9.05033 61.3076 2.64679 83.4547C-6.09414 113.686 11.3271 145.279 41.5581 154.02C54.3901 157.73 67.4674 156.727 78.9384 152.031C86.1427 162.653 96.9595 170.916 110.253 174.76C122.944 178.429 135.875 177.488 147.255 172.924C154.443 182.856 164.876 190.552 177.566 194.221C207.797 202.962 239.39 185.541 248.131 155.31C248.187 155.115 248.242 154.921 248.296 154.727Z"/>
</mask>
<path fill-rule="evenodd" clip-rule="evenodd" d="M248.296 154.727C249.731 155.27 251.199 155.76 252.699 156.194C282.93 164.935 314.523 147.513 323.264 117.282C332.005 87.0512 314.584 55.4581 284.352 46.7172C282.011 46.0402 279.661 45.5201 277.315 45.1508C273.034 25.3217 258.276 8.41859 237.423 2.38909C220.708 -2.44383 203.576 0.721172 190.122 9.62722C186.348 7.5014 182.272 5.77508 177.931 4.51994C157.695 -1.33088 136.849 4.54004 122.655 18.1283C120.223 17.0346 117.684 16.0986 115.048 15.3364C88.8406 7.7589 61.61 19.8424 49.1307 42.8882C27.7184 46.0355 9.05033 61.3076 2.64679 83.4547C-6.09414 113.686 11.3271 145.279 41.5581 154.02C54.3901 157.73 67.4674 156.727 78.9384 152.031C86.1427 162.653 96.9595 170.916 110.253 174.76C122.944 178.429 135.875 177.488 147.255 172.924C154.443 182.856 164.876 190.552 177.566 194.221C207.797 202.962 239.39 185.541 248.131 155.31C248.187 155.115 248.242 154.921 248.296 154.727Z" fill="white"/>
<path d="M248.296 154.727L249.004 152.857L246.955 152.081L246.369 154.192L248.296 154.727ZM277.315 45.1508L275.36 45.5728L275.649 46.9133L277.004 47.1265L277.315 45.1508ZM190.122 9.62722L189.14 11.3697L190.206 11.9701L191.225 11.295L190.122 9.62722ZM122.655 18.1283L121.835 19.9524L123.065 20.5052L124.038 19.573L122.655 18.1283ZM49.1307 42.8882L49.4215 44.8669L50.4125 44.7213L50.8894 43.8405L49.1307 42.8882ZM78.9384 152.031L80.5936 150.908L79.6827 149.565L78.1807 150.18L78.9384 152.031ZM147.255 172.924L148.875 171.752L147.96 170.487L146.51 171.068L147.255 172.924ZM247.588 156.598C249.073 157.16 250.592 157.666 252.143 158.115L253.254 154.272C251.806 153.854 250.389 153.381 249.004 152.857L247.588 156.598ZM252.143 158.115C283.435 167.163 316.137 149.13 325.185 117.838L321.342 116.727C312.908 145.897 282.424 162.706 253.254 154.272L252.143 158.115ZM325.185 117.838C334.233 86.5456 316.2 53.8436 284.908 44.7959L283.797 48.6385C312.967 57.0726 329.777 87.5568 321.342 116.727L325.185 117.838ZM284.908 44.7959C282.486 44.0956 280.055 43.5574 277.626 43.1751L277.004 47.1265C279.268 47.4828 281.536 47.9848 283.797 48.6385L284.908 44.7959ZM279.27 44.7288C274.84 24.2094 259.566 6.70968 237.978 0.467785L236.867 4.31039C256.986 10.1275 271.228 26.4341 275.36 45.5728L279.27 44.7288ZM237.978 0.467785C220.676 -4.53492 202.941 -1.25654 189.018 7.95948L191.225 11.295C204.212 2.69889 220.739 -0.352752 236.867 4.31039L237.978 0.467785ZM191.103 7.88474C187.196 5.6836 182.977 3.89703 178.486 2.59864L177.375 6.44125C181.566 7.65313 185.5 9.31921 189.14 11.3697L191.103 7.88474ZM178.486 2.59864C157.538 -3.45824 135.96 2.62256 121.272 16.6836L124.038 19.573C137.739 6.45752 157.852 0.796484 177.375 6.44125L178.486 2.59864ZM123.476 16.3042C120.957 15.172 118.33 14.2035 115.603 13.415L114.492 17.2577C117.038 17.9937 119.488 18.8972 121.835 19.9524L123.476 16.3042ZM115.603 13.415C88.4739 5.57095 60.2896 18.0807 47.372 41.9359L50.8894 43.8405C62.9304 21.6041 89.2074 9.94685 114.492 17.2577L115.603 13.415ZM48.8398 40.9095C26.6808 44.1666 7.35465 59.9718 0.72549 82.8992L4.56809 84.0102C10.746 62.6435 28.756 47.9045 49.4215 44.8669L48.8398 40.9095ZM0.72549 82.8992C-8.32224 114.191 9.71044 146.893 41.0026 155.941L42.1136 152.098C12.9437 143.664 -3.86603 113.18 4.56809 84.0102L0.72549 82.8992ZM41.0026 155.941C54.283 159.781 67.8228 158.742 79.6961 153.882L78.1807 150.18C67.112 154.711 54.4971 155.679 42.1136 152.098L41.0026 155.941ZM77.2831 153.153C84.7398 164.148 95.939 172.703 109.698 176.681L110.809 172.839C97.98 169.129 87.5456 161.159 80.5936 150.908L77.2831 153.153ZM109.698 176.681C122.832 180.479 136.221 179.505 147.999 174.781L146.51 171.068C135.53 175.472 123.056 176.38 110.809 172.839L109.698 176.681ZM178.121 192.3C165.875 188.759 155.811 181.335 148.875 171.752L145.635 174.097C153.075 184.377 163.877 192.345 177.01 196.142L178.121 192.3ZM246.21 154.754C237.776 183.924 207.291 200.734 178.121 192.3L177.01 196.142C208.303 205.19 241.005 187.157 250.052 155.865L246.21 154.754ZM246.369 154.192C246.317 154.379 246.264 154.567 246.21 154.754L250.052 155.865C250.11 155.664 250.167 155.463 250.223 155.262L246.369 154.192Z" fill="#5C5C5C" mask="url(#path-1-inside-1_17_1670)"/>
</svg>
