<svg width="332" height="353" viewBox="0 0 332 353" fill="none" xmlns="http://www.w3.org/2000/svg">
<g opacity="0.16">
<path d="M134.813 167.601C134.932 164.143 137.307 160.985 140.529 160.022C144.3 158.901 147.18 160.417 150.209 165.17C151.189 162.375 153 160.48 155.643 159.406C151.412 156.706 149.853 153.564 150.684 149.616C151.427 146.095 154.173 143.442 157.44 143.095C161.359 142.668 164.136 144.689 166.11 149.427C167.699 145.021 170.416 142.905 174.246 143.063C177.542 143.189 180.482 145.653 181.432 149.063C182.531 153.074 181.135 156.153 176.859 159.311C177.854 160.054 178.982 160.701 179.858 161.633C180.749 162.58 181.388 163.812 182.115 164.886C184.877 160.512 187.698 158.98 191.365 159.927C194.557 160.764 196.992 163.591 197.378 166.891C197.63 169.054 197.244 171.075 196.071 172.891C194.913 174.676 193.295 175.781 191.261 176.397C195.849 178.655 197.823 181.434 197.437 185.287C197.304 186.597 196.932 187.971 196.324 189.092C195.73 190.182 194.78 191.177 193.785 191.887C192.79 192.598 191.558 192.914 190.533 193.356C195.21 194.887 197.467 197.809 197.185 202.088C196.932 205.846 194.26 208.909 190.637 209.51C188.514 209.857 186.584 209.257 184.877 207.883C183.14 206.478 182.278 204.52 181.863 202.088C181.135 206.651 178.715 209.178 174.543 209.967C179.458 211.641 181.759 214.72 181.254 218.779C180.764 222.695 177.899 225.6 174.276 225.821C170.772 226.042 167.491 223.468 166.674 219.837C166.259 218.005 166.422 216.22 167.194 214.531C168.397 211.894 170.49 210.52 173.148 209.967C169.584 209.367 167.298 207.251 166.155 203.683C163.883 208.467 161.433 210.204 157.484 209.841C154.441 209.557 151.575 207.125 150.818 203.888C149.69 199.135 151.501 195.74 155.599 193.482C152.956 192.424 151.249 190.498 150.209 187.798C147.804 192.077 144.864 193.798 141.316 193.087C138.005 192.424 135.303 189.645 134.932 186.14C134.397 181.118 136.713 177.992 141.197 176.444C136.728 174.707 134.709 171.865 134.858 167.633L134.813 167.601ZM182.026 171.012C181.12 173.444 179.725 175.165 177.483 176.397C179.651 177.613 181.106 179.302 182.011 181.734C183.229 179.002 185.025 177.234 187.712 176.428C185.07 175.56 183.184 173.839 182.011 171.012H182.026ZM181.789 200.651C182.546 196.514 184.847 194.035 189.034 193.245C185.634 192.756 183.451 191.003 182.056 187.813C180.972 190.514 179.309 192.377 176.696 193.466C179.606 194.982 181.373 197.256 181.803 200.651H181.789ZM166.066 199.404C166.912 196.593 168.471 194.682 171.01 193.498C168.753 192.535 167.179 191.066 166.066 188.887C164.908 191.098 163.349 192.566 161.062 193.466C163.586 194.651 165.234 196.514 166.066 199.404ZM169.688 176.397C168.515 175.149 167.224 173.791 166.066 172.575C164.937 173.76 163.631 175.134 162.413 176.428C163.557 177.613 164.893 178.986 166.066 180.202C167.209 179.002 168.501 177.644 169.688 176.413V176.397ZM166.051 164.001C167.684 161.348 168.441 160.638 171.084 159.327C168.545 158.143 166.882 156.217 166.095 153.201C165.264 156.217 163.631 158.175 160.944 159.359C163.304 160.29 164.952 161.822 166.051 164.001ZM150.135 181.908C151.056 179.365 152.511 177.628 154.752 176.397C152.54 175.165 151.026 173.412 150.15 170.839C148.977 173.807 147.032 175.591 143.929 176.397C146.943 177.218 148.918 178.907 150.12 181.908H150.135Z" fill="#E31E24"/>
<path d="M142.622 193.325C146.898 193.404 150.327 196.625 150.312 201.457C150.298 206.605 146.512 209.51 142.696 209.542C138.524 209.574 135.08 205.91 135.05 201.473C135.035 197.052 138.465 193.246 142.622 193.309V193.325Z" fill="#E31E24"/>
<path d="M189.502 159.531C185.019 159.531 182.005 155.979 181.886 151.431C181.767 147.041 185.33 143.33 189.487 143.315C193.659 143.299 197.134 146.931 197.148 151.368C197.148 155.473 194.372 159.547 189.517 159.531H189.502Z" fill="#E31E24"/>
<path d="M142.687 159.531C138.56 159.547 135.071 155.852 135.056 151.431C135.056 147.009 138.486 143.33 142.643 143.314C146.785 143.314 150.274 146.978 150.289 151.383C150.304 155.757 146.815 159.5 142.673 159.516L142.687 159.531Z" fill="#E31E24"/>
<path d="M205.201 176.887C209.269 176.887 212.624 180.455 212.609 184.782C212.609 189.109 209.254 192.677 205.186 192.662C201.118 192.662 197.762 189.093 197.777 184.766C197.777 180.44 201.133 176.871 205.201 176.887Z" fill="#E31E24"/>
<path d="M158.349 210.014C163.041 210.014 165.728 213.914 165.758 217.909C165.787 222.236 162.417 225.804 158.334 225.804C154.266 225.804 150.911 222.236 150.911 217.909C150.97 213.914 153.643 210.014 158.334 210.014H158.349Z" fill="#E31E24"/>
<path d="M205.23 175.972C201.177 176.003 197.792 172.435 197.792 168.108C197.792 163.797 201.147 160.213 205.215 160.213C209.283 160.213 212.639 163.813 212.609 168.124C212.579 172.403 209.269 175.94 205.245 175.956L205.23 175.972Z" fill="#E31E24"/>
<path d="M158.319 142.827C154.295 142.78 150.984 139.243 150.97 134.964C150.97 130.685 154.251 127.147 158.289 127.1C162.327 127.053 165.727 130.621 165.742 134.948C165.742 139.243 162.342 142.875 158.319 142.827Z" fill="#E31E24"/>
<path d="M126.966 160.242C131.019 160.211 134.404 163.811 134.375 168.122C134.36 172.401 131.049 175.922 127.026 175.954C122.972 175.986 119.587 172.385 119.617 168.074C119.632 163.795 122.943 160.274 126.966 160.242Z" fill="#E31E24"/>
<path d="M173.927 142.844C169.978 142.955 166.489 139.291 166.459 134.996C166.43 130.733 169.711 127.18 173.764 127.101C177.758 127.022 181.128 130.496 181.232 134.807C181.336 139.054 178.01 142.718 173.942 142.844H173.927Z" fill="#E31E24"/>
<path d="M126.981 176.918C131.034 176.918 134.404 180.518 134.375 184.813C134.345 189.108 131.019 192.614 126.996 192.63C122.943 192.63 119.572 189.029 119.602 184.734C119.632 180.439 122.958 176.934 126.981 176.918Z" fill="#E31E24"/>
<path d="M189.563 210.235C193.482 210.266 196.719 213.708 196.719 217.877C196.719 222.093 193.467 225.583 189.503 225.583C185.539 225.583 182.273 222.093 182.288 217.877C182.302 213.661 185.598 210.203 189.548 210.235H189.563Z" fill="#E31E24"/>
<path d="M205.154 193.783C209.118 193.752 212.399 197.226 212.414 201.442C212.414 205.611 209.222 209.084 205.288 209.132C201.338 209.195 198.013 205.753 197.983 201.537C197.938 197.336 201.19 193.815 205.154 193.783Z" fill="#E31E24"/>
<path d="M142.688 210.477C146.608 210.492 149.844 213.935 149.859 218.103C149.874 222.304 146.593 225.809 142.644 225.793C138.724 225.778 135.488 222.335 135.473 218.167C135.458 213.966 138.739 210.461 142.688 210.477Z" fill="#E31E24"/>
<path d="M126.905 193.8C130.84 193.737 134.165 197.195 134.195 201.411C134.225 205.564 131.018 209.038 127.083 209.101C123.149 209.164 119.823 205.706 119.794 201.49C119.764 197.337 122.971 193.863 126.905 193.8Z" fill="#E31E24"/>
<path d="M205.212 159.077C201.293 159.077 198.056 155.666 198.011 151.481C197.967 147.297 201.248 143.776 205.197 143.76C209.117 143.76 212.353 147.171 212.398 151.355C212.443 155.539 209.161 159.061 205.212 159.077Z" fill="#E31E24"/>
<path d="M189.592 142.603C185.658 142.666 182.347 139.176 182.332 134.976C182.317 130.823 185.524 127.349 189.459 127.302C193.393 127.238 196.704 130.728 196.719 134.928C196.734 139.081 193.527 142.555 189.592 142.603Z" fill="#E31E24"/>
<path d="M126.948 159.041C123.014 159.01 119.777 155.536 119.822 151.367C119.851 147.183 123.118 143.74 127.037 143.788C130.972 143.819 134.208 147.293 134.164 151.462C134.134 155.646 130.868 159.089 126.948 159.041Z" fill="#E31E24"/>
<path d="M142.643 142.574C138.708 142.558 135.472 139.1 135.501 134.916C135.516 130.731 138.768 127.289 142.702 127.321C146.637 127.336 149.873 130.794 149.844 134.979C149.829 139.163 146.577 142.606 142.643 142.574Z" fill="#E31E24"/>
<path d="M220.867 160.811C224.652 160.811 227.711 164.032 227.711 168.058C227.711 172.101 224.697 175.354 220.926 175.369C217.125 175.385 214.052 172.18 214.022 168.169C213.992 164.079 217.036 160.811 220.867 160.811Z" fill="#E31E24"/>
<path d="M205.15 210.633C208.951 210.617 212.024 213.823 212.039 217.833C212.069 221.876 209.069 225.16 205.298 225.192C201.483 225.223 198.395 222.049 198.35 218.039C198.305 213.933 201.319 210.649 205.15 210.633Z" fill="#E31E24"/>
<path d="M220.822 177.486C224.623 177.471 227.696 180.676 227.711 184.687C227.74 188.729 224.726 192.014 220.97 192.045C217.155 192.077 214.066 188.903 214.022 184.892C213.977 180.787 216.991 177.502 220.822 177.486Z" fill="#E31E24"/>
<path d="M158.322 227.32C162.123 227.32 165.181 230.51 165.211 234.537C165.226 238.579 162.227 241.848 158.456 241.879C154.61 241.911 151.522 238.689 151.522 234.616C151.522 230.589 154.551 227.336 158.337 227.32H158.322Z" fill="#E31E24"/>
<path d="M173.739 227.321C177.584 227.289 180.673 230.51 180.688 234.568C180.688 238.611 177.674 241.864 173.888 241.879C170.087 241.895 167.014 238.69 166.999 234.679C166.969 230.637 169.968 227.352 173.739 227.321Z" fill="#E31E24"/>
<path d="M205.209 142.228C201.438 142.228 198.364 138.976 198.364 134.981C198.364 130.97 201.423 127.701 205.179 127.701C208.95 127.701 212.023 130.954 212.023 134.949C212.023 138.96 208.965 142.228 205.209 142.228Z" fill="#E31E24"/>
<path d="M126.976 210.867C130.747 210.867 133.82 214.12 133.82 218.131C133.82 222.142 130.762 225.41 126.991 225.41C123.22 225.41 120.146 222.157 120.146 218.147C120.146 214.136 123.205 210.867 126.976 210.867Z" fill="#E31E24"/>
<path d="M126.991 142.213C123.249 142.213 120.161 138.928 120.176 134.933C120.176 130.954 123.294 127.685 127.05 127.701C130.762 127.733 133.805 130.986 133.82 134.933C133.82 138.912 130.747 142.213 127.006 142.213H126.991Z" fill="#E31E24"/>
<path d="M111.288 160.846C115.03 160.846 118.133 164.115 118.133 168.094C118.133 172.041 115.089 175.31 111.392 175.342C107.636 175.389 104.518 172.136 104.489 168.141C104.459 164.146 107.532 160.846 111.288 160.83V160.846Z" fill="#E31E24"/>
<path d="M111.332 177.516C115.044 177.516 118.102 180.769 118.117 184.716C118.147 188.711 115.073 192.011 111.317 192.027C107.576 192.027 104.473 188.759 104.473 184.764C104.473 180.784 107.576 177.5 111.317 177.516H111.332Z" fill="#E31E24"/>
<path d="M158.334 125.522C154.593 125.522 151.52 122.206 151.535 118.211C151.564 114.232 154.682 110.963 158.424 111.01C162.135 111.058 165.164 114.31 165.164 118.258C165.164 122.237 162.076 125.522 158.32 125.506L158.334 125.522Z" fill="#E31E24"/>
<path d="M173.871 125.521C170.13 125.537 167.027 122.268 167.012 118.273C167.012 114.294 170.1 111.01 173.856 111.01C177.568 111.01 180.626 114.263 180.656 118.194C180.686 122.189 177.612 125.49 173.871 125.505V125.521Z" fill="#E31E24"/>
<path d="M220.926 194.35C224.623 194.365 227.548 197.492 227.562 201.424C227.562 205.403 224.623 208.561 220.881 208.561C217.14 208.561 214.185 205.403 214.2 201.44C214.2 197.476 217.185 194.334 220.926 194.365V194.35Z" fill="#E31E24"/>
<path d="M189.559 227.494C193.285 227.51 196.225 230.7 196.195 234.679C196.165 238.595 193.211 241.706 189.514 241.706C185.773 241.706 182.818 238.547 182.833 234.584C182.833 230.621 185.817 227.478 189.559 227.51V227.494Z" fill="#E31E24"/>
<path d="M142.655 227.494C146.352 227.494 149.307 230.573 149.351 234.505C149.396 238.484 146.471 241.674 142.744 241.706C139.003 241.737 136.019 238.611 136.004 234.647C135.989 230.668 138.929 227.51 142.67 227.494H142.655Z" fill="#E31E24"/>
<path d="M111.124 194.367C114.88 194.288 117.924 197.367 117.968 201.299C118.013 205.246 115.147 208.452 111.495 208.531C107.739 208.61 104.695 205.531 104.651 201.599C104.606 197.651 107.471 194.446 111.124 194.367Z" fill="#E31E24"/>
<path d="M220.932 158.49C217.191 158.506 214.221 155.364 214.221 151.4C214.221 147.484 217.146 144.342 220.828 144.326C224.57 144.31 227.539 147.437 227.539 151.416C227.539 155.332 224.614 158.475 220.932 158.49Z" fill="#E31E24"/>
<path d="M189.506 125.361C185.824 125.361 182.869 122.235 182.854 118.319C182.854 114.34 185.794 111.197 189.52 111.197C193.202 111.197 196.157 114.324 196.172 118.24C196.172 122.219 193.232 125.361 189.506 125.361Z" fill="#E31E24"/>
<path d="M111.287 158.476C107.62 158.476 104.665 155.318 104.665 151.402C104.665 147.502 107.62 144.344 111.287 144.344C114.969 144.344 117.938 147.47 117.953 151.355C117.968 155.318 114.999 158.476 111.287 158.476Z" fill="#E31E24"/>
<path d="M142.594 125.328C138.942 125.296 136.002 122.138 136.017 118.222C136.017 114.322 139.001 111.195 142.683 111.211C146.35 111.211 149.305 114.369 149.305 118.269C149.305 122.217 146.32 125.359 142.594 125.344V125.328Z" fill="#E31E24"/>
<path d="M220.876 211.086C224.38 211.086 227.29 214.118 227.304 217.844C227.334 221.618 224.439 224.729 220.891 224.745C217.387 224.745 214.477 221.713 214.462 217.986C214.432 214.212 217.327 211.102 220.876 211.086Z" fill="#E31E24"/>
<path d="M205.151 227.764C208.67 227.748 211.58 230.764 211.624 234.49C211.669 238.28 208.789 241.407 205.255 241.423C201.736 241.438 198.826 238.422 198.782 234.696C198.737 230.906 201.618 227.78 205.151 227.764Z" fill="#E31E24"/>
<path d="M111.29 211.312C114.823 211.312 117.748 214.439 117.719 218.181C117.689 221.908 114.764 224.955 111.275 224.94C107.786 224.924 104.891 221.829 104.906 218.118C104.906 214.407 107.801 211.328 111.29 211.312Z" fill="#E31E24"/>
<path d="M205.21 125.094C201.721 125.094 198.811 122.031 198.796 118.32C198.782 114.609 201.647 111.514 205.151 111.467C208.64 111.435 211.565 114.467 211.624 118.194C211.683 121.936 208.759 125.094 205.225 125.094H205.21Z" fill="#E31E24"/>
<path d="M220.935 141.768C217.401 141.799 214.461 138.673 214.476 134.931C214.491 131.22 217.386 128.141 220.89 128.141C224.379 128.141 227.274 131.22 227.289 134.931C227.289 138.641 224.424 141.736 220.935 141.768Z" fill="#E31E24"/>
<path d="M126.977 227.777C130.466 227.777 133.376 230.825 133.406 234.551C133.436 238.262 130.555 241.373 127.066 241.405C123.533 241.452 120.593 238.341 120.593 234.583C120.593 230.872 123.488 227.793 126.992 227.777H126.977Z" fill="#E31E24"/>
<path d="M111.302 141.737C107.813 141.737 104.903 138.626 104.918 134.915C104.933 131.189 107.873 128.109 111.347 128.157C114.851 128.204 117.746 131.331 117.687 135.026C117.627 138.721 114.762 141.737 111.302 141.737Z" fill="#E31E24"/>
<path d="M127.114 125.061C123.684 125.156 120.774 122.219 120.611 118.477C120.462 114.813 123.283 111.624 126.817 111.481C130.276 111.339 133.26 114.355 133.379 118.113C133.498 121.793 130.647 124.951 127.114 125.061Z" fill="#E31E24"/>
<path d="M173.926 244.612C177.415 244.565 180.236 247.454 180.281 251.133C180.325 254.892 177.579 257.908 174.075 257.923C170.586 257.939 167.794 255.034 167.765 251.354C167.735 247.644 170.467 244.659 173.911 244.612H173.926Z" fill="#E31E24"/>
<path d="M158.232 244.61C161.766 244.562 164.587 247.483 164.602 251.21C164.616 254.921 161.885 257.889 158.41 257.905C154.921 257.937 152.115 255.031 152.086 251.352C152.056 247.641 154.773 244.641 158.217 244.594L158.232 244.61Z" fill="#E31E24"/>
<path d="M236.472 161.442C239.961 161.41 242.767 164.3 242.812 167.979C242.857 171.737 240.095 174.737 236.591 174.753C233.102 174.753 230.326 171.848 230.296 168.168C230.281 164.458 233.013 161.489 236.472 161.457V161.442Z" fill="#E31E24"/>
<path d="M236.517 178.119C240.006 178.119 242.783 181.025 242.812 184.704C242.842 188.415 240.11 191.383 236.636 191.431C233.102 191.462 230.296 188.525 230.296 184.783C230.296 181.088 233.043 178.135 236.517 178.119Z" fill="#E31E24"/>
<path d="M95.8862 178.135C99.301 178.151 102.062 181.119 102.062 184.751C102.062 188.446 99.2861 191.415 95.812 191.399C92.3378 191.399 89.5763 188.415 89.5763 184.72C89.5763 181.04 92.3972 178.103 95.8714 178.119L95.8862 178.135Z" fill="#E31E24"/>
<path d="M173.834 108.229C170.36 108.229 167.583 105.26 167.583 101.566C167.583 97.8863 170.389 94.9335 173.864 94.9493C177.278 94.9651 180.055 97.9179 180.055 101.55C180.055 105.245 177.293 108.213 173.819 108.213L173.834 108.229Z" fill="#E31E24"/>
<path d="M95.6526 161.473C99.0525 161.473 101.844 164.457 101.844 168.073C101.844 171.737 99.0377 174.737 95.5932 174.721C92.1933 174.721 89.4021 171.737 89.4021 168.121C89.4021 164.457 92.2081 161.457 95.6526 161.473Z" fill="#E31E24"/>
<path d="M158.394 108.213C154.935 108.229 152.114 105.26 152.114 101.581C152.114 97.9651 154.89 94.9807 158.29 94.9649C161.749 94.9491 164.57 97.9177 164.57 101.597C164.57 105.213 161.794 108.197 158.394 108.213Z" fill="#E31E24"/>
<path d="M142.674 244.721C146.074 244.721 148.894 247.752 148.835 251.353C148.776 254.953 145.97 257.874 142.629 257.827C139.244 257.779 136.497 254.827 136.512 251.242C136.527 247.658 139.303 244.721 142.674 244.721Z" fill="#E31E24"/>
<path d="M236.504 194.901C239.845 194.854 242.651 197.759 242.725 201.359C242.799 204.944 239.978 207.991 236.579 208.007C233.223 208.007 230.432 205.086 230.402 201.486C230.373 197.917 233.119 194.948 236.504 194.901Z" fill="#E31E24"/>
<path d="M189.495 244.721C192.851 244.721 195.642 247.642 195.672 251.242C195.701 254.811 192.955 257.779 189.57 257.827C186.184 257.89 183.334 254.874 183.349 251.258C183.349 247.674 186.125 244.736 189.495 244.721Z" fill="#E31E24"/>
<path d="M95.7828 194.951C99.1679 194.92 101.915 197.809 101.929 201.41C101.959 205.01 99.2422 207.931 95.8422 207.947C92.4571 207.979 89.7105 205.089 89.6956 201.473C89.6659 197.873 92.3829 194.951 95.768 194.936L95.7828 194.951Z" fill="#E31E24"/>
<path d="M236.592 157.924C233.207 157.939 230.461 155.065 230.446 151.449C230.431 147.849 233.133 144.928 236.533 144.912C239.918 144.896 242.665 147.77 242.68 151.386C242.694 154.987 239.992 157.908 236.592 157.924Z" fill="#E31E24"/>
<path d="M95.5862 157.892C92.216 157.876 89.5435 155.034 89.5435 151.433C89.5435 147.802 92.2457 144.928 95.6605 144.943C99.0307 144.959 101.703 147.802 101.703 151.402C101.703 155.034 99.001 157.907 95.5862 157.892Z" fill="#E31E24"/>
<path d="M189.603 108.058C186.174 108.105 183.457 105.263 183.442 101.631C183.427 98.031 186.07 95.173 189.44 95.1256C192.87 95.0782 195.587 97.9205 195.602 101.552C195.616 105.153 192.974 108.011 189.603 108.058Z" fill="#E31E24"/>
<path d="M142.641 108.054C139.271 108.038 136.598 105.196 136.598 101.596C136.598 97.9638 139.3 95.0899 142.715 95.1057C146.085 95.1215 148.758 97.9638 148.758 101.564C148.758 105.196 146.056 108.07 142.641 108.054Z" fill="#E31E24"/>
<path d="M220.729 228.19C224.099 228.127 226.861 230.97 226.89 234.538C226.92 238.06 224.248 240.981 220.952 241.012C217.626 241.06 214.879 238.233 214.835 234.728C214.79 231.191 217.433 228.269 220.729 228.19Z" fill="#E31E24"/>
<path d="M111.359 228.205C114.655 228.237 117.358 231.158 117.328 234.648C117.298 238.153 114.552 241.027 111.27 240.996C107.974 240.964 105.272 238.043 105.302 234.553C105.332 231.048 108.078 228.174 111.359 228.205Z" fill="#E31E24"/>
<path d="M220.84 124.665C217.544 124.65 214.842 121.744 214.857 118.239C214.872 114.733 217.603 111.859 220.899 111.875C224.195 111.891 226.898 114.796 226.883 118.302C226.868 121.807 224.136 124.681 220.84 124.665Z" fill="#E31E24"/>
<path d="M111.321 124.636C108.069 124.636 105.367 121.809 105.323 118.335C105.278 114.861 108.01 111.908 111.306 111.893C114.557 111.893 117.26 114.719 117.304 118.193C117.349 121.667 114.617 124.62 111.321 124.636Z" fill="#E31E24"/>
<path d="M126.802 245.022C130.143 244.927 132.815 247.643 132.874 251.149C132.919 254.638 130.395 257.449 127.129 257.512C123.833 257.575 121.19 254.907 121.116 251.433C121.041 247.927 123.551 245.101 126.802 245.006V245.022Z" fill="#E31E24"/>
<path d="M205.147 245.022C208.428 244.99 211.041 247.706 211.086 251.196C211.115 254.733 208.532 257.528 205.206 257.528C201.925 257.528 199.342 254.796 199.327 251.306C199.327 247.817 201.881 245.053 205.147 245.022Z" fill="#E31E24"/>
<path d="M236.484 211.658C239.81 211.627 242.438 214.39 242.438 217.911C242.438 221.401 239.854 224.149 236.573 224.149C233.292 224.149 230.694 221.417 230.679 217.943C230.664 214.453 233.218 211.674 236.484 211.643V211.658Z" fill="#E31E24"/>
<path d="M236.399 140.996C233.073 141.012 230.46 138.233 230.475 134.712C230.49 131.238 233.088 128.49 236.354 128.49C239.635 128.49 242.219 131.238 242.219 134.727C242.219 138.217 239.65 140.981 236.384 140.996H236.399Z" fill="#E31E24"/>
<path d="M205.168 107.818C201.902 107.818 199.333 105.039 199.348 101.549C199.348 98.0754 201.961 95.3437 205.242 95.3594C208.509 95.3594 211.077 98.1386 211.062 101.628C211.062 105.102 208.449 107.834 205.168 107.818Z" fill="#E31E24"/>
<path d="M95.8152 211.912C99.0815 211.912 101.68 214.644 101.68 218.118C101.68 221.592 99.1112 224.355 95.8449 224.355C92.5786 224.355 89.9804 221.623 89.9804 218.149C89.9804 214.675 92.5489 211.912 95.8152 211.912Z" fill="#E31E24"/>
<path d="M127.068 107.804C123.801 107.836 121.158 105.088 121.158 101.63C121.158 98.2036 123.712 95.4244 126.919 95.3928C130.185 95.3613 132.828 98.1088 132.828 101.567C132.828 104.993 130.274 107.773 127.068 107.804Z" fill="#E31E24"/>
<path d="M95.7446 141.154C92.4635 141.202 89.8059 138.47 89.791 135.027C89.7613 131.585 92.315 128.79 95.5071 128.743C98.7883 128.695 101.446 131.427 101.461 134.87C101.49 138.312 98.9367 141.107 95.7446 141.154Z" fill="#E31E24"/>
<path d="M158.351 261.947C161.469 261.947 163.978 264.584 164.008 267.884C164.023 271.264 161.528 273.948 158.366 273.948C155.248 273.948 152.739 271.311 152.709 268.011C152.694 264.632 155.189 261.947 158.351 261.947Z" fill="#E31E24"/>
<path d="M174.022 261.947C177.14 261.947 179.649 264.584 179.664 267.9C179.679 271.279 177.185 273.964 174.022 273.964C170.904 273.964 168.395 271.327 168.38 268.011C168.366 264.632 170.86 261.947 174.022 261.947Z" fill="#E31E24"/>
<path d="M252.053 162.09C255.171 162.09 257.68 164.743 257.68 168.059C257.68 171.438 255.185 174.106 252.023 174.106C248.905 174.106 246.396 171.454 246.396 168.138C246.396 164.758 248.89 162.09 252.053 162.09Z" fill="#E31E24"/>
<path d="M252.038 178.764C255.156 178.764 257.665 181.401 257.68 184.717C257.694 188.096 255.2 190.78 252.038 190.78C248.92 190.78 246.411 188.143 246.396 184.827C246.381 181.448 248.875 178.764 252.038 178.764Z" fill="#E31E24"/>
<path d="M80.1472 178.779C83.2502 178.779 85.7742 181.432 85.7891 184.732C85.7891 188.033 83.3096 190.733 80.2215 190.749C77.0739 190.78 74.5203 188.096 74.5351 184.748C74.5351 181.448 77.0591 178.779 80.1621 178.779H80.1472Z" fill="#E31E24"/>
<path d="M80.073 162.104C83.2354 162.072 85.7891 164.741 85.7891 168.073C85.7891 171.373 83.2948 174.057 80.1918 174.073C77.0888 174.073 74.55 171.436 74.5351 168.152C74.5054 164.836 76.9997 162.135 80.073 162.104Z" fill="#E31E24"/>
<path d="M158.342 90.9049C155.239 90.9049 152.73 88.2205 152.73 84.9203C152.73 81.6201 155.224 78.9357 158.327 78.9199C161.43 78.9199 163.969 81.5569 163.984 84.8414C164.014 88.189 161.49 90.9049 158.342 90.8891V90.9049Z" fill="#E31E24"/>
<path d="M173.841 90.905C170.693 90.905 168.169 88.2048 168.199 84.8414C168.229 81.557 170.753 78.9042 173.871 78.92C176.959 78.9358 179.468 81.6202 179.453 84.9204C179.453 88.2206 176.929 90.8892 173.841 90.8892V90.905Z" fill="#E31E24"/>
<path d="M236.324 124.193C233.28 124.161 230.771 121.477 230.786 118.255C230.816 115.018 233.34 112.35 236.368 112.366C239.412 112.397 241.921 115.082 241.906 118.303C241.876 121.54 239.353 124.208 236.324 124.193Z" fill="#E31E24"/>
<path d="M236.504 228.68C239.533 228.633 242.072 231.286 242.117 234.539C242.161 237.76 239.667 240.46 236.608 240.507C233.58 240.555 231.041 237.902 230.996 234.649C230.952 231.428 233.446 228.728 236.504 228.68Z" fill="#E31E24"/>
<path d="M142.675 262.029C145.718 262.029 148.242 264.714 148.242 267.935C148.242 271.172 145.718 273.856 142.689 273.856C139.646 273.856 137.122 271.172 137.122 267.951C137.122 264.714 139.646 262.029 142.675 262.029Z" fill="#E31E24"/>
<path d="M189.496 262.029C192.524 262.014 195.063 264.682 195.078 267.919C195.093 271.14 192.584 273.841 189.54 273.856C186.511 273.872 183.973 271.204 183.958 267.967C183.943 264.745 186.452 262.045 189.496 262.029Z" fill="#E31E24"/>
<path d="M252.078 157.339C249.049 157.371 246.511 154.702 246.481 151.465C246.451 148.244 248.96 145.544 252.004 145.512C255.033 145.48 257.572 148.149 257.601 151.386C257.631 154.607 255.122 157.308 252.078 157.339Z" fill="#E31E24"/>
<path d="M252.064 195.533C255.107 195.565 257.616 198.249 257.601 201.471C257.572 204.708 255.048 207.376 252.019 207.36C248.975 207.329 246.466 204.644 246.481 201.423C246.511 198.186 249.035 195.517 252.064 195.533Z" fill="#E31E24"/>
<path d="M220.885 245.354C223.928 245.354 226.452 248.038 226.437 251.275C226.437 254.512 223.913 257.196 220.87 257.181C217.826 257.181 215.302 254.496 215.317 251.259C215.317 248.022 217.841 245.338 220.885 245.354Z" fill="#E31E24"/>
<path d="M111.27 245.354C114.298 245.322 116.837 247.991 116.867 251.228C116.897 254.449 114.387 257.149 111.344 257.181C108.315 257.212 105.776 254.544 105.747 251.307C105.717 248.086 108.226 245.385 111.27 245.354Z" fill="#E31E24"/>
<path d="M95.6977 228.729C98.7265 228.634 101.221 231.145 101.34 234.398C101.458 237.651 99.0531 240.367 95.965 240.462C92.9362 240.556 90.4419 238.046 90.3231 234.793C90.2044 231.54 92.6096 228.824 95.6977 228.729Z" fill="#E31E24"/>
<path d="M80.1261 195.582C83.1994 195.566 85.6788 198.203 85.664 201.472C85.6491 204.741 83.14 207.362 80.0816 207.314C77.038 207.267 74.6328 204.646 74.6476 201.425C74.6625 198.188 77.0973 195.598 80.141 195.582H80.1261Z" fill="#E31E24"/>
<path d="M95.6379 124.099C92.5795 124.099 90.1594 121.54 90.1594 118.288C90.1594 115.035 92.5646 112.461 95.6231 112.461C98.6815 112.461 101.102 115.019 101.102 118.272C101.102 121.525 98.6964 124.099 95.6379 124.099Z" fill="#E31E24"/>
<path d="M111.31 107.423C108.251 107.423 105.831 104.865 105.816 101.612C105.816 98.3592 108.222 95.7853 111.28 95.7695C114.339 95.7695 116.759 98.3276 116.773 101.58C116.773 104.833 114.368 107.407 111.31 107.423Z" fill="#E31E24"/>
<path d="M221.019 107.456C217.99 107.55 215.481 105.056 215.362 101.803C215.243 98.5498 217.634 95.8338 220.722 95.7233C223.751 95.6286 226.26 98.1235 226.379 101.376C226.497 104.629 224.107 107.345 221.019 107.456Z" fill="#E31E24"/>
<path d="M189.714 90.7836C186.655 90.9099 184.101 88.3676 184.012 85.0832C183.923 81.8619 186.269 79.1933 189.328 79.067C192.386 78.9407 194.94 81.483 195.029 84.7674C195.118 87.9887 192.772 90.6573 189.714 90.7836Z" fill="#E31E24"/>
<path d="M142.714 90.7316C139.641 90.7474 137.221 88.2051 137.191 84.9523C137.177 81.6836 139.567 79.1098 142.625 79.0782C145.699 79.0624 148.119 81.6047 148.148 84.8575C148.163 88.1262 145.773 90.7 142.714 90.7316Z" fill="#E31E24"/>
<path d="M80.1246 157.245C77.0661 157.245 74.6609 154.656 74.6757 151.387C74.6757 148.134 77.1106 145.576 80.1839 145.592C83.2424 145.592 85.6476 148.182 85.6327 151.45C85.6327 154.703 83.1979 157.261 80.1246 157.245Z" fill="#E31E24"/>
<path d="M251.987 212.21C254.912 212.162 257.376 214.768 257.406 217.894C257.421 221.005 254.971 223.626 252.032 223.626C249.092 223.626 246.642 221.005 246.672 217.894C246.702 214.799 249.077 212.257 251.987 212.21Z" fill="#E31E24"/>
<path d="M205.126 262.298C208.081 262.25 210.501 264.777 210.516 267.935C210.53 271.045 208.199 273.572 205.275 273.619C202.32 273.667 199.9 271.14 199.885 267.982C199.87 264.871 202.201 262.345 205.126 262.298Z" fill="#E31E24"/>
<path d="M127.026 262.295C129.995 262.327 132.371 264.901 132.311 268.043C132.252 271.17 129.877 273.633 126.952 273.601C124.012 273.57 121.681 271.075 121.666 267.948C121.666 264.79 124.057 262.248 127.026 262.28V262.295Z" fill="#E31E24"/>
<path d="M80.0467 212.51C83.016 212.463 85.3767 214.895 85.4212 218.021C85.4658 221.179 83.1793 223.69 80.2397 223.738C77.2703 223.785 74.9096 221.353 74.8651 218.227C74.8206 215.069 77.107 212.558 80.0467 212.51Z" fill="#E31E24"/>
<path d="M80.1066 140.569C77.1521 140.553 74.8508 138.058 74.8657 134.916C74.8805 131.774 77.2263 129.326 80.1809 129.342C83.1354 129.358 85.4367 131.853 85.4218 134.995C85.407 138.137 83.0611 140.585 80.1066 140.569Z" fill="#E31E24"/>
<path d="M251.963 140.394C249.023 140.331 246.707 137.82 246.722 134.709C246.737 131.583 249.083 129.104 252.022 129.088C254.992 129.072 257.382 131.63 257.367 134.773C257.352 137.931 254.932 140.457 251.963 140.394Z" fill="#E31E24"/>
<path d="M205.169 90.5299C202.215 90.5141 199.913 88.0192 199.928 84.8769C199.943 81.7345 202.289 79.287 205.243 79.3028C208.198 79.3186 210.499 81.8135 210.484 84.9558C210.469 88.0981 208.124 90.5457 205.169 90.5299Z" fill="#E31E24"/>
<path d="M127.008 90.494C124.098 90.494 121.767 88.0622 121.737 84.9831C121.708 81.825 124.024 79.3301 126.963 79.3301C129.873 79.3301 132.204 81.7618 132.234 84.841C132.264 87.9991 129.948 90.494 127.008 90.494Z" fill="#E31E24"/>
<path d="M236.505 245.826C239.325 245.795 241.612 248.179 241.671 251.179C241.716 254.227 239.415 256.69 236.549 256.69C233.728 256.69 231.457 254.29 231.442 251.274C231.427 248.274 233.669 245.842 236.505 245.811V245.826Z" fill="#E31E24"/>
<path d="M236.403 106.98C233.553 106.996 231.296 104.643 231.281 101.611C231.281 98.5797 233.508 96.1953 236.359 96.1953C239.165 96.1953 241.392 98.5323 241.422 101.517C241.451 104.564 239.239 106.964 236.388 106.98H236.403Z" fill="#E31E24"/>
<path d="M95.8067 245.877C98.6573 245.877 100.914 248.23 100.914 251.262C100.914 254.246 98.7316 256.63 95.9255 256.662C93.0601 256.693 90.8033 254.356 90.7736 251.325C90.7439 248.293 92.971 245.877 95.8067 245.877Z" fill="#E31E24"/>
<path d="M95.6747 106.968C92.8241 106.984 90.5674 104.615 90.5674 101.583C90.5674 98.5991 92.7944 96.2305 95.6005 96.2305C98.4066 96.2305 100.648 98.5833 100.648 101.568C100.648 104.552 98.4511 106.952 95.6599 106.968H95.6747Z" fill="#E31E24"/>
<path d="M252.037 229.246C254.828 229.246 257.07 231.646 257.07 234.615C257.07 237.584 254.799 239.952 251.993 239.936C249.201 239.921 246.989 237.489 247.019 234.504C247.049 231.583 249.291 229.23 252.037 229.23V229.246Z" fill="#E31E24"/>
<path d="M220.91 262.6C223.656 262.615 225.884 264.984 225.898 267.905C225.913 270.89 223.671 273.29 220.88 273.29C218.089 273.29 215.832 270.905 215.832 267.937C215.832 264.968 218.104 262.584 220.895 262.6H220.91Z" fill="#E31E24"/>
<path d="M174.088 279.303C176.82 279.334 179.062 281.75 179.047 284.656C179.047 287.561 176.775 289.961 174.043 289.961C171.267 289.961 168.995 287.498 169.025 284.561C169.07 281.656 171.356 279.287 174.088 279.303Z" fill="#E31E24"/>
<path d="M158.297 279.303C161.029 279.271 163.315 281.64 163.374 284.545C163.419 287.483 161.147 289.962 158.371 289.962C155.639 289.962 153.368 287.577 153.353 284.672C153.338 281.766 155.565 279.335 158.297 279.303Z" fill="#E31E24"/>
<path d="M267.753 162.768C270.485 162.799 272.727 165.215 272.727 168.121C272.727 171.026 270.455 173.426 267.723 173.426C264.947 173.426 262.66 170.979 262.705 168.026C262.735 165.121 265.021 162.736 267.753 162.768Z" fill="#E31E24"/>
<path d="M252.036 123.61C249.304 123.61 247.047 121.21 247.032 118.304C247.032 115.399 249.274 112.983 252.006 112.951C254.738 112.92 257.024 115.304 257.054 118.21C257.099 121.147 254.797 123.61 252.036 123.61Z" fill="#E31E24"/>
<path d="M80.0548 229.264C82.7866 229.217 85.0879 231.57 85.1473 234.475C85.2066 237.381 83.0093 239.844 80.2775 239.923C77.516 240.002 75.1702 237.602 75.1256 234.665C75.0959 231.759 77.3229 229.328 80.0548 229.264Z" fill="#E31E24"/>
<path d="M111.287 262.627C114.019 262.627 116.29 265.011 116.32 267.917C116.35 270.822 114.108 273.254 111.376 273.286C108.614 273.333 106.298 270.901 106.298 267.948C106.298 265.043 108.555 262.643 111.287 262.627Z" fill="#E31E24"/>
<path d="M267.723 179.443C270.455 179.443 272.712 181.844 272.727 184.749C272.727 187.702 270.44 190.134 267.664 190.102C264.932 190.07 262.69 187.654 262.705 184.749C262.72 181.844 264.991 179.443 267.723 179.443Z" fill="#E31E24"/>
<path d="M80.1216 123.578C77.3898 123.562 75.1182 121.099 75.1627 118.225C75.2073 115.367 77.4343 112.998 80.1216 112.982C82.8386 112.967 85.125 115.398 85.125 118.288C85.125 121.178 82.8237 123.61 80.1067 123.594L80.1216 123.578Z" fill="#E31E24"/>
<path d="M64.4401 162.783C67.1274 162.783 69.3693 165.12 69.4435 167.994C69.5178 170.868 67.261 173.347 64.5292 173.394C61.8271 173.442 59.511 171.042 59.4813 168.136C59.4516 165.247 61.7231 162.799 64.455 162.783H64.4401Z" fill="#E31E24"/>
<path d="M64.4866 179.475C67.1739 179.475 69.4158 181.843 69.4603 184.717C69.5048 187.591 67.2333 190.054 64.5014 190.086C61.7845 190.117 59.4832 187.686 59.4832 184.796C59.4832 181.906 61.7696 179.475 64.4866 179.49V179.475Z" fill="#E31E24"/>
<path d="M111.301 90.2114C108.569 90.2114 106.298 87.7638 106.328 84.8742C106.357 81.9687 108.659 79.5686 111.376 79.6159C114.078 79.6633 116.29 82.0477 116.305 84.9058C116.305 87.7954 114.018 90.2272 111.316 90.2272L111.301 90.2114Z" fill="#E31E24"/>
<path d="M158.383 73.5361C155.666 73.5677 153.365 71.136 153.365 68.2463C153.365 65.3882 155.563 63.0038 158.265 62.9407C160.967 62.8775 163.283 65.2777 163.327 68.1831C163.372 71.057 161.1 73.5203 158.369 73.5519L158.383 73.5361Z" fill="#E31E24"/>
<path d="M173.898 73.537C171.181 73.5844 168.88 71.1684 168.85 68.263C168.82 65.3733 171.107 62.9258 173.824 62.9258C176.541 62.9258 178.827 65.3575 178.812 68.2472C178.812 71.1053 176.585 73.4896 173.883 73.537H173.898Z" fill="#E31E24"/>
<path d="M220.9 90.2119C218.183 90.2119 215.897 87.7959 215.897 84.9063C215.897 82.0482 218.109 79.6638 220.811 79.6164C223.513 79.5533 225.829 81.9692 225.859 84.8747C225.889 87.7644 223.617 90.2119 220.9 90.2277V90.2119Z" fill="#E31E24"/>
<path d="M189.544 279.432C192.246 279.432 194.384 281.706 194.414 284.58C194.443 287.501 192.291 289.822 189.544 289.838C186.797 289.838 184.63 287.548 184.63 284.627C184.63 281.706 186.797 279.416 189.544 279.416V279.432Z" fill="#E31E24"/>
<path d="M142.551 279.432C145.297 279.369 147.509 281.627 147.554 284.532C147.599 287.406 145.52 289.743 142.833 289.822C140.086 289.917 137.844 287.69 137.77 284.769C137.696 281.848 139.804 279.479 142.551 279.416V279.432Z" fill="#E31E24"/>
<path d="M267.878 156.612C265.131 156.691 262.904 154.465 262.83 151.544C262.755 148.622 264.878 146.27 267.61 146.206C270.312 146.143 272.51 148.354 272.599 151.212C272.688 154.133 270.594 156.518 267.863 156.597L267.878 156.612Z" fill="#E31E24"/>
<path d="M267.695 196.246C270.442 196.246 272.609 198.536 272.609 201.457C272.609 204.378 270.427 206.668 267.68 206.652C264.978 206.636 262.84 204.378 262.81 201.504C262.781 198.583 264.934 196.262 267.68 196.246H267.695Z" fill="#E31E24"/>
<path d="M64.4502 156.581C61.7332 156.581 59.6101 154.307 59.6101 151.418C59.6101 148.528 61.7332 146.254 64.4354 146.238C67.1524 146.238 69.3052 148.465 69.32 151.339C69.3497 154.276 67.1969 156.581 64.4502 156.565V156.581Z" fill="#E31E24"/>
<path d="M189.482 73.4129C186.78 73.4129 184.657 71.1233 184.657 68.2336C184.657 65.344 186.795 63.0859 189.497 63.0859C192.214 63.0859 194.352 65.3282 194.367 68.2179C194.382 71.1549 192.229 73.4445 189.468 73.4287L189.482 73.4129Z" fill="#E31E24"/>
<path d="M64.3986 196.278C67.1156 196.246 69.2833 198.473 69.3278 201.346C69.3575 204.283 67.2344 206.605 64.4877 206.605C61.7708 206.605 59.6328 204.362 59.6179 201.489C59.6031 198.599 61.7114 196.309 64.4135 196.278H64.3986Z" fill="#E31E24"/>
<path d="M142.616 73.3815C139.943 73.3499 137.82 71.0445 137.85 68.1706C137.88 65.3284 140.047 63.0703 142.749 63.1019C145.422 63.1335 147.545 65.4389 147.515 68.3128C147.486 71.1551 145.318 73.4131 142.616 73.3815Z" fill="#E31E24"/>
<path d="M205.207 279.619C207.805 279.619 209.869 281.798 209.913 284.546C209.958 287.341 207.879 289.599 205.251 289.63C202.624 289.662 200.515 287.436 200.5 284.641C200.5 281.846 202.594 279.603 205.222 279.619H205.207Z" fill="#E31E24"/>
<path d="M126.987 279.619C129.571 279.619 131.649 281.798 131.679 284.562C131.724 287.357 129.645 289.615 127.017 289.646C124.389 289.678 122.281 287.451 122.266 284.656C122.266 281.861 124.359 279.619 126.987 279.635V279.619Z" fill="#E31E24"/>
<path d="M267.707 212.904C270.29 212.904 272.369 215.068 272.413 217.831C272.458 220.626 270.394 222.884 267.766 222.915C265.138 222.947 263.015 220.736 263 217.941C262.986 215.147 265.079 212.904 267.707 212.904Z" fill="#E31E24"/>
<path d="M205.219 73.2059C202.606 73.2059 200.557 71.0583 200.528 68.295C200.513 65.5159 202.532 63.321 205.13 63.2894C207.743 63.2578 209.822 65.3895 209.866 68.1529C209.911 70.9794 207.862 73.2059 205.219 73.2216V73.2059Z" fill="#E31E24"/>
<path d="M267.662 139.696C265.063 139.664 263.044 137.469 263.059 134.69C263.074 131.927 265.138 129.764 267.736 129.764C270.334 129.764 272.383 131.943 272.383 134.722C272.383 137.533 270.304 139.727 267.647 139.696H267.662Z" fill="#E31E24"/>
<path d="M64.4858 213.172C67.084 213.172 69.1328 215.367 69.1328 218.13C69.1328 220.894 67.0988 223.089 64.4858 223.089C61.843 223.089 59.7793 220.894 59.7941 218.067C59.809 215.304 61.8727 213.141 64.4858 213.156V213.172Z" fill="#E31E24"/>
<path d="M127.104 73.1722C124.491 73.2195 122.382 71.0878 122.338 68.3403C122.308 65.5611 124.327 63.3347 126.911 63.3031C129.524 63.2715 131.602 65.4348 131.617 68.1823C131.632 70.9141 129.628 73.1248 127.104 73.1722Z" fill="#E31E24"/>
<path d="M64.513 139.889C61.9 139.904 59.8362 137.741 59.8214 134.978C59.8214 132.214 61.8554 130.02 64.4536 130.02C67.0518 130.02 69.1007 132.214 69.0859 134.978C69.0859 137.694 67.037 139.873 64.4982 139.889H64.513Z" fill="#E31E24"/>
<path d="M236.577 263.037C239.101 263.037 241.165 265.248 241.18 267.932C241.18 270.664 239.101 272.89 236.533 272.875C234.009 272.875 231.945 270.664 231.93 267.98C231.93 265.248 234.009 263.021 236.577 263.037Z" fill="#E31E24"/>
<path d="M95.8206 263.037C98.3446 263.037 100.423 265.2 100.453 267.885C100.483 270.617 98.4188 272.859 95.8503 272.875C93.3263 272.875 91.2478 270.711 91.2181 268.027C91.1884 265.295 93.2521 263.053 95.8206 263.037Z" fill="#E31E24"/>
<path d="M252.017 246.348C254.585 246.348 256.679 248.558 256.664 251.29C256.664 253.974 254.585 256.169 252.061 256.185C249.493 256.185 247.4 253.974 247.414 251.243C247.414 248.558 249.493 246.363 252.017 246.348Z" fill="#E31E24"/>
<path d="M80.1839 246.383C82.693 246.415 84.7716 248.657 84.7419 251.31C84.7122 253.978 82.6039 256.189 80.1096 256.157C77.6005 256.126 75.522 253.884 75.5516 251.231C75.5813 248.562 77.6896 246.352 80.1839 246.383Z" fill="#E31E24"/>
<path d="M236.343 89.7979C233.834 89.7821 231.756 87.5398 231.771 84.887C231.785 82.2184 233.894 80.0077 236.388 80.0235C238.897 80.0393 240.976 82.2816 240.961 84.9344C240.946 87.603 238.838 89.8136 236.343 89.7979Z" fill="#E31E24"/>
<path d="M252 106.491C249.491 106.46 247.413 104.218 247.442 101.565C247.472 98.8962 249.58 96.6856 252.074 96.7171C254.584 96.7487 256.662 98.991 256.632 101.644C256.603 104.312 254.495 106.523 252 106.491Z" fill="#E31E24"/>
<path d="M95.5553 89.7698C93.061 89.7067 91.027 87.496 91.0567 84.8748C91.0864 82.2378 93.1649 80.0429 95.6444 80.0587C98.1238 80.0587 100.188 82.2694 100.188 84.9064C100.188 87.575 98.0496 89.833 95.5553 89.7698Z" fill="#E31E24"/>
<path d="M80.1226 106.442C77.6431 106.442 75.5794 104.231 75.5794 101.594C75.5794 98.9573 77.6283 96.7624 80.1077 96.7308C82.5723 96.6992 84.6657 98.8783 84.7102 101.531C84.7548 104.184 82.6317 106.458 80.1226 106.442Z" fill="#E31E24"/>
<path d="M267.716 229.893C270.18 229.893 272.184 232.04 272.14 234.661C272.11 237.235 270.106 239.32 267.686 239.288C265.266 239.272 263.306 237.141 263.306 234.567C263.306 231.993 265.295 229.893 267.716 229.877V229.893Z" fill="#E31E24"/>
<path d="M267.76 122.976C265.34 122.976 263.336 120.908 263.306 118.334C263.276 115.76 265.236 113.612 267.641 113.581C270.061 113.534 272.095 115.602 272.14 118.176C272.184 120.797 270.21 122.976 267.745 122.992L267.76 122.976Z" fill="#E31E24"/>
<path d="M111.272 279.938C113.737 279.922 115.741 282.054 115.726 284.675C115.712 287.249 113.722 289.349 111.287 289.333C108.867 289.333 106.893 287.217 106.878 284.643C106.878 282.069 108.838 279.953 111.258 279.922L111.272 279.938Z" fill="#E31E24"/>
<path d="M220.843 279.938C223.263 279.922 225.268 281.99 225.312 284.564C225.342 287.138 223.397 289.286 220.992 289.333C218.527 289.38 216.493 287.264 216.478 284.643C216.478 282.069 218.438 279.953 220.858 279.922L220.843 279.938Z" fill="#E31E24"/>
<path d="M64.546 122.942C62.1556 123.005 60.1067 120.889 60.0622 118.331C60.0177 115.789 62.022 113.61 64.4272 113.594C66.8175 113.563 68.8516 115.71 68.8516 118.252C68.8516 120.763 66.9066 122.879 64.546 122.942Z" fill="#E31E24"/>
<path d="M220.872 72.9069C218.467 72.9069 216.462 70.7436 216.492 68.2014C216.522 65.6907 218.481 63.5905 220.842 63.5589C223.232 63.5274 225.266 65.6591 225.281 68.2171C225.281 70.7752 223.277 72.9227 220.872 72.9069Z" fill="#E31E24"/>
<path d="M111.287 73.1261C108.881 73.1261 106.877 70.947 106.907 68.4047C106.936 65.8467 108.985 63.7308 111.376 63.7781C113.751 63.8255 115.696 65.9256 115.711 68.4521C115.711 71.0102 113.692 73.1419 111.301 73.1419L111.287 73.1261Z" fill="#E31E24"/>
<path d="M64.4208 229.911C66.8112 229.879 68.8452 231.995 68.8749 234.553C68.8898 237.064 66.9597 239.18 64.5842 239.258C62.1938 239.337 60.1449 237.222 60.0856 234.663C60.041 232.121 62.0156 229.942 64.4357 229.911H64.4208Z" fill="#E31E24"/>
<path d="M173.95 296.451C176.311 296.387 178.33 298.456 178.389 300.998C178.449 303.509 176.504 305.656 174.113 305.72C171.753 305.783 169.734 303.714 169.674 301.172C169.615 298.661 171.56 296.514 173.95 296.451Z" fill="#E31E24"/>
<path d="M158.398 296.45C160.788 296.481 162.748 298.629 162.718 301.139C162.689 303.682 160.67 305.766 158.309 305.734C155.919 305.703 153.959 303.555 153.988 301.045C154.018 298.502 156.037 296.418 158.398 296.45Z" fill="#E31E24"/>
<path d="M283.209 163.53C285.629 163.419 287.619 165.377 287.693 167.951C287.767 170.478 285.956 172.546 283.581 172.657C281.16 172.767 279.171 170.809 279.097 168.235C279.023 165.709 280.834 163.64 283.209 163.53Z" fill="#E31E24"/>
<path d="M283.291 180.205C285.666 180.141 287.611 182.068 287.7 184.61C287.789 187.184 285.933 189.284 283.513 189.347C281.138 189.411 279.193 187.484 279.104 184.942C279.015 182.368 280.87 180.268 283.291 180.205Z" fill="#E31E24"/>
<path d="M48.756 180.25C51.1464 180.234 53.0319 182.208 53.0468 184.735C53.0616 187.277 51.2058 189.282 48.8303 189.298C46.4399 189.314 44.5544 187.34 44.5395 184.814C44.5247 182.271 46.3805 180.266 48.756 180.25Z" fill="#E31E24"/>
<path d="M48.756 163.559C51.1464 163.543 53.0319 165.517 53.0468 168.043C53.0616 170.585 51.2058 172.591 48.8303 172.607C46.4399 172.622 44.5544 170.649 44.5395 168.122C44.5247 165.58 46.3805 163.574 48.756 163.559Z" fill="#E31E24"/>
<path d="M173.862 56.2942C171.471 56.3099 169.586 54.3361 169.571 51.8096C169.556 49.2674 171.412 47.262 173.787 47.2462C176.178 47.2304 178.063 49.2042 178.078 51.7307C178.093 54.273 176.237 56.2784 173.862 56.2942Z" fill="#E31E24"/>
<path d="M158.19 56.2941C155.799 56.2941 153.914 54.336 153.899 51.8096C153.899 49.2673 155.74 47.2619 158.115 47.2461C160.506 47.2461 162.391 49.2041 162.406 51.7306C162.406 54.2729 160.565 56.2783 158.19 56.2941Z" fill="#E31E24"/>
<path d="M189.481 296.594C191.812 296.594 193.712 298.552 193.742 301.015C193.772 303.557 191.901 305.579 189.54 305.594C187.209 305.594 185.309 303.636 185.279 301.173C185.249 298.631 187.12 296.61 189.481 296.594Z" fill="#E31E24"/>
<path d="M142.719 296.594C145.05 296.61 146.906 298.615 146.906 301.094C146.906 303.621 145.006 305.61 142.63 305.594C140.299 305.579 138.444 303.573 138.444 301.094C138.444 298.568 140.344 296.578 142.719 296.594Z" fill="#E31E24"/>
<path d="M283.365 196.957C285.74 196.941 287.641 198.947 287.641 201.457C287.641 203.937 285.785 205.926 283.454 205.958C281.078 205.973 279.178 203.968 279.178 201.457C279.178 198.978 281.034 196.989 283.365 196.957Z" fill="#E31E24"/>
<path d="M189.554 56.2467C187.253 56.2783 185.323 54.2729 185.293 51.8096C185.263 49.3621 187.149 47.3093 189.465 47.2777C191.766 47.2461 193.697 49.2515 193.726 51.7148C193.756 54.1624 191.87 56.2151 189.554 56.2467Z" fill="#E31E24"/>
<path d="M283.423 155.901C281.121 155.901 279.206 153.895 279.191 151.448C279.191 149 281.077 146.963 283.378 146.947C285.679 146.947 287.595 148.953 287.609 151.4C287.609 153.848 285.724 155.885 283.423 155.901Z" fill="#E31E24"/>
<path d="M48.8131 196.973C51.1143 196.973 53.0148 199.026 52.9999 201.473C52.9999 203.921 51.0698 205.942 48.7685 205.926C46.4673 205.926 44.5669 203.873 44.5817 201.426C44.5817 198.978 46.5118 196.957 48.8131 196.973Z" fill="#E31E24"/>
<path d="M48.774 155.869C46.4728 155.869 44.5278 153.769 44.5872 151.337C44.6317 148.921 46.5619 146.932 48.8186 146.963C51.0902 146.995 52.9757 149.032 52.9609 151.432C52.946 153.832 51.0456 155.853 48.774 155.853V155.869Z" fill="#E31E24"/>
<path d="M142.642 56.2302C140.385 56.2144 138.485 54.1774 138.485 51.7772C138.485 49.3771 140.385 47.3401 142.642 47.3243C144.898 47.3085 146.814 49.3139 146.843 51.7141C146.873 54.1458 144.928 56.2302 142.642 56.2144V56.2302Z" fill="#E31E24"/>
<path d="M79.9553 263.561C82.1972 263.419 84.157 265.329 84.2757 267.777C84.3945 270.161 82.5832 272.23 80.2819 272.34C78.0252 272.451 76.0951 270.509 76.006 268.061C75.9318 265.692 77.6837 263.687 79.9553 263.545V263.561Z" fill="#E31E24"/>
<path d="M252.03 263.547C254.301 263.547 256.187 265.552 256.172 267.968C256.157 270.4 254.257 272.374 251.985 272.342C249.699 272.311 247.843 270.274 247.902 267.858C247.961 265.458 249.802 263.531 252.044 263.531L252.03 263.547Z" fill="#E31E24"/>
<path d="M80.1507 89.251C77.8643 89.251 76.0678 87.3562 76.0678 84.9244C76.0678 82.4927 77.8494 80.582 80.1359 80.582C82.4223 80.582 84.2188 82.4769 84.2188 84.9086C84.2188 87.3404 82.4371 89.251 80.1507 89.251Z" fill="#E31E24"/>
<path d="M252.012 89.2511C249.725 89.2511 247.943 87.3247 247.958 84.8929C247.958 82.4612 249.77 80.5663 252.056 80.5821C254.343 80.5821 256.124 82.5086 256.109 84.9403C256.109 87.3721 254.298 89.2669 252.012 89.2511Z" fill="#E31E24"/>
<path d="M283.271 213.612C285.543 213.565 287.369 215.365 287.443 217.718C287.517 220.181 285.795 222.155 283.538 222.202C281.267 222.25 279.441 220.45 279.366 218.097C279.292 215.633 281.014 213.66 283.271 213.612Z" fill="#E31E24"/>
<path d="M236.555 280.332C238.841 280.332 240.623 282.243 240.593 284.674C240.579 287.059 238.797 288.922 236.555 288.922C234.269 288.922 232.487 287.011 232.517 284.58C232.532 282.195 234.313 280.332 236.555 280.332Z" fill="#E31E24"/>
<path d="M205.152 296.797C207.439 296.781 209.25 298.66 209.25 301.092C209.25 303.476 207.498 305.371 205.256 305.387C202.97 305.403 201.158 303.524 201.158 301.092C201.158 298.708 202.91 296.813 205.152 296.797Z" fill="#E31E24"/>
<path d="M267.691 246.98C269.977 246.98 271.773 248.86 271.773 251.291C271.773 253.676 270.007 255.555 267.765 255.571C265.478 255.571 263.682 253.691 263.682 251.26C263.682 248.875 265.449 246.996 267.691 246.98Z" fill="#E31E24"/>
<path d="M283.376 139.006C281.163 139.006 279.367 137.063 279.382 134.711C279.382 132.358 281.208 130.447 283.42 130.463C285.632 130.463 287.429 132.405 287.414 134.758C287.414 137.111 285.588 139.021 283.376 139.006Z" fill="#E31E24"/>
<path d="M126.991 296.814C129.204 296.814 131 298.741 131 301.109C131 303.462 129.189 305.373 126.962 305.373C124.749 305.373 122.953 303.446 122.953 301.078C122.953 298.725 124.764 296.814 126.991 296.814Z" fill="#E31E24"/>
<path d="M48.7663 213.85C50.9785 213.85 52.7898 215.744 52.8047 218.113C52.8047 220.466 51.0231 222.392 48.796 222.408C46.5838 222.408 44.7725 220.513 44.7577 218.145C44.7577 215.792 46.5393 213.865 48.7663 213.85Z" fill="#E31E24"/>
<path d="M267.755 105.875C265.528 105.891 263.717 103.996 263.687 101.643C263.672 99.2745 265.454 97.3481 267.666 97.3165C269.893 97.3007 271.705 99.1956 271.734 101.548C271.749 103.917 269.968 105.843 267.755 105.875Z" fill="#E31E24"/>
<path d="M236.389 72.5117C234.162 72.5275 232.351 70.6326 232.336 68.264C232.321 65.8955 234.102 63.969 236.33 63.9532C238.557 63.9374 240.368 65.8323 240.383 68.2009C240.398 70.5695 238.616 72.4959 236.389 72.5117Z" fill="#E31E24"/>
<path d="M95.8132 280.361C98.0254 280.361 99.8367 282.272 99.8516 284.625C99.8516 286.978 98.0551 288.904 95.8429 288.92C93.6307 288.92 91.8194 287.009 91.8046 284.656C91.8046 282.304 93.601 280.377 95.8132 280.361Z" fill="#E31E24"/>
<path d="M64.5053 246.994C66.7175 247.01 68.4991 248.952 68.4843 251.305C68.4694 253.658 66.6433 255.553 64.4311 255.537C62.2189 255.521 60.4373 253.579 60.4521 251.226C60.467 248.873 62.2931 246.978 64.5053 246.994Z" fill="#E31E24"/>
<path d="M64.5024 105.845C62.3645 105.877 60.5235 103.998 60.4641 101.692C60.4047 99.3712 62.216 97.3816 64.4134 97.35C66.5513 97.3184 68.3923 99.1975 68.4517 101.503C68.5111 103.824 66.6998 105.814 64.5024 105.845Z" fill="#E31E24"/>
<path d="M48.7937 139.196C46.6409 139.196 44.8296 137.317 44.785 135.012C44.7405 132.691 46.5815 130.701 48.764 130.701C50.9168 130.701 52.7281 132.58 52.7726 134.886C52.8172 137.207 50.9762 139.196 48.7937 139.196Z" fill="#E31E24"/>
<path d="M95.623 72.6984C93.4702 72.6984 91.6589 70.7878 91.6292 68.4982C91.5995 66.1769 93.4405 64.2031 95.623 64.2031C97.7758 64.2031 99.5871 66.1138 99.6168 68.4034C99.6465 70.7246 97.8055 72.6984 95.623 72.6984Z" fill="#E31E24"/>
<path d="M205.208 56.0246C203.055 56.0246 201.244 54.1455 201.199 51.8401C201.155 49.5189 202.981 47.5293 205.178 47.5293C207.331 47.5293 209.142 49.4084 209.187 51.7138C209.231 54.035 207.405 56.0246 205.208 56.0246Z" fill="#E31E24"/>
<path d="M127.005 56.0248C124.852 56.0248 123.04 54.1457 122.996 51.8403C122.951 49.5191 124.778 47.5295 126.975 47.5137C129.128 47.5137 130.939 49.3927 130.984 51.6982C131.028 54.0194 129.202 56.009 127.005 56.0248Z" fill="#E31E24"/>
<path d="M220.834 297.053C222.882 297.022 224.634 298.822 224.679 301.017C224.723 303.227 222.971 305.138 220.878 305.138C218.785 305.138 217.092 303.322 217.077 301.127C217.062 298.948 218.77 297.101 220.819 297.069L220.834 297.053Z" fill="#E31E24"/>
<path d="M48.8272 230.608C50.8464 230.639 52.5093 232.424 52.539 234.571C52.5538 236.75 50.8316 238.598 48.7827 238.598C46.7338 238.598 45.0116 236.75 45.0264 234.587C45.0413 232.408 46.7932 230.576 48.8272 230.608Z" fill="#E31E24"/>
<path d="M283.302 230.606C285.336 230.527 287.102 232.327 287.147 234.522C287.206 236.685 285.499 238.549 283.435 238.596C281.401 238.628 279.649 236.812 279.634 234.617C279.634 232.485 281.268 230.685 283.302 230.606Z" fill="#E31E24"/>
<path d="M111.216 297.1C113.25 297.021 115.017 298.821 115.062 301.016C115.106 303.179 113.399 305.042 111.35 305.074C109.316 305.106 107.564 303.29 107.549 301.095C107.549 298.963 109.182 297.163 111.216 297.084V297.1Z" fill="#E31E24"/>
<path d="M283.407 122.268C281.358 122.268 279.636 120.436 279.636 118.257C279.636 116.078 281.387 114.246 283.436 114.278C285.456 114.309 287.118 116.094 287.148 118.241C287.178 120.42 285.456 122.268 283.407 122.268Z" fill="#E31E24"/>
<path d="M220.858 55.6916C218.794 55.6916 217.176 53.9546 217.191 51.7597C217.191 49.5649 218.824 47.8437 220.887 47.8595C222.951 47.8595 224.569 49.5964 224.555 51.7913C224.555 53.9862 222.921 55.7074 220.858 55.6916Z" fill="#E31E24"/>
<path d="M111.273 55.6937C109.21 55.6779 107.606 53.9252 107.621 51.7303C107.636 49.5354 109.284 47.83 111.348 47.8458C113.411 47.8616 115.015 49.6144 115 51.8092C114.985 54.0041 113.337 55.7095 111.273 55.6937Z" fill="#E31E24"/>
<path d="M48.7491 122.186C46.6854 122.17 45.0819 120.433 45.0968 118.238C45.1116 116.043 46.7448 114.338 48.8085 114.354C50.8722 114.369 52.4757 116.106 52.4608 118.301C52.446 120.496 50.8128 122.202 48.7491 122.186Z" fill="#E31E24"/>
<path d="M158.322 313.95C160.267 313.918 161.93 315.655 161.945 317.724C161.975 319.792 160.341 321.561 158.397 321.576C156.452 321.608 154.789 319.871 154.774 317.803C154.744 315.734 156.377 313.965 158.322 313.95Z" fill="#E31E24"/>
<path d="M174.054 313.949C175.999 313.965 177.632 315.734 177.617 317.802C177.602 319.871 175.939 321.608 173.994 321.592C172.05 321.576 170.416 319.808 170.431 317.739C170.446 315.67 172.109 313.934 174.054 313.949Z" fill="#E31E24"/>
<path d="M299.087 180.961C301.032 180.961 302.68 182.714 302.68 184.782C302.68 186.851 301.032 188.604 299.087 188.604C297.142 188.604 295.494 186.851 295.494 184.782C295.494 182.714 297.142 180.961 299.087 180.961Z" fill="#E31E24"/>
<path d="M299.057 164.272C301.002 164.24 302.664 165.977 302.679 168.046C302.709 170.114 301.076 171.883 299.131 171.899C297.186 171.93 295.523 170.193 295.508 168.125C295.479 166.056 297.112 164.288 299.057 164.272Z" fill="#E31E24"/>
<path d="M252.062 280.801C254.007 280.817 255.64 282.585 255.625 284.654C255.61 286.722 253.947 288.459 252.002 288.443C250.057 288.428 248.424 286.659 248.439 284.591C248.454 282.522 250.117 280.785 252.062 280.801Z" fill="#E31E24"/>
<path d="M267.742 264.131C269.687 264.131 271.32 265.899 271.32 267.968C271.32 270.037 269.657 271.774 267.713 271.774C265.768 271.774 264.134 270.005 264.134 267.936C264.134 265.868 265.797 264.115 267.742 264.131Z" fill="#E31E24"/>
<path d="M33.0226 181.011C34.923 180.963 36.571 182.621 36.6304 184.674C36.7046 186.743 35.0715 188.527 33.1117 188.543C31.1964 188.559 29.5781 186.885 29.5484 184.832C29.5187 182.795 31.0777 181.074 33.0226 181.011Z" fill="#E31E24"/>
<path d="M80.1085 280.87C82.0238 280.838 83.6421 282.528 83.6866 284.58C83.7312 286.649 82.0832 288.417 80.1234 288.402C78.1933 288.402 76.6046 286.68 76.6046 284.644C76.6046 282.607 78.1933 280.885 80.1085 280.87Z" fill="#E31E24"/>
<path d="M33.0992 164.332C35.0145 164.332 36.618 166.038 36.6328 168.074C36.6328 170.159 34.9848 171.912 33.0399 171.864C31.1098 171.817 29.536 170.096 29.5508 168.059C29.5805 166.006 31.184 164.316 33.0992 164.332Z" fill="#E31E24"/>
<path d="M252.141 72.0052C250.196 72.0841 248.519 70.3472 248.504 68.2628C248.504 66.2258 250.078 64.5047 252.008 64.4731C253.923 64.4415 255.541 66.1153 255.601 68.1681C255.645 70.1893 254.086 71.942 252.156 72.0052H252.141Z" fill="#E31E24"/>
<path d="M80.2421 72.2124C78.2971 72.2755 76.6194 70.5544 76.6046 68.4542C76.6046 66.4172 78.1784 64.6961 80.1085 64.6645C82.0237 64.6329 83.642 66.3067 83.6866 68.3595C83.7311 70.3965 82.1722 72.1334 80.2272 72.1966L80.2421 72.2124Z" fill="#E31E24"/>
<path d="M173.788 38.8584C171.858 38.8268 170.269 37.1215 170.284 35.0687C170.284 33.0159 171.888 31.3263 173.818 31.3105C175.778 31.3105 177.411 33.0791 177.366 35.1476C177.322 37.2004 175.703 38.8742 173.788 38.8426V38.8584Z" fill="#E31E24"/>
<path d="M158.184 38.8603C156.224 38.8919 154.576 37.1234 154.606 35.0548C154.635 33.002 156.239 31.3124 158.154 31.3282C160.084 31.3282 161.673 33.0336 161.688 35.0864C161.688 37.1234 160.114 38.8445 158.184 38.8603Z" fill="#E31E24"/>
<path d="M267.74 88.6806C265.825 88.6964 264.206 87.0068 264.177 84.9699C264.147 82.9013 265.795 81.1328 267.755 81.1485C269.685 81.1643 271.273 82.8855 271.273 84.9225C271.273 86.9595 269.685 88.6648 267.755 88.6806H267.74Z" fill="#E31E24"/>
<path d="M64.4664 264.176C66.3965 264.176 67.9852 265.881 68 267.918C68 269.955 66.4262 271.676 64.4961 271.708C62.5363 271.74 60.8883 269.987 60.918 267.902C60.9477 265.85 62.5512 264.16 64.4664 264.176Z" fill="#E31E24"/>
<path d="M64.5358 88.601C62.5612 88.6326 61.0171 87.0378 60.9874 84.9534C60.9726 82.8533 62.4721 81.2269 64.4319 81.2111C66.362 81.2111 67.8764 82.7585 67.9209 84.7955C67.9654 86.8956 66.4807 88.5537 64.5209 88.5852L64.5358 88.601Z" fill="#E31E24"/>
<path d="M299.095 197.76C301.025 197.76 302.525 199.355 302.554 201.392C302.584 203.492 301.084 205.134 299.11 205.15C297.135 205.166 295.606 203.555 295.606 201.471C295.606 199.386 297.12 197.76 299.095 197.76Z" fill="#E31E24"/>
<path d="M142.689 314.074C144.619 314.074 146.118 315.653 146.148 317.706C146.178 319.806 144.678 321.448 142.718 321.464C140.744 321.48 139.215 319.869 139.2 317.785C139.2 315.701 140.714 314.074 142.689 314.074Z" fill="#E31E24"/>
<path d="M189.548 314.074C191.507 314.09 193.007 315.732 192.992 317.832C192.962 319.869 191.463 321.449 189.533 321.464C187.573 321.464 186.044 319.854 186.044 317.754C186.044 315.669 187.588 314.059 189.548 314.074Z" fill="#E31E24"/>
<path d="M189.486 38.7504C187.571 38.7504 186.071 37.124 186.086 35.0712C186.086 33.0342 187.615 31.4394 189.545 31.4552C191.461 31.4552 192.96 33.0816 192.945 35.1344C192.945 37.1714 191.416 38.7662 189.486 38.7504Z" fill="#E31E24"/>
<path d="M33.0719 197.793C35.002 197.793 36.5164 199.372 36.5312 201.425C36.5312 203.478 35.0466 205.088 33.1165 205.104C31.1864 205.104 29.672 203.525 29.6571 201.472C29.6571 199.419 31.1418 197.809 33.0719 197.793Z" fill="#E31E24"/>
<path d="M299.101 155.061C297.171 155.061 295.656 153.482 295.642 151.429C295.642 149.376 297.126 147.766 299.056 147.75C300.986 147.75 302.501 149.329 302.516 151.382C302.516 153.435 301.031 155.045 299.101 155.061Z" fill="#E31E24"/>
<path d="M283.405 247.643C285.261 247.643 286.805 249.269 286.82 251.243C286.835 253.248 285.261 254.922 283.361 254.89C281.505 254.859 279.991 253.217 280.005 251.243C280.005 249.269 281.564 247.643 283.405 247.643Z" fill="#E31E24"/>
<path d="M236.539 297.463C238.395 297.447 239.954 299.058 239.984 301.032C240.014 303.037 238.455 304.727 236.554 304.711C234.698 304.711 233.169 303.069 233.169 301.095C233.169 299.121 234.698 297.479 236.539 297.463Z" fill="#E31E24"/>
<path d="M33.0999 155.256C31.2441 155.256 29.7 153.63 29.6852 151.656C29.6703 149.682 31.1847 148.04 33.0406 148.008C34.9261 147.977 36.5147 149.65 36.4999 151.656C36.4999 153.63 34.941 155.256 33.0999 155.256Z" fill="#E31E24"/>
<path d="M142.611 38.7187C140.755 38.6871 139.241 37.0291 139.256 35.0553C139.27 33.0815 140.815 31.455 142.67 31.4708C144.526 31.4708 146.055 33.113 146.07 35.0711C146.07 37.0765 144.497 38.7502 142.596 38.7187H142.611Z" fill="#E31E24"/>
<path d="M48.7844 247.693C50.5808 247.693 52.1101 249.272 52.1546 251.199C52.214 253.125 50.6699 254.831 48.8437 254.862C47.0176 254.91 45.4438 253.267 45.4141 251.309C45.3993 249.367 46.9434 247.693 48.7844 247.693Z" fill="#E31E24"/>
<path d="M95.8101 297.512C97.6363 297.512 99.2101 299.17 99.1952 301.112C99.1952 303.023 97.6957 304.633 95.8844 304.681C94.0582 304.728 92.4696 303.086 92.4547 301.128C92.425 299.186 93.9691 297.512 95.8101 297.496V297.512Z" fill="#E31E24"/>
<path d="M236.342 55.3601C234.501 55.3601 232.957 53.6705 232.987 51.7283C233.017 49.7703 234.605 48.1281 236.431 48.1912C238.243 48.2386 239.727 49.865 239.742 51.7757C239.742 53.7179 238.183 55.3759 236.357 55.3759L236.342 55.3601Z" fill="#E31E24"/>
<path d="M283.411 105.181C281.585 105.181 280.026 103.507 280.041 101.565C280.056 99.6544 281.555 98.0437 283.366 98.0122C285.193 97.9806 286.766 99.6228 286.781 101.565C286.796 103.507 285.237 105.181 283.411 105.181Z" fill="#E31E24"/>
<path d="M48.8961 105.101C47.0848 105.164 45.5853 103.727 45.4813 101.801C45.3774 99.8272 46.7433 98.185 48.5992 98.0903C50.455 97.9955 51.9843 99.464 52.0585 101.438C52.1476 103.412 50.7371 105.022 48.8813 105.101H48.8961Z" fill="#E31E24"/>
<path d="M298.89 214.406C300.746 214.296 302.275 215.764 302.379 217.738C302.468 219.712 301.072 221.338 299.216 221.417C297.361 221.496 295.846 219.996 295.772 218.022C295.713 216.096 297.064 214.517 298.89 214.406Z" fill="#E31E24"/>
<path d="M95.7993 55.2864C93.9434 55.3812 92.4142 53.9127 92.3399 51.9388C92.2508 49.965 93.6613 48.3544 95.5172 48.2754C97.3285 48.2123 98.828 49.6492 98.9319 51.5757C99.0359 53.5495 97.67 55.1917 95.8141 55.2864H95.7993Z" fill="#E31E24"/>
<path d="M205.015 314.265C206.871 314.155 208.4 315.623 208.504 317.597C208.593 319.571 207.197 321.198 205.341 321.276C203.486 321.355 201.971 319.855 201.897 317.882C201.838 315.955 203.189 314.376 205.015 314.265Z" fill="#E31E24"/>
<path d="M33.011 214.673C34.8817 214.626 36.3367 216.141 36.3516 218.115C36.3516 220.058 34.956 221.573 33.1447 221.589C31.3185 221.605 29.8783 220.121 29.8635 218.21C29.8338 216.268 31.2146 214.72 33.0259 214.689L33.011 214.673Z" fill="#E31E24"/>
<path d="M299.077 138.186C297.266 138.186 295.841 136.686 295.841 134.744C295.841 132.801 297.236 131.285 299.048 131.27C300.904 131.254 302.344 132.77 302.344 134.759C302.344 136.686 300.904 138.186 299.092 138.186H299.077Z" fill="#E31E24"/>
<path d="M205.156 38.5471C203.345 38.5313 201.949 37.0154 201.949 35.0732C201.949 33.1467 203.374 31.6466 205.186 31.6309C207.041 31.6309 208.467 33.1625 208.437 35.1521C208.407 37.0786 206.982 38.5471 205.156 38.5313V38.5471Z" fill="#E31E24"/>
<path d="M126.915 314.313C128.741 314.281 130.196 315.75 130.226 317.66C130.27 319.65 128.86 321.197 127.004 321.213C125.178 321.213 123.752 319.729 123.737 317.802C123.723 315.86 125.103 314.328 126.915 314.297V314.313Z" fill="#E31E24"/>
<path d="M127.144 38.5122C125.347 38.5911 123.833 37.1068 123.773 35.1962C123.729 33.3171 125.095 31.7538 126.832 31.6749C128.628 31.5959 130.143 33.0802 130.202 34.9909C130.247 36.87 128.881 38.4332 127.144 38.5122Z" fill="#E31E24"/>
<path d="M33.1797 138.375C31.3832 138.423 29.8985 136.891 29.8837 134.996C29.8688 133.133 31.2644 131.586 33.0164 131.538C34.8128 131.491 36.2975 133.022 36.3124 134.917C36.3272 136.781 34.9316 138.328 33.1797 138.375Z" fill="#E31E24"/>
<path d="M299.049 231.381C300.712 231.381 302.063 232.755 302.093 234.507C302.137 236.307 300.801 237.792 299.108 237.808C297.446 237.808 296.095 236.434 296.065 234.681C296.02 232.881 297.357 231.397 299.049 231.381Z" fill="#E31E24"/>
<path d="M267.683 281.197C269.345 281.182 270.697 282.555 270.741 284.308C270.786 286.108 269.449 287.593 267.757 287.608C266.094 287.624 264.743 286.25 264.698 284.498C264.654 282.697 265.99 281.213 267.683 281.197Z" fill="#E31E24"/>
<path d="M111.298 314.562C112.991 314.562 114.342 316.015 114.312 317.831C114.282 319.584 112.946 320.989 111.298 320.989C109.606 320.989 108.254 319.537 108.284 317.721C108.314 315.968 109.65 314.562 111.298 314.562Z" fill="#E31E24"/>
<path d="M220.876 314.562C222.569 314.562 223.92 316.015 223.89 317.831C223.86 319.584 222.524 320.989 220.876 320.989C219.184 320.989 217.833 319.537 217.862 317.721C217.892 315.968 219.228 314.562 220.876 314.562Z" fill="#E31E24"/>
<path d="M33.0864 231.426C34.7196 231.426 36.1152 232.91 36.0855 234.647C36.0558 236.337 34.7047 237.774 33.1161 237.789C31.4829 237.789 30.0873 236.305 30.117 234.568C30.1467 232.879 31.4978 231.442 33.0864 231.426Z" fill="#E31E24"/>
<path d="M64.5134 281.45C66.1169 281.481 67.4531 282.934 67.4531 284.624C67.4531 286.361 66.0427 287.829 64.4243 287.797C62.8209 287.766 61.4847 286.313 61.4847 284.624C61.4847 282.887 62.8951 281.418 64.5134 281.45Z" fill="#E31E24"/>
<path d="M220.935 38.2779C219.317 38.3094 217.907 36.8409 217.892 35.104C217.892 33.4144 219.228 31.9616 220.831 31.9301C222.45 31.8985 223.86 33.367 223.875 35.104C223.875 36.7935 222.539 38.2463 220.935 38.2779Z" fill="#E31E24"/>
<path d="M299.1 121.442C297.511 121.442 296.145 120.036 296.101 118.331C296.056 116.61 297.437 115.094 299.07 115.094C300.659 115.094 302.025 116.499 302.069 118.204C302.114 119.926 300.733 121.442 299.1 121.442Z" fill="#E31E24"/>
<path d="M267.756 71.4051C266.137 71.4367 264.727 69.9524 264.727 68.2154C264.727 66.5258 266.078 65.0731 267.667 65.0415C269.285 65.0099 270.695 66.4942 270.695 68.2312C270.695 69.9208 269.344 71.3735 267.756 71.4051Z" fill="#E31E24"/>
<path d="M283.431 264.842C285.049 264.874 286.356 266.295 286.311 268.016C286.267 269.705 284.99 271.048 283.401 271.048C281.783 271.048 280.462 269.642 280.477 267.937C280.477 266.216 281.813 264.826 283.431 264.842Z" fill="#E31E24"/>
<path d="M111.302 38.199C109.683 38.199 108.377 36.7779 108.392 35.0567C108.421 33.3356 109.758 31.946 111.376 31.9934C112.965 32.0407 114.227 33.3987 114.227 35.0883C114.227 36.8095 112.905 38.2148 111.302 38.199Z" fill="#E31E24"/>
<path d="M33.1342 121.385C31.5159 121.417 30.1797 120.012 30.1797 118.291C30.1797 116.569 31.5011 115.164 33.1045 115.18C34.6931 115.18 35.97 116.538 36.0145 118.212C36.0591 119.933 34.7525 121.354 33.1342 121.385Z" fill="#E31E24"/>
<path d="M64.4864 71.5632C62.8681 71.579 61.5467 70.1895 61.5319 68.4683C61.5319 66.7471 62.8532 65.3418 64.4716 65.3576C66.0899 65.3576 67.3964 66.7945 67.3667 68.5157C67.337 70.2052 66.0602 71.5474 64.4864 71.579V71.5632Z" fill="#E31E24"/>
<path d="M252.05 297.985C253.638 297.985 254.915 299.342 254.96 301.016C255.004 302.737 253.698 304.159 252.08 304.19C250.461 304.222 249.125 302.816 249.125 301.095C249.125 299.374 250.446 297.969 252.05 297.985Z" fill="#E31E24"/>
<path d="M80.0475 297.985C81.6509 297.921 83.0168 299.295 83.0614 301.016C83.1059 302.737 81.8142 304.159 80.1811 304.19C78.5628 304.222 77.2266 302.832 77.2117 301.111C77.2117 299.437 78.444 298.048 80.0326 297.985H80.0475Z" fill="#E31E24"/>
<path d="M283.377 87.9405C281.773 87.9405 280.541 86.5983 280.556 84.8929C280.556 83.1875 281.818 81.8769 283.421 81.8927C285.025 81.8927 286.257 83.2349 286.242 84.9403C286.242 86.6457 284.98 87.9563 283.377 87.9405Z" fill="#E31E24"/>
<path d="M48.8411 87.9351C47.2227 87.9666 45.9608 86.6718 45.9459 84.9664C45.9162 83.2453 47.1337 81.9031 48.7371 81.8873C50.3555 81.8557 51.6174 83.1505 51.6323 84.8559C51.662 86.5771 50.4445 87.9193 48.8411 87.9351Z" fill="#E31E24"/>
<path d="M252.047 54.8114C250.444 54.8114 249.196 53.5008 249.196 51.7955C249.196 50.0901 250.429 48.7637 252.032 48.7637C253.636 48.7637 254.883 50.0743 254.883 51.7797C254.883 53.485 253.651 54.8114 252.047 54.8114Z" fill="#E31E24"/>
<path d="M48.8118 264.918C50.4152 264.918 51.6475 266.26 51.6327 267.966C51.6327 269.671 50.3707 270.982 48.7672 270.966C47.1638 270.966 45.9315 269.624 45.9463 267.918C45.9463 266.213 47.2083 264.902 48.8118 264.918Z" fill="#E31E24"/>
<path d="M80.0891 54.8098C78.4856 54.794 77.2682 53.4518 77.283 51.7306C77.2979 50.0253 78.5599 48.7304 80.1782 48.7462C81.7816 48.762 82.9991 50.1042 82.9842 51.8254C82.9694 53.5308 81.7074 54.8256 80.0891 54.8098Z" fill="#E31E24"/>
<path d="M158.291 331.585C159.791 331.553 160.993 332.769 161.038 334.348C161.082 335.943 159.954 337.238 158.454 337.301C156.955 337.364 155.723 336.18 155.663 334.585C155.589 332.943 156.747 331.616 158.291 331.585Z" fill="#E31E24"/>
<path d="M314.601 170.949C313.072 170.949 311.854 169.67 311.884 168.043C311.914 166.448 313.101 165.217 314.601 165.233C316.101 165.233 317.259 166.496 317.273 168.091C317.273 169.685 316.115 170.933 314.616 170.949H314.601Z" fill="#E31E24"/>
<path d="M174.002 331.584C175.502 331.568 176.689 332.784 176.734 334.379C176.764 336.021 175.576 337.316 174.032 337.3C172.532 337.3 171.359 336.053 171.359 334.458C171.359 332.863 172.517 331.6 174.002 331.584Z" fill="#E31E24"/>
<path d="M17.6024 181.91C19.102 181.91 20.2897 183.142 20.3046 184.737C20.3194 186.363 19.1168 187.658 17.5727 187.627C16.0732 187.611 14.9151 186.348 14.93 184.753C14.93 183.158 16.1029 181.91 17.6024 181.91Z" fill="#E31E24"/>
<path d="M314.525 181.91C316.025 181.895 317.213 183.11 317.257 184.705C317.287 186.347 316.099 187.642 314.555 187.626C313.056 187.626 311.883 186.379 311.883 184.784C311.883 183.189 313.041 181.926 314.525 181.91Z" fill="#E31E24"/>
<path d="M189.453 331.645C190.953 331.614 192.141 332.829 192.141 334.424C192.141 335.972 191.027 337.203 189.572 337.235C188.073 337.267 186.885 336.051 186.885 334.456C186.885 332.908 187.998 331.677 189.453 331.645Z" fill="#E31E24"/>
<path d="M299.053 248.482C300.553 248.482 301.726 249.714 301.711 251.309C301.711 252.856 300.553 254.072 299.098 254.072C297.598 254.072 296.425 252.841 296.44 251.246C296.44 249.698 297.598 248.482 299.053 248.482Z" fill="#E31E24"/>
<path d="M158.183 21.2072C156.684 21.223 155.511 19.9913 155.511 18.3965C155.511 16.849 156.654 15.6331 158.109 15.6173C159.608 15.6015 160.781 16.8332 160.781 18.4281C160.781 19.9755 159.638 21.1914 158.183 21.2072Z" fill="#E31E24"/>
<path d="M17.5697 170.887C16.1147 170.872 14.9864 169.64 14.9864 168.092C14.9864 166.498 16.1593 165.266 17.6588 165.297C19.1138 165.313 20.2422 166.545 20.2422 168.092C20.2422 169.687 19.0693 170.919 17.5697 170.887Z" fill="#E31E24"/>
<path d="M173.876 21.2074C172.406 21.2231 171.248 20.0546 171.204 18.5072C171.159 16.8965 172.303 15.6333 173.787 15.6017C175.257 15.5859 176.415 16.7544 176.46 18.3019C176.504 19.9125 175.361 21.1758 173.876 21.2074Z" fill="#E31E24"/>
<path d="M314.597 154.211C313.097 154.211 311.925 152.979 311.939 151.385C311.939 149.837 313.083 148.621 314.538 148.605C316.037 148.605 317.21 149.837 317.195 151.432C317.195 152.979 316.052 154.195 314.597 154.211Z" fill="#E31E24"/>
<path d="M95.7737 314.975C97.2732 314.944 98.4609 316.175 98.4609 317.77C98.4609 319.318 97.3326 320.549 95.8776 320.565C94.3781 320.597 93.1903 319.365 93.1903 317.77C93.1903 316.223 94.3187 314.991 95.7737 314.975Z" fill="#E31E24"/>
<path d="M142.623 331.651C144.093 331.635 145.251 332.819 145.296 334.351C145.34 335.946 144.197 337.225 142.697 337.24C141.228 337.256 140.07 336.072 140.025 334.54C139.98 332.945 141.124 331.666 142.623 331.651Z" fill="#E31E24"/>
<path d="M314.552 198.645C316.052 198.645 317.21 199.892 317.195 201.487C317.18 203.034 316.022 204.234 314.567 204.234C313.068 204.234 311.91 202.987 311.925 201.392C311.939 199.845 313.097 198.645 314.552 198.645Z" fill="#E31E24"/>
<path d="M236.493 314.975C237.993 314.944 239.195 316.16 239.195 317.739C239.195 319.286 238.082 320.533 236.642 320.565C235.142 320.597 233.94 319.381 233.94 317.802C233.94 316.254 235.053 315.007 236.493 314.975Z" fill="#E31E24"/>
<path d="M33.0448 248.514C34.4701 248.483 35.6875 249.762 35.6875 251.278C35.6875 252.746 34.5295 254.009 33.1487 254.041C31.7234 254.073 30.5059 252.793 30.5059 251.278C30.5059 249.809 31.664 248.546 33.0448 248.514Z" fill="#E31E24"/>
<path d="M17.6352 154.386C16.2099 154.386 15.0074 153.107 15.0222 151.591C15.0371 150.107 16.21 148.875 17.6056 148.859C19.0309 148.859 20.2335 150.138 20.2186 151.654C20.2038 153.139 19.0309 154.37 17.6352 154.386Z" fill="#E31E24"/>
<path d="M17.6502 198.694C19.0459 198.71 20.2039 199.957 20.2188 201.426C20.2188 202.942 19.0161 204.236 17.5908 204.205C16.1952 204.189 15.0372 202.942 15.0223 201.473C15.0223 199.957 16.2249 198.662 17.6502 198.694Z" fill="#E31E24"/>
<path d="M236.354 37.8488C234.959 37.8488 233.786 36.6171 233.756 35.1486C233.726 33.6327 234.929 32.3379 236.354 32.3379C237.735 32.3379 238.923 33.5696 238.953 35.0381C238.982 36.554 237.78 37.8488 236.354 37.8488Z" fill="#E31E24"/>
<path d="M189.569 21.1757C188.188 21.2073 186.986 20.0072 186.926 18.5229C186.867 17.007 188.04 15.6806 189.48 15.649C190.861 15.6175 192.063 16.8175 192.123 18.3019C192.182 19.8177 191.009 21.1441 189.569 21.1757Z" fill="#E31E24"/>
<path d="M299.214 104.36C297.803 104.439 296.541 103.207 296.482 101.692C296.437 100.223 297.551 98.9283 298.947 98.8493C300.357 98.7703 301.619 100.002 301.678 101.518C301.723 102.986 300.609 104.281 299.214 104.36Z" fill="#E31E24"/>
<path d="M142.71 21.1757C141.329 21.2073 140.126 20.0072 140.067 18.5229C140.008 17.007 141.181 15.6806 142.621 15.649C144.001 15.6175 145.204 16.8175 145.263 18.3019C145.323 19.8177 144.15 21.1441 142.71 21.1757Z" fill="#E31E24"/>
<path d="M95.6317 37.7851C94.2361 37.7851 93.0632 36.5219 93.0929 35.0376C93.1226 33.5848 94.2658 32.4006 95.6169 32.3848C97.0125 32.3848 98.1854 33.648 98.1557 35.1323C98.126 36.585 96.9828 37.7693 95.6317 37.7851Z" fill="#E31E24"/>
<path d="M33.1012 104.281C31.7502 104.281 30.607 103.097 30.5624 101.644C30.5327 100.16 31.7056 98.8965 33.1012 98.8965C34.4523 98.8965 35.5955 100.081 35.6401 101.534C35.6698 103.018 34.4969 104.281 33.1012 104.281Z" fill="#E31E24"/>
<path d="M205.199 331.854C206.594 331.854 207.648 332.99 207.648 334.491C207.648 335.927 206.609 337.049 205.243 337.064C203.833 337.08 202.764 335.975 202.749 334.491C202.749 332.99 203.803 331.869 205.199 331.869V331.854Z" fill="#E31E24"/>
<path d="M205.203 20.9712C203.881 20.9712 202.768 19.8185 202.783 18.3974C202.783 17.0394 203.837 15.8867 205.114 15.8393C206.435 15.7919 207.563 16.9446 207.593 18.35C207.623 19.7554 206.524 20.9396 205.203 20.9554V20.9712Z" fill="#E31E24"/>
<path d="M314.614 137.298C313.292 137.329 312.164 136.177 312.149 134.771C312.134 133.366 313.233 132.182 314.554 132.182C315.831 132.182 316.915 133.303 316.96 134.661C317.004 136.066 315.935 137.266 314.599 137.298H314.614Z" fill="#E31E24"/>
<path d="M126.976 331.885C128.253 331.885 129.337 332.99 129.381 334.364C129.426 335.769 128.357 336.969 127.036 337.001C125.714 337.032 124.586 335.88 124.571 334.474C124.556 333.069 125.655 331.885 126.976 331.885Z" fill="#E31E24"/>
<path d="M314.75 215.352C316.027 215.352 317.126 216.457 317.171 217.815C317.215 219.22 316.146 220.436 314.825 220.468C313.503 220.499 312.375 219.362 312.345 217.957C312.316 216.552 313.414 215.367 314.736 215.352H314.75Z" fill="#E31E24"/>
<path d="M17.6104 137.505C16.2891 137.505 15.1904 136.321 15.2052 134.916C15.2052 133.51 16.3336 132.358 17.655 132.389C18.9318 132.421 20.0008 133.558 20.0156 134.916C20.0156 136.321 18.9318 137.505 17.6104 137.505Z" fill="#E31E24"/>
<path d="M17.6548 215.573C18.9317 215.604 20.0006 216.726 20.0155 218.099C20.0303 219.505 18.9465 220.689 17.6103 220.689C16.2889 220.689 15.1902 219.521 15.1902 218.115C15.1902 216.71 16.3186 215.541 17.64 215.573H17.6548Z" fill="#E31E24"/>
<path d="M267.784 298.6C269.031 298.647 270.055 299.768 270.07 301.094C270.07 302.452 268.972 303.621 267.71 303.605C266.433 303.605 265.349 302.405 265.379 301.063C265.408 299.705 266.537 298.568 267.799 298.615L267.784 298.6Z" fill="#E31E24"/>
<path d="M283.307 281.926C284.569 281.847 285.712 282.968 285.756 284.342C285.801 285.684 284.747 286.884 283.455 286.931C282.223 286.963 281.139 285.905 281.05 284.563C280.961 283.221 282 282.005 283.292 281.926H283.307Z" fill="#E31E24"/>
<path d="M127.018 20.9241C125.741 20.9557 124.642 19.7872 124.627 18.4292C124.627 17.1186 125.637 15.9817 126.884 15.9185C128.146 15.8554 129.274 16.9923 129.319 18.3503C129.364 19.6925 128.28 20.8925 127.003 20.9083L127.018 20.9241Z" fill="#E31E24"/>
<path d="M48.6898 282.226C49.9518 282.179 50.9614 283.158 51.0208 284.484C51.0801 285.874 50.1448 286.979 48.8531 287.027C47.5911 287.074 46.5815 286.095 46.5222 284.769C46.4628 283.379 47.3981 282.274 48.6898 282.226Z" fill="#E31E24"/>
<path d="M48.8714 70.8527C47.5649 70.9 46.5553 69.8737 46.5405 68.4841C46.5405 67.1419 47.461 66.0997 48.7081 66.0524C50.0146 66.005 51.0242 67.0314 51.0391 68.4209C51.0391 69.7631 50.1186 70.8053 48.8714 70.8527Z" fill="#E31E24"/>
<path d="M283.496 70.6299C282.19 70.6772 281.165 69.6508 281.15 68.2771C281.136 66.9349 282.071 65.8769 283.318 65.8453C284.625 65.798 285.649 66.8243 285.664 68.1981C285.679 69.5403 284.743 70.5983 283.496 70.6299Z" fill="#E31E24"/>
<path d="M267.726 54.1634C266.464 54.1634 265.499 53.1528 265.469 51.8264C265.44 50.4369 266.42 49.3789 267.711 49.3789C268.973 49.3789 269.938 50.3895 269.968 51.7159C269.998 53.1055 269.018 54.1634 267.726 54.1634Z" fill="#E31E24"/>
<path d="M64.4614 298.916C65.7233 298.916 66.7032 299.911 66.7181 301.253C66.7478 302.643 65.7679 303.701 64.4762 303.716C63.2142 303.716 62.2343 302.722 62.2195 301.379C62.1898 299.99 63.1697 298.916 64.4614 298.916Z" fill="#E31E24"/>
<path d="M64.4762 54.1597C63.2142 54.1597 62.2343 53.1649 62.2046 51.8227C62.1749 50.4331 63.14 49.3594 64.4465 49.3594C65.7085 49.3594 66.6884 50.3542 66.7181 51.6964C66.7478 53.0859 65.7827 54.1597 64.4762 54.1597Z" fill="#E31E24"/>
<path d="M299.177 87.1969C298.019 87.26 296.965 86.2179 296.935 84.9704C296.905 83.7703 297.841 82.7124 298.984 82.6492C300.142 82.5861 301.196 83.6282 301.226 84.8757C301.256 86.0758 300.32 87.1337 299.177 87.1969Z" fill="#E31E24"/>
<path d="M220.9 332.172C222.043 332.188 223.008 333.214 223.023 334.43C223.038 335.678 222.029 336.751 220.856 336.736C219.712 336.72 218.747 335.693 218.733 334.477C218.718 333.23 219.727 332.156 220.9 332.172Z" fill="#E31E24"/>
<path d="M111.299 332.172C112.427 332.172 113.407 333.182 113.437 334.398C113.467 335.646 112.472 336.735 111.299 336.735C110.171 336.735 109.191 335.725 109.161 334.509C109.131 333.261 110.126 332.172 111.299 332.172Z" fill="#E31E24"/>
<path d="M298.984 265.677C300.142 265.613 301.196 266.656 301.226 267.903C301.256 269.103 300.32 270.161 299.177 270.24C298.019 270.303 296.965 269.261 296.935 268.014C296.905 266.813 297.841 265.756 298.984 265.677Z" fill="#E31E24"/>
<path d="M314.701 232.31C315.859 232.263 316.898 233.336 316.898 234.584C316.898 235.784 315.948 236.826 314.82 236.874C313.662 236.921 312.623 235.847 312.623 234.6C312.623 233.4 313.573 232.357 314.701 232.31Z" fill="#E31E24"/>
<path d="M80.0908 315.499C81.2637 315.467 82.2881 316.541 82.2733 317.788C82.2733 318.988 81.3082 320.031 80.1799 320.062C79.007 320.094 77.9825 319.02 77.9974 317.773C77.9974 316.572 78.9624 315.53 80.0908 315.499Z" fill="#E31E24"/>
<path d="M314.632 120.545C313.474 120.593 312.435 119.519 312.435 118.272C312.435 117.072 313.385 116.029 314.514 115.982C315.672 115.935 316.711 117.008 316.711 118.256C316.711 119.456 315.761 120.498 314.632 120.545Z" fill="#E31E24"/>
<path d="M252.041 315.498C253.169 315.498 254.149 316.525 254.179 317.725C254.209 318.972 253.199 320.062 252.026 320.046C250.898 320.046 249.918 319.02 249.888 317.819C249.859 316.572 250.868 315.482 252.041 315.498Z" fill="#E31E24"/>
<path d="M33.1736 87.0846C31.971 87.1162 31.0653 86.1845 31.0653 84.9055C31.0653 83.6738 31.9265 82.7422 33.0845 82.7422C34.2426 82.7422 35.1334 83.6422 35.1482 84.8581C35.1631 86.0898 34.3317 87.053 33.1736 87.0846Z" fill="#E31E24"/>
<path d="M220.976 20.5928C219.774 20.6401 218.853 19.7085 218.838 18.4295C218.838 17.1978 219.684 16.2662 220.843 16.2346C222.001 16.2188 222.891 17.1188 222.921 18.3347C222.951 19.5664 222.119 20.5296 220.961 20.577L220.976 20.5928Z" fill="#E31E24"/>
<path d="M111.243 20.5924C110.1 20.5608 109.254 19.6134 109.269 18.3817C109.284 17.1501 110.174 16.25 111.332 16.25C112.49 16.25 113.352 17.1816 113.352 18.4133C113.352 19.6923 112.446 20.624 111.243 20.5924Z" fill="#E31E24"/>
<path d="M17.6206 120.449C16.4626 120.449 15.5866 119.533 15.5718 118.301C15.5718 117.07 16.4032 116.122 17.5613 116.091C18.7193 116.059 19.625 116.959 19.6547 118.175C19.6992 119.454 18.8084 120.433 17.6206 120.433V120.449Z" fill="#E31E24"/>
<path d="M33.0392 265.772C34.2418 265.741 35.1475 266.688 35.1326 267.967C35.1326 269.199 34.2418 270.115 33.0986 270.115C31.9405 270.115 31.0646 269.199 31.0497 267.967C31.0497 266.735 31.8812 265.788 33.0392 265.772Z" fill="#E31E24"/>
<path d="M17.5994 232.42C18.7575 232.42 19.6334 233.32 19.6483 234.552C19.6631 235.831 18.7723 236.778 17.5697 236.762C16.4116 236.747 15.5654 235.815 15.5654 234.568C15.5654 233.336 16.4413 232.42 17.5994 232.404V232.42Z" fill="#E31E24"/>
<path d="M252.022 37.2645C250.864 37.2645 250.003 36.3328 250.003 35.1012C250.003 33.8695 250.864 32.9379 252.007 32.9221C253.21 32.9063 254.101 33.8537 254.086 35.1327C254.071 36.3644 253.18 37.2645 252.022 37.2645Z" fill="#E31E24"/>
<path d="M80.2549 37.2651C79.0969 37.3124 78.1764 36.444 78.1021 35.2281C78.0427 33.9491 78.889 32.9385 80.0768 32.9227C81.2348 32.8911 82.1405 33.7912 82.1702 35.007C82.2147 36.2387 81.3833 37.2177 80.2401 37.2651H80.2549Z" fill="#E31E24"/>
<path d="M314.579 103.461C313.659 103.461 312.842 102.624 312.813 101.645C312.783 100.666 313.57 99.7817 314.49 99.7344C315.396 99.687 316.257 100.508 316.302 101.503C316.361 102.514 315.53 103.445 314.565 103.461H314.579Z" fill="#E31E24"/>
<path d="M174.013 349.273C174.978 349.273 175.824 350.189 175.78 351.2C175.735 352.179 174.904 353.016 173.998 353C173.077 352.984 172.276 352.1 172.276 351.121C172.276 350.142 173.092 349.273 174.013 349.273Z" fill="#E31E24"/>
<path d="M158.29 349.271C159.24 349.224 160.116 350.124 160.101 351.15C160.101 352.129 159.285 352.998 158.364 352.998C157.444 352.998 156.627 352.161 156.598 351.166C156.583 350.187 157.37 349.303 158.29 349.271Z" fill="#E31E24"/>
<path d="M330.218 182.903C331.138 182.887 331.97 183.724 331.999 184.703C332.029 185.713 331.183 186.645 330.218 186.629C329.297 186.629 328.495 185.745 328.495 184.766C328.495 183.787 329.297 182.918 330.218 182.903Z" fill="#E31E24"/>
<path d="M95.7878 332.579C96.7083 332.547 97.5397 333.384 97.5843 334.379C97.6288 335.39 96.7825 336.321 95.8175 336.306C94.897 336.306 94.0804 335.437 94.0804 334.458C94.0804 333.479 94.8673 332.611 95.7878 332.579Z" fill="#E31E24"/>
<path d="M236.568 332.582C237.489 332.582 238.305 333.435 238.32 334.414C238.335 335.44 237.474 336.34 236.524 336.309C235.603 336.277 234.801 335.393 234.816 334.414C234.831 333.435 235.648 332.582 236.568 332.582Z" fill="#E31E24"/>
<path d="M314.748 249.414C315.669 249.414 316.485 250.251 316.515 251.23C316.545 252.241 315.683 253.156 314.733 253.141C313.813 253.125 313.011 252.241 313.011 251.262C313.011 250.283 313.828 249.414 314.748 249.414Z" fill="#E31E24"/>
<path d="M330.17 166.229C331.076 166.181 331.937 167.002 331.981 167.997C332.041 169.008 331.209 169.955 330.244 169.955C329.324 169.955 328.507 169.118 328.478 168.139C328.448 167.16 329.235 166.276 330.155 166.229H330.17Z" fill="#E31E24"/>
<path d="M330.306 153.154C329.356 153.185 328.629 152.459 328.614 151.448C328.599 150.438 329.297 149.68 330.232 149.68C331.138 149.68 331.835 150.374 331.865 151.322C331.91 152.332 331.227 153.122 330.291 153.154H330.306Z" fill="#E31E24"/>
<path d="M283.316 299.36C284.266 299.312 285.008 300.039 285.038 301.033C285.068 302.044 284.385 302.818 283.435 302.834C282.484 302.849 281.772 302.107 281.772 301.112C281.772 300.149 282.425 299.407 283.316 299.375V299.36Z" fill="#E31E24"/>
<path d="M173.864 3.47392C172.914 3.48971 172.202 2.74755 172.202 1.75275C172.202 0.742155 172.899 0 173.85 0C174.755 0 175.438 0.710574 175.468 1.6738C175.498 2.68439 174.815 3.45813 173.864 3.47392Z" fill="#E31E24"/>
<path d="M158.156 3.47489C157.221 3.47489 156.508 2.71694 156.523 1.70635C156.523 0.711545 157.265 -0.0306098 158.2 0.000971242C159.091 0.0325523 159.774 0.758917 159.789 1.70635C159.789 2.71694 159.091 3.47489 158.156 3.47489Z" fill="#E31E24"/>
<path d="M189.59 349.396C190.48 349.427 191.148 350.169 191.148 351.117C191.148 352.127 190.436 352.87 189.5 352.854C188.565 352.854 187.867 352.08 187.882 351.069C187.897 350.075 188.639 349.348 189.59 349.38V349.396Z" fill="#E31E24"/>
<path d="M330.293 199.72C331.229 199.751 331.912 200.525 331.882 201.536C331.852 202.483 331.154 203.194 330.249 203.194C329.313 203.194 328.601 202.436 328.616 201.425C328.616 200.43 329.358 199.688 330.293 199.72Z" fill="#E31E24"/>
<path d="M17.7059 103.335C16.7557 103.383 16.0134 102.656 15.9837 101.662C15.954 100.651 16.6369 99.8774 17.5871 99.8616C18.5373 99.8458 19.25 100.588 19.25 101.583C19.25 102.546 18.5967 103.288 17.7059 103.335Z" fill="#E31E24"/>
<path d="M1.95958 169.828C1.00938 169.828 0.311577 169.086 0.311577 168.091C0.311577 167.096 1.03909 166.339 1.97444 166.37C2.8801 166.386 3.54819 167.112 3.57789 168.06C3.59273 169.07 2.90978 169.828 1.95958 169.844V169.828Z" fill="#E31E24"/>
<path d="M142.7 349.395C143.606 349.395 144.289 350.121 144.304 351.084C144.333 352.095 143.636 352.869 142.7 352.869C141.75 352.869 141.037 352.127 141.037 351.132C141.037 350.137 141.75 349.379 142.7 349.395Z" fill="#E31E24"/>
<path d="M17.5108 249.541C18.461 249.478 19.2034 250.204 19.2479 251.183C19.2925 252.194 18.6095 252.984 17.6742 252.999C16.724 253.031 15.9965 252.289 15.9816 251.294C15.9816 250.331 16.62 249.573 17.5108 249.525V249.541Z" fill="#E31E24"/>
<path d="M95.682 20.1496C94.7318 20.1812 94.0043 19.439 93.9894 18.4442C93.9894 17.481 94.6279 16.7231 95.5187 16.6757C96.4689 16.6125 97.2112 17.3389 97.2558 18.3179C97.3003 19.3285 96.6173 20.118 95.682 20.1338V20.1496Z" fill="#E31E24"/>
<path d="M236.36 20.1519C235.424 20.1519 234.712 19.3782 234.741 18.3834C234.756 17.4201 235.439 16.7096 236.33 16.678C237.28 16.6622 237.993 17.3886 238.008 18.3992C238.008 19.4097 237.31 20.1519 236.375 20.1519H236.36Z" fill="#E31E24"/>
<path d="M2.01922 183.028C2.91003 183.06 3.57812 183.802 3.57812 184.765C3.57812 185.76 2.86548 186.518 1.91528 186.502C0.979927 186.502 0.282121 185.713 0.311815 184.718C0.341509 183.723 1.06902 182.997 2.01922 183.028Z" fill="#E31E24"/>
<path d="M189.561 3.4109C188.759 3.44248 188.002 2.70033 187.958 1.84764C187.898 0.963367 188.641 0.110679 189.487 0.0790975C190.289 0.0475164 191.046 0.789671 191.09 1.64236C191.15 2.52663 190.407 3.37932 189.561 3.4109Z" fill="#E31E24"/>
<path d="M48.7847 299.643C49.5865 299.643 50.3288 300.385 50.3585 301.253C50.3882 302.137 49.6459 302.974 48.7996 302.99C47.9979 302.99 47.2555 302.248 47.2258 301.38C47.1961 300.495 47.9385 299.658 48.7847 299.643Z" fill="#E31E24"/>
<path d="M1.98561 153.298C1.13934 153.329 0.367306 152.524 0.367306 151.64C0.367306 150.787 1.07994 149.997 1.88167 149.966C2.72794 149.934 3.5 150.739 3.5 151.64C3.5 152.492 2.78734 153.282 1.98561 153.313V153.298Z" fill="#E31E24"/>
<path d="M283.409 53.4373C282.607 53.4373 281.865 52.6793 281.835 51.8266C281.806 50.9266 282.563 50.1055 283.394 50.1055C284.196 50.1055 284.938 50.8634 284.968 51.7161C284.998 52.6162 284.24 53.4373 283.409 53.4373Z" fill="#E31E24"/>
<path d="M48.8364 53.4354C48.005 53.4827 47.2181 52.6774 47.2032 51.7774C47.2032 50.9247 47.9011 50.1351 48.7028 50.1036C49.5342 50.0562 50.3211 50.8615 50.3359 51.7616C50.3359 52.6142 49.6381 53.4038 48.8364 53.4354Z" fill="#E31E24"/>
<path d="M142.744 3.41021C141.943 3.45758 141.185 2.74701 141.111 1.87853C141.037 0.994262 141.75 0.125783 142.596 0.0784111C143.398 0.0310395 144.155 0.741613 144.229 1.61009C144.303 2.49436 143.591 3.36284 142.744 3.41021Z" fill="#E31E24"/>
<path d="M267.729 316.111C268.531 316.111 269.259 316.869 269.288 317.738C269.318 318.638 268.561 319.459 267.714 319.459C266.913 319.459 266.185 318.701 266.156 317.832C266.126 316.932 266.883 316.111 267.729 316.111Z" fill="#E31E24"/>
<path d="M299.127 282.747C299.929 282.779 300.656 283.552 300.656 284.405C300.656 285.305 299.884 286.11 299.053 286.079C298.251 286.047 297.524 285.273 297.524 284.421C297.524 283.521 298.296 282.715 299.127 282.747Z" fill="#E31E24"/>
<path d="M1.90947 199.783C2.7112 199.783 3.45355 200.51 3.49809 201.378C3.54263 202.262 2.80028 203.115 1.954 203.115C1.15227 203.115 0.409941 202.389 0.3654 201.52C0.320859 200.636 1.06319 199.783 1.90947 199.783Z" fill="#E31E24"/>
<path d="M126.899 349.604C127.73 349.556 128.383 350.188 128.413 351.072C128.443 351.956 127.834 352.635 127.003 352.651C126.201 352.667 125.592 352.067 125.533 351.23C125.473 350.346 126.067 349.635 126.884 349.588L126.899 349.604Z" fill="#E31E24"/>
<path d="M205.221 349.604C206.053 349.604 206.661 350.283 206.632 351.183C206.617 352.067 205.964 352.698 205.132 352.667C204.345 352.635 203.766 351.988 203.766 351.151C203.766 350.267 204.39 349.604 205.221 349.619V349.604Z" fill="#E31E24"/>
<path d="M64.4721 316.238C65.2738 316.238 65.8677 316.854 65.8974 317.691C65.9271 318.575 65.3332 319.27 64.5018 319.302C63.6703 319.333 63.0319 318.686 63.0171 317.802C63.0171 316.917 63.6258 316.254 64.4572 316.254L64.4721 316.238Z" fill="#E31E24"/>
<path d="M330.172 216.393C331.004 216.346 331.657 216.977 331.686 217.862C331.716 218.746 331.107 219.425 330.276 219.441C329.445 219.456 328.806 218.809 328.806 217.925C328.806 217.072 329.37 216.44 330.157 216.393H330.172Z" fill="#E31E24"/>
<path d="M33.163 69.9852C32.3316 70.0168 31.6932 69.3694 31.6635 68.4851C31.6486 67.6009 32.2573 66.9219 33.0888 66.9219C33.8905 66.9219 34.4992 67.5219 34.5289 68.3588C34.5734 69.2431 33.9796 69.9379 33.1482 69.9694L33.163 69.9852Z" fill="#E31E24"/>
<path d="M33.3229 283.109C34.1246 283.125 34.7036 283.741 34.7333 284.594C34.763 285.478 34.1543 286.157 33.3229 286.173C32.4915 286.173 31.8679 285.525 31.8679 284.641C31.8679 283.757 32.4915 283.109 33.3377 283.125L33.3229 283.109Z" fill="#E31E24"/>
<path d="M299.084 69.7656C298.253 69.7656 297.644 69.0866 297.659 68.2024C297.674 67.3181 298.312 66.6707 299.158 66.7023C299.945 66.7339 300.524 67.3655 300.539 68.2024C300.539 69.0866 299.93 69.7498 299.099 69.7498L299.084 69.7656Z" fill="#E31E24"/>
<path d="M64.563 36.619C63.7316 36.6664 63.0635 36.0505 63.0338 35.1663C63.0041 34.282 63.5979 33.5872 64.4294 33.5714C65.2608 33.5398 65.8992 34.1872 65.9141 35.0715C65.9141 35.9242 65.3647 36.5716 64.5779 36.619H64.563Z" fill="#E31E24"/>
<path d="M267.767 36.6179C266.935 36.6495 266.297 36.0021 266.282 35.1178C266.282 34.2335 266.891 33.5703 267.722 33.5703C268.524 33.5703 269.118 34.1861 269.147 35.023C269.177 35.9073 268.583 36.6021 267.752 36.6337L267.767 36.6179Z" fill="#E31E24"/>
<path d="M1.95283 216.695C2.66548 216.695 3.28906 217.374 3.28906 218.132C3.28906 218.922 2.6061 219.632 1.86375 219.585C1.1511 219.538 0.542386 218.843 0.57208 218.101C0.601774 217.343 1.24019 216.695 1.93799 216.695H1.95283Z" fill="#E31E24"/>
<path d="M330.25 136.178C329.538 136.178 328.899 135.53 328.884 134.772C328.869 134.03 329.478 133.335 330.191 133.304C330.933 133.272 331.616 133.967 331.601 134.772C331.601 135.53 330.963 136.193 330.25 136.193V136.178Z" fill="#E31E24"/>
<path d="M1.93584 136.4C1.22319 136.4 0.599621 135.753 0.569927 134.995C0.555081 134.237 1.16379 133.558 1.87644 133.527C2.57424 133.495 3.24237 134.127 3.28691 134.885C3.33145 135.674 2.67818 136.416 1.93584 136.416V136.4Z" fill="#E31E24"/>
<path d="M126.932 3.17482C126.22 3.14324 125.611 2.46425 125.626 1.7063C125.626 0.948358 126.264 0.285156 126.977 0.285156C127.689 0.285156 128.313 0.948358 128.328 1.7063C128.343 2.49583 127.66 3.2064 126.917 3.17482H126.932Z" fill="#E31E24"/>
<path d="M205.218 3.17508C204.506 3.17508 203.867 2.54345 203.838 1.78551C203.808 0.995983 204.476 0.269619 205.218 0.285409C205.931 0.3012 206.555 0.980192 206.555 1.72235C206.555 2.48029 205.931 3.14349 205.218 3.15928V3.17508Z" fill="#E31E24"/>
<path d="M314.706 266.671C315.419 266.607 316.013 267.207 315.983 267.965C315.954 268.771 315.508 269.165 314.914 269.244C314.113 269.244 313.563 268.708 313.563 267.997C313.563 267.207 313.964 266.734 314.706 266.671Z" fill="#E31E24"/>
<path d="M17.5728 266.673C18.2855 266.625 18.8645 267.225 18.8348 267.983C18.7903 268.788 18.3449 269.183 17.6174 269.262C16.8899 269.183 16.4296 268.773 16.4148 267.983C16.4148 267.194 16.8305 266.736 17.5728 266.673Z" fill="#E31E24"/>
<path d="M252.136 19.7223C251.379 19.6907 250.889 19.3275 250.829 18.5222C250.77 17.7327 251.156 17.2431 251.898 17.1326C252.611 17.0221 253.234 17.6063 253.234 18.3485C253.234 19.1538 252.819 19.5801 252.121 19.7065L252.136 19.7223Z" fill="#E31E24"/>
<path d="M314.651 86.2029C313.938 86.2819 313.344 85.6818 313.359 84.9239C313.359 84.1186 313.804 83.708 314.517 83.6133C315.259 83.6764 315.734 84.0554 315.764 84.8607C315.794 85.6503 315.393 86.124 314.651 86.2187V86.2029Z" fill="#E31E24"/>
<path d="M252.258 333.15C252.985 333.245 253.445 333.64 253.445 334.445C253.445 335.235 253.03 335.693 252.272 335.74C251.56 335.787 250.981 335.172 251.025 334.414C251.07 333.608 251.515 333.214 252.243 333.15H252.258Z" fill="#E31E24"/>
<path d="M80.076 333.166C80.8183 333.166 81.2637 333.577 81.3528 334.366C81.427 335.124 80.8629 335.756 80.1502 335.74C79.393 335.74 79.007 335.266 78.9328 334.619C78.9031 333.766 79.4079 333.166 80.076 333.166Z" fill="#E31E24"/>
<path d="M220.898 349.996C221.566 349.996 222.041 350.47 221.907 351.149C221.818 351.623 221.373 352.017 221.076 352.459C220.912 352.459 220.764 352.459 220.601 352.459C220.333 352.017 219.888 351.591 219.829 351.117C219.739 350.422 220.215 349.996 220.883 350.012L220.898 349.996Z" fill="#E31E24"/>
<path d="M112.368 351.102C112.368 351.812 111.982 352.333 111.329 352.223C110.883 352.16 110.482 351.686 110.067 351.402C110.067 351.228 110.067 351.07 110.067 350.896C110.468 350.581 110.854 350.107 111.299 350.012C111.937 349.886 112.368 350.375 112.383 351.086L112.368 351.102Z" fill="#E31E24"/>
<path d="M1.93807 119.38C1.49266 119.301 1.10665 118.828 0.690938 118.512C0.690938 118.338 0.690938 118.18 0.690938 118.006C1.10665 117.706 1.49266 117.233 1.93807 117.169C2.59133 117.059 2.99219 117.564 2.99219 118.275C2.99219 118.985 2.57647 119.491 1.92321 119.364L1.93807 119.38Z" fill="#E31E24"/>
<path d="M330.259 119.377C329.814 119.298 329.428 118.824 329.012 118.54C329.012 118.366 329.012 118.208 329.012 118.034C329.428 117.734 329.799 117.261 330.259 117.166C330.912 117.04 331.328 117.545 331.328 118.255C331.328 118.966 330.927 119.471 330.274 119.361L330.259 119.377Z" fill="#E31E24"/>
<path d="M17.7006 86.2149C17.5373 86.2149 17.3888 86.2149 17.2255 86.2306C16.9285 85.8043 16.4534 85.4095 16.3644 84.9358C16.2307 84.2568 16.6761 83.7831 17.3591 83.7673C18.0272 83.7357 18.532 84.1463 18.4429 84.8411C18.3835 85.3148 17.953 85.7569 17.7006 86.1991V86.2149Z" fill="#E31E24"/>
<path d="M331.32 234.584C331.32 235.295 330.919 235.816 330.281 235.705C329.836 235.626 329.435 235.168 329.019 234.868C329.019 234.695 329.019 234.537 329.019 234.363C329.435 234.063 329.806 233.573 330.251 233.494C330.89 233.368 331.32 233.858 331.32 234.584Z" fill="#E31E24"/>
<path d="M1.68184 233.275C1.84515 233.275 1.99361 233.275 2.15693 233.275C2.43902 233.718 2.89928 234.112 2.97351 234.586C3.09229 235.265 2.63203 235.723 1.94907 235.723C1.28096 235.723 0.791027 235.297 0.894956 234.618C0.96919 234.144 1.39975 233.718 1.68184 233.275Z" fill="#E31E24"/>
<path d="M80.1678 19.5491C79.4997 19.5491 79.0098 19.1228 79.1137 18.4438C79.1879 17.97 79.6185 17.5437 79.9006 17.1016C80.0639 17.1016 80.2124 17.1016 80.3757 17.1016C80.6578 17.5437 81.118 17.9385 81.1923 18.4122C81.311 19.0912 80.8508 19.5491 80.1678 19.5491Z" fill="#E31E24"/>
<path d="M111.328 2.87705C110.6 2.87705 110.125 2.40334 110.274 1.67697C110.363 1.21905 110.867 0.855866 111.179 0.445312C111.328 0.445312 111.476 0.445312 111.625 0.445312C111.877 0.871657 112.278 1.26642 112.352 1.72435C112.456 2.41913 112.011 2.86126 111.328 2.87705Z" fill="#E31E24"/>
<path d="M221.057 3.06321C220.894 3.06321 220.745 3.06321 220.582 3.06321C220.315 2.62107 219.884 2.19473 219.825 1.70522C219.736 1.01044 220.225 0.599883 220.894 0.615674C221.562 0.631464 222.022 1.10518 221.903 1.78417C221.814 2.25789 221.354 2.65265 221.057 3.079V3.06321Z" fill="#E31E24"/>
</g>
</svg>
