<svg width="45" height="59" viewBox="0 0 45 59" fill="none" xmlns="http://www.w3.org/2000/svg">
<path fill-rule="evenodd" clip-rule="evenodd" d="M34.9622 9.64232C37.6182 5.58806 28.743 3.32814 27.2294 6.34294C27.0065 6.78758 24.9826 6.08301 23.1884 7.24429C17.0949 11.1881 6.99098 -2.83956 1.8989 14.1116C-0.861504 23.301 1.72687 32.3619 3.93593 42.1121C4.92403 46.4732 9.47181 65.3353 13.6213 52.2594C15.0783 47.6687 16.3318 39.6522 18.8384 35.6209C20.7511 32.5444 25.4629 38.16 25.1919 43.4751C25.143 44.4399 28.8134 57.0337 29.9698 57.0337C33.8658 57.0337 37.5586 42.6451 37.978 39.0663C38.5734 33.9891 44.3539 9.2909 35.8284 8.92099C35.214 8.89435 35.2775 9.1607 34.9619 9.64208L34.9622 9.64232Z" fill="#FEFEFE"/>
<path fill-rule="evenodd" clip-rule="evenodd" d="M28.7615 9.61415C29.1929 9.05296 32.199 7.85321 32.8393 7.2154C33.5892 6.46771 34.521 3.71347 35.2346 3.14143C35.6183 3.8162 37.1844 6.93308 37.5209 7.25876C37.8692 7.59651 41.1325 9.11774 41.5994 9.57079C40.7869 10.0995 37.9919 11.3992 37.5093 11.8927C37.0132 12.4007 35.8426 15.1128 35.2018 15.9257C35.1797 15.906 35.1524 15.876 35.1404 15.8615L34.5439 14.8943C32.6127 11.1839 33.2978 11.9289 28.7615 9.61366V9.61415ZM32.2231 4.45032C31.8795 4.28526 30.3938 4.09236 29.8403 4.09236C26.3477 4.09236 23.7721 6.88307 20.8994 6.95229C19.2733 6.99146 17.7888 6.12257 16.4163 5.48501C13.9061 4.31926 11.8384 3.50432 8.98982 4.56906C8.60265 4.71367 8.14588 4.85187 7.80225 5.05043C6.7758 5.64316 5.77124 6.35094 4.96789 7.22304L4.20586 8.13036C1.94904 10.9442 0.53125 15.7425 0.53125 19.4853L0.651283 25.6893C0.673912 26.1771 0.76222 26.384 0.795919 26.9642L1.2249 30.8425C1.51687 33.4748 2.00587 37.1632 2.59744 39.4913C2.70714 39.9229 2.75239 40.3382 2.84464 40.7952L4.89631 49.0028C5.49797 50.8379 6.10896 52.7296 6.96495 54.4482C7.13222 54.7837 7.26357 55.0508 7.46281 55.3819C8.64545 57.3463 9.71421 58.8633 12.0884 58.8633C14.6691 58.8633 15.8791 51.1626 16.2682 49.2077C16.8913 46.0763 19.3244 30.3537 22.7897 37.6446C24.1787 40.5671 24.6144 43.8808 25.2625 47.1009L26.1561 52.1719C26.4363 53.5724 27.263 58.8631 29.4832 58.8631C31.525 58.8631 32.5072 57.8058 33.5565 56.2604C34.4497 54.9451 35.0614 53.6406 35.6431 52.1453L37.176 47.5951C37.6518 45.9211 38.0456 44.3065 38.3872 42.603L39.7969 35.0712C39.9501 34.1459 40.0138 33.1437 40.1737 32.3403C40.5201 30.5969 40.5464 28.6862 40.8083 26.8905C41.045 25.2697 41.1591 22.8518 41.1591 21.0366C41.1591 20.1047 41.0383 19.574 41.04 18.7689C41.0425 17.7882 40.9232 17.3253 40.1752 17.1156C38.3469 16.6035 39.1333 19.1725 39.1333 20.201L38.9126 24.8721C38.8159 25.778 38.8519 26.5596 38.7576 27.4615C38.5879 29.0902 38.3848 30.6834 38.1435 32.3357C37.6461 35.746 36.9842 39.1621 36.3055 42.5468C35.6274 45.9302 32.8051 56.8341 29.9594 56.8341C29.3053 56.8341 28.8943 54.8461 28.699 54.1587C28.5345 53.58 28.4257 53.0341 28.3219 52.5079C27.3439 47.5451 26.8252 42.4313 25.0242 37.6729C24.3536 35.9009 23.0374 33.6847 20.7853 33.6847C16.9498 33.6847 16.051 41.2406 15.1992 44.3186C14.5584 46.6355 14.125 49.7768 13.4511 52.4719C13.2806 53.1541 12.5009 56.8341 11.7305 56.8341C11.0299 56.8341 10.4086 56.1675 10.0768 55.7457L8.98342 53.9774C6.84812 50.1303 5.93555 45.0471 4.93911 40.8445C4.16232 37.5663 2.89384 29.7063 2.79471 26.4062C2.76617 25.4567 2.54479 24.9034 2.55611 23.7808C2.56693 22.7579 2.43706 22.1275 2.43706 21.0364C2.43706 15.3668 5.02372 6.1206 11.7302 6.1206C15.6688 6.1206 18.5353 10.5651 23.5616 8.42402C26.2034 7.29867 27.8388 6.1206 30.5546 6.1206L27.8922 7.63026C27.3762 7.89213 27.0092 8.12765 26.5 8.3841C25.0303 9.12366 25.4197 10.1731 26.7002 10.8159L28.2496 11.6508C28.9192 11.9885 30.853 12.9274 31.3012 13.3678C31.7934 13.8512 33.8173 18.1417 34.3124 18.7046C34.5038 18.9224 34.8356 19.1271 35.2014 19.1271C36.1759 19.1271 36.7835 17.2822 37.2321 16.5071C37.4928 16.0563 37.819 15.5409 38.0623 15.0716C38.2032 14.7987 38.3092 14.5903 38.4696 14.2865C38.6519 13.9414 38.6049 13.8024 38.8447 13.4686C39.1775 13.005 39.7391 12.885 40.2436 12.6024L43.3264 10.9169C44.0525 10.4771 44.6138 10.3461 44.6138 9.46166C44.6138 8.61987 43.1889 8.13627 41.9875 7.4386L40.5238 6.63721C38.627 5.61754 38.6846 5.63109 37.3059 2.81945C36.9148 2.02176 36.5938 1.28515 36.093 0.574174C35.7855 0.137388 35.3703 0.154386 34.8442 0.154386C34.2962 0.154386 32.2912 4.15716 32.2228 4.45007L32.2231 4.45032Z" fill="black"/>
<path fill-rule="evenodd" clip-rule="evenodd" d="M28.7656 9.61676C33.3019 11.932 32.6168 11.187 34.548 14.8974L35.1445 15.8646C35.1563 15.8788 35.1838 15.9091 35.206 15.9288C35.8467 15.1159 37.0173 12.4035 37.5135 11.8958C37.9961 11.4023 40.7913 10.1026 41.6035 9.57389C41.1367 9.1206 37.8733 7.59936 37.525 7.26186C37.1888 6.93618 35.6224 3.8193 35.2387 3.14453C34.5251 3.71657 33.5934 6.47081 32.8434 7.2185C32.2031 7.85631 29.1968 9.05581 28.7656 9.61725V9.61676Z" fill="#9D9E9E"/>
<path fill-rule="evenodd" clip-rule="evenodd" d="M19.5863 20.6795C20.0937 20.3612 21.3627 19.7555 21.6072 19.4778C21.9322 19.1083 22.372 18.009 22.7355 17.5134C23.589 18.4825 23.134 19.6784 25.9383 20.6258C25.6781 20.9621 25.318 21.1163 24.892 21.3356C23.8087 21.8933 23.867 21.9027 23.3084 22.9726C23.1448 23.2862 22.9507 23.688 22.6689 23.9201C22.4981 23.4899 21.7816 22.1562 21.4904 21.8788C20.9807 21.3932 19.988 21.2011 19.5861 20.6798L19.5863 20.6795ZM16.4922 20.6795C16.4922 21.2025 16.7706 21.4326 17.0894 21.6329L20.079 23.2926C21.3541 24.4869 22.1201 29.6212 24.1981 25.4137C24.4118 24.9809 24.5331 24.8104 24.7513 24.4167C25.4575 23.1423 25.2186 23.2729 27.3345 22.2306C28.1194 21.8443 29.0024 21.4644 29.0024 20.6795C29.0024 19.4946 26.2033 18.939 25.3765 18.1061C24.6187 17.3429 23.9401 14.4746 22.8071 14.4746C21.4766 14.4746 21.0786 16.9633 20.1577 18.026L17.204 19.7217C16.8058 19.9286 16.4924 20.074 16.4924 20.6795H16.4922Z" fill="black"/>
<path fill-rule="evenodd" clip-rule="evenodd" d="M5.17969 15.9069C5.17969 16.6585 5.39246 17.6818 6.4103 17.3865C7.94493 16.9413 6.29789 15.2676 8.56381 12.3751C11.44 8.70395 14.711 10.7879 14.711 8.8663C14.711 6.89127 9.92232 8.11148 7.65075 10.3866C6.53279 11.5062 5.17969 13.7325 5.17969 15.9066V15.9069Z" fill="black"/>
<path fill-rule="evenodd" clip-rule="evenodd" d="M19.5938 20.6801C19.9957 21.2013 20.9884 21.3938 21.4981 21.8791C21.7893 22.1565 22.5056 23.4902 22.6766 23.9204C22.9582 23.6883 23.1523 23.2865 23.3161 22.9729C23.8747 21.9027 23.8164 21.8936 24.8997 21.3359C25.3257 21.1166 25.6858 20.9624 25.946 20.6261C23.1417 19.6786 23.5967 18.4831 22.7432 17.5137C22.3794 18.0093 21.9399 19.1083 21.6149 19.4781C21.3704 19.7557 20.1014 20.3615 19.594 20.6798L19.5938 20.6801Z" fill="#9D9E9E"/>
</svg>
