<svg width="44" height="44" viewBox="0 0 44 44" fill="none" xmlns="http://www.w3.org/2000/svg">
<path fill-rule="evenodd" clip-rule="evenodd" d="M28.7355 19.7925C27.4022 17.2097 25.8478 17.5154 23.0125 17.4297C20.3791 17.3509 20.8079 18.4918 17.0686 17.5187C15.323 17.0639 13.0139 18.765 12.4522 20.2044C11.5941 22.4046 11.9601 21.3159 11.7886 23.688C11.5879 26.4736 11.3576 28.501 12.4092 31.1749C12.5885 31.6308 15.3866 43.8103 16.9254 41.5413C18.7465 38.8558 18.0256 35.3421 20.1286 31.7451C21.2635 29.8039 21.5094 31.0431 22.1585 32.5915C22.7219 33.9359 22.5181 35.0998 23.5734 37.1108C23.718 37.3857 24.6138 40.9483 25.0317 41.1889C25.235 42.4566 26.465 40.6363 26.7523 39.8025C27.4686 37.7248 29.156 34.1114 29.4167 31.9329C29.647 30.0099 30.2054 28.9303 30.2054 26.5733C30.2054 25.6659 28.8528 20.0193 28.7355 19.7925Z" fill="#FEFEFE"/>
<path fill-rule="evenodd" clip-rule="evenodd" d="M39.7188 27.7348L39.7315 38.3093L28.2847 38.32L29.357 33.6547C29.464 33.0768 30.0697 28.7739 30.111 28.6966C30.4024 28.1532 33.6572 27.57 34.5647 27.451C35.6802 27.3045 38.8847 27.2346 39.7188 27.735V27.7348ZM22.688 38.3186L18.7868 38.3079C18.784 37.7777 19.8168 32.2118 20.7102 32.2303C21.6519 32.2496 22.6919 37.1812 22.688 38.3186ZM1.34924 27.6914C2.64717 27.2564 5.27226 27.2827 6.64358 27.4676C8.49555 27.7174 9.7805 28.1049 11.287 28.7165C11.3891 30.3256 11.6877 32.0658 11.9752 33.6249L13.0201 38.3076L1.36276 38.3071L1.34897 27.6911L1.34924 27.6914ZM24.8824 41.7546L24.4547 40.3536C23.7495 37.3562 23.327 31.0714 20.6917 30.932C19.7188 30.8809 19.0997 31.9935 18.8017 32.7257C17.7846 35.2233 17.4218 39.9225 16.4528 41.7546C14.4242 41.2815 12.9596 32.1116 12.6636 30.1031C12.165 26.7179 11.7053 21.9574 14.2929 19.3771C16.5234 17.1525 18.3619 19.7091 20.82 19.7091C21.6056 19.7091 22.2109 19.4025 22.7837 19.1337C24.2411 18.4497 25.5509 18.0388 26.9394 19.2769C30.3988 22.3615 28.6959 30.4512 27.9208 34.3296C27.6711 35.5779 26.4388 41.3914 24.8824 41.7543V41.7546ZM10.9686 24.6871L11.0701 27.1253C10.1558 26.9123 9.85224 26.6663 8.37083 26.3713C7.2724 26.1524 6.53901 26.0417 5.2753 26.0089C4.97454 26.0012 4.79133 25.9573 4.60978 25.9457C4.39263 25.9316 4.30047 25.9777 3.96192 26.0003C3.29034 26.0451 2.93661 26.0315 2.34117 26.1146C1.86825 26.1806 1.3498 26.251 0.875491 26.3754C0.368903 26.5079 0 26.6307 0 27.2266V38.9096C0 40.0318 1.64917 39.7224 2.74208 39.7224H13.5076C14.0528 40.8584 14.861 43.0747 16.5543 43.0747C17.1975 43.0747 17.6947 42.2936 17.906 41.7855C18.0981 41.3249 18.4402 40.2498 18.4838 39.7224L22.1475 39.7227C22.7708 39.705 22.8337 39.5311 22.9747 39.8966C23.111 40.2504 23.0941 40.835 23.5017 41.814C24.5775 44.399 26.4719 42.5448 27.3543 40.7729C27.4095 40.6627 27.9001 39.5115 27.9771 39.7136L28.1606 39.7031C28.2618 39.7045 28.4136 39.7172 28.5284 39.7202C31.4164 39.7989 35.3132 39.7221 38.2879 39.7221C38.8593 39.7221 39.4523 39.7384 40.0204 39.7282C40.3703 39.7216 40.5333 39.7108 40.7645 39.5582C40.9304 39.4489 41.1315 39.2286 41.1315 39.0109V27.1245C41.1315 26.1585 38.1571 26.0343 37.2676 26.0039C35.8165 25.954 34.273 26.0318 32.9116 26.318C31.6893 26.5753 31.151 26.8165 30.2647 27.0232L30.3663 24.8897C30.3663 21.6282 28.7916 18.1342 26.2421 17.3322C24.7941 16.8765 23.8311 17.2025 22.5478 17.7801C20.7828 18.5742 20.6048 18.6277 18.8563 17.8116C18.2926 17.5486 17.749 17.3101 17.1365 17.1945C15.6396 16.9118 14.5934 17.4448 13.6652 18.1395C11.9236 19.4433 10.9683 22.5153 10.9683 24.6866L10.9686 24.6871Z" fill="#010101"/>
<path fill-rule="evenodd" clip-rule="evenodd" d="M20.2783 14.4537C21.196 13.9671 21.6055 15.3759 20.8638 15.7115C20.4074 15.9182 20.006 15.6814 19.8857 15.3582C19.6738 14.7896 19.9897 14.6069 20.2783 14.4537ZM25.2548 3.42465C28.1403 3.45032 31.035 3.42907 33.9214 3.42907C35.4111 3.42907 41.5403 3.23697 42.5116 3.49006L42.4892 4.8411L25.2661 4.84331L25.2548 3.42465ZM17.129 1.36732L23.9312 1.36925C24.1329 1.98364 24.0049 5.47894 24.0079 6.40024C24.014 8.16363 23.4318 9.12357 22.3827 9.79177C19.6205 11.551 16.4303 8.70183 17.1339 6.16812C18.8786 5.93932 21.2037 6.62077 21.1888 5.49081C21.1748 4.4293 18.8855 4.96696 17.0771 4.82592L17.1292 1.36759L17.129 1.36732ZM15.7422 0.609414V7.21279C15.7422 9.2221 17.848 11.5814 19.8048 11.5814C19.8048 13.989 19.7736 12.732 18.9721 13.6945C17.8273 15.0687 18.8101 17.1685 20.5156 17.1685C22.1755 17.1685 23.3542 15.1385 22.1683 13.7883C21.1723 12.6548 21.2264 13.9119 21.2264 11.8861C21.2264 11.2245 22.1016 12.0602 24.0457 10.1343C25.1419 9.04877 25.3902 7.86637 25.3902 6.19683H43.2648C44.1544 6.19683 43.8741 3.9485 43.8741 2.84449C43.8741 2.23894 43.4643 2.03166 42.8584 2.03166H25.3902C25.3902 1.08166 25.5958 0 24.5779 0H16.3517C16.107 0 15.7422 0.364875 15.7422 0.609414Z" fill="#010101"/>
<path fill-rule="evenodd" clip-rule="evenodd" d="M1.36508 38.3079L13.0224 38.3084L11.9775 33.6258C11.69 32.0666 11.3912 30.3261 11.2893 28.7173C9.78282 28.1054 8.49787 27.7182 6.6459 27.4684C5.27458 27.2835 2.64949 27.2573 1.35156 27.6923L1.36536 38.3082L1.36508 38.3079Z" fill="white"/>
<path fill-rule="evenodd" clip-rule="evenodd" d="M39.7231 27.7334C38.889 27.233 35.6845 27.3028 34.569 27.4494C33.6615 27.5683 30.4067 28.1515 30.1154 28.695C30.074 28.7722 29.4683 33.0749 29.3613 33.6531L28.2891 38.3184L39.7358 38.3076L39.7231 27.7331V27.7334Z" fill="white"/>
<path fill-rule="evenodd" clip-rule="evenodd" d="M17.0732 4.82774C18.8816 4.96877 21.1709 4.43139 21.185 5.49263C21.1996 6.62258 18.8747 5.94113 17.1301 6.16994C16.4265 8.70393 19.6166 11.5528 22.3789 9.79359C23.4279 9.12511 24.0101 8.16545 24.004 6.40206C24.001 5.48076 24.129 1.98545 23.9273 1.37107L17.1251 1.36914L17.0729 4.82746L17.0732 4.82774Z" fill="#B3B3B3"/>
<path fill-rule="evenodd" clip-rule="evenodd" d="M25.2691 4.84571L42.4923 4.8435L42.5146 3.49206C41.5434 3.23917 35.4141 3.43105 33.9244 3.43105C31.0378 3.43105 28.1434 3.45258 25.2578 3.42663L25.2691 4.84571Z" fill="#575556"/>
<path fill-rule="evenodd" clip-rule="evenodd" d="M22.6831 38.3189C22.6873 37.1815 21.6469 32.2498 20.705 32.2305C19.8114 32.212 18.7785 37.7779 18.7813 38.3081L22.6831 38.3189Z" fill="white"/>
<path fill-rule="evenodd" clip-rule="evenodd" d="M13.8099 23.8747C14.0842 23.8747 14.0897 23.8262 14.3179 23.7732C14.5977 23.1894 14.4509 22.7186 14.7544 22.0763C14.9859 21.5859 15.341 21.1506 15.8037 20.8912C16.0471 20.7548 16.3238 20.667 16.6287 20.5989C16.8585 20.5473 18.1032 20.5754 17.9181 19.751C17.5961 18.3147 13.8196 19.6359 13.2556 22.3054C13.1044 23.0219 12.9904 23.8753 13.8099 23.8753V23.8747Z" fill="#010101"/>
<path fill-rule="evenodd" clip-rule="evenodd" d="M20.2822 14.4528C19.9936 14.606 19.6776 14.7888 19.8895 15.3575C20.0099 15.6808 20.4114 15.9177 20.8678 15.7109C21.6096 15.3752 21.1998 13.966 20.2822 14.4528Z" fill="#B3B3B3"/>
</svg>
