<?xml version="1.0" standalone="no"?>
<!DOCTYPE svg PUBLIC "-//W3C//DTD SVG 20010904//EN"
 "http://www.w3.org/TR/2001/REC-SVG-20010904/DTD/svg10.dtd">
<svg version="1.0" xmlns="http://www.w3.org/2000/svg"
 width="838.000000pt" height="838.000000pt" viewBox="0 0 838.000000 838.000000"
 preserveAspectRatio="xMidYMid meet">
<metadata>
Created by potrace 1.14, written by Peter Selinger 2001-2017
</metadata>
<g transform="translate(0.000000,838.000000) scale(0.100000,-0.100000)"
fill="#000000" stroke="none">
<path d="M4098 8115 c-2 -2 -23 -5 -48 -9 -99 -13 -223 -91 -362 -228 -59 -58
-58 -57 -131 -44 -45 8 -82 19 -94 29 -7 5 -13 7 -13 3 0 -3 -33 6 -72 19
-125 43 -139 47 -228 62 -38 6 -160 6 -200 0 -100 -16 -238 -111 -280 -193 -8
-16 -19 -32 -25 -36 -5 -4 -6 -8 -2 -8 4 0 3 -9 -3 -19 -28 -53 -31 -190 -6
-296 10 -42 47 -140 61 -162 9 -13 13 -23 11 -23 -6 0 102 -208 114 -220 3 -3
12 -18 20 -35 8 -16 23 -39 33 -49 9 -11 17 -24 17 -28 0 -5 9 -18 20 -30 10
-12 17 -25 14 -30 -3 -4 -1 -8 4 -8 9 0 93 -126 124 -185 8 -16 25 -48 36 -70
20 -39 69 -197 78 -252 2 -15 9 -50 14 -78 6 -27 12 -75 15 -105 2 -30 4 -55
5 -55 1 0 4 -27 6 -60 3 -33 6 -76 9 -95 2 -19 4 -55 4 -79 l1 -44 23 24 c13
13 22 27 20 32 -2 4 0 7 5 7 6 0 40 57 47 80 1 3 7 19 14 35 7 17 15 41 17 54
3 14 7 29 10 33 3 5 8 24 11 41 3 18 8 34 11 37 4 3 9 16 10 30 4 29 37 126
62 185 9 22 25 60 35 85 10 25 27 57 37 72 10 14 18 29 18 32 0 4 19 26 43 50
52 54 120 91 167 90 37 0 71 -28 150 -125 77 -95 186 -178 131 -100 -12 16
-21 34 -21 40 0 6 -5 11 -12 11 -6 0 -9 3 -5 6 3 3 -5 24 -19 45 -13 21 -24
43 -24 49 0 5 -5 10 -11 10 -5 0 -7 5 -4 10 3 6 2 10 -4 10 -6 0 -18 16 -27
35 -9 19 -20 35 -25 35 -5 0 -9 5 -9 11 0 6 -19 29 -42 50 -41 38 -91 54 -133
45 -22 -5 -123 -56 -111 -56 4 0 -14 -17 -41 -39 -26 -21 -83 -72 -126 -115
-43 -42 -80 -76 -83 -76 -8 0 -90 133 -135 220 -24 47 -47 87 -51 88 -5 2 -8
8 -8 14 0 6 -15 34 -34 62 -19 28 -35 56 -37 61 -2 6 -11 19 -21 29 -10 11
-18 26 -18 33 0 7 -4 13 -10 13 -5 0 -10 5 -10 11 0 6 -9 22 -20 36 -11 14
-17 29 -14 34 3 5 1 9 -4 9 -9 0 -47 70 -44 83 1 4 -5 10 -13 13 -8 4 -15 13
-15 20 0 8 -9 32 -20 54 -66 129 -97 310 -66 382 27 64 99 121 166 131 8 2 20
5 25 9 22 13 295 -1 365 -19 14 -3 34 -7 45 -9 11 -1 31 -5 45 -9 14 -3 39 -9
55 -11 17 -3 34 -10 39 -14 5 -6 -26 -45 -77 -96 -48 -48 -87 -88 -87 -89 0
-2 11 -2 25 -1 14 0 25 5 25 10 0 5 3 7 6 3 8 -7 66 13 145 52 65 32 266 170
281 193 4 7 8 9 8 5 0 -7 8 -2 43 29 11 9 75 44 139 74 15 7 53 13 86 13 87 0
170 -42 256 -130 46 -48 50 -54 68 -101 22 -56 15 -184 -15 -262 -3 -8 -13
-39 -23 -67 -10 -29 -22 -53 -27 -53 -4 0 -5 -4 -2 -10 3 -5 -3 -29 -13 -52
-22 -50 -32 -77 -30 -81 1 -1 -6 -15 -15 -32 -14 -25 -83 -205 -91 -240 -2 -5
-6 -18 -10 -27 -4 -9 -5 -22 -1 -28 3 -5 1 -10 -6 -10 -7 0 -9 -3 -6 -7 4 -3
3 -11 -2 -17 -8 -9 -21 -65 -46 -196 -17 -86 -27 -305 -17 -372 5 -35 17 -28
27 14 4 18 9 35 10 38 1 3 7 26 15 53 7 26 16 50 21 52 4 3 6 12 2 20 -3 9 0
22 7 30 7 8 10 15 6 15 -3 0 -1 12 5 28 6 15 12 34 14 42 2 8 13 49 25 90 12
41 23 82 25 90 1 8 5 22 8 30 3 8 14 44 23 80 9 36 37 108 62 160 25 52 45 98
44 103 -1 4 3 7 10 7 6 0 8 3 5 6 -4 4 0 19 8 33 29 52 92 227 101 281 3 14 7
32 10 40 24 67 24 276 0 332 -4 9 -9 23 -10 31 -9 66 -154 207 -226 221 -3 1
-10 4 -15 8 -30 19 -234 54 -247 43z"/>
<path d="M5178 7945 c-2 -2 -25 -5 -53 -8 -69 -8 -73 -9 -136 -40 -31 -15 -74
-46 -97 -69 -49 -51 -103 -129 -96 -140 3 -4 1 -8 -4 -8 -8 0 -44 -97 -57
-155 -18 -78 -25 -121 -30 -169 -3 -21 -7 -57 -10 -79 -10 -64 -14 -132 -20
-302 -5 -157 -8 -189 -20 -270 -6 -43 -34 -144 -43 -160 -4 -5 -7 -15 -8 -20
-6 -40 -127 -278 -215 -422 -37 -61 -65 -114 -62 -117 3 -3 18 1 34 10 16 8
31 14 34 14 3 0 19 7 35 15 17 9 30 13 30 10 0 -3 10 3 22 15 12 11 25 20 29
20 4 0 14 6 21 13 7 6 33 28 58 48 25 20 55 45 67 55 11 11 31 26 43 34 12 8
28 20 34 25 26 24 183 120 244 148 56 27 82 32 155 35 57 3 87 0 87 -7 0 -6 6
-8 14 -5 14 6 69 -53 61 -65 -2 -5 0 -23 5 -41 7 -24 6 -38 -3 -49 -7 -8 -7
-12 -1 -8 7 4 11 -10 13 -41 1 -46 4 -67 17 -114 3 -13 6 -31 6 -40 -1 -23 23
-43 25 -20 0 9 4 40 7 67 4 28 9 109 11 181 6 172 -7 214 -77 247 -51 24 -141
28 -253 12 -27 -4 -59 -9 -70 -10 -90 -13 -112 -17 -128 -21 -17 -5 -18 1 -16
68 1 40 4 77 7 81 2 5 6 38 8 75 2 37 6 78 9 92 6 31 16 161 20 255 2 39 4 70
4 70 1 0 4 25 6 55 3 61 10 110 25 185 6 28 12 59 14 71 21 108 95 264 131
274 6 1 15 10 22 20 6 9 29 21 50 28 92 26 197 -10 338 -118 51 -38 265 -263
265 -277 0 -9 -3 -14 -6 -10 -3 3 -16 2 -28 -2 -21 -8 -85 -19 -156 -27 -58
-7 -60 -7 -60 -11 0 -7 71 -33 98 -35 6 -1 12 -6 12 -11 0 -6 3 -8 6 -5 3 4
20 2 37 -3 53 -16 122 -20 352 -20 121 -1 225 -4 230 -8 6 -4 29 -13 53 -20
109 -31 184 -162 197 -345 3 -39 -21 -110 -47 -142 -29 -35 -108 -114 -108
-108 0 4 -8 -3 -19 -14 -10 -12 -23 -22 -28 -22 -6 0 -18 -9 -28 -20 -10 -11
-24 -20 -31 -20 -7 0 -14 -3 -16 -7 -4 -11 -85 -63 -97 -63 -5 0 -11 -3 -13
-7 -1 -5 -68 -52 -148 -105 -80 -54 -165 -114 -190 -135 -63 -53 -231 -221
-260 -262 -14 -18 -32 -42 -42 -51 -9 -10 -14 -21 -11 -24 3 -3 -2 -8 -11 -12
-9 -3 -16 -10 -16 -15 0 -5 -11 -27 -25 -49 -14 -22 -23 -40 -19 -40 11 0 94
63 94 72 0 4 6 8 14 8 8 0 22 10 30 22 9 12 16 19 16 15 0 -4 16 7 35 25 20
18 45 39 56 48 29 21 89 69 140 110 23 19 61 50 83 67 23 18 50 41 61 51 11
10 49 34 85 53 36 18 67 36 70 39 3 3 23 14 45 25 22 11 46 26 53 32 7 7 18
13 23 13 5 0 15 4 22 10 26 22 172 123 184 127 7 3 10 9 7 14 -3 5 1 9 8 9 28
0 175 173 204 240 6 14 18 41 26 60 8 19 16 67 17 106 4 129 -53 248 -174 366
-48 47 -168 108 -227 116 -58 8 -192 8 -253 -1 -141 -20 -153 -19 -176 4 -22
22 -148 182 -184 234 -24 35 -149 162 -189 192 -16 12 -33 20 -38 17 -4 -3 -8
-1 -8 4 0 5 -12 14 -27 20 -34 14 -171 50 -175 47z"/>
<path d="M2025 7456 c-76 -25 -130 -50 -157 -74 -10 -8 -18 -12 -18 -8 0 15
-93 -90 -118 -134 -14 -25 -31 -48 -37 -52 -5 -4 -6 -8 -2 -8 4 0 3 -9 -3 -21
-6 -11 -13 -28 -16 -37 -35 -147 -42 -177 -38 -184 2 -3 1 -9 -4 -12 -4 -2 -9
-19 -10 -37 -3 -32 -17 -59 -32 -59 -4 0 -25 -8 -46 -17 -22 -9 -42 -18 -46
-19 -5 -1 -10 -3 -13 -4 -3 -1 -8 -3 -12 -4 -28 -5 -279 -91 -283 -97 -3 -3
-16 -10 -30 -14 -43 -13 -136 -82 -179 -132 -23 -26 -55 -77 -73 -113 -29 -59
-32 -74 -32 -155 0 -49 3 -100 7 -113 13 -50 79 -151 129 -202 52 -51 139
-117 147 -111 2 1 7 -1 10 -6 6 -9 19 -16 109 -64 31 -17 62 -35 68 -40 7 -6
22 -12 35 -14 12 -3 26 -10 29 -16 4 -6 10 -10 14 -9 4 1 41 -13 84 -31 42
-17 83 -32 90 -32 6 0 12 -4 12 -9 0 -4 3 -7 8 -6 4 1 17 -3 28 -10 12 -6 24
-9 27 -6 2 3 21 -4 41 -15 20 -12 36 -18 36 -15 0 2 10 -1 23 -8 12 -7 24 -13
27 -13 16 -2 140 -70 140 -77 0 -4 7 -8 15 -8 8 0 15 -4 15 -10 0 -5 6 -10 14
-10 8 0 16 -4 18 -8 2 -4 29 -28 60 -54 31 -25 54 -48 51 -52 -4 -3 -1 -6 5
-6 6 0 36 -25 66 -55 30 -30 53 -55 51 -55 -2 0 15 -18 37 -40 23 -22 38 -40
35 -40 -4 0 9 -16 28 -35 19 -19 35 -39 35 -45 0 -5 3 -10 8 -10 4 0 20 -18
36 -40 42 -57 54 -52 50 18 -4 56 -9 92 -17 122 -2 8 -7 29 -12 45 -4 17 -12
35 -17 42 -5 7 -7 17 -4 22 4 5 2 12 -3 15 -5 4 -17 30 -26 59 -9 28 -20 61
-25 72 -5 11 -18 61 -30 110 -11 50 -24 102 -29 117 -5 15 -8 71 -7 125 1 86
4 105 29 155 16 31 39 63 51 71 25 17 84 14 156 -7 28 -8 50 -13 50 -10 0 3 9
0 20 -6 10 -6 45 -13 77 -16 32 -4 60 -7 63 -8 3 0 6 2 8 7 1 4 -1 7 -4 6 -4
0 -10 3 -13 8 -7 10 -109 59 -192 93 -30 12 -63 26 -74 31 -43 18 -95 24 -140
15 -11 -3 -22 -5 -25 -5 -12 -2 -65 -54 -63 -62 2 -5 -2 -9 -9 -9 -6 0 -9 -3
-5 -6 3 -3 -3 -25 -13 -49 -10 -24 -21 -56 -24 -72 -3 -15 -10 -46 -15 -67 -5
-22 -9 -42 -9 -45 0 -3 0 -8 -2 -11 -1 -3 -3 -16 -6 -30 -10 -61 -15 -86 -19
-100 -2 -8 -4 -18 -4 -22 -2 -14 -101 28 -296 124 -66 33 -121 59 -123 59 -1
-1 -18 6 -38 14 -20 8 -38 15 -40 15 -18 0 -303 139 -352 171 -24 16 -47 29
-52 29 -4 0 -10 4 -12 8 -1 4 -25 24 -52 45 -167 126 -184 278 -47 410 27 26
53 47 58 47 5 0 15 9 23 20 8 11 22 20 32 20 10 0 18 4 18 8 0 5 21 20 48 33
26 13 50 27 53 32 3 4 15 9 27 10 12 0 24 7 27 15 3 8 12 11 20 8 8 -3 15 -1
15 3 0 5 12 13 28 19 15 5 50 19 79 30 l51 21 -4 -52 c-2 -29 -6 -63 -9 -77
-4 -14 -9 -38 -12 -55 -3 -16 -9 -38 -14 -48 -7 -12 -6 -17 3 -15 13 3 58 44
58 53 0 3 9 15 20 27 16 17 102 181 100 190 -1 10 103 306 124 350 32 67 88
125 146 151 72 32 230 28 316 -8 49 -20 110 -87 133 -145 8 -19 17 -39 21 -45
3 -5 12 -30 19 -55 8 -25 16 -52 19 -60 3 -8 4 -19 3 -23 0 -4 3 -16 8 -26 6
-10 13 -31 16 -47 8 -49 23 -109 25 -109 1 0 4 -16 7 -35 2 -19 9 -42 14 -52
6 -10 7 -23 4 -28 -3 -5 -1 -11 5 -15 5 -3 10 -15 10 -26 0 -22 62 -220 87
-279 29 -66 46 -105 72 -155 14 -27 30 -60 36 -72 5 -13 13 -23 18 -23 4 0 7
-7 7 -15 0 -8 5 -15 10 -15 6 0 10 -9 10 -21 0 -11 5 -17 10 -14 6 3 10 1 10
-6 0 -6 19 -34 42 -63 66 -78 66 -79 64 -51 0 14 -4 25 -9 25 -4 0 -6 3 -5 8
1 4 -4 21 -11 37 -7 17 -13 38 -14 48 -1 9 -5 17 -9 17 -4 0 -7 3 -6 8 2 6 -6
32 -40 122 -3 8 -6 17 -7 20 -1 3 -5 13 -9 22 -4 9 -8 22 -10 30 -1 7 -11 38
-23 68 -44 113 -92 256 -98 290 -3 19 -7 49 -10 65 -3 17 -8 47 -11 68 -7 45
-9 53 -17 87 -4 14 -9 39 -12 55 -7 36 -13 59 -15 63 -2 1 -3 5 -4 10 -22 99
-120 324 -153 350 -9 6 -13 12 -9 12 21 0 -117 121 -160 141 -65 30 -66 31
-164 34 -67 3 -99 -1 -155 -19z"/>
<path d="M6895 6681 c-2 -2 -17 -5 -32 -7 -49 -6 -79 -16 -138 -47 -90 -47
-88 -45 -150 -99 -107 -92 -246 -239 -335 -353 -30 -38 -59 -75 -65 -82 -5 -6
-39 -48 -75 -92 -36 -44 -68 -80 -72 -81 -3 0 -22 -15 -42 -32 -39 -37 -43
-40 -107 -85 -26 -18 -49 -29 -53 -26 -3 3 -6 2 -6 -4 0 -5 -21 -20 -47 -33
-27 -13 -55 -29 -63 -36 -8 -7 -17 -13 -20 -14 -32 -6 -50 -14 -50 -23 0 -6
-3 -7 -6 -4 -4 3 -16 1 -28 -5 -11 -7 -23 -13 -26 -14 -3 0 -23 -9 -45 -19
-22 -10 -76 -33 -120 -50 -43 -18 -81 -38 -83 -44 -2 -6 0 -11 5 -10 4 2 28
-4 53 -12 34 -10 113 -14 315 -15 282 -1 334 -5 425 -30 81 -23 165 -82 194
-138 12 -24 12 -34 0 -68 -7 -22 -23 -52 -34 -68 -11 -15 -20 -32 -20 -36 0
-4 -6 -15 -14 -23 -15 -17 -58 -99 -74 -142 -8 -20 -7 -26 4 -26 8 0 14 3 14
6 0 4 24 32 53 62 28 31 68 75 87 98 19 24 41 49 48 56 6 8 12 17 12 20 0 4 9
18 20 32 11 14 20 34 20 44 0 11 4 19 8 19 4 0 7 18 5 40 -4 84 -70 140 -308
265 -49 26 -92 49 -94 51 -7 7 81 110 214 249 22 23 58 64 80 91 22 27 47 56
55 65 8 10 31 36 50 59 74 90 188 205 262 264 72 58 178 123 178 110 0 -4 7
-1 15 6 20 17 128 14 165 -5 47 -24 87 -71 123 -144 17 -36 32 -68 32 -71 1
-8 26 -103 32 -120 4 -8 7 -24 8 -35 3 -25 13 -82 19 -115 9 -47 17 -171 11
-180 -5 -8 -168 69 -189 90 -5 5 -19 10 -31 10 -11 0 -15 -3 -9 -8 6 -4 19
-22 30 -41 10 -19 30 -47 44 -62 14 -15 30 -34 36 -41 10 -12 77 -73 123 -110
12 -10 25 -18 30 -18 5 0 11 -3 13 -8 5 -11 107 -82 118 -82 6 0 10 -4 10 -9
0 -4 17 -20 38 -33 106 -71 178 -185 174 -273 -2 -57 -49 -205 -64 -205 -4 0
-8 -6 -8 -14 0 -17 -62 -86 -78 -86 -7 0 -12 -5 -12 -10 0 -6 -3 -9 -7 -8 -5
1 -17 -3 -28 -9 -52 -29 -245 -36 -465 -17 -47 4 -166 7 -265 7 -261 1 -393
-17 -570 -75 -58 -19 -145 -55 -145 -61 0 -4 385 10 458 16 18 2 35 0 38 -5 3
-5 11 -5 17 -1 21 13 233 18 277 7 14 -3 45 -7 70 -9 25 -2 45 -4 45 -5 0 -13
378 -20 456 -8 49 7 123 25 149 35 8 4 17 7 20 7 30 7 114 61 151 97 49 48 71
83 95 151 12 34 28 133 26 163 -2 35 -12 122 -15 135 -3 8 -8 30 -12 48 -4 17
-11 32 -16 32 -5 0 -9 7 -9 16 0 18 -54 98 -86 129 -45 43 -84 75 -92 75 -5 0
-17 8 -28 18 -10 9 -48 33 -84 51 -36 19 -74 39 -85 45 -47 26 -48 29 -51 219
-1 100 -3 182 -4 182 -1 0 -3 21 -4 46 -5 81 -37 210 -56 229 -5 5 -26 40 -47
80 -7 14 -13 22 -13 19 0 -3 -20 12 -44 35 -60 55 -76 68 -76 60 0 -4 -9 1
-21 12 -12 10 -24 18 -28 18 -3 -1 -10 0 -16 1 -55 16 -151 26 -160 16z"/>
<path d="M775 5779 c-22 -4 -53 -14 -70 -23 -16 -9 -35 -16 -41 -16 -7 0 -14
-7 -18 -15 -3 -8 -10 -15 -15 -15 -11 0 -90 -77 -108 -106 -88 -136 -110 -200
-105 -314 4 -114 6 -130 15 -130 4 0 6 -3 5 -7 -4 -15 12 -58 57 -158 57 -125
56 -120 38 -157 -9 -18 -23 -39 -30 -46 -7 -7 -13 -16 -13 -20 0 -4 -11 -20
-25 -37 -36 -44 -38 -47 -65 -85 -13 -19 -27 -37 -30 -40 -12 -11 -79 -117
-103 -166 -56 -111 -72 -245 -42 -350 46 -160 166 -259 355 -293 39 -7 245 -8
245 -1 0 2 14 4 30 5 41 3 124 14 149 20 12 3 33 7 49 10 64 12 87 17 172 41
50 14 101 27 114 30 12 3 53 12 90 21 155 36 331 35 532 -6 30 -6 68 -13 84
-16 17 -2 80 -18 140 -35 154 -43 156 -43 149 -25 -4 8 -10 15 -15 15 -5 0 -9
6 -9 13 0 13 -94 117 -106 117 -3 0 -12 6 -19 13 -27 24 -40 33 -72 52 -18 11
-33 23 -33 27 0 4 -5 8 -12 8 -18 0 -128 86 -215 168 -19 17 -39 32 -44 32 -5
0 -9 3 -9 8 0 4 -16 25 -35 47 -51 58 -52 59 -70 101 -32 75 -38 152 -14 186
16 22 136 83 184 93 19 4 70 29 94 47 13 10 27 16 31 13 4 -3 11 2 14 10 4 12
-1 14 -27 11 -39 -6 -84 -14 -117 -21 -14 -3 -51 -10 -83 -16 -32 -5 -68 -14
-80 -19 -35 -14 -62 -22 -62 -18 -1 2 -19 -12 -42 -29 -58 -47 -69 -78 -54
-162 7 -37 19 -80 27 -96 8 -15 14 -31 14 -35 0 -4 24 -59 54 -121 38 -80 50
-116 42 -121 -15 -9 -63 -20 -97 -23 -14 -1 -30 -4 -35 -7 -5 -3 -43 -11 -84
-18 -41 -6 -84 -13 -95 -15 -11 -2 -33 -7 -50 -10 -16 -3 -59 -13 -94 -21 -36
-9 -72 -17 -80 -19 -251 -54 -293 -59 -451 -60 -273 0 -370 88 -337 307 7 42
49 167 65 193 4 5 7 12 7 15 2 14 69 135 76 138 5 2 9 7 9 12 0 5 16 36 36 69
l36 61 19 -21 c11 -12 33 -52 49 -88 41 -90 62 -129 56 -108 -3 9 -2 17 2 17
5 0 9 11 10 25 1 14 2 31 3 38 3 40 -15 169 -32 235 -26 99 -25 95 -32 112 -9
24 -57 184 -64 216 -14 59 -8 187 11 224 40 76 183 180 271 196 16 3 32 7 37
10 4 3 8 0 8 -7 0 -9 3 -10 11 -2 11 11 79 -3 95 -20 4 -4 16 -7 26 -7 10 0
18 -4 18 -10 0 -5 6 -10 13 -10 7 0 23 -9 35 -20 12 -12 22 -18 22 -15 0 6 17
-7 55 -42 13 -13 28 -23 32 -23 5 0 16 -8 24 -17 9 -10 37 -36 63 -58 26 -22
57 -49 70 -60 12 -11 42 -36 65 -55 23 -19 61 -52 84 -72 23 -21 46 -38 50
-38 5 0 14 -6 22 -12 25 -24 50 -42 120 -88 17 -10 35 -22 40 -27 10 -8 126
-70 155 -83 8 -4 30 -14 48 -23 19 -9 40 -17 48 -17 8 0 14 -5 14 -11 0 -5 5
-7 10 -4 6 4 16 3 23 -2 7 -5 32 -15 57 -22 25 -7 51 -18 58 -23 8 -7 12 -7
12 0 0 6 7 9 15 6 32 -13 12 7 -47 47 -35 24 -65 45 -68 48 -12 14 -70 51 -79
51 -6 0 -15 8 -20 18 -6 9 -11 14 -11 10 0 -7 -25 11 -55 40 -8 6 -17 12 -21
12 -4 0 -22 11 -40 25 -18 14 -35 25 -39 25 -3 0 -18 11 -32 24 -14 13 -37 30
-52 38 -14 7 -28 15 -31 18 -3 3 -21 17 -40 30 -19 14 -84 73 -143 132 -60 60
-111 108 -113 108 -3 0 -15 9 -27 21 -12 11 -49 41 -82 65 -33 25 -71 54 -85
65 -13 10 -30 19 -36 19 -7 0 -14 3 -16 8 -6 15 -149 75 -210 88 -5 1 -9 3
-10 4 -7 7 -138 6 -173 -1z"/>
<path d="M7457 4634 c-1 -2 -25 -5 -52 -8 -28 -2 -50 -5 -50 -6 0 -1 -16 -3
-35 -5 -30 -2 -94 -13 -177 -29 -13 -3 -76 -19 -140 -36 -221 -59 -268 -71
-323 -77 -67 -9 -232 -8 -280 1 -19 4 -53 8 -75 11 -22 2 -51 6 -65 9 -14 3
-47 10 -75 16 -27 6 -59 12 -70 15 -11 3 -29 7 -40 9 -11 3 -45 12 -77 20
-113 31 -126 28 -90 -16 38 -50 130 -136 150 -142 12 -4 22 -12 22 -17 0 -5 6
-9 14 -9 8 0 16 -3 18 -7 2 -5 28 -24 58 -44 126 -82 330 -265 330 -295 0 -8
4 -14 9 -14 13 0 54 -117 47 -135 -3 -8 -2 -15 3 -15 12 0 7 -41 -8 -69 -11
-20 -139 -89 -175 -95 -18 -3 -120 -55 -145 -75 l-24 -18 47 7 c25 4 46 5 46
2 0 -2 7 2 17 9 9 8 18 12 20 10 4 -4 108 12 116 19 1 1 13 3 27 5 77 9 179
66 202 114 17 36 14 127 -6 159 -4 6 -9 20 -11 31 -3 17 -15 46 -63 151 -9 19
-21 38 -26 42 -6 4 -8 8 -4 8 4 0 -2 18 -13 40 -24 45 -20 56 18 63 16 3 62
12 103 21 41 8 85 17 96 20 12 2 37 7 55 10 74 12 96 17 140 27 26 6 53 12 60
13 8 2 21 6 29 9 8 4 26 8 40 11 14 3 70 14 125 25 148 32 188 36 332 35 92 0
136 -4 147 -13 9 -8 16 -10 16 -7 0 20 102 -52 126 -87 24 -36 27 -52 29 -129
1 -48 -1 -88 -4 -88 -4 0 -11 -21 -18 -47 -6 -27 -17 -61 -24 -78 -7 -16 -13
-32 -14 -35 -4 -18 -81 -166 -87 -168 -4 -2 -8 -9 -8 -17 0 -7 -7 -18 -15 -25
-8 -7 -12 -16 -9 -21 3 -5 0 -9 -5 -9 -6 0 -11 -6 -11 -12 -1 -14 -34 -58 -44
-58 -3 0 -6 7 -6 15 0 8 -3 15 -8 15 -4 0 -27 42 -52 94 -24 52 -47 93 -52 90
-8 -5 -3 -201 7 -249 3 -16 8 -37 9 -45 2 -8 6 -22 8 -30 3 -8 25 -76 48 -150
23 -74 45 -142 47 -150 16 -45 20 -145 9 -194 -19 -81 -92 -158 -203 -213
-100 -50 -159 -50 -261 -3 -39 18 -79 41 -88 51 -9 11 -22 19 -28 19 -7 0 -18
9 -26 20 -8 11 -18 20 -22 20 -8 0 -34 20 -67 50 -10 8 -48 42 -86 75 -39 33
-77 68 -86 77 -9 10 -20 18 -24 18 -4 0 -26 16 -49 36 -22 19 -45 38 -51 42
-5 4 -29 20 -52 36 -24 16 -43 33 -43 39 0 6 -3 8 -6 4 -3 -3 -36 14 -72 37
-73 46 -241 130 -287 142 -5 1 -29 9 -52 18 -24 8 -43 13 -43 10 0 -2 -9 0
-21 6 -11 7 -33 14 -47 16 -26 5 -26 5 -7 -16 10 -11 29 -26 41 -33 42 -24
239 -160 242 -169 2 -4 9 -8 16 -8 7 0 21 -8 32 -17 10 -10 31 -24 47 -32 15
-8 27 -18 27 -23 0 -5 5 -6 10 -3 6 3 10 2 10 -4 0 -5 18 -20 40 -32 22 -13
40 -26 40 -31 0 -4 5 -8 11 -8 16 0 52 -30 155 -128 96 -92 183 -170 207 -187
8 -5 41 -28 73 -51 33 -22 84 -55 115 -71 66 -36 207 -85 220 -77 5 3 9 2 9
-3 0 -4 21 -7 47 -6 27 1 48 2 48 3 0 1 11 3 25 5 42 5 53 9 110 38 180 88
302 332 264 527 -10 53 -12 65 -14 68 -2 1 -3 5 -4 10 -6 23 -21 63 -44 112
-13 30 -35 79 -49 109 l-24 53 46 72 c25 39 77 114 115 166 82 110 145 231
164 311 11 48 12 155 3 199 -21 89 -55 150 -117 208 -37 34 -138 87 -180 95
-14 3 -37 8 -52 12 -27 7 -195 14 -201 9z"/>
<path d="M928 3675 c-2 -1 -39 -5 -83 -9 -69 -6 -103 -11 -175 -31 -31 -8 -86
-31 -119 -50 -47 -27 -121 -96 -121 -112 0 -7 -3 -13 -8 -13 -11 0 -51 -95
-59 -145 -8 -43 -7 -184 1 -220 19 -84 50 -155 86 -192 11 -13 19 -23 16 -23
-9 0 46 -51 102 -95 31 -24 59 -42 64 -39 4 3 8 1 8 -4 0 -5 34 -26 75 -47 41
-22 75 -43 75 -48 0 -4 4 -6 9 -2 11 6 26 -79 16 -94 -3 -6 -3 -11 2 -11 4 0
8 -75 9 -168 1 -194 10 -288 34 -332 5 -10 6 -20 3 -24 -3 -3 -1 -6 5 -6 7 0
11 -3 10 -7 -4 -14 31 -77 57 -106 14 -15 23 -27 19 -27 -4 0 6 -10 22 -22 16
-13 30 -26 32 -30 2 -5 10 -8 17 -8 8 0 18 -7 23 -16 5 -9 12 -15 15 -15 4 1
23 -5 42 -13 91 -38 205 -37 299 4 25 10 46 16 46 12 0 -4 4 -2 8 3 4 6 21 17
37 25 17 8 35 22 42 30 7 8 13 11 13 7 0 -5 6 -2 14 5 7 7 34 31 61 52 60 50
191 181 247 248 24 28 48 56 53 62 6 6 26 31 45 56 18 25 41 52 49 61 9 9 30
34 46 55 84 108 227 219 395 303 114 58 240 112 240 103 0 -4 4 -1 8 6 5 7 18
14 30 17 12 2 36 10 54 18 18 8 41 17 51 21 21 7 23 26 2 26 -8 0 -16 -1 -17
-2 -2 -1 -13 4 -25 11 -31 16 -93 24 -183 23 -249 -2 -319 -1 -355 3 -117 13
-143 16 -170 21 -16 3 -34 9 -39 14 -5 5 -15 6 -22 3 -8 -3 -14 -1 -14 5 0 5
-12 13 -26 16 -15 4 -51 31 -80 61 -58 58 -68 91 -39 131 8 12 11 24 8 28 -3
3 -1 6 5 6 7 0 12 7 12 15 0 8 5 15 10 15 6 0 10 6 10 13 0 7 9 23 20 35 11
12 20 28 20 36 0 8 5 16 10 18 11 3 61 120 55 126 -2 2 -33 -27 -68 -65 -97
-102 -125 -134 -155 -178 -15 -22 -30 -42 -33 -45 -14 -12 -30 -83 -26 -116 5
-34 31 -73 69 -102 9 -7 23 -18 30 -25 7 -7 20 -16 28 -20 8 -4 29 -16 45 -27
17 -10 50 -30 75 -43 86 -46 125 -69 137 -81 14 -13 -15 -50 -152 -195 -122
-128 -125 -131 -205 -227 -91 -108 -284 -301 -311 -309 -10 -4 -19 -11 -19
-16 0 -5 -6 -9 -14 -9 -8 0 -17 -7 -20 -16 -3 -8 -10 -12 -16 -9 -5 3 -10 3
-10 -2 0 -10 -91 -53 -123 -58 -50 -9 -97 -12 -103 -6 -3 3 -9 6 -12 7 -37 4
-122 77 -122 103 0 6 -4 11 -8 11 -16 0 -76 171 -87 248 -2 15 -6 38 -9 52 -8
37 -15 96 -22 170 -3 36 -7 70 -9 77 -8 25 24 18 107 -24 48 -24 90 -48 93
-54 4 -5 13 -9 21 -9 12 0 11 8 -6 40 -11 22 -26 40 -32 40 -6 0 -9 2 -6 5 7
7 -42 64 -96 114 -21 20 -50 46 -63 59 -13 12 -26 22 -29 22 -7 0 -158 113
-166 124 -4 6 -8 8 -8 3 0 -7 -27 16 -94 78 -11 11 -30 34 -41 50 -67 102 -67
183 0 339 17 40 20 45 57 87 34 38 115 78 165 82 18 1 33 5 33 9 0 4 12 3 28
-1 15 -5 36 -5 47 -1 11 4 22 6 25 5 3 -2 57 -6 120 -9 63 -4 133 -9 155 -12
75 -10 460 -13 515 -4 30 5 74 11 98 14 24 3 62 11 85 17 23 6 52 13 65 15 67
13 185 61 178 73 -3 4 -29 7 -58 5 -29 -1 -87 -3 -128 -3 -96 -1 -91 -1 -185
-5 -143 -8 -379 -8 -405 -1 -14 3 -41 8 -60 10 -19 2 -48 6 -65 10 -44 8 -301
25 -307 20z"/>
<path d="M5718 3393 c-2 -21 1 -56 6 -78 15 -72 39 -150 49 -162 5 -7 6 -13 2
-13 -4 0 -2 -7 5 -15 7 -8 9 -15 5 -15 -4 0 -1 -10 7 -22 15 -24 56 -127 63
-163 3 -11 11 -42 19 -70 8 -27 18 -63 22 -80 4 -16 9 -37 11 -45 10 -40 11
-159 2 -190 -20 -69 -52 -128 -75 -140 -16 -9 -42 -11 -81 -6 -32 4 -64 8 -70
8 -7 1 -13 5 -13 9 0 5 -6 6 -14 3 -8 -3 -24 -1 -35 5 -27 15 -178 24 -164 10
16 -16 206 -97 281 -121 154 -48 226 -13 268 127 24 80 24 79 50 250 9 57 16
95 19 95 11 0 132 -46 198 -76 45 -20 109 -49 142 -64 33 -15 90 -38 128 -51
37 -13 67 -28 67 -32 0 -4 4 -6 9 -3 5 3 33 -5 62 -17 65 -28 92 -40 99 -41 3
-1 16 -8 29 -15 14 -8 52 -28 85 -45 77 -40 166 -98 166 -108 0 -5 4 -8 9 -8
13 0 70 -58 63 -65 -3 -3 0 -5 7 -5 20 0 59 -100 57 -145 -3 -51 -16 -95 -27
-95 -5 0 -9 -6 -9 -13 0 -34 -225 -220 -267 -220 -7 0 -13 -3 -13 -7 0 -6 -54
-34 -194 -101 -22 -10 -41 -17 -43 -15 -8 8 -9 77 -1 82 5 3 6 9 4 13 -3 3 2
40 10 81 7 40 12 75 11 77 -2 2 -16 -10 -30 -27 -15 -16 -24 -30 -21 -30 4 0
-3 -9 -16 -20 -13 -11 -19 -20 -15 -20 4 0 1 -8 -7 -17 -14 -15 -68 -126 -68
-138 0 -2 -5 -16 -12 -32 -6 -15 -13 -34 -15 -40 -1 -7 -5 -19 -6 -25 -2 -7
-7 -20 -10 -28 -3 -8 -13 -42 -22 -75 -9 -33 -18 -67 -21 -75 -3 -8 -5 -17 -6
-20 0 -3 -6 -20 -13 -37 -8 -18 -11 -33 -7 -33 4 0 3 -4 -3 -8 -5 -4 -21 -27
-34 -52 -33 -60 -97 -116 -146 -126 -5 -1 -28 -6 -51 -12 -37 -8 -109 -8 -174
2 -39 6 -102 35 -128 59 -31 28 -86 107 -75 107 4 0 3 4 -3 8 -17 11 -100 256
-117 348 -2 10 -6 26 -9 34 -3 8 -16 53 -29 100 -12 47 -26 89 -31 95 -4 5 -8
17 -8 26 0 10 -9 39 -21 66 -11 26 -22 55 -24 64 -3 15 -93 202 -118 244 -37
63 -111 165 -120 165 -6 0 -8 2 -5 5 5 5 -64 86 -70 81 -3 -3 15 -61 30 -96
17 -39 23 -56 87 -220 33 -85 66 -168 72 -185 7 -16 13 -32 14 -35 1 -3 7 -18
14 -35 7 -16 14 -38 16 -47 2 -9 8 -25 14 -35 5 -11 17 -59 26 -109 10 -49 18
-96 20 -104 8 -40 55 -212 60 -220 3 -6 8 -18 10 -27 2 -10 8 -31 15 -48 6
-16 11 -32 12 -35 0 -3 4 -11 10 -17 6 -7 7 -13 2 -13 -5 0 -4 -4 1 -8 6 -4
18 -25 28 -46 39 -84 126 -195 183 -234 21 -14 80 -42 91 -43 5 -1 17 -6 28
-12 25 -14 158 -17 204 -5 18 5 42 11 52 13 10 2 53 21 94 41 139 69 222 177
260 339 9 39 19 77 23 85 3 8 6 27 7 42 8 95 16 117 49 138 18 11 41 20 50 20
9 0 16 5 16 11 0 6 6 9 14 6 7 -3 17 -2 22 3 5 4 44 20 88 34 43 15 91 33 107
41 16 9 31 15 34 15 20 1 104 40 123 58 7 6 17 12 21 12 15 0 141 117 141 131
0 4 6 14 13 21 16 16 53 103 61 143 11 54 7 158 -7 171 -4 4 -7 15 -7 25 0 63
-158 239 -265 295 -30 16 -55 32 -55 37 0 4 -5 7 -10 7 -6 0 -52 20 -103 44
-88 42 -235 104 -267 112 -36 8 -210 73 -263 98 -32 14 -61 26 -65 26 -5 0
-17 8 -28 18 -10 9 -31 23 -45 30 -14 8 -39 25 -54 38 -15 13 -31 24 -35 24
-5 0 -66 57 -137 128 -112 110 -153 155 -262 280 l-20 24 -3 -39z"/>
<path d="M2784 2549 c-9 -10 -21 -16 -25 -13 -5 3 -9 1 -9 -4 0 -5 -20 -23
-45 -41 -24 -17 -51 -39 -60 -47 -8 -9 -15 -13 -15 -10 0 3 -9 -2 -19 -11 -37
-34 -50 -43 -61 -43 -6 0 -9 -4 -5 -9 3 -5 -3 -12 -13 -15 -10 -4 -27 -14 -38
-24 -10 -9 -64 -50 -119 -91 -55 -41 -102 -77 -105 -80 -3 -4 -24 -15 -47 -26
-24 -11 -43 -24 -43 -28 0 -5 -5 -5 -11 -1 -6 3 -14 2 -18 -3 -3 -6 -35 -25
-71 -43 -35 -18 -82 -44 -105 -58 -22 -15 -43 -25 -47 -24 -5 1 -8 -2 -8 -7 0
-5 -13 -14 -30 -21 -16 -7 -30 -16 -30 -20 0 -4 -8 -11 -19 -16 -91 -44 -293
-269 -283 -316 1 -5 -2 -8 -7 -8 -5 0 -12 -15 -15 -32 -3 -18 -9 -44 -12 -58
-6 -29 -6 -84 1 -120 8 -45 39 -130 47 -130 4 0 8 -6 8 -13 0 -7 9 -23 20 -35
12 -12 18 -22 15 -22 -5 0 24 -35 70 -84 38 -39 128 -96 165 -104 3 -1 27 -8
54 -16 62 -19 362 -12 397 9 9 6 89 -81 82 -89 -4 -3 -2 -6 4 -6 5 0 35 -37
66 -82 30 -46 65 -93 76 -105 12 -12 21 -25 21 -28 0 -6 58 -71 95 -107 30
-29 109 -83 118 -80 4 1 7 -2 7 -8 0 -5 7 -10 15 -10 8 0 23 -4 33 -9 35 -19
111 -30 179 -27 115 6 213 61 284 158 22 29 42 58 47 63 22 29 73 175 88 250
4 22 8 42 9 45 0 3 4 27 9 53 4 27 9 59 12 70 2 12 6 45 9 72 3 28 7 70 10 95
3 25 8 92 11 150 9 186 19 250 49 345 27 86 66 179 77 183 5 2 6 8 2 13 -3 5
-1 9 4 9 5 0 9 6 9 13 0 7 16 41 36 76 21 34 37 66 37 72 0 5 4 9 8 9 5 0 16
15 25 33 9 17 23 41 29 52 38 59 72 111 77 115 3 3 12 16 19 29 13 23 13 23
-15 16 -15 -4 -34 -8 -40 -8 -7 0 -13 -4 -13 -9 0 -4 -3 -7 -7 -6 -13 3 -53
-13 -53 -21 0 -4 -6 -8 -14 -8 -7 0 -73 -45 -147 -100 -191 -143 -348 -236
-419 -249 -14 -3 -38 -9 -55 -13 -30 -8 -51 -7 -115 6 -19 3 -38 6 -42 5 -5
-1 -8 3 -8 9 0 5 -4 8 -9 4 -10 -6 -39 49 -40 75 -1 51 -17 232 -24 273 -2 9
-9 23 -15 29 -9 9 -12 6 -13 -12 0 -14 -2 -32 -4 -40 -34 -165 -36 -332 -4
-396 11 -24 27 -44 34 -44 7 0 15 -4 17 -9 9 -28 225 -31 358 -7 19 4 52 9 74
10 l38 4 -5 -91 c-4 -51 -8 -101 -11 -112 -2 -11 -7 -45 -12 -75 -4 -30 -8
-57 -9 -60 -3 -13 -18 -150 -20 -185 -4 -66 -16 -179 -20 -200 -3 -11 -7 -36
-9 -55 -3 -19 -10 -57 -16 -85 -6 -27 -12 -60 -14 -72 -2 -12 -7 -27 -11 -33
-3 -5 -9 -23 -11 -38 -7 -38 -69 -162 -97 -192 -45 -50 -98 -75 -152 -73 -59
2 -88 6 -95 13 -3 3 -31 18 -62 35 -32 16 -58 33 -58 37 0 4 -5 8 -10 8 -26 0
-290 265 -290 291 0 5 -4 9 -10 9 -5 0 -10 6 -10 14 0 17 25 26 83 31 23 2 43
5 45 6 4 3 41 6 85 8 l42 1 -30 18 c-28 17 -108 45 -165 57 -58 12 -115 16
-298 20 -106 2 -197 7 -203 10 -5 4 -26 9 -45 11 -75 9 -150 68 -188 147 -14
29 -27 63 -28 77 -2 14 -6 30 -9 35 -10 16 -14 118 -6 155 7 36 41 91 81 131
56 56 95 89 107 89 5 0 9 5 9 10 0 6 4 10 10 10 5 0 29 13 52 29 24 16 46 27
50 25 5 -3 8 -1 8 5 0 6 19 20 43 32 23 12 44 24 47 28 3 3 19 13 35 21 17 8
32 17 35 20 3 3 34 23 70 44 36 22 67 43 68 48 2 4 10 8 18 8 8 0 14 4 14 9 0
5 8 12 18 15 9 3 29 16 44 28 15 13 44 37 65 53 100 80 188 167 245 241 12 16
25 31 28 34 7 6 74 100 83 116 10 18 -22 12 -39 -7z"/>
<path d="M4942 2535 c-27 -31 -86 -141 -97 -180 -5 -16 -9 -32 -10 -35 -1 -3
-10 -32 -20 -65 -11 -33 -19 -62 -20 -65 0 -3 -4 -11 -8 -17 -5 -7 -6 -13 -2
-13 3 0 -4 -18 -15 -40 -11 -22 -17 -40 -13 -40 4 0 2 -5 -5 -12 -7 -7 -12
-20 -12 -30 0 -10 -4 -18 -10 -18 -5 0 -10 -5 -10 -11 0 -18 -50 -120 -80
-163 -50 -73 -120 -131 -172 -142 -5 -1 -9 -2 -10 -3 -25 -20 -108 9 -108 36
0 7 -7 13 -16 13 -8 0 -13 4 -10 9 4 5 3 11 -1 13 -5 1 -28 28 -53 58 -54 67
-140 150 -140 135 0 -8 107 -211 133 -252 15 -24 27 -45 27 -48 0 -2 21 -25
46 -50 41 -39 64 -52 77 -42 2 1 11 -4 19 -10 8 -7 18 -10 22 -6 3 4 13 8 22
9 23 4 97 44 122 67 12 11 22 18 22 14 0 -6 95 80 156 141 18 17 37 32 43 32
6 0 11 5 11 10 0 6 3 10 8 10 7 0 31 -40 83 -138 15 -30 32 -59 38 -65 5 -7
11 -18 13 -26 2 -8 20 -45 41 -84 20 -38 37 -74 37 -78 0 -5 5 -9 10 -9 6 0
10 -5 10 -11 0 -6 9 -23 20 -39 11 -15 17 -30 13 -34 -3 -3 -1 -6 4 -6 6 0 21
-20 33 -45 12 -25 26 -47 31 -51 5 -3 7 -9 4 -13 -2 -5 4 -19 15 -31 11 -13
20 -29 20 -37 0 -7 5 -13 11 -13 5 0 7 -5 4 -11 -4 -5 0 -18 7 -27 16 -18 75
-163 81 -197 2 -11 8 -29 13 -40 5 -11 9 -63 9 -115 0 -83 -3 -100 -24 -133
-13 -21 -40 -49 -61 -63 -36 -24 -47 -28 -120 -43 -37 -8 -156 -6 -225 3 -114
15 -156 23 -188 35 -14 6 -27 7 -30 4 -3 -3 -12 -1 -19 3 -7 5 -22 10 -33 11
-11 2 -30 8 -42 15 -22 11 -21 13 35 67 33 31 76 71 98 89 l39 33 -30 -5 c-17
-2 -32 -5 -35 -6 -3 -1 -9 -3 -15 -4 -58 -11 -85 -20 -85 -29 0 -6 -3 -7 -6
-4 -4 4 -34 -8 -68 -25 -66 -34 -239 -148 -244 -160 -2 -5 -7 -8 -12 -8 -4 0
-36 -19 -72 -43 -122 -82 -235 -98 -332 -48 -62 33 -156 123 -189 181 -23 40
-25 54 -23 134 2 48 7 91 12 95 5 3 10 15 12 26 3 20 10 42 33 100 7 17 13 32
14 35 5 14 27 65 47 108 12 26 22 49 23 52 1 3 10 23 20 45 21 46 19 41 29 78
5 15 12 27 18 27 5 0 7 4 3 9 -3 5 -1 12 5 16 5 3 10 16 10 29 0 12 4 26 9 32
7 8 41 100 47 129 1 6 11 44 23 85 12 41 24 95 27 120 3 25 8 48 10 52 10 15
19 206 15 303 l-1 29 -16 -22 c-8 -12 -12 -27 -9 -32 3 -6 2 -10 -3 -10 -9 0
-28 -65 -24 -82 1 -5 -3 -8 -8 -8 -5 0 -9 -3 -8 -7 1 -5 -7 -35 -17 -68 -10
-33 -19 -62 -20 -65 -12 -38 -28 -106 -26 -109 2 -2 -1 -7 -6 -10 -9 -6 -33
-75 -47 -138 -2 -12 -10 -31 -16 -42 -6 -12 -7 -21 -3 -21 4 0 2 -5 -5 -12 -7
-7 -12 -19 -12 -27 0 -9 -7 -29 -16 -46 -102 -191 -202 -417 -208 -466 -1 -14
-5 -30 -9 -36 -25 -40 -41 -245 -26 -328 10 -54 35 -118 59 -150 44 -58 147
-138 177 -138 7 0 13 -3 13 -6 0 -4 21 -12 48 -19 26 -8 54 -17 62 -21 18 -10
200 -12 215 -3 5 3 18 8 28 9 20 3 129 53 137 62 3 4 19 15 35 25 17 11 37 25
45 33 123 111 155 137 164 135 6 -2 25 -5 41 -7 32 -3 213 -62 230 -75 6 -4
21 -10 35 -13 14 -3 43 -11 65 -17 104 -28 119 -31 194 -34 35 -2 86 2 113 10
27 7 49 12 51 12 1 -1 27 11 58 26 51 24 141 86 125 86 -3 0 2 9 12 19 9 11
22 26 27 33 14 16 42 88 51 125 8 34 7 176 0 218 -3 17 -7 38 -9 47 -2 10 -6
21 -10 24 -4 4 -7 18 -7 31 0 13 -4 23 -10 23 -5 0 -10 7 -10 15 0 17 -45 119
-102 230 -23 44 -46 90 -52 102 -6 13 -14 23 -18 23 -5 0 -8 5 -8 11 0 6 -13
31 -30 56 -16 24 -30 46 -30 49 0 7 -44 68 -55 76 -5 4 -6 8 -1 8 5 0 2 8 -6
18 -67 79 -141 290 -163 468 -4 27 -8 60 -10 74 -6 36 -16 192 -20 288 -1 45
-4 85 -7 87 -2 3 -14 -6 -26 -20z"/>
</g>
</svg>
